v -3.6641 6.5781 20.5117
v 0.0000 6.5781 10.2891
v -4.8398 4.6914 19.3672
v -6.0547 1.7188 14.6289
v 0.0000 4.2812 20.3438
v 3.6641 6.5781 20.5117
v 4.8398 4.6914 19.3672
v 0.0000 0.1523 17.3398
v -4.8398 4.6914 19.3672
v -6.0547 1.7188 14.6289
v 0.0000 4.2812 20.3438
v -3.6641 6.5781 20.5117
v 3.6641 6.5781 20.5117
v 4.8398 4.6914 19.3672
v 6.0547 1.7188 14.6289
v 0.0000 6.5781 10.2891
v 6.0547 1.7188 14.6289
f 1 2 3
f 5 2 1
f 6 2 5
f 7 2 6
f 2 7 17
f 4 3 2
f 8 9 10
f 8 11 9
f 11 8 14
f 13 11 14
f 11 12 9
f 15 14 8
f 16 15 8
f 16 8 10
