v 0.0000 -4.3203 15.6328
v -4.0000 2.7930 19.5664
v -2.0000 -2.2461 16.5469
v -6.0000 -1.2891 15.9258
v -4.0000 -3.3281 15.5000
v -7.0000 6.7969 19.2305
v -10.2773 3.7266 17.5312
v -2.0000 -2.2461 16.5469
v 0.0000 -0.9336 12.4297
v 0.0000 -4.3203 15.6328
v -15.7344 8.5469 8.2930
v -10.2773 3.7266 17.5312
v 0.0000 13.9570 6.8672
v -11.8086 1.7227 10.8320
v -5.9023 -0.0898 11.6680
v -8.0000 -2.4375 14.0938
v -11.8086 1.7227 10.8320
v -4.0000 -3.3281 15.5000
v -6.0000 -1.2891 15.9258
v -4.0000 2.7930 19.5664
v 0.0000 7.1211 20.7461
v -7.0000 6.7969 19.2305
v -15.7344 8.5469 8.2930
v 2.0000 -2.2461 16.5469
v 4.0000 2.7930 19.5664
v 6.0000 -1.2891 15.9258
v 4.0000 -3.3281 15.5000
v 7.0000 6.7969 19.2305
v 10.2773 3.7266 17.5312
v 2.0000 -2.2461 16.5469
v 4.0000 -3.3281 15.5000
v 10.2773 3.7266 17.5312
v 15.7344 8.5469 8.2930
v 4.0000 2.7930 19.5664
v 7.0000 6.7969 19.2305
v 11.8086 1.7227 10.8320
v 8.0000 -2.4375 14.0938
v 15.7344 8.5469 8.2930
v 0.0000 7.1211 20.7461
v 11.8086 1.7227 10.8320
v 5.9023 -0.0898 11.6680
v 8.0000 -2.4375 14.0938
v 6.0000 -1.2891 15.9258
v -8.0000 -2.4375 14.0938
f 1 2 3
f 1 25 2
f 1 24 25
f 27 25 24
f 26 25 27
f 25 26 29
f 28 25 29
f 2 25 39
f 4 5 2
f 2 7 4
f 6 7 2
f 16 7 17
f 16 4 7
f 23 17 7
f 8 9 10
f 8 18 9
f 15 9 18
f 13 9 15
f 14 13 15
f 11 13 14
f 11 12 13
f 13 12 22
f 13 22 20
f 13 20 21
f 13 21 34
f 13 34 35
f 13 35 32
f 32 33 13
f 33 40 13
f 40 41 13
f 41 40 42
f 43 41 42
f 31 41 43
f 31 9 41
f 30 9 31
f 30 10 9
f 41 9 13
f 5 3 2
f 18 19 15
f 44 15 19
f 44 14 15
f 36 29 37
f 36 38 29
f 37 29 26
