v -25.5820 25.7188 -23.4531
v -18.9844 11.0000 -20.0000
v -26.6250 16.5000 -13.7070
v -30.5273 32.4180 -9.0312
v -17.4062 3.0000 -11.0000
v -29.6250 22.8594 -2.9531
v -19.0312 61.5156 5.4609
v -27.1094 47.6641 5.5000
v -22.3906 58.4414 14.5156
v -26.7109 47.2188 13.6016
v -27.7695 33.5898 12.0117
v -28.4922 36.1758 6.0000
v -25.0000 33.5391 15.6914
v -24.0000 42.7969 18.8047
v -10.5977 67.4883 -6.0039
v -24.8984 57.0000 -4.6680
v -24.5430 26.6445 10.0000
v -31.3008 43.3203 -3.0000
v -31.4219 28.6445 0.5000
v -27.4570 16.0000 6.0000
v -14.3945 10.4492 -27.8750
v -15.7148 25.7188 -32.4805
v -10.7539 2.0000 -21.4453
v -7.4570 10.4492 -29.7773
v 0.0000 26.0469 -36.8242
v 0.0000 10.4492 -32.4609
v 0.0000 0.0000 -25.3672
v 0.0000 61.4492 -23.5781
v -10.8359 63.9883 -17.9219
v 0.0000 69.2383 -6.3125
v -18.7617 58.1797 -15.8359
v -10.5977 56.1133 -27.0273
v -24.4844 44.3867 -20.3438
v -13.0625 45.5039 -32.1406
v 0.0000 68.9023 10.6016
v -13.5352 66.1562 11.1641
v 0.0000 46.1250 -34.8594
v -18.3047 21.6641 5.9375
v -27.4570 16.0000 6.0000
v -19.7500 26.2383 -0.0273
v -29.6250 22.8594 -2.9531
v -24.5430 26.6445 10.0000
v -28.4922 36.1758 6.0000
v 0.0000 53.0000 -4.3359
v -17.4062 3.0000 -11.0000
v -18.9844 11.0000 -20.0000
v -13.9219 9.1289 -14.7539
v -7.7695 7.5312 -17.4883
v -10.7539 2.0000 -21.4453
v 0.0000 0.0000 -25.3672
v -7.4570 10.4492 -29.7773
v -11.1367 13.7969 -4.9453
v -9.8789 61.8906 21.4766
v -17.6602 49.6250 24.6641
v -5.4727 51.9297 27.5430
v 0.0000 62.0742 23.0117
v -25.0000 33.5391 15.6914
v -24.0000 42.7969 18.8047
v -13.0430 43.3164 26.0742
v -19.1133 37.0000 22.3906
v -6.4766 37.0000 26.6445
v 0.0000 43.3164 27.6445
v -19.1133 37.0000 22.3906
v -13.0430 43.3164 26.0742
v 0.0000 43.3164 27.6445
v -6.4766 37.0000 26.6445
v 5.4727 51.9297 27.5430
v -18.3047 21.6641 5.9375
v 0.0000 53.0000 -4.3359
v 11.1367 13.7969 -4.9453
v 7.7695 7.5312 -17.4883
v 25.5820 25.7188 -23.4531
v 26.6250 16.5000 -13.7070
v 18.9844 11.0000 -20.0000
v 30.5273 32.4180 -9.0312
v 29.6250 22.8594 -2.9531
v 17.4062 3.0000 -11.0000
v 19.0312 61.5156 5.4609
v 22.3906 58.4414 14.5156
v 27.1094 47.6641 5.5000
v 26.7109 47.2188 13.6016
v 27.7695 33.5898 12.0117
v 28.4922 36.1758 6.0000
v 25.0000 33.5391 15.6914
v 24.0000 42.7969 18.8047
v 24.8984 57.0000 -4.6680
v 10.5977 67.4883 -6.0039
v 24.5430 26.6445 10.0000
v 31.3008 43.3203 -3.0000
v 31.4219 28.6445 0.5000
v 27.4570 16.0000 6.0000
v 15.7148 25.7188 -32.4805
v 14.3945 10.4492 -27.8750
v 10.7539 2.0000 -21.4453
v 7.4570 10.4492 -29.7773
v 10.8359 63.9883 -17.9219
v 18.7617 58.1797 -15.8359
v 24.4844 44.3867 -20.3438
v 10.5977 56.1133 -27.0273
v 13.0625 45.5039 -32.1406
v 13.5352 66.1562 11.1641
v 18.3047 21.6641 5.9375
v 19.7500 26.2383 -0.0273
v 27.4570 16.0000 6.0000
v 29.6250 22.8594 -2.9531
v 24.5430 26.6445 10.0000
v 28.4922 36.1758 6.0000
v 17.4062 3.0000 -11.0000
v 13.9219 9.1289 -14.7539
v 18.9844 11.0000 -20.0000
v 10.7539 2.0000 -21.4453
v 7.4570 10.4492 -29.7773
v 9.8789 61.8906 21.4766
v 25.0000 33.5391 15.6914
v 24.0000 42.7969 18.8047
v 13.0430 43.3164 26.0742
v 19.1133 37.0000 22.3906
v 6.4766 37.0000 26.6445
v 19.1133 37.0000 22.3906
v 17.6602 49.6250 24.6641
v 13.0430 43.3164 26.0742
v 6.4766 37.0000 26.6445
v 7.7695 7.5312 -17.4883
v 13.9219 9.1289 -14.7539
v 0.0000 53.0000 -4.3359
v 28.4922 36.1758 6.0000
f 1 2 3
f 1 3 4
f 1 4 33
f 33 22 1
f 34 22 33
f 33 32 34
f 31 32 33
f 33 16 31
f 18 16 33
f 8 16 18
f 8 18 12
f 10 8 12
f 9 8 10
f 7 8 9
f 9 36 7
f 9 53 36
f 54 53 9
f 53 54 55
f 53 55 56
f 56 35 53
f 56 113 35
f 56 67 113
f 55 67 56
f 55 65 67
f 65 55 66
f 66 55 64
f 54 64 55
f 63 64 54
f 54 14 63
f 54 9 14
f 14 9 10
f 11 14 10
f 11 10 12
f 12 17 11
f 11 17 13
f 13 14 11
f 3 5 6
f 2 5 3
f 2 1 21
f 21 23 2
f 23 21 24
f 22 24 21
f 21 1 22
f 25 24 22
f 25 26 24
f 25 95 26
f 25 92 95
f 92 25 100
f 92 100 98
f 72 92 98
f 92 72 93
f 92 93 95
f 94 95 93
f 93 74 94
f 72 74 93
f 72 73 74
f 72 75 73
f 72 98 75
f 98 89 75
f 89 98 86
f 80 89 86
f 80 83 89
f 81 83 80
f 79 81 80
f 78 79 80
f 79 78 101
f 79 101 113
f 120 79 113
f 120 85 79
f 120 119 85
f 119 120 121
f 120 67 121
f 113 67 120
f 113 101 35
f 35 101 87
f 30 35 87
f 30 15 35
f 30 29 15
f 28 29 30
f 29 28 32
f 32 31 29
f 15 29 31
f 16 15 31
f 7 15 16
f 15 7 36
f 35 15 36
f 53 35 36
f 18 4 19
f 18 19 12
f 12 19 20
f 6 20 19
f 19 4 6
f 4 3 6
f 33 4 18
f 26 27 24
f 26 95 27
f 37 25 34
f 37 34 32
f 32 28 37
f 99 37 28
f 37 99 100
f 100 25 37
f 98 100 99
f 97 98 99
f 98 97 86
f 86 97 87
f 78 86 87
f 87 101 78
f 30 87 96
f 28 30 96
f 96 99 28
f 99 96 97
f 87 97 96
f 34 25 22
f 38 39 40
f 40 39 41
f 41 52 40
f 45 52 41
f 45 47 52
f 45 46 47
f 49 47 46
f 48 47 49
f 49 51 48
f 50 48 51
f 71 48 50
f 52 48 71
f 47 48 52
f 70 52 71
f 108 105 70
f 108 70 109
f 108 109 110
f 111 110 109
f 71 111 109
f 111 71 112
f 50 112 71
f 42 43 44
f 42 44 57
f 58 57 44
f 60 58 44
f 59 60 44
f 61 59 44
f 61 44 62
f 118 62 44
f 118 44 116
f 116 44 117
f 117 44 115
f 115 44 114
f 106 114 44
f 106 44 107
f 7 16 8
f 39 68 43
f 43 68 69
f 73 76 77
f 74 73 77
f 75 76 73
f 90 76 75
f 89 90 75
f 89 83 90
f 83 91 90
f 76 90 91
f 82 83 81
f 82 81 85
f 84 82 85
f 82 84 88
f 83 82 88
f 102 103 104
f 126 102 104
f 125 102 126
f 103 105 104
f 105 103 70
f 70 123 124
f 78 80 86
f 65 122 67
f 67 122 121
f 85 81 79
