v -26.2969 33.4336 0.0000
v -24.0000 33.4336 9.0273
v -26.7734 42.2422 3.7266
v -7.5352 22.3867 -30.3516
v 0.0000 9.6289 -19.1055
v -19.7852 24.1953 -25.3828
v -18.6641 15.5547 -13.8867
v -26.2969 33.4336 0.0000
v -25.7617 33.9414 -14.1016
v -16.6406 36.5469 -27.4336
v -7.5352 22.3867 -30.3516
v -19.7852 24.1953 -25.3828
v -24.0000 46.2188 9.0273
v -7.5352 22.3867 -30.3516
v 0.0000 33.5469 -33.9375
v 7.5352 22.3867 -30.3516
v -25.7617 33.9414 -14.1016
v -16.6406 36.5469 -27.4336
v -16.6406 36.5469 -27.4336
v -26.7734 42.2422 3.7266
v -25.4375 44.2617 -12.9023
v -25.7617 33.9414 -14.1016
v -26.2969 33.4336 0.0000
v -16.6406 36.5469 -27.4336
v 26.2969 33.4336 0.0000
v 26.7734 42.2422 3.7266
v 24.0000 33.4336 9.0273
v 7.5352 22.3867 -30.3516
v 19.7852 24.1953 -25.3828
v 18.6641 15.5547 -13.8867
v 26.2969 33.4336 0.0000
v 25.7617 33.9414 -14.1016
v 16.6406 36.5469 -27.4336
v 19.7852 24.1953 -25.3828
v 7.5352 22.3867 -30.3516
v 16.6406 36.5469 -27.4336
v 25.7617 33.9414 -14.1016
v 16.6406 36.5469 -27.4336
v 26.7734 42.2422 3.7266
v 26.2969 33.4336 0.0000
v 25.7617 33.9414 -14.1016
v 25.4375 44.2617 -12.9023
v 16.6406 36.5469 -27.4336
v 24.0000 46.2188 9.0273
f 1 2 3
f 13 3 2
f 4 5 6
f 4 28 5
f 28 29 5
f 5 29 30
f 32 30 29
f 31 30 32
f 6 5 7
f 7 9 6
f 8 9 7
f 10 11 12
f 14 15 16
f 19 15 14
f 38 16 15
f 6 17 18
f 20 21 22
f 20 22 23
f 22 21 24
f 25 26 27
f 27 26 44
f 33 34 35
f 29 36 37
f 39 40 41
f 42 39 41
f 42 41 43
