v 14.0820 49.2148 12.7969
v 24.8750 41.7383 11.0234
v 32.4141 28.0000 0.9961
v 0.0000 57.3633 20.7188
v 0.0000 57.3633 20.7188
v 11.3984 35.3047 -31.6953
v 19.3555 36.9375 -24.9492
v 17.7852 22.3867 -27.3008
v 26.6562 41.1250 -7.1641
v 27.3945 33.4336 8.7305
v 25.9141 21.4961 -6.6133
v 27.7969 21.4414 3.0391
v 24.8750 41.7383 11.0234
v 0.0000 23.7656 -32.3047
v 0.0000 34.6914 -34.3477
v 31.7617 9.0938 -5.3086
v 14.0430 11.5586 -26.7891
v 25.5391 9.9219 -15.1836
v 0.0000 12.7422 -31.8633
v 24.0977 -11.9961 -3.1250
v 31.5586 -0.7266 -4.0273
v 29.6680 0.9102 2.8672
v 8.2344 -13.6172 -30.3281
v 0.0000 -1.0234 -37.4609
v 12.5625 -0.1523 -32.4023
v 25.1484 3.9102 -15.3438
v 24.8359 -3.8164 -11.6562
v 12.5742 18.8008 -7.8672
v 12.0469 10.8438 -1.7578
v 32.4141 28.0000 0.9961
v 24.8750 41.7383 11.0234
v 27.3633 33.0000 12.0000
v 16.3711 45.6797 21.7578
v 12.1328 59.3281 15.3828
v 19.2109 49.2031 17.0156
v 20.2148 31.1992 18.1680
v 12.7305 39.3828 24.0078
v 7.6328 53.0000 22.6406
v 30.5117 10.9688 3.6953
v 0.0000 57.3633 20.7188
v 7.6328 53.0000 22.6406
v 12.7305 39.3828 24.0078
v 25.1484 3.9102 -15.3438
v 24.8359 -3.8164 -11.6562
v 18.1641 -9.2461 -23.1406
v 21.7969 2.3398 -23.8633
v 24.0977 -11.9961 -3.1250
v 24.8750 41.7383 11.0234
v 22.6562 42.8711 8.7422
v 27.3945 33.4336 8.7305
v 27.7969 21.4414 3.0391
v 30.5117 10.9688 3.6953
v 29.6680 0.9102 2.8672
v 8.2344 -13.6172 -30.3281
v -8.2344 -13.6172 -30.3281
v -12.5742 18.8008 -7.8672
v 18.1641 -9.2461 -23.1406
v 20.2148 31.1992 18.1680
v -14.0820 49.2148 12.7969
v -32.4141 28.0000 0.9961
v -24.8750 41.7383 11.0234
v -11.3984 35.3047 -31.6953
v -17.7852 22.3867 -27.3008
v -19.3555 36.9375 -24.9492
v -27.7969 21.4414 3.0391
v -27.3945 33.4336 8.7305
v -25.9141 21.4961 -6.6133
v -26.6562 41.1250 -7.1641
v -24.8750 41.7383 11.0234
v -31.7617 9.0938 -5.3086
v -14.0430 11.5586 -26.7891
v -25.5391 9.9219 -15.1836
v -24.0977 -11.9961 -3.1250
v -29.6680 0.9102 2.8672
v -31.5586 -0.7266 -4.0273
v -8.2344 -13.6172 -30.3281
v -12.5625 -0.1523 -32.4023
v -25.1484 3.9102 -15.3438
v -24.8359 -3.8164 -11.6562
v -12.0469 10.8438 -1.7578
v -32.4141 28.0000 0.9961
v -27.3633 33.0000 12.0000
v -24.8750 41.7383 11.0234
v -16.3711 45.6797 21.7578
v -12.1328 59.3281 15.3828
v -19.2109 49.2031 17.0156
v -20.2148 31.1992 18.1680
v -12.7305 39.3828 24.0078
v -7.6328 53.0000 22.6406
v -30.5117 10.9688 3.6953
v -7.6328 53.0000 22.6406
v 0.0000 57.3633 20.7188
v -12.7305 39.3828 24.0078
v -25.1484 3.9102 -15.3438
v -24.8359 -3.8164 -11.6562
v -18.1641 -9.2461 -23.1406
v -21.7969 2.3398 -23.8633
v -24.0977 -11.9961 -3.1250
v -24.8750 41.7383 11.0234
v -27.3945 33.4336 8.7305
v -22.6562 42.8711 8.7422
v -27.7969 21.4414 3.0391
v -30.5117 10.9688 3.6953
v -29.6680 0.9102 2.8672
v -18.1641 -9.2461 -23.1406
v -20.2148 31.1992 18.1680
v 0.0000 57.3633 20.7188
v -14.0820 49.2148 12.7969
v 14.0820 49.2148 12.7969
f 1 2 3
f 3 36 1
f 36 37 1
f 37 38 1
f 38 4 1
f 1 4 5
f 59 5 4
f 89 59 4
f 88 59 89
f 87 59 88
f 60 59 87
f 59 60 61
f 6 7 8
f 8 14 6
f 14 8 19
f 14 19 63
f 63 62 14
f 62 63 64
f 64 63 67
f 68 64 67
f 66 68 67
f 65 66 67
f 67 70 65
f 67 72 70
f 72 67 63
f 71 72 63
f 63 19 71
f 71 19 77
f 97 71 77
f 96 97 77
f 76 96 77
f 76 77 24
f 23 76 24
f 23 24 25
f 23 25 45
f 45 25 46
f 45 46 43
f 43 46 18
f 43 18 16
f 21 43 16
f 21 44 43
f 44 21 20
f 20 21 22
f 21 39 22
f 16 39 21
f 16 12 39
f 11 12 16
f 11 10 12
f 9 10 11
f 9 13 10
f 9 11 7
f 7 11 8
f 18 8 11
f 17 8 18
f 8 17 19
f 17 25 19
f 46 25 17
f 18 46 17
f 11 16 18
f 6 14 15
f 62 15 14
f 26 27 28
f 57 26 28
f 28 54 57
f 54 28 55
f 28 56 55
f 56 105 55
f 105 56 78
f 78 56 79
f 56 80 79
f 80 98 79
f 80 104 98
f 104 80 103
f 103 80 102
f 100 102 80
f 101 100 80
f 99 100 101
f 28 27 29
f 29 27 47
f 29 47 53
f 53 52 29
f 52 51 29
f 50 29 51
f 49 29 50
f 48 49 50
f 30 31 32
f 32 58 30
f 32 42 58
f 33 42 32
f 32 31 33
f 31 35 33
f 34 33 35
f 41 33 34
f 34 40 41
f 42 33 41
f 19 25 24
f 19 24 77
f 68 66 69
f 73 74 75
f 95 73 75
f 75 94 95
f 75 70 94
f 70 75 90
f 70 90 65
f 94 70 72
f 94 72 97
f 96 94 97
f 72 71 97
f 81 82 83
f 82 81 106
f 106 93 82
f 93 84 82
f 93 91 84
f 91 85 84
f 85 91 92
f 85 86 84
f 83 84 86
f 82 84 83
f 75 74 90
f 107 108 109
