v 0.0000 33.7852 -35.3750
v 0.0000 46.1250 -34.8594
v 15.2930 33.5742 -30.1641
v 15.1914 44.6016 -29.7734
v 10.5977 67.4883 -6.0039
v 10.5977 63.9922 -17.6406
v 0.0000 69.2383 -6.3125
v 0.0000 65.5625 -18.5469
v 0.0000 68.4023 5.6367
v 0.0000 63.9688 17.6328
v 10.4023 66.7188 5.3398
v 10.5977 56.1133 -27.0273
v 18.7617 58.1797 -15.8359
v 18.7617 61.0625 4.8672
v 26.2422 42.6641 -14.5508
v 25.3320 22.5938 -14.9375
v 25.5156 52.9570 0.0000
v 24.4844 54.0664 11.0000
v 28.4023 41.4648 8.6602
v 0.0000 57.2812 -28.4180
v 28.8320 42.1836 0.0000
v 17.8672 52.4492 19.2148
v 23.1055 42.3008 16.6797
v 15.4766 22.5938 -27.7227
v 0.0000 22.6641 -32.0000
v 7.7227 10.9531 -30.6289
v 15.6758 13.3320 -28.0000
v 27.3477 22.5938 -3.1484
v 28.6602 13.2109 -8.0000
v 31.4336 5.9648 -14.6484
v 25.8516 13.2109 -14.7383
v 0.0000 13.2109 -32.0000
v 0.0000 3.1016 -36.0000
v 18.8203 5.4609 -29.3320
v 19.8320 12.1406 -21.0352
v 9.1953 8.9023 -19.1953
v 0.0000 3.1016 -36.0000
v 7.7227 10.9531 -30.6289
v 0.0000 55.0664 9.0000
v 29.3320 31.5117 0.0000
v 27.1406 22.0898 5.7695
v 17.6562 59.5195 13.5352
v 26.3047 29.9062 10.9844
v 23.1055 42.3008 16.6797
v 29.3320 31.5117 0.0000
v 17.8672 52.4492 19.2148
v 29.0078 30.7188 7.3047
v 27.1406 22.0898 5.7695
v 9.8789 55.8711 22.1797
v 26.3047 29.9062 10.9844
v -16.3984 51.3555 23.4062
v -9.2773 53.8047 25.3555
v -17.6562 60.0000 14.0000
v -0.6055 55.3477 26.8047
v -15.2930 33.5742 -30.1641
v -15.1914 44.6016 -29.7734
v -10.5977 67.4883 -6.0039
v -10.5977 63.9922 -17.6406
v -10.4023 66.7188 5.3398
v -10.5977 56.1133 -27.0273
v -18.7617 58.1797 -15.8359
v -18.7617 61.0625 4.8672
v -26.2422 42.6641 -14.5508
v -25.5156 52.9570 0.0000
v -28.4023 41.4648 8.6602
v -24.4844 54.0664 11.0000
v -27.3477 22.5938 -3.1484
v -29.3320 31.5117 0.0000
v -25.3320 22.5938 -14.9375
v -28.8320 42.1836 0.0000
v -22.5977 46.6953 19.6328
v -15.4766 22.5938 -27.7227
v -7.7227 10.9531 -30.6289
v -15.6758 13.3320 -28.0000
v -28.6602 13.2109 -8.0000
v -31.4336 5.9648 -14.6484
v -25.8516 13.2109 -14.7383
v -18.8203 5.4609 -29.3320
v -19.8320 12.1406 -21.0352
v -27.1406 22.0898 5.7695
v -29.3320 31.5117 0.0000
v -24.3945 39.0391 14.3164
v -26.3047 29.9062 10.9844
v -0.3047 39.3867 28.2812
v -8.2422 34.9805 27.7344
v -8.8828 42.6992 28.3047
v -0.3047 39.3867 28.2812
v -3.4219 44.4336 30.2344
v -8.2422 34.9805 27.7344
v -8.8828 42.6992 28.3047
v -17.6875 40.0195 23.6875
v -27.3477 22.5938 -3.1484
v -28.6602 13.2109 -8.0000
v -18.8086 9.9219 -14.9102
v -31.4336 5.9648 -14.6484
v -19.8320 12.1406 -21.0352
v -29.0078 30.7188 7.3047
v -27.1406 22.0898 5.7695
v -24.3945 39.0391 14.3164
v -26.3047 29.9062 10.9844
v -7.7227 10.9531 -30.6289
v -9.1953 8.9023 -19.1953
v 19.8320 12.1406 -21.0352
v 18.8086 9.9219 -14.9102
v 18.8203 5.4609 -29.3320
v 7.7227 10.9531 -30.6289
v 27.3477 22.5938 -3.1484
v 28.6602 13.2109 -8.0000
v 19.8320 12.1406 -21.0352
v 31.4336 5.9648 -14.6484
v -18.8203 5.4609 -29.3320
v -7.7227 10.9531 -30.6289
v -19.8320 12.1406 -21.0352
v 5.8242 44.6602 27.2148
v 5.8242 44.6602 27.2148
v -17.6875 40.0195 23.6875
v 8.7617 37.7227 25.6953
v 15.0312 44.9414 23.3984
v 15.0312 44.9414 23.3984
v 8.7617 37.7227 25.6953
v -14.1055 21.2070 -8.9297
v -29.3320 31.5117 0.0000
v -22.0000 37.7031 2.3906
v 0.0000 19.5000 -11.2695
v 14.1055 21.2070 -8.9297
v 29.3320 31.5117 0.0000
v 22.0000 37.7031 2.3906
f 1 2 3
f 24 1 3
f 24 3 16
f 24 16 31
f 35 24 31
f 27 24 35
f 26 24 27
f 26 25 24
f 26 32 25
f 32 26 33
f 32 33 73
f 73 25 32
f 73 72 25
f 73 74 72
f 73 78 74
f 74 78 79
f 74 79 72
f 79 77 72
f 76 77 79
f 76 75 77
f 69 77 75
f 67 69 75
f 67 68 69
f 69 68 63
f 69 63 55
f 72 69 55
f 72 55 1
f 25 72 1
f 25 1 24
f 1 55 2
f 2 55 56
f 56 60 2
f 60 56 61
f 60 61 58
f 60 58 8
f 20 60 8
f 20 8 12
f 20 12 2
f 20 2 60
f 2 4 3
f 12 4 2
f 12 13 4
f 12 6 13
f 12 8 6
f 6 8 7
f 5 6 7
f 7 9 5
f 7 57 9
f 57 7 58
f 58 61 57
f 57 61 62
f 57 62 59
f 57 59 9
f 9 59 10
f 9 10 11
f 5 9 11
f 5 11 14
f 5 14 13
f 6 5 13
f 13 17 15
f 13 15 4
f 4 15 3
f 3 15 16
f 45 16 15
f 28 16 45
f 28 29 16
f 16 29 31
f 30 31 29
f 30 35 31
f 27 35 34
f 26 27 34
f 17 18 19
f 14 18 17
f 14 17 13
f 14 11 42
f 42 18 14
f 18 42 22
f 22 23 18
f 19 18 23
f 23 50 19
f 19 50 47
f 47 21 19
f 45 21 47
f 15 21 45
f 17 21 15
f 17 19 21
f 36 37 38
f 36 102 37
f 124 102 36
f 124 121 102
f 121 94 102
f 94 121 92
f 92 93 94
f 93 95 94
f 94 95 96
f 102 94 111
f 112 102 111
f 101 37 102
f 39 40 41
f 39 41 43
f 39 43 44
f 46 39 44
f 39 46 118
f 117 39 118
f 39 117 115
f 39 115 84
f 39 84 85
f 39 85 86
f 91 39 86
f 39 91 82
f 39 82 83
f 39 83 80
f 80 81 39
f 11 10 42
f 42 10 49
f 42 49 22
f 22 49 119
f 119 49 114
f 120 119 114
f 87 114 88
f 87 88 89
f 89 88 90
f 88 52 90
f 54 52 88
f 10 52 54
f 53 52 10
f 51 52 53
f 53 66 51
f 53 62 66
f 62 53 59
f 59 53 10
f 10 54 49
f 49 54 114
f 114 54 88
f 48 45 47
f 48 47 50
f 58 7 8
f 61 63 64
f 61 56 63
f 55 63 56
f 64 63 70
f 64 70 65
f 64 65 66
f 62 64 66
f 62 61 64
f 65 71 66
f 71 65 99
f 99 116 71
f 51 71 116
f 51 66 71
f 52 51 90
f 90 51 116
f 72 77 69
f 63 68 70
f 70 68 97
f 65 70 97
f 97 100 65
f 98 100 97
f 98 97 68
f 100 99 65
f 103 104 105
f 104 36 105
f 104 125 36
f 104 107 125
f 107 104 108
f 108 104 110
f 109 110 104
f 106 105 36
f 36 125 124
f 107 127 125
f 126 127 107
f 94 113 111
f 122 92 123
f 123 92 121
