v 28.1094 18.2773 5.0000
v 31.0000 34.1680 6.6289
v 26.8438 32.9336 14.9219
v 29.3281 47.4766 7.5586
v 23.7695 46.7148 17.5859
v 0.0000 60.5469 26.7227
v 12.7734 60.5664 21.8047
v 5.7344 66.6172 18.6758
v 18.0234 62.0000 14.8633
v 18.9141 53.6133 19.2344
v 30.0000 30.0000 -3.0000
v 30.0000 40.0000 -3.0000
v 26.2422 44.4258 -13.2227
v 27.0000 52.0000 -4.0000
v 20.3359 62.0000 0.8867
v 19.3047 43.5469 20.4961
v 0.0000 44.0000 -0.0508
v 18.9141 53.6133 19.2344
v 18.0234 62.0000 14.8633
v 14.4180 58.3984 11.8789
v 0.0000 -15.0000 -20.1328
v 0.0000 -2.0000 -29.0000
v 7.0000 -7.0000 -22.0000
v 25.0000 12.0000 -16.0000
v 23.0000 2.0000 -9.0000
v 15.5586 -12.3164 -14.0000
v 19.9844 23.7695 -26.0508
v 26.3477 33.6914 -16.0000
v 10.2891 10.3984 -31.9688
v 10.8281 33.6914 -33.6641
v 0.0000 22.0000 -34.8164
v 19.7852 43.6992 -26.3945
v 10.5977 67.4883 -6.0039
v 10.1562 68.0000 4.0000
v 0.0000 65.5625 -18.5469
v 10.5977 56.1133 -27.0273
v 0.0000 46.1250 -34.8594
v 10.5977 45.5039 -33.1562
v 18.8477 58.1797 -15.8359
v 28.0000 14.0000 -6.0000
v 15.0859 -0.2188 -24.4883
v 0.0000 -15.0000 -20.1328
v 7.0000 -7.0000 -22.0000
v 10.0430 4.8906 -12.5508
v 23.0000 2.0000 -9.0000
v 28.0000 14.0000 -6.0000
v 5.4570 52.5117 30.0000
v 13.6953 52.5273 25.7266
v 10.4727 43.5312 28.6016
v 0.0000 70.0000 4.0000
v -5.7344 66.6172 18.6758
v 15.5586 -12.3164 -14.0000
v -10.0430 4.8906 -12.5508
v -23.7695 46.7148 17.5859
v -29.3281 47.4766 7.5586
v -26.8438 32.9336 14.9219
v -31.0000 34.1680 6.6289
v -28.1094 18.2773 5.0000
v -30.0000 30.0000 -3.0000
v -30.0000 40.0000 -3.0000
v -7.0000 -7.0000 -22.0000
v -10.2891 10.3984 -31.9688
v -15.0859 -0.2188 -24.4883
v -25.0000 12.0000 -16.0000
v -15.5586 -12.3164 -14.0000
v -19.9844 23.7695 -26.0508
v -26.3477 33.6914 -16.0000
v -19.7852 43.6992 -26.3945
v -10.8281 33.6914 -33.6641
v -10.5977 67.4883 -6.0039
v -20.3359 62.0000 0.8867
v -10.1562 68.0000 4.0000
v -18.8477 58.1797 -15.8359
v -26.2422 44.4258 -13.2227
v -10.5977 56.1133 -27.0273
v 0.0000 57.2812 -28.4180
v -10.5977 45.5039 -33.1562
v -27.0000 52.0000 -4.0000
v -28.0000 14.0000 -6.0000
v -23.0000 2.0000 -9.0000
v -7.0000 -7.0000 -22.0000
v 0.0000 43.5000 31.7773
v -10.4727 43.5312 28.6016
v -23.0000 2.0000 -9.0000
v -28.0000 14.0000 -6.0000
v -19.3047 43.5469 20.4961
v -18.9141 53.6133 19.2344
v -18.0234 62.0000 14.8633
v -14.4180 58.3984 11.8789
v -12.7734 60.5664 21.8047
v -18.9141 53.6133 19.2344
v -13.6953 52.5273 25.7266
v -5.4570 52.5117 30.0000
v -18.0234 62.0000 14.8633
v -15.5586 -12.3164 -14.0000
v -16.4141 52.7891 13.4062
v -23.7695 46.7148 17.5859
v -28.1094 18.2773 5.0000
v -22.4844 23.4219 3.9883
v -26.8438 32.9336 14.9219
v -24.0000 32.7969 -2.4102
v -30.0000 30.0000 -3.0000
v -8.7852 9.7773 -10.9883
v 8.7852 9.7773 -10.9883
v 30.0000 30.0000 -3.0000
v 24.0000 32.7969 -2.4102
v 22.4844 23.4219 3.9883
v 28.1094 18.2773 5.0000
v 26.8438 32.9336 14.9219
v 16.4141 52.7891 13.4062
v 23.7695 46.7148 17.5859
v -19.3047 43.5469 20.4961
v -10.4727 43.5312 28.6016
v 0.0000 43.5000 31.7773
v 19.3047 43.5469 20.4961
v 10.4727 43.5312 28.6016
f 1 2 3
f 11 2 1
f 11 12 2
f 11 28 12
f 11 24 28
f 40 24 11
f 40 25 24
f 24 25 26
f 26 41 24
f 26 23 41
f 23 22 41
f 21 22 23
f 21 61 22
f 63 22 61
f 62 22 63
f 62 63 64
f 66 62 64
f 64 67 66
f 64 59 67
f 79 59 64
f 79 64 80
f 64 65 80
f 64 63 65
f 65 63 61
f 2 4 3
f 2 12 4
f 12 14 4
f 12 13 14
f 12 28 13
f 32 13 28
f 28 27 32
f 24 27 28
f 27 24 29
f 27 29 30
f 27 30 32
f 30 38 32
f 30 37 38
f 30 31 37
f 29 31 30
f 29 22 31
f 22 29 41
f 24 41 29
f 3 4 5
f 9 5 4
f 9 4 15
f 34 9 15
f 33 34 15
f 33 15 39
f 33 39 36
f 35 33 36
f 50 33 35
f 33 50 34
f 50 8 34
f 8 50 51
f 51 6 8
f 6 51 90
f 90 93 6
f 90 92 93
f 91 92 90
f 94 91 90
f 94 90 51
f 94 51 72
f 94 72 71
f 55 94 71
f 54 94 55
f 54 55 56
f 56 55 57
f 58 56 57
f 59 58 57
f 59 57 60
f 59 60 67
f 67 60 74
f 68 67 74
f 67 68 66
f 66 68 69
f 66 69 62
f 62 69 31
f 22 62 31
f 31 69 37
f 69 77 37
f 69 68 77
f 75 77 68
f 75 37 77
f 37 75 76
f 37 76 36
f 36 38 37
f 36 32 38
f 36 39 32
f 39 13 32
f 13 39 14
f 39 15 14
f 14 15 4
f 6 7 8
f 7 6 47
f 47 48 7
f 116 48 47
f 115 48 116
f 115 10 48
f 48 10 7
f 7 10 9
f 7 9 8
f 34 8 9
f 16 17 18
f 49 17 16
f 49 82 17
f 82 83 17
f 86 17 83
f 86 87 17
f 17 87 89
f 88 89 87
f 89 88 96
f 96 88 97
f 96 97 100
f 99 96 100
f 98 99 100
f 102 99 98
f 101 99 102
f 85 101 102
f 103 101 85
f 53 103 85
f 84 53 85
f 53 84 95
f 81 53 95
f 42 53 81
f 42 44 53
f 42 43 44
f 43 52 44
f 44 52 45
f 45 46 44
f 44 46 104
f 44 104 53
f 53 104 103
f 106 104 46
f 105 106 46
f 106 105 107
f 107 105 108
f 108 109 107
f 107 109 110
f 109 111 110
f 111 19 110
f 110 19 20
f 19 18 20
f 17 20 18
f 60 57 55
f 55 78 60
f 71 78 55
f 73 78 71
f 74 78 73
f 73 68 74
f 75 68 73
f 70 75 73
f 35 75 70
f 50 35 70
f 72 50 70
f 70 71 72
f 70 73 71
f 36 76 35
f 35 76 75
f 60 78 74
f 6 93 47
f 114 47 93
f 113 114 93
f 93 92 113
f 113 92 112
f 91 112 92
f 72 51 50
f 114 116 47
