v 18.6641 24.7188 -23.9453
v 18.6641 15.5547 -13.8867
v 10.6641 19.6953 -25.1328
v 0.0000 9.6289 -19.1055
v 0.0000 22.6602 -29.5977
v 10.6641 33.4336 -31.6211
v 26.1250 33.4336 -16.0000
v 27.0469 33.4336 0.0000
v 24.0000 21.9062 -9.0234
v 24.6992 33.8086 10.0000
v 24.4141 40.0000 10.0000
v 24.4258 27.1992 11.0000
v 0.0000 27.1992 11.0000
v 26.6016 26.1992 3.0000
v 26.6016 26.1992 3.0000
v 24.4258 27.1992 11.0000
v 24.6992 33.8086 10.0000
v 24.4141 40.0000 10.0000
v 24.0000 43.6484 -12.1719
v 26.2969 42.3867 -1.3477
v 23.7109 47.0000 10.6250
v 19.2891 52.5625 12.9922
v 23.7109 47.0000 10.6250
v 0.0000 25.0000 0.0000
v 27.0469 33.4336 0.0000
v 7.3398 53.7695 20.0000
v 0.0000 56.8477 21.9219
v 5.0000 52.0000 21.3281
v 1.5195 51.1289 22.3281
v 10.0000 61.1328 16.3633
v 12.2148 54.7461 17.6992
v 0.0000 62.6953 17.1914
v 24.0000 21.9062 -9.0234
v -10.6641 19.6953 -25.1328
v -18.6641 15.5547 -13.8867
v -18.6641 24.7188 -23.9453
v -10.6641 33.4336 -31.6211
v -26.1250 33.4336 -16.0000
v -24.0000 21.9062 -9.0234
v -27.0469 33.4336 0.0000
v -24.6992 33.8086 10.0000
v -24.4141 40.0000 10.0000
v -24.4258 27.1992 11.0000
v -26.6016 26.1992 3.0000
v -26.6016 26.1992 3.0000
v -24.4258 27.1992 11.0000
v -24.6992 33.8086 10.0000
v -24.4141 40.0000 10.0000
v -23.7109 47.0000 10.6250
v -19.2891 52.5625 12.9922
v -27.0469 33.4336 0.0000
v -7.3398 53.7695 20.0000
v -5.0000 52.0000 21.3281
v -1.5195 51.1289 22.3281
v -10.0000 61.1328 16.3633
v -12.2148 54.7461 17.6992
v -24.0000 21.9062 -9.0234
v 0.0000 33.4336 -33.2500
v -26.2969 42.3867 -1.3477
v -24.0000 43.6484 -12.1719
v -18.6641 43.1172 -24.8984
v -23.7109 47.0000 10.6250
v 18.6641 43.1172 -24.8984
v 18.6641 15.5547 -13.8867
v -18.6641 15.5547 -13.8867
f 1 2 3
f 1 9 2
f 7 9 1
f 7 8 9
f 7 20 8
f 19 20 7
f 7 63 19
f 1 63 7
f 6 63 1
f 6 1 3
f 6 3 5
f 58 6 5
f 37 58 5
f 37 5 34
f 37 34 36
f 61 37 36
f 38 61 36
f 39 38 36
f 38 39 40
f 38 40 59
f 59 60 38
f 38 60 61
f 3 2 4
f 5 3 4
f 5 4 34
f 4 35 34
f 34 35 36
f 35 39 36
f 10 8 11
f 8 10 15
f 10 16 15
f 12 13 14
f 17 13 12
f 18 13 17
f 21 13 18
f 21 22 13
f 13 24 14
f 13 44 24
f 43 44 13
f 47 43 13
f 48 47 13
f 49 48 13
f 49 13 50
f 23 11 20
f 20 11 8
f 24 25 14
f 24 33 25
f 64 33 24
f 24 44 51
f 24 51 57
f 57 65 24
f 26 27 28
f 27 26 30
f 30 32 27
f 55 27 32
f 27 55 52
f 52 53 27
f 53 54 27
f 27 54 29
f 28 27 29
f 26 31 30
f 41 42 40
f 40 45 41
f 41 45 46
f 52 55 56
f 40 42 59
f 59 42 62
