v 3.3477 49.2695 25.5000
v 0.0000 60.6250 9.0273
v 8.0352 52.2422 23.5352
v -14.2539 47.3203 22.3867
v -12.2188 56.2305 19.7148
v 12.1367 56.3711 19.6758
v -7.9648 47.1406 24.2695
v -2.0156 47.6289 25.2656
v 0.0000 22.6602 -29.5977
v 10.6641 23.1875 -28.1484
v 0.0000 9.6289 -19.1055
v 18.6641 15.5547 -13.8867
v 18.8438 24.7188 -21.7266
v 10.6641 33.4336 -31.6211
v 0.0000 33.4336 -33.2500
v 18.6641 43.1172 -24.8984
v 24.5234 44.0000 10.0000
v 24.6445 31.3398 10.0000
v 26.2969 33.4336 0.0000
v 24.6484 33.4336 -15.0938
v 24.0000 43.6484 -12.1719
v 26.2969 42.3867 -1.3477
v -10.6641 23.1875 -28.1484
v -18.8438 24.7188 -21.7266
v -18.6641 15.5547 -13.8867
v -10.6641 33.4336 -31.6211
v -18.6641 43.1172 -24.8984
v -24.5234 44.0000 10.0000
v -26.2969 33.4336 0.0000
v -24.6445 31.3398 10.0000
v -24.6484 33.4336 -15.0938
v -24.0000 43.6484 -12.1719
v -26.2969 42.3867 -1.3477
v -4.1016 52.5859 24.1133
v -6.2969 57.6289 20.5742
v -9.8008 51.5469 22.9492
v 0.9336 55.0312 23.2305
v 8.0352 52.2422 23.5352
v 12.1367 56.3711 19.6758
v 5.9453 57.1172 20.6875
v -7.9648 47.1406 24.2695
v -14.2539 47.3203 22.3867
v -2.0156 47.6289 25.2656
v 3.3477 49.2695 25.5000
v -12.2188 56.2305 19.7148
v -24.6445 31.3398 10.0000
v -26.2969 33.4336 0.0000
v 0.0000 60.6250 9.0273
v -24.5234 44.0000 10.0000
v 24.5234 44.0000 10.0000
v 0.0000 60.6250 9.0273
v 24.6445 31.3398 10.0000
v 26.2969 33.4336 0.0000
f 1 2 3
f 8 2 1
f 8 7 2
f 4 2 7
f 2 4 5
f 2 6 3
f 9 10 11
f 10 9 14
f 10 14 13
f 12 10 13
f 11 10 12
f 9 11 23
f 9 23 26
f 15 9 26
f 9 15 14
f 14 16 13
f 16 20 13
f 16 21 20
f 20 21 22
f 20 22 19
f 12 20 19
f 13 20 12
f 17 18 19
f 22 17 19
f 24 23 25
f 24 25 31
f 27 24 31
f 26 24 27
f 23 24 26
f 25 23 11
f 31 25 29
f 29 33 31
f 28 33 29
f 28 29 30
f 27 31 32
f 33 32 31
f 34 35 36
f 35 34 37
f 37 34 44
f 44 38 37
f 38 40 37
f 38 39 40
f 41 36 42
f 41 43 36
f 43 34 36
f 34 43 44
f 36 35 45
f 36 45 42
f 46 47 48
f 49 46 48
f 50 51 52
f 51 53 52
