v 19.7148 22.4609 -25.5898
v 25.8086 24.0000 -15.5859
v 23.8086 9.0000 -13.5859
v 20.0273 33.2227 -26.2383
v 26.6133 44.2617 -16.0000
v 27.8398 15.5000 10.8711
v 29.2969 15.4375 -2.1250
v 29.5547 27.0000 8.6484
v 30.7773 34.0000 -4.5039
v 10.6172 21.8242 -32.3555
v 19.0000 10.5664 -23.0000
v 10.0000 12.0000 -29.0000
v 29.6016 35.0000 8.0000
v 10.5977 45.5039 -33.1562
v 0.0000 69.2383 -6.3125
v 0.0000 68.1445 6.1172
v 10.5977 67.4883 -6.0039
v 10.5977 66.4453 5.8203
v 18.7617 61.0625 4.8672
v 18.7617 58.0000 15.0000
v 10.5977 61.2031 17.3477
v 0.0000 62.8594 18.2227
v 0.0000 65.5625 -18.5469
v 10.5977 63.9922 -17.6406
v 0.0000 33.4336 -35.2422
v 0.0000 46.1250 -34.8594
v 10.5977 54.1094 23.6641
v 0.0000 54.3477 25.2500
v 0.0000 13.0000 -31.0000
v 0.0000 21.6250 -34.0547
v 25.4375 52.9570 -2.8633
v 18.7617 58.1797 -15.8359
v 24.5547 52.0000 9.0000
v 29.3750 43.9453 -4.5000
v 28.0664 43.9492 8.5859
v 19.7852 45.0000 -26.0000
v 10.5977 56.1133 -27.0273
v 0.0000 57.2812 -28.4180
v 24.4414 6.0000 14.4453
v 27.0273 7.1875 -0.2891
v 0.0000 13.0000 -31.0000
v 10.0000 12.0000 -29.0000
v 19.3750 19.1094 -8.1406
v 0.0000 43.9492 28.4688
v 10.5977 43.9492 27.0000
v 18.7578 52.0000 20.0000
v 18.7578 43.9492 23.0000
v 0.0000 45.6758 5.9531
v 25.0000 44.0000 16.0000
v 28.0664 43.9492 8.5859
v 10.5977 43.9492 27.0000
v 0.0000 43.9492 28.4688
v 19.0000 10.5664 -23.0000
v 23.8086 9.0000 -13.5859
v 27.0273 7.1875 -0.2891
v 29.6016 35.0000 8.0000
v 29.5547 27.0000 8.6484
v 27.8398 15.5000 10.8711
v 6.9844 44.0547 -10.7461
v 28.0664 43.9492 8.5859
v 18.7578 43.9492 23.0000
v 25.0000 44.0000 16.0000
v 24.4414 6.0000 14.4453
v -19.7148 22.4609 -25.5898
v -23.8086 9.0000 -13.5859
v -25.8086 24.0000 -15.5859
v -20.0273 33.2227 -26.2383
v -29.5547 27.0000 8.6484
v -29.2969 15.4375 -2.1250
v -27.8398 15.5000 10.8711
v -10.6172 21.8242 -32.3555
v -10.0000 12.0000 -29.0000
v -19.0000 10.5664 -23.0000
v -30.7773 34.0000 -4.5039
v -29.6016 35.0000 8.0000
v -10.5977 67.4883 -6.0039
v -10.5977 66.4453 5.8203
v -18.7617 61.0625 4.8672
v -18.7617 58.0000 15.0000
v -10.5977 61.2031 17.3477
v -10.5977 63.9922 -17.6406
v -10.5977 54.1094 23.6641
v -10.5977 45.5039 -33.1562
v -18.7617 58.1797 -15.8359
v -25.4375 52.9570 -2.8633
v -29.3750 43.9453 -4.5000
v -24.5547 52.0000 9.0000
v -28.0664 43.9492 8.5859
v -26.6133 44.2617 -16.0000
v -19.7852 45.0000 -26.0000
v -10.5977 56.1133 -27.0273
v -24.4414 6.0000 14.4453
v -27.0273 7.1875 -0.2891
v -19.3750 19.1094 -8.1406
v -10.0000 12.0000 -29.0000
v -10.5977 43.9492 27.0000
v -18.7578 52.0000 20.0000
v -18.7578 43.9492 23.0000
v -25.0000 44.0000 16.0000
v -28.0664 43.9492 8.5859
v -10.5977 43.9492 27.0000
v -19.0000 10.5664 -23.0000
v -27.0273 7.1875 -0.2891
v -23.8086 9.0000 -13.5859
v -29.6016 35.0000 8.0000
v -29.5547 27.0000 8.6484
v -27.8398 15.5000 10.8711
v -6.9844 44.0547 -10.7461
v -28.0664 43.9492 8.5859
v -18.7578 43.9492 23.0000
v -25.0000 44.0000 16.0000
v -24.4414 6.0000 14.4453
v -6.9844 44.0547 -10.7461
v 6.9844 44.0547 -10.7461
f 1 2 3
f 1 4 2
f 1 10 4
f 10 1 11
f 10 11 12
f 10 12 30
f 10 30 25
f 25 14 10
f 14 25 26
f 26 38 14
f 26 83 38
f 26 25 83
f 25 71 83
f 71 25 30
f 71 30 72
f 71 72 73
f 71 73 64
f 71 64 67
f 67 83 71
f 90 83 67
f 67 89 90
f 66 89 67
f 64 66 67
f 64 65 66
f 64 73 65
f 69 66 65
f 69 74 66
f 68 74 69
f 68 69 70
f 69 93 70
f 93 69 65
f 92 70 93
f 2 4 5
f 9 2 5
f 34 9 5
f 31 34 5
f 31 33 34
f 31 19 33
f 19 31 32
f 17 19 32
f 17 18 19
f 17 16 18
f 15 16 17
f 15 17 24
f 23 15 24
f 37 23 24
f 37 24 32
f 36 37 32
f 32 5 36
f 32 31 5
f 24 17 32
f 6 7 8
f 7 6 40
f 40 3 7
f 7 3 2
f 7 2 9
f 8 7 9
f 9 13 8
f 13 9 34
f 35 13 34
f 34 33 35
f 35 33 62
f 33 46 62
f 20 46 33
f 19 20 33
f 19 18 20
f 21 20 18
f 18 22 21
f 16 22 18
f 16 77 22
f 76 77 16
f 15 76 16
f 15 81 76
f 23 81 15
f 91 81 23
f 91 84 81
f 90 84 91
f 84 90 89
f 84 89 85
f 78 84 85
f 85 87 78
f 85 86 87
f 85 89 86
f 86 89 74
f 75 86 74
f 74 68 75
f 74 89 66
f 4 10 14
f 36 4 14
f 36 14 37
f 14 38 37
f 38 23 37
f 38 91 23
f 83 91 38
f 90 91 83
f 27 21 28
f 27 20 21
f 27 46 20
f 27 45 46
f 27 44 45
f 28 44 27
f 28 82 44
f 82 28 80
f 82 80 79
f 82 79 97
f 96 82 97
f 82 96 44
f 110 96 97
f 97 111 110
f 87 111 97
f 88 111 87
f 86 88 87
f 88 86 75
f 21 22 28
f 80 28 22
f 77 80 22
f 80 77 79
f 78 79 77
f 76 78 77
f 76 84 78
f 81 84 76
f 29 30 12
f 29 72 30
f 39 40 6
f 41 42 43
f 41 43 94
f 41 94 95
f 94 102 95
f 94 104 102
f 94 103 104
f 94 112 103
f 107 112 94
f 106 107 94
f 105 106 94
f 109 105 94
f 113 109 94
f 47 48 49
f 47 51 48
f 48 51 52
f 48 52 101
f 98 48 101
f 98 99 48
f 48 99 100
f 48 100 108
f 48 50 49
f 48 59 50
f 43 42 53
f 43 53 54
f 43 54 55
f 43 55 63
f 58 43 63
f 57 43 58
f 56 43 57
f 60 43 56
f 114 43 60
f 1 3 11
f 46 45 61
f 46 61 62
f 5 4 36
f 78 87 79
f 79 87 97
