v 0.0000 46.1250 -34.8594
v 11.0977 45.5039 -33.1562
v 0.0000 33.4336 -35.2422
v 11.3047 33.4336 -33.5195
v 18.6641 24.7188 -23.9453
v 18.6641 15.5547 -13.8867
v 10.6641 19.6953 -25.1328
v 0.0000 9.6289 -19.1055
v 0.0000 22.6602 -29.5977
v 26.1250 33.4336 -16.0000
v 20.2852 43.6992 -26.3945
v 27.0469 33.4336 0.0000
v 24.0000 21.9062 -9.0234
v 26.4375 44.2617 -12.9023
v 25.2617 52.0000 -2.7031
v 27.0508 43.0000 -1.0000
v 20.9805 58.1797 -15.8359
v 11.0977 56.1133 -27.0273
v 0.0000 57.2812 -28.4180
v 24.4141 40.0000 10.0000
v 24.6992 33.8086 10.0000
v 24.4258 27.1992 11.0000
v 0.0000 27.1992 11.0000
v 26.6016 26.1992 3.0000
v 23.1445 54.0000 7.0000
v 23.7109 47.0000 10.6250
v 26.6016 26.1992 3.0000
v 24.4258 27.1992 11.0000
v 24.6992 33.8086 10.0000
v 24.4141 40.0000 10.0000
v 23.7109 47.0000 10.6250
v 19.2891 52.5625 12.9922
v 0.0000 25.0000 0.0000
v 27.0469 33.4336 0.0000
v 10.0000 61.1328 16.3633
v 12.2148 54.7461 17.6992
v 17.6992 58.4062 13.9688
v 15.5039 54.2500 15.9531
v 19.2891 52.5625 12.9922
v 0.0000 69.2383 -6.3125
v 11.0977 67.4883 -6.0039
v 0.0000 65.5625 -18.5469
v 10.8672 66.2266 4.6641
v 0.0000 68.2266 5.6641
v 20.2227 61.3281 2.0000
v 11.0977 63.9922 -17.6406
v 0.0000 62.6953 17.1914
v 7.3398 53.7695 20.0000
v 0.0000 56.8477 21.9219
v 5.0000 52.0000 21.3281
v 2.6797 51.4180 21.9961
v 24.0000 21.9062 -9.0234
v -11.0977 45.5039 -33.1562
v -11.3047 33.4336 -33.5195
v -10.6641 19.6953 -25.1328
v -18.6641 15.5547 -13.8867
v -18.6641 24.7188 -23.9453
v -26.1250 33.4336 -16.0000
v -20.2852 43.6992 -26.3945
v -24.0000 21.9062 -9.0234
v -27.0469 33.4336 0.0000
v -26.4375 44.2617 -12.9023
v -27.0508 43.0000 -1.0000
v -25.2617 52.0000 -2.7031
v -20.9805 58.1797 -15.8359
v -11.0977 56.1133 -27.0273
v -24.4141 40.0000 10.0000
v -24.6992 33.8086 10.0000
v -24.4258 27.1992 11.0000
v -26.6016 26.1992 3.0000
v -23.1445 54.0000 7.0000
v -23.7109 47.0000 10.6250
v -26.6016 26.1992 3.0000
v -24.4258 27.1992 11.0000
v -24.6992 33.8086 10.0000
v -24.4141 40.0000 10.0000
v -23.7109 47.0000 10.6250
v -19.2891 52.5625 12.9922
v -27.0469 33.4336 0.0000
v -10.0000 61.1328 16.3633
v -17.6992 58.4062 13.9688
v -12.2148 54.7461 17.6992
v -15.5039 54.2500 15.9531
v -19.2891 52.5625 12.9922
v -11.0977 67.4883 -6.0039
v -10.8672 66.2266 4.6641
v -20.2227 61.3281 2.0000
v -11.0977 63.9922 -17.6406
v -7.3398 53.7695 20.0000
v -5.0000 52.0000 21.3281
v -2.6797 51.4180 21.9961
v -24.0000 21.9062 -9.0234
v -18.6641 15.5547 -13.8867
v 0.0000 25.0000 0.0000
v 18.6641 15.5547 -13.8867
v 24.0000 21.9062 -9.0234
v 0.0000 25.0000 0.0000
f 1 2 3
f 18 2 1
f 2 18 11
f 4 2 11
f 2 4 3
f 3 4 9
f 3 9 54
f 53 3 54
f 1 3 53
f 66 1 53
f 53 59 66
f 54 59 53
f 59 54 57
f 58 59 57
f 59 58 62
f 65 59 62
f 65 62 64
f 65 64 87
f 85 65 87
f 88 65 85
f 66 65 88
f 66 59 65
f 19 1 66
f 19 18 1
f 46 18 19
f 42 46 19
f 41 46 42
f 40 41 42
f 43 41 40
f 41 43 45
f 41 45 17
f 46 41 17
f 18 46 17
f 18 17 11
f 17 14 11
f 17 15 14
f 17 45 15
f 15 45 25
f 15 25 16
f 14 15 16
f 14 16 10
f 11 14 10
f 10 5 11
f 10 13 5
f 10 12 13
f 10 16 12
f 16 20 12
f 26 20 16
f 25 26 16
f 39 26 25
f 39 25 37
f 39 37 38
f 36 38 37
f 35 36 37
f 35 37 43
f 35 43 44
f 47 35 44
f 35 47 49
f 49 48 35
f 48 49 50
f 50 49 51
f 49 91 51
f 90 91 49
f 89 90 49
f 49 80 89
f 80 49 47
f 47 44 80
f 80 44 86
f 80 86 81
f 80 81 82
f 89 80 82
f 82 81 83
f 84 83 81
f 84 81 71
f 84 71 72
f 71 63 72
f 64 63 71
f 62 63 64
f 62 58 63
f 58 61 63
f 58 60 61
f 60 58 57
f 56 60 57
f 55 56 57
f 8 56 55
f 9 8 55
f 9 7 8
f 4 7 9
f 4 5 7
f 11 5 4
f 5 6 7
f 5 13 6
f 7 6 8
f 21 12 20
f 12 21 27
f 21 28 27
f 22 23 24
f 29 23 22
f 30 23 29
f 31 23 30
f 31 32 23
f 23 33 24
f 23 70 33
f 69 70 23
f 75 69 23
f 76 75 23
f 77 76 23
f 77 23 78
f 33 34 24
f 33 52 34
f 33 70 79
f 33 79 92
f 92 93 94
f 43 37 45
f 45 37 25
f 44 43 40
f 44 40 86
f 86 40 85
f 85 87 86
f 86 87 81
f 87 71 81
f 64 71 87
f 48 36 35
f 54 9 55
f 54 55 57
f 63 61 67
f 72 63 67
f 68 67 61
f 61 73 68
f 68 73 74
f 40 42 85
f 85 42 88
f 42 19 88
f 88 19 66
f 95 96 97
