v 18.6641 43.1172 -24.8984
v 18.6641 24.7188 -23.9453
v 10.6641 33.4336 -31.6211
v 10.6641 23.1875 -28.1484
v 24.7227 28.5000 9.0000
v 26.2969 33.4336 0.0000
v 23.5273 46.2695 13.0000
v 25.3555 47.1211 -1.7656
v 24.6484 33.4336 -15.0938
v 24.0000 43.6484 -12.1719
v 0.0000 33.4336 -33.2500
v 0.0000 22.6602 -29.5977
v 0.0000 9.6289 -19.1055
v 18.6641 15.5547 -13.8867
v 24.7227 28.5000 9.0000
v 23.5273 46.2695 13.0000
v 0.0000 52.2812 9.0586
v 26.2969 33.4336 0.0000
v -18.6641 43.1172 -24.8984
v -10.6641 33.4336 -31.6211
v -18.6641 24.7188 -23.9453
v -10.6641 23.1875 -28.1484
v -24.7227 28.5000 9.0000
v -23.5273 46.2695 13.0000
v -26.2969 33.4336 0.0000
v -25.3555 47.1211 -1.7656
v -24.6484 33.4336 -15.0938
v -24.0000 43.6484 -12.1719
v -18.6641 15.5547 -13.8867
v -24.7227 28.5000 9.0000
v 0.0000 52.2812 9.0586
v -23.5273 46.2695 13.0000
v -26.2969 33.4336 0.0000
f 1 2 3
f 1 9 2
f 10 9 1
f 9 10 8
f 6 9 8
f 7 6 8
f 5 6 7
f 6 14 9
f 2 9 14
f 14 4 2
f 13 4 14
f 13 12 4
f 13 22 12
f 13 29 22
f 29 21 22
f 21 29 27
f 19 21 27
f 19 20 21
f 21 20 22
f 12 22 20
f 11 12 20
f 11 3 12
f 12 3 4
f 2 4 3
f 15 16 17
f 18 15 17
f 23 24 25
f 24 26 25
f 25 26 27
f 25 27 29
f 28 19 27
f 27 26 28
f 30 31 32
f 33 31 30
