v -13.1992 36.0000 24.1797
v -5.9492 40.0000 25.7031
v -6.2734 49.2148 24.5977
v -11.2969 57.8672 18.2734
v -18.0000 48.1523 18.7383
v -18.1211 40.0000 20.4844
v -10.4531 54.0000 10.0000
v -13.1992 36.0000 24.1797
v -23.4844 41.0000 14.0000
v -21.9883 36.0000 17.8320
v -5.9492 40.0000 25.7031
v -23.9727 48.0000 10.0000
v -18.1211 40.0000 20.4844
v -21.9883 36.0000 17.8320
v -23.4844 41.0000 14.0000
v 0.0000 36.0000 27.5547
v 0.0000 59.9805 20.2109
v 23.9727 48.0000 10.0000
v 11.2969 57.8672 18.2734
v 18.0000 48.1523 18.7383
v 18.1211 40.0000 20.4844
v 13.1992 36.0000 24.1797
v 6.2734 49.2148 24.5977
v 5.9492 40.0000 25.7031
v 18.1211 40.0000 20.4844
v 13.1992 36.0000 24.1797
v 10.4531 54.0000 10.0000
v 21.9883 36.0000 17.8320
v 23.4844 41.0000 14.0000
v 5.9492 40.0000 25.7031
v 21.9883 36.0000 17.8320
v 23.4844 41.0000 14.0000
v -5.9492 40.0000 25.7031
v -10.4531 54.0000 10.0000
v 0.0000 36.0000 27.5547
v 5.9492 40.0000 25.7031
v 0.0000 36.0000 27.5547
v 10.4531 54.0000 10.0000
v 0.0000 36.0000 27.5547
v 10.4531 54.0000 10.0000
v 0.0000 22.0156 -31.3750
v 11.3047 21.0469 -32.1289
v 10.6641 10.8906 -17.8750
v 19.7852 24.1953 -25.3828
v 11.3984 34.1562 -31.3281
v 19.3555 35.5977 -24.9492
v 25.4805 28.8164 -20.6914
v 26.1250 34.0000 -14.0000
v 24.0000 21.9062 -8.5234
v 24.4922 44.4258 -13.2227
v 21.7344 13.4453 -15.5664
v 26.7578 40.0000 -8.0000
v 27.5820 40.4922 -1.5898
v 29.2969 28.0781 -4.2422
v 27.2695 33.0312 0.0859
v 24.4766 34.0000 12.0000
v 24.4414 24.0000 12.0000
v 26.5234 28.8984 4.0000
v -10.6641 10.8906 -17.8750
v -11.3047 21.0469 -32.1289
v -19.7852 24.1953 -25.3828
v -11.3984 34.1562 -31.3281
v -19.3555 35.5977 -24.9492
v -27.5820 40.4922 -1.5898
v -26.1172 41.0000 5.0000
v -24.0000 21.9062 -8.5234
v -25.4805 28.8164 -20.6914
v -26.1250 34.0000 -14.0000
v -24.4922 44.4258 -13.2227
v -21.7344 13.4453 -15.5664
v -26.7578 40.0000 -8.0000
v -29.2969 28.0781 -4.2422
v -24.4766 34.0000 12.0000
v -26.5234 28.8984 4.0000
v -27.2695 33.0312 0.0859
v -24.4414 24.0000 12.0000
v 24.4766 34.0000 12.0000
v 0.0000 6.2891 -21.8672
v 26.1172 41.0000 5.0000
v 0.0000 33.5469 -34.3477
v -24.4766 34.0000 12.0000
v -19.5898 33.0117 10.3398
v -20.1797 24.8789 10.5508
v -24.4414 24.0000 12.0000
v -26.5234 28.8984 4.0000
v -22.5000 32.3359 0.7188
v -27.2695 33.0312 0.0859
v -29.2969 28.0781 -4.2422
v 0.0000 13.4453 -14.7734
v -24.0000 21.9062 -8.5234
v -21.7344 13.4453 -15.5664
v -10.6641 10.8906 -17.8750
v 0.0000 6.2891 -21.8672
v 10.6641 10.8906 -17.8750
v 21.7344 13.4453 -15.5664
v 24.0000 21.9062 -8.5234
v 22.5000 32.3359 0.7188
v 27.2695 33.0312 0.0859
v 29.2969 28.0781 -4.2422
v 26.5234 28.8984 4.0000
v 24.4414 24.0000 12.0000
v 20.1797 24.8789 10.5508
v 19.5898 33.0117 10.3398
f 1 2 3
f 3 5 1
f 4 5 3
f 4 12 5
f 15 5 12
f 15 14 5
f 13 5 14
f 1 5 13
f 6 7 8
f 10 7 6
f 9 7 10
f 81 7 9
f 82 7 81
f 84 82 81
f 83 82 84
f 84 85 83
f 83 85 86
f 86 85 87
f 87 88 86
f 88 90 86
f 89 86 90
f 89 90 91
f 92 89 91
f 89 92 93
f 94 89 93
f 89 94 95
f 96 89 95
f 97 89 96
f 96 99 97
f 98 97 99
f 100 97 98
f 100 102 97
f 101 102 100
f 101 103 102
f 77 103 101
f 27 103 77
f 29 27 77
f 28 27 29
f 25 27 28
f 25 26 27
f 26 30 27
f 8 7 11
f 16 3 2
f 16 23 3
f 16 24 23
f 22 23 24
f 22 20 23
f 21 20 22
f 21 31 20
f 20 31 32
f 18 20 32
f 18 19 20
f 19 23 20
f 23 19 17
f 3 23 17
f 17 4 3
f 33 34 35
f 39 34 40
f 36 37 38
f 41 42 43
f 42 41 45
f 42 45 44
f 42 44 43
f 43 44 51
f 44 49 51
f 44 47 49
f 47 44 46
f 46 48 47
f 46 50 48
f 52 48 50
f 53 52 50
f 53 55 52
f 55 53 79
f 55 79 58
f 56 58 79
f 56 57 58
f 56 79 32
f 18 32 79
f 18 79 53
f 45 46 44
f 41 80 45
f 80 41 62
f 41 60 62
f 41 59 60
f 41 78 59
f 41 43 78
f 47 48 49
f 49 48 54
f 52 54 48
f 52 55 54
f 60 59 61
f 60 61 62
f 63 62 61
f 63 61 67
f 63 67 68
f 63 68 69
f 71 69 68
f 69 71 64
f 64 71 75
f 64 75 65
f 64 65 12
f 65 15 12
f 65 73 15
f 73 65 74
f 73 74 76
f 75 74 65
f 72 75 71
f 72 71 68
f 66 72 68
f 67 66 68
f 61 66 67
f 61 70 66
f 61 59 70
