v -23.9375 50.8516 5.2031
v -25.4141 43.0000 7.9062
v 0.0000 38.7148 2.8008
v -19.0742 59.2969 1.4922
v -14.6602 63.2773 2.5352
v -8.7930 63.2070 8.8555
v -10.5977 66.9453 4.8203
v -10.8008 63.9609 4.9727
v -5.1758 62.1758 12.6406
v -5.9414 66.5508 9.8086
v 0.0000 64.2422 13.8594
v 0.0000 62.4414 14.3359
v 0.0000 67.0977 10.0000
v -25.4375 52.9570 -2.8633
v -27.6523 43.0000 -1.1992
v -23.9375 50.8516 5.2031
v -25.4141 43.0000 7.9062
v -26.1250 33.4336 -16.0000
v -25.4375 44.2617 -12.9023
v -25.4023 34.3086 9.3984
v -27.7969 33.4336 0.0000
v -26.6016 24.0000 3.0000
v -27.7969 33.4336 0.0000
v 0.0000 25.0000 0.0000
v -25.4023 34.3086 9.3984
v 0.0000 25.0000 11.0000
v -19.0742 59.2969 1.4922
v -20.1016 60.3828 -4.4648
v 0.0000 9.6289 -19.1055
v -18.6641 15.5547 -13.8867
v -10.6641 19.6953 -25.1328
v -19.7852 24.1953 -25.3828
v 0.0000 22.0156 -31.3750
v -18.7617 58.1797 -15.8359
v -19.7852 43.6992 -26.3945
v -11.3047 33.4336 -33.5195
v -10.5977 45.5039 -33.1562
v 0.0000 33.4336 -35.2422
v -10.5977 56.1133 -27.0273
v -24.0000 21.9062 -9.0234
v -10.5977 67.4883 -6.0039
v 0.0000 68.6445 5.3164
v 0.0000 46.1250 -34.8594
v 0.0000 57.2812 -28.4180
v -10.5977 63.9922 -17.6406
v 0.0000 65.5625 -18.5469
v 0.0000 69.2383 -6.3125
v -26.6016 24.0000 3.0000
v -25.1758 25.0000 11.0000
v -25.1758 25.0000 11.0000
v -14.6602 63.2773 2.5352
v -24.0000 21.9062 -9.0234
v 23.9375 50.8516 5.2031
v 25.4141 43.0000 7.9062
v 19.0742 59.2969 1.4922
v 14.6602 63.2773 2.5352
v 10.5977 66.9453 4.8203
v 5.9414 66.5508 9.8086
v 8.7930 63.2070 8.8555
v 5.1758 62.1758 12.6406
v 25.4375 52.9570 -2.8633
v 23.9375 50.8516 5.2031
v 27.6523 43.0000 -1.1992
v 25.4141 43.0000 7.9062
v 26.1250 33.4336 -16.0000
v 25.4375 44.2617 -12.9023
v 25.4023 34.3086 9.3984
v 27.7969 33.4336 0.0000
v 26.6016 24.0000 3.0000
v 27.7969 33.4336 0.0000
v 25.4023 34.3086 9.3984
v 19.0742 59.2969 1.4922
v 20.1016 60.3828 -4.4648
v 10.6641 19.6953 -25.1328
v 19.7852 24.1953 -25.3828
v 18.6641 15.5547 -13.8867
v 18.7617 58.1797 -15.8359
v 19.7852 43.6992 -26.3945
v 11.3047 33.4336 -33.5195
v 10.5977 45.5039 -33.1562
v 10.5977 56.1133 -27.0273
v 24.0000 21.9062 -9.0234
v 10.5977 67.4883 -6.0039
v 10.5977 63.9922 -17.6406
v 26.6016 24.0000 3.0000
v 25.1758 25.0000 11.0000
v 25.1758 25.0000 11.0000
v 10.8008 63.9609 4.9727
v 14.6602 63.2773 2.5352
v 24.0000 21.9062 -9.0234
v 10.8008 63.9609 4.9727
v -10.8008 63.9609 4.9727
v 18.6641 15.5547 -13.8867
v -18.6641 15.5547 -13.8867
v -24.0000 21.9062 -9.0234
f 1 2 3
f 1 3 4
f 4 3 5
f 5 3 92
f 2 25 3
f 25 26 3
f 25 50 26
f 24 26 50
f 22 24 50
f 22 23 24
f 23 52 24
f 69 24 70
f 69 87 24
f 24 87 26
f 71 26 87
f 71 3 26
f 54 3 71
f 53 3 54
f 53 55 3
f 55 56 3
f 3 56 91
f 6 7 8
f 6 10 7
f 6 9 10
f 10 9 11
f 13 10 11
f 13 42 10
f 13 58 42
f 13 11 58
f 58 11 60
f 59 58 60
f 57 58 59
f 42 58 57
f 42 57 47
f 42 47 7
f 42 7 10
f 47 41 7
f 46 41 47
f 45 41 46
f 46 44 45
f 46 84 44
f 84 46 83
f 83 77 84
f 77 83 73
f 77 73 61
f 77 61 66
f 77 66 78
f 78 81 77
f 81 78 80
f 80 43 81
f 80 38 43
f 80 79 38
f 78 79 80
f 75 79 78
f 75 78 65
f 65 82 75
f 82 65 68
f 68 65 63
f 67 68 63
f 63 64 67
f 62 64 63
f 61 62 63
f 62 61 72
f 72 61 73
f 72 73 89
f 73 83 89
f 89 83 57
f 88 89 57
f 57 59 88
f 47 57 83
f 46 47 83
f 11 9 12
f 11 12 60
f 14 15 16
f 16 27 14
f 27 28 14
f 27 51 28
f 28 51 41
f 34 28 41
f 34 14 28
f 34 19 14
f 34 35 19
f 35 34 39
f 39 37 35
f 37 39 43
f 37 43 38
f 37 38 36
f 35 37 36
f 32 35 36
f 32 18 35
f 18 32 40
f 40 21 18
f 21 15 18
f 20 15 21
f 15 20 17
f 16 15 17
f 18 15 19
f 18 19 35
f 19 15 14
f 29 30 31
f 33 29 31
f 31 36 33
f 31 32 36
f 31 30 32
f 32 30 40
f 36 38 33
f 79 33 38
f 74 33 79
f 33 74 29
f 74 76 29
f 75 76 74
f 74 79 75
f 75 82 76
f 43 39 44
f 43 44 81
f 44 84 81
f 77 81 84
f 44 39 45
f 34 45 39
f 41 45 34
f 41 51 7
f 51 8 7
f 48 49 21
f 21 49 20
f 65 66 63
f 65 78 66
f 66 61 63
f 85 68 86
f 68 67 86
f 70 24 90
f 90 24 93
f 93 24 94
f 95 94 24
