v -8.7891 39.7109 -44.4805
v -10.6680 52.3008 -43.2070
v 0.0078 41.4219 -47.8555
v 0.0078 58.2695 -47.5430
v 0.0078 68.4570 -40.8438
v -10.2344 65.0117 -37.2969
v -3.7031 32.4688 -47.9062
v -23.5352 43.8633 12.2422
v -27.2930 43.0000 4.0000
v -24.7109 27.0000 9.0000
v -26.5352 31.0000 0.0000
v 0.0078 44.4297 11.4648
v -24.7109 27.0000 9.0000
v -18.6641 15.5547 -13.8867
v -19.9180 24.5312 -25.5977
v 0.0000 9.6289 -19.1055
v 0.0078 22.3672 -31.5391
v 0.0078 33.1211 -34.7266
v 10.6367 33.6914 -33.6641
v 10.8516 45.6562 -33.3047
v -10.8359 45.6562 -33.3047
v 0.0078 65.5469 -18.8203
v -10.5977 67.4883 -6.0039
v 0.0000 69.2383 -6.3125
v 0.0000 69.8320 6.1172
v -5.9180 67.1445 15.9102
v 5.9961 67.1680 15.9375
v -10.5977 68.1328 5.8203
v -10.6172 33.6914 -33.6641
v -19.7734 43.8711 -26.5977
v -10.8359 56.1797 -27.2266
v -20.5742 58.2266 -16.1328
v -19.7109 61.1680 -1.2031
v -25.7344 33.6914 -16.2930
v -26.2422 44.4258 -13.2227
v -26.5352 31.0000 0.0000
v -10.8516 63.9883 -17.9219
v 10.8516 63.9883 -17.9219
v 0.0078 57.3359 -28.6055
v 10.8516 56.1797 -27.2266
v -24.7148 53.7305 4.4297
v -17.8945 61.6484 11.8516
v -21.7227 49.2344 17.6406
v -12.0938 51.9453 26.2305
v -20.7812 55.7930 15.9922
v -11.4648 59.1797 22.8086
v -23.5352 43.8633 12.2422
v -20.7812 55.7930 15.9922
v -18.6641 15.5547 -13.8867
v -5.6641 29.1523 -44.2344
v -8.6016 33.2852 -37.7266
v 0.0078 27.3984 -41.8008
v 0.0078 31.5703 -34.3516
v 0.0078 73.0039 -30.6992
v -7.7656 69.4883 -29.3047
v 0.0078 71.5273 -22.0977
v 0.0078 62.3086 -12.8398
v -6.4062 58.7461 -23.6250
v -21.7227 49.2344 17.6406
v -21.8633 42.4297 18.2070
v 10.5977 68.1328 5.8203
v 17.9297 61.6641 11.8789
v 11.4844 59.1836 22.8164
v 0.0117 60.9727 24.9375
v 0.0078 44.0781 31.1992
v -12.0078 43.5352 27.4375
v -12.0078 43.5352 27.4375
v -21.8633 42.4297 18.2070
v 0.0078 53.0000 29.4570
v 0.0078 44.0781 31.1992
v 10.6680 52.3008 -43.2070
v 8.8047 39.7109 -44.4805
v 10.2344 65.0117 -37.2969
v 6.4219 58.7461 -23.6250
v 7.7812 69.4883 -29.3047
v 8.6172 33.2852 -37.7266
v 26.5508 31.0000 0.0000
v 24.7266 27.0000 9.0000
v 19.9336 24.5312 -25.5977
v 18.6641 15.5547 -13.8867
v 10.5977 67.4883 -6.0039
v 19.7891 43.8711 -26.5977
v 20.5898 58.2266 -16.1328
v 19.7266 61.1680 -1.2031
v 25.7500 33.6914 -16.2930
v 26.2578 44.4258 -13.2227
v 27.3086 43.0000 4.0000
v 24.7305 53.7305 4.4297
v 26.5508 31.0000 0.0000
v 20.7969 55.7930 15.9922
v 23.5508 43.8633 12.2422
v 24.7266 27.0000 9.0000
v 18.6641 15.5547 -13.8867
v 5.6797 29.1523 -44.2344
v 20.7969 55.7930 15.9922
v 21.7383 49.2344 17.6406
v 21.8789 42.4297 18.2070
v 12.0938 51.9453 26.2305
v 12.0234 43.5352 27.4375
v 23.5508 43.8633 12.2422
v 12.0234 43.5352 27.4375
v 3.7188 32.4688 -47.9062
v 0.0078 26.3711 -53.0000
v 21.7383 49.2344 17.6406
v 21.8789 42.4297 18.2070
f 1 2 3
f 1 3 7
f 50 1 7
f 1 50 51
f 1 51 2
f 2 51 58
f 58 6 2
f 58 55 6
f 57 55 58
f 56 55 57
f 54 55 56
f 54 5 55
f 54 75 5
f 75 54 56
f 56 57 75
f 57 74 75
f 74 73 75
f 71 73 74
f 4 73 71
f 4 71 3
f 3 2 4
f 6 4 2
f 5 4 6
f 4 5 73
f 5 75 73
f 5 6 55
f 8 9 10
f 9 8 41
f 9 41 35
f 35 36 9
f 34 36 35
f 30 34 35
f 30 15 34
f 29 15 30
f 17 15 29
f 16 15 17
f 14 15 16
f 15 14 34
f 14 36 34
f 36 10 9
f 11 12 13
f 49 12 11
f 13 12 47
f 47 12 48
f 48 12 59
f 12 60 59
f 60 12 66
f 65 66 12
f 65 12 99
f 99 12 97
f 12 96 97
f 95 96 12
f 12 100 95
f 78 100 12
f 77 78 12
f 93 77 12
f 17 18 19
f 79 17 19
f 17 79 16
f 16 79 80
f 79 85 80
f 82 85 79
f 19 82 79
f 19 20 82
f 18 20 19
f 20 18 21
f 39 20 21
f 20 39 40
f 20 40 82
f 40 83 82
f 83 40 38
f 83 38 81
f 83 81 84
f 84 88 83
f 62 88 84
f 90 88 62
f 90 91 88
f 88 91 87
f 87 86 88
f 86 87 89
f 85 86 89
f 86 85 82
f 83 86 82
f 86 83 88
f 22 23 24
f 22 37 23
f 37 22 39
f 37 39 31
f 32 37 31
f 31 30 32
f 21 30 31
f 29 30 21
f 21 18 29
f 17 29 18
f 25 26 27
f 28 26 25
f 25 24 28
f 25 61 24
f 61 25 27
f 61 27 62
f 62 84 61
f 84 81 61
f 24 61 81
f 22 24 81
f 22 81 38
f 22 38 39
f 38 40 39
f 21 31 39
f 24 23 28
f 23 33 28
f 23 32 33
f 32 23 37
f 32 30 35
f 35 41 32
f 33 32 41
f 33 41 42
f 42 28 33
f 28 42 26
f 26 42 46
f 26 46 64
f 64 27 26
f 63 27 64
f 62 27 63
f 90 62 63
f 63 98 90
f 98 63 69
f 69 70 98
f 69 44 70
f 69 46 44
f 64 46 69
f 69 63 64
f 43 44 45
f 44 43 67
f 70 44 67
f 98 70 101
f 98 101 104
f 90 98 104
f 104 101 105
f 45 44 46
f 45 46 42
f 41 45 42
f 41 8 45
f 50 52 51
f 103 52 50
f 94 52 103
f 76 52 94
f 94 72 76
f 94 102 72
f 94 103 102
f 7 102 103
f 3 102 7
f 72 102 3
f 3 71 72
f 71 76 72
f 71 74 76
f 76 74 53
f 76 53 52
f 52 53 51
f 51 53 58
f 67 43 68
f 80 85 89
f 89 87 92
f 91 92 87
f 7 103 50
