v -27.1602 45.6484 9.3438
v -24.3867 37.7969 14.1602
v -23.4531 46.3086 16.6016
v -13.4219 56.5547 21.9883
v -20.5898 55.6797 15.5703
v -16.8359 47.3438 21.9102
v -20.7461 46.8789 18.2305
v 0.0000 64.0000 19.4883
v -7.5312 63.8125 17.4883
v -4.6602 56.9570 25.4805
v -14.2031 63.1680 13.7656
v -20.1016 61.5859 3.0820
v -2.5625 48.0664 27.1211
v 0.0000 39.8477 27.1602
v 2.5625 48.0664 27.1211
v -12.4102 47.7031 24.4141
v -9.8555 39.6094 25.3359
v -7.6055 47.9453 26.6016
v -18.5117 38.9102 20.0820
v 4.6602 56.9570 25.4805
v -24.2031 54.5508 7.5000
v 0.0000 68.7305 4.3438
v 0.0000 68.1875 -9.8086
v -10.5977 67.0234 4.1289
v -10.5977 66.4883 -9.3281
v -10.5977 60.6172 -21.6641
v -18.7617 58.1797 -15.8359
v 0.0000 62.0156 -22.7773
v -10.5977 50.0508 -30.5273
v -19.7891 43.6992 -26.3867
v 0.0000 50.9062 -32.1016
v -28.2344 32.7422 0.0000
v -27.7578 44.4805 -1.0000
v -26.2422 44.0000 -14.0000
v 0.0000 37.0586 -35.1328
v -11.1016 36.8828 -33.4141
v 0.0000 22.0156 -31.3750
v -11.3047 22.5742 -29.8398
v 0.0000 6.0000 -24.0000
v -7.0000 0.0000 -19.6250
v -19.7852 24.1953 -25.3828
v -16.6758 8.0000 -19.0000
v -24.6875 27.3125 -16.7617
v -25.4375 52.9570 -2.8633
v -14.0000 -4.0000 -16.0000
v -25.6328 21.0000 -6.0000
v -2.5625 48.0664 27.1211
v -4.6602 56.9570 25.4805
v 0.0000 54.0195 -8.4648
v -7.6055 47.9453 26.6016
v -9.8555 39.6094 25.3359
v -12.4102 47.7031 24.4141
v -13.4219 56.5547 21.9883
v -23.4531 46.3086 16.6016
v -20.5898 55.6797 15.5703
v -20.7461 46.8789 18.2305
v -18.5117 38.9102 20.0820
v -16.8359 47.3438 21.9102
v -27.1602 45.6484 9.3438
v -24.3867 37.7969 14.1602
v 0.0000 -4.0000 -19.2461
v 0.0000 7.1172 -11.4727
v -10.3125 7.5000 -10.7148
v -25.6328 21.0000 -6.0000
v 0.0000 39.8477 27.1602
v 0.0000 -4.0000 -19.2461
v -26.2969 24.0859 5.6289
v -7.0000 0.0000 -19.6250
v -14.0000 -4.0000 -16.0000
v -26.2969 24.0859 5.6289
v -19.7227 29.4766 -0.7812
v -27.1602 45.6484 9.3438
v -20.3711 45.6484 9.3438
v -28.2344 32.7422 0.0000
v 27.1602 45.6484 9.3438
v 23.4531 46.3086 16.6016
v 24.3867 37.7969 14.1602
v 13.4219 56.5547 21.9883
v 16.8359 47.3438 21.9102
v 20.5898 55.6797 15.5703
v 20.7461 46.8789 18.2305
v 7.5312 63.8125 17.4883
v 14.2031 63.1680 13.7656
v 20.1016 61.5859 3.0820
v 12.4102 47.7031 24.4141
v 7.6055 47.9453 26.6016
v 9.8555 39.6094 25.3359
v 18.5117 38.9102 20.0820
v 24.2031 54.5508 7.5000
v 10.5977 67.0234 4.1289
v 10.5977 66.4883 -9.3281
v 10.5977 60.6172 -21.6641
v 18.7617 58.1797 -15.8359
v 19.7891 43.6992 -26.3867
v 10.5977 50.0508 -30.5273
v 28.2344 32.7422 0.0000
v 26.2422 44.0000 -14.0000
v 27.7578 44.4805 -1.0000
v 11.1016 36.8828 -33.4141
v 11.3047 22.5742 -29.8398
v 7.0000 0.0000 -19.6250
v 19.7852 24.1953 -25.3828
v 24.6875 27.3125 -16.7617
v 16.6758 8.0000 -19.0000
v 25.4375 52.9570 -2.8633
v 25.6328 21.0000 -6.0000
v 14.0000 -4.0000 -16.0000
v 2.5625 48.0664 27.1211
v 0.0000 54.0195 -8.4648
v 4.6602 56.9570 25.4805
v 7.6055 47.9453 26.6016
v 9.8555 39.6094 25.3359
v 12.4102 47.7031 24.4141
v 13.4219 56.5547 21.9883
v 23.4531 46.3086 16.6016
v 20.5898 55.6797 15.5703
v 20.7461 46.8789 18.2305
v 18.5117 38.9102 20.0820
v 16.8359 47.3438 21.9102
v 27.1602 45.6484 9.3438
v 24.3867 37.7969 14.1602
v 10.3125 7.5000 -10.7148
v 25.6328 21.0000 -6.0000
v 0.0000 39.8477 27.1602
v 26.2969 24.0859 5.6289
v 7.0000 0.0000 -19.6250
v 14.0000 -4.0000 -16.0000
v 26.2969 24.0859 5.6289
v 27.1602 45.6484 9.3438
v 19.7227 29.4766 -0.7812
v 20.3711 45.6484 9.3438
v 28.2344 32.7422 0.0000
f 1 2 3
f 1 3 21
f 33 1 21
f 44 33 21
f 44 34 33
f 27 34 44
f 27 30 34
f 30 27 26
f 26 29 30
f 31 29 26
f 28 31 26
f 28 26 23
f 23 92 28
f 91 92 23
f 90 91 23
f 22 90 23
f 22 23 24
f 24 9 22
f 11 9 24
f 9 11 4
f 9 4 10
f 8 9 10
f 8 10 20
f 8 20 82
f 22 8 82
f 22 9 8
f 90 22 82
f 83 90 82
f 82 78 83
f 82 20 78
f 20 86 78
f 78 86 85
f 85 86 87
f 4 5 6
f 11 5 4
f 11 12 5
f 12 11 24
f 12 24 25
f 27 12 25
f 26 27 25
f 23 26 25
f 24 23 25
f 6 5 7
f 7 19 6
f 13 14 15
f 13 15 10
f 10 15 20
f 4 18 10
f 16 18 4
f 16 17 18
f 12 21 5
f 21 12 44
f 27 44 12
f 32 33 34
f 33 32 1
f 1 32 67
f 34 43 32
f 30 43 34
f 41 43 30
f 41 42 43
f 38 42 41
f 38 40 42
f 39 40 38
f 37 39 38
f 37 38 36
f 35 37 36
f 35 36 29
f 31 35 29
f 31 95 35
f 31 92 95
f 28 92 31
f 92 91 93
f 94 92 93
f 92 94 95
f 94 99 95
f 102 99 94
f 102 94 103
f 102 103 104
f 100 102 104
f 100 104 101
f 39 100 101
f 37 100 39
f 37 99 100
f 35 99 37
f 35 95 99
f 100 99 102
f 45 46 42
f 40 45 42
f 66 40 39
f 66 39 101
f 101 104 107
f 104 106 107
f 103 106 104
f 103 96 106
f 97 96 103
f 96 97 98
f 98 75 96
f 98 89 75
f 105 89 98
f 105 98 97
f 93 105 97
f 93 97 94
f 103 94 97
f 42 46 43
f 32 43 46
f 30 29 36
f 41 30 36
f 38 41 36
f 47 48 49
f 47 49 65
f 48 50 49
f 49 50 51
f 51 52 49
f 53 49 52
f 58 49 53
f 57 49 58
f 56 49 57
f 55 49 56
f 54 49 55
f 49 54 60
f 59 49 60
f 61 62 63
f 61 63 68
f 68 63 69
f 64 69 63
f 62 64 63
f 62 71 64
f 64 71 74
f 74 71 70
f 70 71 72
f 72 71 73
f 21 3 5
f 75 76 77
f 89 76 75
f 80 76 89
f 84 80 89
f 83 80 84
f 83 78 80
f 78 79 80
f 80 79 81
f 81 79 88
f 93 91 84
f 93 84 105
f 89 105 84
f 84 91 90
f 84 90 83
f 108 109 110
f 108 124 109
f 110 109 111
f 109 112 111
f 112 109 113
f 114 113 109
f 119 114 109
f 118 119 109
f 117 118 109
f 116 117 109
f 115 116 109
f 109 121 115
f 120 121 109
f 61 122 62
f 61 126 122
f 126 127 122
f 123 122 127
f 62 122 123
f 123 130 62
f 132 130 123
f 132 128 130
f 128 129 130
f 129 131 130
f 75 125 96
