v 28.5898 27.1641 5.6836
v 31.5859 27.5664 0.0156
v 35.3047 10.1797 5.6836
v 31.5859 27.5664 11.3477
v 37.3398 23.7031 1.2148
v 36.3438 37.6602 -0.8555
v 40.0000 28.7773 5.6836
v 38.5352 41.1914 5.6836
v 36.3438 37.6602 12.2266
v 37.3398 23.7031 10.1523
v 30.2930 50.8516 10.1523
v 30.2930 50.8516 1.2148
v 32.9961 51.9648 5.6836
v 27.8047 44.4453 11.3477
v 12.1523 63.2812 6.2539
v 27.8047 44.4453 0.0156
v 12.1484 64.5000 15.0000
v 0.0000 66.0000 19.0000
v 10.9180 59.9453 23.9375
v 0.0000 60.0977 27.3594
v 19.1523 59.8281 15.9297
v 12.0977 53.2461 23.9023
v 20.0156 55.6562 15.3945
v 22.8867 58.0000 5.0000
v 10.9297 18.6914 -31.1953
v 20.4258 7.3711 -19.2461
v 10.9297 -3.5859 -22.0195
v 20.7617 27.5977 -25.3164
v 11.1016 36.8828 -33.4141
v 28.2930 27.8438 -8.8594
v 26.4883 10.8633 -10.0859
v 0.0000 68.1875 -9.8086
v 0.0000 68.7305 4.3438
v 10.5977 66.4883 -9.3281
v 18.7617 63.0000 5.0000
v 10.5977 60.6172 -21.6641
v 0.0000 62.0156 -22.7773
v 0.0000 50.9062 -32.1016
v 10.5977 50.0508 -30.5273
v 0.0000 37.0586 -35.1328
v 21.0664 0.6445 -13.3711
v 0.0000 4.0664 -27.9141
v -10.9297 -3.5859 -22.0195
v 28.4492 17.9492 8.0703
v 27.1367 9.0000 1.0000
v 0.0000 18.3359 -32.8672
v 18.7617 58.1797 -15.8359
v 25.0000 43.0000 15.0000
v 27.2461 43.0000 5.0000
v 25.4375 52.9570 -2.8633
v 27.8555 32.5000 13.1953
v 26.2422 44.4258 -13.2227
v 19.7852 43.6992 -26.3945
v 20.0156 55.6562 15.3945
v -10.9180 59.9453 23.9375
v -12.1484 64.5000 15.0000
v 0.0000 52.1680 27.8906
v -12.0977 53.2461 23.9023
v -19.1523 59.8281 15.9297
v -22.8867 58.0000 5.0000
v -20.0156 55.6562 15.3945
v -11.1016 36.8828 -33.4141
v -10.9297 18.6914 -31.1953
v -20.7617 27.5977 -25.3164
v -20.4258 7.3711 -19.2461
v -26.4883 10.8633 -10.0859
v -28.2930 27.8438 -8.8594
v -18.7617 63.0000 5.0000
v -10.5977 66.4883 -9.3281
v -10.5977 50.0508 -30.5273
v -21.0664 0.6445 -13.3672
v -27.1406 9.0000 1.0000
v -18.7617 58.1797 -15.8359
v -25.4375 52.9570 -2.8633
v -26.2422 44.4258 -13.2227
v -27.2461 43.0000 5.0000
v -19.7852 43.6992 -26.3945
v -10.5977 60.6172 -21.6641
v -28.4492 17.9492 8.0703
v -25.0000 43.0000 15.0000
v -27.8555 32.5000 13.1953
v -20.0156 55.6562 15.3945
v -25.0000 43.0000 15.0000
v -13.3438 52.4336 12.0117
v -20.0156 55.6562 15.3945
v -27.1406 9.0000 1.0000
v -13.6172 14.5938 -8.1289
v -28.4492 17.9492 8.0703
v -27.8555 32.5000 13.1953
v -21.0664 0.6445 -13.3672
v 21.0664 0.6445 -13.3711
v 13.6172 14.5938 -8.1289
v 10.9297 -3.5859 -22.0195
v -10.9297 -3.5859 -22.0195
v 25.0000 43.0000 15.0000
v 13.3438 52.4336 12.0117
v 28.4492 17.9492 8.0703
v 27.8555 32.5000 13.1953
v 27.1367 9.0000 1.0000
v 20.0156 55.6562 15.3945
v 0.0000 45.9883 5.2383
v 13.3438 52.4336 12.0117
v -13.3438 52.4336 12.0117
f 1 2 3
f 4 1 3
f 4 14 1
f 9 14 4
f 9 4 10
f 7 9 10
f 8 9 7
f 7 6 8
f 5 6 7
f 2 6 5
f 2 16 6
f 1 16 2
f 15 16 1
f 12 16 15
f 13 12 15
f 8 12 13
f 8 13 11
f 11 9 8
f 9 11 14
f 14 11 15
f 1 14 15
f 15 11 13
f 8 6 12
f 16 12 6
f 17 18 19
f 17 19 21
f 35 17 21
f 24 35 21
f 21 23 24
f 22 23 21
f 19 22 21
f 22 19 57
f 57 101 22
f 101 57 58
f 103 101 58
f 103 58 61
f 61 58 59
f 59 60 61
f 60 59 68
f 73 60 68
f 68 69 73
f 33 69 68
f 68 56 33
f 68 59 56
f 56 59 55
f 55 18 56
f 20 18 55
f 19 18 20
f 57 19 20
f 20 55 57
f 57 55 58
f 59 58 55
f 25 26 27
f 26 25 28
f 28 31 26
f 30 31 28
f 28 52 30
f 53 52 28
f 47 52 53
f 47 50 52
f 24 50 47
f 47 35 24
f 47 34 35
f 34 47 36
f 34 36 32
f 32 33 34
f 69 33 32
f 32 78 69
f 37 78 32
f 32 36 37
f 38 37 36
f 39 38 36
f 38 39 40
f 38 40 70
f 38 70 78
f 37 38 78
f 78 73 69
f 78 77 73
f 70 77 78
f 62 77 70
f 40 62 70
f 40 46 62
f 46 40 29
f 25 46 29
f 28 25 29
f 29 53 28
f 29 39 53
f 39 29 40
f 39 36 53
f 36 47 53
f 35 34 33
f 35 33 17
f 18 17 33
f 18 33 56
f 41 27 26
f 41 26 31
f 45 41 31
f 44 45 31
f 31 30 44
f 44 30 51
f 51 30 49
f 48 51 49
f 48 49 24
f 48 24 54
f 24 49 50
f 52 50 49
f 49 30 52
f 25 27 42
f 46 25 42
f 46 42 63
f 62 46 63
f 62 63 64
f 62 64 77
f 64 75 77
f 67 75 64
f 64 66 67
f 65 66 64
f 65 64 63
f 43 65 63
f 43 71 65
f 65 71 66
f 72 66 71
f 79 66 72
f 66 79 67
f 67 79 81
f 76 67 81
f 80 76 81
f 80 60 76
f 82 60 80
f 76 60 74
f 74 75 76
f 73 75 74
f 73 77 75
f 74 60 73
f 42 27 43
f 43 63 42
f 83 84 85
f 87 84 83
f 83 89 87
f 88 87 89
f 86 87 88
f 86 90 87
f 87 90 94
f 94 92 87
f 93 92 94
f 91 92 93
f 92 91 99
f 97 92 99
f 92 97 98
f 95 92 98
f 95 96 92
f 95 100 96
f 22 101 102
f 22 102 23
f 10 4 3
f 7 10 3
f 5 7 3
f 2 5 3
f 75 67 76
