v -28.2344 32.7422 0.0000
v -27.5820 40.4922 -1.5898
v -24.6250 37.2383 -17.0586
v 0.0000 33.5469 -34.3477
v 0.0000 22.0156 -31.3750
v -11.3984 34.1562 -31.6953
v -11.3047 22.5742 -29.8398
v 0.0000 6.0000 -24.0000
v -7.0000 0.0000 -19.6250
v -19.7852 24.1953 -25.3828
v -16.6758 8.0000 -19.0000
v -24.6875 27.3125 -16.7617
v -19.3555 35.5977 -24.9492
v -14.0000 -4.0000 -16.0000
v -25.6328 21.0000 -6.0000
v -24.8398 45.6484 9.3438
v 0.0000 -4.0000 -19.2461
v 0.0000 7.1172 -11.4727
v -10.3125 7.5000 -10.7148
v -25.6328 21.0000 -6.0000
v 0.0000 -4.0000 -19.2461
v -26.2969 24.0859 5.6289
v -7.0000 0.0000 -19.6250
v -14.0000 -4.0000 -16.0000
v -26.2969 24.0859 5.6289
v -19.7227 29.4766 -0.7812
v -24.8398 45.6484 9.3438
v -20.3711 45.6484 9.3438
v -28.2344 32.7422 0.0000
v 28.2344 32.7422 0.0000
v 24.6250 37.2383 -17.0586
v 27.5820 40.4922 -1.5898
v 11.3984 34.1562 -31.6953
v 11.3047 22.5742 -29.8398
v 7.0000 0.0000 -19.6250
v 19.7852 24.1953 -25.3828
v 24.6875 27.3125 -16.7617
v 16.6758 8.0000 -19.0000
v 19.3555 35.5977 -24.9492
v 25.6328 21.0000 -6.0000
v 14.0000 -4.0000 -16.0000
v 24.8398 45.6484 9.3438
v 10.3125 7.5000 -10.7148
v 25.6328 21.0000 -6.0000
v 26.2969 24.0859 5.6289
v 7.0000 0.0000 -19.6250
v 14.0000 -4.0000 -16.0000
v 26.2969 24.0859 5.6289
v 24.8398 45.6484 9.3438
v 19.7227 29.4766 -0.7812
v 20.3711 45.6484 9.3438
v 28.2344 32.7422 0.0000
v 20.4180 47.9414 16.8203
v 16.5391 56.1680 14.5898
v 16.8359 47.3438 20.7656
v 13.2305 56.5547 17.2344
v 13.2305 56.5547 17.2344
v 4.4258 56.9570 21.0000
v 12.0430 47.7031 23.2305
v 7.2266 47.9453 24.8750
v 9.8555 39.6094 25.3359
v 18.5117 38.9102 20.0820
v 24.8398 45.6484 9.3438
v 21.4414 47.6172 16.6016
v 24.3867 37.7969 14.1602
v 2.5625 48.0664 25.0039
v 0.0000 54.0195 -8.4648
v 4.4258 56.9570 21.0000
v 7.2266 47.9453 24.8750
v 9.8555 39.6094 25.3359
v 12.0430 47.7031 23.2305
v 13.2305 56.5547 17.2344
v 20.4180 47.9414 16.8203
v 18.5117 38.9102 20.0820
v 16.8359 47.3438 20.7656
v 24.8398 45.6484 9.3438
v 24.3867 37.7969 14.1602
v 0.0000 54.0195 -8.4648
v 21.4414 47.6172 16.6016
v -21.1914 47.6172 16.6016
v -24.3398 45.6484 9.3438
v -24.3867 37.7969 14.1602
v 4.4258 56.9570 21.0000
v -4.4258 56.9570 21.0000
v 2.5625 48.0664 25.0039
v -2.5625 48.0664 25.0039
v -13.2305 56.5547 17.2344
v -16.5391 56.1680 14.5898
v -16.8359 47.3438 20.7656
v -20.4180 47.9414 16.8203
v 0.0000 39.8477 27.1602
v -12.0430 47.7031 23.2305
v -9.8555 39.6094 25.3359
v -7.2266 47.9453 24.8750
v -18.5117 38.9102 20.0820
v -13.2305 56.5547 17.2344
v -4.4258 56.9570 21.0000
v -2.5625 48.0664 25.0039
v -4.4258 56.9570 21.0000
v -7.2266 47.9453 24.8750
v -9.8555 39.6094 25.3359
v -12.0430 47.7031 23.2305
v -13.2305 56.5547 17.2344
v -20.4180 47.9414 16.8203
v -18.5117 38.9102 20.0820
v -16.8359 47.3438 20.7656
v -24.3398 45.6484 9.3438
v 0.0000 54.0195 -8.4648
v -24.3867 37.7969 14.1602
v -21.1914 47.6172 16.6016
v 0.0000 39.8477 27.1602
f 1 2 3
f 2 1 16
f 16 1 22
f 3 12 1
f 13 12 3
f 10 12 13
f 10 11 12
f 7 11 10
f 7 9 11
f 8 9 7
f 5 8 7
f 5 7 6
f 4 5 6
f 4 33 5
f 5 33 34
f 5 34 8
f 8 34 35
f 21 8 35
f 21 9 8
f 9 14 11
f 14 15 11
f 11 15 12
f 1 12 15
f 7 10 6
f 10 13 6
f 17 18 19
f 17 19 23
f 23 19 24
f 20 24 19
f 18 20 19
f 18 26 20
f 20 26 29
f 29 26 25
f 25 26 27
f 27 26 28
f 30 31 32
f 32 42 30
f 42 45 30
f 31 30 37
f 37 39 31
f 36 39 37
f 36 37 38
f 34 36 38
f 34 38 35
f 35 38 41
f 38 40 41
f 37 40 38
f 37 30 40
f 34 33 36
f 36 33 39
f 17 43 18
f 17 46 43
f 46 47 43
f 44 43 47
f 18 43 44
f 44 50 18
f 52 50 44
f 52 48 50
f 48 49 50
f 49 51 50
f 53 54 55
f 53 55 62
f 55 54 56
f 57 58 59
f 59 58 60
f 60 61 59
f 63 64 65
f 66 67 68
f 66 111 67
f 98 67 111
f 98 99 67
f 99 100 67
f 67 100 101
f 101 102 67
f 103 67 102
f 106 67 103
f 105 67 106
f 104 67 105
f 68 67 69
f 69 67 70
f 70 67 71
f 72 71 67
f 75 72 67
f 74 75 67
f 73 74 67
f 76 77 78
f 78 77 79
f 80 81 82
f 83 84 85
f 85 84 86
f 86 91 85
f 87 88 89
f 89 88 90
f 89 90 95
f 92 93 94
f 97 92 94
f 96 92 97
f 107 108 109
f 108 110 109
