v -10.5977 56.1133 -27.0273
v -21.0000 45.0000 -26.5977
v -18.7617 58.1797 -15.8359
v -10.9531 39.4688 -33.3359
v 0.0000 39.7773 -35.0508
v 0.0000 57.2812 -28.4180
v -10.5977 65.7383 -11.8203
v 0.0000 67.4023 -12.4297
v -25.4375 44.2617 -16.0000
v -26.1250 33.0000 -16.0000
v -12.8477 65.7266 5.8203
v 0.0000 68.1445 6.1172
v 12.8516 65.7266 5.8203
v 10.5977 65.7383 -11.8203
v 0.0000 9.6289 -19.1055
v -7.5352 22.3867 -30.3516
v 7.5352 22.3867 -30.3516
v -19.7852 24.1953 -25.3828
v -27.7656 28.7852 2.1641
v -18.6641 15.5547 -13.8867
v -24.7852 54.0312 2.1367
v 10.9531 39.4688 -33.3359
v 10.5977 56.1133 -27.0273
v 21.0000 45.0000 -26.5977
v 19.7852 24.1953 -25.3828
v 18.7617 58.1797 -15.8359
v 25.4375 44.2617 -16.0000
v 24.7852 54.0312 2.1367
v 26.1250 33.0000 -16.0000
v 18.6641 15.5547 -13.8867
v 27.7656 28.7852 2.1641
v 27.9844 39.5117 0.8438
v -27.9844 39.5117 0.8438
v 18.6641 15.5547 -13.8867
v 27.7656 28.7852 2.1641
v 0.0000 49.4023 -8.4648
v -27.7656 28.7852 2.1641
v -18.6641 15.5547 -13.8867
v 0.0000 49.4023 -8.4648
v 0.0000 34.7344 26.7500
v 6.1758 48.8516 25.1680
v -6.1758 48.8516 25.1680
v 20.2930 33.6758 18.7109
v 23.0625 46.1172 15.5078
v 15.5469 47.9688 21.6602
v 11.7070 35.1055 24.3516
v 15.0469 57.4805 18.2500
v 0.0000 49.4023 -8.4648
v 6.1758 48.8516 25.1680
v 0.0000 34.7344 26.7500
v 11.7070 35.1055 24.3516
v 15.5469 47.9688 21.6602
v 23.0625 46.1172 15.5078
v 20.2930 33.6758 18.7109
v -23.0625 46.1172 15.5078
v -20.2930 33.6758 18.7109
v -15.5469 47.9688 21.6602
v -11.7070 35.1055 24.3516
v -15.0469 57.4805 18.2500
v -6.1758 48.8516 25.1680
v -11.7070 35.1055 24.3516
v -15.5469 47.9688 21.6602
v -20.2930 33.6758 18.7109
v -23.0625 46.1172 15.5078
v 0.0000 60.5352 20.6914
v 27.7656 28.7852 2.1641
v -27.7656 28.7852 2.1641
v -39.7695 48.8242 -17.4297
v -33.7852 46.6094 -24.1094
v -43.5586 32.9336 -18.4453
v -37.1719 31.0273 -25.3398
v -34.3945 22.5000 -10.0742
v -33.0625 38.8555 -8.4180
v -41.0391 31.0273 -9.0312
v -37.9258 46.6094 -8.6523
v -38.3320 13.6602 -10.5703
v -30.6445 23.5898 -20.7109
v -28.6719 38.4375 -21.5781
v -35.1641 13.6602 -22.4023
v -26.8047 37.4844 -13.9570
v -29.5352 17.5664 -14.6875
v -29.8164 -4.1133 -14.8281
v -12.9336 58.9766 -7.3867
v -26.4336 54.6094 -19.9961
v -29.8633 56.8359 -14.5742
v -28.6055 54.6094 -8.1680
v -39.4336 13.3633 -17.2500
v 39.7695 48.8242 -17.4297
v 43.5586 32.9336 -18.4453
v 33.7852 46.6094 -24.1094
v 37.1719 31.0273 -25.3398
v 34.3945 22.5000 -10.0742
v 41.0391 31.0273 -9.0312
v 33.0625 38.8555 -8.4180
v 37.9258 46.6094 -8.6523
v 38.3320 13.6602 -10.5703
v 30.6445 23.5898 -20.7109
v 28.6719 38.4375 -21.5781
v 35.1641 13.6602 -22.4023
v 26.8047 37.4844 -13.9570
v 29.5352 17.5664 -14.6875
v 29.8164 -4.1133 -14.8281
v 12.9336 58.9766 -7.3867
v 26.4336 54.6094 -19.9961
v 29.8633 56.8359 -14.5742
v 28.6055 54.6094 -8.1680
v 39.4336 13.3633 -17.2500
f 1 2 3
f 2 1 4
f 2 4 18
f 10 2 18
f 10 9 2
f 10 33 9
f 10 19 33
f 19 10 20
f 20 10 18
f 18 16 20
f 18 4 16
f 16 4 5
f 5 17 16
f 5 22 17
f 22 5 23
f 24 22 23
f 24 25 22
f 29 25 24
f 29 24 27
f 29 27 32
f 31 29 32
f 31 30 29
f 29 30 25
f 30 17 25
f 15 17 30
f 15 16 17
f 20 16 15
f 4 1 5
f 5 1 6
f 23 5 6
f 23 6 14
f 26 23 14
f 23 26 24
f 26 27 24
f 27 26 28
f 32 27 28
f 44 32 28
f 28 47 44
f 28 13 47
f 13 28 14
f 8 13 14
f 12 13 8
f 11 12 8
f 7 11 8
f 6 7 8
f 1 7 6
f 3 7 1
f 3 21 7
f 3 9 21
f 3 2 9
f 33 21 9
f 55 21 33
f 55 59 21
f 55 57 59
f 55 56 57
f 33 19 55
f 7 21 11
f 21 59 11
f 59 65 11
f 65 59 42
f 65 42 41
f 47 65 41
f 13 65 47
f 12 65 13
f 11 65 12
f 26 14 28
f 14 6 8
f 17 22 25
f 34 35 36
f 37 38 39
f 40 41 42
f 41 46 45
f 47 41 45
f 47 45 44
f 43 44 45
f 31 32 44
f 48 49 50
f 51 49 48
f 51 48 52
f 48 54 52
f 48 53 54
f 66 53 48
f 50 60 48
f 48 60 61
f 48 61 62
f 63 48 62
f 63 64 48
f 48 64 67
f 58 42 57
f 42 59 57
f 68 69 70
f 75 68 70
f 74 75 70
f 73 75 74
f 72 73 74
f 72 74 76
f 82 72 76
f 81 72 82
f 72 81 80
f 73 72 80
f 80 83 73
f 78 83 80
f 83 78 84
f 85 83 84
f 85 84 69
f 68 85 69
f 68 75 85
f 75 86 85
f 75 73 86
f 83 86 73
f 85 86 83
f 69 71 70
f 71 69 78
f 77 71 78
f 79 71 77
f 79 77 82
f 79 82 87
f 71 79 87
f 70 71 87
f 74 70 87
f 76 74 87
f 82 76 87
f 77 81 82
f 81 77 80
f 80 77 78
f 78 69 84
f 88 89 90
f 95 89 88
f 93 89 95
f 94 93 95
f 92 93 94
f 92 96 93
f 102 96 92
f 101 102 92
f 92 100 101
f 94 100 92
f 100 94 103
f 98 100 103
f 103 104 98
f 105 104 103
f 105 90 104
f 88 90 105
f 88 105 95
f 95 105 106
f 95 106 94
f 103 94 106
f 105 103 106
f 90 89 91
f 91 98 90
f 97 98 91
f 99 97 91
f 99 102 97
f 99 107 102
f 91 107 99
f 89 107 91
f 93 107 89
f 96 107 93
f 102 107 96
f 97 102 101
f 101 100 97
f 100 98 97
f 98 104 90
