v 12.6211 44.0000 24.8789
v 17.0000 45.0000 22.2539
v 8.0469 54.1016 22.1836
v 20.0352 50.4805 14.3125
v 19.6992 44.0000 19.6797
v 25.6562 42.7266 8.7578
v 22.6680 34.0000 15.0000
v 16.8242 36.2031 21.7422
v 14.7109 52.6211 19.8203
v 0.0000 22.0156 -31.3750
v 11.3047 22.5742 -29.8398
v 0.0000 5.2969 -21.0703
v 10.2930 6.6211 -20.3086
v 19.7852 24.1953 -25.3828
v 19.2539 11.5234 -15.5898
v 11.3984 34.1562 -31.6953
v 0.0000 33.5469 -34.3477
v 19.3555 35.5977 -24.9492
v 27.0898 28.6094 -0.4297
v 27.5820 40.4922 -1.5898
v 25.6562 42.7266 8.7578
v 26.1250 33.4336 -16.0000
v 25.0703 21.5742 -6.8984
v 24.6250 37.2383 -17.0586
v 19.6992 44.0000 19.6797
v 7.7266 56.9805 14.8203
v 22.6680 34.0000 15.0000
v 16.8242 36.2031 21.7422
v 12.6211 44.0000 24.8789
v 8.0469 54.1016 22.1836
v 25.6562 42.7266 8.7578
v 25.1289 26.0000 9.0000
v -14.7109 52.6211 19.8203
v -17.0000 45.0000 22.2539
v -8.0469 54.1016 22.1836
v -16.8242 36.2031 21.7422
v -12.6211 44.0000 24.8789
v -19.6992 44.0000 19.6797
v -20.0352 50.4805 14.3125
v -25.6562 42.7266 8.7578
v -22.6680 34.0000 15.0000
v -11.3047 22.5742 -29.8398
v -10.2930 6.6211 -20.3086
v -19.7852 24.1953 -25.3828
v -19.2539 11.5234 -15.5898
v -11.3984 34.1562 -31.6953
v -19.3555 35.5977 -24.9492
v -27.0898 28.6094 -0.4297
v -25.6562 42.7266 8.7578
v -27.5820 40.4922 -1.5898
v -26.1250 33.4336 -16.0000
v -24.6250 37.2383 -17.0586
v -25.0703 21.5742 -6.8984
v -19.6992 44.0000 19.6797
v -22.6680 34.0000 15.0000
v -7.7266 56.9805 14.8203
v -16.8242 36.2031 21.7422
v -12.6211 44.0000 24.8789
v -8.0469 54.1016 22.1836
v -25.6562 42.7266 8.7578
v -25.1289 26.0000 9.0000
v -25.1289 26.0000 9.0000
v -20.1016 26.9023 9.0000
v -27.0898 28.6094 -0.4297
v -21.6719 28.9922 1.4531
v -10.2930 6.6211 -20.3086
v 0.0000 10.7891 -12.5664
v -19.2539 11.5234 -15.5898
v -25.0703 21.5742 -6.8984
v 0.0000 5.2969 -21.0703
v 10.2930 6.6211 -20.3086
v 19.2539 11.5234 -15.5898
v 25.0703 21.5742 -6.8984
v 27.0898 28.6094 -0.4297
v 21.6719 28.9922 1.4531
v 25.1289 26.0000 9.0000
v 20.1016 26.9023 9.0000
f 1 2 3
f 2 1 8
f 5 2 8
f 2 5 4
f 2 4 9
f 3 2 9
f 4 5 6
f 6 5 7
f 10 11 12
f 11 10 17
f 16 11 17
f 11 16 14
f 11 14 13
f 11 13 12
f 14 15 13
f 14 22 15
f 18 22 14
f 16 18 14
f 18 24 22
f 20 22 24
f 20 19 22
f 19 20 21
f 32 19 21
f 23 22 19
f 22 23 15
f 25 26 27
f 25 28 26
f 28 29 26
f 26 29 30
f 31 27 26
f 31 26 76
f 76 26 77
f 75 76 77
f 74 76 75
f 74 75 73
f 67 73 75
f 72 73 67
f 71 72 67
f 71 67 70
f 66 70 67
f 66 67 68
f 68 67 69
f 67 65 69
f 69 65 64
f 64 65 62
f 62 65 63
f 56 62 63
f 60 62 56
f 60 56 55
f 54 55 56
f 54 56 57
f 57 56 58
f 56 59 58
f 33 34 35
f 34 33 39
f 34 39 38
f 38 36 34
f 34 36 37
f 34 37 35
f 39 40 38
f 38 40 41
f 10 12 42
f 10 42 17
f 17 42 46
f 42 44 46
f 42 43 44
f 42 12 43
f 44 43 45
f 44 45 51
f 47 44 51
f 46 44 47
f 47 51 52
f 50 52 51
f 50 51 48
f 48 49 50
f 61 49 48
f 53 48 51
f 45 53 51
