v 21.4453 42.0000 17.1094
v 26.7812 37.0000 10.0000
v 19.3203 50.5000 15.5352
v 28.3438 28.0000 5.0000
v 25.2695 34.6055 13.7305
v 24.5664 43.0000 6.5469
v -28.3438 28.0000 5.0000
v -26.7812 37.0000 10.0000
v -24.5664 43.0000 6.5469
v -21.4453 42.0000 17.1094
v -19.3203 50.5000 15.5352
v -25.2695 34.6055 13.7305
v -7.9102 42.0000 24.7422
v -7.9570 49.9766 22.3477
v -14.9336 40.6641 23.6094
v -14.2031 50.2422 21.3164
v 14.2031 50.2422 21.3164
v 7.9570 49.9766 22.3477
v 14.9336 40.6641 23.6094
v 7.9102 42.0000 24.7422
v -19.3203 50.5000 15.5352
v -21.4453 42.0000 17.1094
v 21.4453 42.0000 17.1094
v 19.3203 50.5000 15.5352
v 0.0000 10.0000 -30.0000
v 10.1445 11.0000 -28.0000
v 0.0000 7.0000 -23.0000
v 14.0312 10.0000 -18.0000
v 0.0000 20.0000 -36.7031
v 10.1445 21.0000 -34.7031
v 11.1484 31.5234 -31.6602
v 0.0000 30.8359 -34.4258
v 28.3438 28.0000 5.0000
v 24.0820 17.0000 -8.0000
v 31.6719 30.0000 -2.0000
v 28.2969 28.5000 -15.0000
v 21.3242 22.5664 -28.1523
v 19.0703 14.0000 -23.0000
v 26.7148 33.0000 -15.0000
v 27.5820 40.4922 -1.5898
v 24.5664 43.0000 6.5469
v 24.6250 37.2383 -17.0586
v 19.3555 35.5977 -24.9492
v 11.3984 34.1562 -31.6953
v 0.0000 33.5469 -34.3477
v -10.1445 11.0000 -28.0000
v -14.0312 10.0000 -18.0000
v -10.1445 21.0000 -34.7031
v -11.1484 31.5234 -31.6602
v -21.3242 22.5664 -28.1523
v -19.0703 14.0000 -23.0000
v -28.2969 28.5000 -15.0000
v -24.6250 37.2383 -17.0586
v -19.3555 35.5977 -24.9492
v -26.7148 33.0000 -15.0000
v -24.5664 43.0000 6.5469
v -27.5820 40.4922 -1.5898
v -31.6719 30.0000 -2.0000
v -28.3438 28.0000 5.0000
v -11.3984 34.1562 -31.6953
v -24.0820 17.0000 -8.0000
v 11.5508 60.4375 15.7188
v -11.5508 60.4375 15.7188
v -6.0664 59.1016 17.1523
v 6.0664 59.1016 17.1523
v 0.0000 50.8438 25.2695
v -7.9570 49.9766 22.3477
v 0.0000 40.6641 27.6523
v -7.9102 42.0000 24.7422
v 0.0000 60.9375 18.6992
v -6.0664 59.1016 17.1523
v 6.0664 59.1016 17.1523
v 7.9570 49.9766 22.3477
v 7.9102 42.0000 24.7422
v 17.8320 42.3906 14.2969
v 21.4453 42.0000 17.1094
v 14.9336 40.6641 23.6094
v 0.0000 43.9883 10.9844
v 7.9102 42.0000 24.7422
v 0.0000 40.6641 27.6523
v -17.8320 42.3906 14.2969
v -14.9336 40.6641 23.6094
v -7.9102 42.0000 24.7422
v 0.0000 40.6641 27.6523
v -21.4453 42.0000 17.1094
v -21.4453 42.0000 17.1094
v -25.2695 34.6055 13.7305
v -17.8320 42.3906 14.2969
v -28.3438 28.0000 5.0000
v -24.0352 33.4844 3.5000
v -24.0820 17.0000 -8.0000
v -15.4414 16.9609 -13.4023
v -14.0312 10.0000 -18.0000
v 28.3438 28.0000 5.0000
v 25.2695 34.6055 13.7305
v 24.0352 33.4844 3.5000
v 17.8320 42.3906 14.2969
v 21.4453 42.0000 17.1094
v 14.0312 10.0000 -18.0000
v 15.4414 16.9609 -13.4023
v 0.0000 7.0000 -23.0000
v 24.0820 17.0000 -8.0000
f 1 2 3
f 1 5 2
f 4 2 5
f 4 6 2
f 6 3 2
f 7 8 9
f 7 12 8
f 12 10 8
f 10 11 8
f 11 9 8
f 13 14 15
f 15 14 16
f 16 22 15
f 16 21 22
f 63 21 16
f 63 16 64
f 64 16 14
f 17 18 19
f 18 17 65
f 65 17 62
f 24 62 17
f 23 24 17
f 23 17 19
f 19 18 20
f 25 26 27
f 25 30 26
f 29 30 25
f 30 29 31
f 37 30 31
f 37 31 43
f 36 37 43
f 37 36 38
f 38 26 37
f 38 28 26
f 28 38 34
f 36 34 38
f 35 34 36
f 33 34 35
f 33 35 41
f 35 40 41
f 39 40 35
f 36 39 35
f 36 43 39
f 42 39 43
f 44 42 43
f 31 44 43
f 44 31 45
f 45 31 32
f 32 49 45
f 32 29 49
f 31 29 32
f 29 25 48
f 29 48 49
f 50 49 48
f 50 54 49
f 52 54 50
f 50 51 52
f 51 50 46
f 51 46 47
f 47 61 51
f 52 51 61
f 61 58 52
f 59 58 61
f 59 56 58
f 56 57 58
f 58 57 55
f 55 52 58
f 52 55 54
f 53 54 55
f 60 54 53
f 49 54 60
f 45 49 60
f 27 26 28
f 25 27 46
f 25 46 48
f 46 50 48
f 27 47 46
f 26 30 37
f 39 42 40
f 55 57 53
f 66 67 68
f 66 71 67
f 70 71 66
f 70 66 72
f 72 66 73
f 66 68 73
f 73 68 74
f 68 67 69
f 75 76 77
f 75 77 78
f 77 79 78
f 79 80 78
f 81 78 82
f 85 81 82
f 82 78 83
f 83 78 84
f 86 87 88
f 87 90 88
f 89 90 87
f 90 89 91
f 91 92 90
f 91 93 92
f 93 100 92
f 99 100 93
f 101 99 93
f 102 100 99
f 96 100 102
f 96 102 94
f 94 95 96
f 97 96 95
f 97 95 98
