v 0.0000 10.4766 -29.2070
v 0.0000 9.6289 -19.1055
v -8.4648 4.9766 -30.2930
v -14.7930 15.6133 -9.0352
v 26.4297 36.1562 8.2969
v 26.6797 28.1367 7.3633
v 28.5508 32.5000 6.0000
v 22.8125 13.1719 -14.0000
v 26.5742 29.9844 -14.0039
v 14.7930 15.6133 -9.0352
v 0.0000 37.7812 2.1484
v 8.4648 4.9766 -30.2930
v 14.4180 10.9805 -25.0430
v 14.4180 10.9805 -25.0430
v 20.6875 6.9766 -20.8047
v 16.0273 40.8672 -28.2812
v 15.3398 30.1758 -28.4492
v 8.8633 24.4805 -33.2930
v 14.4180 10.9805 -25.0430
v 8.4648 4.9766 -30.2930
v 15.3398 30.1758 -28.4492
v 16.0273 40.8672 -28.2812
v 20.5078 35.7344 -22.5938
v 0.0000 10.4766 -29.2070
v 0.0000 21.9883 -31.9258
v 8.4648 4.9766 -30.2930
v 8.8633 24.4805 -33.2930
v 8.8633 24.4805 -33.2930
v 8.6523 40.1797 -30.3164
v 0.0000 37.1211 -32.5117
v 26.5742 29.9844 -14.0039
v 22.8125 13.1719 -14.0000
v 20.6875 6.9766 -20.8047
v 26.5742 29.9844 -14.0039
v 27.0469 34.5234 -13.1133
v 0.0000 10.4766 -29.2070
v 14.7930 15.6133 -9.0352
v 26.4297 36.1562 8.2969
v 0.0000 37.7812 2.1484
v 26.6797 28.1367 7.3633
v 26.5742 29.9844 -14.0039
v 26.4297 36.1562 8.2969
v 26.1250 38.4023 -11.5938
v 8.6523 40.1797 -30.3164
v 20.6875 6.9766 -20.8047
v 20.5078 35.7344 -22.5938
v 24.5000 36.9453 -18.4492
v 26.1250 38.4023 -11.5938
v 24.5000 36.9453 -18.4492
v 27.0469 34.5234 -13.1133
v 14.4180 10.9805 -25.0430
v 23.3945 48.0234 11.3008
v 25.7305 40.2422 8.2969
v 25.2852 44.8633 7.7227
v 26.7109 42.3906 -10.9297
v 25.5000 46.6094 -8.8633
v 26.7109 42.3906 -10.9297
v 25.7305 40.2422 8.2969
v 25.7305 40.2422 8.2969
v 23.3945 48.0234 11.3008
v 0.0000 37.7812 2.1484
v 26.1250 38.4023 -11.5938
v 26.7109 42.3906 -10.9297
v -26.4297 36.1562 8.2969
v -28.5508 32.5000 6.0000
v -26.6797 28.1367 7.3633
v -22.8125 13.1719 -14.0000
v -26.5742 29.9844 -14.0039
v 0.0000 37.7812 2.1484
v -14.4180 10.9805 -25.0430
v -14.4180 10.9805 -25.0430
v -20.6875 6.9766 -20.8047
v -16.0273 40.8672 -28.2812
v -8.8633 24.4805 -33.2930
v -15.3398 30.1758 -28.4492
v -14.4180 10.9805 -25.0430
v -8.4648 4.9766 -30.2930
v -15.3398 30.1758 -28.4492
v -20.5078 35.7344 -22.5938
v -16.0273 40.8672 -28.2812
v 0.0000 10.4766 -29.2070
v -8.4648 4.9766 -30.2930
v 0.0000 21.9883 -31.9258
v -8.8633 24.4805 -33.2930
v -8.8633 24.4805 -33.2930
v -8.6523 40.1797 -30.3164
v 0.0000 37.1211 -32.5117
v -26.5742 29.9844 -14.0039
v -20.6875 6.9766 -20.8047
v -22.8125 13.1719 -14.0000
v -26.5742 29.9844 -14.0039
v -27.0469 34.5234 -13.1133
v -26.4297 36.1562 8.2969
v -26.6797 28.1367 7.3633
v 0.0000 37.7812 2.1484
v -26.5742 29.9844 -14.0039
v -26.1250 38.4023 -11.5938
v -26.4297 36.1562 8.2969
v -8.6523 40.1797 -30.3164
v -20.6875 6.9766 -20.8047
v -20.5078 35.7344 -22.5938
v -24.5000 36.9453 -18.4492
v -26.1250 38.4023 -11.5938
v -24.5000 36.9453 -18.4492
v -27.0469 34.5234 -13.1133
v -14.4180 10.9805 -25.0430
v -23.3945 48.0234 11.3008
v -25.2852 44.8633 7.7227
v -25.7305 40.2422 8.2969
v -26.7109 42.3906 -10.9297
v -25.5000 46.6094 -8.8633
v -25.7305 40.2422 8.2969
v -26.7109 42.3906 -10.9297
v -25.7305 40.2422 8.2969
v 0.0000 37.7812 2.1484
v -23.3945 48.0234 11.3008
v -26.1250 38.4023 -11.5938
v -26.7109 42.3906 -10.9297
f 1 2 3
f 3 2 4
f 3 4 70
f 67 4 68
f 4 67 72
f 71 4 72
f 68 4 69
f 69 97 98
f 117 69 118
f 5 6 7
f 5 7 48
f 50 48 7
f 49 48 50
f 8 9 10
f 10 15 8
f 14 15 10
f 9 11 10
f 11 42 43
f 62 63 11
f 12 13 10
f 36 12 2
f 2 12 37
f 16 17 18
f 18 17 19
f 19 20 18
f 21 22 23
f 21 23 45
f 45 51 21
f 24 25 26
f 25 27 26
f 27 25 30
f 27 30 44
f 28 29 16
f 31 32 33
f 33 47 31
f 46 47 33
f 35 31 47
f 34 35 7
f 6 34 7
f 38 39 40
f 39 41 40
f 39 57 58
f 52 53 54
f 53 55 54
f 54 55 56
f 59 60 61
f 64 65 66
f 64 103 65
f 105 65 103
f 104 105 103
f 73 74 75
f 74 76 75
f 76 74 77
f 78 79 80
f 78 100 79
f 100 78 106
f 81 82 83
f 83 82 84
f 84 87 83
f 84 99 87
f 85 73 86
f 88 89 90
f 89 88 102
f 101 89 102
f 92 102 88
f 91 65 92
f 66 65 91
f 93 94 95
f 95 94 96
f 95 112 113
f 107 108 109
f 109 108 110
f 108 111 110
f 114 115 116
