v 10.3906 50.5352 25.6758
v 18.6172 50.1055 20.7383
v 10.5977 61.2031 17.3477
v 18.7617 56.7266 14.8047
v 0.0000 62.8594 18.2227
v 0.0000 50.6836 27.1641
v 0.0000 46.2734 -34.9961
v 10.8359 45.6562 -33.3047
v 0.0000 33.6875 -37.6172
v 11.3633 33.6875 -35.7852
v 10.8359 63.9883 -17.9219
v 0.0000 65.5469 -18.8203
v 10.5977 67.4883 -6.0039
v 0.0000 69.2383 -6.3125
v 0.0000 68.1445 6.1172
v 10.5977 66.4453 5.8203
v 18.7617 61.0625 4.8672
v -10.3906 50.5352 25.6758
v -10.5977 61.2031 17.3477
v -18.6172 50.1055 20.7383
v -18.7617 56.7266 14.8047
v -10.8359 45.6562 -33.3047
v -11.3633 33.6875 -35.7852
v -10.5977 67.4883 -6.0039
v -10.8359 63.9883 -17.9219
v -10.5977 66.4453 5.8203
v -18.7617 61.0625 4.8672
v 19.0195 40.5859 22.7422
v 25.4375 46.9883 9.5703
v 10.5898 41.6680 27.6758
v 0.0000 42.1680 29.2344
v -10.5898 41.6680 27.6758
v -19.0195 40.5859 22.7422
v -24.4375 33.6875 16.6758
v -25.4375 46.9883 9.5703
v -30.4180 33.6875 -0.2227
v 20.6211 43.8711 -26.5977
v 21.2383 33.6875 -27.6914
v 10.5977 56.1133 -27.0273
v 18.7617 58.1797 -15.8359
v 26.2422 44.4258 -13.2227
v 27.5352 33.6875 -17.1992
v 25.4375 52.9570 -2.8633
v 0.0000 57.3359 -28.6055
v 30.4180 33.6875 -0.2227
v 28.4883 42.9258 -1.4297
v -21.2383 33.6875 -27.6914
v -20.6211 43.8711 -26.5977
v -10.8359 56.1797 -27.2266
v -18.7617 58.1797 -15.8359
v -27.5352 33.6875 -17.1992
v -26.2422 44.4258 -13.2227
v -25.4375 52.9570 -2.8633
v -28.4883 42.9258 -1.4297
v 26.6250 22.5000 14.9453
v 24.4375 33.6875 16.6758
v -26.6250 22.5000 14.9453
v -30.6641 18.2500 -2.1094
v -28.0898 18.2500 -17.3008
v 30.6641 18.2500 -2.1094
v 28.0898 18.2500 -17.3008
v -21.4336 17.5000 -27.9141
v 21.4336 17.5000 -27.9141
v -11.4688 17.5000 -36.0859
v 0.0000 17.5000 -37.9336
v 11.4688 17.5000 -36.0859
v -24.4492 5.1289 -8.8984
v -25.8594 8.4688 1.4844
v -26.7031 14.0000 10.0000
v -22.5898 3.9336 -16.8906
v 24.4492 5.1289 -8.8984
v 22.5898 3.9336 -16.8906
v -18.8945 3.0742 -24.8828
v 18.8945 3.0742 -24.8828
v -10.0625 2.4453 -32.5000
v 0.0000 2.3008 -34.1602
v 10.0625 2.4453 -32.5000
v -10.0625 2.4453 -32.5000
v 0.0000 2.3008 -34.1602
v 0.0000 19.8320 -21.4883
v 10.0625 2.4453 -32.5000
v -18.8945 3.0742 -24.8828
v 18.8945 3.0742 -24.8828
v 22.5898 3.9336 -16.8906
v 24.4492 5.1289 -8.8984
v -24.4492 5.1289 -8.8984
v -22.5898 3.9336 -16.8906
v -19.3945 16.8516 -1.7227
v -25.8594 8.4688 1.4844
v 25.8594 8.4688 1.4844
v 19.3945 16.8516 -1.7227
v 25.8594 8.4688 1.4844
v 26.7031 14.0000 10.0000
v -19.0195 40.5859 22.7422
v -24.4375 33.6875 16.6758
v -14.2656 40.9414 14.2188
v -19.9688 27.3750 8.3711
v -26.6250 22.5000 14.9453
v -26.7031 14.0000 10.0000
v 26.7031 14.0000 10.0000
v 26.6250 22.5000 14.9453
v 19.9688 27.3750 8.3711
v 24.4375 33.6875 16.6758
v 19.0195 40.5859 22.7422
v 14.2656 40.9414 14.2188
v 10.5898 41.6680 27.6758
v 0.0000 42.1289 19.0859
v 0.0000 42.1680 29.2344
v -10.5898 41.6680 27.6758
f 1 2 3
f 3 5 1
f 5 3 15
f 15 19 5
f 26 19 15
f 19 26 21
f 19 21 20
f 18 19 20
f 19 18 5
f 18 6 5
f 18 32 6
f 32 18 33
f 18 20 33
f 35 33 20
f 20 21 35
f 35 21 27
f 27 53 35
f 27 50 53
f 24 50 27
f 25 50 24
f 12 25 24
f 14 12 24
f 12 14 13
f 11 12 13
f 12 11 44
f 12 44 25
f 44 49 25
f 44 7 49
f 7 44 39
f 8 7 39
f 7 8 9
f 7 9 22
f 7 22 49
f 22 48 49
f 23 48 22
f 9 23 22
f 9 65 23
f 10 65 9
f 8 10 9
f 10 8 37
f 10 37 38
f 38 66 10
f 63 66 38
f 38 42 63
f 37 42 38
f 37 41 42
f 40 41 37
f 39 40 37
f 8 39 37
f 44 11 39
f 39 11 40
f 11 13 40
f 13 17 40
f 13 16 17
f 13 14 16
f 16 14 15
f 3 16 15
f 3 4 16
f 2 4 3
f 2 29 4
f 28 29 2
f 2 1 28
f 1 30 28
f 1 6 30
f 5 6 1
f 30 6 31
f 31 6 32
f 4 17 16
f 29 17 4
f 17 29 43
f 17 43 40
f 40 43 41
f 43 46 41
f 43 29 46
f 46 29 45
f 41 46 45
f 41 45 42
f 45 60 42
f 45 55 60
f 55 45 56
f 29 56 45
f 28 56 29
f 26 27 21
f 24 27 26
f 24 26 14
f 26 15 14
f 34 35 36
f 34 36 57
f 57 36 58
f 57 58 69
f 68 69 58
f 67 68 58
f 58 59 67
f 58 51 59
f 36 51 58
f 52 51 36
f 48 51 52
f 48 47 51
f 23 47 48
f 23 64 47
f 23 65 64
f 76 64 65
f 75 64 76
f 75 62 64
f 73 62 75
f 70 62 73
f 59 62 70
f 51 62 59
f 47 62 51
f 47 64 62
f 49 48 50
f 49 50 25
f 50 48 52
f 53 50 52
f 53 52 54
f 53 54 35
f 35 54 36
f 54 52 36
f 42 60 61
f 63 42 61
f 72 63 61
f 61 71 72
f 60 71 61
f 71 60 92
f 92 60 93
f 55 93 60
f 66 65 10
f 66 76 65
f 77 76 66
f 66 63 77
f 77 63 74
f 74 63 72
f 67 59 70
f 78 79 80
f 82 78 80
f 80 87 82
f 80 86 87
f 80 88 86
f 86 88 89
f 88 99 89
f 97 99 88
f 98 99 97
f 98 97 95
f 97 96 95
f 94 95 96
f 94 96 109
f 109 96 107
f 109 107 108
f 107 106 108
f 105 106 107
f 104 106 105
f 104 105 103
f 103 105 102
f 101 103 102
f 101 102 100
f 100 102 91
f 100 91 90
f 90 91 85
f 85 91 80
f 84 85 80
f 83 84 80
f 81 83 80
f 81 80 79
f 34 33 35
