v -9.0469 62.0000 20.0000
v 0.0000 63.0000 21.0000
v -4.0391 74.4023 22.0391
v 0.0000 45.4062 -32.8867
v 0.0000 33.4336 -33.2500
v -10.0000 44.8203 -31.2773
v -10.6641 33.4336 -31.6211
v 0.0000 67.2148 -5.9531
v 0.0000 63.7461 -17.5000
v -10.0000 65.5586 -5.6641
v 0.0000 70.0000 7.0000
v -10.5977 68.0000 7.0000
v -4.0391 74.4023 22.0391
v -18.7617 61.0625 4.8672
v -11.6133 71.3594 20.3477
v -18.6641 43.1172 -24.8984
v -10.0000 54.8320 -25.4961
v -17.6992 56.7812 -14.9414
v -10.0000 62.2617 -16.6406
v -24.6484 33.4336 -13.9844
v -24.0000 43.6484 -12.1719
v -24.0000 51.8516 -2.7031
v 0.0000 55.9336 -26.8086
v -26.2969 42.3867 -1.3477
v -18.5977 58.6328 14.8047
v -23.9922 48.0000 12.0000
v -25.9219 36.0000 10.0000
v -23.5312 24.3398 -15.4922
v -18.6641 24.7188 -24.0117
v 0.0000 22.6602 -31.3281
v -10.6641 23.1875 -29.8789
v -22.0820 14.0000 -10.1875
v -16.2031 11.6641 -17.5664
v -9.3945 10.0000 -22.9961
v 0.0000 9.0000 -25.2461
v -12.3477 4.0000 -15.3008
v 0.0000 2.0000 -20.8672
v -26.6797 23.6094 -5.1602
v 0.0000 63.0000 21.0000
v -9.0469 62.0000 20.0000
v 0.0000 57.3320 19.2578
v -10.0000 56.2422 18.2383
v -11.6133 71.3594 20.3477
v -18.5977 58.6328 14.8047
v -26.5000 22.0000 8.0000
v 0.0000 22.0000 8.0000
v -25.9219 36.0000 10.0000
v -27.6367 31.0000 -1.0000
v -26.5000 22.0000 8.0000
v 0.0000 31.0000 -1.0000
v 27.6367 31.0000 -0.9961
v 26.5000 22.0000 8.0000
v -17.6992 53.2891 15.0742
v -23.9922 48.0000 12.0000
v 9.0469 62.0000 20.0000
v 4.0391 74.4023 22.0391
v 10.0000 44.8203 -31.2773
v 10.6641 33.4336 -31.6211
v 10.0000 65.5586 -5.6641
v 4.0391 74.4023 22.0391
v 10.5977 68.0000 7.0000
v 11.6133 71.3594 20.3477
v 18.7617 61.0625 4.8672
v 18.6641 43.1172 -24.8984
v 10.0000 54.8320 -25.4961
v 17.6992 56.7812 -14.9414
v 10.0000 62.2617 -16.6406
v 24.0000 43.6484 -12.1719
v 24.6484 33.4336 -13.9844
v 24.0000 51.8516 -2.7031
v 18.6641 24.7188 -24.0117
v 26.2969 42.3867 -1.3477
v 18.5977 58.6328 14.8047
v 23.9922 48.0000 12.0000
v 25.9219 36.0000 10.0000
v 27.6367 31.0000 -0.9961
v 26.5000 22.0000 8.0000
v 23.5312 24.3398 -15.4922
v 10.6641 23.1875 -29.8789
v 22.0820 14.0000 -10.1875
v 16.2031 11.6641 -17.5664
v 9.3945 10.0000 -22.9961
v 12.3477 4.0000 -15.3008
v 26.6797 23.6094 -5.1602
v 9.0469 62.0000 20.0000
v 10.0000 56.2422 18.2383
v 11.6133 71.3594 20.3477
v 18.5977 58.6328 14.8047
v 25.9219 36.0000 10.0000
v -27.6367 31.0000 -1.0000
v 17.6992 53.2891 15.0742
v 23.9922 48.0000 12.0000
v -8.8633 8.0273 -15.9453
v -22.0820 14.0000 -10.1875
v -12.3477 4.0000 -15.3008
v -9.3945 10.0000 -22.9961
v 0.0000 2.0000 -20.8672
v 12.3477 4.0000 -15.3008
v 22.0820 14.0000 -10.1875
v 8.8633 8.0273 -15.9453
v 9.3945 10.0000 -22.9961
v -26.6797 23.6094 -5.1602
v 26.6797 23.6094 -5.1602
f 1 2 3
f 1 41 2
f 41 1 42
f 44 42 1
f 43 44 1
f 44 53 42
f 54 53 44
f 53 54 46
f 46 54 47
f 45 46 47
f 45 90 46
f 90 50 46
f 50 90 102
f 94 50 102
f 94 93 50
f 93 94 95
f 93 95 96
f 96 97 93
f 97 100 93
f 100 97 101
f 98 100 101
f 98 99 100
f 99 50 100
f 99 103 50
f 50 103 51
f 50 51 46
f 51 52 46
f 52 89 46
f 46 89 92
f 91 46 92
f 92 88 91
f 88 86 91
f 88 55 86
f 87 55 88
f 55 56 2
f 55 2 41
f 41 86 55
f 4 5 6
f 6 17 4
f 6 16 17
f 16 6 7
f 7 29 16
f 29 7 31
f 31 34 29
f 34 31 35
f 37 34 35
f 37 35 82
f 82 35 79
f 82 79 71
f 81 82 71
f 78 81 71
f 78 71 69
f 78 69 84
f 84 80 78
f 80 81 78
f 81 80 83
f 83 82 81
f 5 7 6
f 5 30 7
f 5 58 30
f 5 57 58
f 4 57 5
f 57 4 65
f 57 65 64
f 64 58 57
f 58 64 71
f 71 79 58
f 30 58 79
f 35 30 79
f 35 31 30
f 30 31 7
f 8 9 10
f 8 59 9
f 59 8 61
f 59 61 63
f 59 63 66
f 66 67 59
f 65 67 66
f 65 66 64
f 66 68 64
f 66 70 68
f 66 63 70
f 73 70 63
f 73 74 70
f 70 74 72
f 70 72 68
f 72 69 68
f 76 69 72
f 69 76 84
f 64 68 69
f 64 69 71
f 11 12 13
f 8 12 11
f 61 8 11
f 11 60 61
f 11 39 60
f 11 13 39
f 12 40 13
f 12 15 40
f 12 14 15
f 10 14 12
f 10 18 14
f 18 10 19
f 17 18 19
f 17 16 18
f 18 16 21
f 18 21 22
f 14 18 22
f 25 14 22
f 25 22 26
f 22 24 26
f 22 21 24
f 24 21 20
f 48 24 20
f 48 20 38
f 38 20 28
f 38 28 32
f 32 28 33
f 33 36 32
f 36 33 34
f 29 34 33
f 28 29 33
f 28 20 29
f 16 29 20
f 16 20 21
f 17 23 4
f 23 17 19
f 9 23 19
f 9 67 23
f 9 59 67
f 10 9 19
f 10 12 8
f 24 27 26
f 27 24 48
f 48 49 27
f 14 25 15
f 61 62 63
f 61 85 62
f 61 60 85
f 65 4 23
f 23 67 65
f 72 74 75
f 75 76 72
f 76 75 77
f 63 62 73
f 93 100 50
