v -15.6875 42.4531 27.5742
v -19.1562 29.1562 22.6836
v -8.8438 41.0469 28.3516
v 4.5586 63.5234 22.9766
v -10.7695 61.4414 19.5586
v -8.0938 55.5117 29.4414
v -21.5352 46.6250 19.1680
v 0.0000 53.1406 -1.6055
v -19.1562 29.1562 22.6836
v -21.5352 46.6250 19.1680
v -8.8438 41.0469 28.3516
v 4.1992 50.9180 29.2383
v 16.9805 57.4141 20.0625
v 0.0000 22.3672 -29.8906
v 10.6641 23.1875 -28.1484
v 0.0000 9.6289 -19.1055
v 18.9531 24.7188 -23.9453
v 18.6641 15.5547 -13.8867
v 11.3047 33.4336 -33.5195
v 10.7031 67.0156 8.0000
v 10.5977 67.4883 -6.0039
v 0.0000 68.4922 8.0000
v -10.5977 67.4883 -6.0039
v 19.7852 43.6992 -26.3945
v 10.5977 56.1133 -27.0273
v 18.7617 58.1797 -15.8359
v 26.7852 33.1914 -16.2930
v 26.2969 33.4336 0.0000
v 27.6094 40.9375 0.3867
v 26.0820 51.9453 -4.4727
v 0.0000 46.1250 -34.8594
v 20.3828 61.7539 0.0508
v 0.0000 65.5625 -18.5469
v 21.5352 46.6250 19.1680
v 24.2852 57.0508 9.3008
v 16.9805 57.4141 20.0625
v 30.6992 39.8867 7.1680
v 25.1641 30.0664 17.5703
v 31.6445 28.8398 7.7969
v 29.9492 36.8555 -3.8867
v 29.9219 18.3789 9.5547
v 30.3320 22.7852 -0.7969
v -24.2852 57.0508 9.3008
v -18.0469 54.0312 19.3633
v -10.7031 67.0156 8.0000
v 20.3086 34.4375 3.8203
v 26.0820 51.9453 -4.4727
v 29.9492 36.8555 -3.8867
v 30.3320 22.7852 -0.7969
v 22.3906 17.6914 9.9414
v 26.1094 10.2656 6.9844
v 26.1094 10.2656 6.9844
v 19.5859 -0.2461 19.8594
v 24.3828 15.4688 17.8320
v 25.1641 30.0664 17.5703
v 21.5352 46.6250 19.1680
v -10.6641 23.1875 -28.1484
v -18.9531 24.7188 -23.9453
v -18.6641 15.5547 -13.8867
v -11.3047 33.4336 -33.5195
v -19.7852 43.6992 -26.3945
v -10.5977 56.1133 -27.0273
v -18.7617 58.1797 -15.8359
v -26.7852 33.1914 -16.2930
v -26.2969 33.4336 0.0000
v -27.6094 40.9375 0.3867
v -26.0820 51.9453 -4.4727
v -20.3828 61.7539 0.0508
v -30.6992 39.8867 7.1680
v -25.1641 30.0664 17.5703
v -31.6445 28.8398 7.7969
v -24.3828 15.4688 17.8320
v -29.9219 18.3789 9.5547
v -29.9492 36.8555 -3.8867
v -30.3320 22.7852 -0.7969
v -26.1094 10.2656 6.9844
v -26.4062 9.5078 13.5430
v -26.0820 51.9453 -4.4727
v -20.3086 34.4375 3.8203
v -29.9492 36.8555 -3.8867
v -30.3320 22.7852 -0.7969
v -26.1094 10.2656 6.9844
v -22.3906 17.6914 9.9414
v -19.5859 -0.2461 19.8594
v -25.1641 30.0664 17.5703
v -24.3828 15.4688 17.8320
v -19.5859 -0.2461 19.8594
v -3.3555 8.9219 -52.1953
v 3.3555 8.9219 -52.1953
v 0.0000 -1.4727 -46.4609
v -6.7109 8.3359 -46.4102
v 0.0000 7.8633 -42.4375
v 6.7109 8.3359 -46.4102
v 5.1484 20.3125 -51.7188
v -5.1484 20.3125 -51.7188
v -9.4805 17.6602 -45.3633
v 0.0000 16.6016 -37.8594
v 9.4805 17.6602 -45.3633
v 4.7539 29.0742 -45.0547
v -4.7539 29.0742 -45.0547
v 0.0000 34.9180 -25.0625
v -25.9492 51.9492 -4.4570
v 4.1992 50.9180 29.2383
v 26.1094 10.2656 6.9844
v 26.4062 9.5078 13.5430
v 19.5859 -0.2461 19.8594
v 24.3828 15.4688 17.8320
f 1 2 3
f 7 2 1
f 7 1 44
f 43 7 44
f 43 44 5
f 43 5 45
f 68 43 45
f 68 45 23
f 68 23 63
f 68 63 67
f 43 68 67
f 67 69 43
f 69 67 74
f 71 69 74
f 70 69 71
f 70 71 72
f 72 71 73
f 73 77 72
f 73 76 77
f 75 76 73
f 73 71 75
f 75 71 74
f 4 5 6
f 4 22 5
f 20 22 4
f 20 21 22
f 32 21 20
f 26 21 32
f 33 21 26
f 26 25 33
f 25 26 24
f 31 25 24
f 24 19 31
f 19 24 17
f 15 19 17
f 17 18 15
f 17 27 18
f 24 27 17
f 27 24 30
f 29 27 30
f 27 29 28
f 18 27 28
f 15 18 16
f 14 15 16
f 14 19 15
f 14 60 19
f 14 57 60
f 14 16 57
f 59 57 16
f 58 57 59
f 58 59 64
f 61 58 64
f 60 58 61
f 61 31 60
f 61 62 31
f 62 61 63
f 63 33 62
f 63 23 33
f 33 23 21
f 22 21 23
f 45 22 23
f 5 22 45
f 5 44 6
f 1 6 44
f 3 6 1
f 103 6 3
f 6 103 4
f 4 103 36
f 36 20 4
f 35 20 36
f 34 35 36
f 34 37 35
f 34 38 37
f 37 38 39
f 37 39 40
f 30 37 40
f 30 35 37
f 35 30 32
f 32 20 35
f 32 30 26
f 24 26 30
f 8 9 10
f 9 8 11
f 11 8 12
f 8 13 12
f 13 8 56
f 46 56 8
f 56 46 55
f 50 55 46
f 46 49 50
f 48 49 46
f 46 47 48
f 47 46 8
f 8 10 79
f 102 8 79
f 78 102 79
f 78 79 80
f 80 79 81
f 81 79 83
f 82 81 83
f 83 84 82
f 84 83 86
f 85 86 83
f 83 79 85
f 79 10 85
f 41 42 39
f 42 41 104
f 104 41 105
f 104 105 106
f 105 107 106
f 41 107 105
f 41 39 107
f 107 39 38
f 40 39 42
f 50 49 51
f 52 53 50
f 53 54 50
f 54 55 50
f 19 60 31
f 57 58 60
f 64 59 65
f 64 65 66
f 66 67 64
f 64 67 61
f 67 63 61
f 31 62 25
f 25 62 33
f 7 43 69
f 7 69 70
f 87 77 76
f 72 77 87
f 88 89 90
f 91 88 90
f 92 91 90
f 93 92 90
f 89 93 90
f 89 98 93
f 94 98 89
f 89 88 94
f 94 88 95
f 94 95 99
f 94 99 98
f 99 101 98
f 100 101 99
f 99 95 100
f 95 96 100
f 88 96 95
f 91 96 88
f 91 97 96
f 92 97 91
f 93 97 92
f 98 97 93
f 101 97 98
f 96 97 101
f 101 100 96
