v 11.3047 22.5742 -29.8398
v 0.0000 22.0156 -31.3750
v 11.1016 36.8828 -33.4141
v 0.0000 37.0586 -35.1328
v 9.0156 6.6289 -22.0000
v 0.0000 -4.0000 -19.2461
v 0.0000 6.0000 -24.0000
v 16.6758 8.0000 -19.0000
v 19.7852 24.1953 -25.3828
v 23.1289 15.0000 -8.4883
v 14.0000 -4.0000 -16.0000
v 7.0000 0.0000 -19.6250
v 28.5469 33.4336 0.0000
v 26.1250 33.4336 -16.0000
v 19.7852 43.6992 -26.3945
v -9.0156 6.6289 -22.0000
v -11.3047 22.5742 -29.8398
v -11.1016 36.8828 -33.4141
v -14.0000 -4.0000 -16.0000
v -7.0000 0.0000 -19.6250
v -16.6758 8.0000 -19.0000
v -23.1289 15.0000 -8.4883
v -19.7852 24.1953 -25.3828
v -19.7891 43.6992 -26.3867
v -26.1250 33.4336 -16.0000
v 7.0000 0.0000 -19.6250
v 10.3125 7.5000 -10.7148
v 0.0000 -4.0000 -19.2461
v -10.3125 7.5000 -10.7148
v 14.0000 -4.0000 -16.0000
v 17.9727 14.2500 -8.3555
v 23.1289 15.0000 -8.4883
v -28.6406 33.4336 0.0000
v -7.0000 0.0000 -19.6250
v -14.0000 -4.0000 -16.0000
v 10.5977 50.0508 -30.5273
v 0.0000 50.9062 -32.1016
v 18.7617 58.1797 -15.8359
v 26.2383 44.0000 -14.0000
v 0.0000 62.0156 -22.7773
v 0.0000 68.1875 -9.8086
v 10.5977 60.6172 -21.6641
v 10.5977 66.4883 -9.3281
v 26.2617 48.6641 -0.2266
v 14.0664 63.8281 6.7852
v 14.5938 66.4414 9.0234
v 14.4570 61.9141 21.4062
v 13.9883 58.6406 19.1055
v 19.6992 60.2500 2.7383
v 27.0000 22.0000 8.0000
v 25.1289 38.5508 14.9766
v -10.5977 50.0508 -30.5273
v -18.7617 58.1797 -15.8359
v -26.2383 44.0000 -14.0000
v -10.5977 60.6172 -21.6641
v -10.5977 66.4883 -9.3281
v -13.4062 65.4219 4.9453
v -19.6992 60.2500 2.7383
v -22.0156 55.4062 13.6797
v -22.0156 55.4062 13.6797
v -26.2383 46.6797 12.7812
v -27.7578 44.4805 -0.7422
v -27.9883 33.4180 10.8984
v -27.0000 22.0000 8.0000
v -24.8789 38.0195 20.4375
v -26.2383 46.6797 12.7812
v -19.4492 54.0625 24.5195
v -8.4141 66.1484 16.1250
v -20.2773 32.0234 23.0938
v -13.0547 44.6289 30.4531
v -6.2852 56.2617 27.7461
v -1.5938 63.2695 22.3164
v -13.4062 65.4219 4.9453
v -4.2656 68.3828 8.4609
v 1.6562 68.1641 10.2617
v 0.0000 68.1875 -9.8086
v -10.5977 66.4883 -9.3281
v 0.0000 68.1875 -9.8086
v -6.2852 56.2617 27.7461
v -9.5664 42.6953 30.0000
v -1.7344 50.9102 34.5977
v -6.4297 38.6406 33.6289
v -1.8164 35.5391 30.8828
v 6.0586 45.7461 31.6055
v -10.5391 26.8828 27.0586
v -1.5938 63.2695 22.3164
v 4.9805 62.3906 26.9336
v 1.6562 68.1641 10.2617
v 9.2852 67.9453 14.3594
v 10.0703 68.8906 4.0508
v 0.0000 68.1875 -9.8086
v 10.5977 66.4883 -9.3281
v 10.5977 66.4883 -9.3281
v 14.5938 66.4414 9.0234
v -6.2852 56.2617 27.7461
v -6.2344 46.7852 20.8477
v -9.5664 42.6953 30.0000
v -10.5391 26.8828 27.0586
v -8.8281 31.0195 23.0977
v -5.1875 51.2695 19.8477
v -1.8164 35.5391 30.8828
v -10.5391 26.8828 27.0586
v 13.9883 58.6406 19.1055
v 6.0586 45.7461 31.6055
v 11.5234 54.9180 27.9531
v 21.4023 49.4453 17.9492
v 14.0664 63.8281 6.7852
v 13.9883 58.6406 19.1055
v 24.9102 33.0742 0.0000
v 28.5469 33.4336 0.0000
v 20.5000 27.0000 4.0000
v 27.0000 22.0000 8.0000
v -27.0000 22.0000 8.0000
v -28.6406 33.4336 0.0000
v -20.5000 27.0000 4.0000
v -24.9805 33.0742 0.0000
v -5.1875 51.2695 19.8477
v -6.2852 56.2617 27.7461
v -13.0547 44.6289 30.4531
v -20.2773 32.0234 23.0938
v -20.5000 27.0000 4.0000
v -27.0000 22.0000 8.0000
v 25.1289 38.5508 14.9766
v 21.4023 49.4453 17.9492
v 18.9844 45.8477 12.7344
v 10.3633 56.7031 14.8242
v 13.9883 58.6406 19.1055
v 20.5000 27.0000 4.0000
v 27.0000 22.0000 8.0000
v -17.9727 14.2500 -8.3555
v -24.9805 33.0742 0.0000
v -23.1289 15.0000 -8.4883
v -28.6406 33.4336 0.0000
v 28.5469 33.4336 0.0000
v 24.9102 33.0742 0.0000
v -8.8281 31.0195 23.0977
v 10.3633 56.7031 14.8242
v 11.5234 54.9180 27.9531
v 14.4570 61.9141 21.4062
v -10.5391 26.8828 27.0586
f 1 2 3
f 1 3 9
f 8 1 9
f 8 9 10
f 8 10 11
f 11 5 8
f 11 12 5
f 12 6 5
f 5 6 7
f 5 7 1
f 8 5 1
f 1 7 2
f 7 17 2
f 16 17 7
f 6 16 7
f 20 16 6
f 19 16 20
f 19 21 16
f 22 21 19
f 21 22 23
f 17 21 23
f 17 23 18
f 2 17 18
f 4 2 18
f 3 2 4
f 3 4 36
f 3 36 15
f 9 3 15
f 9 15 14
f 9 14 10
f 13 10 14
f 14 39 13
f 15 39 14
f 38 39 15
f 15 36 38
f 36 42 38
f 36 37 42
f 4 37 36
f 4 52 37
f 18 52 4
f 18 24 52
f 23 24 18
f 23 25 24
f 23 22 25
f 33 25 22
f 25 33 54
f 24 25 54
f 53 24 54
f 53 52 24
f 55 52 53
f 55 53 56
f 56 41 55
f 55 41 40
f 55 40 37
f 52 55 37
f 42 37 40
f 40 41 42
f 42 41 43
f 42 43 38
f 38 43 49
f 49 44 38
f 44 49 106
f 51 44 106
f 13 44 51
f 13 39 44
f 38 44 39
f 17 16 21
f 26 27 28
f 26 30 27
f 27 30 31
f 130 27 31
f 29 27 130
f 28 27 29
f 28 29 34
f 34 29 35
f 130 35 29
f 132 35 130
f 130 131 132
f 132 131 133
f 32 31 30
f 32 135 31
f 134 135 32
f 45 43 46
f 46 47 45
f 45 47 48
f 103 47 105
f 103 105 104
f 104 101 103
f 101 102 103
f 102 136 103
f 103 136 137
f 50 13 51
f 57 58 59
f 56 58 57
f 53 58 56
f 58 53 62
f 61 58 62
f 60 58 61
f 62 63 61
f 33 63 62
f 63 33 64
f 65 63 64
f 63 65 66
f 65 67 66
f 65 70 67
f 69 70 65
f 64 69 65
f 33 62 54
f 53 54 62
f 66 67 59
f 67 68 59
f 67 71 68
f 70 71 67
f 68 71 72
f 75 68 72
f 74 68 75
f 73 68 74
f 74 77 73
f 76 77 74
f 75 78 74
f 68 57 59
f 79 80 81
f 87 79 81
f 86 79 87
f 89 86 87
f 88 86 89
f 89 90 88
f 94 90 89
f 93 90 94
f 88 90 91
f 91 90 92
f 81 80 82
f 84 81 82
f 83 84 82
f 82 85 83
f 82 80 140
f 95 96 97
f 96 95 100
f 96 99 97
f 98 97 99
f 107 108 49
f 49 43 107
f 108 106 49
f 109 110 111
f 111 110 112
f 113 114 115
f 115 114 116
f 117 118 119
f 119 120 117
f 117 120 121
f 122 121 120
f 123 124 125
f 125 128 123
f 123 128 129
f 125 124 126
f 124 127 126
f 84 138 81
f 81 138 87
f 138 139 87
f 87 139 89
f 139 94 89
