v 21.8320 30.0039 -28.5000
v 11.9219 26.4453 -37.3594
v 11.2695 33.4414 -35.9531
v 0.0000 33.4336 -37.7305
v 0.0000 26.4258 -39.2422
v 27.3750 37.1680 -15.9766
v 29.2852 23.2383 -16.8438
v 30.0469 28.4844 -2.0000
v 28.3828 41.3477 2.0977
v 0.0000 57.3359 -28.6055
v 0.0000 65.5469 -18.8203
v 10.8047 56.1797 -27.2266
v 10.8359 63.9883 -17.9219
v 10.6211 45.6562 -33.3047
v 0.0000 46.2734 -34.9961
v 10.6172 67.4531 -6.3828
v 0.0000 68.8125 -6.6875
v 20.4570 60.3984 -11.2773
v 20.7969 62.9492 3.0820
v 25.2773 51.7539 -9.0273
v 19.6680 48.3711 -24.6602
v 12.3398 67.5352 3.9180
v 0.0000 68.6641 4.0000
v 29.8438 14.0508 -8.6250
v 0.0000 2.6992 -26.5000
v 16.5156 5.6289 -21.6641
v 9.0664 13.0703 -12.8789
v 18.1367 23.4453 0.7422
v 29.8438 14.0508 -8.6250
v 32.9961 23.0859 3.2031
v 27.9336 18.0859 6.3516
v 29.8438 14.0508 -8.6250
v 30.0469 28.4844 -2.0000
v 18.1172 39.7031 23.4062
v 21.8906 28.0820 19.5742
v 25.9414 41.5820 20.7617
v 27.8633 32.4688 17.5625
v 31.2031 39.0391 12.0000
v 11.9961 63.4180 14.8516
v 23.7734 53.0000 19.3555
v 19.0898 62.9414 11.9492
v 8.8828 58.4219 18.8125
v 15.3164 52.7266 21.7383
v 0.0000 64.2188 13.8906
v 0.0000 64.2188 13.8906
v 3.6250 56.0664 11.2617
v 8.8828 58.4219 18.8125
v 18.1250 31.5742 12.0742
v 15.3164 52.7266 21.7383
v 18.1172 39.7031 23.4062
v 26.9570 53.2227 12.3281
v 21.8906 28.0820 19.5742
v 27.9336 18.0859 6.3516
v 22.3633 16.6484 -28.1758
v 16.5156 5.6289 -21.6641
v 11.1406 7.5586 -33.0859
v 0.0000 7.5547 -34.8672
v 0.0000 2.6992 -26.5000
v 26.0625 53.4609 3.3203
v 11.9961 16.5586 -36.5586
v 0.0000 16.5391 -38.4609
v -21.8320 30.0039 -28.5000
v -11.2695 33.4414 -35.9531
v -11.9219 26.4453 -37.3594
v -27.3750 37.1680 -15.9766
v -29.2852 23.2383 -16.8438
v -30.0469 28.4844 -2.0000
v -28.3828 41.3477 2.0977
v -10.8047 56.1797 -27.2266
v -10.8359 63.9883 -17.9219
v -10.6211 45.6562 -33.3047
v -10.6172 67.4531 -6.3828
v -20.4570 60.3984 -11.2773
v -25.2773 51.7539 -9.0273
v -20.7969 62.9492 3.0820
v -19.6680 48.3711 -24.6602
v -12.3398 67.5352 3.9180
v -29.8438 14.0508 -8.6250
v -9.0664 13.0703 -12.8789
v -16.5156 5.6289 -21.6641
v -18.1367 23.4453 0.7422
v -29.8438 14.0508 -8.6250
v -32.9961 23.0859 3.2031
v -29.8438 14.0508 -8.6250
v -27.9336 18.0859 6.3516
v -30.0469 28.4844 -2.0000
v -18.1172 39.7031 23.4062
v -25.9414 41.5820 20.7617
v -21.8906 28.0820 19.5742
v -27.8633 32.4688 17.5625
v -11.9961 63.4180 14.8516
v -19.0898 62.9414 11.9492
v -23.7734 53.0000 19.3555
v -8.8828 58.4219 18.8125
v -15.3164 52.7266 21.7383
v -26.9570 53.2227 12.3281
v -18.1250 31.5742 12.0742
v -21.8906 28.0820 19.5742
v -18.1172 39.7031 23.4062
v -27.9336 18.0859 6.3516
v -16.5156 5.6289 -21.6641
v -22.3633 16.6484 -28.1758
v -11.1406 7.5586 -33.0859
v -31.2031 39.0391 12.0000
v -8.8828 58.4219 18.8125
v -3.6250 56.0664 11.2617
v -15.3164 52.7266 21.7383
v -26.0625 53.4609 3.3203
v -11.9961 16.5586 -36.5586
f 1 2 3
f 1 3 14
f 1 14 21
f 21 6 1
f 6 21 20
f 9 6 20
f 8 6 9
f 8 7 6
f 8 24 7
f 7 24 54
f 1 7 54
f 6 7 1
f 54 2 1
f 60 2 54
f 5 2 60
f 5 4 2
f 5 64 4
f 5 109 64
f 61 109 5
f 61 5 60
f 61 60 56
f 57 61 56
f 57 56 58
f 57 58 103
f 57 103 61
f 61 103 109
f 109 103 102
f 109 102 64
f 102 62 64
f 62 102 66
f 65 62 66
f 67 65 66
f 67 68 65
f 68 74 65
f 108 74 68
f 74 108 75
f 73 74 75
f 73 76 74
f 69 76 73
f 69 73 70
f 11 69 70
f 10 69 11
f 10 11 12
f 12 14 10
f 14 12 21
f 18 21 12
f 18 20 21
f 18 19 20
f 19 18 16
f 19 16 22
f 41 19 22
f 41 22 39
f 39 40 41
f 39 43 40
f 42 43 39
f 42 39 44
f 22 44 39
f 44 22 23
f 44 23 77
f 77 91 44
f 92 91 77
f 91 92 93
f 91 93 95
f 94 91 95
f 94 44 91
f 3 2 4
f 4 15 3
f 4 63 15
f 63 4 64
f 62 63 64
f 62 71 63
f 62 76 71
f 76 62 65
f 65 74 76
f 71 76 69
f 69 10 71
f 71 10 15
f 63 71 15
f 14 15 10
f 3 15 14
f 11 13 12
f 13 11 17
f 16 13 17
f 17 23 16
f 17 72 23
f 72 17 70
f 72 70 73
f 72 73 75
f 72 75 77
f 77 23 72
f 92 77 75
f 75 96 92
f 108 96 75
f 96 108 104
f 96 104 93
f 96 93 92
f 88 87 93
f 87 88 89
f 90 89 88
f 89 90 85
f 85 90 83
f 83 84 85
f 86 84 83
f 68 86 83
f 68 83 104
f 104 108 68
f 104 90 88
f 88 93 104
f 93 87 95
f 18 12 13
f 13 16 18
f 22 16 23
f 25 26 27
f 27 79 25
f 79 80 25
f 79 81 80
f 81 82 80
f 81 100 82
f 81 98 100
f 81 97 98
f 98 97 99
f 107 99 97
f 105 107 97
f 106 105 97
f 45 105 106
f 45 106 46
f 45 46 47
f 46 48 47
f 47 48 49
f 49 48 50
f 50 48 52
f 52 48 28
f 52 28 53
f 53 28 29
f 28 26 29
f 28 27 26
f 30 31 32
f 33 30 32
f 9 30 33
f 9 38 30
f 38 9 59
f 51 38 59
f 51 40 38
f 51 41 40
f 19 41 51
f 59 19 51
f 20 19 59
f 59 9 20
f 34 35 36
f 36 40 34
f 36 38 40
f 37 38 36
f 37 36 35
f 31 37 35
f 30 37 31
f 30 38 37
f 54 24 55
f 55 56 54
f 58 56 55
f 58 101 103
f 102 103 101
f 101 78 102
f 78 66 102
f 67 66 78
f 40 43 34
f 60 54 56
f 70 17 11
f 83 90 104
