v -20.7305 41.6016 17.1953
v -23.1719 30.0781 17.8438
v -19.6680 39.0625 20.8242
v -11.8867 34.8242 24.0078
v -13.6641 39.5859 24.0469
v -13.5781 58.2383 16.7070
v -14.7070 48.2656 21.5742
v -8.3281 56.7969 20.5625
v -1.7148 51.5352 24.5039
v 0.0000 62.6758 17.2227
v 6.0977 59.3555 19.0586
v -0.7188 41.7344 25.4922
v 8.3672 50.0273 23.2617
v 13.5781 58.2383 16.7070
v -23.1719 30.0781 17.8438
v 5.3281 51.6094 2.2031
v -11.8867 34.8242 24.0078
v -0.7188 41.7344 25.4922
v 13.5781 58.2383 16.7070
v 8.3672 50.0273 23.2617
v -20.7305 41.6016 17.1953
v -5.3281 51.6094 2.2031
v -29.5195 26.6406 8.3242
v -20.7305 41.6016 17.1953
v -24.9062 42.7266 8.7578
v -22.5195 19.2109 17.8125
v -26.8203 40.4922 -1.5898
v -27.3867 36.8125 -4.1133
v -30.5664 24.5195 -4.0898
v -22.5195 19.2109 17.8125
v -15.6523 14.6406 3.5469
v -20.7305 41.6016 17.1953
v -5.3281 51.6094 2.2031
v -12.5039 -0.8789 10.1562
v -34.3281 12.4023 9.0703
v -20.7812 2.5977 20.4844
v -32.3281 8.6875 -2.6523
v -17.6523 14.6406 -0.0977
v -21.2930 -0.6484 0.1055
v -20.7812 2.5977 20.4844
v -34.7070 1.5039 11.1758
v -31.3711 -1.0469 1.7969
v -14.4922 -16.5312 19.1953
v -29.8438 -8.2930 14.9766
v -14.4922 -16.5312 19.1953
v -32.3281 8.6875 -2.6523
v -31.3711 -1.0469 1.7969
v -24.9531 -11.1172 9.2227
v -17.7227 57.6602 11.3828
v -13.5781 58.2383 16.7070
v 0.0000 9.6211 -39.2266
v 0.0000 -8.2773 -35.9688
v -17.1680 3.6367 -32.4922
v 0.0000 -16.4297 -24.8281
v -21.1133 -9.1484 -16.6523
v -29.0078 6.0156 -18.7305
v -25.9453 26.7500 -16.1562
v -11.3984 34.1562 -31.6953
v 0.0000 33.5469 -34.3477
v -11.3242 31.6172 -31.2695
v 0.0000 30.6719 -34.4219
v -24.6250 37.2383 -17.0586
v -18.5078 33.1367 -25.0039
v -19.3555 35.5977 -24.9492
v -22.1953 14.5000 -27.7539
v -11.1055 23.0000 -33.3984
v -21.1133 -9.1484 -16.6523
v -24.9531 -11.1172 9.2227
v 29.5195 26.6406 8.3242
v 20.7305 41.6016 17.1953
v 22.5195 19.2109 17.8125
v 27.3867 36.8125 -4.1133
v 30.5664 24.5195 -4.0898
v 15.6523 14.6406 3.5469
v 20.7305 41.6016 17.1953
v 22.5195 19.2109 17.8125
v 20.7812 2.5977 20.4844
v 12.5039 -0.8789 10.1562
v 34.3281 12.4023 9.0703
v 20.7812 2.5977 20.4844
v 32.3281 8.6875 -2.6523
v 17.6523 14.6406 -0.0977
v 21.2930 -0.6484 0.1055
v 34.7070 1.5039 11.1758
v 31.3711 -1.0469 1.7969
v 14.4922 -16.5312 19.1953
v 29.8438 -8.2930 14.9766
v 14.4922 -16.5312 19.1953
v 32.3281 8.6875 -2.6523
v 31.3711 -1.0469 1.7969
v 24.9531 -11.1172 9.2227
v 24.9062 42.7266 8.7578
v 13.5781 58.2383 16.7070
v 17.7227 57.6602 11.3828
v 17.1680 3.6367 -32.4922
v 21.1133 -9.1484 -16.6523
v 29.0078 6.0156 -18.7305
v 25.9453 26.7500 -16.1562
v 11.3242 31.6172 -31.2695
v 11.1055 23.0000 -33.3984
v 19.3555 35.5977 -24.9492
v 18.5078 33.1367 -25.0039
v 11.3984 34.1562 -31.6953
v 24.6250 37.2383 -17.0586
v 26.8203 40.4922 -1.5898
v 22.1953 14.5000 -27.7539
v 0.0000 -16.4297 -24.8281
v 24.9531 -11.1172 9.2227
v 21.1133 -9.1484 -16.6523
f 1 2 3
f 7 1 3
f 6 1 7
f 8 6 7
f 8 7 9
f 11 8 9
f 10 8 11
f 9 13 11
f 12 13 9
f 5 12 9
f 9 7 5
f 7 3 5
f 3 2 5
f 4 5 2
f 4 12 5
f 14 11 13
f 15 16 17
f 15 22 16
f 21 22 15
f 16 18 17
f 16 20 18
f 16 19 20
f 75 19 16
f 16 74 75
f 74 76 75
f 76 74 78
f 77 76 78
f 86 77 78
f 83 86 78
f 82 83 78
f 74 82 78
f 89 83 82
f 89 90 83
f 90 91 83
f 86 83 91
f 23 24 25
f 23 26 24
f 23 35 26
f 23 29 35
f 28 29 23
f 25 28 23
f 27 28 25
f 28 27 62
f 28 62 57
f 57 29 28
f 29 57 37
f 29 37 35
f 41 35 37
f 35 41 36
f 35 36 26
f 44 36 41
f 36 44 45
f 44 68 45
f 44 42 68
f 44 41 42
f 41 37 42
f 37 57 56
f 55 37 56
f 55 56 53
f 55 53 52
f 54 55 52
f 54 52 96
f 96 52 95
f 97 96 95
f 96 97 81
f 81 97 98
f 73 81 98
f 73 79 81
f 69 79 73
f 72 69 73
f 98 72 73
f 72 98 104
f 104 105 72
f 105 92 72
f 72 92 69
f 69 92 70
f 69 70 71
f 69 71 79
f 79 71 80
f 79 80 84
f 84 81 79
f 84 85 81
f 85 84 87
f 85 87 108
f 87 88 108
f 80 88 87
f 87 84 80
f 30 31 32
f 31 30 34
f 31 34 38
f 38 34 39
f 46 38 39
f 46 39 47
f 47 39 48
f 43 48 39
f 39 34 43
f 43 34 40
f 34 30 40
f 32 31 33
f 25 24 49
f 49 24 50
f 51 52 53
f 66 51 53
f 66 53 65
f 66 65 63
f 66 63 60
f 60 61 66
f 60 59 61
f 58 59 60
f 60 63 58
f 58 63 64
f 63 62 64
f 62 63 57
f 57 63 65
f 56 57 65
f 56 65 53
f 46 67 38
f 67 107 38
f 38 107 82
f 107 109 82
f 82 109 89
f 93 70 94
f 70 92 94
f 51 95 52
f 100 95 51
f 61 100 51
f 99 100 61
f 99 102 100
f 103 102 99
f 101 102 103
f 102 101 104
f 104 98 102
f 98 106 102
f 106 98 97
f 106 97 95
f 100 106 95
f 100 102 106
f 66 61 51
f 59 99 61
f 103 99 59
