v -20.6992 61.3320 3.0820
v -10.7656 63.9688 17.6133
v -10.5000 67.3672 -0.0820
v -11.5586 33.6914 -35.8906
v -10.5977 50.8086 -30.0898
v 0.0000 33.6914 -38.1562
v 0.0000 51.7773 -31.7070
v 0.0000 68.9102 -0.2383
v 0.0000 65.5625 -18.5469
v -10.5977 63.9922 -17.6406
v 0.0000 65.1328 18.0938
v -21.6328 45.3320 -26.1484
v -23.7539 14.7422 -29.5234
v -29.3164 33.6914 -17.5312
v -20.5742 58.2266 -16.1328
v -29.0156 42.4609 -3.0977
v -18.9805 -3.3438 -20.8906
v -23.0781 23.3359 -3.7812
v -29.7422 7.6875 -10.1133
v -33.3750 24.7734 -3.8828
v 0.0000 -6.5000 -28.3008
v -9.8555 -6.0000 -26.4922
v -12.3477 21.0000 -36.6211
v -33.3750 24.7734 -3.8828
v -31.1094 11.1836 -16.7500
v -11.9414 7.5000 -35.1953
v 0.0000 7.5000 -37.1797
v 0.0000 21.0000 -38.7812
v -18.9805 -3.3438 -20.8906
v -9.8555 -6.0000 -26.4922
v -22.9219 21.6016 7.6719
v -28.1914 20.1016 18.5078
v -21.3125 9.2930 13.3867
v -26.2734 10.1016 19.8398
v -17.5586 -1.6289 22.1289
v -17.5586 -1.6289 22.1289
v -26.2734 10.1016 19.8398
v -29.7305 1.9883 15.3984
v -28.1914 20.1016 18.5078
v -37.2656 18.0898 8.5352
v -27.2656 29.5586 17.9688
v -23.1211 43.6680 19.1719
v -22.3164 9.5938 4.4375
v -28.8047 46.6445 8.8711
v -23.0000 56.4531 12.6836
v -35.5781 27.2422 7.3516
v -33.2695 10.9922 1.4102
v -10.7852 40.2734 28.5547
v 0.0000 40.3242 29.9453
v -10.8477 53.6758 25.9141
v 0.0000 54.7969 27.0938
v -18.1875 54.9336 21.3711
v -19.5156 40.2383 22.0273
v -16.7773 43.1406 7.1406
v -18.1875 54.9336 21.3711
v -23.1211 43.6680 19.1719
v 0.0000 40.3242 29.9453
v -10.7852 40.2734 28.5547
v 0.0000 47.7305 12.3203
v -19.5156 40.2383 22.0273
v -29.7422 7.6875 -10.1133
v -28.8828 3.4102 8.5352
v -28.8828 3.4102 8.5352
v -33.2695 10.9922 1.4102
v -35.3867 7.8789 11.0312
v -27.2656 29.5586 17.9688
v 20.6992 61.3320 3.0820
v 10.5000 67.3672 -0.0820
v 10.7656 63.9688 17.6133
v 11.5586 33.6914 -35.8906
v 10.5977 50.8086 -30.0898
v 10.5977 63.9922 -17.6406
v 21.6328 45.3320 -26.1484
v 29.3164 33.6914 -17.5312
v 23.7539 14.7422 -29.5234
v 20.5742 58.2266 -16.1328
v 29.0156 42.4609 -3.0977
v 18.9805 -3.3438 -20.8906
v 29.7422 7.6875 -10.1133
v 23.0781 23.3359 -3.7812
v 33.3750 24.7734 -3.8828
v 9.8555 -6.0000 -26.4922
v 12.3477 21.0000 -36.6211
v 33.3750 24.7734 -3.8828
v 31.1094 11.1836 -16.7500
v 11.9414 7.5000 -35.1953
v 18.9805 -3.3438 -20.8906
v 9.8555 -6.0000 -26.4922
v 22.9219 21.6016 7.6719
v 21.3125 9.2930 13.3867
v 28.1914 20.1016 18.5078
v 26.2734 10.1016 19.8398
v 17.5586 -1.6289 22.1289
v 17.5586 -1.6289 22.1289
v 29.7305 1.9883 15.3984
v 26.2734 10.1016 19.8398
v 28.1914 20.1016 18.5078
v 37.2656 18.0898 8.5352
v 27.2656 29.5586 17.9688
v 23.1211 43.6680 19.1719
v 22.3164 9.5938 4.4375
v 28.8047 46.6445 8.8711
v 23.0000 56.4531 12.6836
v 35.5781 27.2422 7.3516
v 33.2695 10.9922 1.4102
v 10.7852 40.2734 28.5547
v 10.8477 53.6758 25.9141
v 18.1875 54.9336 21.3711
v 19.5156 40.2383 22.0273
v 16.7773 43.1406 7.1406
v 18.1875 54.9336 21.3711
v 23.1211 43.6680 19.1719
v 10.7852 40.2734 28.5547
v 19.5156 40.2383 22.0273
v 29.7422 7.6875 -10.1133
v 28.8828 3.4102 8.5352
v 28.8828 3.4102 8.5352
v 35.3867 7.8789 11.0312
v 33.2695 10.9922 1.4102
v 27.2656 29.5586 17.9688
v 0.0000 -6.5000 -28.3008
f 1 2 3
f 15 1 3
f 10 15 3
f 9 10 3
f 8 9 3
f 3 2 8
f 2 11 8
f 11 2 51
f 11 51 69
f 11 69 8
f 8 69 68
f 68 9 8
f 72 9 68
f 72 68 76
f 72 76 71
f 7 72 71
f 71 6 7
f 70 6 71
f 73 70 71
f 71 76 73
f 73 76 74
f 73 74 75
f 70 73 75
f 70 75 83
f 83 28 70
f 28 83 27
f 27 23 28
f 26 23 27
f 26 13 23
f 26 29 13
f 30 29 26
f 30 26 121
f 121 26 27
f 27 86 121
f 27 83 86
f 75 86 83
f 75 87 86
f 75 85 87
f 85 75 74
f 84 85 74
f 84 74 77
f 77 104 84
f 102 104 77
f 77 67 102
f 77 76 67
f 77 74 76
f 76 68 67
f 67 68 69
f 103 67 69
f 102 67 103
f 102 103 112
f 120 102 112
f 104 102 120
f 120 97 104
f 97 98 104
f 97 96 98
f 98 96 118
f 98 118 119
f 119 84 98
f 104 98 84
f 84 115 85
f 87 85 115
f 87 88 86
f 121 86 88
f 4 5 6
f 12 5 4
f 5 12 15
f 10 5 15
f 7 5 10
f 5 7 6
f 9 7 10
f 9 72 7
f 12 13 14
f 12 14 15
f 16 15 14
f 16 1 15
f 16 44 1
f 44 16 46
f 66 44 46
f 56 44 66
f 44 56 45
f 44 45 1
f 45 2 1
f 52 2 45
f 52 50 2
f 50 52 53
f 48 50 53
f 48 49 50
f 49 51 50
f 49 107 51
f 106 107 49
f 106 109 107
f 107 109 108
f 108 69 107
f 108 103 69
f 112 103 108
f 4 13 12
f 4 23 13
f 23 4 28
f 4 6 28
f 70 28 6
f 17 18 19
f 18 17 22
f 21 18 22
f 21 80 18
f 21 82 80
f 80 82 78
f 78 79 80
f 80 79 81
f 81 105 80
f 80 105 101
f 89 80 101
f 101 90 89
f 101 93 90
f 101 116 93
f 116 101 105
f 18 20 19
f 20 18 47
f 18 43 47
f 31 43 18
f 43 31 33
f 43 33 35
f 43 35 62
f 62 47 43
f 24 16 14
f 46 16 24
f 46 24 40
f 39 46 40
f 39 40 37
f 40 65 37
f 40 64 65
f 64 40 24
f 63 65 64
f 38 65 63
f 36 38 63
f 36 37 38
f 65 38 37
f 25 14 13
f 24 14 25
f 24 25 61
f 29 61 25
f 13 29 25
f 31 32 33
f 32 31 41
f 31 42 41
f 42 31 54
f 54 55 42
f 55 54 60
f 59 60 54
f 58 60 59
f 57 58 59
f 57 59 113
f 113 59 114
f 59 110 114
f 111 114 110
f 110 100 111
f 100 110 89
f 89 99 100
f 91 99 89
f 89 90 91
f 91 90 92
f 93 92 90
f 32 34 33
f 35 33 34
f 2 50 51
f 69 51 107
f 18 54 31
f 56 52 45
f 66 46 39
f 94 95 96
f 94 117 95
f 118 95 117
f 117 119 118
f 118 96 95
f 80 89 110
