v 26.0625 24.0000 7.0000
v 28.0000 30.0000 -2.0000
v 26.0312 33.0000 8.0000
v 10.5977 63.9922 -17.6406
v 0.0000 65.5625 -18.5469
v 10.5977 67.4883 -6.0039
v 0.0000 69.2383 -6.3125
v 0.0000 46.1250 -34.8594
v 10.5977 45.5039 -33.1562
v 0.0000 33.4336 -35.2422
v 11.3047 33.4336 -33.5195
v 10.6641 19.6953 -25.1328
v 0.0000 22.6602 -29.5977
v 0.0000 9.6289 -19.1055
v 18.6641 15.5547 -13.8867
v 18.6641 24.7188 -23.9453
v 0.0000 69.2266 2.6641
v 10.6172 67.2266 2.6641
v 19.7227 61.3281 2.0000
v 19.9375 60.2344 -4.9883
v 26.0000 51.0000 1.0000
v 26.5898 49.0000 -7.0000
v 19.4805 58.1797 -15.8359
v 25.4375 44.2617 -12.9023
v 19.7852 43.6992 -26.3945
v 10.5977 56.1133 -27.0273
v 0.0000 57.2812 -28.4180
v 26.1250 33.4336 -16.0000
v 28.0000 39.0000 -1.0000
v 24.0000 21.9062 -9.0234
v 17.6992 59.4961 4.5898
v 10.0000 64.5781 5.4883
v 0.0000 66.1797 5.7734
v 0.0000 33.0039 3.0703
v 28.0000 30.0000 -2.0000
v 26.0625 24.0000 7.0000
v 24.0000 21.9062 -9.0234
v 23.4766 52.2578 6.0000
v 26.0312 33.0000 8.0000
v 26.1211 42.0000 8.0000
v 26.1211 42.0000 8.0000
v 23.4766 52.2578 6.0000
v 17.6992 59.4961 4.5898
v -26.0625 24.0000 7.0000
v -26.0312 33.0000 8.0000
v -28.0000 30.0000 -2.0000
v -10.5977 63.9922 -17.6406
v -10.5977 67.4883 -6.0039
v -10.5977 45.5039 -33.1562
v -11.3047 33.4336 -33.5195
v -10.6641 23.1875 -28.1484
v -18.6641 15.5547 -13.8867
v -18.6641 24.7188 -23.9453
v -10.6172 67.2266 2.6641
v -19.7227 61.3281 2.0000
v -19.9375 60.2344 -4.9883
v -26.0000 51.0000 1.0000
v -26.5898 49.0000 -7.0000
v -19.4805 58.1797 -15.8359
v -19.7852 43.6992 -26.3945
v -25.4375 44.2617 -12.9023
v -10.5977 56.1133 -27.0273
v -26.1250 33.4336 -16.0000
v -28.0000 39.0000 -1.0000
v -24.0000 21.9062 -9.0234
v -17.6992 59.4961 4.5898
v -10.0000 64.5781 5.4883
v 0.0000 33.0039 3.0703
v -26.0625 24.0000 7.0000
v -28.0000 30.0000 -2.0000
v -24.0000 21.9062 -9.0234
v -23.4766 52.2578 6.0000
v -26.0312 33.0000 8.0000
v -26.1211 42.0000 8.0000
v -23.4766 52.2578 6.0000
v -26.1211 42.0000 8.0000
v -17.6992 59.4961 4.5898
v 18.6641 15.5547 -13.8867
v -18.6641 15.5547 -13.8867
f 1 2 3
f 29 3 2
f 28 29 2
f 30 28 2
f 30 15 28
f 15 16 28
f 15 12 16
f 14 12 15
f 13 12 14
f 12 13 11
f 12 11 16
f 11 25 16
f 11 9 25
f 9 11 10
f 8 9 10
f 9 8 26
f 9 26 25
f 26 23 25
f 26 4 23
f 27 4 26
f 5 4 27
f 4 5 6
f 4 6 20
f 23 4 20
f 20 22 23
f 21 22 20
f 19 21 20
f 19 20 6
f 18 19 6
f 18 6 7
f 17 18 7
f 18 17 32
f 31 18 32
f 31 19 18
f 38 19 31
f 38 21 19
f 40 21 38
f 40 29 21
f 40 3 29
f 22 21 29
f 22 29 24
f 23 22 24
f 23 24 25
f 25 24 28
f 25 28 16
f 24 29 28
f 5 7 6
f 5 48 7
f 47 48 5
f 48 47 56
f 55 48 56
f 54 48 55
f 54 7 48
f 17 7 54
f 67 17 54
f 54 66 67
f 54 55 66
f 72 66 55
f 72 55 57
f 74 72 57
f 74 57 64
f 74 64 45
f 64 46 45
f 63 46 64
f 65 46 63
f 65 63 52
f 52 63 53
f 51 52 53
f 14 52 51
f 13 14 51
f 51 50 13
f 51 53 50
f 50 53 60
f 50 60 49
f 49 10 50
f 8 10 49
f 49 62 8
f 49 60 62
f 62 60 59
f 62 59 47
f 27 62 47
f 5 27 47
f 8 27 26
f 8 62 27
f 13 10 11
f 13 50 10
f 17 33 32
f 33 17 67
f 34 35 36
f 34 37 35
f 78 37 34
f 36 39 34
f 34 39 41
f 34 41 42
f 42 43 34
f 44 45 46
f 55 56 57
f 57 56 58
f 58 64 57
f 58 61 64
f 59 61 58
f 56 59 58
f 56 47 59
f 59 60 61
f 60 63 61
f 60 53 63
f 61 63 64
f 68 69 70
f 68 70 71
f 71 79 68
f 69 68 73
f 68 76 73
f 68 75 76
f 75 68 77
