v 0.0000 50.9062 -32.1016
v 10.5977 50.0508 -30.5273
v 0.0000 33.4375 -35.3750
v 11.3047 33.4336 -33.5195
v 10.5977 60.6172 -21.6641
v 0.0000 62.0156 -22.7773
v 10.5977 66.4883 -9.3281
v 0.0000 68.1875 -9.8086
v 0.0000 70.1328 4.8398
v 10.0312 67.9648 4.8398
v 19.7852 43.6992 -26.3945
v 20.5898 33.4375 -26.0977
v 18.7617 58.1797 -15.8359
v 25.4375 47.0000 -14.0000
v 26.1250 33.4336 -16.0000
v 27.1094 47.8359 -3.6680
v 29.2812 30.0000 -2.0000
v 17.9023 12.4961 -23.0000
v 25.4844 12.5000 -5.5820
v 9.7188 2.1641 -26.0000
v 0.0000 12.5000 -31.0000
v 19.2656 -7.0000 -20.4102
v 0.0000 -7.5000 -30.0000
v 19.9766 61.0000 0.0000
v 30.1406 33.4375 4.8398
v 27.7891 14.5156 4.8398
v 29.3828 42.7188 4.8398
v 26.9180 52.3594 4.8398
v 0.0000 68.5430 14.1836
v 9.6562 67.3750 13.2695
v 27.9883 33.4375 12.9062
v 26.8398 42.7188 14.1562
v 22.0781 50.6484 19.0078
v 26.0508 51.6094 13.6562
v 19.8438 62.0000 9.1992
v 0.0000 -7.5000 -30.0000
v 15.5000 5.8281 -9.0859
v -15.5000 5.8281 -9.0859
v 25.4844 12.5000 -5.5820
v 11.6250 11.8789 -6.4805
v 9.7188 2.1641 -26.0000
v 19.2656 -7.0000 -20.4102
v 20.6016 58.0859 17.8281
v 11.5195 58.4258 24.2422
v 16.7070 55.4219 22.3281
v 13.0352 63.8945 21.1797
v 22.0781 50.6484 19.0078
v 16.5156 53.5156 15.7109
v 26.8398 42.7188 14.1562
v 27.9883 33.4375 12.9062
v 6.0586 65.2617 22.1562
v 0.0000 57.0625 22.8242
v 0.0000 55.0391 20.4883
v 5.2148 59.1406 24.4922
v 6.5469 56.1719 18.7930
v 11.5195 58.4258 24.2422
v 11.5234 55.5273 17.6602
v 16.7070 55.4219 22.3281
v 0.0000 63.8086 20.4961
v 5.2148 59.1406 24.4922
v 0.0000 57.0625 22.8242
v -10.5977 50.0508 -30.5273
v -11.3047 33.4336 -33.5195
v -10.5977 60.6172 -21.6641
v -10.5977 66.4883 -9.3281
v -10.0312 67.9648 4.8398
v -20.5898 33.4375 -26.0977
v -19.7852 43.6992 -26.3945
v -18.7617 58.1797 -15.8359
v -26.1250 33.4336 -16.0000
v -25.4375 47.0000 -14.0000
v -27.1094 47.8359 -3.6680
v -29.2812 30.0000 -2.0000
v -17.9023 12.4961 -23.0000
v -9.7188 2.1641 -26.0000
v -19.2656 -7.0000 -20.4102
v -25.4844 12.5000 -5.5820
v -19.9766 61.0000 0.0000
v -30.1406 33.4375 4.8398
v -27.7891 14.5156 4.8398
v -29.3828 42.7188 4.8398
v -26.9180 52.3594 4.8398
v -9.6562 67.3750 13.2695
v -27.9883 33.4375 12.9062
v -22.0781 50.6484 19.0078
v -26.8398 42.7188 14.1562
v -16.5156 53.5156 15.7109
v -27.9883 33.4375 12.9062
v -26.8398 42.7188 14.1562
v -26.0508 51.6094 13.6562
v -19.8438 62.0000 9.1992
v -21.9609 30.0039 -1.1641
v -20.8398 18.3945 3.9609
v -29.2812 30.0000 -2.0000
v -27.7891 14.5156 4.8398
v -9.7188 2.1641 -26.0000
v -19.2656 -7.0000 -20.4102
v -25.4844 12.5000 -5.5820
v -21.9609 30.0039 -1.1641
v -29.2812 30.0000 -2.0000
v -11.6250 11.8789 -6.4805
v -20.6016 58.0859 17.8281
v -22.0781 50.6484 19.0078
v -16.7070 55.4219 22.3281
v -6.0586 65.2617 22.1562
v -13.0352 63.8945 21.1797
v -11.5195 58.4258 24.2422
v -6.5469 56.1719 18.7930
v -5.2148 59.1406 24.4922
v -11.5195 58.4258 24.2422
v -11.5234 55.5273 17.6602
v -16.7070 55.4219 22.3281
v -5.2148 59.1406 24.4922
v 21.9609 30.0039 -1.1641
v 29.2812 30.0000 -2.0000
v 21.9609 30.0039 -1.1641
v 29.2812 30.0000 -2.0000
v 20.8398 18.3945 3.9609
v 27.7891 14.5156 4.8398
f 1 2 3
f 1 6 2
f 6 1 62
f 64 6 62
f 64 65 6
f 64 69 65
f 62 69 64
f 62 68 69
f 63 68 62
f 62 3 63
f 1 3 62
f 2 4 3
f 4 2 11
f 4 11 12
f 12 18 4
f 12 15 18
f 11 15 12
f 11 14 15
f 13 14 11
f 2 13 11
f 2 5 13
f 2 6 5
f 5 6 7
f 5 7 13
f 7 24 13
f 10 24 7
f 7 9 10
f 8 9 7
f 6 8 7
f 6 65 8
f 9 8 65
f 66 9 65
f 66 65 78
f 91 66 78
f 78 82 91
f 82 78 72
f 81 82 72
f 81 72 79
f 81 79 89
f 89 90 81
f 89 103 90
f 102 90 103
f 102 91 90
f 91 102 106
f 83 91 106
f 66 91 83
f 9 66 83
f 9 83 29
f 9 29 30
f 9 30 10
f 10 30 35
f 35 24 10
f 24 35 28
f 28 16 24
f 27 16 28
f 27 25 16
f 27 32 25
f 32 27 34
f 33 32 34
f 43 33 34
f 34 35 43
f 28 35 34
f 27 28 34
f 13 16 14
f 13 24 16
f 17 15 16
f 15 17 19
f 19 18 15
f 18 19 22
f 20 18 22
f 4 18 20
f 4 20 21
f 3 4 21
f 3 21 63
f 63 21 75
f 63 75 74
f 67 63 74
f 63 67 68
f 68 67 70
f 68 70 71
f 69 68 71
f 69 71 72
f 69 72 78
f 65 69 78
f 15 14 16
f 17 16 25
f 25 26 17
f 31 26 25
f 31 25 32
f 20 23 21
f 75 21 23
f 75 76 74
f 74 76 77
f 77 70 74
f 70 77 73
f 73 72 70
f 73 79 72
f 79 73 80
f 84 79 80
f 84 89 79
f 36 37 38
f 37 36 41
f 41 42 37
f 37 42 39
f 37 39 40
f 101 37 40
f 38 37 101
f 98 38 101
f 38 98 97
f 96 38 97
f 38 96 36
f 44 45 46
f 46 51 44
f 51 46 30
f 29 51 30
f 59 51 29
f 60 51 59
f 61 60 59
f 59 113 61
f 105 113 59
f 59 29 105
f 29 83 105
f 105 83 106
f 106 107 105
f 107 106 104
f 104 106 102
f 102 103 104
f 46 45 43
f 43 35 46
f 46 35 30
f 47 48 49
f 47 58 48
f 58 57 48
f 56 57 58
f 55 57 56
f 54 55 56
f 54 53 55
f 52 53 54
f 53 52 109
f 108 53 109
f 109 110 108
f 108 110 111
f 110 112 111
f 111 112 87
f 112 85 87
f 85 86 87
f 87 86 88
f 88 93 87
f 88 95 93
f 94 93 95
f 92 93 94
f 49 48 50
f 50 48 118
f 118 119 50
f 118 117 119
f 116 117 118
f 44 51 60
f 70 72 71
f 70 67 74
f 81 90 82
f 91 82 90
f 99 100 98
f 101 99 98
f 45 33 43
f 105 107 113
f 40 39 114
f 114 39 115
