v -10.9766 62.4766 22.2930
v -19.5117 62.2539 12.0820
v -19.3906 56.3672 20.5273
v -12.0234 41.0352 29.3516
v -12.3359 51.5508 27.6484
v -21.3789 39.9297 19.6250
v -21.3789 39.9297 19.6250
v -8.0000 42.0000 10.0000
v -12.0234 41.0352 29.3516
v 0.0000 41.5781 33.1133
v 0.0000 32.6328 4.0000
v -19.3906 56.3672 20.5273
v -25.4531 36.3984 15.3438
v -25.4531 36.3984 15.3438
v -28.4336 44.3242 6.6445
v -25.1875 56.4219 -2.8633
v -10.3477 69.8242 2.1797
v -29.4492 32.6875 -0.9883
v -24.0000 21.9062 -9.0234
v -28.1797 22.0000 4.0000
v -25.7617 33.9414 -14.1016
v -19.7852 24.1953 -25.3828
v -18.6641 15.5547 -13.8867
v 0.0000 36.1289 -36.2812
v 21.4492 43.9648 -30.5352
v 7.5352 22.3867 -30.3516
v 19.7852 24.1953 -25.3828
v -7.5352 22.3867 -30.3516
v -21.4492 43.9648 -30.5352
v 0.0000 70.7383 2.3438
v 0.0000 67.1055 17.7734
v -24.0000 21.9062 -9.0234
v -27.1953 12.7500 3.0000
v -28.1797 22.0000 4.0000
v -27.1953 12.7500 3.0000
v -24.0000 21.9062 -9.0234
v -18.6641 15.5547 -13.8867
v 0.0000 32.6328 4.0000
v 0.0000 56.6523 29.1953
v 0.0000 41.5781 33.1133
v -34.6133 32.8945 -7.6250
v -28.2148 35.1641 -19.3164
v -29.7227 23.8359 -7.2227
v -20.4453 26.9844 -31.4883
v -28.2148 35.1641 -19.3164
v -26.5820 37.6953 -33.4727
v -26.5820 37.6953 -33.4727
v -12.9102 40.0898 -38.8320
v -20.4453 26.9844 -31.4883
v 0.0000 29.4453 -41.2344
v -12.9102 40.0898 -38.8320
v 0.0000 40.5898 -46.0586
v -31.0820 41.9922 -2.3555
v -34.1719 45.1211 -18.0938
v -34.1719 45.1211 -18.0938
v -25.1016 49.1328 -29.7188
v -25.1016 49.1328 -29.7188
v -15.9766 51.3398 -42.3555
v -15.9766 51.3398 -42.3555
v 0.0000 52.1875 -41.5352
v -34.1250 53.5781 -3.8398
v -29.9062 55.4180 -14.8789
v -29.9062 55.4180 -14.8789
v -28.0195 61.0820 -29.3047
v -28.0195 61.0820 -29.3047
v -13.7383 60.9570 -35.9180
v -13.7383 60.9570 -35.9180
v 0.0000 64.3438 -41.4258
v -25.6094 61.7773 0.4766
v -27.0156 69.1211 -11.5117
v -27.0156 69.1211 -11.5117
v -21.0195 67.4062 -22.6133
v -12.8789 74.7539 -27.7617
v -12.8789 74.7539 -27.7617
v 0.0000 71.8477 -27.6211
v -19.0703 72.8828 1.3477
v -17.9922 70.9961 -7.1328
v -8.3203 72.9609 -12.1055
v 0.0000 37.2461 6.9648
v -29.7227 23.8359 -7.2227
v -28.2148 35.1641 -19.3164
v -20.4453 26.9844 -31.4883
v 0.0000 76.6680 -12.0000
v 0.0000 71.5820 4.2812
v -31.0820 41.9922 -2.3555
v -34.6133 32.8945 -7.6250
v -34.1250 53.5781 -3.8398
v -25.6094 61.7773 0.4766
v 0.0000 37.2461 6.9648
v -12.9102 40.0898 -38.8320
v 0.0000 29.4453 -41.2344
v -20.4453 26.9844 -31.4883
v -19.0703 72.8828 1.3477
v 0.0000 71.5820 4.2812
v 10.9766 62.4766 22.2930
v 19.3906 56.3672 20.5273
v 19.5117 62.2539 12.0820
v 12.0234 41.0352 29.3516
v 21.3789 39.9297 19.6250
v 12.3359 51.5508 27.6484
v 21.3789 39.9297 19.6250
v 12.0234 41.0352 29.3516
v 8.0000 42.0000 10.0000
v 0.0000 32.6328 4.0000
v 25.4531 36.3984 15.3438
v 19.3906 56.3672 20.5273
v 25.4531 36.3984 15.3438
v 28.4336 44.3242 6.6445
v 25.1875 56.4219 -2.8633
v 10.3477 69.8242 2.1797
v 29.4492 32.6875 -0.9883
v 28.1797 22.0000 4.0000
v 24.0000 21.9062 -9.0234
v 0.0000 9.6289 -19.1055
v 18.6641 15.5547 -13.8867
v 25.7617 33.9414 -14.1016
v 24.0000 21.9062 -9.0234
v 27.1953 12.7500 3.0000
v 28.1797 22.0000 4.0000
v 27.1953 12.7500 3.0000
v 24.0000 21.9062 -9.0234
v 0.0000 32.6328 4.0000
v 18.6641 15.5547 -13.8867
v 34.6133 32.8945 -7.6250
v 29.7227 23.8359 -7.2227
v 28.2148 35.1641 -19.3164
v 20.4453 26.9844 -31.4883
v 26.5820 37.6953 -33.4727
v 28.2148 35.1641 -19.3164
v 26.5820 37.6953 -33.4727
v 20.4453 26.9844 -31.4883
v 12.9102 40.0898 -38.8320
v 0.0000 29.4453 -41.2344
v 0.0000 40.5898 -46.0586
v 12.9102 40.0898 -38.8320
v 31.0820 41.9922 -2.3555
v 34.1719 45.1211 -18.0938
v 34.1719 45.1211 -18.0938
v 25.1016 49.1328 -29.7188
v 25.1016 49.1328 -29.7188
v 15.9766 51.3398 -42.3555
v 15.9766 51.3398 -42.3555
v 0.0000 52.1875 -41.5352
v 34.1250 53.5781 -3.8398
v 29.9062 55.4180 -14.8789
v 29.9062 55.4180 -14.8789
v 28.0195 61.0820 -29.3047
v 28.0195 61.0820 -29.3047
v 13.7383 60.9570 -35.9180
v 13.7383 60.9570 -35.9180
v 0.0000 64.3438 -41.4258
v 25.6094 61.7773 0.4766
v 27.0156 69.1211 -11.5117
v 27.0156 69.1211 -11.5117
v 21.0195 67.4062 -22.6133
v 12.8789 74.7539 -27.7617
v 12.8789 74.7539 -27.7617
v 0.0000 71.8477 -27.6211
v 19.0703 72.8828 1.3477
v 17.9922 70.9961 -7.1328
v 8.3203 72.9609 -12.1055
v 28.2148 35.1641 -19.3164
v 29.7227 23.8359 -7.2227
v 20.4453 26.9844 -31.4883
v 31.0820 41.9922 -2.3555
v 34.6133 32.8945 -7.6250
v 34.1250 53.5781 -3.8398
v 25.6094 61.7773 0.4766
v 0.0000 37.2461 6.9648
v 0.0000 29.4453 -41.2344
v 12.9102 40.0898 -38.8320
v 20.4453 26.9844 -31.4883
v 19.0703 72.8828 1.3477
f 1 2 3
f 5 1 3
f 6 5 3
f 4 5 6
f 5 4 40
f 39 5 40
f 1 5 39
f 31 1 39
f 17 1 31
f 2 1 17
f 2 17 16
f 16 15 2
f 21 15 16
f 18 15 21
f 18 21 19
f 18 19 20
f 20 14 18
f 14 15 18
f 14 3 15
f 3 2 15
f 7 8 9
f 8 7 12
f 11 8 12
f 11 12 13
f 11 13 34
f 33 11 34
f 32 11 33
f 8 10 9
f 10 8 103
f 103 102 10
f 101 102 103
f 103 106 101
f 104 106 103
f 104 105 106
f 104 119 105
f 118 119 104
f 117 118 104
f 21 22 19
f 22 21 29
f 22 29 28
f 28 23 22
f 114 23 28
f 26 114 28
f 26 28 24
f 24 25 26
f 25 27 26
f 27 25 116
f 116 113 27
f 111 113 116
f 111 112 113
f 112 111 107
f 107 111 108
f 107 108 96
f 96 108 97
f 95 96 97
f 100 96 95
f 99 96 100
f 98 99 100
f 100 40 98
f 39 40 100
f 95 39 100
f 31 39 95
f 31 95 110
f 30 31 110
f 30 17 31
f 19 22 23
f 20 19 35
f 29 24 28
f 29 21 16
f 36 37 38
f 41 42 43
f 41 53 42
f 42 53 54
f 53 62 54
f 61 62 53
f 61 69 62
f 62 69 70
f 69 77 70
f 76 77 69
f 84 77 76
f 78 77 84
f 72 77 78
f 71 77 72
f 71 72 63
f 63 72 64
f 56 63 64
f 55 63 56
f 55 56 45
f 45 56 46
f 44 45 46
f 47 48 49
f 47 57 48
f 48 57 58
f 57 66 58
f 65 66 57
f 65 72 66
f 66 72 73
f 72 78 73
f 83 75 78
f 83 78 84
f 83 84 161
f 83 161 158
f 157 158 161
f 157 150 158
f 150 151 158
f 143 151 150
f 142 143 150
f 142 135 143
f 135 134 143
f 133 134 135
f 50 51 52
f 51 60 52
f 59 60 51
f 59 67 60
f 60 67 68
f 67 75 68
f 74 75 67
f 74 78 75
f 79 80 81
f 79 81 82
f 85 86 79
f 85 79 87
f 87 79 88
f 79 93 88
f 93 79 94
f 173 94 79
f 79 168 173
f 167 168 79
f 165 167 79
f 165 79 166
f 166 79 163
f 79 162 163
f 79 164 162
f 86 80 79
f 89 90 91
f 89 92 90
f 109 97 108
f 97 109 110
f 95 97 110
f 114 26 115
f 115 26 27
f 113 115 27
f 112 120 113
f 111 116 108
f 116 109 108
f 25 109 116
f 121 122 123
f 124 125 126
f 124 126 136
f 126 137 136
f 136 137 145
f 144 136 145
f 144 145 152
f 145 153 152
f 152 153 160
f 159 152 160
f 159 160 84
f 84 160 161
f 155 161 160
f 154 155 160
f 154 146 155
f 146 147 155
f 139 147 146
f 138 139 146
f 138 129 139
f 129 128 139
f 127 128 129
f 130 131 132
f 130 132 140
f 132 141 140
f 140 141 149
f 148 140 149
f 148 149 155
f 149 156 155
f 155 156 161
f 169 170 171
f 169 171 172
