v 19.7852 21.0000 -20.0000
v 18.6641 15.5547 -13.8867
v 10.6641 19.6953 -25.1328
v 0.0000 9.6289 -19.1055
v 0.0000 19.0000 -29.0000
v 11.4062 32.9883 -33.1992
v 0.0000 33.0078 -34.9102
v 21.1523 32.3711 -27.0000
v 29.6836 32.0000 0.0000
v 24.0000 21.9062 -9.0234
v 28.4492 32.0000 -12.0000
v 26.2812 32.0000 -20.0000
v 21.2344 44.5039 -24.4023
v 0.0000 45.7539 -34.5312
v 11.6367 45.1367 -32.8398
v 27.4023 44.0000 -13.0703
v 28.4805 43.8828 -1.0430
v 25.7109 43.8711 10.6680
v 26.9883 32.0000 9.4766
v 23.9609 53.8711 -12.4727
v 24.9961 52.9102 -1.8008
v 23.2773 52.0195 11.7539
v 0.0000 56.5312 -28.3086
v 10.4453 56.0156 -26.3320
v 19.0000 54.9453 -21.0000
v 23.7461 30.3086 0.5625
v 24.0000 21.9062 -9.0234
v 29.6836 32.0000 0.0000
v 23.9609 53.8711 -12.4727
v 19.1680 53.7266 -9.9766
v 24.9961 52.9102 -1.8008
v 18.6211 52.2461 9.4023
v 23.2773 52.0195 11.7539
v 10.4453 56.0156 -26.3320
v 0.0000 56.5312 -28.3086
v 8.3555 55.4453 -21.0664
v -8.3555 55.4453 -21.0664
v -10.4453 56.0156 -26.3320
v 19.0000 54.9453 -21.0000
v -19.7852 21.0000 -20.0000
v -10.6641 19.6953 -25.1328
v -18.6641 15.5547 -13.8867
v -11.4062 32.9883 -33.1992
v -21.1523 32.3711 -27.0000
v -21.2344 44.5039 -24.4023
v -11.6367 45.1367 -32.8398
v -26.2812 32.0000 -20.0000
v -27.4023 44.0000 -13.0703
v -28.4492 32.0000 -12.0000
v -28.4805 43.8828 -1.0430
v -29.6836 32.0000 0.0000
v -25.7109 43.8711 10.6680
v -26.9883 32.0000 9.4766
v -23.9609 53.8711 -12.4727
v -24.9961 52.9102 -1.8008
v -23.2773 52.0195 11.7539
v -10.4453 56.0156 -26.3320
v -19.0000 54.9453 -21.0000
v -24.0000 21.9062 -9.0234
v -23.7461 30.3086 0.5625
v -29.6836 32.0000 0.0000
v -23.9609 53.8711 -12.4727
v -24.9961 52.9102 -1.8008
v -19.1680 53.7266 -9.9766
v -18.6211 52.2461 9.4023
v -23.2773 52.0195 11.7539
v -19.0000 54.9453 -21.0000
v -24.0000 21.9062 -9.0234
v -26.9883 32.0000 9.4766
v -21.5898 30.3086 8.1445
v -25.7109 43.8711 10.6680
v 21.5898 30.3086 8.1445
v 26.9883 32.0000 9.4766
v 25.7109 43.8711 10.6680
v 18.6641 15.5547 -13.8867
v 24.0000 21.9062 -9.0234
v 23.7461 30.3086 0.5625
v -24.0000 21.9062 -9.0234
v -18.6641 15.5547 -13.8867
v -23.7461 30.3086 0.5625
f 1 2 3
f 1 3 8
f 8 12 1
f 13 12 8
f 6 13 8
f 6 15 13
f 15 6 7
f 14 15 7
f 24 15 14
f 23 24 14
f 23 14 57
f 57 14 46
f 58 57 46
f 58 46 45
f 54 58 45
f 54 45 48
f 55 54 48
f 50 55 48
f 55 50 56
f 56 50 52
f 50 51 52
f 49 51 50
f 49 50 48
f 48 47 49
f 45 47 48
f 45 44 47
f 43 44 45
f 43 45 46
f 46 7 43
f 14 7 46
f 5 7 6
f 3 5 6
f 4 5 3
f 2 4 3
f 2 1 10
f 1 12 10
f 10 12 11
f 9 10 11
f 11 17 9
f 11 16 17
f 16 11 12
f 13 16 12
f 20 16 13
f 20 13 25
f 25 13 15
f 25 15 24
f 17 18 9
f 22 18 17
f 21 22 17
f 17 16 21
f 21 16 20
f 18 19 9
f 26 27 28
f 73 26 28
f 72 26 73
f 73 74 72
f 74 33 72
f 33 32 72
f 32 33 30
f 31 30 33
f 29 30 31
f 30 29 39
f 36 30 39
f 34 36 39
f 34 35 36
f 36 35 37
f 37 35 38
f 38 67 37
f 37 67 64
f 64 67 62
f 62 63 64
f 63 66 64
f 65 64 66
f 65 66 70
f 66 71 70
f 69 70 71
f 70 69 60
f 60 69 61
f 59 60 61
f 3 6 8
f 40 41 42
f 40 44 41
f 44 40 47
f 40 68 47
f 42 68 40
f 42 41 4
f 4 41 5
f 41 43 5
f 41 44 43
f 5 43 7
f 52 51 53
f 51 49 68
f 68 49 47
f 75 76 77
f 78 79 80
