v 0.0000 33.5469 -34.3477
v 11.3984 34.1562 -31.6953
v 0.0000 29.9102 -34.5742
v 11.4688 30.3711 -31.8672
v -11.3984 34.1562 -31.6953
v -11.4688 30.3711 -31.8672
v -24.4375 33.6875 16.6758
v -24.5859 43.3516 11.5117
v -29.4844 33.6875 -0.2227
v 19.3555 35.5977 -24.9492
v 19.5195 32.0547 -25.4102
v 24.6250 37.2383 -17.0586
v 25.4688 33.6875 -17.1992
v 29.4844 33.6875 -0.2227
v -19.5195 32.0547 -25.4102
v -19.3555 35.5977 -24.9492
v -25.4688 33.6875 -17.1992
v -24.6250 37.2383 -17.0586
v 26.6250 22.5000 14.9453
v 24.4375 33.6875 16.6758
v -26.6250 22.5000 14.9453
v -30.6641 18.2500 -2.1094
v -28.0898 18.2500 -17.3008
v 30.6641 18.2500 -2.1094
v 28.0898 18.2500 -17.3008
v -21.4336 17.5000 -27.9141
v 21.4336 17.5000 -27.9141
v -11.4688 17.5000 -36.0859
v 0.0000 17.5000 -37.9336
v 11.4688 17.5000 -36.0859
v -24.4492 5.1289 -8.8984
v -25.8594 8.4688 1.4844
v -26.7031 14.0000 10.0000
v -22.5898 3.9336 -16.8906
v 24.4492 5.1289 -8.8984
v 22.5898 3.9336 -16.8906
v -18.8945 3.0742 -24.8828
v 18.8945 3.0742 -24.8828
v -10.0625 2.4453 -32.5000
v 0.0000 2.3008 -34.1602
v 10.0625 2.4453 -32.5000
v -10.0625 2.4453 -32.5000
v 0.0000 2.3008 -34.1602
v 0.0000 19.8320 -21.4883
v 10.0625 2.4453 -32.5000
v -18.8945 3.0742 -24.8828
v 18.8945 3.0742 -24.8828
v 22.5898 3.9336 -16.8906
v 24.4492 5.1289 -8.8984
v -24.4492 5.1289 -8.8984
v -22.5898 3.9336 -16.8906
v -19.3945 16.8516 -1.7227
v -25.8594 8.4688 1.4844
v 25.8594 8.4688 1.4844
v 19.3945 16.8516 -1.7227
v 24.5859 43.3203 11.5273
v 25.8594 8.4688 1.4844
v 26.7031 14.0000 10.0000
v -27.5820 40.4922 -1.5898
v 27.5820 40.4922 -1.5898
v -19.9688 27.3750 8.3711
v -14.2656 40.9414 14.2188
v -24.4375 33.6875 16.6758
v -26.6250 22.5000 14.9453
v -26.7031 14.0000 10.0000
v 26.7031 14.0000 10.0000
v 26.6250 22.5000 14.9453
v 19.9688 27.3750 8.3711
v 24.4375 33.6875 16.6758
v 14.2656 40.9414 14.2188
v 18.5195 40.5859 22.7422
v 10.5898 41.6680 26.0391
v 0.0000 42.1680 27.3477
v 0.0000 42.1289 19.0859
v 10.3906 50.5352 23.2148
v 17.9688 50.6328 17.0391
v 9.2422 54.2422 20.9453
v 18.5195 40.5859 22.7422
v 10.5898 41.6680 26.0391
v 0.0000 50.6836 24.7031
v 0.0000 42.1680 27.3477
v -10.5898 41.6680 26.0391
v -10.3906 50.5352 23.2148
v -18.5195 40.5859 22.7422
v -17.9688 50.6328 17.0391
v -9.2422 54.2422 20.9453
v 0.0000 55.1836 21.9062
v -18.5195 40.5859 22.7422
v -10.5898 41.6680 26.0391
f 1 2 3
f 1 3 5
f 3 6 5
f 3 29 6
f 4 29 3
f 2 4 3
f 4 2 10
f 4 10 11
f 11 30 4
f 27 30 11
f 11 13 27
f 10 13 11
f 10 12 13
f 12 14 13
f 12 60 14
f 60 56 14
f 56 20 14
f 56 78 20
f 76 78 56
f 76 75 78
f 75 76 77
f 77 80 75
f 87 80 77
f 86 80 87
f 83 80 86
f 83 82 80
f 82 83 84
f 83 85 84
f 83 86 85
f 85 8 84
f 84 8 7
f 7 8 9
f 7 9 21
f 21 9 22
f 21 22 33
f 32 33 22
f 31 32 22
f 22 23 31
f 22 17 23
f 9 17 22
f 18 17 9
f 16 17 18
f 16 15 17
f 6 15 16
f 6 16 5
f 6 28 15
f 6 29 28
f 40 28 29
f 39 28 40
f 39 26 28
f 37 26 39
f 34 26 37
f 23 26 34
f 17 26 23
f 15 26 17
f 15 28 26
f 19 14 20
f 14 19 24
f 14 24 13
f 13 24 25
f 27 13 25
f 36 27 25
f 25 35 36
f 24 35 25
f 35 24 57
f 57 24 58
f 19 58 24
f 30 29 4
f 30 40 29
f 41 40 30
f 30 27 41
f 41 27 38
f 38 27 36
f 31 23 34
f 42 43 44
f 46 42 44
f 44 51 46
f 44 50 51
f 44 52 50
f 50 52 53
f 52 65 53
f 61 65 52
f 64 65 61
f 64 61 63
f 61 62 63
f 63 62 88
f 88 62 89
f 62 74 89
f 89 74 73
f 70 73 74
f 72 73 70
f 71 72 70
f 71 70 69
f 69 70 68
f 67 69 68
f 67 68 66
f 66 68 55
f 66 55 54
f 54 55 49
f 49 55 44
f 48 49 44
f 47 48 44
f 45 47 44
f 45 44 43
f 59 18 9
f 8 59 9
f 75 79 78
f 75 80 79
f 79 80 81
f 81 80 82
