v 0.0000 69.2383 -6.3125
v 0.0000 69.1875 5.6367
v 10.5977 67.4883 -6.0039
v 10.4023 67.4570 5.3398
v 20.5742 58.2266 -16.1289
v 10.5977 63.9922 -17.6406
v 0.0000 65.5625 -18.5469
v 10.5977 56.1797 -27.2266
v 0.0000 57.3359 -28.6055
v 19.7734 43.8711 -26.5977
v 10.5977 45.5039 -33.1562
v 0.0000 46.1250 -34.8594
v 0.0000 33.4336 -35.2422
v 11.3047 22.5742 -29.8398
v 0.0000 22.0156 -31.3750
v 11.3047 33.4336 -33.5195
v 10.2930 8.7578 -18.5039
v 0.0000 36.5742 3.6133
v 0.0000 7.4297 -19.2695
v 19.9180 24.5273 -25.5977
v 23.3750 22.4102 -16.4531
v 10.2930 8.7578 -18.5039
v 25.7266 33.4336 -16.0000
v 26.2969 33.4336 0.0000
v 18.6641 15.5547 -13.8867
v 26.2422 44.4258 -13.2227
v 4.7539 61.0000 24.0000
v 0.0000 66.0000 20.0000
v 0.0000 62.0000 25.0000
v 0.0000 68.3867 13.8945
v 10.1836 66.8750 12.9297
v 11.4805 64.2539 18.2617
v 20.1016 61.0859 3.0820
v 23.5898 44.5000 13.0938
v 25.0664 53.0156 6.0000
v 22.4336 52.3086 14.0547
v 26.1836 42.4531 0.0000
v 24.9297 36.0000 11.3516
v 10.0664 60.0000 23.0898
v 6.6484 53.0000 24.0000
v 6.6484 53.0000 24.0000
v 4.7539 61.0000 24.0000
v 0.0000 54.0703 2.9961
v 25.4375 52.9570 -2.8633
v 14.1172 58.5312 21.3672
v 15.8125 52.0000 20.0000
v 18.4453 57.0000 19.0000
v -1.5469 54.0000 26.0000
v -1.5469 54.0000 26.0000
v 19.0898 60.9297 10.4297
v 0.0000 7.4297 -19.2695
v 22.4336 52.3086 14.0547
v 15.8125 52.0000 20.0000
v 14.1172 58.5312 21.3672
v 18.6641 15.5547 -13.8867
v -10.4023 67.4570 5.3398
v -10.5977 67.4883 -6.0039
v -10.5977 63.9922 -17.6406
v -20.5781 58.2266 -16.1289
v -10.5977 56.1797 -27.2266
v -10.5977 45.5039 -33.1562
v -19.7734 43.8711 -26.5977
v -11.3047 33.4336 -33.5195
v -11.3047 22.5742 -29.8398
v -19.9180 24.5273 -25.5977
v -10.2930 8.7578 -18.5039
v -23.3750 22.4102 -16.4531
v -26.2422 44.4258 -13.2227
v -4.7539 61.0000 24.0000
v -10.1836 66.8750 12.9297
v -20.1016 61.0859 3.0820
v -10.8164 60.0000 23.0898
v -9.7461 53.0000 24.0000
v -9.7461 53.0000 24.0000
v -4.7539 61.0000 24.0000
v -11.4805 64.2539 18.2617
v -26.1836 42.4531 0.0000
v -25.0664 53.0156 6.0000
v -25.4375 52.9570 -2.8633
v -14.1172 58.5312 21.3672
v -18.4453 57.0000 19.0000
v -18.0000 52.0000 20.0000
v -25.7344 33.4375 -16.0000
v -18.6641 15.5547 -13.8867
v -26.2969 33.4336 0.0000
v -19.0898 60.9297 10.4297
v -10.2930 8.7578 -18.5039
v -22.4336 52.3086 14.0547
v -18.0000 52.0000 20.0000
v -22.4336 52.3086 14.0547
v -14.1172 58.5312 21.3672
v -18.6641 15.5547 -13.8867
v -23.5898 44.5000 13.0938
v -23.5898 44.5000 13.0938
v 23.5898 44.5000 13.0938
v -25.4727 26.0000 8.0000
v -26.2969 33.4336 0.0000
v -24.9297 36.0000 11.3516
v -25.4727 26.0000 8.0000
v 25.4727 26.0000 8.0000
v 26.2969 33.4336 0.0000
v 25.4727 26.0000 8.0000
v -24.9297 36.0000 11.3516
v 24.9297 36.0000 11.3516
f 1 2 3
f 1 3 6
f 7 1 6
f 7 6 9
f 7 9 58
f 7 58 1
f 58 57 1
f 57 58 59
f 59 71 57
f 59 79 71
f 59 68 79
f 59 62 68
f 62 59 60
f 60 61 62
f 12 61 60
f 9 12 60
f 12 9 8
f 11 12 8
f 8 10 11
f 10 8 5
f 5 26 10
f 5 44 26
f 5 33 44
f 5 3 33
f 3 5 6
f 5 8 6
f 9 6 8
f 9 60 58
f 59 58 60
f 3 2 4
f 33 3 4
f 33 4 50
f 33 50 35
f 35 44 33
f 37 44 35
f 44 37 26
f 26 37 23
f 23 10 26
f 20 10 23
f 20 23 21
f 20 21 22
f 22 14 20
f 22 51 14
f 15 14 51
f 14 15 16
f 14 16 20
f 20 16 10
f 10 16 11
f 11 16 13
f 11 13 12
f 61 12 13
f 61 13 63
f 62 61 63
f 65 62 63
f 64 65 63
f 15 64 63
f 13 15 63
f 16 15 13
f 15 51 64
f 66 64 51
f 66 65 64
f 65 66 67
f 65 67 83
f 65 83 62
f 83 68 62
f 68 83 77
f 79 68 77
f 77 78 79
f 77 94 78
f 98 94 77
f 77 85 98
f 77 83 85
f 67 85 83
f 84 85 67
f 84 67 66
f 17 18 19
f 55 18 17
f 19 18 87
f 92 87 18
f 23 24 21
f 23 37 24
f 37 38 24
f 38 37 34
f 37 35 34
f 34 35 36
f 50 36 35
f 50 47 36
f 32 47 50
f 32 45 47
f 32 39 45
f 32 27 39
f 27 32 28
f 27 28 29
f 27 29 48
f 69 48 29
f 69 29 28
f 28 76 69
f 70 76 28
f 70 28 30
f 56 70 30
f 2 56 30
f 2 30 4
f 30 31 4
f 28 31 30
f 31 28 32
f 50 31 32
f 4 31 50
f 21 24 25
f 25 22 21
f 39 27 40
f 39 40 45
f 45 46 47
f 36 47 46
f 41 42 43
f 43 54 41
f 43 53 54
f 43 52 53
f 95 52 43
f 104 95 43
f 102 104 43
f 43 101 102
f 43 42 49
f 43 49 75
f 74 43 75
f 43 74 91
f 43 91 89
f 43 89 90
f 93 43 90
f 103 43 93
f 96 43 103
f 96 97 43
f 56 2 57
f 71 56 57
f 71 86 56
f 71 78 86
f 78 71 79
f 86 78 88
f 86 88 81
f 81 76 86
f 80 76 81
f 80 81 82
f 88 82 81
f 94 88 78
f 2 1 57
f 72 73 69
f 76 72 69
f 76 80 72
f 72 80 73
f 86 70 56
f 70 86 76
f 98 85 99
f 38 100 24
