v 0.0000 22.3672 -29.8906
v 9.7930 23.1875 -28.1484
v 0.0000 9.6289 -19.1055
v 18.6641 15.5547 -13.8867
v 18.9531 24.7188 -23.9453
v 11.3984 34.1562 -31.6953
v 0.0000 33.5469 -34.3477
v 19.3555 35.5977 -24.9492
v 25.7344 33.6914 -16.2930
v 26.2969 33.4336 0.0000
v 24.6250 37.2383 -17.0586
v 27.5820 40.4922 -1.5898
v -9.7930 23.1875 -28.1484
v -18.9531 24.7188 -23.9453
v -18.6641 15.5547 -13.8867
v -11.3984 34.1562 -31.6953
v -19.3555 35.5977 -24.9492
v -25.7344 33.6914 -16.2930
v -26.2969 33.4336 0.0000
v -24.6250 37.2383 -17.0586
v -27.5820 40.4922 -1.5898
v 23.8281 36.3242 11.0703
v -25.7852 44.1094 6.2305
v -23.8672 36.9570 12.1328
v -21.4180 48.3438 15.0977
v -12.5703 44.6328 24.3438
v -15.4922 52.2773 19.1562
v -6.6445 56.9141 21.1641
v 0.7500 51.8633 24.1523
v 2.2188 60.8359 18.8711
v 9.0977 55.5547 11.1719
v 0.7500 51.8633 24.1523
v -12.5703 44.6328 24.3438
v 10.7148 55.9453 18.7852
v 25.7852 44.1094 6.2305
v 14.2383 49.7773 21.3125
v 21.0625 48.8477 14.5547
v 15.9414 54.9766 16.2109
v 10.7148 55.9453 18.7852
v 18.3828 43.4961 19.8203
v -23.8672 36.9570 12.1328
v 10.7148 55.9453 18.7852
v 14.2383 49.7773 21.3125
v 18.3828 43.4961 19.8203
v 23.8281 36.3242 11.0703
v -26.2969 33.4336 0.0000
v 23.8281 36.3242 11.0703
v 9.0977 55.5547 11.1719
v 26.2969 33.4336 0.0000
f 1 2 3
f 2 1 7
f 6 2 7
f 2 6 5
f 4 2 5
f 3 2 4
f 1 3 13
f 7 1 13
f 16 7 13
f 13 14 16
f 14 13 15
f 14 15 18
f 17 14 18
f 16 14 17
f 17 18 20
f 21 20 18
f 19 21 18
f 18 15 19
f 15 13 3
f 6 8 5
f 8 9 5
f 8 11 9
f 9 11 12
f 9 12 10
f 4 9 10
f 5 9 4
f 22 10 12
f 12 35 22
f 22 35 37
f 37 40 22
f 40 37 36
f 36 37 38
f 36 38 39
f 23 21 24
f 23 24 25
f 24 26 25
f 27 25 26
f 27 26 29
f 28 27 29
f 29 30 28
f 29 34 30
f 24 21 19
f 31 32 33
f 31 33 41
f 46 31 41
f 32 31 42
f 42 31 43
f 43 31 44
f 31 45 44
f 47 48 49
