v 25.3828 39.9766 10.6797
v 20.8633 41.2383 19.2617
v 25.7852 35.5469 13.1562
v 24.5117 46.9062 3.5547
v 23.1367 48.0117 12.0000
v 13.8516 49.9648 22.1602
v 15.3555 56.7031 16.6094
v 7.3516 59.4922 18.3906
v 29.5938 32.0000 2.0000
v 27.3672 40.0000 -3.8047
v 30.5625 8.0039 -14.8516
v 23.8164 3.8320 -11.8555
v 19.5625 8.2656 -24.3906
v 10.0664 3.8320 -30.3438
v 12.4336 8.4844 -33.8750
v 19.5625 8.2656 -24.3906
v 12.4336 8.4844 -33.8750
v 10.0664 3.8320 -30.3438
v 0.0000 8.4766 -33.3008
v 30.5625 8.0039 -14.8516
v 27.7422 7.1719 -0.5391
v 23.8164 3.8320 -11.8555
v 27.0859 16.2188 -13.4219
v 24.9492 16.8945 -28.7930
v 24.9492 16.8945 -28.7930
v 11.1797 17.0781 -33.1641
v 11.1797 17.0781 -33.1641
v 0.0000 17.2930 -38.8516
v 27.0859 16.2188 -13.4219
v 33.1211 15.3711 -2.8281
v 33.3320 24.5312 -16.1406
v 21.6211 25.0781 -26.7930
v 21.6211 25.0781 -26.7930
v 13.9531 25.6992 -37.8477
v 13.9531 25.6992 -37.8477
v 0.0000 25.6641 -37.1719
v 33.3320 24.5312 -16.1406
v 29.5117 23.3125 1.8828
v 27.5898 32.3398 -13.1250
v 20.3086 34.3047 -23.0898
v 11.2461 34.8633 -28.0000
v 0.0000 34.0234 -33.6875
v 27.5898 32.3398 -13.1250
v 19.0742 40.8477 -25.1328
v 24.0430 40.2656 -14.3555
v 24.0430 40.2656 -14.3555
v -25.3828 39.9766 10.6797
v -25.7852 35.5469 13.1562
v -20.8633 41.2383 19.2617
v -23.1367 48.0117 12.0000
v -24.5117 46.9062 3.5547
v -13.8516 49.9648 22.1602
v -7.3516 59.4922 18.3906
v -15.3555 56.7031 16.6094
v -29.5938 32.0000 2.0000
v -27.3672 40.0000 -3.8047
v -30.5625 8.0039 -14.8516
v -19.5625 8.2656 -24.3906
v -23.8164 3.8320 -11.8555
v -10.0664 3.8320 -30.3438
v -19.5625 8.2656 -24.3906
v -12.4336 8.4844 -33.8750
v -12.4336 8.4844 -33.8750
v 0.0000 8.4766 -33.3008
v -10.0664 3.8320 -30.3438
v -30.5625 8.0039 -14.8516
v -23.8164 3.8320 -11.8555
v -27.7422 7.1719 -0.5391
v -27.0859 16.2188 -13.4219
v -24.9492 16.8945 -28.7930
v -24.9492 16.8945 -28.7930
v -11.1797 17.0781 -33.1641
v -11.1797 17.0781 -33.1641
v 0.0000 17.2930 -38.8516
v -27.0859 16.2188 -13.4219
v -33.1211 15.3711 -2.8281
v -33.3320 24.5312 -16.1406
v -21.6211 25.0781 -26.7930
v -21.6211 25.0781 -26.7930
v -13.9531 25.6992 -37.8477
v -13.9531 25.6992 -37.8477
v 0.0000 25.6641 -37.1719
v -33.3320 24.5312 -16.1406
v -29.5117 23.3125 1.8828
v -27.5898 32.3398 -13.1250
v -20.3086 34.3047 -23.0898
v -11.2461 34.8633 -28.0000
v 0.0000 34.0234 -33.6875
v -27.5898 32.3398 -13.1250
v -24.0430 40.2656 -14.3555
v -19.0742 40.8477 -25.1328
v -24.0430 40.2656 -14.3555
v 11.2461 34.8633 -28.0000
v 0.0000 34.0234 -33.6875
v -11.2461 34.8633 -28.0000
v -19.0742 40.8477 -25.1328
v -7.3516 59.4922 18.3906
v -13.8516 49.9648 22.1602
v -7.3711 56.6680 16.3125
v -22.1953 36.0469 -1.9453
v -20.8633 41.2383 19.2617
v -25.7852 35.5469 13.1562
v -29.5938 32.0000 2.0000
v -29.5117 23.3125 1.8828
v -21.4180 20.5000 -4.7070
v -33.1211 15.3711 -2.8281
v -27.7422 7.1719 -0.5391
v -10.0664 3.8320 -30.3438
v 0.0000 24.2383 -20.1484
v -19.5625 8.2656 -24.3906
v -23.8164 3.8320 -11.8555
v 0.0000 8.4766 -33.3008
v 10.0664 3.8320 -30.3438
v 19.5625 8.2656 -24.3906
v 23.8164 3.8320 -11.8555
v 21.4180 20.5000 -4.7070
v 27.7422 7.1719 -0.5391
v 33.1211 15.3711 -2.8281
v 29.5117 23.3125 1.8828
v 29.5938 32.0000 2.0000
v 22.1953 36.0469 -1.9453
v 7.3516 59.4922 18.3906
v 7.3711 56.6680 16.3125
v 13.8516 49.9648 22.1602
v 20.8633 41.2383 19.2617
v 25.7852 35.5469 13.1562
f 1 2 3
f 1 5 2
f 1 4 5
f 1 10 4
f 9 10 1
f 3 9 1
f 38 43 9
f 37 43 38
f 37 38 29
f 30 29 38
f 21 29 30
f 20 29 21
f 20 21 22
f 6 2 5
f 6 5 7
f 6 7 8
f 11 12 13
f 11 13 23
f 13 24 23
f 23 24 32
f 31 23 32
f 31 32 39
f 32 40 39
f 44 39 40
f 44 45 39
f 40 41 44
f 33 41 40
f 34 41 33
f 26 34 33
f 25 26 33
f 25 16 26
f 16 15 26
f 14 15 16
f 17 18 19
f 17 19 27
f 19 28 27
f 27 28 36
f 35 27 36
f 36 41 35
f 36 42 41
f 46 10 43
f 9 43 10
f 47 48 49
f 47 49 50
f 47 50 51
f 51 56 47
f 55 47 56
f 48 47 55
f 84 55 89
f 83 84 89
f 83 75 84
f 76 84 75
f 68 76 75
f 66 68 75
f 66 67 68
f 52 50 49
f 52 54 50
f 52 53 54
f 57 58 59
f 57 69 58
f 58 69 70
f 69 78 70
f 77 78 69
f 77 85 78
f 78 85 86
f 86 85 91
f 86 91 87
f 79 86 87
f 79 87 80
f 72 79 80
f 71 79 72
f 71 72 61
f 61 72 62
f 60 61 62
f 63 64 65
f 63 73 64
f 64 73 74
f 73 82 74
f 81 82 73
f 81 87 82
f 82 87 88
f 88 95 96
f 85 90 91
f 89 56 92
f 55 56 89
f 44 93 94
f 97 98 99
f 99 98 100
f 98 101 100
f 101 102 100
f 102 103 100
f 103 105 100
f 104 105 103
f 106 105 104
f 107 105 106
f 105 107 109
f 107 111 109
f 110 109 111
f 108 109 110
f 108 112 109
f 109 112 113
f 113 114 109
f 114 115 109
f 115 117 109
f 116 109 117
f 118 116 117
f 118 119 116
f 119 120 116
f 116 120 121
f 121 120 126
f 125 121 126
f 124 121 125
f 123 121 124
f 122 123 124
