v -20.0586 35.1406 22.2188
v -20.7266 43.7305 20.0742
v -28.2617 33.4336 12.5000
v 0.8789 57.6836 26.1602
v -10.3242 51.3672 25.9609
v -0.6797 45.4375 31.8945
v -11.2695 39.5547 29.3125
v 11.8438 39.9141 -34.2031
v 20.2930 39.9141 -26.2773
v 10.6797 20.4180 -33.7344
v 19.2617 19.2188 -26.2500
v 0.0000 -0.1250 -29.2500
v 10.8438 1.2344 -24.5469
v 0.0000 20.4180 -35.2812
v 0.0000 68.6914 -0.0938
v 10.5977 66.9648 -0.0898
v 0.0000 65.5469 -18.8203
v 19.6797 58.1797 -15.8359
v 25.9180 44.5625 -12.5117
v 26.8203 48.2070 -1.1367
v 18.7617 61.0625 3.3672
v 11.6641 54.9688 -29.7422
v 0.0000 56.1797 -31.4570
v 19.1172 4.0938 -15.1875
v 25.6445 16.0000 -15.0000
v 21.0820 0.3828 -6.8984
v 11.0273 -4.6172 -15.1641
v 10.3477 62.7500 17.2500
v 18.7617 57.0000 17.7422
v 21.0820 0.3828 -6.8984
v 26.7734 9.1562 0.6406
v 18.3477 14.5273 -4.0859
v 28.5000 19.2266 6.0000
v 19.7148 36.3789 7.0625
v 28.2617 33.4336 12.5000
v 11.0273 -4.6172 -15.1641
v 0.0000 -6.0000 -17.8750
v 0.0000 -6.0000 -17.8750
v 0.0000 9.9062 -14.7500
v 26.5898 33.4336 -16.0000
v 28.9414 33.3398 -4.1641
v 28.2617 33.4336 12.5000
v 24.0703 46.3789 15.2109
v 26.7734 9.1562 0.6406
v 28.5000 19.2266 6.0000
v 0.0000 41.0781 -36.1641
v -11.8438 39.9141 -34.2031
v -10.6797 20.4180 -33.7344
v -20.2930 39.9141 -26.2773
v -26.5898 33.4336 -16.0000
v -25.9180 44.5625 -12.5117
v -19.2617 19.2188 -26.2500
v -25.6445 16.0000 -15.0000
v -19.6797 58.1797 -15.8359
v -10.5977 66.9648 -0.0898
v -18.7617 61.0625 3.3672
v -21.0820 0.3828 -6.8984
v -19.1172 4.0938 -15.1875
v -11.0273 -4.6172 -15.1641
v -10.8438 1.2344 -24.5469
v -10.3477 62.7500 17.2500
v -18.7617 57.0000 17.7422
v 0.0000 64.2500 17.6562
v -11.6641 54.9688 -29.7422
v -26.7734 9.1562 0.6406
v -28.5000 19.2266 6.0000
v -21.0820 0.3828 -6.8984
v -18.3477 14.5273 -4.0859
v -26.7734 9.1562 0.6406
v -28.5000 19.2266 6.0000
v -19.7148 36.3789 7.0625
v -28.2617 33.4336 12.5000
v -11.0273 -4.6172 -15.1641
v -28.9414 33.3398 -4.1641
v -26.8203 48.2070 -1.1367
v -25.6680 44.5742 10.8750
v -20.0586 35.1406 22.2188
v 18.7617 57.0000 17.7422
v 11.4375 52.6211 26.8906
v 14.0703 53.8398 12.4766
v -11.2695 39.5547 29.3125
v -0.6797 45.4375 31.8945
v 24.0703 46.3789 15.2109
v -4.0547 26.9883 -48.5000
v 4.0547 26.9883 -48.5000
v -2.3906 16.3633 -45.5508
v 2.3906 16.3633 -45.5508
v -4.3906 34.2266 -48.5625
v 4.3906 34.2266 -48.5625
v -6.6328 33.4414 -40.6641
v -4.6602 19.9023 -41.3672
v 0.0000 26.3984 -37.7031
v 0.0000 6.0977 -40.7617
v 6.6328 33.4414 -40.6641
v 4.6602 19.9023 -41.3672
v 4.0547 42.9531 -47.0000
v -4.0547 42.9531 -47.0000
v 4.7305 45.8672 -36.3789
v 2.6250 49.8359 -41.3789
v -2.6250 49.8359 -41.3789
v -4.7305 45.8672 -36.3789
v 1.6797 52.1484 -32.1289
v -1.6797 52.1484 -32.1289
v 11.4375 52.6211 26.8906
v 0.0000 39.6758 -34.7148
f 1 2 3
f 7 2 1
f 5 2 7
f 6 5 7
f 4 5 6
f 5 4 61
f 62 5 61
f 61 56 62
f 55 56 61
f 54 56 55
f 54 55 17
f 54 17 64
f 49 54 64
f 51 54 49
f 49 50 51
f 49 52 50
f 49 48 52
f 47 48 49
f 47 14 48
f 46 14 47
f 8 14 46
f 8 46 22
f 22 9 8
f 22 18 9
f 18 22 17
f 17 16 18
f 15 16 17
f 17 55 15
f 55 63 15
f 61 63 55
f 61 4 63
f 4 28 63
f 28 4 104
f 28 104 29
f 28 29 21
f 16 28 21
f 18 16 21
f 20 18 21
f 19 18 20
f 9 18 19
f 9 19 40
f 40 11 9
f 25 11 40
f 24 11 25
f 13 11 24
f 13 10 11
f 12 10 13
f 12 14 10
f 12 48 14
f 60 48 12
f 52 48 60
f 60 58 52
f 58 60 59
f 57 58 59
f 65 58 57
f 53 58 65
f 53 65 66
f 74 53 66
f 3 74 66
f 74 3 75
f 51 74 75
f 51 75 54
f 54 75 56
f 56 75 62
f 62 75 76
f 76 2 62
f 3 2 76
f 75 3 76
f 8 9 10
f 10 14 8
f 10 9 11
f 22 23 17
f 22 46 23
f 23 46 64
f 17 23 64
f 49 64 47
f 64 46 47
f 26 27 24
f 26 24 44
f 44 24 25
f 44 25 45
f 45 25 41
f 42 45 41
f 41 20 42
f 41 19 20
f 40 19 41
f 40 41 25
f 27 12 13
f 24 27 13
f 37 12 27
f 12 37 59
f 60 12 59
f 30 31 32
f 30 32 36
f 39 36 32
f 38 36 39
f 39 73 38
f 68 73 39
f 67 73 68
f 67 68 69
f 69 68 70
f 68 72 70
f 71 72 68
f 72 71 77
f 71 80 77
f 77 80 79
f 77 79 81
f 79 82 81
f 78 79 80
f 83 78 80
f 34 83 80
f 35 83 34
f 33 35 34
f 32 33 34
f 32 31 33
f 42 20 43
f 20 21 43
f 21 29 43
f 50 52 53
f 50 53 74
f 50 74 51
f 52 58 53
f 2 5 62
f 84 85 86
f 84 89 85
f 88 89 84
f 96 89 88
f 96 88 97
f 96 97 99
f 98 96 99
f 96 98 89
f 98 94 89
f 105 94 98
f 92 94 105
f 94 92 95
f 95 85 94
f 87 85 95
f 86 85 87
f 86 87 93
f 93 91 86
f 92 91 93
f 90 91 92
f 91 90 84
f 86 91 84
f 90 88 84
f 101 88 90
f 97 88 101
f 100 97 101
f 99 97 100
f 99 100 102
f 99 102 98
f 102 100 103
f 100 101 103
f 101 90 105
f 105 90 92
f 93 95 92
f 93 87 95
f 89 94 85
f 15 63 16
f 16 63 28
f 104 4 6
