v 14.4180 58.3984 5.9492
v 12.7734 60.0664 15.9961
v 18.3477 53.6133 14.4688
v 18.3438 44.5781 19.4727
v 0.0000 44.0000 -0.0508
v 5.4570 52.5117 23.5273
v 13.6953 52.5273 19.3750
v 18.3477 53.6133 14.4688
v 9.0273 43.5312 24.6289
v 0.0000 43.5000 25.9688
v -9.0273 43.5312 24.6289
v -18.3438 44.5781 19.4727
v -18.3477 53.6133 14.4688
v -12.7734 60.0664 15.9961
v -14.4180 58.3984 5.9492
v -18.3477 53.6133 14.4688
v -13.6953 52.5273 19.3750
v -5.4570 52.5117 23.5273
v 0.0000 60.5469 19.3008
v -18.3438 44.5781 19.4727
v -9.0273 43.5312 24.6289
v 0.0000 43.5000 25.9688
v 18.3438 44.5781 19.4727
v 9.0273 43.5312 24.6289
v 28.1094 18.2773 5.0000
v 29.2617 34.1680 6.6289
v 26.8438 32.9336 14.9219
v 17.6992 55.4062 13.9688
v 20.5938 48.4414 15.7383
v 24.8125 42.3047 -2.6211
v 30.0000 30.0000 -3.0000
v 0.0000 -15.0000 -20.1328
v 0.0000 -2.0000 -29.0000
v 7.0000 -7.0000 -22.0000
v 25.0000 12.0000 -16.0000
v 23.0000 2.0000 -9.0000
v 15.5586 -12.3164 -14.0000
v 19.9844 23.7695 -26.0508
v 26.0977 33.6914 -16.0000
v 10.2891 10.3984 -31.9688
v 11.3984 34.1562 -30.4453
v 0.0000 22.0000 -34.8164
v 19.3555 35.5977 -24.9492
v 0.0000 33.5469 -34.3477
v 24.6250 37.2383 -17.0586
v 28.0000 14.0000 -6.0000
v 15.0859 -0.2188 -24.4883
v 0.0000 -15.0000 -20.1328
v 7.0000 -7.0000 -22.0000
v 10.0430 4.8906 -12.5508
v 23.0000 2.0000 -9.0000
v 28.0000 14.0000 -6.0000
v 15.5586 -12.3164 -14.0000
v -10.0430 4.8906 -12.5508
v -17.6992 55.4062 13.9688
v -24.8125 42.3047 -2.6211
v -20.5938 48.4414 15.7383
v -29.2617 34.1680 6.6289
v -26.8438 32.9336 14.9219
v -28.1094 18.2773 5.0000
v -30.0000 30.0000 -3.0000
v -7.0000 -7.0000 -22.0000
v -10.2891 10.3984 -31.9688
v -15.0859 -0.2188 -24.4883
v -25.0000 12.0000 -16.0000
v -15.5586 -12.3164 -14.0000
v -19.9844 23.7695 -26.0508
v -26.0977 33.6914 -16.0000
v -19.3555 35.5977 -24.9492
v -11.3984 34.1562 -30.4453
v -24.6250 37.2383 -17.0586
v -28.0000 14.0000 -6.0000
v -23.0000 2.0000 -9.0000
v -7.0000 -7.0000 -22.0000
v -23.0000 2.0000 -9.0000
v -28.0000 14.0000 -6.0000
v -15.5586 -12.3164 -14.0000
v -16.4141 52.7891 13.4062
v -17.6992 55.4062 13.9688
v -20.5938 48.4414 15.7383
v -28.1094 18.2773 5.0000
v -22.4844 23.4219 3.9883
v -26.8438 32.9336 14.9219
v -24.0000 32.7969 -2.4102
v -30.0000 30.0000 -3.0000
v -8.7852 9.7773 -10.9883
v 8.7852 9.7773 -10.9883
v 30.0000 30.0000 -3.0000
v 24.0000 32.7969 -2.4102
v 22.4844 23.4219 3.9883
v 28.1094 18.2773 5.0000
v 26.8438 32.9336 14.9219
v 16.4141 52.7891 13.4062
v 20.5938 48.4414 15.7383
v 17.6992 55.4062 13.9688
f 1 2 3
f 5 1 3
f 4 5 3
f 9 5 4
f 9 10 5
f 10 11 5
f 12 5 11
f 12 13 5
f 5 13 15
f 14 15 16
f 16 17 14
f 16 20 17
f 21 17 20
f 18 17 21
f 14 17 18
f 14 18 19
f 19 18 6
f 2 19 6
f 6 7 2
f 24 7 6
f 23 7 24
f 23 8 7
f 7 8 2
f 22 6 18
f 21 22 18
f 22 24 6
f 25 26 27
f 31 26 25
f 31 30 26
f 31 39 30
f 31 35 39
f 46 35 31
f 46 36 35
f 35 36 37
f 37 47 35
f 37 34 47
f 34 33 47
f 32 33 34
f 32 62 33
f 64 33 62
f 63 33 64
f 63 64 65
f 67 63 65
f 65 68 67
f 65 61 68
f 72 61 65
f 72 65 73
f 65 66 73
f 65 64 66
f 66 64 62
f 28 29 30
f 30 29 26
f 27 26 29
f 35 38 39
f 38 35 40
f 38 40 41
f 38 41 43
f 39 38 43
f 43 45 39
f 30 39 45
f 40 42 41
f 40 33 42
f 33 40 47
f 35 47 40
f 44 41 42
f 44 42 70
f 63 70 42
f 42 33 63
f 67 70 63
f 67 69 70
f 68 69 67
f 69 68 71
f 68 56 71
f 61 56 68
f 61 58 56
f 61 60 58
f 60 59 58
f 59 57 58
f 56 58 57
f 55 56 57
f 48 49 50
f 48 50 54
f 48 54 74
f 74 54 77
f 54 75 77
f 75 54 76
f 54 86 76
f 54 87 86
f 50 87 54
f 50 52 87
f 51 52 50
f 50 53 51
f 49 53 50
f 78 79 80
f 78 80 83
f 82 78 83
f 81 82 83
f 85 82 81
f 84 82 85
f 76 84 85
f 86 84 76
f 88 89 52
f 89 88 90
f 90 88 91
f 91 92 90
f 90 92 93
f 92 94 93
f 94 95 93
f 89 87 52
