v 0.0000 46.5078 -37.3242
v 0.0000 33.4336 -35.2422
v -10.8359 45.6562 -33.3047
v -13.1484 28.0664 -31.8633
v 0.0000 69.1914 -6.6875
v -10.8359 63.9883 -17.9219
v -11.8242 70.8203 -6.4805
v 0.0000 72.0000 6.0000
v -10.4023 66.4219 5.3398
v 0.0000 68.0000 15.0000
v -22.3789 64.4492 4.0547
v -20.0000 59.0000 13.0703
v -11.9570 58.0000 -30.0000
v -20.1719 51.0469 -21.3672
v -24.6328 34.5000 14.0000
v -26.4766 49.0000 7.0000
v -27.4570 30.7109 4.1133
v -20.7344 43.8711 -28.6680
v -26.1250 32.4727 -16.0000
v -25.4375 46.0000 -14.0000
v 0.0000 57.3359 -29.3750
v 0.0000 68.0000 -21.0000
v -22.6016 61.2695 -17.3359
v -20.3398 59.6562 -6.5234
v -29.0000 40.3984 -5.2734
v -30.6836 50.4492 -3.0000
v -21.9648 32.2188 2.9766
v -20.8047 24.7266 7.6836
v -27.4570 30.7109 4.1133
v -26.0039 21.3477 10.0000
v -11.1016 62.4766 19.0430
v -11.3398 69.2344 17.0000
v -13.9336 55.8594 24.2031
v -18.9961 45.2148 22.2539
v -21.6641 47.1328 16.0000
v 0.0000 65.3281 21.0430
v 0.0000 57.2227 9.0586
v -5.2500 36.0000 26.5586
v -11.5000 46.0078 28.4727
v -18.0078 35.2109 18.4102
v -21.6641 47.1328 16.0000
v -6.0000 56.8984 28.7344
v -24.6328 34.5000 14.0000
v -26.0039 21.3477 10.0000
v -18.0078 35.2109 18.4102
v -29.7539 31.8320 -7.0000
v -22.5469 22.6562 -24.9766
v 0.0000 22.0000 -37.0078
v -11.5000 46.0078 28.4727
v -26.3320 23.3164 -16.5000
v -3.9062 44.3125 32.1602
v -5.2500 36.0000 26.5586
v -0.4141 40.7500 30.5742
v 4.1758 46.2578 31.8359
v 10.8359 45.6562 -33.3047
v 13.1484 28.0664 -31.8633
v 11.8242 70.8203 -6.4805
v 10.8359 63.9883 -17.9219
v 10.4023 66.4219 5.3398
v 20.0000 59.0000 13.0703
v 22.3789 64.4492 4.0547
v 20.1719 51.0469 -21.3672
v 11.9570 58.0000 -30.0000
v 20.7344 43.8711 -28.6680
v 25.4375 46.0000 -14.0000
v 26.1250 32.4727 -16.0000
v 22.6016 61.2695 -17.3359
v 20.3398 59.6562 -6.5234
v 29.0000 40.3984 -5.2734
v 26.4766 49.0000 7.0000
v 27.4570 30.7109 4.1133
v 30.6836 50.4492 -3.0000
v 11.1016 62.4766 19.0430
v 11.3398 69.2344 17.0000
v 6.0000 56.8984 28.7344
v 8.0000 53.0000 29.7422
v 13.9336 55.8594 24.2031
v 14.7109 41.2773 25.0820
v 11.5000 46.0078 28.4727
v 21.6641 47.1328 16.0000
v 18.0078 35.2109 18.4102
v 18.9961 45.2148 22.2539
v 21.6641 47.1328 16.0000
v 24.6328 34.5000 14.0000
v 20.8047 24.7266 7.6836
v 24.6328 34.5000 14.0000
v 26.0039 21.3477 10.0000
v 26.0039 21.3477 10.0000
v 18.0078 35.2109 18.4102
v 14.7109 41.2773 25.0820
v 29.7539 31.8320 -7.0000
v 26.3320 23.3164 -16.5000
v 22.5469 22.6602 -24.9805
v 13.1289 4.6406 -20.0000
v 24.1875 18.4570 -7.4375
v 11.5000 46.0078 28.4727
v 4.1758 46.2578 31.8359
v 8.0000 53.0000 29.7422
v -13.1289 4.6406 -20.0000
v -24.1875 18.4570 -7.4375
v -9.0039 13.6406 -28.3750
v -10.6641 10.8906 -15.9727
v -13.1289 4.6406 -20.0000
v -24.1875 18.4570 -7.4375
v 0.0000 2.6406 -24.5508
v 9.0039 13.6406 -28.3750
v 13.1289 4.6406 -20.0000
v 10.6641 10.8906 -15.9727
v 24.1875 18.4570 -7.4375
v -9.0039 13.6406 -28.3750
v 0.0000 2.6406 -24.5508
v 9.0039 13.6406 -28.3750
v -0.4141 40.7500 30.5742
v 21.9648 32.2188 2.9766
v 27.4570 30.7109 4.1133
v 0.0000 10.8906 -17.0898
v 0.0000 2.6406 -24.5508
v 10.6641 10.8906 -15.9727
v -24.1875 18.4570 -7.4375
v -10.6641 10.8906 -15.9727
v 24.1875 18.4570 -7.4375
v 21.9648 32.2188 2.9766
v 10.6641 10.8906 -15.9727
v -10.6641 10.8906 -15.9727
v 0.0000 10.8906 -17.0898
v 21.9648 32.2188 2.9766
v 10.6641 10.8906 -15.9727
f 1 2 3
f 21 1 3
f 13 21 3
f 13 3 14
f 6 13 14
f 6 14 23
f 24 6 23
f 7 6 24
f 5 6 7
f 5 7 9
f 5 9 8
f 5 8 59
f 5 59 57
f 5 57 58
f 22 5 58
f 22 6 5
f 21 6 22
f 21 13 6
f 63 55 21
f 63 62 55
f 58 62 63
f 58 67 62
f 68 67 58
f 57 68 58
f 68 57 59
f 61 68 59
f 59 60 61
f 59 74 60
f 10 74 59
f 8 10 59
f 8 9 10
f 10 9 32
f 36 10 32
f 36 32 31
f 31 42 36
f 31 33 42
f 31 12 33
f 31 32 12
f 9 12 32
f 9 11 12
f 11 9 24
f 11 24 16
f 16 12 11
f 12 16 35
f 34 12 35
f 33 12 34
f 33 34 49
f 33 49 42
f 49 51 42
f 51 49 52
f 113 51 52
f 51 113 97
f 51 97 42
f 97 76 42
f 75 42 76
f 75 76 77
f 73 75 77
f 73 77 60
f 73 60 74
f 36 73 74
f 73 36 75
f 75 36 42
f 36 74 10
f 2 4 3
f 2 48 4
f 48 2 56
f 112 48 56
f 56 93 112
f 66 93 56
f 64 66 56
f 64 65 66
f 65 64 62
f 67 65 62
f 65 67 68
f 72 65 68
f 70 72 68
f 61 70 68
f 70 61 60
f 60 83 70
f 60 82 83
f 77 82 60
f 77 96 82
f 77 76 96
f 90 82 96
f 90 89 82
f 89 83 82
f 83 84 70
f 84 71 70
f 84 87 71
f 69 70 71
f 71 91 69
f 91 71 95
f 95 92 91
f 95 94 92
f 93 92 94
f 92 93 66
f 66 91 92
f 91 66 69
f 66 65 69
f 69 65 72
f 72 70 69
f 15 16 17
f 35 16 15
f 45 34 35
f 45 49 34
f 18 19 20
f 18 4 19
f 3 4 18
f 14 3 18
f 20 14 18
f 23 14 20
f 20 24 23
f 26 24 20
f 16 24 26
f 16 26 25
f 17 16 25
f 17 25 46
f 100 17 46
f 46 50 100
f 19 50 46
f 46 25 19
f 19 25 20
f 25 26 20
f 24 9 7
f 27 28 29
f 104 27 29
f 102 104 103
f 101 102 103
f 105 102 101
f 105 106 108
f 106 107 108
f 108 107 109
f 114 109 115
f 115 85 114
f 88 85 115
f 86 85 88
f 80 85 86
f 37 85 80
f 80 81 37
f 81 78 37
f 37 78 79
f 37 79 98
f 54 37 98
f 37 54 53
f 38 37 53
f 37 38 39
f 37 39 40
f 41 37 40
f 41 28 37
f 43 28 41
f 30 28 43
f 29 28 30
f 15 17 44
f 19 4 47
f 50 19 47
f 47 99 50
f 99 47 110
f 110 47 4
f 48 110 4
f 111 110 48
f 111 48 112
f 112 93 94
f 1 55 2
f 21 55 1
f 21 22 58
f 21 58 63
f 2 55 56
f 55 64 56
f 62 64 55
f 50 99 100
f 116 117 118
f 102 117 116
f 27 119 120
f 27 124 125
f 126 125 127
f 121 122 123
