v -25.5820 25.7188 -23.4531
v -18.9844 11.0000 -20.0000
v -26.6250 16.5000 -13.7070
v -28.6172 32.4180 -9.0312
v -17.4062 3.0000 -11.0000
v -29.6250 22.8594 -2.9531
v -16.1562 57.0000 14.8086
v -26.1992 42.3906 -1.5898
v -24.0000 46.2188 9.0273
v -27.1406 36.1758 6.0000
v -26.8711 33.5898 12.0117
v -23.6875 34.5586 15.3516
v -21.2695 42.0078 17.4844
v -24.5430 26.6445 10.0000
v -31.4219 28.6445 0.5000
v -27.4570 16.0000 6.0000
v -14.3945 10.4492 -27.8750
v -15.7148 25.7188 -32.4805
v -10.7539 2.0000 -21.4453
v -7.4570 10.4492 -29.7773
v 0.0000 26.0469 -36.8242
v 0.0000 10.4492 -32.4609
v 0.0000 0.0000 -25.3672
v -23.0312 38.9297 -17.0586
v -13.1797 34.6953 -29.1836
v 0.0000 33.6445 -33.8086
v -18.3047 21.6641 5.9375
v -27.4570 16.0000 6.0000
v -19.7500 26.2383 -0.0273
v -29.6250 22.8594 -2.9531
v -24.5430 26.6445 10.0000
v -27.1406 36.1758 6.0000
v 0.0000 53.0000 -4.3359
v -17.4062 3.0000 -11.0000
v -18.9844 11.0000 -20.0000
v -13.9219 9.1289 -14.7539
v -7.7695 7.5312 -17.4883
v -10.7539 2.0000 -21.4453
v 0.0000 0.0000 -25.3672
v -7.4570 10.4492 -29.7773
v -11.1367 13.7969 -4.9453
v -9.8789 60.0391 16.5820
v -16.6602 49.6250 19.5781
v -5.4727 51.9297 23.7500
v -23.6875 34.5586 15.3516
v -21.2695 42.0078 17.4844
v -13.0430 43.3164 23.8242
v -18.6133 37.0000 21.3906
v -6.4766 37.0000 25.6445
v 0.0000 43.3164 25.6445
v -18.6133 37.0000 21.3906
v -13.0430 43.3164 23.8242
v 0.0000 43.3164 25.6445
v -6.4766 37.0000 25.6445
v 5.4727 51.9297 23.7500
v -18.3047 21.6641 5.9375
v 0.0000 53.0000 -4.3359
v 11.1367 13.7969 -4.9453
v 7.7695 7.5312 -17.4883
v 25.5820 25.7188 -23.4531
v 26.6250 16.5000 -13.7070
v 18.9844 11.0000 -20.0000
v 28.6172 32.4180 -9.0312
v 29.6250 22.8594 -2.9531
v 17.4062 3.0000 -11.0000
v 26.8711 33.5898 12.0117
v 27.1406 36.1758 6.0000
v 24.0000 46.2188 9.0273
v 26.1992 42.3906 -1.5898
v 16.1562 57.0000 14.8086
v 23.6875 34.5586 15.3516
v 21.2695 42.0078 17.4844
v 24.5430 26.6445 10.0000
v 31.4219 28.6445 0.5000
v 27.4570 16.0000 6.0000
v 15.7148 25.7188 -32.4805
v 14.3945 10.4492 -27.8750
v 10.7539 2.0000 -21.4453
v 7.4570 10.4492 -29.7773
v 23.0312 38.9297 -17.0586
v 13.1797 34.6953 -29.1836
v 18.3047 21.6641 5.9375
v 19.7500 26.2383 -0.0273
v 27.4570 16.0000 6.0000
v 29.6250 22.8594 -2.9531
v 24.5430 26.6445 10.0000
v 27.1406 36.1758 6.0000
v 17.4062 3.0000 -11.0000
v 13.9219 9.1289 -14.7539
v 18.9844 11.0000 -20.0000
v 10.7539 2.0000 -21.4453
v 7.4570 10.4492 -29.7773
v 23.6875 34.5586 15.3516
v 21.2695 42.0078 17.4844
v 13.0430 43.3164 23.8242
v 18.6133 37.0000 21.3906
v 6.4766 37.0000 25.6445
v 18.6133 37.0000 21.3906
v 16.6602 49.6250 19.5781
v 13.0430 43.3164 23.8242
v 6.4766 37.0000 25.6445
v 9.8789 60.0391 16.5820
v 7.7695 7.5312 -17.4883
v 13.9219 9.1289 -14.7539
v 0.0000 53.0000 -4.3359
v 27.1406 36.1758 6.0000
f 1 2 3
f 1 3 4
f 1 4 24
f 24 25 1
f 1 25 18
f 17 1 18
f 2 1 17
f 17 19 2
f 19 17 20
f 18 20 17
f 21 20 18
f 21 22 20
f 21 79 22
f 21 76 79
f 76 21 81
f 60 76 81
f 76 60 77
f 76 77 79
f 78 79 77
f 77 62 78
f 60 62 77
f 60 61 62
f 60 63 61
f 60 80 63
f 80 60 81
f 80 69 63
f 69 74 63
f 69 67 74
f 67 69 68
f 66 67 68
f 66 68 72
f 71 66 72
f 66 71 73
f 67 66 73
f 67 75 74
f 64 74 75
f 74 64 63
f 63 64 61
f 61 64 65
f 62 61 65
f 3 5 6
f 2 5 3
f 4 3 6
f 15 4 6
f 8 4 15
f 8 15 10
f 9 8 10
f 7 8 9
f 9 43 7
f 13 43 9
f 11 13 9
f 11 9 10
f 10 14 11
f 11 14 12
f 12 13 11
f 43 13 51
f 51 52 43
f 43 52 44
f 42 43 44
f 43 42 7
f 102 42 55
f 102 55 99
f 99 70 102
f 70 99 68
f 68 69 70
f 99 72 68
f 99 98 72
f 98 99 100
f 99 55 100
f 55 101 100
f 53 101 55
f 44 53 55
f 53 44 54
f 54 44 52
f 55 42 44
f 10 15 16
f 6 16 15
f 22 23 20
f 22 79 23
f 26 21 25
f 81 21 26
f 25 21 18
f 27 28 29
f 29 28 30
f 30 41 29
f 34 41 30
f 34 36 41
f 34 35 36
f 38 36 35
f 37 36 38
f 38 40 37
f 39 37 40
f 59 37 39
f 41 37 59
f 36 37 41
f 58 41 59
f 88 85 58
f 88 58 89
f 88 89 90
f 91 90 89
f 59 91 89
f 91 59 92
f 39 92 59
f 31 32 33
f 31 33 45
f 46 45 33
f 48 46 33
f 47 48 33
f 49 47 33
f 49 33 50
f 97 50 33
f 97 33 95
f 95 33 96
f 96 33 94
f 94 33 93
f 86 93 33
f 86 33 87
f 28 56 32
f 32 56 57
f 24 4 8
f 82 83 84
f 106 82 84
f 105 82 106
f 83 85 84
f 85 83 58
f 58 103 104
