v 0.0000 68.6445 6.1172
v 10.5977 66.9453 5.8203
v 0.0000 69.2383 -6.3125
v 10.5977 67.4883 -6.0039
v 18.7617 58.1797 -15.8359
v 10.5977 63.9922 -17.6406
v 0.0000 65.5625 -18.5469
v 10.5977 56.1133 -27.0273
v 0.0000 57.2812 -28.4180
v 19.7852 43.6992 -26.3945
v 10.5977 45.5039 -33.1562
v 0.0000 46.1250 -34.8594
v 0.0000 33.4336 -35.2422
v 10.6641 19.6953 -25.1328
v 0.0000 22.0156 -31.3750
v 11.3047 33.4336 -33.5195
v 24.0000 21.9062 -8.5234
v 26.1250 33.4336 -16.0000
v 27.3633 32.9688 0.0000
v 25.4375 44.2617 -12.9023
v 0.0000 50.3203 29.0000
v 5.0000 57.3203 25.0586
v 0.0000 58.0000 26.0000
v 0.0000 64.5000 18.0000
v 10.5977 62.5000 17.0000
v 20.1016 61.5859 3.0820
v 25.4375 49.0000 8.0000
v 27.8750 42.9258 -1.4297
v 25.4375 52.9570 -2.8633
v 10.0000 49.0000 26.0000
v 5.0000 49.7578 27.0000
v 10.0000 39.0000 25.0000
v 10.0000 39.0000 25.0000
v 5.0000 49.7578 27.0000
v 0.0000 45.5391 6.8750
v 10.0000 56.0000 24.0000
v 15.0000 48.1562 23.0312
v 18.5625 36.3867 20.0000
v 19.0000 46.4453 21.0000
v 0.0000 39.0000 27.0000
v 0.0000 39.0000 27.0000
v 27.3633 32.9688 0.0000
v 24.8633 27.0000 11.0000
v 0.0000 34.0156 0.0000
v 19.7852 24.1953 -25.3828
v 18.6641 15.5547 -13.8867
v 18.7617 58.5000 14.0000
v 23.0586 44.0391 16.5977
v 20.7578 51.4609 18.7695
v 0.0000 9.6289 -19.1055
v 27.3125 39.0000 8.0000
v 24.0000 21.9062 -8.5234
v 14.5000 54.3203 22.1289
v 23.0586 44.0391 16.5977
v 18.5625 36.3867 20.0000
v 15.0000 48.1562 23.0312
v 24.8633 27.0000 11.0000
v -10.5977 66.9453 5.8203
v -10.5977 67.4883 -6.0039
v -10.5977 63.9922 -17.6406
v -18.7617 58.1797 -15.8359
v -10.5977 56.1133 -27.0273
v -10.5977 45.5039 -33.1562
v -19.7852 43.6992 -26.3945
v -10.6641 19.6953 -25.1328
v -11.3047 33.4336 -33.5195
v -24.0000 21.9062 -8.5234
v -27.3633 32.9688 0.0000
v -26.1250 33.4336 -16.0000
v -25.4375 44.2617 -12.9023
v -5.0000 57.3203 25.0586
v -5.0000 49.7578 27.0000
v -10.5977 62.5000 17.0000
v -20.1016 61.5859 3.0820
v -25.4375 49.0000 8.0000
v -25.4375 52.9570 -2.8633
v -27.8750 42.9258 -1.4297
v -10.0000 49.0000 26.0000
v -10.0000 39.0000 25.0000
v -10.0000 39.0000 25.0000
v -5.0000 49.7578 27.0000
v -10.0000 56.0000 24.0000
v -15.0000 48.1562 23.0312
v -19.0000 46.4453 21.0000
v -18.5625 36.3867 20.0000
v -27.3633 32.9688 0.0000
v -24.8633 27.0000 11.0000
v -19.7852 24.1953 -25.3828
v -18.6641 15.5547 -13.8867
v -18.7617 58.5000 14.0000
v -20.7578 51.4609 18.7695
v -23.0586 44.0391 16.5977
v -27.3125 39.0000 8.0000
v -24.0000 21.9062 -8.5234
v -14.5000 54.3203 22.1289
v -18.5625 36.3867 20.0000
v -23.0586 44.0391 16.5977
v -15.0000 48.1562 23.0312
v -24.8633 27.0000 11.0000
v 18.6641 15.5547 -13.8867
v 24.0000 21.9062 -8.5234
v 0.0000 34.0156 0.0000
v -18.6641 15.5547 -13.8867
v 0.0000 34.0156 0.0000
f 1 2 3
f 1 25 2
f 24 25 1
f 24 22 25
f 24 23 22
f 24 71 23
f 73 71 24
f 24 1 73
f 1 58 73
f 1 3 58
f 3 59 58
f 7 59 3
f 7 3 4
f 6 7 4
f 4 5 6
f 5 4 26
f 5 26 29
f 5 29 20
f 5 20 10
f 10 8 5
f 8 10 11
f 11 12 8
f 11 13 12
f 11 16 13
f 10 16 11
f 45 16 10
f 14 16 45
f 14 15 16
f 15 14 50
f 15 50 65
f 65 66 15
f 65 88 66
f 65 89 88
f 50 89 65
f 50 14 46
f 46 14 45
f 46 45 17
f 17 45 18
f 17 18 19
f 19 18 28
f 51 19 28
f 19 51 57
f 51 48 57
f 27 48 51
f 51 28 27
f 27 28 29
f 27 29 26
f 26 47 27
f 26 2 47
f 26 4 2
f 3 2 4
f 2 25 47
f 53 47 25
f 53 25 36
f 53 36 30
f 53 30 37
f 39 53 37
f 37 38 39
f 48 39 38
f 39 48 49
f 49 53 39
f 49 47 53
f 27 47 49
f 49 48 27
f 5 8 6
f 9 6 8
f 7 6 9
f 7 9 60
f 60 59 7
f 59 60 61
f 61 74 59
f 61 76 74
f 61 70 76
f 61 64 70
f 64 61 62
f 62 63 64
f 63 62 12
f 63 12 13
f 63 13 66
f 64 63 66
f 88 64 66
f 88 69 64
f 69 88 67
f 67 68 69
f 68 77 69
f 93 77 68
f 68 99 93
f 93 99 92
f 75 93 92
f 93 75 77
f 75 76 77
f 75 74 76
f 74 75 90
f 74 90 58
f 74 58 59
f 58 90 73
f 73 90 95
f 73 95 82
f 82 71 73
f 72 71 82
f 71 72 21
f 71 21 23
f 21 22 23
f 21 31 22
f 31 21 40
f 72 40 21
f 78 79 72
f 82 78 72
f 78 82 95
f 78 95 83
f 78 83 79
f 83 84 85
f 83 95 84
f 95 91 84
f 95 90 91
f 75 91 90
f 91 75 92
f 84 91 92
f 92 85 84
f 12 9 8
f 12 62 9
f 9 62 60
f 61 60 62
f 16 15 13
f 66 13 15
f 30 31 32
f 36 31 30
f 31 36 22
f 25 22 36
f 33 34 35
f 35 56 33
f 35 55 56
f 35 54 55
f 54 35 43
f 35 44 43
f 44 35 87
f 86 44 87
f 94 44 86
f 94 103 104
f 35 34 41
f 35 41 81
f 80 35 81
f 35 80 98
f 35 98 96
f 35 96 97
f 87 35 97
f 42 43 44
f 52 42 44
f 18 10 20
f 45 10 18
f 18 20 28
f 20 29 28
f 30 32 37
f 69 70 64
f 69 77 70
f 70 77 76
f 88 89 67
f 100 101 102
