v -24.7227 53.6523 9.6758
v -19.5117 61.2539 12.0820
v -25.1875 56.4219 -2.8633
v -19.5117 61.2539 12.0820
v -19.4062 64.8594 0.1836
v -10.3477 69.8242 2.1797
v -26.2969 33.4336 0.0000
v -24.0000 33.4336 9.0273
v -27.1836 43.8242 4.3945
v -18.6641 15.5547 -13.8867
v -19.7852 24.1953 -25.3828
v 0.0000 9.6289 -19.1055
v -7.5352 22.3867 -30.3516
v -26.2969 33.4336 0.0000
v -25.7617 33.9414 -14.1016
v -21.4492 43.9648 -30.5352
v -7.5352 22.3867 -30.3516
v -19.7852 24.1953 -25.3828
v -24.0000 46.2188 9.0273
v -7.5352 22.3867 -30.3516
v 0.0000 36.1289 -36.2812
v 7.5352 22.3867 -30.3516
v -25.7617 33.9414 -14.1016
v -21.4492 43.9648 -30.5352
v -21.4492 43.9648 -30.5352
v -27.1836 43.8242 4.3945
v -25.1875 56.4219 -2.8633
v -25.7617 33.9414 -14.1016
v -26.2969 33.4336 0.0000
v -21.4492 43.9648 -30.5352
v 24.7227 53.6523 9.6758
v 25.1875 56.4219 -2.8633
v 19.5117 61.2539 12.0820
v 19.4062 64.8594 0.1836
v 10.3477 69.8242 2.1797
v 26.2969 33.4336 0.0000
v 27.1836 43.8242 4.3945
v 24.0000 33.4336 9.0273
v 18.6641 15.5547 -13.8867
v 19.7852 24.1953 -25.3828
v 7.5352 22.3867 -30.3516
v 26.2969 33.4336 0.0000
v 25.7617 33.9414 -14.1016
v 21.4492 43.9648 -30.5352
v 19.7852 24.1953 -25.3828
v 7.5352 22.3867 -30.3516
v 21.4492 43.9648 -30.5352
v 25.7617 33.9414 -14.1016
v 21.4492 43.9648 -30.5352
v 26.2969 33.4336 0.0000
v 25.7617 33.9414 -14.1016
v 27.1836 43.8242 4.3945
v 21.4492 43.9648 -30.5352
v 25.1875 56.4219 -2.8633
v 27.1836 43.8242 4.3945
v -17.6992 52.2305 15.6250
v -24.7227 53.6523 9.6758
v -10.0000 57.0898 17.7695
v -10.1719 65.1602 13.3047
v 17.6992 52.2305 15.6250
v 24.7227 53.6523 9.6758
v 19.5117 61.2539 12.0820
v 10.0000 57.0898 17.7695
v 0.0000 66.6602 13.9297
v 0.0000 58.2969 18.7422
v 10.1719 65.1602 13.3047
v 17.6992 52.2305 15.6250
v 24.0000 46.2188 9.0273
v 0.0000 70.7383 2.3438
v 0.0000 66.6602 13.9297
v 0.0000 66.6602 13.9297
v 0.0000 70.7383 2.3438
v -34.6133 32.8945 -7.6250
v -28.2148 35.1641 -19.3164
v -29.7227 23.8359 -7.2227
v -20.4453 26.9844 -31.4883
v -28.2148 35.1641 -19.3164
v -26.5820 37.6953 -33.4727
v -26.5820 37.6953 -33.4727
v -12.9102 40.0898 -38.8320
v -20.4453 26.9844 -31.4883
v 0.0000 29.4453 -41.2344
v -12.9102 40.0898 -38.8320
v 0.0000 40.5898 -46.0586
v -31.0820 41.9922 -2.3555
v -34.1719 45.1211 -18.0938
v -34.1719 45.1211 -18.0938
v -25.1016 49.1328 -29.7188
v -25.1016 49.1328 -29.7188
v -15.9766 51.3398 -42.3555
v -15.9766 51.3398 -42.3555
v 0.0000 52.1875 -41.5352
v -34.1250 53.5781 -3.8398
v -29.9062 55.4180 -14.8789
v -29.9062 55.4180 -14.8789
v -28.0195 61.0820 -29.3047
v -28.0195 61.0820 -29.3047
v -13.7383 60.9570 -35.9180
v -13.7383 60.9570 -35.9180
v 0.0000 64.3438 -41.4258
v -25.6094 61.7773 0.4766
v -27.0156 69.1211 -11.5117
v -27.0156 69.1211 -11.5117
v -21.0195 67.4062 -22.6133
v -12.8789 74.7539 -27.7617
v -12.8789 74.7539 -27.7617
v 0.0000 71.8477 -27.6211
v -19.0703 72.8828 1.3477
v -17.9922 70.9961 -7.1328
v -8.3203 72.9609 -12.1055
v 0.0000 37.2461 6.9648
v -29.7227 23.8359 -7.2227
v -28.2148 35.1641 -19.3164
v -20.4453 26.9844 -31.4883
v 0.0000 76.6680 -12.0000
v 0.0000 71.5820 4.2812
v -31.0820 41.9922 -2.3555
v -34.6133 32.8945 -7.6250
v -34.1250 53.5781 -3.8398
v -25.6094 61.7773 0.4766
v 0.0000 37.2461 6.9648
v -12.9102 40.0898 -38.8320
v 0.0000 29.4453 -41.2344
v -20.4453 26.9844 -31.4883
v -19.0703 72.8828 1.3477
v 0.0000 71.5820 4.2812
v 34.6133 32.8945 -7.6250
v 29.7227 23.8359 -7.2227
v 28.2148 35.1641 -19.3164
v 20.4453 26.9844 -31.4883
v 26.5820 37.6953 -33.4727
v 28.2148 35.1641 -19.3164
v 26.5820 37.6953 -33.4727
v 20.4453 26.9844 -31.4883
v 12.9102 40.0898 -38.8320
v 0.0000 29.4453 -41.2344
v 0.0000 40.5898 -46.0586
v 12.9102 40.0898 -38.8320
v 31.0820 41.9922 -2.3555
v 34.1719 45.1211 -18.0938
v 34.1719 45.1211 -18.0938
v 25.1016 49.1328 -29.7188
v 25.1016 49.1328 -29.7188
v 15.9766 51.3398 -42.3555
v 15.9766 51.3398 -42.3555
v 0.0000 52.1875 -41.5352
v 34.1250 53.5781 -3.8398
v 29.9062 55.4180 -14.8789
v 29.9062 55.4180 -14.8789
v 28.0195 61.0820 -29.3047
v 28.0195 61.0820 -29.3047
v 13.7383 60.9570 -35.9180
v 13.7383 60.9570 -35.9180
v 0.0000 64.3438 -41.4258
v 25.6094 61.7773 0.4766
v 27.0156 69.1211 -11.5117
v 27.0156 69.1211 -11.5117
v 21.0195 67.4062 -22.6133
v 12.8789 74.7539 -27.7617
v 12.8789 74.7539 -27.7617
v 0.0000 71.8477 -27.6211
v 19.0703 72.8828 1.3477
v 17.9922 70.9961 -7.1328
v 8.3203 72.9609 -12.1055
v 28.2148 35.1641 -19.3164
v 29.7227 23.8359 -7.2227
v 20.4453 26.9844 -31.4883
v 31.0820 41.9922 -2.3555
v 34.6133 32.8945 -7.6250
v 34.1250 53.5781 -3.8398
v 25.6094 61.7773 0.4766
v 0.0000 37.2461 6.9648
v 0.0000 29.4453 -41.2344
v 12.9102 40.0898 -38.8320
v 20.4453 26.9844 -31.4883
v 19.0703 72.8828 1.3477
f 1 2 3
f 1 27 26
f 26 27 28
f 26 28 29
f 28 27 30
f 3 4 5
f 5 4 6
f 59 6 4
f 6 59 70
f 69 6 70
f 65 70 59
f 65 59 58
f 58 59 4
f 56 58 4
f 56 4 57
f 56 57 19
f 19 57 9
f 19 9 8
f 7 8 9
f 10 11 12
f 10 15 11
f 14 15 10
f 12 11 13
f 13 41 12
f 40 12 41
f 39 12 40
f 43 39 40
f 42 39 43
f 16 17 18
f 20 21 22
f 25 21 20
f 49 22 21
f 11 23 24
f 31 32 33
f 32 34 33
f 33 34 35
f 33 35 66
f 33 66 63
f 66 65 63
f 64 65 66
f 64 66 35
f 71 35 72
f 36 37 38
f 38 37 68
f 68 37 61
f 67 68 61
f 60 61 62
f 60 62 63
f 44 45 46
f 40 47 48
f 50 51 52
f 52 51 53
f 52 53 54
f 55 54 31
f 73 74 75
f 73 85 74
f 74 85 86
f 85 94 86
f 93 94 85
f 93 101 94
f 94 101 102
f 101 109 102
f 108 109 101
f 116 109 108
f 110 109 116
f 104 109 110
f 103 109 104
f 103 104 95
f 95 104 96
f 88 95 96
f 87 95 88
f 87 88 77
f 77 88 78
f 76 77 78
f 79 80 81
f 79 89 80
f 80 89 90
f 89 98 90
f 97 98 89
f 97 104 98
f 98 104 105
f 104 110 105
f 115 107 110
f 115 110 116
f 115 116 164
f 115 164 161
f 160 161 164
f 160 153 161
f 153 154 161
f 146 154 153
f 145 146 153
f 145 138 146
f 138 137 146
f 136 137 138
f 82 83 84
f 83 92 84
f 91 92 83
f 91 99 92
f 92 99 100
f 99 107 100
f 106 107 99
f 106 110 107
f 111 112 113
f 111 113 114
f 117 118 111
f 117 111 119
f 119 111 120
f 111 125 120
f 125 111 126
f 176 126 111
f 111 171 176
f 170 171 111
f 168 170 111
f 168 111 169
f 169 111 166
f 111 165 166
f 111 167 165
f 118 112 111
f 121 122 123
f 121 124 122
f 127 128 129
f 127 129 139
f 129 140 139
f 139 140 148
f 147 139 148
f 147 148 155
f 148 156 155
f 155 156 163
f 162 155 163
f 162 163 116
f 116 163 164
f 158 164 163
f 157 158 163
f 157 149 158
f 149 150 158
f 142 150 149
f 141 142 149
f 141 132 142
f 132 131 142
f 130 131 132
f 133 134 135
f 133 135 143
f 135 144 143
f 143 144 152
f 151 143 152
f 151 152 158
f 152 159 158
f 158 159 164
f 172 173 174
f 172 174 175
