v 0.0000 22.6602 -29.5977
v 10.6641 23.1875 -28.1484
v 0.0000 9.6289 -19.1055
v 18.6641 15.5547 -13.8867
v 18.6641 24.7188 -23.9453
v 10.6641 33.4336 -31.6211
v 18.6641 43.1172 -24.8984
v 24.6484 33.4336 -15.0938
v 26.2969 33.4336 0.0000
v 24.0000 43.6484 -12.1719
v 26.2969 42.3867 -1.3477
v 26.2969 42.3867 -1.3477
v 24.0000 33.4336 9.0273
v 26.2969 33.4336 0.0000
v 24.0000 46.2188 9.0273
v -10.6641 23.1875 -28.1484
v -18.6641 24.7188 -23.9453
v -18.6641 15.5547 -13.8867
v 0.0000 33.4336 -33.2500
v -10.6641 33.4336 -31.6211
v -18.6641 43.1172 -24.8984
v -24.6484 33.4336 -15.0938
v -24.0000 43.6484 -12.1719
v -26.2969 33.4336 0.0000
v -26.2969 42.3867 -1.3477
v -26.2969 42.3867 -1.3477
v -26.2969 33.4336 0.0000
v -24.0000 33.4336 9.0273
v -24.0000 46.2188 9.0273
f 1 2 3
f 2 1 6
f 2 6 5
f 4 2 5
f 3 2 4
f 1 3 16
f 20 1 16
f 19 1 20
f 6 1 19
f 6 7 5
f 7 8 5
f 7 10 8
f 10 11 8
f 8 11 9
f 4 8 9
f 5 8 4
f 12 13 14
f 15 13 12
f 17 16 18
f 17 18 22
f 21 17 22
f 20 17 21
f 16 17 20
f 18 16 3
f 22 18 24
f 22 24 25
f 23 22 25
f 21 22 23
f 26 27 28
f 29 26 28
