v 9.3594 34.3398 -32.0586
v 0.0000 21.4180 -33.7422
v -9.3594 34.3398 -32.0586
v 28.1602 -8.0039 4.6953
v 25.9492 -16.1641 -11.4883
v 33.9922 -8.4375 -11.0000
v 18.4141 -10.4883 -23.3242
v 9.2070 -18.0000 -26.9062
v 13.8242 -10.3750 -37.5078
v 10.2930 21.9375 -32.2188
v 19.9180 22.2227 -25.5977
v 21.2227 11.3828 -25.2812
v 25.9492 -16.1641 -11.4883
v 18.4141 -10.4883 -23.3242
v 33.9922 -8.4375 -11.0000
v 13.7891 8.1602 -37.9648
v 25.9492 -16.1641 -11.4883
v 28.1602 -8.0039 4.6953
v 19.3398 -9.3789 3.3203
v 28.1680 0.8320 -11.4883
v 32.2188 8.5000 -11.0000
v 27.1445 12.2383 3.7188
v 8.3164 48.2188 0.6016
v 27.1719 29.9297 10.5547
v 19.5352 37.6680 18.9922
v 24.5977 43.3281 2.7734
v 22.5078 47.0000 10.0859
v 27.0898 38.0000 9.9648
v 15.5703 58.3789 13.6953
v 14.5820 53.0000 20.1680
v 19.5352 37.6680 18.9922
v 21.2227 11.3828 -25.2812
v 32.2188 8.5000 -11.0000
v 28.1680 0.8320 -11.4883
v 11.1562 -1.0469 -32.8750
v 24.2930 22.2578 -11.4883
v 32.5820 22.3555 2.0273
v 13.8242 -10.3750 -37.5078
v 9.2070 -18.0000 -26.9062
v 0.0000 -13.1758 -30.4102
v 13.7891 8.1602 -37.9648
v 11.1562 -1.0469 -32.8750
v 0.0000 9.3203 -31.4844
v 24.1797 1.6406 0.3711
v 24.1797 1.6406 0.3711
v 24.6836 0.1797 -26.3594
v 24.6836 0.1797 -26.3594
v 0.0000 -2.4648 -39.7969
v 18.2109 39.0977 -25.1836
v 10.7344 50.5078 23.1836
v 12.7109 57.0977 18.1953
v -0.4570 55.2422 22.7969
v 15.5703 58.3789 13.6953
v 12.7109 57.0977 18.1953
v -8.3164 48.2188 0.6016
v 10.7344 50.5078 23.1836
v 0.0000 -10.9258 -21.0273
v 18.6641 15.5547 -13.8867
v -18.6641 15.5547 -13.8867
v 9.2070 -18.0000 -26.9062
v 18.4141 -10.4883 -23.3242
v 0.0000 -13.1758 -30.4102
v 19.0469 44.7695 19.8398
v 26.9180 38.6562 -8.6289
v 19.0469 44.7695 19.8398
v 27.1719 29.9297 10.5547
v 29.0430 32.5039 -0.4297
v 27.1445 12.2383 3.7188
v 32.5820 22.3555 2.0273
v -28.1602 -8.0039 4.6953
v -33.9922 -8.4375 -11.0000
v -25.9492 -16.1641 -11.4883
v -18.4141 -10.4883 -23.3242
v -13.8242 -10.3750 -37.5078
v -9.2070 -18.0000 -26.9062
v -10.2930 21.9375 -32.2188
v -21.2227 11.3828 -25.2812
v -19.9180 22.2227 -25.5977
v -25.9492 -16.1641 -11.4883
v -33.9922 -8.4375 -11.0000
v -18.4141 -10.4883 -23.3242
v -13.7891 8.1602 -37.9648
v -19.3398 -9.3789 3.3203
v -18.4141 -10.4883 -23.3242
v -25.9492 -16.1641 -11.4883
v -28.1602 -8.0039 4.6953
v -28.1680 0.8320 -11.4883
v -27.1445 12.2383 3.7188
v -32.2188 8.5000 -11.0000
v -21.2227 11.3828 -25.2812
v -28.1680 0.8320 -11.4883
v -32.2188 8.5000 -11.0000
v -11.1562 -1.0469 -32.8750
v -24.5977 43.3281 2.7734
v -26.9180 38.6562 -8.6289
v -29.0430 32.5039 -0.4297
v -24.2930 22.2578 -11.4883
v -32.5820 22.3555 2.0273
v -27.1719 29.9297 10.5547
v -13.8242 -10.3750 -37.5078
v 0.0000 -13.1758 -30.4102
v -9.2070 -18.0000 -26.9062
v -13.7891 8.1602 -37.9648
v 0.0000 9.3203 -31.4844
v -11.1562 -1.0469 -32.8750
v -24.1797 1.6406 0.3711
v -24.1797 1.6406 0.3711
v -24.6836 0.1797 -26.3594
v -24.6836 0.1797 -26.3594
v 0.0000 -2.4648 -39.7969
v -18.2109 39.0977 -25.1836
v -14.9883 44.7070 23.2188
v -14.3750 58.6875 16.0820
v -9.2070 -18.0000 -26.9062
v -27.0898 38.0000 9.9648
v -27.1445 12.2383 3.7188
v -27.1719 29.9297 10.5547
v -32.5820 22.3555 2.0273
v -14.8086 33.4453 21.9258
v -22.8789 33.0000 15.7930
v -9.9062 39.9375 25.5781
v -0.8945 40.1719 27.0195
v 2.8516 48.4609 25.4375
v 2.8516 48.4609 25.4375
v -0.8945 40.1719 27.0195
v -22.8789 33.0000 15.7930
v -14.8086 33.4453 21.9258
v -9.9062 39.9375 25.5781
v 14.5820 53.0000 20.1680
f 1 2 3
f 10 2 1
f 2 10 43
f 43 10 41
f 41 42 43
f 43 42 48
f 48 42 40
f 40 42 38
f 38 39 40
f 4 5 6
f 6 20 4
f 4 20 45
f 20 22 45
f 20 21 22
f 21 36 22
f 22 36 37
f 37 36 67
f 67 66 37
f 66 67 28
f 31 66 28
f 31 28 27
f 31 27 63
f 27 30 63
f 27 29 30
f 26 27 28
f 28 64 26
f 28 67 64
f 36 64 67
f 36 49 64
f 11 49 36
f 1 49 11
f 1 11 10
f 10 11 12
f 12 16 10
f 12 35 16
f 47 35 12
f 7 35 47
f 7 9 35
f 7 8 9
f 13 14 15
f 14 34 15
f 46 34 14
f 32 34 46
f 32 33 34
f 32 36 33
f 32 11 36
f 17 18 19
f 19 61 17
f 58 61 19
f 57 61 58
f 57 58 59
f 59 84 57
f 59 83 84
f 106 83 59
f 106 86 83
f 85 83 86
f 84 83 85
f 57 84 114
f 62 57 114
f 62 60 57
f 60 61 57
f 23 24 25
f 65 23 25
f 65 129 23
f 23 129 53
f 53 55 23
f 53 54 55
f 54 56 55
f 56 124 55
f 124 125 55
f 128 55 125
f 127 55 128
f 126 55 127
f 126 117 55
f 117 118 55
f 55 118 116
f 59 55 116
f 116 106 59
f 44 19 18
f 44 58 19
f 44 68 58
f 58 68 23
f 23 68 69
f 24 23 69
f 50 51 52
f 123 50 52
f 123 52 122
f 122 52 112
f 122 112 121
f 112 119 121
f 119 112 120
f 120 112 115
f 99 120 115
f 115 96 99
f 94 96 115
f 94 95 96
f 95 97 96
f 111 97 95
f 78 97 111
f 90 97 78
f 90 92 97
f 90 91 92
f 90 108 91
f 108 81 91
f 81 80 91
f 79 80 81
f 70 71 72
f 71 70 87
f 70 107 87
f 87 107 88
f 87 88 89
f 89 88 97
f 97 88 98
f 97 98 96
f 98 99 96
f 73 74 75
f 73 93 74
f 73 109 93
f 109 77 93
f 77 82 93
f 77 76 82
f 76 77 78
f 3 76 78
f 76 3 2
f 76 2 104
f 103 76 104
f 103 104 105
f 104 110 105
f 110 101 105
f 101 100 105
f 100 101 102
f 112 52 113
f 113 115 112
f 113 94 115
f 3 78 111
