v -15.9727 -10.5742 7.5820
v -22.3594 3.0391 13.3125
v -27.1133 8.0898 7.5000
v -26.9023 8.0898 -1.9805
v 0.0000 -2.0078 -29.5938
v 0.0000 -12.2227 -24.0547
v -15.4648 -2.0078 -21.7500
v -29.5859 29.5391 7.9492
v -24.3750 35.2539 17.7031
v -24.5938 44.5977 7.9805
v -21.5586 48.0781 13.6172
v -10.1055 8.0898 -30.7852
v -12.5156 24.0977 -33.6367
v 0.0000 13.3750 -35.4609
v 0.0000 29.5391 -34.9258
v -11.3984 35.2188 -29.8906
v 0.0000 33.6797 -32.8242
v -21.3789 8.0508 -21.1719
v -23.0156 36.9336 -20.1523
v -23.0859 29.5391 -23.4492
v -25.8359 40.9531 -7.4492
v -30.0703 24.0977 -7.7773
v -15.9727 -10.5742 7.5820
v 0.0000 44.0000 -14.0000
v -22.3594 3.0391 13.3125
v -27.3711 18.6562 17.3008
v -20.6562 47.1992 10.0000
v -21.5586 48.0781 13.6172
v -24.3750 35.2539 17.7031
v -17.9336 20.0586 -5.9883
v -26.9023 8.0898 -1.9805
v -30.5586 18.6562 7.5000
v -27.3711 18.6562 17.3008
v -23.7305 18.6445 -22.8633
v -12.5703 -10.3008 -12.4258
v -8.4609 4.6953 -15.2812
v -15.4648 -2.0078 -21.7500
v 0.0000 -12.2227 -24.0547
v -12.5703 -10.3008 -12.4258
v 15.9727 -10.5742 7.5820
v 27.1133 8.0898 7.5000
v 22.3594 3.0391 13.3125
v 26.9023 8.0898 -1.9805
v 15.4648 -2.0078 -21.7500
v 29.5859 29.5391 7.9492
v 24.5938 44.5977 7.9805
v 24.3750 35.2539 17.7031
v 21.5586 48.0781 13.6172
v 10.1055 8.0898 -30.7852
v 12.5156 24.0977 -33.6367
v 11.3984 35.2188 -29.8906
v 21.3789 8.0508 -21.1719
v 23.0156 36.9336 -20.1523
v 25.8359 40.9531 -7.4492
v 23.0859 29.5391 -23.4492
v 30.0703 24.0977 -7.7773
v 15.9727 -10.5742 7.5820
v 22.3594 3.0391 13.3125
v 0.0000 44.0000 -14.0000
v 27.3711 18.6562 17.3008
v 24.3750 35.2539 17.7031
v 21.5586 48.0781 13.6172
v 20.6562 47.1992 10.0000
v 17.9336 20.0586 -5.9883
v 26.9023 8.0898 -1.9805
v 30.5586 18.6562 7.5000
v 27.3711 18.6562 17.3008
v 23.7305 18.6445 -22.8633
v 8.4609 4.6953 -15.2812
v 12.5703 -10.3008 -12.4258
v 15.4648 -2.0078 -21.7500
v 0.0000 17.7969 -14.8516
v 12.5703 -10.3008 -12.4258
f 1 2 3
f 1 3 4
f 4 3 32
f 4 32 22
f 22 34 4
f 22 20 34
f 21 20 22
f 19 20 21
f 20 19 16
f 13 20 16
f 13 16 15
f 14 13 15
f 12 13 14
f 12 14 5
f 7 12 5
f 5 6 7
f 5 44 6
f 44 5 49
f 52 44 49
f 49 68 52
f 50 68 49
f 49 14 50
f 49 5 14
f 14 15 50
f 50 15 51
f 50 51 55
f 55 68 50
f 56 68 55
f 54 56 55
f 53 54 55
f 55 51 53
f 51 15 17
f 16 17 15
f 8 9 10
f 8 33 9
f 32 33 8
f 8 22 32
f 21 22 8
f 10 21 8
f 10 9 11
f 18 12 7
f 12 18 34
f 13 12 34
f 20 13 34
f 4 34 18
f 18 7 4
f 4 7 39
f 23 24 25
f 24 23 30
f 30 23 31
f 31 36 30
f 31 35 36
f 37 36 35
f 37 38 36
f 38 69 36
f 71 69 38
f 71 70 69
f 65 69 70
f 65 64 69
f 64 65 57
f 59 64 57
f 57 58 59
f 58 60 59
f 60 61 59
f 61 62 59
f 59 62 63
f 25 24 26
f 26 24 29
f 28 29 24
f 27 28 24
f 2 33 3
f 3 33 32
f 40 41 42
f 40 43 41
f 43 66 41
f 43 56 66
f 56 43 68
f 43 52 68
f 44 52 43
f 73 44 43
f 45 46 47
f 45 47 67
f 66 45 67
f 45 66 56
f 54 45 56
f 46 45 54
f 46 48 47
f 72 69 64
f 69 72 36
f 36 72 30
f 42 41 67
f 41 66 67
