v 24.7539 46.8516 8.2539
v 23.9922 40.9844 14.0312
v 27.4375 35.0000 8.0000
v 18.4961 47.7148 19.1758
v 12.3594 54.3945 20.9414
v 16.5039 57.4297 14.4727
v 8.1211 53.8203 3.2773
v 18.4961 47.7148 19.1758
v 12.3594 54.3945 20.9414
v 23.9922 40.9844 14.0312
v 27.4375 35.0000 8.0000
v -8.1211 53.8203 3.2773
v -12.3594 54.3945 20.9414
v -18.4961 47.7148 19.1758
v -23.9922 40.9844 14.0312
v -27.4375 35.0000 8.0000
v 19.7148 22.4609 -25.5898
v 25.8086 24.0000 -15.5859
v 23.8086 9.0000 -13.5859
v 25.9688 33.4336 -15.9297
v 19.3555 35.5977 -24.9492
v 27.8398 15.5000 10.8711
v 29.2969 15.4375 -2.1250
v 28.4141 27.0000 8.6484
v 29.2656 34.0000 -4.5039
v 10.6172 21.8242 -31.8867
v 19.0000 10.5664 -23.0000
v 10.0000 12.0000 -29.0000
v 11.3984 34.1562 -31.6953
v 0.0000 13.0000 -31.0000
v 0.0000 21.6250 -33.5859
v 0.0000 33.5469 -34.3477
v 27.5820 40.4922 -1.5898
v 24.6250 37.2383 -17.0586
v 24.4414 6.0000 14.4453
v 27.0273 7.1875 -0.2891
v 0.0000 13.0000 -31.0000
v 10.0000 12.0000 -29.0000
v 19.3750 19.1094 -8.1406
v 19.0000 10.5664 -23.0000
v 23.8086 9.0000 -13.5859
v 27.0273 7.1875 -0.2891
v 28.4141 27.0000 8.6484
v 27.8398 15.5000 10.8711
v 6.9844 44.0547 -10.7461
v 24.4414 6.0000 14.4453
v -19.7148 22.4609 -25.5898
v -23.8086 9.0000 -13.5859
v -25.8086 24.0000 -15.5859
v -19.3555 35.5977 -24.9492
v -25.9688 33.4336 -15.9297
v -27.8398 15.5000 10.8711
v -28.4141 27.0000 8.6484
v -29.2969 15.4375 -2.1250
v -29.2656 34.0000 -4.5039
v -10.6172 21.8242 -31.8867
v -10.0000 12.0000 -29.0000
v -19.0000 10.5664 -23.0000
v -27.4375 35.0000 8.0000
v -11.3984 34.1562 -31.6953
v -27.5820 40.4922 -1.5898
v -24.6250 37.2383 -17.0586
v -24.4414 6.0000 14.4453
v -27.0273 7.1875 -0.2891
v -19.3750 19.1094 -8.1406
v -10.0000 12.0000 -29.0000
v -24.7539 46.8516 8.2539
v -19.0000 10.5664 -23.0000
v -27.0273 7.1875 -0.2891
v -23.8086 9.0000 -13.5859
v -28.4141 27.0000 8.6484
v -27.8398 15.5000 10.8711
v -24.4414 6.0000 14.4453
v -6.9844 44.0547 -10.7461
v -23.9922 40.9844 14.0312
v -18.4961 47.7148 19.1758
v -12.3594 54.3945 20.9414
v -16.5039 57.4297 14.4727
f 1 2 3
f 2 1 4
f 6 4 1
f 5 4 6
f 7 8 9
f 7 10 8
f 7 11 10
f 7 45 11
f 11 45 39
f 11 39 43
f 43 39 44
f 44 39 46
f 39 42 46
f 39 41 42
f 39 40 41
f 39 38 40
f 37 38 39
f 37 39 65
f 37 65 66
f 65 68 66
f 65 70 68
f 65 69 70
f 65 73 69
f 72 73 65
f 71 72 65
f 16 71 65
f 65 74 16
f 74 12 16
f 12 15 16
f 12 14 15
f 12 13 14
f 17 18 19
f 18 17 20
f 25 18 20
f 23 18 25
f 23 25 24
f 22 23 24
f 23 22 36
f 36 19 23
f 23 19 18
f 17 19 27
f 26 17 27
f 26 27 28
f 26 28 31
f 31 32 26
f 31 56 32
f 56 31 57
f 56 57 58
f 56 58 47
f 56 47 60
f 32 56 60
f 32 29 26
f 26 29 17
f 17 29 21
f 17 21 20
f 34 20 21
f 34 25 20
f 33 25 34
f 3 25 33
f 24 25 3
f 1 3 33
f 30 31 28
f 30 57 31
f 35 36 22
f 47 48 49
f 51 47 49
f 50 47 51
f 47 50 60
f 47 58 48
f 54 49 48
f 54 55 49
f 54 53 55
f 52 53 54
f 54 64 52
f 64 54 48
f 63 52 64
f 55 53 59
f 59 61 55
f 67 61 59
f 75 67 59
f 67 75 76
f 76 78 67
f 77 78 76
f 61 62 55
f 62 51 55
f 50 51 62
f 49 55 51
