v 29.2266 19.2500 0.4570
v 27.8633 11.2500 -13.8828
v 36.5781 20.0000 -15.0781
v 27.8633 11.2500 -13.8828
v 23.1250 20.0000 -24.5625
v 36.5781 20.0000 -15.0781
v 23.1250 20.0000 -24.5625
v 12.8359 11.2539 -33.0117
v 14.7031 20.0000 -39.5781
v 12.8359 11.2539 -33.0117
v 0.0000 20.0000 -36.5664
v 14.7031 20.0000 -39.5781
v 31.9141 30.0000 -12.6211
v 38.0430 29.2500 0.6289
v 31.9141 30.0000 -12.6211
v 27.6445 30.0000 -28.7969
v 11.7539 31.0000 -30.8438
v 27.6445 30.0000 -28.7969
v 11.7539 31.0000 -30.8438
v 0.0000 27.7500 -39.3164
v 26.6992 37.8594 0.8555
v 27.2031 35.3984 -10.9180
v 21.3125 32.8047 -22.1523
v 27.2031 35.3984 -10.9180
v 11.3984 34.1562 -31.6953
v 0.0000 30.2695 -33.8359
v 11.3984 34.1562 -31.6953
v 26.1016 38.6289 -10.3320
v 26.0586 41.0625 0.9297
v 26.1016 38.6289 -10.3320
v 24.6250 37.2383 -17.0586
v 23.6992 45.6719 8.7266
v 24.6055 40.3984 14.0508
v 17.9570 50.6914 15.5430
v 18.9570 46.2266 19.3516
v 18.9570 46.2266 19.3516
v 17.9570 50.6914 15.5430
v 15.4844 45.3164 2.5000
v 26.0703 10.5000 11.9883
v 31.9102 18.0000 13.8203
v 22.3203 16.5000 21.0000
v 26.0703 10.5000 11.9883
v 22.3203 16.5000 21.0000
v 21.6758 17.5000 0.4570
v 23.8633 26.2500 -1.0000
v 25.8516 26.0000 22.4766
v 18.9844 34.2500 23.7695
v 18.9844 34.2500 23.7695
v 25.8516 26.0000 22.4766
v 30.1797 37.2461 15.7188
v 30.9648 27.4961 14.4844
v 30.1797 37.2461 15.7188
v 26.6992 37.8594 0.8555
v 38.0430 29.2500 0.6289
v 30.9648 27.4961 14.4844
v 31.9102 18.0000 13.8203
v 29.2266 19.2500 0.4570
v 29.2266 19.2500 0.4570
v 26.0703 10.5000 11.9883
v 12.8359 11.2539 -33.0117
v 23.1250 20.0000 -24.5625
v 18.6641 15.5547 -13.8867
v 27.8633 11.2500 -13.8828
v -29.2266 19.2500 0.4570
v -36.5781 20.0000 -15.0781
v -27.8633 11.2500 -13.8828
v -27.8633 11.2500 -13.8828
v -36.5781 20.0000 -15.0781
v -23.1250 20.0000 -24.5625
v -23.1250 20.0000 -24.5625
v -14.7031 20.0000 -39.5781
v -12.8359 11.2539 -33.0117
v -12.8359 11.2539 -33.0117
v -14.7031 20.0000 -39.5781
v 0.0000 20.0000 -36.5664
v -31.9141 30.0000 -12.6211
v -38.0430 29.2500 0.6289
v -31.9141 30.0000 -12.6211
v -27.6445 30.0000 -28.7969
v -11.7539 31.0000 -30.8438
v -27.6445 30.0000 -28.7969
v -11.7539 31.0000 -30.8438
v 0.0000 27.7500 -39.3164
v -26.6992 37.8594 0.8555
v -27.2031 35.3984 -10.9180
v -21.3125 32.8047 -22.1523
v -27.2031 35.3984 -10.9180
v -11.3984 34.1562 -31.6953
v -11.3984 34.1562 -31.6953
v -26.1016 38.6289 -10.3320
v -26.0586 41.0625 0.9297
v -26.1016 38.6289 -10.3320
v -24.6250 37.2383 -17.0586
v -23.6992 45.6719 8.7266
v -18.9570 46.2266 19.3516
v -15.4844 45.3164 2.5000
v -17.9570 50.6914 15.5430
v -18.9570 46.2266 19.3516
v -17.9570 50.6914 15.5430
v -24.6055 40.3984 14.0508
v -30.1797 37.2461 15.7188
v -18.9844 34.2500 23.7695
v -26.0703 10.5000 11.9883
v -22.3203 16.5000 21.0000
v -31.9102 18.0000 13.8203
v -26.0703 10.5000 11.9883
v -21.6758 17.5000 0.4570
v -22.3203 16.5000 21.0000
v -25.8516 26.0000 22.4766
v -18.9844 34.2500 23.7695
v -23.8633 26.2500 -1.0000
v -30.9648 27.4961 14.4844
v -25.8516 26.0000 22.4766
v -30.1797 37.2461 15.7188
v -26.6992 37.8594 0.8555
v -38.0430 29.2500 0.6289
v -30.9648 27.4961 14.4844
v -31.9102 18.0000 13.8203
v -29.2266 19.2500 0.4570
v -29.2266 19.2500 0.4570
v -26.0703 10.5000 11.9883
v -23.1250 20.0000 -24.5625
v -18.6641 15.5547 -13.8867
v -27.8633 11.2500 -13.8828
v -12.8359 11.2539 -33.0117
v 0.0000 9.6289 -19.1055
v 0.0000 20.0000 -36.5664
v 0.0000 30.2695 -33.8359
v -11.3984 34.1562 -31.6953
v 24.6055 40.3984 14.0508
v 23.6992 45.6719 8.7266
v -24.6055 40.3984 14.0508
v -17.9570 50.6914 15.5430
f 1 2 3
f 3 13 1
f 1 13 14
f 14 13 21
f 21 13 22
f 22 28 21
f 21 28 29
f 29 28 32
f 33 29 32
f 53 29 33
f 52 53 33
f 53 52 55
f 54 53 55
f 57 54 55
f 56 57 55
f 59 57 56
f 4 5 6
f 6 5 15
f 15 5 16
f 16 23 15
f 15 23 24
f 24 23 30
f 30 23 31
f 23 25 31
f 23 17 25
f 18 17 23
f 7 17 18
f 9 17 7
f 7 8 9
f 10 11 12
f 12 11 19
f 19 11 20
f 20 26 19
f 19 26 27
f 83 82 26
f 82 83 75
f 74 82 75
f 73 74 75
f 33 34 35
f 48 33 35
f 50 33 48
f 48 49 50
f 50 49 51
f 40 51 49
f 41 40 49
f 39 40 41
f 36 37 38
f 47 36 38
f 38 46 47
f 38 45 46
f 43 46 45
f 44 43 45
f 42 43 44
f 42 44 58
f 58 44 63
f 63 44 62
f 61 63 62
f 60 61 62
f 62 126 60
f 60 126 127
f 126 125 127
f 123 125 126
f 125 123 122
f 122 123 124
f 107 124 123
f 120 124 107
f 106 120 107
f 106 107 108
f 107 111 108
f 111 107 123
f 109 111 96
f 109 96 110
f 110 96 95
f 95 96 97
f 64 65 66
f 65 64 76
f 64 77 76
f 77 84 76
f 84 85 76
f 85 84 90
f 84 91 90
f 91 94 90
f 100 94 91
f 115 100 91
f 114 100 115
f 115 117 114
f 116 117 115
f 119 117 116
f 118 117 119
f 121 118 119
f 67 68 69
f 68 78 69
f 78 79 69
f 79 78 86
f 78 87 86
f 87 92 86
f 92 93 86
f 88 86 93
f 86 88 80
f 81 86 80
f 70 81 80
f 71 70 80
f 70 71 72
f 82 89 26
f 98 99 100
f 100 102 98
f 101 102 100
f 101 113 102
f 112 113 101
f 105 113 112
f 104 113 105
f 103 104 105
f 108 111 109
f 62 44 45
f 27 128 129
f 34 130 131
f 94 132 133
