v 25.5117 52.8906 7.5938
v 28.0195 48.6016 -2.8594
v 21.2891 58.6953 0.6484
v 24.8398 28.2578 9.3594
v 25.9297 31.1250 13.0664
v 23.2188 24.9102 17.5977
v 22.0039 33.0000 17.0000
v 17.6914 59.0000 15.0000
v 21.0273 47.4570 17.0469
v 0.0000 33.3438 3.3672
v 23.2188 24.9102 17.5977
v 22.0039 33.0000 17.0000
v 21.0273 47.4570 17.0469
v 24.8398 28.2578 9.3594
v 27.2227 38.6289 0.4883
v 23.6250 38.4453 6.8359
v 27.1094 25.6836 4.8438
v 30.6172 40.0000 -1.6484
v 19.3398 58.2266 -16.1328
v 28.6523 45.5508 -12.7461
v 19.7852 43.6992 -26.3945
v 31.5117 25.6797 -4.8242
v 26.7539 11.6211 -2.1016
v 16.6797 15.0000 -29.5000
v 16.9805 1.0000 -20.0000
v 10.9414 0.0000 -27.0000
v 19.6875 3.0000 -10.0000
v 26.4180 18.0000 -10.0000
v 17.6172 30.1055 -30.7734
v 10.5977 45.5039 -33.1562
v 10.4805 -9.0000 -10.0000
v 0.0000 -2.0000 -29.0000
v 0.0000 -14.0000 -10.2422
v 0.0000 13.0000 -36.0000
v 0.0000 29.9531 -37.5039
v 0.0000 46.1250 -34.8594
v 27.3281 30.0000 -18.0000
v 10.5977 56.1133 -27.0273
v 10.5977 63.9922 -17.6406
v 0.0000 65.5625 -18.5469
v 10.5977 67.4883 -6.0039
v 0.0000 69.2383 -6.3125
v 0.0000 68.1445 6.1172
v 10.5977 64.5547 11.5742
v 0.0000 57.2812 -28.4180
v 27.1094 25.6836 4.8438
v 0.0000 33.3438 3.3672
v 26.7539 11.6211 -2.1016
v 15.1289 44.0000 26.0000
v 24.6094 42.0000 16.0000
v 21.0664 50.1797 24.3789
v 12.0078 57.7227 26.2148
v 7.3945 51.5195 28.8789
v 15.1289 44.0000 26.0000
v 7.3945 51.5195 28.8789
v 0.0000 56.1680 11.6211
v 0.0000 59.6133 22.7383
v 0.0000 59.6133 22.7383
v 24.6094 42.0000 16.0000
v 0.0000 64.0000 18.6641
v 27.9141 41.6836 8.8164
v 27.2227 38.6289 0.4883
v 22.9453 51.0000 16.0000
v 22.9453 51.0000 16.0000
v 17.6914 59.0000 15.0000
v 28.0820 19.0000 -12.0000
v 23.6250 38.4453 6.8359
v -22.0039 33.0000 17.0000
v -21.0273 47.4570 17.0469
v -27.9141 41.6836 8.8164
v -24.8398 28.2578 9.3594
v -23.2188 24.9102 17.5977
v -25.9297 31.1250 13.0664
v -21.2891 58.6953 0.6484
v -25.5117 52.8906 7.5938
v -17.6914 59.0000 15.0000
v 0.0000 33.3438 3.3672
v -22.0039 33.0000 17.0000
v -23.2188 24.9102 17.5977
v -21.0273 47.4570 17.0469
v -24.8398 28.2578 9.3594
v -27.2227 38.6289 0.4883
v -31.5117 25.6797 -4.8242
v -27.1094 25.6836 4.8438
v -30.6172 40.0000 -1.6484
v -19.7852 43.6992 -26.3945
v -27.3281 30.0000 -18.0000
v -28.6523 45.5508 -12.7461
v -23.6250 38.4453 6.8359
v -28.0195 48.6016 -2.8594
v -19.3398 58.2266 -16.1328
v -26.7539 11.6211 -2.1016
v -10.9414 0.0000 -27.0000
v -16.9805 1.0000 -20.0000
v -16.6797 15.0000 -29.5000
v -17.6172 30.1055 -30.7734
v -10.5977 45.5039 -33.1562
v -10.4805 -9.0000 -10.0000
v -19.6875 3.0000 -10.0000
v -10.5977 56.1133 -27.0273
v -10.5977 67.4883 -6.0039
v -10.5977 63.9922 -17.6406
v -10.5977 64.5547 11.5742
v 0.0000 33.3438 3.3672
v -27.1094 25.6836 4.8438
v -26.7539 11.6211 -2.1016
v -15.1289 44.0000 26.0000
v -21.0664 50.1797 24.3789
v -24.6094 42.0000 16.0000
v -12.0078 57.7227 26.2148
v -7.3945 51.5195 28.8789
v -15.1289 44.0000 26.0000
v -7.3945 51.5195 28.8789
v -24.6094 42.0000 16.0000
v -27.2227 38.6289 0.4883
v -22.9453 51.0000 16.0000
v -22.9453 51.0000 16.0000
v -23.6250 38.4453 6.8359
v -17.6914 59.0000 15.0000
v -28.0820 19.0000 -12.0000
v -26.4180 18.0000 -10.0000
v 28.0820 19.0000 -12.0000
v 22.2461 19.1641 -13.7109
v 27.3281 30.0000 -18.0000
v -22.2461 19.1641 -13.7109
v -28.0820 19.0000 -12.0000
v -27.3281 30.0000 -18.0000
v 10.9414 0.0000 -27.0000
v 8.0430 1.0156 -10.4883
v 0.0000 -14.0000 -10.2422
v -8.0430 1.0156 -10.4883
v -10.4805 -9.0000 -10.0000
v -19.6875 3.0000 -10.0000
v 0.0000 33.3438 3.3672
v -10.9414 0.0000 -27.0000
v -10.9414 0.0000 -27.0000
v 10.4805 -9.0000 -10.0000
v 19.6875 3.0000 -10.0000
v 26.4180 18.0000 -10.0000
v -26.4180 18.0000 -10.0000
v 10.9414 0.0000 -27.0000
f 1 2 3
f 3 8 1
f 3 44 8
f 41 44 3
f 43 44 41
f 42 43 41
f 40 42 41
f 39 40 41
f 45 40 39
f 38 45 39
f 36 45 38
f 30 36 38
f 36 30 35
f 36 35 97
f 97 100 36
f 97 86 100
f 96 86 97
f 97 35 96
f 34 96 35
f 34 35 29
f 24 34 29
f 26 34 24
f 24 25 26
f 28 25 24
f 27 25 28
f 25 27 31
f 25 31 26
f 32 26 33
f 32 34 26
f 34 32 93
f 95 34 93
f 93 94 95
f 94 93 98
f 94 98 99
f 121 94 99
f 95 94 121
f 95 121 87
f 96 95 87
f 95 96 34
f 96 87 86
f 86 87 88
f 86 88 91
f 91 100 86
f 100 91 102
f 100 102 45
f 36 100 45
f 45 102 40
f 101 40 102
f 42 40 101
f 101 43 42
f 103 43 101
f 101 74 103
f 101 91 74
f 102 91 101
f 88 90 91
f 85 90 88
f 89 90 85
f 84 89 85
f 83 84 85
f 83 92 84
f 92 83 120
f 120 83 87
f 88 87 83
f 85 88 83
f 4 5 6
f 4 62 5
f 61 5 62
f 2 61 62
f 2 1 61
f 61 1 9
f 61 9 7
f 5 61 7
f 5 7 6
f 1 8 9
f 51 8 52
f 52 53 51
f 57 53 52
f 57 52 60
f 57 60 110
f 57 110 111
f 110 108 111
f 108 110 76
f 108 76 116
f 108 116 109
f 107 108 109
f 107 111 108
f 10 11 12
f 12 13 10
f 14 10 15
f 14 11 10
f 16 17 18
f 2 16 18
f 18 20 2
f 20 18 22
f 37 20 22
f 37 21 20
f 29 21 37
f 29 30 21
f 30 29 35
f 30 38 21
f 19 21 38
f 21 19 20
f 19 2 20
f 3 2 19
f 41 3 19
f 39 41 19
f 38 39 19
f 22 17 23
f 18 17 22
f 37 22 66
f 23 66 22
f 46 47 48
f 46 67 47
f 123 48 47
f 122 48 123
f 122 123 124
f 49 50 51
f 49 51 53
f 51 63 8
f 51 50 63
f 54 55 56
f 59 54 56
f 59 56 64
f 56 65 64
f 56 55 58
f 56 58 113
f 112 56 113
f 114 56 112
f 56 114 117
f 56 117 119
f 44 52 8
f 60 52 44
f 43 60 44
f 103 60 43
f 60 103 110
f 103 76 110
f 74 76 103
f 74 75 76
f 74 90 75
f 90 74 91
f 90 115 70
f 90 70 75
f 69 75 70
f 68 69 70
f 73 68 70
f 73 72 68
f 71 72 73
f 71 73 115
f 70 115 73
f 77 78 79
f 77 80 78
f 81 82 77
f 81 77 79
f 32 33 93
f 104 105 106
f 105 104 118
f 106 125 104
f 106 126 125
f 125 126 127
f 69 76 75
f 37 24 29
f 28 24 37
f 128 129 130
f 130 129 131
f 136 130 131
f 132 131 133
f 135 131 132
f 133 131 134
f 140 133 134
f 138 139 134
f 129 138 134
f 129 137 138
f 137 129 141
f 131 129 134
