v 22.5664 57.0000 -5.0703
v 20.2930 60.8477 4.7148
v 22.6758 54.6367 5.1289
v 13.3516 67.4922 12.0000
v 7.7109 63.8086 18.6055
v 11.8867 63.1289 14.2773
v 8.8086 69.0078 16.8867
v 0.0000 64.1289 20.0000
v 0.0000 69.8789 18.2695
v 17.2930 66.3203 6.8047
v 12.7656 71.8594 3.9492
v 13.7461 70.6484 9.9492
v 18.4961 65.5352 -1.0000
v 8.5469 72.9102 12.6328
v 0.0000 74.0391 13.9766
v 7.0039 74.4727 7.0547
v 0.0000 75.4023 8.1523
v 8.4062 72.1250 -1.5742
v 13.6602 67.5273 -5.6719
v 4.6133 74.0898 0.2344
v 0.0000 74.7852 0.8750
v 0.0000 64.7422 -17.1680
v 10.0000 63.0000 -16.0000
v 18.7617 59.0000 -13.6953
v 4.0508 57.1758 18.6680
v 0.0000 22.6602 -29.5977
v 10.6641 19.6953 -25.1328
v 0.0000 9.6289 -19.1055
v 18.6641 15.5547 -13.8867
v 18.6641 24.7188 -23.9453
v 10.6641 33.4336 -31.6211
v 0.0000 33.4336 -33.2500
v 0.0000 45.4062 -32.8867
v 10.0000 44.8203 -31.2773
v 10.0000 54.4141 -25.4961
v 0.0000 55.9336 -26.8086
v 18.6641 43.1172 -24.8984
v 24.6484 33.4336 -15.0938
v 24.0000 43.6484 -12.1719
v 26.7734 30.2578 -0.6211
v 26.4531 44.2188 -1.3477
v 24.1758 46.2188 10.4180
v 25.8242 36.1211 10.3477
v 26.3633 24.3750 9.3789
v 0.0000 26.0000 -2.5508
v 16.3438 62.5586 9.6484
v 17.6992 57.4531 9.2773
v 0.0000 56.8555 19.3789
v 14.7109 57.9062 10.3984
v 10.0000 59.6328 16.3633
v 12.3555 58.4922 11.9609
v -22.5664 57.0000 -5.0703
v -22.6758 54.6367 5.1289
v -20.2930 60.8477 4.7148
v -13.3516 67.4922 12.0000
v -11.8867 63.1289 14.2773
v -7.7109 63.8086 18.6055
v -8.8086 69.0078 16.8867
v -12.7656 71.8594 3.9492
v -18.4961 65.5352 -1.0000
v -17.2930 66.3203 6.8047
v -13.7461 70.6484 9.9492
v -8.5469 72.9102 12.6328
v -7.0039 74.4727 7.0547
v -8.4062 72.1250 -1.5742
v -13.6602 67.5273 -5.6719
v -4.6133 74.0898 0.2344
v -10.0000 63.0000 -16.0000
v -18.7617 59.0000 -13.6953
v -4.0508 57.1758 18.6680
v -10.6641 19.6953 -25.1328
v -10.6641 33.4336 -31.6211
v -10.0000 44.8203 -31.2773
v -18.6641 15.5547 -13.8867
v -18.6641 24.7188 -23.9453
v -10.0000 54.4141 -25.4961
v -18.6641 43.1172 -24.8984
v -24.6484 33.4336 -15.0938
v -24.0000 43.6484 -12.1719
v -26.7734 30.2578 -0.6211
v -26.4531 44.2188 -1.3477
v -24.1758 46.2188 10.4180
v -25.8242 36.1211 10.3477
v -26.3633 24.3750 9.3789
v 0.0000 26.0000 -2.5508
v -16.3438 62.5586 9.6484
v -17.6992 57.4531 9.2773
v -14.7109 57.9062 10.3984
v -10.0000 59.6328 16.3633
v -12.3555 58.4922 11.9609
f 1 2 3
f 2 1 13
f 10 2 13
f 13 11 10
f 11 13 19
f 18 11 19
f 16 11 18
f 12 11 16
f 10 11 12
f 12 4 10
f 4 12 7
f 4 7 5
f 4 5 6
f 46 4 6
f 46 10 4
f 46 2 10
f 47 2 46
f 2 47 3
f 42 3 47
f 42 41 3
f 41 42 43
f 43 40 41
f 43 44 40
f 43 45 44
f 42 45 43
f 45 42 47
f 40 44 45
f 40 45 29
f 29 38 40
f 30 38 29
f 29 27 30
f 28 27 29
f 26 27 28
f 27 26 31
f 27 31 30
f 31 37 30
f 31 34 37
f 34 31 32
f 33 34 32
f 34 33 35
f 34 35 37
f 35 24 37
f 35 23 24
f 36 23 35
f 33 36 35
f 33 76 36
f 73 76 33
f 33 32 73
f 73 32 72
f 72 77 73
f 72 75 77
f 71 75 72
f 71 72 26
f 26 28 71
f 28 74 71
f 71 74 75
f 75 74 78
f 77 75 78
f 77 78 79
f 69 77 79
f 76 77 69
f 73 77 76
f 36 76 68
f 22 36 68
f 22 23 36
f 22 19 23
f 19 22 18
f 18 22 20
f 20 16 18
f 20 21 16
f 20 22 21
f 67 21 22
f 67 64 21
f 67 65 64
f 65 67 22
f 66 65 22
f 65 66 59
f 64 65 59
f 62 64 59
f 62 59 61
f 62 61 55
f 55 58 62
f 55 57 58
f 55 56 57
f 86 56 55
f 86 55 61
f 86 61 54
f 87 86 54
f 54 53 87
f 52 53 54
f 54 60 52
f 61 60 54
f 59 60 61
f 59 66 60
f 66 69 60
f 68 69 66
f 22 68 66
f 76 69 68
f 52 60 69
f 69 79 52
f 52 79 81
f 81 53 52
f 82 53 81
f 81 83 82
f 83 81 80
f 83 80 84
f 83 84 85
f 82 83 85
f 87 82 85
f 82 87 53
f 87 88 86
f 90 86 88
f 90 56 86
f 56 90 89
f 57 56 89
f 70 57 89
f 70 8 57
f 70 48 8
f 25 8 48
f 25 5 8
f 25 50 5
f 5 50 6
f 6 50 51
f 46 6 51
f 46 51 49
f 47 46 49
f 5 7 8
f 9 8 7
f 9 7 14
f 15 9 14
f 15 14 17
f 15 17 63
f 63 9 15
f 58 9 63
f 9 58 8
f 57 8 58
f 62 58 63
f 63 64 62
f 63 17 64
f 21 64 17
f 21 17 16
f 14 16 17
f 14 12 16
f 12 14 7
f 23 19 24
f 19 13 24
f 1 24 13
f 24 1 39
f 24 39 37
f 37 39 38
f 37 38 30
f 38 41 40
f 38 39 41
f 1 41 39
f 41 1 3
f 26 32 31
f 26 72 32
f 74 80 78
f 80 74 85
f 84 80 85
f 78 80 81
f 78 81 79
