v 26.2969 33.4336 0.0000
v 24.7617 43.8398 10.8906
v 25.4531 28.0000 9.0000
v 26.2969 33.4336 0.0000
v 25.4531 28.0000 9.0000
v 0.0000 42.7891 11.8867
v 0.0000 68.2109 16.0000
v 10.0000 67.3164 15.9961
v 0.0000 69.0000 4.0000
v 10.1016 67.5508 3.9141
v 0.0000 22.6602 -29.5977
v 10.6641 19.6953 -25.1328
v 0.0000 9.6289 -19.1055
v 18.6641 24.7188 -23.9453
v 18.6641 15.5547 -13.8867
v 10.6641 33.4336 -31.6211
v 0.0000 33.4336 -33.2500
v 0.0000 45.4062 -32.8867
v 10.0000 44.8203 -31.2773
v 10.0000 62.2617 -16.6406
v 0.0000 63.7461 -17.5000
v 10.0000 65.5586 -5.6641
v 0.0000 67.2148 -5.9531
v 14.7266 65.8203 3.7734
v 18.6641 43.1172 -24.8984
v 10.0000 54.8320 -25.4961
v 17.6992 56.7812 -14.9414
v 24.6484 33.4336 -15.0938
v 24.0000 43.6484 -12.1719
v 24.0000 51.8516 -2.7031
v 0.0000 55.9336 -26.8086
v 26.2969 42.3867 -1.3477
v 19.3516 62.0000 2.2773
v 23.1992 53.0000 13.4492
v 21.0000 63.0195 17.0000
v 24.7617 43.8398 10.8906
v 16.1953 65.5781 16.4961
v 17.0000 63.8828 22.0000
v 12.0000 64.3438 25.0000
v 14.1445 54.4453 18.6719
v 9.9844 54.8438 21.0977
v 21.0000 63.0195 17.0000
v 15.6562 53.8320 16.0938
v 6.0000 64.6328 27.0000
v 4.8398 55.2070 22.7500
v 0.0000 64.7539 27.7227
v 0.0000 55.3984 23.2500
v 17.0000 63.8828 22.0000
v 12.0000 64.3438 25.0000
v 6.0000 64.6328 27.0000
v 0.0000 64.7539 27.7227
v 10.9844 53.9141 18.9180
v 23.1992 53.0000 13.4492
v 5.1953 53.5117 20.4648
v 0.0000 53.5234 21.2969
v -26.2969 33.4336 0.0000
v -25.4531 28.0000 9.0000
v -24.7617 43.8398 10.8906
v -10.0000 67.3164 15.9961
v -10.1016 67.5508 3.9141
v -10.6641 19.6953 -25.1328
v -18.6641 24.7188 -23.9453
v -18.6641 15.5547 -13.8867
v -10.6641 33.4336 -31.6211
v -10.0000 44.8203 -31.2773
v -10.0000 62.2617 -16.6406
v -10.0000 65.5586 -5.6641
v -14.7266 65.8203 3.7734
v -18.6641 43.1172 -24.8984
v -10.0000 54.8320 -25.4961
v -17.6992 56.7812 -14.9414
v -24.6484 33.4336 -15.0938
v -24.0000 43.6484 -12.1719
v -24.0000 51.8516 -2.7031
v -26.2969 42.3867 -1.3477
v -19.3516 62.0000 2.2773
v -23.1992 53.0000 13.4492
v -21.0000 63.0195 17.0000
v 0.0000 42.7891 11.8867
v -24.7617 43.8398 10.8906
v -25.4531 28.0000 9.0000
v -26.2969 33.4336 0.0000
v -16.1953 65.5781 16.4961
v -17.0000 63.8828 22.0000
v -14.1445 54.4453 18.6719
v -12.0000 64.3438 25.0000
v -9.9844 54.8438 21.0977
v -21.0000 63.0195 17.0000
v -15.6562 53.8320 16.0938
v -6.0000 64.6328 27.0000
v -4.8398 55.2070 22.7500
v -5.1953 53.5117 20.4648
v -17.0000 63.8828 22.0000
v -12.0000 64.3438 25.0000
v -6.0000 64.6328 27.0000
v -10.9844 53.9141 18.9180
v -23.1992 53.0000 13.4492
f 1 2 3
f 2 1 32
f 32 34 2
f 30 34 32
f 30 32 29
f 27 30 29
f 27 29 25
f 26 27 25
f 19 26 25
f 16 19 25
f 17 19 16
f 16 11 17
f 12 11 16
f 11 12 13
f 11 13 61
f 61 64 11
f 61 62 64
f 62 61 63
f 62 63 72
f 69 62 72
f 64 62 69
f 64 69 65
f 17 64 65
f 64 17 11
f 18 19 17
f 19 18 26
f 26 18 31
f 31 20 26
f 21 20 31
f 20 21 22
f 20 22 27
f 26 20 27
f 22 33 27
f 33 22 24
f 33 24 35
f 35 30 33
f 34 30 35
f 30 27 33
f 4 5 6
f 6 5 36
f 53 6 36
f 6 53 43
f 43 53 42
f 42 38 43
f 43 38 40
f 43 40 52
f 52 40 41
f 52 41 54
f 54 41 45
f 54 45 55
f 55 45 47
f 91 55 47
f 91 47 46
f 90 91 46
f 87 91 90
f 86 87 90
f 85 87 86
f 84 85 86
f 89 85 84
f 88 89 84
f 89 88 97
f 79 89 97
f 97 80 79
f 79 80 81
f 79 81 82
f 7 8 9
f 8 7 50
f 49 8 50
f 48 8 49
f 37 8 48
f 10 8 37
f 9 8 10
f 9 10 23
f 9 23 60
f 9 60 59
f 7 9 59
f 59 95 7
f 94 95 59
f 93 94 59
f 83 93 59
f 60 83 59
f 60 68 83
f 68 60 67
f 76 68 67
f 67 71 76
f 66 71 67
f 66 67 21
f 21 31 66
f 31 70 66
f 70 31 18
f 65 70 18
f 18 17 65
f 65 69 70
f 70 69 71
f 70 71 66
f 71 73 74
f 71 69 73
f 69 72 73
f 75 73 72
f 74 73 75
f 74 75 77
f 77 78 74
f 78 76 74
f 76 78 68
f 78 83 68
f 78 93 83
f 14 15 12
f 28 15 14
f 1 15 28
f 1 28 32
f 32 28 29
f 25 29 28
f 25 28 14
f 16 25 14
f 12 16 14
f 12 15 13
f 63 61 13
f 72 63 56
f 56 75 72
f 58 75 56
f 56 57 58
f 75 58 77
f 22 21 23
f 23 10 22
f 24 22 10
f 10 37 24
f 35 24 37
f 35 37 48
f 38 39 40
f 40 39 41
f 39 44 41
f 41 44 45
f 44 46 45
f 45 46 47
f 50 7 51
f 95 51 7
f 67 23 21
f 23 67 60
f 74 76 71
f 92 55 91
f 92 91 87
f 96 92 87
f 96 87 85
f 89 96 85
