v 11.3984 33.6562 -31.6211
v 0.0000 21.4180 -33.7422
v 0.0000 33.3555 -34.7773
v -11.3984 33.6562 -31.6211
v 28.1602 -8.0039 4.6953
v 25.9492 -16.1641 -11.4883
v 33.9922 -8.4375 -11.0000
v 18.4141 -10.4883 -23.3242
v 9.2070 -18.0000 -26.9062
v 13.8242 -10.3750 -37.5078
v 10.2930 21.9375 -32.2188
v 19.9180 22.2227 -25.5977
v 21.2227 11.3828 -25.2812
v 25.9492 -16.1641 -11.4883
v 18.4141 -10.4883 -23.3242
v 33.9922 -8.4375 -11.0000
v 13.7891 8.1602 -37.9648
v 25.9492 -16.1641 -11.4883
v 28.1602 -8.0039 4.6953
v 19.3398 -9.3789 3.3203
v 28.1680 0.8320 -11.4883
v 32.2188 8.5000 -11.0000
v 27.1445 12.2383 3.7188
v 21.2227 11.3828 -25.2812
v 32.2188 8.5000 -11.0000
v 28.1680 0.8320 -11.4883
v 11.1562 -1.0469 -32.8750
v 24.2930 22.2578 -11.4883
v 32.5820 22.3555 2.0273
v 13.8242 -10.3750 -37.5078
v 9.2070 -18.0000 -26.9062
v 0.0000 -13.1758 -30.4102
v 13.7891 8.1602 -37.9648
v 11.1562 -1.0469 -32.8750
v 0.0000 9.3203 -31.4844
v 24.1797 1.6406 0.3711
v 24.1797 1.6406 0.3711
v 24.6836 0.1797 -26.3594
v 24.6836 0.1797 -26.3594
v 0.0000 -2.4648 -39.7969
v 18.2109 35.3086 -25.1836
v 0.0000 -10.9258 -21.0273
v 18.6641 15.5547 -13.8867
v -18.6641 15.5547 -13.8867
v 9.2070 -18.0000 -26.9062
v 18.4141 -10.4883 -23.3242
v 0.0000 -13.1758 -30.4102
v 29.0430 32.5039 -0.4297
v 27.1445 12.2383 3.7188
v 8.3164 48.2188 0.6016
v 32.5820 22.3555 2.0273
v -28.1602 -8.0039 4.6953
v -33.9922 -8.4375 -11.0000
v -25.9492 -16.1641 -11.4883
v -18.4141 -10.4883 -23.3242
v -13.8242 -10.3750 -37.5078
v -9.2070 -18.0000 -26.9062
v -10.2930 21.9375 -32.2188
v -21.2227 11.3828 -25.2812
v -19.9180 22.2227 -25.5977
v -25.9492 -16.1641 -11.4883
v -33.9922 -8.4375 -11.0000
v -18.4141 -10.4883 -23.3242
v -13.7891 8.1602 -37.9648
v -19.3398 -9.3789 3.3203
v -18.4141 -10.4883 -23.3242
v -25.9492 -16.1641 -11.4883
v -28.1602 -8.0039 4.6953
v -28.1680 0.8320 -11.4883
v -27.1445 12.2383 3.7188
v -32.2188 8.5000 -11.0000
v -21.2227 11.3828 -25.2812
v -28.1680 0.8320 -11.4883
v -32.2188 8.5000 -11.0000
v -11.1562 -1.0469 -32.8750
v -26.7578 43.5547 -8.6289
v -24.2930 22.2578 -11.4883
v -29.0430 32.5039 -0.4297
v -32.5820 22.3555 2.0273
v -13.8242 -10.3750 -37.5078
v 0.0000 -13.1758 -30.4102
v -9.2070 -18.0000 -26.9062
v -13.7891 8.1602 -37.9648
v 0.0000 9.3203 -31.4844
v -11.1562 -1.0469 -32.8750
v -24.1797 1.6406 0.3711
v -24.1797 1.6406 0.3711
v -24.6836 0.1797 -26.3594
v -24.6836 0.1797 -26.3594
v 0.0000 -2.4648 -39.7969
v -18.2109 35.3086 -25.1836
v -9.2070 -18.0000 -26.9062
v -27.1445 12.2383 3.7188
v -8.3164 48.2188 0.6016
v -32.5820 22.3555 2.0273
v 26.7578 43.5547 -8.6289
v 27.1719 29.9297 10.5547
v 27.1719 29.9297 10.5547
v 22.8789 35.0000 20.1328
v 24.9453 38.0000 15.5117
v 24.4922 43.9531 9.8594
v 22.8789 35.0000 20.1328
v 20.6797 48.9688 15.2617
v 10.4023 54.1992 21.3125
v 11.0273 51.7734 23.0977
v 18.5781 44.7188 20.0195
v 18.5781 44.7188 20.0195
v -27.1719 29.9297 10.5547
v -22.8789 35.0000 20.1328
v -27.1719 29.9297 10.5547
v -22.8789 35.0000 20.1328
v -20.6797 48.9688 15.2617
v -24.9453 38.0000 15.5117
v -10.4023 54.1992 21.3125
v -11.0273 51.7734 23.0977
v -18.5781 44.7188 20.0195
v -18.5781 44.7188 20.0195
v -24.4922 43.9531 9.8594
v -8.3164 48.2188 0.6016
v -27.1719 29.9297 10.5547
v 32.5820 22.3555 2.0273
v 27.1719 29.9297 10.5547
v -11.0273 51.7734 23.0977
v 18.5781 44.7188 20.0195
v 11.0273 51.7734 23.0977
v 24.4922 43.9531 9.8594
v 20.6797 48.9688 15.2617
v -24.4922 43.9531 9.8594
v -24.9453 38.0000 15.5117
v -20.6797 48.9688 15.2617
v -11.0273 51.7734 23.0977
v -10.4023 54.1992 21.3125
v 11.0273 51.7734 23.0977
v 10.4023 54.1992 21.3125
f 1 2 3
f 3 2 4
f 5 6 7
f 8 9 10
f 11 12 13
f 14 15 16
f 13 17 11
f 18 19 20
f 21 22 23
f 24 25 26
f 13 27 17
f 22 28 23
f 23 28 29
f 30 31 32
f 33 34 35
f 2 11 35
f 36 20 19
f 5 21 37
f 38 26 15
f 8 27 39
f 40 34 32
f 35 11 33
f 39 27 13
f 35 34 40
f 21 23 37
f 24 26 38
f 24 28 25
f 15 26 16
f 8 10 27
f 32 34 30
f 7 21 5
f 11 2 1
f 1 12 11
f 1 41 12
f 42 43 44
f 45 46 42
f 42 46 43
f 47 45 42
f 24 12 28
f 29 28 48
f 36 43 20
f 43 46 20
f 20 46 18
f 36 49 43
f 43 49 50
f 50 49 51
f 52 53 54
f 55 56 57
f 58 59 60
f 61 62 63
f 59 58 64
f 44 65 66
f 66 65 67
f 67 65 68
f 69 70 71
f 72 73 74
f 59 64 75
f 76 77 78
f 77 79 78
f 80 81 82
f 83 84 85
f 83 58 84
f 86 68 65
f 52 87 69
f 88 63 73
f 55 89 75
f 90 81 85
f 58 2 84
f 89 59 75
f 84 90 85
f 69 87 70
f 72 88 73
f 72 74 77
f 63 62 73
f 55 75 56
f 81 80 85
f 53 52 69
f 58 4 2
f 4 58 60
f 76 91 77
f 77 91 60
f 44 66 42
f 42 66 92
f 47 42 92
f 72 77 60
f 4 60 91
f 86 65 44
f 93 86 44
f 44 94 93
f 94 95 93
f 71 70 77
f 77 70 79
f 96 28 41
f 41 28 12
f 28 96 48
f 29 48 97
f 50 98 99
f 100 48 101
f 48 96 101
f 102 100 103
f 104 105 103
f 102 103 106
f 107 50 99
f 106 103 105
f 102 97 100
f 48 100 97
f 79 108 78
f 94 109 110
f 111 112 113
f 114 112 115
f 111 116 112
f 115 112 116
f 117 109 94
f 111 113 108
f 108 113 78
f 113 118 78
f 76 78 118
f 95 119 120
f 50 121 122
f 117 119 123
f 50 124 125
f 100 126 127
f 128 129 130
f 131 119 132
f 50 133 134
