v 8.9844 72.0000 -25.0000
v 11.9844 65.4336 -31.7461
v 5.3828 66.1992 -31.7227
v 8.0000 58.0000 -39.0000
v 0.0000 50.2852 -43.7031
v 0.0000 65.5312 -38.1680
v 5.3828 66.1992 -31.7227
v 8.9219 63.9922 -18.7969
v 8.9844 72.0000 -25.0000
v 0.0000 74.4219 -26.1445
v 0.0000 74.4219 -26.1445
v 16.4766 57.3594 -20.7969
v 16.0898 52.5000 -33.5000
v -8.9219 63.9922 -18.7969
v 16.4766 57.3594 -20.7969
v 18.7617 61.0625 4.8672
v 27.0000 50.0000 17.0000
v 25.4375 52.9570 -2.8633
v 10.5977 67.4883 -6.0039
v 10.0039 66.2383 10.9688
v 0.0000 69.2383 -6.3125
v 0.0000 68.0000 10.0000
v 26.6719 36.7266 22.2695
v 23.1875 31.4648 22.6992
v 28.5312 27.0000 3.0000
v 9.8516 61.8281 24.6719
v 19.0000 60.0000 18.0000
v 5.3125 50.8750 29.9414
v 16.2656 54.7539 29.5625
v 29.5000 40.5000 5.5000
v 23.1875 31.4648 22.6992
v 0.0000 55.6719 -7.0000
v 28.5312 27.0000 3.0000
v 0.0000 22.0156 -31.3750
v 11.3047 22.5742 -29.8398
v 0.0000 9.6289 -19.1055
v 18.6641 15.5547 -13.8867
v 19.7852 24.1953 -25.3828
v 11.3047 35.4609 -33.5195
v 0.0000 33.4336 -35.2422
v 19.7852 43.6992 -26.3945
v 16.4766 57.3594 -20.7969
v 27.8086 26.2969 -11.8125
v 25.4375 44.2617 -12.9023
v 13.3672 40.1055 30.9023
v 5.3125 50.8750 29.9414
v 19.8594 -4.7344 -10.4922
v 21.9258 3.5781 -4.7422
v 29.0547 4.5273 -3.6484
v 21.9648 -5.2500 -4.2852
v 26.6211 4.2656 3.1953
v 17.0000 -5.4688 -3.1094
v 19.8594 -4.7344 -10.4922
v 23.6172 -17.1250 -1.9453
v 21.9648 -5.2500 -4.2852
v 23.6172 -17.1250 -1.9453
v 21.9258 3.5781 -4.7422
v 26.6211 4.2656 3.1953
v 26.0391 14.6250 0.1797
v 26.0391 14.6250 0.1797
v 27.8203 15.3281 -5.3828
v 11.3047 35.4609 -33.5195
v 8.0430 39.4922 -41.4883
v 19.7852 43.6992 -26.3945
v 0.0000 33.4336 -35.2422
v -8.0430 39.4922 -41.4883
v 0.0000 29.4062 -4.9805
v 28.3789 21.2656 4.2109
v 22.1367 46.2617 28.7383
v 18.6641 15.5547 -13.8867
v 13.3672 40.1055 30.9023
v 0.0000 63.3828 20.0000
v 0.0000 63.3828 20.0000
v 28.3789 21.2656 4.2109
v -8.9844 72.0000 -25.0000
v -5.3828 66.1992 -31.7227
v -11.9844 65.4336 -31.7461
v -8.0000 58.0000 -39.0000
v -5.3828 66.1992 -31.7227
v -25.4375 44.2617 -12.9023
v -16.4766 57.3594 -20.7969
v -19.7852 43.6992 -26.3945
v -16.0898 52.5000 -33.5000
v -16.4766 57.3594 -20.7969
v -8.9844 72.0000 -25.0000
v -16.4766 57.3594 -20.7969
v -18.7617 61.0625 4.8672
v -25.4375 52.9570 -2.8633
v -27.0000 50.0000 17.0000
v -10.0039 66.2383 10.9688
v -10.5977 67.4883 -6.0039
v -28.5312 27.0000 3.0000
v -23.1875 31.4648 22.6992
v -26.6719 36.7266 22.2695
v -29.5000 40.5000 5.5000
v -9.8516 61.8281 24.6719
v -5.3125 50.8750 29.9414
v -22.1367 46.2617 28.7383
v -16.2656 54.7539 29.5625
v -19.0000 60.0000 18.0000
v -11.3047 22.5742 -29.8398
v -11.3047 35.4609 -33.5195
v -19.7852 24.1953 -25.3828
v -18.6641 15.5547 -13.8867
v -27.8086 26.2969 -11.8125
v -5.3125 50.8750 29.9414
v -13.3672 40.1055 30.9023
v -19.8594 -4.7344 -10.4922
v -29.0547 4.5273 -3.6484
v -21.9258 3.5781 -4.7422
v -21.9648 -5.2500 -4.2852
v -26.6211 4.2656 3.1953
v -17.0000 -5.4688 -3.1094
v -23.6172 -17.1250 -1.9453
v -19.8594 -4.7344 -10.4922
v -21.9648 -5.2500 -4.2852
v -23.6172 -17.1250 -1.9453
v -26.0391 14.6250 0.1797
v -21.9258 3.5781 -4.7422
v -18.6641 15.5547 -13.8867
v -26.0391 14.6250 0.1797
v -27.8203 15.3281 -5.3828
v -26.6211 4.2656 3.1953
v -28.3789 21.2656 4.2109
v -11.3047 35.4609 -33.5195
v -19.7852 43.6992 -26.3945
v -13.3672 40.1055 30.9023
v -23.1875 31.4648 22.6992
v -28.5312 27.0000 3.0000
v -28.3789 21.2656 4.2109
v -8.9219 63.9922 -18.7969
v 8.9219 63.9922 -18.7969
f 1 2 3
f 2 1 12
f 2 12 13
f 4 2 13
f 3 2 4
f 6 3 4
f 4 5 6
f 63 5 4
f 63 66 5
f 65 66 63
f 65 63 62
f 62 63 64
f 64 63 13
f 13 12 64
f 4 13 63
f 7 8 9
f 7 10 8
f 14 8 10
f 79 14 10
f 85 14 79
f 14 85 86
f 3 6 11
f 76 11 6
f 6 78 76
f 78 6 5
f 66 78 5
f 78 66 83
f 78 83 77
f 76 78 77
f 75 76 77
f 77 84 75
f 77 83 84
f 126 84 83
f 126 83 66
f 125 126 66
f 65 125 66
f 8 15 9
f 16 17 18
f 16 27 17
f 20 27 16
f 16 19 20
f 19 16 42
f 42 132 19
f 132 21 19
f 132 131 21
f 21 131 91
f 21 91 22
f 21 22 19
f 20 19 22
f 22 26 20
f 72 26 22
f 26 72 28
f 26 28 29
f 29 27 26
f 27 29 17
f 17 29 69
f 17 69 23
f 30 17 23
f 18 17 30
f 18 30 44
f 42 18 44
f 41 42 44
f 41 44 43
f 38 41 43
f 38 39 41
f 35 39 38
f 37 35 38
f 36 35 37
f 34 35 36
f 35 34 39
f 34 40 39
f 34 102 40
f 101 102 34
f 34 36 101
f 36 104 101
f 101 104 103
f 101 103 102
f 102 103 82
f 82 103 105
f 82 105 80
f 80 81 82
f 81 80 88
f 87 81 88
f 87 88 89
f 87 89 100
f 90 87 100
f 87 90 91
f 91 81 87
f 131 81 91
f 90 22 91
f 22 90 96
f 22 96 72
f 72 96 97
f 99 97 96
f 99 127 97
f 98 127 99
f 98 99 89
f 89 94 98
f 95 94 89
f 88 95 89
f 88 80 95
f 105 95 80
f 92 95 105
f 124 92 105
f 124 105 122
f 121 124 122
f 109 121 122
f 112 121 109
f 111 112 109
f 111 109 108
f 108 117 111
f 108 109 110
f 109 104 110
f 104 109 122
f 104 122 105
f 103 104 105
f 23 24 25
f 69 24 23
f 69 71 24
f 69 29 71
f 71 29 28
f 20 26 27
f 31 32 33
f 31 45 32
f 32 45 46
f 32 46 73
f 32 73 106
f 32 106 107
f 128 32 107
f 32 128 129
f 32 129 67
f 32 67 33
f 33 67 68
f 68 67 59
f 70 59 67
f 57 59 70
f 57 58 59
f 52 58 57
f 58 52 55
f 55 52 54
f 52 53 54
f 52 57 53
f 38 43 37
f 37 43 61
f 37 61 49
f 37 49 48
f 47 48 49
f 50 47 49
f 50 49 51
f 51 49 60
f 49 61 60
f 60 61 74
f 43 74 61
f 43 25 74
f 43 30 25
f 30 43 44
f 23 25 30
f 16 18 42
f 47 50 56
f 92 93 94
f 92 94 95
f 93 98 94
f 93 127 98
f 89 99 100
f 99 96 100
f 96 90 100
f 113 114 115
f 116 114 113
f 123 116 113
f 113 119 123
f 113 115 119
f 118 119 120
f 120 67 118
f 67 130 118
f 129 130 67
f 118 123 119
