v 23.4922 37.1758 19.0742
v 20.2852 33.3359 20.0781
v 28.2773 29.7461 13.8398
v 29.7227 33.1055 8.4023
v 27.3438 38.4375 8.7188
v 26.4297 41.0078 0.0547
v 21.0430 47.2344 15.8008
v 17.2070 45.2773 20.7812
v 10.4219 56.2695 17.9727
v 25.7930 27.5312 13.3359
v 31.3281 24.9961 5.6094
v 28.2930 32.0000 2.0000
v 0.0000 33.5469 -34.3477
v 11.3984 34.1562 -31.6953
v 0.0000 29.5430 -34.2891
v 11.5547 29.5430 -31.9766
v 20.0898 30.5625 -26.1445
v 19.3555 35.5977 -24.9492
v 24.6250 37.2383 -17.0586
v 25.7227 31.2617 -16.7852
v 8.9297 52.6562 23.2578
v 0.0000 54.4766 3.2539
v 13.5703 42.1484 23.4297
v 0.0000 50.0000 24.8750
v 20.2852 33.3359 20.0781
v 25.7930 27.5312 13.3359
v 31.3281 24.9961 5.6094
v 26.7969 17.5000 0.0000
v 18.9102 19.0977 -23.6914
v 10.7266 17.9297 -28.9180
v 0.0000 17.7500 -32.1055
v 25.7695 2.0000 -3.8555
v 22.0000 8.0000 -15.0000
v 9.0000 6.0000 -28.4922
v 17.4023 5.0508 -22.0000
v 0.0000 2.0000 -31.0000
v 13.5703 42.1484 23.4297
v 8.9297 52.6562 23.2578
v 0.0000 -7.5000 -33.1094
v 17.9883 -7.5000 -24.4609
v 25.3516 -7.5000 -7.5820
v 28.2930 32.0000 2.0000
v -23.4922 37.1758 19.0742
v -28.2773 29.7461 13.8398
v -20.2852 33.3359 20.0781
v -29.7227 33.1055 8.4023
v -21.0430 47.2344 15.8008
v -26.4297 41.0078 0.0547
v -27.3438 38.4375 8.7188
v -13.5703 42.1484 23.4297
v -10.4219 56.2695 17.9727
v -17.2070 45.2773 20.7812
v -8.9297 52.6562 23.2578
v 0.0000 57.7930 19.4336
v 0.0000 50.0000 24.8750
v -31.3281 24.9961 5.6094
v -25.7930 27.5312 13.3359
v -28.2930 32.0000 2.0000
v -11.3984 34.1562 -31.6953
v -11.5547 29.5430 -31.9766
v -20.0898 30.5625 -26.1445
v -24.6250 37.2383 -17.0586
v -25.7227 31.2617 -16.7852
v -19.3555 35.5977 -24.9492
v -8.9297 52.6562 23.2578
v -13.5703 42.1484 23.4297
v 0.0000 54.4766 3.2539
v 0.0000 50.0000 24.8750
v -20.2852 33.3359 20.0781
v -25.7930 27.5312 13.3359
v -31.3281 24.9961 5.6094
v -26.7969 17.5000 0.0000
v -18.9102 19.0977 -23.6914
v -10.7266 17.9297 -28.9180
v -25.7695 2.0000 -3.8555
v -22.0000 8.0000 -15.0000
v -9.0000 6.0000 -28.4922
v -17.4023 5.0508 -22.0000
v -25.3516 -7.5000 -7.5820
v -17.9883 -7.5000 -24.4609
v -17.9883 -7.5000 -24.4609
v -10.6641 3.5430 -12.7695
v -17.4961 5.5430 -8.0117
v -28.2930 32.0000 2.0000
v 25.3516 -7.5000 -7.5820
v 17.4961 5.5430 -8.0117
v 22.0000 8.0000 -15.0000
v -26.7969 17.5000 0.0000
v -25.7695 2.0000 -3.8555
v -25.3516 -7.5000 -7.5820
v -22.0000 8.0000 -15.0000
v -22.0000 8.0000 -15.0000
v 25.7695 2.0000 -3.8555
v 26.7969 17.5000 0.0000
v 17.9883 -7.5000 -24.4609
v 22.0000 8.0000 -15.0000
v 10.6641 3.5430 -12.7695
v 0.0000 -7.5000 -33.1094
v 9.0000 6.0000 -28.4922
v -9.0000 6.0000 -28.4922
v -9.0000 6.0000 -28.4922
v 9.0000 6.0000 -28.4922
v -13.1211 17.7773 -5.1953
v -28.2930 32.0000 2.0000
v 13.1211 17.7773 -5.1953
v 21.2188 38.0391 2.4844
v 28.2930 32.0000 2.0000
v -21.2188 38.0391 2.4844
f 1 2 3
f 4 1 3
f 4 3 11
f 12 4 11
f 6 4 12
f 5 4 6
f 7 5 6
f 5 7 1
f 5 1 4
f 8 1 7
f 9 8 7
f 9 38 8
f 9 54 38
f 38 54 55
f 54 53 55
f 51 53 54
f 51 52 53
f 51 47 52
f 43 52 47
f 43 47 49
f 43 49 46
f 46 44 43
f 46 56 44
f 58 56 46
f 48 58 46
f 48 63 58
f 48 62 63
f 62 61 63
f 62 64 61
f 59 61 64
f 59 60 61
f 59 15 60
f 13 15 59
f 13 14 15
f 14 16 15
f 17 16 14
f 17 14 18
f 17 18 19
f 17 19 20
f 17 20 29
f 29 16 17
f 29 30 16
f 30 29 34
f 31 30 34
f 34 36 31
f 36 34 39
f 36 39 77
f 31 36 77
f 31 77 74
f 31 74 60
f 15 31 60
f 15 16 31
f 31 16 30
f 3 10 11
f 3 2 10
f 37 2 1
f 37 1 8
f 38 37 8
f 20 6 12
f 28 20 12
f 20 28 33
f 29 20 33
f 33 35 29
f 35 33 40
f 40 34 35
f 34 29 35
f 21 22 23
f 24 22 21
f 25 22 26
f 23 22 25
f 26 22 27
f 22 42 27
f 32 33 28
f 41 33 32
f 20 19 6
f 43 44 45
f 43 45 50
f 43 50 52
f 53 52 50
f 47 48 49
f 49 48 46
f 44 56 57
f 44 57 45
f 65 66 67
f 68 65 67
f 69 70 67
f 66 69 67
f 70 71 67
f 71 84 67
f 72 58 63
f 76 72 63
f 75 72 76
f 79 75 76
f 76 73 78
f 78 80 76
f 80 78 77
f 77 78 73
f 73 74 77
f 73 60 74
f 73 61 60
f 61 73 63
f 73 76 63
f 81 82 83
f 81 83 92
f 82 81 100
f 97 82 98
f 97 98 102
f 97 95 86
f 95 97 99
f 86 95 96
f 85 86 87
f 86 85 93
f 86 93 94
f 86 94 105
f 86 105 97
f 105 103 97
f 97 103 82
f 103 83 82
f 83 103 88
f 88 89 83
f 90 83 89
f 83 90 91
f 98 82 101
f 103 104 88
f 108 104 103
f 106 105 107
f 94 107 105
