v 33.7383 42.1484 1.6250
v 27.3555 47.3086 -4.1797
v 31.5195 29.5508 -3.2344
v 33.7383 42.1484 -16.4141
v 31.5195 29.5508 -11.5508
v 26.1445 47.3086 -10.6055
v 27.9297 36.1094 -7.3320
v 26.2891 22.6602 -7.3906
v 34.6211 27.9688 -7.3906
v 39.6484 39.8945 -3.1328
v 39.6484 39.8945 -11.6523
v 29.9219 54.3594 1.8008
v 28.9727 60.9375 -2.7773
v 37.4453 52.9492 -2.5039
v 28.9727 60.9648 -12.0625
v 37.4453 52.9492 -12.2812
v 29.9219 54.3594 -16.5898
v 11.7422 55.1719 -6.7031
v 10.5977 66.7461 5.8203
v 10.6172 67.4531 -6.3828
v 0.0000 68.4453 6.1172
v 0.0000 68.8633 -7.0000
v 0.0000 64.0000 -18.0000
v 18.7617 58.1797 -15.8359
v 10.0000 54.8320 -25.4961
v 0.0000 55.9336 -26.8086
v 18.6641 43.1172 -24.8984
v 10.3320 39.1250 -31.4492
v 18.6641 24.7188 -23.9453
v 10.6641 23.1875 -28.1484
v 19.9336 61.0859 4.2773
v 24.7227 28.5000 9.0000
v 26.2969 33.4336 0.0000
v 23.6133 46.2695 13.0000
v 25.3555 47.1211 -1.7656
v 25.4062 38.5391 -13.6328
v 0.0000 39.4180 -33.0664
v 0.0000 22.6602 -29.5977
v 0.0000 9.6289 -19.1055
v 18.6641 15.5547 -13.8867
v 24.7227 28.5000 9.0000
v 23.6133 46.2695 13.0000
v 0.0000 52.2812 9.0586
v 26.2969 33.4336 0.0000
v -5.0000 44.0000 30.0000
v -12.0000 43.0000 27.0000
v 16.9648 57.9062 18.9766
v 9.4219 62.2461 19.8906
v 8.9844 52.0000 29.0000
v 0.0000 63.3984 21.6797
v -8.9844 52.0000 29.0000
v 0.0000 52.3477 31.0000
v 2.0000 46.8633 31.0000
v 16.5039 47.1211 23.5000
v -5.0000 44.0000 30.0000
v -12.0000 43.0000 27.0000
v 8.9844 52.0000 29.0000
v 16.5039 47.1211 23.5000
v 2.0000 46.8633 31.0000
v -33.7383 42.1484 1.6250
v -31.5195 29.5508 -3.2344
v -27.3555 47.3086 -4.1797
v -33.7383 42.1484 -16.4141
v -26.1445 47.3086 -10.6055
v -31.5195 29.5508 -11.5508
v -27.9297 36.1094 -7.3320
v -26.2891 22.6602 -7.3906
v -34.6211 27.9688 -7.3906
v -39.6484 39.8945 -3.1328
v -39.6484 39.8945 -11.6523
v -29.9219 54.3594 1.8008
v -28.9727 60.9375 -2.7773
v -37.4453 52.9492 -2.5039
v -28.9727 60.9648 -12.0625
v -37.4453 52.9492 -12.2812
v -29.9219 54.3594 -16.5898
v -11.7422 55.1719 -6.7031
v -10.5977 66.7461 5.8203
v -10.6172 67.4531 -6.3828
v -10.0000 54.8320 -25.4961
v -18.7617 58.1797 -15.8359
v -10.3320 39.1250 -31.4492
v -18.6641 43.1172 -24.8984
v -18.6641 24.7188 -23.9453
v -10.6641 23.1875 -28.1484
v -19.9336 61.0859 4.2773
v -24.7227 28.5000 9.0000
v -23.6133 46.2695 13.0000
v -26.2969 33.4336 0.0000
v -25.3555 47.1211 -1.7656
v -25.4062 38.5391 -13.6328
v -18.6641 15.5547 -13.8867
v -24.7227 28.5000 9.0000
v -23.6133 46.2695 13.0000
v -26.2969 33.4336 0.0000
v -16.9648 57.9062 18.9766
v -9.4219 62.2461 19.8906
v -16.5039 47.1211 23.5000
v -16.5039 47.1211 23.5000
v 0.0000 63.3984 21.6797
v -9.4219 62.2461 19.8906
v -12.0000 43.0000 27.0000
v -8.9844 52.0000 29.0000
v -8.9844 52.0000 29.0000
v -16.5039 47.1211 23.5000
f 1 2 3
f 3 10 1
f 9 10 3
f 9 11 10
f 5 11 9
f 4 11 5
f 4 5 6
f 17 4 6
f 18 17 6
f 17 18 15
f 17 15 16
f 17 16 4
f 4 16 11
f 16 14 11
f 15 14 16
f 13 14 15
f 13 12 14
f 18 12 13
f 12 18 2
f 12 2 1
f 12 1 14
f 14 1 10
f 11 14 10
f 6 5 7
f 7 2 6
f 2 7 3
f 3 7 8
f 9 3 8
f 5 9 8
f 7 5 8
f 19 20 21
f 20 19 31
f 24 20 31
f 20 24 23
f 22 20 23
f 21 20 22
f 21 22 79
f 78 21 79
f 79 86 78
f 81 86 79
f 23 81 79
f 80 81 23
f 26 80 23
f 23 25 26
f 23 24 25
f 25 24 27
f 25 27 28
f 37 25 28
f 26 25 37
f 26 37 80
f 37 82 80
f 37 38 82
f 37 28 38
f 38 28 30
f 39 38 30
f 39 30 40
f 40 30 29
f 29 36 40
f 27 36 29
f 27 29 28
f 29 30 28
f 32 33 34
f 34 33 35
f 34 35 31
f 31 47 34
f 19 47 31
f 48 47 19
f 49 47 48
f 49 48 50
f 52 49 50
f 50 51 52
f 52 51 55
f 53 52 55
f 49 52 53
f 58 47 49
f 34 47 58
f 24 36 27
f 36 24 35
f 33 36 35
f 33 40 36
f 35 24 31
f 41 42 43
f 44 41 43
f 43 45 46
f 43 59 45
f 57 59 43
f 43 54 57
f 54 43 42
f 93 43 94
f 95 43 93
f 98 94 43
f 43 102 103
f 43 104 105
f 18 13 15
f 55 51 56
f 51 97 96
f 99 51 96
f 88 99 96
f 86 88 96
f 88 86 90
f 88 90 89
f 87 88 89
f 89 90 91
f 89 91 92
f 84 92 91
f 83 84 91
f 83 82 84
f 80 82 83
f 80 83 81
f 81 83 91
f 91 90 81
f 90 86 81
f 78 86 96
f 97 78 96
f 97 50 78
f 50 21 78
f 21 50 19
f 19 50 48
f 60 61 62
f 61 60 69
f 68 61 69
f 68 69 70
f 65 68 70
f 63 65 70
f 63 64 65
f 76 64 63
f 77 64 76
f 76 74 77
f 76 75 74
f 76 63 75
f 63 70 75
f 75 70 73
f 74 75 73
f 72 74 73
f 72 73 71
f 77 72 71
f 71 62 77
f 71 60 62
f 71 73 60
f 73 69 60
f 70 69 73
f 64 66 65
f 66 64 62
f 62 61 66
f 61 67 66
f 68 67 61
f 65 67 68
f 66 67 65
f 84 82 85
f 92 84 85
f 39 92 85
f 39 85 38
f 38 85 82
f 77 74 72
f 51 100 101
f 79 22 23
