v 12.3320 66.0039 11.7031
v 6.9648 60.0273 21.1562
v 16.2305 57.4141 20.8125
v 0.0000 64.8594 13.7773
v -6.9648 60.0273 21.1562
v -12.3320 66.0039 11.7031
v 6.9648 60.0273 21.1562
v 10.0000 57.3711 17.6133
v 16.2305 57.4141 20.8125
v 0.0000 22.3672 -29.8906
v 10.6641 23.1875 -28.1484
v 0.0000 9.6289 -19.1055
v 18.9531 24.7188 -23.9453
v 18.6641 15.5547 -13.8867
v 11.3047 33.4336 -33.5195
v -11.3047 33.4336 -33.5195
v 10.5977 67.4883 -6.0039
v 0.0000 69.2383 -6.3125
v 11.0039 66.3984 2.2695
v 0.0000 66.9922 3.1953
v 19.7852 43.6992 -26.3945
v 10.5977 56.1133 -27.0273
v 18.7617 58.1797 -15.8359
v 26.7852 33.1914 -16.2930
v 26.2969 33.4336 0.0000
v 26.0820 51.9453 -4.4727
v 27.6094 40.9375 0.3867
v 0.0000 46.1250 -34.8594
v 20.3828 61.7539 0.0508
v 0.0000 65.5625 -18.5469
v 24.2852 57.0508 9.3008
v 30.6992 39.8867 7.1680
v 26.4062 9.5078 13.5430
v 24.3828 15.4688 17.8320
v 19.5859 -0.2461 19.8594
v 29.9219 18.3789 9.5547
v 31.6445 28.8398 7.7969
v 25.1641 30.0664 17.5703
v 29.9492 36.8555 -3.8867
v 30.3320 22.7852 -0.7969
v 26.1094 10.2656 6.9844
v 20.3086 34.4375 3.8203
v 22.3906 17.6914 9.9414
v 25.1641 30.0664 17.5703
v 24.3828 15.4688 17.8320
v 29.9492 36.8555 -3.8867
v 30.3320 22.7852 -0.7969
v 26.1094 10.2656 6.9844
v 19.5859 -0.2461 19.8594
v 21.5352 47.8750 19.4180
v 21.5352 47.8750 19.4180
v 26.0820 51.9453 -4.4727
v -10.6641 23.1875 -28.1484
v -18.9531 24.7188 -23.9453
v -18.6641 15.5547 -13.8867
v -19.7852 43.6992 -26.3945
v -11.0039 66.3984 2.2695
v -10.5977 67.4883 -6.0039
v -10.5977 56.1133 -27.0273
v -18.7617 58.1797 -15.8359
v -26.7852 33.1914 -16.2930
v -26.2969 33.4336 0.0000
v -26.0820 51.9453 -4.4727
v -27.6094 40.9375 0.3867
v -20.3828 61.7539 0.0508
v -16.2305 57.4141 20.8125
v -24.2852 57.0508 9.3008
v -21.5352 47.8750 19.4180
v -30.6992 39.8867 7.1680
v -26.4062 9.5078 13.5430
v -19.5859 -0.2461 19.8594
v -24.3828 15.4688 17.8320
v -29.9219 18.3789 9.5547
v -31.6445 28.8398 7.7969
v -25.1641 30.0664 17.5703
v -29.9492 36.8555 -3.8867
v -30.3320 22.7852 -0.7969
v -26.1094 10.2656 6.9844
v -29.9492 36.8555 -3.8867
v -20.3086 34.4375 3.8203
v -30.3320 22.7852 -0.7969
v -22.3906 17.6914 9.9414
v -26.1094 10.2656 6.9844
v -19.5859 -0.2461 19.8594
v -24.3828 15.4688 17.8320
v -25.1641 30.0664 17.5703
v -21.5352 47.8750 19.4180
v -16.2305 57.4141 20.8125
v -10.0000 57.3711 17.6133
v -26.0820 51.9453 -4.4727
v 0.0000 57.3320 19.2578
v 0.0000 57.3320 19.2578
v 0.0000 57.3320 19.2578
v -6.9648 60.0273 21.1562
v -3.3555 8.9219 -52.1953
v 3.3555 8.9219 -52.1953
v 0.0000 -1.4727 -46.4609
v -6.7109 8.3359 -46.4102
v 0.0000 7.8633 -42.4375
v 6.7109 8.3359 -46.4102
v 5.1484 20.3125 -51.7188
v -5.1484 20.3125 -51.7188
v -9.4805 17.6602 -45.3633
v 0.0000 16.6016 -37.8594
v 9.4805 17.6602 -45.3633
v 4.7539 29.0742 -45.0547
v -4.7539 29.0742 -45.0547
v 0.0000 34.9180 -25.0625
f 1 2 3
f 4 2 1
f 4 1 20
f 6 4 20
f 5 4 6
f 5 6 66
f 66 6 67
f 68 66 67
f 68 67 69
f 68 69 75
f 74 75 69
f 74 72 75
f 73 72 74
f 73 70 72
f 78 70 73
f 77 78 73
f 74 77 73
f 76 77 74
f 76 74 69
f 69 63 76
f 63 69 67
f 67 65 63
f 6 65 67
f 6 57 65
f 57 6 20
f 20 18 57
f 19 18 20
f 17 18 19
f 17 19 29
f 23 17 29
f 26 23 29
f 23 26 21
f 22 23 21
f 23 22 30
f 30 17 23
f 18 17 30
f 18 30 58
f 18 58 57
f 65 57 58
f 65 58 60
f 65 60 63
f 60 56 63
f 59 56 60
f 56 59 28
f 56 28 16
f 16 54 56
f 53 54 16
f 54 53 55
f 54 55 61
f 56 54 61
f 63 56 61
f 64 63 61
f 61 62 64
f 61 55 62
f 55 53 12
f 10 12 53
f 10 11 12
f 10 15 11
f 15 10 16
f 28 15 16
f 21 15 28
f 15 21 13
f 11 15 13
f 13 14 11
f 13 24 14
f 21 24 13
f 21 26 24
f 26 27 24
f 24 27 25
f 14 24 25
f 11 14 12
f 7 8 9
f 8 7 91
f 9 8 42
f 50 9 42
f 44 50 42
f 42 43 44
f 43 42 47
f 48 43 47
f 48 49 43
f 49 45 43
f 44 43 45
f 21 28 22
f 28 59 22
f 22 59 30
f 60 30 59
f 60 58 30
f 31 1 3
f 51 31 3
f 51 32 31
f 38 32 51
f 37 32 38
f 34 37 38
f 36 37 34
f 33 36 34
f 33 34 35
f 41 33 35
f 33 41 36
f 36 41 40
f 36 40 37
f 37 40 39
f 39 32 37
f 26 32 39
f 26 31 32
f 29 31 26
f 1 31 29
f 19 1 29
f 20 1 19
f 46 47 42
f 42 52 46
f 10 53 16
f 70 71 72
f 78 71 70
f 79 80 81
f 80 79 90
f 81 80 82
f 81 82 83
f 83 82 84
f 84 82 85
f 85 82 86
f 86 82 80
f 86 80 87
f 87 80 88
f 88 80 89
f 88 89 94
f 93 94 89
f 4 5 92
f 92 2 4
f 95 96 97
f 98 95 97
f 99 98 97
f 100 99 97
f 96 100 97
f 96 105 100
f 101 105 96
f 96 95 101
f 101 95 102
f 101 102 106
f 101 106 105
f 106 108 105
f 107 108 106
f 106 102 107
f 102 103 107
f 95 103 102
f 98 103 95
f 98 104 103
f 99 104 98
f 100 104 99
f 105 104 100
f 108 104 105
f 103 104 108
f 108 107 103
