v 30.2617 39.0000 10.3008
v 26.4727 28.0391 3.0000
v 26.1914 26.9258 -13.6289
v 23.4453 34.0078 16.8281
v 26.6562 43.5938 -7.1641
v 27.5117 50.3008 17.0000
v 18.2305 43.3008 25.0000
v 25.4961 53.7109 3.9805
v 10.5469 54.3945 26.4414
v 18.3438 61.3945 19.3945
v 18.3242 64.0000 8.0000
v 10.5977 69.0000 8.0000
v 0.0000 68.1445 6.1172
v 7.4336 65.7695 15.6641
v 5.6406 54.3281 3.2773
v 4.6875 61.7695 22.4062
v 0.0000 58.7656 19.6133
v 18.2305 43.3008 25.0000
v 10.5469 54.3945 26.4414
v 23.4453 34.0078 16.8281
v 26.1914 26.9258 -13.6289
v 26.4727 28.0391 3.0000
v 0.0000 22.0156 -31.3750
v 11.3047 22.5742 -29.8398
v 0.0000 9.6289 -19.1055
v 18.6641 15.5547 -13.8867
v 19.7852 24.1953 -25.3828
v 11.0703 39.5469 -33.4102
v 0.0000 39.8516 -35.1172
v 10.5977 56.1133 -27.0273
v 0.0000 57.2812 -28.4180
v 10.5977 65.7383 -11.8203
v 0.0000 67.4023 -12.4297
v 19.7734 43.8711 -26.5977
v 18.7617 58.1797 -15.8359
v 26.2969 33.4336 0.0000
v 4.6875 61.7695 22.4062
v 23.2227 13.8633 -20.9336
v 16.5898 17.5820 -27.0625
v 9.6836 20.9453 -14.6836
v 20.4531 9.7422 -29.3438
v 21.3008 4.1523 -25.5469
v 11.5859 9.3906 -25.2617
v 18.2188 5.6680 -19.1289
v 29.5625 3.0898 -26.4062
v 21.7461 5.6484 -31.5156
v 19.3672 6.8164 -24.9531
v 26.1641 -0.7422 -34.6211
v 28.6016 -6.7656 -31.1875
v 18.3516 -3.1797 -29.4414
v 26.1680 -5.7383 -24.3320
v 21.7500 0.6523 -21.2266
v 32.8398 -11.0625 -42.6914
v 26.8594 -5.9492 -37.4883
v 37.4375 -6.8477 -37.2422
v 31.3203 -2.3047 -32.4297
v 28.8672 -14.3711 -34.3828
v 26.1094 -9.8906 -30.8750
v 39.3086 -12.9766 -33.1602
v 33.2695 -8.4219 -28.0547
v 39.9688 -15.9219 -41.8750
v 26.5195 -4.4922 -30.0898
v -30.2617 39.0000 10.3008
v -26.1914 26.9258 -13.6289
v -26.4727 28.0391 3.0000
v -23.4453 34.0078 16.8281
v -26.6562 43.5938 -7.1641
v -27.5117 50.3008 17.0000
v -18.2305 43.3008 25.0000
v -25.4961 53.7109 3.9805
v -10.5469 54.3945 26.4414
v -18.3438 61.3945 19.3945
v -18.3242 64.0000 8.0000
v -5.6406 54.3281 3.2773
v -4.6875 61.7695 22.4062
v -10.5469 54.3945 26.4414
v -18.2305 43.3008 25.0000
v -23.4453 34.0078 16.8281
v -26.4727 28.0391 3.0000
v -26.1914 26.9258 -13.6289
v -11.3047 22.5742 -29.8398
v -19.7852 24.1953 -25.3828
v -18.6641 15.5547 -13.8867
v -11.0703 39.5469 -33.4102
v -10.5977 56.1133 -27.0273
v -10.5977 69.0000 8.0000
v -10.5977 65.7383 -11.8203
v -19.7734 43.8711 -26.5977
v -18.7617 58.1797 -15.8359
v -26.2969 33.4336 0.0000
v -4.6875 61.7695 22.4062
v -7.4336 65.7695 15.6641
v -23.2227 13.8633 -20.9336
v -9.6836 20.9453 -14.6836
v -16.5898 17.5820 -27.0625
v -20.4531 9.7422 -29.3438
v -21.3008 4.1523 -25.5469
v -11.5859 9.3906 -25.2617
v -18.2188 5.6680 -19.1289
v -29.5625 3.0898 -26.4062
v -19.3672 6.8164 -24.9531
v -21.7461 5.6484 -31.5156
v -26.1641 -0.7422 -34.6211
v -28.6016 -6.7656 -31.1875
v -18.3516 -3.1797 -29.4414
v -26.1680 -5.7383 -24.3320
v -21.7500 0.6523 -21.2266
v -32.8398 -11.0625 -42.6914
v -37.4375 -6.8477 -37.2422
v -26.8594 -5.9492 -37.4883
v -31.3203 -2.3047 -32.4297
v -26.1094 -9.8906 -30.8750
v -28.8672 -14.3711 -34.3828
v -39.3086 -12.9766 -33.1602
v -33.2695 -8.4219 -28.0547
v -39.9688 -15.9219 -41.8750
v -26.5195 -4.4922 -30.0898
v 0.0000 58.7656 19.6133
v -7.4336 65.7695 15.6641
v 0.0000 68.1445 6.1172
v 7.4336 65.7695 15.6641
v 7.4336 65.7695 15.6641
v -7.4336 65.7695 15.6641
v 0.0000 58.7656 19.6133
v -4.6875 61.7695 22.4062
f 1 2 3
f 1 4 2
f 1 6 4
f 1 8 6
f 8 1 5
f 8 5 35
f 11 8 35
f 32 11 35
f 12 11 32
f 12 32 13
f 12 13 14
f 12 14 10
f 12 10 11
f 6 11 10
f 10 7 6
f 9 7 10
f 10 37 9
f 14 37 10
f 118 37 14
f 1 3 5
f 3 34 5
f 34 3 27
f 34 27 28
f 30 34 28
f 28 29 30
f 28 23 29
f 24 23 28
f 23 24 25
f 23 25 81
f 81 84 23
f 81 82 84
f 82 81 83
f 82 83 64
f 88 82 64
f 88 84 82
f 85 84 88
f 85 29 84
f 31 29 85
f 30 29 31
f 31 33 30
f 85 33 31
f 87 33 85
f 87 13 33
f 86 13 87
f 87 73 86
f 89 73 87
f 89 87 85
f 85 88 89
f 88 67 89
f 64 67 88
f 63 67 64
f 63 64 65
f 63 65 66
f 63 66 68
f 63 68 70
f 70 67 63
f 89 67 70
f 73 89 70
f 68 73 70
f 68 72 73
f 72 68 69
f 71 72 69
f 71 91 72
f 72 91 92
f 86 72 92
f 86 73 72
f 86 119 120
f 120 119 121
f 6 7 4
f 6 8 11
f 15 16 17
f 15 19 16
f 15 18 19
f 15 20 18
f 15 22 20
f 15 21 22
f 15 17 74
f 74 17 75
f 74 75 76
f 74 76 77
f 74 77 78
f 74 78 79
f 74 79 80
f 25 24 26
f 26 24 27
f 27 3 26
f 36 26 3
f 13 32 33
f 30 33 32
f 35 30 32
f 30 35 34
f 35 5 34
f 24 28 27
f 38 39 40
f 39 38 41
f 39 41 43
f 40 39 43
f 44 40 43
f 44 43 42
f 38 44 42
f 41 38 42
f 43 41 42
f 44 38 40
f 45 46 47
f 46 45 48
f 48 50 46
f 50 48 49
f 51 50 49
f 51 52 50
f 51 45 52
f 45 51 49
f 48 45 49
f 52 45 47
f 50 52 47
f 46 50 47
f 53 54 55
f 61 53 55
f 53 61 57
f 57 54 53
f 54 57 58
f 62 54 58
f 62 56 54
f 62 60 56
f 62 58 60
f 57 60 58
f 59 60 57
f 55 60 59
f 56 60 55
f 55 54 56
f 59 61 55
f 61 59 57
f 68 66 69
f 83 81 25
f 90 64 83
f 23 84 29
f 93 94 95
f 95 96 93
f 95 98 96
f 94 98 95
f 99 98 94
f 99 97 98
f 93 97 99
f 96 97 93
f 98 97 96
f 99 94 93
f 100 101 102
f 102 103 100
f 103 102 105
f 105 104 103
f 106 104 105
f 106 105 107
f 106 107 100
f 100 104 106
f 103 104 100
f 107 101 100
f 105 101 107
f 102 101 105
f 108 109 110
f 116 109 108
f 108 113 116
f 113 108 110
f 110 112 113
f 117 112 110
f 117 110 111
f 117 111 115
f 117 115 112
f 113 112 115
f 114 113 115
f 115 109 114
f 111 109 115
f 110 109 111
f 114 109 116
f 116 113 114
f 122 123 124
f 124 123 125
