v 23.8594 41.6289 14.1445
v 18.8320 39.4805 20.6094
v 27.0078 31.4180 13.2344
v 23.7148 29.2656 15.7695
v 27.2930 33.1133 6.2070
v 25.6562 42.7266 5.0703
v 21.0039 46.9375 15.8828
v 15.9062 46.3125 21.7422
v 11.6445 33.9727 2.6836
v 26.9766 18.6992 7.6445
v 23.7148 29.2656 15.7695
v 26.9766 18.6992 7.6445
v 27.2930 33.1133 6.2070
v 18.8320 39.4805 20.6094
v 11.7422 53.7227 20.6641
v 10.3477 56.1719 15.1641
v 15.9062 46.3125 21.7422
v 0.0000 22.0156 -31.3750
v 11.3047 22.5742 -29.8398
v 0.0000 9.6289 -19.1055
v 18.6641 15.5547 -13.8867
v 19.7852 24.1953 -25.3828
v 11.3984 34.1562 -31.6953
v 0.0000 33.5469 -34.3477
v 26.1250 33.4336 -16.0000
v 26.2969 33.4336 0.0000
v 24.6250 37.2383 -17.0586
v 19.3555 35.5977 -24.9492
v 27.5820 40.4922 -1.5898
v 25.6562 42.7266 5.0703
v -23.7148 29.2656 15.7695
v -18.8320 39.4805 20.6094
v -27.0078 31.4180 13.2344
v -23.8594 41.6289 14.1445
v -27.2930 33.1133 6.2070
v -25.6562 42.7266 5.0703
v -11.7422 53.7227 20.6641
v -21.0039 46.9375 15.8828
v -15.9062 46.3125 21.7422
v -11.6445 33.9727 2.6836
v -23.7148 29.2656 15.7695
v -26.9766 18.6992 7.6445
v -26.9766 18.6992 7.6445
v -27.2930 33.1133 6.2070
v -18.8320 39.4805 20.6094
v -10.3477 56.1719 15.1641
v -11.7422 53.7227 20.6641
v -15.9062 46.3125 21.7422
v -11.3047 22.5742 -29.8398
v -18.6641 15.5547 -13.8867
v -19.7852 24.1953 -25.3828
v -26.1250 33.4336 -16.0000
v -26.2969 33.4336 0.0000
v -11.3984 34.1562 -31.6953
v -24.6250 37.2383 -17.0586
v -19.3555 35.5977 -24.9492
v -27.5820 40.4922 -1.5898
v -25.6562 42.7266 5.0703
v -24.0000 33.4336 9.0273
v -24.7461 42.7266 9.3242
v 24.0000 33.4336 9.0273
v 24.7461 42.7266 9.3242
v 11.7422 53.7227 20.6641
v 4.5938 -7.8008 -43.3711
v 4.5938 -2.0469 -49.1250
v 7.9805 -0.3203 -35.7969
v 7.9805 5.4609 -41.5781
v -7.9805 5.4609 -41.5781
v 0.0000 8.3516 -44.4727
v -4.5938 -2.0469 -49.1250
v 0.0000 -3.2109 -32.9023
v 6.7344 12.5039 -33.5664
v 6.7344 7.6211 -28.6875
v 0.0000 14.9453 -36.0078
v 0.0000 5.1836 -26.2461
v 0.0000 20.4375 -20.7148
v 0.0000 -9.9219 -51.2891
v -4.5938 -7.8008 -43.3711
v -7.9805 -0.3203 -35.7969
v -6.7344 12.5039 -33.5664
v -6.7344 7.6211 -28.6875
f 1 2 3
f 5 1 3
f 5 6 1
f 1 6 7
f 1 7 2
f 7 8 2
f 7 63 8
f 2 4 3
f 3 4 12
f 5 3 12
f 9 10 11
f 10 9 13
f 13 9 30
f 14 9 11
f 17 9 14
f 15 9 17
f 9 15 16
f 18 19 20
f 18 20 49
f 18 49 24
f 19 18 24
f 23 19 24
f 19 23 22
f 21 19 22
f 20 19 21
f 20 50 49
f 49 50 51
f 49 51 54
f 24 49 54
f 54 51 56
f 52 56 51
f 51 50 52
f 52 50 53
f 57 52 53
f 55 52 57
f 55 56 52
f 22 25 21
f 28 25 22
f 27 25 28
f 29 25 27
f 26 25 29
f 21 25 26
f 26 29 61
f 61 29 62
f 31 32 33
f 33 43 31
f 35 43 33
f 33 34 35
f 33 32 34
f 34 32 38
f 34 38 36
f 35 34 36
f 37 38 39
f 39 38 32
f 40 41 42
f 42 44 40
f 44 58 40
f 45 41 40
f 40 48 45
f 47 48 40
f 40 46 47
f 53 59 57
f 57 59 60
f 23 28 22
f 64 65 66
f 66 71 64
f 71 66 75
f 71 75 79
f 79 78 71
f 78 79 70
f 70 77 78
f 65 77 70
f 70 69 65
f 68 69 70
f 68 70 79
f 68 79 80
f 80 74 68
f 74 80 76
f 74 76 72
f 72 67 74
f 67 72 66
f 67 66 65
f 69 67 65
f 74 67 69
f 74 69 68
f 72 73 66
f 76 73 72
f 73 76 75
f 66 73 75
f 79 75 81
f 80 79 81
f 76 80 81
f 81 75 76
f 65 64 77
f 64 78 77
f 71 78 64
