v 25.0586 52.8594 13.5234
v 16.9375 52.8477 20.2070
v 24.8164 36.0000 10.0000
v 15.1250 60.8750 20.2227
v 20.1758 64.7891 14.3867
v 27.4727 63.5234 12.5664
v 29.1328 56.4688 1.4727
v 0.0000 63.2344 22.8984
v 8.1992 65.0898 24.7852
v 6.5273 68.7656 17.8945
v 0.0000 74.6602 16.7969
v 20.0117 65.4219 4.6562
v 14.5742 71.7422 14.6406
v 12.0898 76.5820 4.8906
v 9.1875 72.3164 10.4648
v 0.0000 75.1914 3.7852
v 26.3242 67.2773 -4.1758
v 11.9023 72.6328 -6.2500
v 0.0000 78.5195 -6.3438
v 30.2422 45.2891 -1.2148
v 33.4688 55.0273 -4.8047
v 22.7461 63.7539 -13.8047
v 14.3828 73.7344 -18.4805
v 0.0000 72.8945 -18.9414
v 30.8984 51.0000 -12.1797
v 29.2031 61.1172 -20.3672
v 13.7812 64.8555 -27.3086
v 0.0000 69.6133 -33.2695
v 26.5625 51.1602 -25.4961
v 35.2188 44.3750 -14.6211
v 17.6562 56.4375 -36.9688
v 0.0000 57.3828 -39.2070
v 15.3750 44.7266 -38.5469
v 26.8828 43.1602 -28.4180
v 0.0000 46.0000 -45.5312
v 30.9727 31.8125 -14.7344
v 27.2227 34.4766 -27.8594
v 18.2266 32.4336 -39.9375
v 0.0000 32.2578 -41.8828
v 24.8945 19.6328 -21.2812
v 13.7422 22.1953 -34.0078
v 0.0000 20.7617 -36.2227
v 27.2578 30.9492 -0.4297
v 9.1602 12.9453 -26.2109
v 19.5625 12.5391 -14.3008
v 24.7852 24.0000 12.0000
v 24.7852 24.0000 12.0000
v 0.0000 34.0000 0.0000
v 27.2578 30.9492 -0.4297
v 10.0000 52.3516 20.3867
v 0.0000 3.9297 -15.4883
v 19.5625 12.5391 -14.3008
v 6.6641 57.0234 25.3555
v -25.0586 52.8594 13.5234
v -24.8164 36.0000 10.0000
v -16.9375 52.8477 20.2070
v -10.0000 52.3516 20.3867
v -27.4727 63.5234 12.5664
v -29.1328 56.4688 1.4727
v -6.6641 57.0234 25.3555
v -15.1250 60.8750 20.2227
v -8.1992 65.0898 24.7852
v -6.5273 68.7656 17.8945
v -20.1758 64.7891 14.3867
v -20.0117 65.4219 4.6562
v -14.5742 71.7422 14.6406
v -12.0898 76.5820 4.8906
v -9.1875 72.3164 10.4648
v -26.3242 67.2773 -4.1758
v -11.9023 72.6328 -6.2500
v -30.2422 45.2891 -1.2148
v -33.4688 55.0273 -4.8047
v -22.7461 63.7539 -13.8047
v -14.3828 73.7344 -18.4805
v -30.8984 51.0000 -12.1797
v -29.2031 61.1172 -20.3672
v -13.7812 64.8555 -27.3086
v -26.5625 51.1602 -25.4961
v -35.2188 44.3750 -14.6211
v -17.6562 56.4375 -36.9688
v -26.8828 43.1602 -28.4180
v -30.9727 31.8125 -14.7344
v -27.2227 34.4766 -27.8594
v -15.3750 44.7266 -38.5469
v -27.2578 30.9492 -0.4297
v -18.2266 32.4336 -39.9375
v -13.7422 22.1953 -34.0078
v -24.8945 19.6328 -21.2812
v -19.5586 12.5391 -14.3008
v -9.1602 12.9453 -26.2109
v 0.0000 3.9297 -15.4883
v -24.7852 24.0000 12.0000
v -24.7852 24.0000 12.0000
v -27.2578 30.9492 -0.4297
v -19.5586 12.5391 -14.3008
v 3.3125 51.6016 21.8008
v -3.3125 51.6016 21.8008
f 1 2 3
f 1 6 2
f 1 7 6
f 7 1 20
f 20 21 7
f 21 20 25
f 21 25 22
f 7 21 22
f 17 7 22
f 7 17 12
f 7 12 6
f 6 12 5
f 5 2 6
f 4 2 5
f 2 4 53
f 2 53 50
f 50 3 2
f 48 3 50
f 47 3 48
f 47 48 49
f 48 52 49
f 48 51 52
f 48 95 51
f 48 94 95
f 93 94 48
f 93 48 55
f 57 55 48
f 56 55 57
f 54 55 56
f 54 56 58
f 54 58 59
f 59 71 54
f 71 59 72
f 72 75 71
f 72 73 75
f 59 73 72
f 69 73 59
f 59 65 69
f 59 58 65
f 58 64 65
f 56 64 58
f 61 64 56
f 56 60 61
f 56 57 60
f 60 57 97
f 96 60 97
f 96 53 60
f 50 53 96
f 8 53 9
f 8 9 10
f 8 10 11
f 8 11 63
f 8 63 62
f 60 8 62
f 61 60 62
f 63 61 62
f 63 66 61
f 63 68 66
f 16 68 63
f 11 16 63
f 11 10 16
f 16 10 15
f 16 15 14
f 14 18 16
f 14 12 18
f 14 15 12
f 15 13 12
f 10 13 15
f 10 4 13
f 10 9 4
f 53 4 9
f 8 60 53
f 12 17 18
f 17 22 18
f 22 23 18
f 23 22 27
f 23 27 24
f 18 23 24
f 19 18 24
f 18 19 16
f 70 16 19
f 67 16 70
f 67 70 65
f 67 65 68
f 16 67 68
f 68 65 66
f 66 65 64
f 61 66 64
f 25 26 22
f 26 25 29
f 26 29 27
f 22 26 27
f 27 28 24
f 28 27 32
f 28 32 77
f 77 24 28
f 74 24 77
f 70 24 74
f 73 70 74
f 69 70 73
f 65 70 69
f 19 24 70
f 25 30 29
f 25 20 30
f 20 43 30
f 43 20 3
f 43 3 46
f 30 43 36
f 36 37 30
f 37 36 40
f 41 37 40
f 38 37 41
f 37 38 33
f 34 37 33
f 29 34 33
f 31 29 33
f 29 31 27
f 27 31 32
f 31 33 32
f 33 35 32
f 35 33 39
f 35 39 84
f 84 32 35
f 80 32 84
f 77 32 80
f 78 77 80
f 76 77 78
f 73 77 76
f 75 73 76
f 76 78 75
f 75 78 79
f 75 79 71
f 85 71 79
f 85 79 82
f 85 82 89
f 89 82 88
f 88 90 89
f 88 87 90
f 87 88 83
f 86 87 83
f 83 84 86
f 81 84 83
f 79 81 83
f 78 81 79
f 78 84 81
f 80 84 78
f 84 39 86
f 86 39 87
f 87 39 42
f 90 87 42
f 44 90 42
f 41 44 42
f 41 42 39
f 38 41 39
f 33 38 39
f 29 30 34
f 30 37 34
f 40 44 41
f 44 40 45
f 91 44 45
f 90 44 91
f 89 90 91
f 40 36 45
f 45 36 43
f 20 1 3
f 13 5 12
f 4 5 13
f 74 77 73
f 82 79 83
f 83 88 82
f 85 92 55
f 71 85 55
f 54 71 55
