v 10.5977 63.9922 -17.6406
v 0.0000 65.5625 -18.5469
v 10.5977 67.4883 -6.0039
v 0.0000 69.2383 -6.3125
v 10.5938 66.3477 11.8555
v 0.0000 68.1445 6.1172
v 8.5586 64.5039 19.7969
v 20.2812 60.7734 16.8984
v 18.7617 61.0625 4.8672
v 10.5977 56.1133 -27.0273
v 18.7617 58.1797 -15.8359
v 19.7734 43.8711 -26.5977
v 15.5781 24.9023 -29.4023
v 26.3164 24.9023 -15.5078
v 27.2109 42.1289 -6.9492
v 25.4375 52.0000 -3.0000
v 26.3945 53.5312 15.9258
v 10.5977 45.5039 -33.0000
v 0.0000 46.1250 -34.8594
v 0.0000 57.2812 -28.4180
v 27.6367 31.3516 0.2734
v 29.5977 45.5469 9.5703
v 19.8711 36.1406 20.6953
v 24.4609 32.6523 11.0352
v 28.7148 37.5000 15.5000
v 13.7461 44.0000 26.5391
v 23.6328 49.0000 25.0000
v 16.6523 59.0000 25.0000
v 8.2266 54.0000 26.6133
v 6.0625 59.0117 23.9141
v 0.0000 56.0000 21.0000
v 0.0000 63.0000 17.0000
v 8.2266 54.0000 26.6133
v 6.0625 59.0117 23.9141
v 12.5703 45.0000 -4.9609
v 19.8711 36.1406 20.6953
v 24.4609 32.6523 11.0352
v 13.7461 44.0000 26.5391
v 0.0000 56.0000 21.0000
v 27.6367 31.3516 0.2734
v 28.2656 24.9023 1.4219
v 0.0000 24.9023 -35.0195
v 33.0469 3.6211 1.7070
v 29.4844 -4.9219 -9.2773
v 30.1445 0.1836 -16.0195
v 32.0391 13.9336 3.1172
v 29.8320 13.9336 -15.9766
v 23.0039 13.9336 -27.3398
v 12.3086 13.9336 -36.1133
v 0.0000 13.9336 -38.0938
v 23.2461 0.1836 -27.5039
v 12.4375 0.1836 -36.3633
v 0.0000 0.1836 -38.3672
v 20.9727 -8.8633 -25.9844
v 7.1953 -9.4297 -33.9805
v 20.9727 -8.8633 -25.9844
v 10.1875 32.0000 -3.2891
v 7.1953 -9.4297 -33.9805
v 33.0469 3.6211 1.7070
v 29.4844 -4.9219 -9.2773
v 32.0391 13.9336 3.1172
v 28.2656 24.9023 1.4219
v 27.6367 31.3516 0.2734
v 12.5703 45.0000 -4.9609
v -10.5977 45.5039 -33.0000
v -10.8594 24.9023 -33.2695
v -10.5977 63.9922 -17.6406
v -10.5977 67.4883 -6.0039
v -10.5938 66.3477 11.8555
v -8.5586 64.5039 19.7969
v -18.7617 61.0625 4.8672
v -20.2812 60.7734 16.8984
v -10.5977 56.1133 -27.0273
v -19.7734 43.8711 -26.5977
v -18.7617 58.1797 -15.8359
v -27.2109 42.1289 -6.9492
v -25.4375 52.0000 -3.0000
v -26.3945 53.5312 15.9258
v -29.5977 45.5469 9.5703
v -19.8711 36.1406 20.6953
v -28.7148 37.5000 15.5000
v -24.4609 32.6523 11.0352
v -23.6328 49.0000 25.0000
v -13.7461 44.0000 26.5391
v -16.6523 59.0000 25.0000
v -8.2266 54.0000 26.6133
v -6.0625 59.0117 23.9141
v -27.6367 31.3516 0.2734
v -8.2266 54.0000 26.6133
v -12.5703 45.0000 -4.9609
v -6.0625 59.0117 23.9141
v -19.8711 36.1406 20.6953
v -24.4609 32.6523 11.0352
v -13.7461 44.0000 26.5391
v -27.6367 31.3516 0.2734
v -26.3164 24.9023 -15.5078
v -28.2656 24.9023 1.4219
v -20.2969 24.9023 -25.5352
v -33.0469 3.6211 1.7070
v -30.1445 0.1836 -16.0195
v -29.4844 -4.9219 -9.2773
v -32.0391 13.9336 3.1172
v -29.8320 13.9336 -15.9766
v -23.0039 13.9336 -27.3398
v -12.3086 13.9336 -36.1133
v -23.2461 0.1836 -27.5039
v -12.4375 0.1836 -36.3633
v -20.9727 -8.8633 -25.9844
v -7.1953 -9.4297 -33.9805
v -10.1875 32.0000 -3.2891
v -7.1953 -9.4297 -33.9805
v -20.9727 -8.8633 -25.9844
v -33.0469 3.6211 1.7070
v -29.4844 -4.9219 -9.2773
v -32.0391 13.9336 3.1172
v -28.2656 24.9023 1.4219
v -27.6367 31.3516 0.2734
v -12.5703 45.0000 -4.9609
f 1 2 3
f 2 1 20
f 2 20 67
f 67 68 2
f 67 75 68
f 73 75 67
f 73 74 75
f 65 74 73
f 65 73 19
f 65 19 66
f 74 65 66
f 66 98 74
f 66 105 98
f 105 66 50
f 50 53 105
f 50 49 53
f 49 50 13
f 48 49 13
f 13 14 48
f 13 12 14
f 12 13 18
f 18 10 12
f 18 19 10
f 19 18 13
f 42 19 13
f 42 13 50
f 42 50 66
f 66 19 42
f 19 20 10
f 19 73 20
f 20 73 67
f 20 1 10
f 10 1 11
f 10 11 12
f 11 15 12
f 11 16 15
f 9 16 11
f 9 17 16
f 17 9 8
f 8 28 17
f 28 8 7
f 7 30 28
f 32 30 7
f 31 30 32
f 31 32 87
f 32 70 87
f 32 6 70
f 32 7 6
f 5 6 7
f 8 5 7
f 5 8 9
f 9 3 5
f 9 11 3
f 1 3 11
f 2 4 3
f 2 68 4
f 4 68 69
f 6 4 69
f 5 4 6
f 3 4 5
f 14 12 15
f 15 21 14
f 22 21 15
f 16 22 15
f 17 22 16
f 25 22 17
f 27 25 17
f 23 25 27
f 23 24 25
f 25 24 21
f 21 22 25
f 41 14 21
f 14 41 47
f 47 48 14
f 48 47 51
f 51 52 48
f 51 54 52
f 54 51 45
f 44 54 45
f 43 44 45
f 43 45 46
f 47 46 45
f 46 47 41
f 45 51 47
f 26 23 27
f 26 27 29
f 28 29 27
f 27 17 28
f 29 28 30
f 33 34 35
f 38 33 35
f 38 35 36
f 36 35 37
f 35 40 37
f 35 34 39
f 39 90 35
f 90 39 91
f 89 90 91
f 94 90 89
f 94 92 90
f 92 93 90
f 90 93 95
f 49 48 52
f 52 53 49
f 55 53 52
f 52 54 55
f 109 53 55
f 107 53 109
f 107 105 53
f 105 107 104
f 104 98 105
f 98 104 96
f 98 96 74
f 74 96 76
f 75 74 76
f 75 76 77
f 71 75 77
f 71 77 78
f 78 72 71
f 72 78 85
f 85 70 72
f 70 85 87
f 86 87 85
f 85 83 86
f 83 85 78
f 83 78 81
f 81 80 83
f 80 81 82
f 81 88 82
f 88 81 79
f 79 76 88
f 77 76 79
f 78 77 79
f 81 78 79
f 56 57 58
f 56 60 57
f 59 57 60
f 59 61 57
f 61 62 57
f 62 63 57
f 57 63 64
f 110 111 57
f 112 111 110
f 112 110 114
f 113 114 110
f 113 110 115
f 115 110 116
f 116 110 117
f 110 118 117
f 69 70 6
f 72 70 69
f 69 71 72
f 71 69 68
f 71 68 75
f 83 80 84
f 84 86 83
f 76 96 88
f 96 97 88
f 96 103 97
f 103 96 104
f 104 106 103
f 106 104 107
f 106 107 108
f 106 108 100
f 100 103 106
f 103 100 102
f 102 97 103
f 99 102 100
f 99 100 101
f 100 108 101
f 107 109 108
f 57 111 58
