v -26.4297 36.1562 8.2969
v -29.2656 32.5000 6.0000
v -26.6797 28.1367 7.3633
v -24.3047 48.0234 11.3008
v -28.2383 44.8633 7.7227
v -25.7305 40.2422 8.2969
v -22.8125 13.1719 -14.0000
v -14.7930 15.6133 -9.0352
v -26.5742 29.9844 -14.0039
v 0.0000 37.7812 2.1484
v -8.4648 4.9766 -30.2930
v -14.4180 10.9805 -25.0430
v -14.4180 10.9805 -25.0430
v -20.6875 6.9766 -20.8047
v -8.6523 51.1641 -32.6328
v -8.4414 64.3945 -19.6758
v 0.0000 62.8750 -19.0547
v -23.4453 53.0820 -18.4102
v -20.8164 55.0547 -4.1367
v -22.2891 60.9609 -7.1914
v -8.3164 68.3789 -2.1719
v -8.4414 64.3945 -19.6758
v -14.1641 62.4531 -3.2422
v -15.3398 58.0742 -19.2734
v -8.3164 68.3789 -2.1719
v 0.0000 66.3516 0.8750
v -3.2344 61.2617 16.8984
v -9.2031 60.3164 16.6250
v -8.5391 56.2891 17.6758
v -16.0273 40.8672 -28.2812
v -8.8633 24.4805 -33.2930
v -14.4180 10.9805 -25.0430
v -8.4648 4.9766 -30.2930
v -24.0664 39.4609 -23.9922
v -26.7109 38.4453 -12.0000
v -26.7109 42.3906 -10.9297
v -23.4453 53.0820 -18.4102
v -27.7227 46.6094 -8.8633
v 0.0000 37.7812 2.1484
v -25.7305 40.2422 8.2969
v -26.7109 42.3906 -10.9297
v 0.0000 37.7812 2.1484
v -23.9180 50.4609 -6.6836
v -24.3047 48.0234 11.3008
v -25.7305 40.2422 8.2969
v -9.2031 60.3164 16.6250
v -14.1641 62.4531 -3.2422
v -8.5391 56.2891 17.6758
v -14.4180 10.9805 -25.0430
v -24.0664 39.4609 -23.9922
v -16.0273 40.8672 -28.2812
v -23.4453 53.0820 -18.4102
v -22.2891 60.9609 -7.1914
v -6.9375 65.0234 14.6562
v -2.8438 57.0039 17.7852
v 0.0000 10.4766 -29.2070
v -8.4648 4.9766 -30.2930
v 0.0000 21.9883 -31.9258
v -8.8633 24.4805 -33.2930
v -8.8633 24.4805 -33.2930
v -8.6523 51.1641 -32.6328
v 0.0000 48.1016 -31.6562
v -15.3398 58.0742 -19.2734
v -20.6875 6.9766 -20.8047
v -22.8125 13.1719 -14.0000
v -26.5742 29.9844 -14.0039
v -20.6875 6.9766 -20.8047
v -24.0664 39.4609 -23.9922
v -24.0664 39.4609 -23.9922
v -26.5742 29.9844 -14.0039
v -29.5000 34.5234 -13.1133
v -27.7227 46.6094 -8.8633
v -23.9180 50.4609 -6.6836
v -26.4297 36.1562 8.2969
v -26.5742 29.9844 -14.0039
v -26.7109 38.4453 -12.0000
v -29.5000 34.5234 -13.1133
v -23.9180 50.4609 -6.6836
v 0.0000 37.7812 2.1484
v -20.8164 55.0547 -4.1367
v -23.9180 50.4609 -6.6836
v -21.6328 53.8672 12.3125
v -20.4141 58.3242 12.0234
v -16.9609 57.7969 16.3242
v -16.9609 57.7969 16.3242
v -14.1641 62.4531 -3.2422
v -14.9062 54.0352 16.3398
v -14.1641 62.4531 -3.2422
v -2.8438 57.0039 17.7852
v 0.0000 66.3516 0.8750
v -9.2031 60.3164 16.6250
v -3.2344 61.2617 16.8984
v -8.3164 68.3789 -2.1719
v -21.6328 53.8672 12.3125
v -21.6328 53.8672 12.3125
v -19.2578 50.6797 13.2969
v -14.9062 54.0352 16.3398
v -16.9609 57.7969 16.3242
v -21.6328 53.8672 12.3125
v -20.8164 55.0547 -4.1367
v -19.2578 50.6797 13.2969
v -26.7109 42.3906 -10.9297
v 26.4297 36.1562 8.2969
v 26.6797 28.1367 7.3633
v 29.2656 32.5000 6.0000
v 24.3047 48.0234 11.3008
v 25.7305 40.2422 8.2969
v 28.2383 44.8633 7.7227
v 22.8125 13.1719 -14.0000
v 26.5742 29.9844 -14.0039
v 14.7930 15.6133 -9.0352
v 0.0000 37.7812 2.1484
v 8.4648 4.9766 -30.2930
v 14.4180 10.9805 -25.0430
v 14.4180 10.9805 -25.0430
v 20.6875 6.9766 -20.8047
v 8.6523 51.1641 -32.6328
v 8.4414 64.3945 -19.6758
v 23.4453 53.0820 -18.4102
v 22.2891 60.9609 -7.1914
v 20.8164 55.0547 -4.1367
v 8.3164 68.3789 -2.1719
v 3.2344 61.2617 16.8984
v 8.5391 56.2891 17.6758
v 9.2031 60.3164 16.6250
v 16.0273 40.8672 -28.2812
v 14.4180 10.9805 -25.0430
v 8.8633 24.4805 -33.2930
v 8.4648 4.9766 -30.2930
v 26.7109 42.3906 -10.9297
v 24.0664 39.4609 -23.9922
v 23.4453 53.0820 -18.4102
v 27.7227 46.6094 -8.8633
v 26.7109 38.4453 -12.0000
v 0.0000 37.7812 2.1484
v 26.7109 42.3906 -10.9297
v 25.7305 40.2422 8.2969
v 0.0000 37.7812 2.1484
v 24.3047 48.0234 11.3008
v 23.9180 50.4609 -6.6836
v 25.7305 40.2422 8.2969
v 14.1641 62.4531 -3.2422
v 14.1641 62.4531 -3.2422
v 8.5391 56.2891 17.6758
v 14.4180 10.9805 -25.0430
v 16.0273 40.8672 -28.2812
v 24.0664 39.4609 -23.9922
v 23.4453 53.0820 -18.4102
v 15.3398 58.0742 -19.2734
v 22.2891 60.9609 -7.1914
v 8.3164 68.3789 -2.1719
v 14.1641 62.4531 -3.2422
v 8.4414 64.3945 -19.6758
v 15.3398 58.0742 -19.2734
v 9.2031 60.3164 16.6250
v 6.9375 65.0234 14.6562
v 2.8438 57.0039 17.7852
v 0.0000 10.4766 -29.2070
v 0.0000 21.9883 -31.9258
v 8.4648 4.9766 -30.2930
v 8.8633 24.4805 -33.2930
v 8.8633 24.4805 -33.2930
v 8.6523 51.1641 -32.6328
v 0.0000 48.1016 -31.6562
v 20.6875 6.9766 -20.8047
v 24.0664 39.4609 -23.9922
v 26.5742 29.9844 -14.0039
v 20.6875 6.9766 -20.8047
v 22.8125 13.1719 -14.0000
v 24.0664 39.4609 -23.9922
v 29.5000 34.5234 -13.1133
v 26.5742 29.9844 -14.0039
v 27.7227 46.6094 -8.8633
v 23.9180 50.4609 -6.6836
v 0.0000 10.4766 -29.2070
v 0.0000 9.6289 -19.1055
v 14.7930 15.6133 -9.0352
v 26.4297 36.1562 8.2969
v 26.5742 29.9844 -14.0039
v 26.7109 38.4453 -12.0000
v 29.5000 34.5234 -13.1133
v 23.9180 50.4609 -6.6836
v 0.0000 37.7812 2.1484
v 23.9180 50.4609 -6.6836
v 20.8164 55.0547 -4.1367
v 20.4141 58.3242 12.0234
v 21.6328 53.8672 12.3125
v 14.1641 62.4531 -3.2422
v 16.9609 57.7969 16.3242
v 14.9062 54.0352 16.3398
v 9.2031 60.3164 16.6250
v 0.0000 66.3516 0.8750
v 2.8438 57.0039 17.7852
v 3.2344 61.2617 16.8984
v 8.3164 68.3789 -2.1719
v 21.6328 53.8672 12.3125
v 16.9609 57.7969 16.3242
v 21.6328 53.8672 12.3125
v 14.9062 54.0352 16.3398
v 19.2578 50.6797 13.2969
v 16.9609 57.7969 16.3242
v 21.6328 53.8672 12.3125
v 19.2578 50.6797 13.2969
v 20.8164 55.0547 -4.1367
v 26.7109 42.3906 -10.9297
v 0.0000 10.4766 -29.2070
f 1 2 3
f 76 2 1
f 10 76 1
f 9 8 10
f 7 8 9
f 8 7 14
f 13 8 14
f 11 8 12
f 11 176 8
f 206 176 11
f 175 113 176
f 176 113 177
f 113 114 111
f 109 110 111
f 111 116 109
f 115 116 111
f 110 112 111
f 112 103 180
f 103 105 180
f 103 104 105
f 104 172 105
f 172 171 105
f 170 171 172
f 4 5 6
f 73 5 4
f 72 5 73
f 72 73 18
f 18 19 20
f 19 18 78
f 19 82 20
f 20 82 83
f 53 83 23
f 53 23 24
f 52 53 24
f 51 52 24
f 50 52 51
f 49 50 51
f 50 49 64
f 15 16 17
f 17 62 15
f 59 15 62
f 59 62 58
f 58 57 59
f 56 57 58
f 21 22 23
f 23 54 21
f 23 91 54
f 54 91 92
f 54 92 26
f 26 93 54
f 17 25 26
f 25 17 16
f 117 17 118
f 17 117 164
f 161 164 117
f 161 159 164
f 159 161 160
f 158 159 160
f 23 22 24
f 23 83 84
f 94 84 83
f 27 28 29
f 29 55 27
f 89 90 27
f 30 31 32
f 32 31 33
f 34 35 36
f 37 34 36
f 37 36 38
f 38 36 5
f 36 6 5
f 39 40 41
f 74 3 39
f 39 3 75
f 3 2 70
f 70 2 71
f 69 70 71
f 42 43 44
f 45 42 44
f 46 47 48
f 48 47 88
f 47 85 86
f 86 85 87
f 60 30 61
f 30 63 61
f 61 63 22
f 65 66 67
f 67 66 68
f 77 2 76
f 77 76 34
f 79 80 81
f 95 96 97
f 95 97 98
f 99 100 101
f 101 100 10
f 35 10 102
f 106 107 108
f 174 106 108
f 173 174 108
f 173 119 174
f 119 120 121
f 121 182 119
f 187 121 120
f 186 187 120
f 196 186 197
f 197 186 152
f 152 186 150
f 150 149 152
f 148 149 150
f 146 149 148
f 147 146 148
f 145 146 147
f 147 165 145
f 17 26 122
f 122 118 17
f 123 124 125
f 124 123 157
f 192 193 123
f 126 127 128
f 127 129 128
f 130 131 132
f 132 133 130
f 108 130 133
f 107 130 108
f 134 131 130
f 134 205 112
f 203 112 204
f 202 203 204
f 135 136 137
f 178 135 104
f 135 179 104
f 138 139 140
f 141 139 138
f 142 143 144
f 143 191 144
f 143 188 189
f 188 190 189
f 151 152 153
f 152 151 156
f 155 152 156
f 156 194 155
f 156 26 194
f 26 156 195
f 153 152 154
f 163 153 154
f 126 163 154
f 162 163 126
f 166 167 168
f 167 169 168
f 181 131 180
f 105 181 180
f 183 184 185
f 198 199 200
f 198 201 199
