v -26.1250 33.4336 -16.0000
v -26.2969 33.4336 0.0000
v -27.5820 40.4922 -1.5898
v 0.0000 33.5469 -34.3477
v 0.0000 22.0156 -31.3750
v -11.3047 22.5742 -29.8398
v -18.6641 24.7188 -23.9453
v -10.2930 8.8789 -18.0039
v -21.9961 23.0000 -17.0000
v -5.2617 54.6055 23.3867
v -10.3242 53.9844 22.1719
v -9.5820 44.1172 24.3047
v -21.3555 48.0000 15.3359
v -23.8398 37.0000 14.3633
v 0.0000 44.1953 6.8750
v -5.2617 54.6055 23.3867
v -9.5820 44.1172 24.3047
v -17.9961 43.2461 20.6406
v -15.0000 53.0000 20.1953
v -21.3555 48.0000 15.3359
v 0.0000 54.8203 23.7969
v -5.2617 54.6055 23.3867
v 0.0000 44.3438 25.3594
v 0.0000 44.3438 25.3594
v -24.9023 25.0586 10.7930
v -23.8398 37.0000 14.3633
v -26.2969 39.0000 8.0000
v -24.6250 37.2383 -17.0586
v -18.6641 15.5547 -13.8867
v 0.0000 7.5508 -18.7695
v 0.0000 25.0000 0.0000
v -10.2930 8.8789 -18.0039
v -11.3984 34.1562 -31.6953
v 0.0000 7.5508 -18.7695
v -21.3555 48.0000 15.3359
v -24.6289 43.4922 11.9922
v -15.0000 53.0000 20.1953
v -17.9961 43.2461 20.6406
v -15.0000 53.0000 20.1953
v -18.6641 15.5547 -13.8867
v -24.9023 25.0586 10.7930
v -26.2969 33.4336 0.0000
v 26.1250 33.4336 -16.0000
v 27.5820 40.4922 -1.5898
v 26.2969 33.4336 0.0000
v 26.2969 39.0000 8.0000
v 11.3047 22.5742 -29.8398
v 11.3984 34.1562 -31.6953
v 18.6641 24.7188 -23.9453
v 21.9961 23.0000 -17.0000
v 10.2930 8.8789 -18.0039
v 18.6641 15.5547 -13.8867
v 24.6719 43.4023 11.9141
v 5.2617 54.6055 23.3867
v 9.5820 44.1172 24.3047
v 10.3242 53.9844 22.1719
v 21.3555 48.0000 15.3359
v 23.8398 37.0000 14.3633
v 5.2617 54.6055 23.3867
v 9.5820 44.1172 24.3047
v 5.2617 54.6055 23.3867
v 24.9023 25.0586 10.7930
v 23.8398 37.0000 14.3633
v 24.6250 37.2383 -17.0586
v 10.2930 8.8789 -18.0039
v 21.3555 48.0000 15.3359
v 17.9961 43.2461 20.6406
v 21.3555 48.0000 15.3359
v 15.0000 53.0000 20.1953
v 15.0000 53.0000 20.1953
v 17.9961 43.2461 20.6406
v 15.0000 53.0000 20.1953
v 18.6641 15.5547 -13.8867
v 24.9023 25.0586 10.7930
v 26.2969 33.4336 0.0000
v -19.3555 35.5977 -24.9492
v 19.3555 35.5977 -24.9492
f 1 2 3
f 3 28 1
f 76 1 28
f 7 1 76
f 7 9 1
f 7 8 9
f 6 8 7
f 6 7 33
f 6 33 4
f 4 5 6
f 5 4 47
f 5 47 34
f 5 34 6
f 8 6 34
f 29 9 8
f 29 2 9
f 2 1 9
f 25 27 2
f 25 26 27
f 26 36 27
f 35 36 26
f 36 3 27
f 2 27 3
f 10 11 12
f 37 12 11
f 13 14 15
f 15 38 13
f 15 39 38
f 15 17 39
f 15 16 17
f 24 16 15
f 15 59 24
f 59 15 60
f 15 72 60
f 15 71 72
f 15 57 71
f 57 15 58
f 15 74 58
f 74 15 75
f 15 14 41
f 41 42 15
f 18 19 20
f 21 22 23
f 23 61 21
f 30 31 32
f 30 65 31
f 73 31 65
f 40 32 31
f 43 44 45
f 43 45 50
f 49 43 50
f 49 50 51
f 47 49 51
f 47 48 49
f 47 4 48
f 51 34 47
f 52 51 50
f 52 50 45
f 45 44 46
f 62 45 46
f 62 46 63
f 53 63 46
f 44 53 46
f 64 44 43
f 43 77 64
f 49 77 43
f 49 48 77
f 54 55 56
f 56 55 70
f 66 63 53
f 67 68 69
f 7 76 33
