v 20.0000 34.4766 22.4727
v 26.9961 24.0000 24.6172
v 26.0078 35.8867 19.5000
v 13.7656 57.3867 26.0000
v 9.9648 66.5000 10.0000
v 7.2695 62.4023 21.3906
v 0.0000 64.5195 16.0273
v 0.0000 69.0000 5.0000
v 31.0000 25.3359 19.2500
v 23.9492 14.0000 14.0000
v 29.0977 27.0000 11.0000
v 0.0000 50.9062 -32.1016
v 12.9414 50.0508 -29.1016
v 0.0000 37.0586 -35.1328
v 17.3906 35.2070 -30.4727
v 17.2852 59.3984 -17.9727
v 0.0000 62.0156 -22.7773
v 10.5977 66.4883 -9.3281
v 0.0000 68.1875 -9.8086
v 25.1328 43.9805 -17.7578
v 26.1250 33.4336 -16.0000
v 19.0312 60.4531 9.1289
v 17.7266 7.2617 -26.5938
v 0.0000 6.2070 -36.1602
v 15.8672 21.4883 -25.3086
v 0.0000 22.3789 -34.0273
v 25.4375 20.0000 -7.0000
v 28.2930 37.1953 2.1289
v 24.5977 1.0000 6.0000
v 21.4727 10.0000 3.0000
v 18.0000 1.0000 2.0000
v 24.5977 1.0000 6.0000
v 27.0000 -9.0000 8.0000
v 26.9336 0.0000 -3.0000
v 11.0781 -7.1992 -26.0000
v 20.6758 -7.2070 -17.0234
v 16.3984 -14.7383 -10.5273
v 0.0000 -18.0000 -22.6250
v 0.0000 -9.0000 -31.6250
v 32.0000 10.0000 3.0000
v 27.7031 10.0000 9.0000
v 28.5430 11.0000 -3.0000
v 23.4375 -3.6016 -8.3047
v 25.0039 7.3555 -10.5234
v 28.5430 11.0000 -3.0000
v 7.2695 62.4023 21.3906
v 10.0000 57.0898 17.7695
v 13.7656 57.3867 26.0000
v 0.0000 56.1211 19.9062
v 0.0000 56.1211 19.9062
v 29.0977 27.0000 11.0000
v 23.9492 14.0000 14.0000
v 23.3984 27.7852 8.6211
v 25.4375 20.0000 -7.0000
v 26.9961 24.0000 24.6172
v 20.0000 34.4766 22.4727
v 26.2031 47.6758 24.0000
v 26.7578 51.0195 6.9922
v 20.5938 44.8594 30.0859
v 20.5938 44.8594 30.0859
v 26.9336 0.0000 -3.0000
v 27.0000 -9.0000 8.0000
v 27.7031 10.0000 9.0000
v 18.6641 21.1172 -3.3281
v -20.0000 34.4766 22.4727
v -26.0078 35.8867 19.5000
v -26.9961 24.0000 24.6172
v -13.7656 57.3867 26.0000
v -7.2695 62.4023 21.3906
v -9.9648 66.5000 10.0000
v -31.0000 25.3359 19.2500
v -23.9492 14.0000 14.0000
v -29.0977 27.0000 11.0000
v -12.9414 50.0508 -29.1016
v -17.3906 35.2070 -30.4727
v -17.2852 59.3984 -17.9727
v -10.5977 66.4883 -9.3281
v -25.1328 43.9805 -17.7578
v -26.1250 33.4336 -16.0000
v -19.0312 60.4531 9.1289
v -25.4375 20.0000 -7.0000
v -15.8672 21.4883 -25.3086
v -25.0039 7.3555 -10.5234
v -17.7266 7.2617 -26.5938
v -28.2930 37.1953 2.1289
v -32.0000 10.0000 3.0000
v -28.5430 11.0000 -3.0000
v -27.7031 10.0000 9.0000
v -24.5977 1.0000 6.0000
v -18.0000 1.0000 2.0000
v -21.4727 10.0000 3.0000
v -24.5977 1.0000 6.0000
v -26.9336 0.0000 -3.0000
v -27.0000 -9.0000 8.0000
v -11.0781 -7.1992 -26.0000
v -16.3984 -14.7383 -10.5273
v -20.6758 -7.2070 -17.0234
v -23.4375 -3.6016 -8.3047
v -28.5430 11.0000 -3.0000
v -7.2695 62.4023 21.3906
v -13.7656 57.3867 26.0000
v -10.0000 57.0898 17.7695
v 0.0000 56.1211 19.9062
v -29.0977 27.0000 11.0000
v -23.3984 27.7852 8.6211
v -23.9492 14.0000 14.0000
v -25.4375 20.0000 -7.0000
v -26.9961 24.0000 24.6172
v -20.0000 34.4766 22.4727
v -26.2031 47.6758 24.0000
v -26.7578 51.0195 6.9922
v -20.5938 44.8594 30.0859
v -20.5938 44.8594 30.0859
v -27.0000 -9.0000 8.0000
v -26.9336 0.0000 -3.0000
v -27.7031 10.0000 9.0000
v -18.6641 21.1172 -3.3281
v 10.6641 10.8945 -8.7383
v -10.6641 10.8945 -8.7383
v 0.0000 -18.0000 -22.6250
v 16.3984 -14.7383 -10.5273
v 23.4375 -3.6016 -8.3047
v 25.0039 7.3555 -10.5234
v 11.0781 -7.1992 -26.0000
v -16.3984 -14.7383 -10.5273
v -23.4375 -3.6016 -8.3047
v -25.0039 7.3555 -10.5234
v -11.0781 -7.1992 -26.0000
v -18.8789 42.6641 11.9258
v 18.8789 42.6641 11.9258
f 1 2 3
f 59 1 3
f 57 59 3
f 4 59 57
f 22 4 57
f 57 58 22
f 58 57 28
f 20 58 28
f 28 21 20
f 27 21 28
f 27 25 21
f 27 44 25
f 25 44 23
f 23 24 25
f 23 35 24
f 35 23 36
f 35 36 37
f 37 36 43
f 36 44 43
f 23 44 36
f 4 5 6
f 4 22 5
f 18 5 22
f 5 18 8
f 5 8 7
f 6 5 7
f 6 7 50
f 69 50 7
f 69 7 70
f 68 69 70
f 68 70 80
f 80 110 68
f 110 80 111
f 110 111 85
f 66 110 85
f 66 112 110
f 65 112 66
f 65 66 67
f 71 67 66
f 71 72 67
f 73 72 71
f 66 73 71
f 73 66 85
f 85 86 73
f 85 81 86
f 81 85 79
f 81 79 82
f 81 82 83
f 83 82 84
f 83 84 97
f 98 83 97
f 96 98 97
f 95 96 97
f 95 97 84
f 24 95 84
f 84 82 24
f 24 82 26
f 24 26 25
f 25 26 15
f 25 15 21
f 20 21 15
f 15 13 20
f 13 15 14
f 12 13 14
f 17 13 12
f 16 13 17
f 16 17 18
f 22 16 18
f 16 22 58
f 20 16 58
f 20 13 16
f 9 2 10
f 11 9 10
f 3 9 11
f 9 3 2
f 11 28 3
f 11 40 28
f 41 40 11
f 32 40 41
f 34 40 32
f 32 33 34
f 42 40 34
f 27 40 42
f 28 40 27
f 28 57 3
f 17 19 18
f 17 77 19
f 76 77 17
f 76 17 74
f 76 74 78
f 78 111 76
f 78 85 111
f 85 78 79
f 78 75 79
f 78 74 75
f 74 14 75
f 12 14 74
f 74 17 12
f 19 8 18
f 19 77 8
f 70 8 77
f 70 7 8
f 70 77 80
f 80 77 76
f 76 111 80
f 26 14 15
f 26 75 14
f 82 75 26
f 82 79 75
f 29 30 31
f 29 31 62
f 31 61 62
f 31 45 61
f 30 45 31
f 45 30 54
f 30 64 54
f 64 30 53
f 53 30 51
f 51 52 53
f 53 52 55
f 56 53 55
f 56 130 53
f 56 60 130
f 130 60 47
f 48 47 60
f 46 47 48
f 47 46 49
f 38 39 35
f 38 95 39
f 39 95 24
f 35 39 24
f 29 63 30
f 63 51 30
f 86 81 87
f 87 93 86
f 93 92 86
f 92 93 94
f 86 92 88
f 73 86 88
f 89 90 91
f 89 114 90
f 90 114 115
f 90 115 99
f 91 90 99
f 99 107 91
f 91 107 117
f 117 105 91
f 105 104 91
f 104 105 106
f 106 105 108
f 105 109 108
f 105 129 109
f 109 129 113
f 113 129 102
f 101 113 102
f 100 101 102
f 102 103 100
f 68 110 112
f 89 91 116
f 104 116 91
f 118 119 120
f 124 118 120
f 118 124 121
f 121 122 118
f 122 123 118
f 118 123 64
f 64 123 54
f 125 119 126
f 128 119 125
f 120 119 128
f 126 119 127
f 117 127 119
f 107 127 117
