v 10.8555 64.2500 22.0898
v 10.6875 66.8125 10.2539
v 0.0000 69.2031 10.6641
v 27.2617 48.4727 -4.1484
v 18.7305 60.5703 8.7188
v 26.6094 47.5703 8.7070
v 28.3438 35.8828 7.7266
v 29.5859 35.0703 -6.6914
v 17.6992 55.8281 22.0938
v 14.0000 54.0000 10.8125
v 19.4766 50.0000 23.5000
v 12.1211 29.6680 -3.4766
v 21.3242 44.0000 23.5000
v 23.3516 36.0000 20.0000
v -27.2344 48.4727 -4.1484
v -26.6094 47.5742 8.7031
v -18.7305 60.5742 8.7188
v -29.5859 35.0703 -6.6914
v -28.3438 35.8828 7.7266
v -17.4492 42.5078 26.9805
v -24.3125 44.6836 19.5391
v -23.0000 33.3242 17.5156
v -18.3320 54.3359 25.8047
v -10.1172 60.8242 28.4258
v -10.6875 66.8125 10.2539
v -9.7188 48.1992 31.3164
v 0.0039 64.3125 26.5195
v 1.1562 53.6719 32.5195
v 10.6484 56.0508 29.5039
v 17.6992 55.8281 22.0938
v -28.3438 35.8828 7.7266
v -12.1211 29.6680 -3.4766
v -24.7266 27.5625 10.2891
v -24.7266 27.5625 10.2891
v -23.0000 33.3242 17.5156
v -17.4492 42.5078 26.9805
v -9.7188 48.1992 31.3164
v 1.1562 53.6719 32.5195
v 10.6484 56.0508 29.5039
v 19.4766 50.0000 23.5000
v 21.3242 44.0000 23.5000
v 23.3516 36.0000 20.0000
v 24.7227 27.5586 10.2930
v 10.5977 63.9922 -17.6406
v 0.0000 65.5625 -18.5469
v 10.5977 67.4883 -6.0039
v 0.0000 69.2383 -6.3125
v 10.5977 56.1133 -27.0273
v 18.7617 58.1797 -15.8359
v 20.6484 45.3320 -26.1484
v 21.0078 33.7930 -27.6211
v 26.9492 34.1250 -17.3789
v 26.5703 44.8594 -16.1055
v 11.3047 33.4336 -33.5195
v 10.5977 45.5039 -33.1562
v 0.0000 57.2812 -28.4180
v 0.0000 46.1250 -34.8594
v 28.1992 21.0742 -4.9297
v 25.1602 13.7969 -14.8633
v 0.0000 33.4336 -35.2422
v 0.0000 14.0469 -32.5781
v 11.7578 -1.9219 -29.2266
v 0.0000 -0.7500 -33.5000
v 10.1250 13.8125 -30.5078
v 27.3555 20.6602 8.2500
v 28.3438 35.8828 7.7266
v 24.7227 27.5586 10.2930
v 27.3555 20.6602 8.2500
v 30.0312 10.5000 11.6250
v 19.2227 13.4922 -24.4531
v 32.6797 1.0000 4.8516
v 21.4609 3.8945 7.9922
v 28.9297 -2.1875 -5.9297
v 6.2656 0.1016 -10.3750
v 20.6484 -2.9219 -20.3945
v 34.2422 5.7500 14.3867
v 28.9766 8.5742 -1.4336
v 28.9297 -2.1875 -5.9297
v 32.6797 1.0000 4.8516
v 20.6484 -2.9219 -20.3945
v 11.7578 -1.9219 -29.2266
v 34.2422 5.7500 14.3867
v 30.0312 10.5000 11.6250
v -10.5977 67.4883 -6.0039
v -10.5977 63.9922 -17.6406
v -10.5977 56.1133 -27.0273
v -20.6484 45.3320 -26.1484
v -18.7617 58.1797 -15.8359
v -21.0078 33.7930 -27.6211
v -26.9492 34.1250 -17.3789
v -26.5703 44.8594 -16.1055
v -11.3047 33.4336 -33.5195
v -10.5977 45.5039 -33.1562
v -25.1602 13.7969 -14.8633
v -28.1992 21.0742 -4.9297
v -10.1250 13.8125 -30.5078
v -28.9766 8.5742 -1.4336
v -11.7578 -1.9219 -29.2266
v -27.3555 20.6602 8.2500
v -27.3555 20.6602 8.2500
v -30.0312 10.5000 11.6250
v -19.2227 13.4922 -24.4531
v -6.2656 0.1016 -10.3750
v -21.4609 3.8945 7.9922
v -32.6797 1.0000 4.8516
v -34.2422 5.7500 14.3867
v -28.9297 -2.1875 -5.9297
v -20.6484 -2.9219 -20.3945
v -11.7578 -1.9219 -29.2266
v -20.6484 -2.9219 -20.3945
v -28.9297 -2.1875 -5.9297
v -32.6797 1.0000 4.8516
v 0.0000 -0.7500 -33.5000
v -34.2422 5.7500 14.3867
v -30.0312 10.5000 11.6250
f 1 2 3
f 1 3 27
f 1 27 29
f 30 1 29
f 5 1 30
f 2 1 5
f 46 2 5
f 2 46 3
f 3 46 47
f 47 84 3
f 47 45 84
f 45 47 46
f 44 45 46
f 44 56 45
f 48 56 44
f 56 48 57
f 57 86 56
f 93 86 57
f 93 87 86
f 92 87 93
f 89 87 92
f 89 90 87
f 94 90 89
f 94 95 90
f 94 97 95
f 97 94 107
f 107 105 97
f 97 105 106
f 101 97 106
f 97 101 95
f 95 101 100
f 95 100 18
f 95 18 90
f 91 90 18
f 90 91 87
f 88 87 91
f 86 87 88
f 86 88 85
f 56 86 85
f 45 56 85
f 84 45 85
f 85 88 84
f 84 88 17
f 84 17 25
f 84 25 3
f 3 25 27
f 27 25 24
f 27 24 28
f 27 28 29
f 24 26 28
f 26 24 23
f 20 26 23
f 20 23 21
f 20 21 22
f 22 21 19
f 22 19 34
f 15 18 19
f 15 91 18
f 88 91 15
f 17 88 15
f 15 16 17
f 16 15 19
f 21 16 19
f 21 23 16
f 17 16 23
f 23 24 17
f 25 17 24
f 4 5 6
f 6 7 4
f 6 42 7
f 42 6 41
f 40 41 6
f 30 40 6
f 6 5 30
f 46 5 49
f 44 46 49
f 48 44 49
f 48 49 50
f 55 48 50
f 54 55 50
f 51 54 50
f 51 50 52
f 52 59 51
f 58 59 52
f 8 58 52
f 58 8 68
f 68 69 58
f 69 77 58
f 76 77 69
f 79 77 76
f 78 77 79
f 77 78 59
f 59 58 77
f 59 70 51
f 80 70 59
f 78 80 59
f 62 70 80
f 62 64 70
f 62 63 64
f 64 63 61
f 54 64 61
f 60 54 61
f 55 54 60
f 57 55 60
f 48 55 57
f 60 93 57
f 92 93 60
f 61 92 60
f 96 92 61
f 96 61 63
f 98 96 63
f 98 102 96
f 98 108 102
f 108 94 102
f 107 94 108
f 102 94 89
f 102 89 96
f 89 92 96
f 4 7 8
f 4 8 53
f 49 4 53
f 49 53 50
f 50 53 52
f 53 8 52
f 68 8 7
f 42 43 7
f 9 10 11
f 10 9 39
f 38 10 39
f 10 38 37
f 37 36 10
f 35 10 36
f 32 10 35
f 33 32 35
f 31 32 33
f 99 32 31
f 104 32 99
f 104 103 32
f 103 104 111
f 110 103 111
f 109 103 110
f 109 113 103
f 103 113 74
f 103 74 12
f 32 103 12
f 10 12 11
f 11 12 13
f 14 13 12
f 67 14 12
f 12 66 67
f 65 66 12
f 72 65 12
f 74 72 12
f 73 72 74
f 71 72 73
f 82 72 71
f 82 83 72
f 83 65 72
f 5 4 49
f 70 64 51
f 64 54 51
f 74 75 73
f 81 75 74
f 74 113 81
f 100 19 18
f 104 112 111
f 114 112 104
f 114 104 115
f 115 104 99
