v -5.3516 50.9805 33.3008
v -16.1719 58.1484 27.2578
v -19.0117 44.8164 27.7695
v -26.3125 49.1680 21.1836
v -28.1523 39.6133 15.9844
v -18.9609 38.9414 23.0469
v -8.6406 40.0742 27.9688
v 9.3281 56.3047 29.9414
v -3.0078 64.0234 27.3242
v 5.2305 45.6953 29.0312
v 0.0000 68.7656 17.0664
v 12.8984 66.0391 17.3359
v 17.3477 57.9844 22.6133
v 28.4922 36.1758 6.0000
v 27.2930 45.9648 13.8867
v 27.7695 33.5898 12.0117
v 24.5430 26.6445 10.0000
v 24.0000 42.0469 19.9375
v 19.0312 61.5156 5.4609
v 10.1680 68.2695 6.0000
v 22.8867 60.2109 14.0000
v 0.0000 70.2695 6.0000
v 24.0000 42.0469 19.9375
v 0.0000 53.0000 -4.3359
v 24.5430 26.6445 10.0000
v 17.3477 57.9844 22.6133
v -19.0312 61.5156 5.4609
v -27.1094 47.6641 5.5000
v -22.8867 60.2109 14.0000
v -24.0000 42.0469 19.9375
v -27.2891 45.9648 13.8906
v -24.5430 26.6445 10.0000
v -27.7695 33.5898 12.0117
v -28.4922 36.1758 6.0000
v -10.1680 68.2695 6.0000
v -24.0000 42.0469 19.9375
v -24.5430 26.6445 10.0000
v 0.0000 53.0000 -4.3359
v -12.8984 66.0391 17.3359
v -22.0000 58.4609 19.0000
v -27.0000 50.0000 16.0000
v -27.0000 50.0000 16.0000
v -22.8867 60.2109 14.0000
v 0.0000 53.0000 -4.3359
v 27.1094 47.6641 5.5000
v -28.1523 39.6133 15.9844
v -25.5820 25.7188 -23.4531
v -18.9844 11.0000 -20.0000
v -26.6250 16.5000 -13.7070
v -30.5273 32.4180 -9.0312
v -17.4062 3.0000 -11.0000
v -29.6250 22.8594 -2.9531
v -10.5977 67.4883 -6.0039
v -24.8984 57.0000 -4.6680
v -31.3008 43.3203 -3.0000
v -31.4219 28.6445 0.5000
v -27.4570 16.0000 6.0000
v -14.3945 10.4492 -27.8750
v -15.7148 25.7188 -32.4805
v -10.7539 2.0000 -21.4453
v -7.4570 10.4492 -29.7773
v 0.0000 26.0469 -36.8242
v 0.0000 10.4492 -32.4609
v 0.0000 0.0000 -25.3672
v 0.0000 61.4492 -23.5781
v -10.8359 63.9883 -17.9219
v 0.0000 69.2383 -6.3125
v -18.7617 58.1797 -15.8359
v -10.5977 56.1133 -27.0273
v -24.4844 44.3867 -20.3438
v -13.0625 45.5039 -32.1406
v 0.0000 46.1250 -34.8594
v -18.3047 21.6641 5.9375
v -27.4570 16.0000 6.0000
v -19.7500 26.2383 -0.0273
v -29.6250 22.8594 -2.9531
v -17.4062 3.0000 -11.0000
v -18.9844 11.0000 -20.0000
v -13.9219 9.1289 -14.7539
v -7.7695 7.5312 -17.4883
v -10.7539 2.0000 -21.4453
v 0.0000 0.0000 -25.3672
v -7.4570 10.4492 -29.7773
v -11.1367 13.7969 -4.9453
v -18.3047 21.6641 5.9375
v -28.4922 36.1758 6.0000
v 0.0000 53.0000 -4.3359
v 7.7695 7.5312 -17.4883
v 11.1367 13.7969 -4.9453
v 25.5820 25.7188 -23.4531
v 26.6250 16.5000 -13.7070
v 18.9844 11.0000 -20.0000
v 30.5273 32.4180 -9.0312
v 29.6250 22.8594 -2.9531
v 17.4062 3.0000 -11.0000
v 24.8984 57.0000 -4.6680
v 10.5977 67.4883 -6.0039
v 31.3008 43.3203 -3.0000
v 31.4219 28.6445 0.5000
v 27.4570 16.0000 6.0000
v 15.7148 25.7188 -32.4805
v 14.3945 10.4492 -27.8750
v 10.7539 2.0000 -21.4453
v 7.4570 10.4492 -29.7773
v 10.8359 63.9883 -17.9219
v 18.7617 58.1797 -15.8359
v 24.4844 44.3867 -20.3438
v 10.5977 56.1133 -27.0273
v 13.0625 45.5039 -32.1406
v 18.3047 21.6641 5.9375
v 19.7500 26.2383 -0.0273
v 27.4570 16.0000 6.0000
v 29.6250 22.8594 -2.9531
v 17.4062 3.0000 -11.0000
v 13.9219 9.1289 -14.7539
v 18.9844 11.0000 -20.0000
v 10.7539 2.0000 -21.4453
v 7.4570 10.4492 -29.7773
v 7.7695 7.5312 -17.4883
v 13.9219 9.1289 -14.7539
v 0.0000 53.0000 -4.3359
v 28.4922 36.1758 6.0000
v 0.0000 53.0000 -4.3359
v 28.4922 36.1758 6.0000
v -28.4922 36.1758 6.0000
v 0.0000 53.0000 -4.3359
v -24.5430 26.6445 10.0000
v 0.0000 53.0000 -4.3359
v -18.9609 38.9414 23.0469
v -8.6406 40.0742 27.9688
v 5.2305 45.6953 29.0312
v -8.6406 40.0742 27.9688
v 0.0000 53.0000 -4.3359
v 17.3477 57.9844 22.6133
f 1 2 3
f 1 3 7
f 10 1 7
f 8 1 10
f 8 9 1
f 12 9 8
f 11 9 12
f 20 11 12
f 22 11 20
f 22 35 11
f 22 53 35
f 67 53 22
f 67 66 53
f 65 66 67
f 66 65 69
f 69 68 66
f 68 69 70
f 70 54 68
f 55 54 70
f 28 54 55
f 28 55 34
f 31 28 34
f 31 29 28
f 30 29 31
f 33 30 31
f 32 30 33
f 34 32 33
f 33 31 34
f 55 56 34
f 55 50 56
f 70 50 55
f 47 50 70
f 47 49 50
f 47 48 49
f 48 47 58
f 58 60 48
f 60 58 61
f 59 61 58
f 58 47 59
f 70 59 47
f 71 59 70
f 70 69 71
f 72 71 69
f 72 62 71
f 109 62 72
f 72 108 109
f 108 72 65
f 105 108 65
f 65 67 105
f 67 97 105
f 67 22 97
f 22 20 97
f 97 20 19
f 19 96 97
f 19 45 96
f 21 45 19
f 19 20 21
f 12 21 20
f 21 12 13
f 21 13 15
f 15 45 21
f 14 45 15
f 14 15 16
f 14 16 17
f 17 16 18
f 15 18 16
f 15 13 18
f 13 12 8
f 13 8 10
f 3 2 4
f 5 3 4
f 5 6 3
f 6 7 3
f 1 9 2
f 9 39 2
f 11 39 9
f 11 35 39
f 29 39 35
f 27 29 35
f 27 28 29
f 27 54 28
f 27 53 54
f 53 27 35
f 54 53 68
f 53 66 68
f 23 24 25
f 26 24 23
f 36 37 38
f 39 40 2
f 40 39 29
f 29 41 40
f 41 4 40
f 4 41 5
f 2 40 4
f 42 43 44
f 42 44 46
f 46 128 129
f 128 130 129
f 131 128 134
f 131 132 133
f 49 51 52
f 48 51 49
f 50 49 52
f 56 50 52
f 52 57 56
f 34 56 57
f 62 61 59
f 62 63 61
f 62 104 63
f 62 101 104
f 101 62 109
f 101 109 107
f 90 101 107
f 101 90 102
f 101 102 104
f 103 104 102
f 102 92 103
f 90 92 102
f 90 91 92
f 90 93 91
f 90 107 93
f 107 98 93
f 98 107 96
f 45 98 96
f 45 14 98
f 98 14 99
f 98 99 93
f 99 94 93
f 94 99 100
f 14 100 99
f 63 64 61
f 63 104 64
f 71 62 59
f 73 74 75
f 75 74 76
f 76 84 75
f 77 84 76
f 77 79 84
f 77 78 79
f 81 79 78
f 80 79 81
f 81 83 80
f 82 80 83
f 88 80 82
f 88 89 80
f 89 84 80
f 80 84 79
f 74 85 86
f 86 85 87
f 69 65 72
f 91 94 95
f 92 91 95
f 93 94 91
f 106 107 108
f 107 106 96
f 96 106 97
f 97 106 105
f 108 105 106
f 107 109 108
f 110 111 112
f 122 110 112
f 121 110 122
f 111 113 112
f 113 111 89
f 114 113 89
f 114 89 115
f 114 115 116
f 117 116 115
f 88 117 115
f 117 88 118
f 82 118 88
f 89 119 120
f 25 123 124
f 125 126 127
