v 24.0000 21.9062 -7.5234
v 27.7344 29.0781 2.6523
v 17.1602 41.5508 9.2422
v 27.7344 29.0781 2.6523
v 27.8789 41.0000 0.0000
v 25.4570 37.1289 13.9961
v 5.5117 49.3398 28.7539
v 0.0000 61.1914 21.0625
v -5.5117 49.3398 28.7539
v 9.4219 60.4570 19.8789
v 25.4414 53.0000 1.0000
v 24.4570 49.9570 10.2734
v 17.1602 55.8164 20.7461
v 16.6211 63.7539 4.7969
v 18.1211 48.1523 23.4141
v 0.0000 40.5781 31.1992
v 10.2148 40.3438 29.6680
v 18.2812 39.4727 24.4570
v 10.2148 40.3438 29.6680
v 0.0000 40.5781 31.1992
v 18.2812 39.4727 24.4570
v 0.0000 68.1445 6.1172
v 10.6016 67.4883 -6.0039
v 21.7227 47.1641 19.2969
v 21.7227 47.1641 19.2969
v 25.4570 37.1289 13.9961
v 18.1211 48.1523 23.4141
v 17.1602 55.8164 20.7461
v -24.0000 21.9062 -7.5234
v -17.1602 41.5508 9.2422
v -27.7344 29.0781 2.6523
v -9.4219 60.4570 19.8789
v -25.4414 53.0000 1.0000
v -27.8789 41.0000 0.0000
v -24.4570 49.9570 10.2734
v -16.6211 63.7539 4.7969
v -17.1602 55.8164 20.7461
v -18.1211 48.1523 23.4141
v -10.2148 40.3438 29.6680
v -18.2812 39.4727 24.4570
v -10.2148 40.3438 29.6680
v -18.2812 39.4727 24.4570
v -10.6016 67.4883 -6.0039
v -21.7227 47.1641 19.2969
v -25.4570 37.1289 13.9961
v -18.1211 48.1523 23.4141
v -17.1602 55.8164 20.7461
v -25.4570 37.1289 13.9961
v -21.7227 47.1641 19.2969
v 0.0000 27.7227 -33.3086
v 0.0000 46.1250 -34.8594
v 11.3086 33.4336 -33.5195
v 10.6016 45.5039 -33.1562
v 0.0000 69.2383 -6.3125
v 0.0000 65.5625 -18.5469
v 10.6016 60.0547 -22.3320
v 19.7891 24.1953 -25.3828
v 11.3086 22.5742 -29.8398
v 18.7617 58.1797 -15.8359
v 21.0000 45.0000 -26.5977
v 0.0000 57.2812 -28.4180
v 25.4414 44.2617 -16.0000
v 18.6641 15.5547 -13.8867
v 0.0000 9.6289 -19.1055
v 24.0000 21.9062 -7.5234
v 26.1289 33.0000 -16.0000
v -10.6016 45.5039 -33.1562
v -11.3086 33.4336 -33.5195
v -10.6016 60.0547 -22.3320
v -11.3086 22.5742 -29.8398
v -19.7891 24.1953 -25.3828
v -21.0000 45.0000 -26.5977
v -18.7617 58.1797 -15.8359
v -25.4414 44.2617 -16.0000
v -18.6641 15.5547 -13.8867
v -24.0000 21.9062 -7.5234
v -26.1289 33.0000 -16.0000
v -27.7344 29.0781 2.6523
v -18.6641 15.5547 -13.8867
v 18.6641 15.5547 -13.8867
v -29.3203 12.0938 -29.5430
v -30.4375 3.6641 -25.6719
v -26.1484 12.4805 -22.2773
v -28.7734 -4.2695 -35.1055
v -22.8203 2.9531 -38.7500
v -17.4102 4.6094 -29.5859
v -19.2188 8.1875 -36.4102
v -17.9336 15.0391 -21.1328
v -11.3203 26.5195 -21.0195
v -23.5898 20.0703 -25.5820
v -23.4727 16.2852 -33.9102
v -27.5742 7.7344 -38.1250
v -32.7109 5.4492 -32.7891
v -40.6680 -0.6016 -35.9570
v -22.2227 3.9141 -23.3438
v -30.8750 -3.4922 -29.4727
v -28.5508 -0.1836 -39.5820
v 29.3203 12.0938 -29.5430
v 26.1484 12.4805 -22.2773
v 30.4375 3.6641 -25.6719
v 28.7734 -4.2695 -35.1055
v 17.4102 4.6094 -29.5859
v 22.8203 2.9531 -38.7500
v 19.2188 8.1875 -36.4102
v 11.3203 26.5195 -21.0195
v 17.9336 15.0391 -21.1328
v 23.5898 20.0703 -25.5820
v 23.4727 16.2852 -33.9102
v 32.7109 5.4492 -32.7891
v 27.5742 7.7344 -38.1250
v 40.6680 -0.6016 -35.9570
v 22.2227 3.9141 -23.3438
v 30.8750 -3.4922 -29.4727
v 28.5508 -0.1836 -39.5820
f 1 2 3
f 1 3 80
f 3 19 20
f 3 21 19
f 3 27 21
f 3 28 27
f 25 28 3
f 25 3 26
f 26 3 2
f 20 30 3
f 30 20 41
f 30 41 42
f 30 42 46
f 46 47 30
f 30 47 44
f 44 45 30
f 30 45 31
f 29 30 31
f 30 29 79
f 4 5 6
f 5 4 66
f 62 5 66
f 66 60 62
f 66 57 60
f 65 57 66
f 57 65 63
f 57 63 58
f 52 57 58
f 52 58 50
f 50 51 52
f 51 50 68
f 67 51 68
f 68 72 67
f 68 71 72
f 68 70 71
f 68 50 70
f 50 64 70
f 50 58 64
f 58 63 64
f 75 70 64
f 71 70 75
f 71 75 76
f 76 77 71
f 76 78 77
f 34 77 78
f 74 77 34
f 77 74 72
f 77 72 71
f 69 72 73
f 67 72 69
f 69 61 67
f 55 61 69
f 55 56 61
f 55 23 56
f 54 23 55
f 54 22 23
f 22 54 43
f 36 22 43
f 32 22 36
f 32 8 22
f 32 9 8
f 9 32 37
f 9 37 38
f 9 38 39
f 16 9 39
f 16 7 9
f 16 17 7
f 7 17 15
f 7 15 13
f 7 13 10
f 8 7 10
f 7 8 9
f 10 22 8
f 10 14 22
f 13 14 10
f 13 12 14
f 12 13 24
f 6 12 24
f 5 12 6
f 11 12 5
f 14 12 11
f 14 11 59
f 23 14 59
f 22 14 23
f 56 23 59
f 56 59 60
f 53 56 60
f 52 53 60
f 52 51 53
f 51 61 53
f 61 51 67
f 53 61 56
f 17 18 15
f 33 34 35
f 33 35 36
f 36 73 33
f 43 73 36
f 69 73 43
f 55 69 43
f 54 55 43
f 36 35 37
f 37 32 36
f 35 49 37
f 48 49 35
f 34 48 35
f 48 34 78
f 34 33 74
f 33 73 74
f 73 72 74
f 39 38 40
f 59 62 60
f 11 62 59
f 5 62 11
f 52 60 57
f 65 66 4
f 81 82 83
f 90 81 83
f 90 83 89
f 91 90 89
f 87 91 89
f 87 89 86
f 86 85 87
f 84 85 86
f 84 86 96
f 96 94 84
f 94 96 82
f 93 94 82
f 82 81 93
f 81 92 93
f 91 92 81
f 91 81 90
f 91 87 92
f 85 92 87
f 92 85 97
f 97 94 92
f 94 97 84
f 85 84 97
f 83 88 89
f 88 83 95
f 95 86 88
f 96 86 95
f 82 96 95
f 83 82 95
f 88 86 89
f 93 92 94
f 98 99 100
f 107 99 98
f 107 105 99
f 108 105 107
f 104 105 108
f 104 102 105
f 102 104 103
f 101 102 103
f 101 113 102
f 113 101 111
f 111 100 113
f 109 100 111
f 100 109 98
f 98 109 110
f 108 98 110
f 108 107 98
f 108 110 104
f 103 104 110
f 110 114 103
f 114 110 111
f 111 101 114
f 103 114 101
f 99 105 106
f 106 112 99
f 112 106 102
f 113 112 102
f 100 112 113
f 99 112 100
f 106 105 102
f 109 111 110
