v 14.4023 9.4531 -16.9180
v -0.0469 7.0000 -20.0039
v 14.5000 12.5000 -24.4609
v -0.0469 10.0000 -28.3789
v -0.0469 20.0000 -32.3828
v 10.0977 20.0117 -31.2070
v -0.0234 33.5469 -34.3477
v 11.3984 34.1562 -31.6953
v 19.3555 35.5977 -24.9492
v 20.3047 21.5820 -24.1445
v 28.2852 32.4531 -11.9453
v 29.6016 22.0000 -2.0000
v 30.7109 30.7031 -1.3945
v 29.0078 28.0000 3.4375
v 26.0039 17.0000 -8.0000
v 28.2812 23.1367 -12.0039
v 27.8320 36.5859 7.1016
v 27.5820 40.4922 -1.5898
v 24.6250 37.2383 -17.0586
v -14.5000 9.4531 -16.9180
v -14.5977 12.5000 -24.4609
v -10.1953 20.0117 -31.2070
v -11.3984 34.1562 -31.6953
v -20.3984 21.5820 -24.1445
v -28.3828 32.4531 -11.9453
v -19.3555 35.5977 -24.9492
v -29.6992 22.0000 -2.0000
v -29.0547 28.0000 3.4375
v -30.8086 30.7031 -1.3945
v -28.3789 23.1367 -12.0039
v -26.1016 17.0000 -8.0000
v -27.8320 36.5859 7.1016
v -27.5820 40.4922 -1.5898
v -24.6250 37.2383 -17.0586
v 15.3984 51.7461 18.3906
v 7.5000 52.6016 20.8672
v 15.0000 51.0039 17.9883
v 18.5820 28.1641 7.1875
v 21.7500 29.6641 2.2656
v 24.7852 26.0000 10.0000
v 29.0078 28.0000 3.4375
v 0.0000 54.8125 23.3047
v 0.0000 53.0703 22.2539
v 8.1719 53.8828 21.6172
v 20.6484 48.3438 16.6211
v 17.7148 38.4883 10.0508
v 24.2773 38.0000 13.0000
v -24.2773 38.0000 13.0000
v -24.7852 26.0000 10.0000
v -20.6484 48.3438 16.6211
v -7.5000 52.6016 20.8672
v -8.1719 53.8828 21.6172
v -15.3984 51.7461 18.3906
v -29.0547 28.0000 3.4375
v -21.7969 29.6641 2.2656
v -24.7852 26.0000 10.0000
v -18.5938 28.1641 7.1875
v -15.0000 51.0039 17.9883
v -17.7266 38.4883 10.0508
v 24.7852 26.0000 10.0000
v -29.6992 22.0000 -2.0000
v -14.1094 16.8516 -11.5625
v -26.1016 17.0000 -8.0000
v -14.5000 9.4531 -16.9180
v 14.4023 9.4531 -16.9180
v 14.0234 16.8516 -11.5625
v -0.0469 7.0000 -20.0039
v 26.0039 17.0000 -8.0000
v 29.6016 22.0000 -2.0000
f 1 2 3
f 1 3 15
f 3 10 15
f 10 3 6
f 8 10 6
f 7 8 6
f 5 7 6
f 5 6 4
f 5 4 22
f 22 7 5
f 23 7 22
f 24 23 22
f 24 26 23
f 24 25 26
f 24 30 25
f 30 24 31
f 27 30 31
f 27 29 30
f 27 28 29
f 32 29 28
f 32 33 29
f 33 32 50
f 48 50 32
f 32 28 48
f 28 49 48
f 48 59 50
f 48 57 59
f 56 57 48
f 56 55 57
f 54 55 56
f 54 61 55
f 63 55 61
f 62 55 63
f 62 63 64
f 67 62 64
f 66 62 67
f 65 66 67
f 68 66 65
f 68 39 66
f 69 39 68
f 41 39 69
f 40 39 41
f 38 39 40
f 40 47 38
f 38 47 46
f 47 45 46
f 17 45 47
f 17 47 14
f 13 17 14
f 12 13 14
f 12 16 13
f 12 15 16
f 10 16 15
f 10 11 16
f 10 9 11
f 8 9 10
f 11 9 19
f 11 19 18
f 18 13 11
f 17 13 18
f 17 18 45
f 35 37 45
f 35 36 37
f 35 44 36
f 44 43 36
f 42 43 44
f 42 52 43
f 52 51 43
f 51 52 53
f 51 53 58
f 53 50 58
f 58 50 59
f 3 2 4
f 4 6 3
f 21 4 2
f 20 21 2
f 20 31 21
f 31 24 21
f 22 21 24
f 4 21 22
f 16 11 13
f 29 33 25
f 30 29 25
f 25 33 34
f 25 34 26
f 37 46 45
f 47 60 14
