v 33.7383 42.1484 1.6250
v 27.3555 47.3086 -4.1797
v 31.5195 29.5508 -3.2344
v 33.7383 42.1484 -16.4141
v 31.5195 29.5508 -11.5508
v 26.1445 47.3086 -10.6055
v 27.9297 36.1094 -7.3320
v 26.2891 22.6602 -7.3906
v 34.6211 27.9688 -7.3906
v 39.6484 39.8945 -3.1328
v 39.6484 39.8945 -11.6523
v 29.9219 54.3594 1.8008
v 28.9727 60.9375 -2.7773
v 37.4453 52.9492 -2.5039
v 28.9727 60.9648 -12.0625
v 37.4453 52.9492 -12.2812
v 29.9219 54.3594 -16.5898
v 11.7422 55.1719 -6.7031
v -33.7383 42.1484 1.6250
v -31.5195 29.5508 -3.2344
v -27.3555 47.3086 -4.1797
v -33.7383 42.1484 -16.4141
v -26.1445 47.3086 -10.6055
v -31.5195 29.5508 -11.5508
v -27.9297 36.1094 -7.3320
v -26.2891 22.6602 -7.3906
v -34.6211 27.9688 -7.3906
v -39.6484 39.8945 -3.1328
v -39.6484 39.8945 -11.6523
v -29.9219 54.3594 1.8008
v -28.9727 60.9375 -2.7773
v -37.4453 52.9492 -2.5039
v -28.9727 60.9648 -12.0625
v -37.4453 52.9492 -12.2812
v -29.9219 54.3594 -16.5898
v -11.7422 55.1719 -6.7031
v 10.5977 66.7461 5.8203
v 10.6172 67.4531 -6.3828
v 0.0000 68.4453 6.1172
v 0.0000 68.8633 -7.0000
v 0.0000 64.0000 -18.0000
v 18.7617 58.1797 -15.8359
v 10.0000 54.8320 -25.4961
v 0.0000 55.9336 -26.8086
v 18.6641 43.1172 -24.8984
v 10.3320 39.1250 -31.4492
v 18.6641 24.7188 -23.9453
v 10.6641 23.1875 -28.1484
v 19.9336 61.0859 4.2773
v 24.7227 28.5000 9.0000
v 26.2969 33.4336 0.0000
v 23.9453 46.2695 13.0000
v 25.6289 47.1211 -1.7656
v 25.4062 38.5391 -13.6328
v 0.0000 39.4180 -33.0664
v 0.0000 22.6602 -29.5977
v 0.0000 9.6289 -19.1055
v 18.6641 15.5547 -13.8867
v 24.7227 28.5000 9.0000
v 0.0000 52.2812 9.0586
v 26.2969 33.4336 0.0000
v -10.5977 66.7461 5.8203
v -10.6172 67.4531 -6.3828
v -10.0000 54.8320 -25.4961
v -18.7617 58.1797 -15.8359
v -10.3320 39.1250 -31.4492
v -18.6641 43.1172 -24.8984
v -18.6641 24.7188 -23.9453
v -10.6641 23.1875 -28.1484
v -19.9336 61.0859 4.2773
v -24.7227 28.5000 9.0000
v -23.9453 46.2695 13.0000
v -26.2969 33.4336 0.0000
v -25.6289 47.1211 -1.7656
v -25.4062 38.5391 -13.6328
v -18.6641 15.5547 -13.8867
v -24.7227 28.5000 9.0000
v 0.0000 52.2812 9.0586
v -26.2969 33.4336 0.0000
v 7.2617 60.8789 18.2852
v 18.0234 57.7852 14.8438
v 7.0273 64.0508 15.2969
v 0.0000 62.8008 14.6680
v 0.0000 58.6562 18.5508
v 16.3945 53.3242 15.8867
v -18.0234 57.7852 14.8438
v -7.2617 60.8789 18.2852
v -7.0273 64.0508 15.2969
v -16.3945 53.3242 15.8867
v -9.5820 57.1719 17.5156
v 9.5820 57.1719 17.5156
f 1 2 3
f 3 10 1
f 9 10 3
f 9 11 10
f 5 11 9
f 4 11 5
f 4 5 6
f 17 4 6
f 18 17 6
f 17 18 15
f 17 15 16
f 17 16 4
f 4 16 11
f 16 14 11
f 15 14 16
f 13 14 15
f 13 12 14
f 18 12 13
f 12 18 2
f 12 2 1
f 12 1 14
f 14 1 10
f 11 14 10
f 6 5 7
f 7 2 6
f 2 7 3
f 3 7 8
f 9 3 8
f 5 9 8
f 7 5 8
f 18 13 15
f 19 20 21
f 20 19 28
f 27 20 28
f 27 28 29
f 24 27 29
f 22 24 29
f 22 23 24
f 35 23 22
f 36 23 35
f 35 33 36
f 35 34 33
f 35 22 34
f 22 29 34
f 34 29 32
f 33 34 32
f 31 33 32
f 31 32 30
f 36 31 30
f 30 21 36
f 30 19 21
f 30 32 19
f 32 28 19
f 29 28 32
f 23 25 24
f 25 23 21
f 21 20 25
f 20 26 25
f 27 26 20
f 24 26 27
f 25 26 24
f 36 33 31
f 37 38 39
f 38 37 49
f 42 38 49
f 38 42 41
f 40 38 41
f 39 38 40
f 39 40 63
f 62 39 63
f 63 70 62
f 65 70 63
f 41 65 63
f 64 65 41
f 44 64 41
f 41 43 44
f 41 42 43
f 43 42 45
f 43 45 46
f 55 43 46
f 44 43 55
f 44 55 64
f 55 66 64
f 55 56 66
f 55 46 56
f 56 46 48
f 57 56 48
f 57 48 58
f 58 48 47
f 47 54 58
f 45 54 47
f 45 47 46
f 47 48 46
f 50 51 52
f 52 51 53
f 52 53 49
f 81 52 49
f 85 52 81
f 85 60 52
f 59 52 60
f 61 59 60
f 42 54 45
f 54 42 53
f 51 54 53
f 51 58 54
f 53 42 49
f 49 37 81
f 37 82 81
f 37 39 82
f 39 83 82
f 39 88 83
f 39 62 88
f 62 86 88
f 70 86 62
f 72 86 70
f 72 70 74
f 72 74 73
f 71 72 73
f 77 78 72
f 79 78 77
f 89 72 78
f 86 72 89
f 90 86 89
f 87 86 90
f 86 87 88
f 88 87 83
f 83 87 84
f 80 83 84
f 83 80 82
f 80 81 82
f 80 91 81
f 80 84 91
f 84 87 90
f 64 66 67
f 64 67 65
f 65 67 75
f 75 74 65
f 73 74 75
f 73 75 76
f 68 76 75
f 67 68 75
f 67 66 68
f 68 66 69
f 76 68 69
f 57 76 69
f 57 69 56
f 56 69 66
f 74 70 65
f 81 91 85
f 63 40 41
