v 26.6719 36.7266 9.1758
v 23.1875 31.4648 16.6719
v 28.5312 27.0000 3.0000
v 16.2656 54.7539 16.4648
v 0.0000 60.2422 19.5156
v 5.3125 50.8750 23.9141
v 27.5820 40.4922 -1.5898
v 22.1367 46.2617 15.6406
v 23.1875 31.4648 16.6719
v 0.0000 55.6719 -7.0000
v 28.5312 27.0000 3.0000
v 0.0000 22.0156 -31.3750
v 11.3047 22.5742 -29.8398
v 0.0000 9.6289 -19.1055
v 18.6641 15.5547 -13.8867
v 19.7852 24.1953 -25.3828
v 11.3984 34.1562 -31.6953
v 0.0000 33.5469 -34.3477
v 19.3555 35.5977 -24.9492
v 27.8086 26.2969 -11.8125
v 13.3672 40.1055 24.8750
v 5.3125 50.8750 23.9141
v 19.8594 -4.7344 -10.4922
v 21.9258 3.5781 -4.7422
v 29.0547 4.5273 -3.6484
v 21.9648 -5.2500 -4.2852
v 26.6211 4.2656 3.1953
v 17.0000 -5.4688 -3.1094
v 19.8594 -4.7344 -10.4922
v 23.6172 -17.1250 -1.9453
v 21.9648 -5.2500 -4.2852
v 23.6172 -17.1250 -1.9453
v 21.9258 3.5781 -4.7422
v 26.6211 4.2656 3.1953
v 26.0391 14.6250 0.1797
v 26.0391 14.6250 0.1797
v 27.8203 15.3281 -5.3828
v 0.0000 29.4062 -4.9805
v 28.3789 21.2656 4.2109
v 18.6641 15.5547 -13.8867
v 13.3672 40.1055 24.8750
v 0.0000 60.2422 19.5156
v 28.3789 21.2656 4.2109
v 24.6250 37.2383 -17.0586
v -28.5312 27.0000 3.0000
v -23.1875 31.4648 16.6719
v -26.6719 36.7266 9.1758
v -5.3125 50.8750 23.9141
v 0.0000 60.2422 19.5156
v -16.2656 54.7539 16.4648
v -11.3047 22.5742 -29.8398
v -11.3984 34.1562 -31.6953
v -19.7852 24.1953 -25.3828
v -19.3555 35.5977 -24.9492
v -18.6641 15.5547 -13.8867
v -27.8086 26.2969 -11.8125
v -24.6250 37.2383 -17.0586
v -5.3125 50.8750 23.9141
v -13.3672 40.1055 24.8750
v -19.8594 -4.7344 -10.4922
v -29.0547 4.5273 -3.6484
v -21.9258 3.5781 -4.7422
v -21.9648 -5.2500 -4.2852
v -26.6211 4.2656 3.1953
v -17.0000 -5.4688 -3.1094
v -23.6172 -17.1250 -1.9453
v -19.8594 -4.7344 -10.4922
v -21.9648 -5.2500 -4.2852
v -23.6172 -17.1250 -1.9453
v -26.0391 14.6250 0.1797
v -21.9258 3.5781 -4.7422
v -18.6641 15.5547 -13.8867
v -26.0391 14.6250 0.1797
v -27.8203 15.3281 -5.3828
v -26.6211 4.2656 3.1953
v -28.3789 21.2656 4.2109
v -13.3672 40.1055 24.8750
v -22.1367 46.2617 15.6406
v -23.1875 31.4648 16.6719
v -28.5312 27.0000 3.0000
v -28.3789 21.2656 4.2109
v -27.5820 40.4922 -1.5898
f 1 2 3
f 8 2 1
f 1 7 8
f 1 3 7
f 20 7 3
f 20 3 43
f 20 43 37
f 15 20 37
f 16 20 15
f 15 13 16
f 14 13 15
f 12 13 14
f 13 12 17
f 13 17 16
f 16 17 19
f 16 19 20
f 19 44 20
f 7 20 44
f 4 5 6
f 41 4 6
f 8 4 41
f 8 41 2
f 9 10 11
f 9 21 10
f 10 21 22
f 10 22 42
f 10 42 58
f 10 58 59
f 79 10 59
f 10 79 80
f 10 80 38
f 10 38 11
f 11 38 39
f 39 38 35
f 40 35 38
f 33 35 40
f 33 34 35
f 28 34 33
f 34 28 31
f 31 28 30
f 28 29 30
f 28 33 29
f 12 18 17
f 12 52 18
f 51 52 12
f 12 14 51
f 14 55 51
f 51 55 53
f 51 53 52
f 52 53 54
f 54 53 56
f 54 56 57
f 56 82 57
f 45 82 56
f 76 45 56
f 76 56 74
f 73 76 74
f 61 73 74
f 64 73 61
f 63 64 61
f 63 61 60
f 60 69 63
f 60 61 62
f 61 55 62
f 55 61 74
f 55 74 56
f 53 55 56
f 23 24 25
f 26 23 25
f 26 25 27
f 27 25 36
f 25 37 36
f 15 37 25
f 15 25 24
f 23 26 32
f 45 46 47
f 45 47 82
f 78 82 47
f 46 78 47
f 46 77 78
f 78 77 50
f 50 77 48
f 48 49 50
f 65 66 67
f 68 66 65
f 75 68 65
f 65 71 75
f 65 67 71
f 70 71 72
f 72 38 70
f 38 81 70
f 80 81 38
f 70 75 71
f 36 37 43
