v 29.5117 33.0000 -9.0000
v 27.9883 43.9102 -8.0000
v 30.1758 35.0820 5.1953
v 10.5977 63.9922 -17.6406
v 0.0000 65.5625 -18.5469
v 10.5977 67.4883 -6.0039
v 0.0000 69.2383 -6.3125
v 0.0000 69.2031 5.6367
v 10.4023 67.5195 5.3398
v 10.5977 56.1133 -27.0273
v 18.7617 58.1797 -15.8359
v 22.0859 43.7852 -22.3398
v 20.1016 61.0859 2.7734
v 10.5977 45.5039 -33.1562
v 0.0000 46.1250 -34.8594
v 0.0000 57.2812 -28.4180
v 25.4375 53.1367 3.3516
v 31.3281 4.2070 -3.4609
v 28.7773 20.0000 -7.0000
v 28.2773 24.0000 6.0000
v 25.5664 17.0000 -16.0000
v 23.5469 33.1992 -22.8164
v 23.2070 -0.8281 -19.7617
v 23.8008 9.5586 -12.8320
v 9.2812 5.8984 -25.5977
v 10.4102 17.5078 -28.7070
v 19.9414 17.5625 -24.3789
v 11.3047 33.4336 -33.5195
v 0.0000 -3.4531 -33.1250
v 0.0000 17.5625 -32.0000
v 0.0000 33.4336 -35.2422
v 31.3281 4.2070 -3.4609
v 16.5000 13.0156 -9.6680
v 23.8008 9.5586 -12.8320
v 23.2070 -0.8281 -19.7617
v 10.5938 60.2344 23.2539
v 0.0000 65.6719 17.6680
v 0.0000 60.8242 25.7109
v 7.2070 50.8633 29.9961
v 0.0000 51.8281 31.3906
v 25.2812 38.2031 16.4453
v 27.5000 25.6445 12.0000
v 17.3242 54.3711 24.3711
v 25.8359 45.0820 15.5430
v 23.4180 27.0000 17.1484
v 21.4062 17.1523 18.3477
v 20.4805 39.2891 21.9258
v 11.2031 45.8320 29.3906
v 15.4766 41.9336 26.2266
v 20.4805 39.2891 21.9258
v 15.4766 41.9336 26.2266
v 0.0000 62.0000 10.0273
v 10.3164 36.0000 26.2266
v 28.2773 24.0000 6.0000
v -29.5117 33.0000 -9.0000
v -30.1758 35.0820 5.1953
v -27.9883 43.9102 -8.0000
v -10.5977 63.9922 -17.6406
v -10.5977 67.4883 -6.0039
v -10.4023 67.5195 5.3398
v -10.5977 56.1133 -27.0273
v -22.0859 43.7852 -22.3398
v -18.7617 58.1797 -15.8359
v -20.1016 61.0859 2.7734
v -25.4375 53.1367 3.3516
v -10.5977 45.5039 -33.1562
v -31.3281 4.2070 -3.4609
v -28.7773 20.0000 -7.0000
v -25.5664 17.0000 -16.0000
v -23.5469 33.1992 -22.8164
v -23.2070 -0.8281 -19.7617
v -23.8008 9.5586 -12.8320
v -10.4102 17.5078 -28.7070
v -19.9414 17.5625 -24.3789
v -11.3047 33.4336 -33.5195
v -9.2812 5.8984 -25.5977
v -23.2070 -0.8281 -19.7617
v -9.2812 5.8984 -25.5977
v -16.5000 13.0156 -9.6680
v -31.3281 4.2070 -3.4609
v -23.8008 9.5586 -12.8320
v -25.8359 45.0820 15.5430
v -28.2773 24.0000 6.0000
v -10.5938 60.2344 23.2539
v -25.2812 38.2031 16.4453
v -27.5000 25.6445 12.0000
v -17.3242 54.3711 24.3711
v -21.4062 17.1523 18.3477
v -23.4180 27.0000 17.1484
v -11.2031 45.8320 29.3906
v -15.4766 41.9336 26.2266
v -20.4805 39.2891 21.9258
v -20.4805 39.2891 21.9258
v -25.2812 38.2031 16.4453
v -21.4062 17.1523 18.3477
v -16.4258 26.7891 16.2773
v -23.4180 27.0000 17.1484
v 0.0000 62.0000 10.0273
v -25.2812 38.2031 16.4453
v -28.2773 24.0000 6.0000
v -23.3477 30.3477 6.6836
v -7.2070 50.8633 29.9961
v -15.4766 41.9336 26.2266
v -10.3164 36.0000 26.2266
v 0.0000 36.0000 27.9766
v 5.1562 41.9336 27.4766
v 0.0000 44.0820 31.8906
v -10.3164 36.0000 26.2266
v -5.1562 41.9336 27.4766
v 10.3164 36.0000 26.2266
v -5.1562 41.9336 27.4766
v 0.0000 36.0000 27.9766
v 5.1562 41.9336 27.4766
v 0.0000 -3.4531 -33.1250
v 9.2812 5.8984 -25.5977
v 23.3477 30.3477 6.6836
v 21.4062 17.1523 18.3477
v 16.4258 26.7891 16.2773
v 23.4180 27.0000 17.1484
v 0.0000 62.0000 10.0273
v 25.2812 38.2031 16.4453
v 25.2812 38.2031 16.4453
f 1 2 3
f 4 5 6
f 5 7 6
f 8 9 7
f 7 9 6
f 10 11 12
f 6 13 11
f 2 12 11
f 14 15 10
f 15 16 10
f 14 10 12
f 5 4 16
f 16 4 10
f 10 4 11
f 4 6 11
f 6 9 13
f 13 17 11
f 2 11 17
f 18 19 20
f 18 21 19
f 2 1 12
f 1 22 12
f 23 21 24
f 23 25 26
f 21 27 22
f 26 28 27
f 27 28 22
f 12 22 14
f 14 22 28
f 29 30 26
f 26 30 28
f 31 28 30
f 28 31 14
f 32 33 34
f 35 34 33
f 20 19 3
f 3 19 1
f 21 22 19
f 19 22 1
f 29 26 25
f 23 26 27
f 24 21 18
f 23 27 21
f 36 9 37
f 9 8 37
f 36 38 39
f 39 38 40
f 41 42 3
f 43 44 17
f 13 43 17
f 42 45 46
f 43 13 36
f 36 13 9
f 38 36 37
f 47 44 43
f 20 42 46
f 42 20 3
f 44 3 17
f 17 3 2
f 41 44 47
f 45 42 41
f 48 49 43
f 50 51 52
f 52 51 53
f 33 32 54
f 47 43 49
f 3 44 41
f 55 56 57
f 58 59 5
f 5 59 7
f 8 7 60
f 7 59 60
f 61 62 63
f 59 63 64
f 63 57 65
f 16 15 61
f 61 15 66
f 66 62 61
f 5 16 58
f 16 61 58
f 61 63 58
f 58 63 59
f 59 64 60
f 64 63 65
f 63 62 57
f 67 68 69
f 70 55 62
f 62 55 57
f 71 72 69
f 73 71 74
f 69 70 74
f 70 75 74
f 75 73 74
f 75 70 66
f 70 62 66
f 73 29 76
f 73 75 30
f 31 30 75
f 75 66 31
f 66 15 31
f 77 78 79
f 80 81 79
f 77 79 81
f 57 56 65
f 65 56 82
f 55 68 56
f 56 68 83
f 69 68 70
f 68 55 70
f 73 30 29
f 73 76 71
f 72 67 69
f 71 69 74
f 8 60 37
f 37 60 84
f 85 56 86
f 64 65 87
f 86 88 89
f 65 82 87
f 38 37 84
f 90 87 91
f 60 64 84
f 84 64 87
f 83 88 86
f 85 92 82
f 89 85 86
f 83 86 56
f 87 92 91
f 93 94 52
f 95 96 97
f 98 99 96
f 96 99 97
f 100 79 101
f 101 96 100
f 100 96 95
f 79 100 80
f 67 83 68
f 90 102 87
f 87 102 84
f 93 52 103
f 103 52 104
f 87 82 92
f 56 85 82
f 84 102 38
f 38 102 40
f 105 106 107
f 107 106 39
f 106 48 39
f 107 39 40
f 108 109 90
f 90 109 102
f 102 109 107
f 102 107 40
f 108 90 91
f 48 110 49
f 105 107 109
f 110 48 106
f 104 52 111
f 111 52 112
f 112 52 113
f 113 52 53
f 48 43 39
f 43 36 39
f 14 31 15
f 114 115 78
f 78 115 79
f 79 115 33
f 35 33 115
f 33 54 116
f 117 118 54
f 54 118 116
f 117 119 118
f 120 118 121
f 121 118 119
f 50 52 122
