v 0.0000 62.0156 -22.7773
v 14.6797 59.3984 -18.7500
v 0.0000 50.9062 -32.1016
v 19.7852 43.6992 -26.3945
v 11.1016 36.8828 -33.4141
v -11.1016 36.8828 -33.4141
v 0.0000 21.4180 -33.7422
v 28.1602 -8.0039 4.6953
v 25.9492 -16.1641 -11.4883
v 33.9922 -8.4375 -11.0000
v 18.4141 -10.4883 -23.3242
v 9.2070 -18.0000 -26.9062
v 13.8242 -10.3750 -37.5078
v 10.2930 21.9375 -32.2188
v 19.9180 22.2227 -25.5977
v 21.2227 11.3828 -25.2812
v 25.9492 -16.1641 -11.4883
v 18.4141 -10.4883 -23.3242
v 33.9922 -8.4375 -11.0000
v 13.7891 8.1602 -37.9648
v 25.9492 -16.1641 -11.4883
v 28.1602 -8.0039 4.6953
v 19.3398 -9.3789 3.3203
v 28.1680 0.8320 -11.4883
v 32.2188 8.5000 -11.0000
v 27.1445 12.2383 3.7188
v 25.4375 54.0000 -4.0000
v 10.5977 66.4883 -9.3281
v 19.4883 60.5312 9.9336
v 26.0000 47.0000 22.0000
v 28.0898 51.0000 10.0000
v 16.5000 58.3789 23.6133
v 0.0000 68.1875 -9.8086
v 10.5977 67.0000 6.0000
v 8.3164 48.2188 0.6016
v 27.1719 29.9297 10.5547
v 22.8789 35.0000 22.7305
v 30.7578 38.0000 16.0000
v 26.7578 43.5547 -8.6289
v 16.1953 53.0000 28.4648
v 11.5000 62.6016 23.6289
v -10.5977 67.0000 6.0000
v -3.8984 62.5781 26.4922
v 22.8789 35.0000 22.7305
v 21.2227 11.3828 -25.2812
v 32.2188 8.5000 -11.0000
v 28.1680 0.8320 -11.4883
v 11.1562 -1.0469 -32.8750
v 24.2930 22.2578 -11.4883
v 32.5820 22.3555 2.0273
v 13.8242 -10.3750 -37.5078
v 9.2070 -18.0000 -26.9062
v 0.0000 -13.1758 -30.4102
v 13.7891 8.1602 -37.9648
v 11.1562 -1.0469 -32.8750
v 0.0000 9.3203 -31.4844
v 24.1797 1.6406 0.3711
v 24.1797 1.6406 0.3711
v 24.6836 0.1797 -26.3594
v 24.6836 0.1797 -26.3594
v 0.0000 -2.4648 -39.7969
v 10.7344 50.5078 28.7031
v -0.4570 55.2422 32.3984
v 16.5000 58.3789 23.6133
v 11.5000 62.6016 23.6289
v -8.3164 48.2188 0.6016
v 10.7344 50.5078 28.7031
v 0.0000 -10.9258 -21.0273
v 18.6641 15.5547 -13.8867
v -18.6641 15.5547 -13.8867
v 9.2070 -18.0000 -26.9062
v 18.4141 -10.4883 -23.3242
v 0.0000 -13.1758 -30.4102
v 23.1367 43.0000 29.7070
v 23.1367 43.0000 29.7070
v 27.1719 29.9297 10.5547
v 29.0430 32.5039 -0.4297
v 27.1445 12.2383 3.7188
v 32.5820 22.3555 2.0273
v -10.5977 66.4883 -9.3281
v -14.6797 59.3984 -18.7500
v -25.4375 54.0000 -4.0000
v -19.7852 43.6992 -26.3945
v -28.1602 -8.0039 4.6953
v -33.9922 -8.4375 -11.0000
v -25.9492 -16.1641 -11.4883
v -18.4141 -10.4883 -23.3242
v -13.8242 -10.3750 -37.5078
v -9.2070 -18.0000 -26.9062
v -10.2930 21.9375 -32.2188
v -21.2227 11.3828 -25.2812
v -19.9180 22.2227 -25.5977
v -25.9492 -16.1641 -11.4883
v -33.9922 -8.4375 -11.0000
v -18.4141 -10.4883 -23.3242
v -13.7891 8.1602 -37.9648
v -19.3398 -9.3789 3.3203
v -18.4141 -10.4883 -23.3242
v -25.9492 -16.1641 -11.4883
v -28.1602 -8.0039 4.6953
v -28.1680 0.8320 -11.4883
v -27.1445 12.2383 3.7188
v -32.2188 8.5000 -11.0000
v -19.4883 60.5312 9.9336
v -26.7578 43.5547 -8.6289
v -28.0898 51.0000 10.0000
v -21.2227 11.3828 -25.2812
v -28.1680 0.8320 -11.4883
v -32.2188 8.5000 -11.0000
v -11.1562 -1.0469 -32.8750
v -29.0430 32.5039 -0.4297
v -24.2930 22.2578 -11.4883
v -32.5820 22.3555 2.0273
v -27.1719 29.9297 10.5547
v -13.8242 -10.3750 -37.5078
v 0.0000 -13.1758 -30.4102
v -9.2070 -18.0000 -26.9062
v -13.7891 8.1602 -37.9648
v 0.0000 9.3203 -31.4844
v -11.1562 -1.0469 -32.8750
v -24.1797 1.6406 0.3711
v -24.1797 1.6406 0.3711
v -24.6836 0.1797 -26.3594
v -24.6836 0.1797 -26.3594
v 0.0000 -2.4648 -39.7969
v -19.0000 56.0000 26.0000
v -14.9883 45.5352 32.1367
v -9.2070 -18.0000 -26.9062
v -28.3789 42.5000 19.0000
v -27.1445 12.2383 3.7188
v -27.1719 29.9297 10.5547
v -32.5820 22.3555 2.0273
v -14.8086 33.4453 28.2461
v -22.8789 33.0000 19.7305
v -9.9062 39.9375 28.5156
v -0.8945 40.1719 31.9766
v 2.8516 48.4609 28.7461
v 2.8516 48.4609 28.7461
v -0.8945 40.1719 31.9766
v -22.8789 33.0000 19.7305
v -14.8086 33.4453 28.2461
v -9.9062 39.9375 28.5156
v 16.1953 53.0000 28.4648
f 1 2 3
f 3 81 1
f 83 81 3
f 83 3 6
f 6 92 83
f 6 90 92
f 90 6 7
f 90 7 119
f 118 90 119
f 118 119 120
f 119 125 120
f 125 116 120
f 116 115 120
f 115 116 117
f 3 2 4
f 3 4 5
f 3 5 6
f 5 7 6
f 14 7 5
f 7 14 56
f 56 14 54
f 54 55 56
f 56 55 61
f 61 55 53
f 53 55 51
f 51 52 53
f 8 9 10
f 10 24 8
f 8 24 58
f 24 26 58
f 24 25 26
f 25 49 26
f 26 49 50
f 50 49 77
f 77 76 50
f 76 77 39
f 38 76 39
f 38 39 31
f 31 30 38
f 30 31 32
f 30 32 40
f 30 40 74
f 44 30 74
f 44 38 30
f 44 76 38
f 11 12 13
f 11 13 48
f 11 48 60
f 60 48 16
f 16 48 20
f 16 20 14
f 14 15 16
f 5 15 14
f 5 4 15
f 15 4 49
f 45 15 49
f 45 49 46
f 45 46 47
f 45 47 59
f 59 47 18
f 18 47 19
f 17 18 19
f 21 22 23
f 23 72 21
f 69 72 23
f 68 72 69
f 68 69 70
f 70 98 68
f 70 97 98
f 121 97 70
f 121 100 97
f 99 97 100
f 98 97 99
f 68 98 128
f 73 68 128
f 73 71 68
f 71 72 68
f 2 27 4
f 28 27 2
f 28 29 27
f 34 29 28
f 33 34 28
f 33 42 34
f 33 80 42
f 1 80 33
f 81 80 1
f 80 81 82
f 80 82 104
f 42 80 104
f 104 126 42
f 126 104 106
f 126 106 129
f 126 129 127
f 127 63 126
f 136 63 127
f 136 127 135
f 127 133 135
f 133 127 134
f 134 127 129
f 114 134 129
f 129 111 114
f 106 111 129
f 106 105 111
f 105 106 82
f 82 83 105
f 82 81 83
f 82 106 104
f 32 31 29
f 32 29 41
f 41 29 34
f 34 43 41
f 42 43 34
f 42 126 43
f 126 63 43
f 41 43 63
f 62 41 63
f 137 62 63
f 137 63 136
f 27 29 31
f 39 27 31
f 4 27 39
f 49 4 39
f 49 39 77
f 35 36 37
f 75 35 37
f 75 143 35
f 35 143 64
f 64 66 35
f 64 65 66
f 65 67 66
f 67 138 66
f 138 139 66
f 142 66 139
f 141 66 142
f 140 66 141
f 140 131 66
f 131 132 66
f 66 132 130
f 70 66 130
f 130 121 70
f 57 23 22
f 57 69 23
f 57 78 69
f 69 78 35
f 35 78 79
f 36 35 79
f 84 85 86
f 85 84 101
f 84 122 101
f 101 122 102
f 101 102 103
f 103 102 112
f 112 102 113
f 112 113 111
f 105 112 111
f 83 112 105
f 92 112 83
f 107 112 92
f 107 109 112
f 107 108 109
f 107 123 108
f 123 95 108
f 95 94 108
f 93 94 95
f 87 88 89
f 87 110 88
f 87 124 110
f 124 91 110
f 91 96 110
f 91 90 96
f 90 91 92
f 113 114 111
f 33 28 1
f 1 28 2
