v 0.0000 22.6602 -29.5977
v 10.6641 23.1875 -28.1484
v 0.0000 9.6289 -19.1055
v 18.6641 15.5547 -13.8867
v 18.6641 24.7188 -23.9453
v 10.6641 33.4336 -31.6211
v 0.0000 33.4336 -33.2500
v 18.6641 43.1172 -24.8984
v 24.6484 33.4336 -15.0938
v 26.2969 33.4336 0.0000
v 24.0000 43.6484 -12.1719
v 26.2969 42.3867 -1.3477
v 26.2969 42.3867 -1.3477
v 24.0000 33.4336 9.0273
v 26.2969 33.4336 0.0000
v 24.0000 46.2188 9.0273
v -10.6641 23.1875 -28.1484
v -18.6641 24.7188 -23.9453
v -18.6641 15.5547 -13.8867
v -10.6641 33.4336 -31.6211
v -18.6641 43.1172 -24.8984
v -21.6562 38.2773 -19.9961
v -24.0000 43.6484 -12.1719
v -24.6484 33.4336 -15.0938
v -26.2969 33.4336 0.0000
v -26.2969 42.3867 -1.3477
v -26.2969 42.3867 -1.3477
v -26.2969 33.4336 0.0000
v -24.0000 33.4336 9.0273
v -24.0000 46.2188 9.0273
f 1 2 3
f 1 3 17
f 20 1 17
f 7 1 20
f 6 1 7
f 2 1 6
f 2 6 5
f 4 2 5
f 3 2 4
f 19 17 3
f 18 17 19
f 18 19 24
f 22 18 24
f 23 22 24
f 21 22 23
f 21 18 22
f 20 18 21
f 17 18 20
f 6 8 5
f 8 9 5
f 8 11 9
f 11 12 9
f 9 12 10
f 4 9 10
f 5 9 4
f 13 14 15
f 16 14 13
f 24 19 25
f 24 25 26
f 23 24 26
f 27 28 29
f 30 27 29
