v 0.0000 26.4258 -36.6133
v 0.0000 33.9922 -32.5820
v 11.6758 35.5430 -29.8750
v 19.7734 36.1016 -23.9727
v 25.3633 37.6836 -16.1797
v 22.0156 26.5312 -27.0625
v 28.6602 23.2383 -16.8438
v 30.0469 28.4844 -2.0000
v 25.4062 42.3594 1.3203
v 29.8438 14.0508 -8.6250
v 18.1367 23.4453 0.7422
v 9.0664 13.0703 -12.8789
v 16.5156 5.6289 -21.6641
v 0.0000 2.6992 -26.5000
v 29.8438 14.0508 -8.6250
v 32.9961 23.0859 3.2031
v 27.9336 18.0859 6.3516
v 29.8438 14.0508 -8.6250
v 25.4062 42.3594 1.3203
v 30.0469 28.4844 -2.0000
v 21.3125 41.5820 19.8164
v 18.1172 39.7031 23.4062
v 27.8633 32.4688 17.5625
v 21.8906 28.0820 19.5742
v 29.8203 34.8633 10.9805
v 18.1172 39.7031 23.4062
v 18.1250 31.5742 12.0742
v 21.8906 28.0820 19.5742
v 27.9336 18.0859 6.3516
v 22.3633 16.6484 -28.1758
v 16.5156 5.6289 -21.6641
v 11.1406 7.5586 -33.0859
v 0.0000 7.5547 -34.8672
v 0.0000 2.6992 -26.5000
v 23.2500 43.5000 12.7969
v 15.4961 50.8672 20.4023
v 18.5703 49.3945 17.3438
v 11.9961 16.5586 -36.5586
v 11.5430 26.4453 -34.2891
v 0.0000 16.5391 -38.4609
v -22.0156 26.5312 -27.0625
v -19.7734 36.1016 -23.9727
v -11.5430 26.4453 -34.2891
v -28.6602 23.2383 -16.8438
v -25.3633 37.6836 -16.1797
v -30.0469 28.4844 -2.0000
v -25.4062 42.3594 1.3203
v -29.8438 14.0508 -8.6250
v -18.1367 23.4453 0.7422
v -16.5156 5.6289 -21.6641
v -9.0664 13.0703 -12.8789
v -29.8438 14.0508 -8.6250
v -32.9961 23.0859 3.2031
v -29.8438 14.0508 -8.6250
v -27.9336 18.0859 6.3516
v -25.4062 42.3594 1.3203
v -30.0469 28.4844 -2.0000
v -21.8906 28.0820 19.5742
v -18.1172 39.7031 23.4062
v -27.8633 32.4688 17.5625
v -21.3125 41.5820 19.8164
v -23.2227 43.5469 12.7578
v -29.8203 34.8633 10.9805
v -18.1172 39.7031 23.4062
v -21.8906 28.0820 19.5742
v -18.1250 31.5742 12.0742
v -27.9336 18.0859 6.3516
v -16.5156 5.6289 -21.6641
v -22.3633 16.6484 -28.1758
v -11.1406 7.5586 -33.0859
v -8.8828 58.4219 18.8125
v -15.4961 50.8672 20.4023
v -12.5469 40.9336 11.7383
v -15.4961 50.8672 20.4023
v -18.5703 49.3945 17.3438
v -11.9961 16.5586 -36.5586
v -11.6758 35.5430 -29.8750
v 8.8828 58.4219 18.8125
v 12.5508 40.9336 11.7422
v 15.4961 50.8672 20.4023
f 1 2 3
f 39 1 3
f 39 38 1
f 6 38 39
f 30 38 6
f 6 7 30
f 6 5 7
f 4 5 6
f 4 6 39
f 3 4 39
f 8 7 5
f 8 5 9
f 8 10 7
f 7 10 30
f 30 10 31
f 31 32 30
f 34 32 31
f 33 32 34
f 33 40 32
f 33 70 40
f 33 34 70
f 34 68 70
f 69 70 68
f 68 48 69
f 48 44 69
f 46 44 48
f 46 45 44
f 46 47 45
f 44 45 41
f 41 69 44
f 76 69 41
f 43 76 41
f 41 42 43
f 45 42 41
f 43 42 77
f 43 77 1
f 43 1 76
f 76 1 40
f 40 70 76
f 76 70 69
f 11 12 13
f 11 13 15
f 29 11 15
f 28 11 29
f 28 27 11
f 26 27 28
f 79 27 26
f 80 79 26
f 78 79 80
f 14 13 12
f 51 14 12
f 14 51 50
f 49 50 51
f 49 52 50
f 67 52 49
f 65 67 49
f 66 65 49
f 64 65 66
f 64 66 73
f 72 64 73
f 71 72 73
f 16 17 18
f 20 16 18
f 19 16 20
f 19 25 16
f 19 35 25
f 21 25 35
f 23 25 21
f 21 22 23
f 36 22 21
f 36 21 37
f 35 37 21
f 24 23 22
f 24 17 23
f 23 17 16
f 23 16 25
f 38 40 1
f 40 38 32
f 38 30 32
f 53 54 55
f 57 54 53
f 56 57 53
f 56 53 63
f 62 56 63
f 62 63 61
f 62 61 75
f 61 74 75
f 61 59 74
f 61 60 59
f 63 60 61
f 63 53 60
f 60 53 55
f 58 60 55
f 58 59 60
f 2 1 77
