v 0.0000 54.6914 22.9727
v 10.3984 42.6641 25.6484
v 10.3984 54.1953 20.7305
v 0.0000 42.6641 27.2031
v 20.0977 42.6641 19.7227
v 17.3594 49.9180 17.8359
v 0.0000 42.6641 27.2031
v 0.0000 42.6641 -2.0000
v 10.3984 42.6641 25.6484
v 31.3672 -10.0000 9.3320
v 21.4609 20.0508 -5.3750
v 33.1680 -10.0000 -4.0000
v 30.6992 -10.0000 -16.1055
v 26.2422 33.6914 -16.1055
v 29.3984 33.6914 -4.0000
v 29.2578 12.5000 -16.1055
v 32.0078 12.5000 -4.0195
v 22.0078 12.5000 -27.5625
v 11.6133 12.5000 -35.1172
v 19.3555 35.5977 -24.9492
v 11.3984 30.8984 -31.7227
v 11.3984 34.1562 -31.6953
v 33.1680 -10.0000 -4.0000
v 30.6992 -10.0000 -16.1055
v 30.7227 12.5000 9.3125
v 12.2656 -10.0000 -36.6875
v 0.0000 12.5000 -37.5469
v 0.0000 -10.0000 -39.2305
v 22.8555 -10.0000 -28.4062
v 22.8555 -10.0000 -28.4062
v 12.2656 -10.0000 -36.6875
v 0.0000 -10.0000 -39.2305
v 25.2852 42.7812 9.2344
v 27.7969 33.6914 9.3320
v 20.0977 42.6641 19.7227
v 25.2852 42.7812 9.2344
v 30.7227 12.5000 9.3125
v 27.7969 33.6914 9.3320
v 31.3672 -10.0000 9.3320
v 25.2852 42.7812 9.2344
v 24.6250 37.2383 -17.0586
v 27.5820 40.4922 -1.5898
v -10.3984 54.1953 20.7305
v -10.3984 42.6641 25.6484
v -20.0977 42.6641 19.7227
v -17.3594 49.9180 17.8359
v -29.3984 33.6914 -4.0000
v -27.5820 40.4922 -1.5898
v -26.2422 33.6914 -16.1055
v -24.6250 37.2383 -17.0586
v -10.3984 42.6641 25.6484
v -31.3672 -10.0000 9.3320
v -33.1680 -10.0000 -4.0000
v -21.4609 20.0508 -5.3750
v -30.6992 -10.0000 -16.1055
v -29.2578 12.5000 -16.1055
v -32.0078 12.5000 -4.0195
v -22.0078 12.5000 -27.5625
v -19.3555 35.5977 -24.9492
v -11.6133 12.5000 -35.1172
v -11.3984 30.8984 -31.7227
v -11.3984 34.1562 -31.6953
v -33.1680 -10.0000 -4.0000
v -30.6992 -10.0000 -16.1055
v -30.7227 12.5000 9.3125
v -12.2656 -10.0000 -36.6875
v -22.8555 -10.0000 -28.4062
v -22.8555 -10.0000 -28.4062
v -12.2656 -10.0000 -36.6875
v -25.2852 42.7812 9.2344
v -27.7969 33.6914 9.3320
v -20.0977 42.6641 19.7227
v -25.2852 42.7812 9.2344
v -27.7969 33.6914 9.3320
v -30.7227 12.5000 9.3125
v -31.3672 -10.0000 9.3320
v -25.2852 42.7812 9.2344
v 0.0000 30.4375 -34.3086
v 0.0000 33.5469 -34.3477
f 1 2 3
f 1 4 2
f 1 44 4
f 1 43 44
f 43 45 44
f 45 43 46
f 73 45 46
f 5 6 3
f 5 3 2
f 36 6 5
f 7 8 9
f 7 51 8
f 8 51 72
f 8 72 70
f 8 70 54
f 70 71 54
f 71 65 54
f 52 54 65
f 52 53 54
f 55 54 53
f 55 68 54
f 68 69 54
f 69 32 54
f 54 32 11
f 31 11 32
f 11 31 30
f 13 11 30
f 13 12 11
f 10 11 12
f 10 25 11
f 34 11 25
f 33 11 34
f 8 11 33
f 8 33 35
f 8 35 9
f 14 15 16
f 16 18 14
f 16 24 18
f 24 16 17
f 23 24 17
f 17 37 23
f 17 15 37
f 15 17 16
f 15 38 37
f 15 40 38
f 42 40 15
f 14 42 15
f 41 42 14
f 20 41 14
f 20 14 18
f 18 19 20
f 19 18 29
f 19 29 26
f 19 26 27
f 27 78 19
f 60 78 27
f 60 27 66
f 66 67 60
f 60 67 58
f 58 59 60
f 59 58 49
f 50 59 49
f 49 48 50
f 47 48 49
f 49 56 47
f 56 49 58
f 56 58 64
f 64 57 56
f 63 57 64
f 57 63 75
f 75 47 57
f 74 47 75
f 47 74 77
f 77 48 47
f 47 56 57
f 19 21 20
f 19 78 21
f 78 79 21
f 61 79 78
f 62 79 61
f 62 61 59
f 60 59 61
f 61 78 60
f 22 20 21
f 21 79 22
f 27 26 28
f 27 28 66
f 29 18 24
f 37 39 23
f 67 64 58
f 75 63 76
