v -12.0234 41.0352 24.5742
v -12.3359 51.5508 21.3672
v -21.3789 39.9297 17.6211
v -17.7070 56.3672 12.7031
v -10.9766 60.4297 14.3359
v -21.3789 39.9297 17.6211
v -8.0000 42.0000 10.0000
v -12.0234 41.0352 24.5742
v 0.0000 41.5781 27.6133
v 0.0000 32.6328 4.0000
v -17.7070 56.3672 12.7031
v -25.4375 44.2617 -12.9023
v -25.3828 43.8242 6.0391
v -17.7070 56.3672 12.7031
v -29.4492 32.6875 -0.9883
v -24.0000 21.9062 -9.0234
v -28.1797 22.0000 4.0000
v -25.7617 33.9414 -14.1016
v -19.7852 24.1953 -25.3828
v -18.6641 15.5547 -13.8867
v 0.0000 33.5469 -33.9375
v 16.6406 36.5469 -27.4336
v 7.5352 22.3867 -30.3516
v 19.7852 24.1953 -25.3828
v -7.5352 22.3867 -30.3516
v -16.6406 36.5469 -27.4336
v -24.0000 21.9062 -9.0234
v -27.1953 12.7500 3.0000
v -28.1797 22.0000 4.0000
v -25.4531 36.3984 15.3438
v -27.1953 12.7500 3.0000
v -25.4531 36.3984 15.3438
v -24.0000 21.9062 -9.0234
v -18.6641 15.5547 -13.8867
v 0.0000 32.6328 4.0000
v 0.0000 53.5625 23.5391
v 0.0000 41.5781 27.6133
v 0.0000 62.8320 17.3828
v 12.0234 41.0352 24.5742
v 21.3789 39.9297 17.6211
v 12.3359 51.5508 21.3672
v 17.7070 56.3672 12.7031
v 10.9766 60.4297 14.3359
v 21.3789 39.9297 17.6211
v 12.0234 41.0352 24.5742
v 8.0000 42.0000 10.0000
v 0.0000 32.6328 4.0000
v 25.4531 36.3984 15.3438
v 17.7070 56.3672 12.7031
v 25.4531 36.3984 15.3438
v 25.3828 43.8242 6.0391
v 17.7070 56.3672 12.7031
v 25.4375 44.2617 -12.9023
v 29.4492 32.6875 -0.9883
v 28.1797 22.0000 4.0000
v 24.0000 21.9062 -9.0234
v 0.0000 9.6289 -19.1055
v 18.6641 15.5547 -13.8867
v 25.7617 33.9414 -14.1016
v 24.0000 21.9062 -9.0234
v 27.1953 12.7500 3.0000
v 28.1797 22.0000 4.0000
v 27.1953 12.7500 3.0000
v 24.0000 21.9062 -9.0234
v 0.0000 32.6328 4.0000
v 18.6641 15.5547 -13.8867
v -17.7070 56.3672 12.7031
v -25.4531 36.3984 15.3438
v -17.7070 56.3672 12.7031
v -25.3828 43.8242 6.0391
f 1 2 3
f 2 1 37
f 36 2 37
f 5 2 36
f 2 5 4
f 3 2 4
f 6 7 8
f 7 6 11
f 10 7 11
f 27 10 28
f 28 10 29
f 10 30 29
f 10 67 68
f 7 9 8
f 9 7 46
f 46 45 9
f 44 45 46
f 46 49 44
f 47 49 46
f 47 48 49
f 47 62 48
f 61 62 47
f 60 61 47
f 12 13 14
f 12 15 13
f 18 15 12
f 15 18 16
f 15 16 17
f 17 32 15
f 32 13 15
f 32 69 70
f 18 19 16
f 19 18 26
f 19 26 25
f 25 20 19
f 57 20 25
f 23 57 25
f 23 25 21
f 21 22 23
f 22 24 23
f 24 22 59
f 59 56 24
f 54 56 59
f 54 55 56
f 55 54 50
f 50 54 51
f 50 51 52
f 53 52 51
f 51 54 53
f 54 59 53
f 22 53 59
f 16 19 20
f 17 16 31
f 26 21 25
f 26 18 12
f 33 34 35
f 38 5 36
f 38 36 43
f 43 36 41
f 41 42 43
f 40 42 41
f 39 40 41
f 41 37 39
f 36 37 41
f 57 23 58
f 58 23 24
f 56 58 24
f 55 63 56
f 64 65 66
