v 0.0000 45.4062 -32.8867
v 10.0000 44.8203 -31.2773
v 0.0000 33.4336 -33.2500
v 10.6641 33.4336 -31.6211
v 0.0000 9.6289 -19.1055
v 10.6641 19.6953 -25.1328
v 18.6641 15.5547 -13.8867
v 18.6641 24.7188 -23.9453
v 0.0000 22.6602 -29.5977
v 24.6484 33.4336 -15.0938
v 18.8125 43.1172 -24.8984
v 26.5508 43.0000 -1.0000
v 23.1445 54.0000 7.0000
v 23.9609 47.0000 10.6250
v 24.0000 43.6484 -12.1719
v 24.7617 52.0000 -2.7031
v 17.6992 56.7812 -14.9414
v 10.0000 54.8320 -25.4961
v 10.0000 62.2617 -16.6406
v 0.0000 63.7461 -17.5000
v 0.0000 55.9336 -26.8086
v 25.1758 25.0000 11.0000
v 0.0000 25.0000 11.0000
v 26.6016 24.0000 3.0000
v 16.8086 54.7188 14.8945
v 23.9609 47.0000 10.6250
v 17.2500 56.2422 15.0000
v 17.6289 62.6680 14.1367
v 21.8945 59.0000 3.0000
v 10.0156 58.3281 22.0391
v 10.0000 54.3281 19.2969
v 10.2773 66.2930 19.5391
v 16.3281 65.3320 7.4062
v 8.9609 69.8711 10.0000
v 4.2578 53.8750 20.4023
v 0.0000 58.8359 24.1758
v 0.0000 67.5938 21.5000
v 0.0000 71.3945 11.4180
v 13.1094 64.6602 -6.6133
v 7.2891 69.7344 -1.5898
v 0.0000 71.4922 0.2109
v 25.1758 25.0000 11.0000
v 26.6016 24.0000 3.0000
v 25.1992 34.3086 10.0000
v 26.2969 33.4336 0.0000
v 25.1992 34.3086 10.0000
v 24.9141 40.0000 10.0000
v 24.9141 40.0000 10.0000
v -10.0000 44.8203 -31.2773
v -10.6641 33.4336 -31.6211
v -10.6641 19.6953 -25.1328
v -18.6641 15.5547 -13.8867
v -18.6641 24.7188 -23.9453
v -24.6484 33.4336 -15.0938
v -18.8125 43.1172 -24.8984
v -24.0000 43.6484 -12.1719
v -26.5508 43.0000 -1.0000
v -24.7617 52.0000 -2.7031
v -17.6992 56.7812 -14.9414
v -10.0000 54.8320 -25.4961
v -10.0000 62.2617 -16.6406
v -26.2969 33.4336 0.0000
v -24.9141 40.0000 10.0000
v -25.1992 34.3086 10.0000
v -16.8086 54.7188 14.8945
v -17.2500 56.2422 15.0000
v -23.9609 47.0000 10.6250
v -23.9609 47.0000 10.6250
v -23.1445 54.0000 7.0000
v -17.6289 62.6680 14.1367
v -21.8945 59.0000 3.0000
v -10.0000 54.3281 19.2969
v -10.0156 58.3281 22.0391
v -10.2773 66.2930 19.5391
v -8.9609 69.8711 10.0000
v -16.3281 65.3320 7.4062
v -4.2578 53.8750 20.4023
v -13.1094 64.6602 -6.6133
v -7.2891 69.7344 -1.5898
v -26.6016 24.0000 3.0000
v -25.1758 25.0000 11.0000
v -25.1992 34.3086 10.0000
v -25.1758 25.0000 11.0000
v -24.9141 40.0000 10.0000
v 0.0000 53.7344 21.1836
v -26.6016 24.0000 3.0000
v 26.2969 33.4336 0.0000
v -26.2969 33.4336 0.0000
v 0.0000 25.0000 11.0000
v -25.1758 25.0000 11.0000
f 1 2 3
f 2 1 18
f 2 18 11
f 4 2 11
f 2 4 3
f 9 3 4
f 6 9 4
f 9 6 5
f 9 5 51
f 50 9 51
f 3 9 50
f 49 3 50
f 1 3 49
f 60 1 49
f 49 55 60
f 50 55 49
f 55 50 53
f 54 55 53
f 55 54 56
f 59 55 56
f 59 56 58
f 59 58 71
f 59 71 78
f 61 59 78
f 60 59 61
f 21 60 61
f 20 21 61
f 20 19 21
f 40 19 20
f 41 40 20
f 34 40 41
f 34 33 40
f 33 34 28
f 29 33 28
f 29 28 13
f 29 13 16
f 17 29 16
f 17 16 15
f 17 15 11
f 18 17 11
f 18 19 17
f 21 19 18
f 1 21 18
f 21 1 60
f 60 55 59
f 5 6 7
f 7 6 8
f 8 10 7
f 10 8 11
f 11 15 10
f 15 12 10
f 15 16 12
f 16 13 12
f 12 13 14
f 14 48 12
f 12 48 45
f 10 12 45
f 7 10 45
f 43 45 44
f 42 43 44
f 45 48 44
f 22 23 24
f 46 23 22
f 47 23 46
f 26 23 47
f 26 25 23
f 25 26 27
f 31 25 27
f 30 31 27
f 32 30 27
f 28 32 27
f 28 27 13
f 14 13 27
f 34 32 28
f 34 38 32
f 38 34 41
f 38 41 75
f 74 38 75
f 74 75 70
f 70 66 74
f 70 69 66
f 71 69 70
f 71 58 69
f 58 57 69
f 56 57 58
f 56 54 57
f 54 62 57
f 54 52 62
f 53 52 54
f 51 52 53
f 5 52 51
f 50 51 53
f 31 30 35
f 36 35 30
f 36 30 37
f 36 37 73
f 36 73 77
f 85 36 77
f 85 35 36
f 32 37 30
f 38 37 32
f 37 38 74
f 74 73 37
f 74 66 73
f 66 72 73
f 65 72 66
f 65 66 67
f 67 23 65
f 67 84 23
f 84 82 23
f 82 83 23
f 24 23 86
f 24 86 87
f 87 86 88
f 86 89 90
f 29 39 33
f 17 39 29
f 19 39 17
f 39 19 40
f 40 33 39
f 11 8 4
f 4 8 6
f 57 62 63
f 68 57 63
f 69 57 68
f 68 66 69
f 64 63 62
f 62 80 64
f 64 80 81
f 70 75 76
f 71 70 76
f 71 76 78
f 78 76 79
f 78 79 61
f 79 20 61
f 41 20 79
f 75 41 79
f 76 75 79
f 72 77 73
