v -17.5820 50.4219 16.7617
v -22.8711 38.3516 17.5117
v -17.4219 45.8477 21.1406
v -24.5820 42.7266 8.7578
v -24.6250 30.6602 11.8281
v -15.2852 35.9062 22.6328
v -7.1055 42.9297 25.9453
v -27.7344 29.0781 2.6523
v 4.7070 60.0000 10.3633
v -24.6250 30.6602 11.8281
v -15.2852 35.9062 22.6328
v -7.1055 42.9297 25.9453
v 0.4336 51.1250 24.1367
v 5.8633 58.8320 18.9336
v 27.3594 32.8047 8.9219
v 24.5820 42.7266 8.7578
v 22.0430 42.9883 16.2500
v 15.4922 54.0703 18.2578
v 9.1953 52.8398 22.2070
v 14.6641 43.8867 23.5391
v 5.8633 58.8320 18.9336
v 27.5820 40.4922 -1.5898
v 27.7344 29.0781 2.6523
v 14.6641 43.8867 23.5391
v 9.1953 52.8398 22.2070
v -5.4844 56.5742 21.5195
v 0.4336 51.1250 24.1367
v 5.8633 58.8320 18.9336
v -27.7344 29.0781 2.6523
v 21.9531 33.7422 16.1367
v 27.7344 29.0781 2.6523
v 21.9531 33.7422 16.1367
v -29.3203 12.0938 -29.5430
v -30.4375 3.6641 -25.6719
v -26.1484 12.4805 -22.2773
v -28.7734 -4.2695 -35.1055
v -22.8203 2.9531 -38.7500
v -17.4102 4.6094 -29.5859
v -19.2188 8.1875 -36.4102
v -17.9336 15.0391 -21.1328
v -11.3203 26.5195 -21.0195
v -23.5898 20.0703 -25.5820
v -23.4727 16.2852 -33.9102
v -27.5742 7.7344 -38.1250
v -32.7109 5.4492 -32.7891
v -40.6680 -0.6016 -35.9570
v -19.7852 24.1953 -25.3828
v -11.3984 34.1562 -31.6953
v -11.3047 22.5742 -29.8398
v 0.0000 33.5469 -34.3477
v 0.0000 27.7227 -33.3086
v -18.6641 15.5547 -13.8867
v 0.0000 9.6289 -19.1055
v -24.0000 21.9062 -7.5234
v -26.1250 33.0000 -16.0000
v -24.6250 37.2383 -17.0586
v -19.3555 35.5977 -24.9492
v -27.5820 40.4922 -1.5898
v -22.2227 3.9141 -23.3438
v -30.8750 -3.4922 -29.4727
v -28.5508 -0.1836 -39.5820
v -24.0000 21.9062 -7.5234
v 29.3203 12.0938 -29.5430
v 26.1484 12.4805 -22.2773
v 30.4375 3.6641 -25.6719
v 28.7734 -4.2695 -35.1055
v 17.4102 4.6094 -29.5859
v 22.8203 2.9531 -38.7500
v 19.2188 8.1875 -36.4102
v 11.3203 26.5195 -21.0195
v 17.9336 15.0391 -21.1328
v 23.5898 20.0703 -25.5820
v 23.4727 16.2852 -33.9102
v 32.7109 5.4492 -32.7891
v 27.5742 7.7344 -38.1250
v 40.6680 -0.6016 -35.9570
v 19.7852 24.1953 -25.3828
v 11.3047 22.5742 -29.8398
v 11.3984 34.1562 -31.6953
v 18.6641 15.5547 -13.8867
v 24.0000 21.9062 -7.5234
v 26.1250 33.0000 -16.0000
v 19.3555 35.5977 -24.9492
v 24.6250 37.2383 -17.0586
v 22.2227 3.9141 -23.3438
v 30.8750 -3.4922 -29.4727
v 28.5508 -0.1836 -39.5820
v 24.0000 21.9062 -7.5234
v -24.0000 21.9062 -7.5234
v -18.6641 15.5547 -13.8867
v 4.7070 60.0000 10.3633
v 18.6641 15.5547 -13.8867
v 24.0000 21.9062 -7.5234
v 4.7070 60.0000 10.3633
f 1 2 3
f 4 2 1
f 2 4 5
f 5 6 2
f 3 2 6
f 6 7 3
f 3 7 26
f 3 26 1
f 7 27 26
f 27 28 26
f 8 9 10
f 62 9 8
f 10 9 11
f 11 9 12
f 12 9 13
f 13 9 14
f 14 9 25
f 24 25 9
f 9 30 24
f 9 31 30
f 88 31 9
f 15 16 17
f 16 15 22
f 22 15 23
f 22 23 82
f 84 22 82
f 82 83 84
f 77 83 82
f 77 79 83
f 77 78 79
f 77 80 78
f 77 81 80
f 81 77 82
f 81 82 23
f 15 32 23
f 15 17 32
f 17 20 32
f 18 20 17
f 17 16 18
f 19 20 18
f 19 18 21
f 5 4 29
f 29 4 58
f 58 55 29
f 56 55 58
f 55 56 57
f 47 55 57
f 47 57 48
f 47 48 49
f 47 49 52
f 47 52 54
f 54 55 47
f 54 29 55
f 33 34 35
f 42 33 35
f 42 35 41
f 43 42 41
f 39 43 41
f 39 41 38
f 38 37 39
f 36 37 38
f 36 38 60
f 60 46 36
f 46 60 34
f 45 46 34
f 34 33 45
f 33 44 45
f 43 44 33
f 43 33 42
f 43 39 44
f 37 44 39
f 44 37 61
f 61 46 44
f 46 61 36
f 37 36 61
f 35 40 41
f 40 35 59
f 59 38 40
f 60 38 59
f 34 60 59
f 35 34 59
f 48 50 51
f 49 48 51
f 49 51 53
f 52 49 53
f 80 53 78
f 78 53 51
f 78 51 79
f 79 51 50
f 40 38 41
f 45 44 46
f 63 64 65
f 72 64 63
f 72 70 64
f 73 70 72
f 69 70 73
f 69 67 70
f 67 69 68
f 66 67 68
f 66 86 67
f 86 66 76
f 76 65 86
f 74 65 76
f 65 74 63
f 63 74 75
f 73 63 75
f 73 72 63
f 73 75 69
f 68 69 75
f 75 87 68
f 87 75 76
f 76 66 87
f 68 87 66
f 64 70 71
f 71 85 64
f 85 71 67
f 86 85 67
f 65 85 86
f 64 85 65
f 71 70 67
f 74 76 75
f 89 90 91
f 92 93 94
