v -23.5352 43.8633 12.2422
v -26.7539 41.7500 4.1523
v -24.7109 27.0000 9.0000
v -26.5352 31.0000 0.0000
v 0.0078 44.4297 11.4648
v -24.7109 27.0000 9.0000
v -18.6641 15.5547 -13.8867
v -19.9180 24.5312 -25.5977
v 0.0000 9.6289 -19.1055
v 0.0078 22.3672 -31.5391
v -11.3984 34.1562 -31.6953
v 0.0000 35.5352 -33.1836
v -19.3555 35.5977 -24.9492
v -25.7344 33.6914 -16.2930
v -25.6602 38.4727 -13.2227
v -26.5352 31.0000 0.0000
v -20.1797 48.6523 16.5195
v -12.0938 51.9453 21.5898
v -17.2344 55.7930 12.0156
v -8.1016 57.0469 20.3203
v -23.5352 43.8633 12.2422
v -18.6641 15.5547 -13.8867
v -17.2344 55.7930 12.0156
v -20.1797 48.6523 16.5195
v -21.0352 42.7461 18.2070
v 0.0078 44.3945 26.6328
v -12.0078 43.5352 24.5234
v -12.0078 43.5352 24.5234
v -21.0352 42.7461 18.2070
v 0.0078 50.8711 25.0820
v 0.0078 44.3945 26.6328
v 26.5508 31.0000 0.0000
v 24.7266 27.0000 9.0000
v 19.9336 24.5312 -25.5977
v 18.6641 15.5547 -13.8867
v 11.3984 34.1562 -31.6953
v 19.3555 35.5977 -24.9492
v 25.7500 33.6914 -16.2930
v 25.6758 38.4727 -13.2227
v 26.5508 31.0000 0.0000
v 23.5508 43.8633 12.2422
v 24.7266 27.0000 9.0000
v 26.7539 41.7500 4.1523
v 18.6641 15.5547 -13.8867
v 17.2500 55.7930 12.0156
v 20.1797 48.6523 16.5195
v 21.0352 42.7461 18.2070
v 12.0938 51.9453 21.5898
v 8.1016 57.0469 20.3203
v 0.0117 57.2539 21.7500
v 12.0234 43.5352 24.5234
v 23.5508 43.8633 12.2422
v 12.0234 43.5352 24.5234
v 20.1797 48.6523 16.5195
v 21.0352 42.7461 18.2070
v 17.2500 55.7930 12.0156
v 23.5508 43.8633 12.2422
v 17.2500 55.7930 12.0156
v 0.0078 44.4297 11.4648
v -17.2344 55.7930 12.0156
f 1 2 3
f 16 3 2
f 15 16 2
f 14 16 15
f 13 14 15
f 13 8 14
f 11 8 13
f 10 8 11
f 9 8 10
f 7 8 9
f 8 7 14
f 7 16 14
f 4 5 6
f 22 5 4
f 6 5 21
f 23 5 24
f 5 25 24
f 25 5 27
f 26 27 5
f 26 5 51
f 51 5 47
f 5 46 47
f 45 46 5
f 32 33 5
f 44 32 5
f 33 52 5
f 5 57 58
f 10 11 12
f 10 12 36
f 34 10 36
f 10 34 9
f 9 34 35
f 34 38 35
f 37 38 34
f 36 37 34
f 39 38 37
f 38 39 40
f 35 38 40
f 40 43 42
f 39 43 40
f 41 42 43
f 17 18 19
f 18 17 28
f 31 18 28
f 30 18 31
f 30 31 48
f 48 49 30
f 49 48 56
f 56 48 54
f 48 53 54
f 48 31 53
f 54 53 55
f 19 18 20
f 30 20 18
f 50 20 30
f 30 49 50
f 28 17 29
f 21 59 60
