v -18.6641 43.1172 -24.8984
v -24.6484 33.4336 -13.9844
v -24.0000 43.6484 -12.1719
v -26.2969 42.3867 -1.3477
v -25.9219 36.0000 10.0000
v -23.9922 48.0000 12.0000
v -23.5312 24.3398 -15.4922
v -18.6641 24.7188 -24.0117
v 0.0000 33.4336 -33.2500
v 0.0000 22.6602 -31.3281
v -10.6641 33.4336 -31.6211
v -10.6641 23.1875 -29.8789
v -22.0820 14.0000 -10.1875
v -16.2031 11.6641 -17.5664
v -9.3945 10.0000 -22.9961
v 0.0000 9.0000 -25.2461
v -12.3477 4.0000 -15.3008
v 0.0000 2.0000 -20.8672
v -26.6797 23.6094 -5.1602
v -26.5000 22.0000 8.0000
v 0.0000 22.0000 8.0000
v -25.9219 36.0000 10.0000
v -27.6367 31.0000 -1.0000
v -26.5000 22.0000 8.0000
v 0.0000 31.0000 -1.0000
v 27.6367 31.0000 -0.9961
v 26.5000 22.0000 8.0000
v -23.9922 48.0000 12.0000
v 18.6641 43.1172 -24.8984
v 24.0000 43.6484 -12.1719
v 24.6484 33.4336 -13.9844
v 10.6641 33.4336 -31.6211
v 18.6641 24.7188 -24.0117
v 26.2969 42.3867 -1.3477
v 23.9922 48.0000 12.0000
v 25.9219 36.0000 10.0000
v 27.6367 31.0000 -0.9961
v 26.5000 22.0000 8.0000
v 23.5312 24.3398 -15.4922
v 10.6641 23.1875 -29.8789
v 22.0820 14.0000 -10.1875
v 16.2031 11.6641 -17.5664
v 9.3945 10.0000 -22.9961
v 12.3477 4.0000 -15.3008
v 26.6797 23.6094 -5.1602
v 25.9219 36.0000 10.0000
v -27.6367 31.0000 -1.0000
v 23.9922 48.0000 12.0000
v -8.8633 8.0273 -15.9453
v -22.0820 14.0000 -10.1875
v -12.3477 4.0000 -15.3008
v -9.3945 10.0000 -22.9961
v 0.0000 2.0000 -20.8672
v 12.3477 4.0000 -15.3008
v 22.0820 14.0000 -10.1875
v 8.8633 8.0273 -15.9453
v 9.3945 10.0000 -22.9961
v -26.6797 23.6094 -5.1602
v 26.6797 23.6094 -5.1602
f 1 2 3
f 1 8 2
f 11 8 1
f 8 11 12
f 12 15 8
f 15 12 16
f 18 15 16
f 18 16 43
f 43 16 40
f 43 40 33
f 42 43 33
f 39 42 33
f 39 33 31
f 39 31 45
f 45 41 39
f 41 42 39
f 42 41 44
f 44 43 42
f 4 3 2
f 23 4 2
f 23 2 19
f 19 2 7
f 19 7 13
f 13 7 14
f 14 17 13
f 17 14 15
f 8 15 14
f 7 8 14
f 7 2 8
f 4 5 6
f 5 4 23
f 23 24 5
f 9 10 11
f 9 32 10
f 10 32 40
f 16 10 40
f 16 12 10
f 10 12 11
f 20 21 22
f 20 47 21
f 47 25 21
f 25 47 58
f 50 25 58
f 50 49 25
f 49 50 51
f 49 51 52
f 52 53 49
f 53 56 49
f 56 53 57
f 54 56 57
f 54 55 56
f 55 25 56
f 55 59 25
f 25 59 26
f 25 26 21
f 26 27 21
f 27 46 21
f 21 46 48
f 21 28 22
f 29 30 31
f 29 31 33
f 32 29 33
f 33 40 32
f 34 31 30
f 37 31 34
f 31 37 45
f 37 36 38
f 36 37 34
f 34 35 36
f 49 56 25
