v -3.1094 47.6367 25.5938
v -12.5508 53.3750 21.3438
v -14.3164 34.7812 25.9688
v -18.3906 43.9062 20.5820
v -22.2227 43.5469 15.0078
v -23.4688 37.1641 19.6367
v -28.0664 31.6992 17.2109
v -29.3164 34.8633 10.9805
v -22.6406 25.8320 19.5742
v 4.6211 54.8750 22.4648
v -2.9883 63.0820 16.2148
v 11.4727 60.0000 17.1641
v -22.6406 25.8320 19.5742
v -8.4102 54.0000 11.4062
v -14.3164 34.7812 25.9688
v -3.1094 47.6367 25.5938
v 4.6211 54.8750 22.4648
v 32.9961 23.0859 3.2031
v 27.9336 18.0859 6.3516
v 29.8438 14.0508 -8.6250
v 25.4062 42.3594 1.3203
v 30.0469 28.4844 -2.0000
v 20.8125 41.5820 19.3164
v 18.1172 39.7031 23.4062
v 27.8633 32.4688 17.5625
v 21.8906 28.0820 19.5742
v 29.3203 34.8633 10.9805
v 13.8164 52.2266 20.7383
v 18.5703 49.3945 17.3438
v 11.4727 60.0000 17.1641
v 11.4727 60.0000 17.1641
v 8.4102 54.0000 11.4102
v 13.8164 52.2266 20.7383
v 27.9336 18.0859 6.3516
v 21.8906 28.0820 19.5742
v 18.1367 23.4453 0.7422
v 29.8438 14.0508 -8.6250
v 22.2500 43.5000 15.0469
v 18.1172 39.7031 23.4062
v 20.8672 51.1172 11.3281
v -32.9961 23.0859 3.2031
v -29.8438 14.0508 -8.6250
v -28.6836 18.0859 6.3516
v -25.4062 42.3594 1.3203
v -30.0469 28.4844 -2.0000
v -28.6836 18.0859 6.3516
v -29.8438 14.0508 -8.6250
v -18.1367 23.4453 0.7422
v -20.8711 51.1211 11.3320
v 0.0000 26.4258 -36.6133
v 0.0000 33.9922 -32.5820
v 11.6758 35.5430 -29.8750
v 19.7734 36.1016 -23.9727
v 25.3633 37.6836 -16.1797
v 22.0156 26.5312 -27.0625
v 28.6602 23.2383 -16.8438
v 30.0469 28.4844 -2.0000
v 25.4062 42.3594 1.3203
v 29.8438 14.0508 -8.6250
v 9.0664 13.0703 -12.8789
v 16.5156 5.6289 -21.6641
v 0.0000 2.6992 -26.5000
v 22.3633 16.6484 -28.1758
v 16.5156 5.6289 -21.6641
v 11.1406 7.5586 -33.0859
v 0.0000 7.5547 -34.8672
v 0.0000 2.6992 -26.5000
v 11.9961 16.5586 -36.5586
v 11.5430 26.4453 -34.2891
v 0.0000 16.5391 -38.4609
v -22.0156 26.5312 -27.0625
v -19.7734 36.1016 -23.9727
v -11.5430 26.4453 -34.2891
v -27.9570 26.6484 -16.9414
v -25.3633 37.6836 -16.1797
v -30.0469 28.4844 -2.0000
v -25.4062 42.3594 1.3203
v -29.3672 19.8242 -16.7461
v -29.8438 14.0508 -8.6250
v -16.5156 5.6289 -21.6641
v -9.0664 13.0703 -12.8789
v -16.5156 5.6289 -21.6641
v -22.3633 16.6484 -28.1758
v -11.1406 7.5586 -33.0859
v -11.9961 16.5586 -36.5586
v -11.6758 35.5430 -29.8750
f 1 2 3
f 1 10 2
f 2 10 11
f 12 11 10
f 3 2 4
f 6 3 4
f 4 5 6
f 49 5 4
f 44 5 49
f 8 5 44
f 8 6 5
f 7 6 8
f 6 7 3
f 3 7 9
f 9 7 43
f 43 7 41
f 41 42 43
f 45 42 41
f 44 45 41
f 44 41 8
f 41 7 8
f 13 14 15
f 13 46 14
f 14 46 48
f 46 47 48
f 48 47 80
f 48 80 81
f 62 81 80
f 81 62 60
f 62 61 60
f 36 60 61
f 36 61 37
f 34 36 37
f 34 32 36
f 34 35 32
f 35 39 32
f 33 32 39
f 31 32 33
f 31 14 32
f 14 31 17
f 16 14 17
f 15 14 16
f 18 19 20
f 22 18 20
f 21 18 22
f 21 27 18
f 27 21 38
f 23 27 38
f 25 27 23
f 23 24 25
f 24 23 28
f 23 29 28
f 23 38 29
f 38 40 29
f 38 21 40
f 26 25 24
f 19 25 26
f 18 25 19
f 25 18 27
f 28 29 30
f 50 51 52
f 69 50 52
f 69 68 50
f 55 68 69
f 63 68 55
f 55 56 63
f 55 54 56
f 53 54 55
f 53 55 69
f 52 53 69
f 57 56 54
f 57 54 58
f 57 59 56
f 56 59 63
f 63 59 64
f 64 65 63
f 67 65 64
f 66 65 67
f 66 70 65
f 66 84 70
f 66 67 84
f 67 82 84
f 83 84 82
f 82 79 83
f 79 78 83
f 76 78 79
f 76 74 78
f 76 75 74
f 76 77 75
f 74 75 71
f 71 83 74
f 85 83 71
f 73 85 71
f 71 72 73
f 75 72 71
f 73 72 86
f 73 86 50
f 73 50 85
f 85 50 70
f 70 84 85
f 85 84 83
f 83 78 74
f 68 70 50
f 70 68 65
f 68 63 65
f 51 50 86
f 2 49 4
