v 10.9297 18.6914 -31.1953
v 20.4258 7.3711 -19.2461
v 10.9297 -3.5859 -22.0195
v 20.7617 27.5977 -25.3164
v 11.3984 34.1562 -31.6953
v 28.2930 27.8438 -8.8594
v 26.4883 10.8633 -10.0859
v 21.0664 0.6445 -13.3711
v 0.0000 4.0664 -27.9141
v -10.9297 -3.5859 -22.0195
v 28.4492 17.9492 8.0703
v 27.1367 9.0000 1.0000
v 0.0000 18.3359 -32.8672
v 0.0000 33.5469 -34.3477
v 26.8320 40.4922 -1.5898
v 25.1562 38.0352 -13.2227
v 19.3555 35.5977 -24.9492
v 23.5859 43.1680 14.4453
v 27.8555 32.5000 13.1953
v -11.3984 34.1562 -31.6953
v -10.9297 18.6914 -31.1953
v -20.7617 27.5977 -25.3164
v -20.4258 7.3711 -19.2461
v -28.2930 27.8438 -8.8594
v -26.4883 10.8633 -10.0859
v -21.0664 0.6445 -13.3672
v -27.1406 9.0000 1.0000
v -25.1562 38.0352 -13.2227
v -19.3555 35.5977 -24.9492
v -26.8320 40.4922 -1.5898
v -27.8555 32.5000 13.1953
v -28.4492 17.9492 8.0703
v -23.5859 43.1680 14.4453
v -27.8555 32.5000 13.1953
v -18.5703 36.9961 10.5430
v -23.5859 43.1680 14.4453
v -13.3438 52.4336 12.0117
v -17.1289 54.2617 13.9297
v -27.1406 9.0000 1.0000
v -13.6172 14.5938 -8.1289
v -28.4492 17.9492 8.0703
v -21.0664 0.6445 -13.3672
v 21.0664 0.6445 -13.3711
v 13.6172 14.5938 -8.1289
v 10.9297 -3.5859 -22.0195
v -10.9297 -3.5859 -22.0195
v 18.5703 36.9961 10.5430
v 28.4492 17.9492 8.0703
v 27.1367 9.0000 1.0000
v 27.8555 32.5000 13.1953
v 23.5859 43.1680 14.4453
v 13.3438 52.4336 12.0117
v 17.1289 54.2617 13.9297
f 1 2 3
f 2 1 4
f 4 7 2
f 6 7 4
f 16 6 4
f 15 6 16
f 15 19 6
f 18 19 15
f 11 6 19
f 11 7 6
f 11 12 7
f 12 8 7
f 8 2 7
f 8 3 2
f 1 3 9
f 13 1 9
f 1 13 5
f 4 1 5
f 5 17 4
f 4 17 16
f 9 3 10
f 10 21 9
f 10 23 21
f 10 26 23
f 23 26 25
f 25 22 23
f 24 22 25
f 22 24 28
f 28 29 22
f 20 22 29
f 20 21 22
f 20 13 21
f 14 13 20
f 13 14 5
f 13 9 21
f 23 22 21
f 27 25 26
f 32 25 27
f 32 24 25
f 31 24 32
f 31 30 24
f 33 30 31
f 28 24 30
f 34 35 36
f 41 35 34
f 41 40 35
f 39 40 41
f 39 42 40
f 40 42 46
f 46 44 40
f 45 44 46
f 43 44 45
f 44 43 49
f 48 44 49
f 47 44 48
f 48 50 47
f 50 51 47
f 47 51 52
f 51 53 52
f 35 37 36
f 36 37 38
