v 31.3047 10.2344 -10.5859
v 30.2656 6.0000 8.0000
v 33.1836 1.0352 -10.4375
v 14.5820 10.2344 -32.8086
v 23.5625 3.8320 -23.1523
v 18.0508 1.0352 -37.2383
v 31.3047 10.2344 -10.5859
v 32.8555 14.0000 6.0000
v 30.2656 6.0000 8.0000
v 23.5625 3.8320 -23.1523
v 28.7188 13.0352 -28.1211
v 32.4531 25.0352 -11.1758
v 28.8633 33.0352 -9.0234
v 30.7734 24.0000 10.0000
v 28.3164 33.0391 8.0000
v 31.1289 15.8320 -10.2070
v 23.0117 27.8320 -23.5273
v 17.7812 24.4883 -34.4570
v 14.1758 33.0352 -30.2500
v 23.2930 22.2344 -23.7617
v 31.1289 15.8320 -10.2070
v 0.0000 3.8320 -39.0859
v 14.4453 15.8320 -32.3672
v 14.4453 15.8320 -32.3672
v 0.0000 12.7852 -42.7969
v 4.4688 19.5312 -37.6641
v -14.4453 15.8320 -32.3672
v -4.4688 19.5312 -37.6641
v 23.2930 22.2344 -23.7617
v -14.5820 10.2344 -32.8086
v 14.5820 10.2344 -32.8086
v 29.7344 -6.9609 -5.2617
v 31.9609 -1.7617 8.0000
v 13.1328 -6.9609 -32.0547
v 22.8008 -1.9883 -22.2148
v 0.0000 -1.7617 -39.3867
v 22.8008 -1.9883 -22.2148
v 13.1328 -6.9609 -32.0547
v 22.8008 -1.9883 -22.2148
v 0.0000 -1.7617 -39.3867
v 0.0000 17.7734 -3.1562
v 31.9609 -1.7617 8.0000
v 29.7344 -6.9609 -5.2617
v -31.3047 10.2344 -10.5859
v -33.1836 1.0352 -10.4375
v -30.2656 6.0000 8.0000
v -18.0508 1.0352 -37.2383
v -23.5625 3.8320 -23.1523
v -31.3047 10.2344 -10.5859
v -30.2656 6.0000 8.0000
v -32.8555 14.0000 6.0000
v -23.5625 3.8320 -23.1523
v -28.7188 13.0352 -28.1211
v -14.1758 33.0352 -30.2500
v -23.0117 27.8320 -23.5273
v -21.4844 38.4453 -21.1953
v -28.8633 33.0352 -9.0234
v -31.1289 15.8320 -10.2070
v -30.7734 24.0000 10.0000
v -32.4531 25.0352 -11.1758
v -28.8633 33.0352 -9.0234
v -28.3164 33.0391 8.0000
v -17.7812 24.4883 -34.4570
v 0.0000 33.0352 -37.5352
v -4.5000 25.9727 -37.3164
v 4.5000 25.9727 -37.3164
v -31.1289 15.8320 -10.2070
v -23.2930 22.2344 -23.7617
v -14.4453 15.8320 -32.3672
v -23.2930 22.2344 -23.7617
v -14.5820 10.2344 -32.8086
v -29.7344 -6.9609 -5.2617
v -31.9609 -1.7617 8.0000
v -13.1328 -6.9609 -32.0547
v -22.8008 -1.9883 -22.2148
v -22.8008 -1.9883 -22.2148
v -13.1328 -6.9609 -32.0547
v -22.8008 -1.9883 -22.2148
v -31.9609 -1.7617 8.0000
v -29.7344 -6.9609 -5.2617
v 4.4688 19.5312 -37.6641
v -4.4688 19.5312 -37.6641
v 0.0000 17.7734 -3.1562
v -30.2656 6.0000 8.0000
v -32.8555 14.0000 6.0000
v -32.8555 14.0000 6.0000
v -30.7734 24.0000 10.0000
v -28.3164 33.0391 8.0000
v -30.7734 24.0000 10.0000
v 31.9609 -1.7617 8.0000
v 30.2656 6.0000 8.0000
v 32.8555 14.0000 6.0000
v 32.8555 14.0000 6.0000
v 30.7734 24.0000 10.0000
v 28.3164 33.0391 8.0000
v 20.4688 57.7930 12.8789
v 10.0938 64.6328 20.7930
v 17.8789 56.0312 16.1523
v 9.8047 57.5625 22.7734
v 0.0000 58.1250 25.1602
v 0.0000 49.8984 19.3867
v 14.9844 49.8398 13.0273
v 0.0000 66.0859 22.9844
v 26.4375 44.0000 10.0000
v -20.4688 57.7930 12.8789
v -17.8789 56.0312 16.1523
v -10.0938 64.6328 20.7930
v -9.8047 57.5625 22.7734
v -26.4375 44.0000 10.0000
v -14.9844 49.8398 13.0273
v 28.3164 33.0391 8.0000
v 0.0000 46.1250 -35.3867
v 14.8672 45.4023 -29.1055
v 18.7617 58.1797 -15.8359
v 23.2734 56.5820 0.6602
v 21.4844 38.4453 -21.1953
v 0.0000 65.5625 -18.5469
v 10.5977 60.0547 -22.3320
v 0.0000 57.2812 -28.4180
v 8.6250 69.0000 10.0000
v 16.0000 65.0000 6.0000
v 9.6602 66.7383 -4.8984
v 0.0000 70.4414 -0.7812
v -10.5977 60.0547 -22.3320
v -14.8672 45.4023 -29.1055
v -23.2734 56.5820 0.6602
v -18.7617 58.1797 -15.8359
v -21.4844 38.4453 -21.1953
v -8.6250 69.0000 10.0000
v -16.0000 65.0000 6.0000
v -9.6602 66.7383 -4.8984
v -28.3164 33.0391 8.0000
v 14.1758 33.0352 -30.2500
v 21.4844 38.4453 -21.1953
f 1 2 3
f 10 1 3
f 10 11 1
f 31 11 10
f 11 31 23
f 23 20 11
f 23 18 20
f 81 18 23
f 18 81 66
f 18 66 19
f 18 19 17
f 18 17 20
f 17 13 12
f 12 29 17
f 29 12 16
f 16 12 14
f 16 14 8
f 8 7 16
f 7 8 9
f 4 5 6
f 22 4 6
f 25 4 22
f 4 25 24
f 24 25 26
f 26 25 28
f 28 65 26
f 26 65 66
f 65 64 66
f 54 64 65
f 63 54 65
f 63 55 54
f 63 68 55
f 69 68 63
f 69 53 68
f 53 69 71
f 71 52 53
f 52 44 53
f 52 45 44
f 45 52 76
f 76 72 45
f 72 73 45
f 46 45 73
f 44 45 46
f 44 67 53
f 53 67 68
f 12 13 14
f 14 13 15
f 15 13 104
f 104 13 115
f 115 96 104
f 96 115 121
f 121 97 96
f 120 97 121
f 121 122 120
f 121 114 122
f 115 114 121
f 13 114 115
f 114 13 116
f 116 113 114
f 19 113 116
f 19 112 113
f 64 112 19
f 19 66 64
f 64 54 112
f 112 54 125
f 125 119 112
f 124 119 125
f 117 119 124
f 117 118 119
f 117 122 118
f 123 122 117
f 120 122 123
f 123 129 120
f 123 131 129
f 123 117 131
f 131 117 124
f 131 124 127
f 131 127 130
f 129 131 130
f 129 130 107
f 103 129 107
f 103 107 100
f 103 100 97
f 97 120 103
f 120 129 103
f 11 20 21
f 1 11 21
f 27 28 25
f 25 30 27
f 22 30 25
f 22 47 30
f 47 22 36
f 36 74 47
f 74 75 47
f 48 47 75
f 30 47 48
f 32 3 33
f 37 3 32
f 3 37 10
f 2 33 3
f 34 6 35
f 36 6 34
f 6 36 22
f 5 35 6
f 38 39 40
f 40 39 41
f 40 41 78
f 77 40 78
f 41 79 78
f 79 80 78
f 79 83 84
f 83 85 84
f 86 83 87
f 83 88 89
f 132 83 109
f 109 83 110
f 106 109 110
f 109 106 105
f 126 109 105
f 126 61 109
f 126 127 61
f 130 127 126
f 130 126 105
f 107 130 105
f 105 106 107
f 107 106 108
f 108 100 107
f 108 101 100
f 101 108 110
f 110 108 106
f 41 39 42
f 42 39 43
f 49 50 51
f 51 58 49
f 58 51 59
f 58 59 60
f 70 58 60
f 60 55 70
f 55 60 61
f 60 59 61
f 61 59 62
f 61 62 109
f 127 128 61
f 127 125 128
f 124 125 127
f 125 54 128
f 54 55 56
f 56 55 57
f 82 69 63
f 63 65 82
f 90 91 41
f 41 91 92
f 93 94 41
f 94 95 41
f 111 104 41
f 41 104 102
f 98 102 104
f 98 99 102
f 98 97 99
f 96 97 98
f 104 96 98
f 100 101 99
f 99 97 100
f 102 99 101
f 119 118 113
f 112 119 113
f 114 113 118
f 114 118 122
f 133 134 17
f 17 134 13
