v 11.3047 22.5742 -29.8398
v 0.0000 22.0156 -31.3750
v 11.3984 34.1562 -31.6953
v 0.0000 33.5469 -34.3477
v 9.0156 6.6289 -22.0000
v 0.0000 -4.0000 -19.2461
v 0.0000 6.0000 -24.0000
v 16.6758 8.0000 -19.0000
v 19.7852 24.1953 -25.3828
v 23.1289 15.0000 -8.4883
v 14.0000 -4.0000 -16.0000
v 7.0000 0.0000 -19.6250
v 28.5469 33.4336 0.0000
v 26.1250 33.4336 -16.0000
v 19.3555 35.5977 -24.9492
v -9.0156 6.6289 -22.0000
v -11.3047 22.5742 -29.8398
v -11.3984 34.1562 -31.6953
v -14.0000 -4.0000 -16.0000
v -7.0000 0.0000 -19.6250
v -16.6758 8.0000 -19.0000
v -23.1289 15.0000 -8.4883
v -19.7852 24.1953 -25.3828
v -19.3555 35.5977 -24.9492
v -26.1250 33.4336 -16.0000
v 7.0000 0.0000 -19.6250
v 10.3125 7.5000 -10.7148
v 0.0000 -4.0000 -19.2461
v -10.3125 7.5000 -10.7148
v 14.0000 -4.0000 -16.0000
v 17.9727 14.2500 -8.3555
v 23.1289 15.0000 -8.4883
v -28.6406 33.4336 0.0000
v -7.0000 0.0000 -19.6250
v -14.0000 -4.0000 -16.0000
v 24.6250 37.2383 -17.0586
v 27.5820 40.4922 -1.5898
v 27.0000 22.0000 8.0000
v 24.7461 38.5508 13.5391
v -24.6250 37.2383 -17.0586
v -27.5820 40.4922 -1.5898
v -25.2188 44.0625 6.4648
v -24.8789 38.0195 16.0898
v -27.0000 22.0000 8.0000
v -17.9727 50.1641 16.8047
v -25.2188 44.0625 6.4648
v -20.2773 32.0234 19.8555
v -13.0547 44.6289 23.5312
v -6.2852 56.2617 21.5352
v -9.5664 42.6953 25.7188
v -1.7344 50.9102 24.9570
v -6.4297 38.6406 26.0781
v -1.8164 35.5391 26.8164
v 6.0586 45.7461 25.3438
v -10.5391 26.8828 25.3984
v 2.8086 59.4453 20.3906
v -6.2852 56.2617 21.5352
v -5.1875 51.2695 19.8477
v -9.5664 42.6953 25.7188
v -10.5391 26.8828 25.3984
v -8.8281 31.0195 23.0977
v -1.8164 35.5391 26.8164
v -10.5391 26.8828 25.3984
v 14.2734 60.0898 14.9023
v 6.0586 45.7461 25.3438
v 11.5234 54.9180 20.3711
v 19.6992 60.2500 2.7383
v 22.2148 46.6602 14.7578
v 14.2734 60.0898 14.9023
v 24.9102 33.0742 0.0000
v 28.5469 33.4336 0.0000
v 20.5000 27.0000 4.0000
v 27.0000 22.0000 8.0000
v -27.0000 22.0000 8.0000
v -28.6406 33.4336 0.0000
v -20.5000 27.0000 4.0000
v -24.9805 33.0742 0.0000
v -27.0000 22.0000 8.0000
v -20.5000 27.0000 4.0000
v -20.2773 32.0234 19.8555
v -13.0547 44.6289 23.5312
v -6.2852 56.2617 21.5352
v 24.7461 38.5508 13.5391
v 22.2148 46.6602 14.7578
v 18.9844 45.8477 12.7344
v 10.3633 56.7031 14.8242
v 14.2734 60.0898 14.9023
v 20.5000 27.0000 4.0000
v 27.0000 22.0000 8.0000
v -17.9727 14.2500 -8.3555
v -24.9805 33.0742 0.0000
v -23.1289 15.0000 -8.4883
v -28.6406 33.4336 0.0000
v 28.5469 33.4336 0.0000
v 24.9102 33.0742 0.0000
v -8.8281 31.0195 23.0977
v 10.3633 56.7031 14.8242
v 11.5234 54.9180 20.3711
v 11.5234 54.9180 20.3711
v 14.2734 60.0898 14.9023
v -10.5391 26.8828 25.3984
v -6.2852 56.2617 21.5352
f 1 2 3
f 1 3 9
f 8 1 9
f 8 9 10
f 8 10 11
f 11 5 8
f 11 12 5
f 12 6 5
f 5 6 7
f 5 7 1
f 8 5 1
f 1 7 2
f 7 17 2
f 16 17 7
f 6 16 7
f 20 16 6
f 19 16 20
f 19 21 16
f 22 21 19
f 21 22 23
f 17 21 23
f 17 23 18
f 2 17 18
f 4 2 18
f 3 2 4
f 9 3 15
f 9 15 14
f 9 14 10
f 13 10 14
f 13 14 37
f 13 37 39
f 38 13 39
f 39 37 68
f 37 67 68
f 68 67 69
f 23 24 18
f 23 25 24
f 23 22 25
f 33 25 22
f 25 33 41
f 40 25 41
f 24 25 40
f 17 16 21
f 26 27 28
f 26 30 27
f 27 30 31
f 90 27 31
f 29 27 90
f 28 27 29
f 28 29 34
f 34 29 35
f 90 35 29
f 92 35 90
f 90 91 92
f 92 91 93
f 32 31 30
f 32 95 31
f 94 95 32
f 15 36 14
f 37 14 36
f 41 33 42
f 33 43 42
f 33 44 43
f 44 47 43
f 47 48 43
f 45 43 48
f 45 46 43
f 102 45 48
f 49 50 51
f 56 49 51
f 51 98 56
f 54 98 51
f 54 51 52
f 53 54 52
f 52 55 53
f 51 50 52
f 52 50 101
f 57 58 59
f 58 61 59
f 60 59 61
f 62 63 64
f 65 62 64
f 64 66 65
f 63 96 64
f 64 96 97
f 70 71 72
f 72 71 73
f 74 75 76
f 76 75 77
f 78 79 80
f 80 79 81
f 79 58 81
f 58 82 81
f 83 84 85
f 85 88 83
f 83 88 89
f 85 84 86
f 84 87 86
f 56 99 100
