v -26.2969 33.4336 0.0000
v -31.1562 31.2930 -10.8711
v -24.0000 21.9062 -9.0234
v 23.8047 34.6250 -19.6836
v 31.1484 31.2852 -10.8828
v 23.3203 25.4219 -18.2109
v -0.0078 11.0000 -34.5586
v 14.9922 21.1875 -32.8320
v 0.0000 9.6289 -19.1055
v 22.2109 15.0000 -16.1992
v 18.6641 15.5547 -13.8867
v -23.8164 34.6328 -19.6719
v -21.7617 25.2109 -32.3320
v -23.3320 25.4258 -18.2031
v 7.7812 22.0703 -34.6523
v 21.7422 25.2031 -32.3398
v -0.0117 22.0703 -34.6523
v -7.8047 22.0703 -34.6523
v -24.2148 28.0000 10.0000
v -32.2773 34.6602 7.4648
v 24.2148 28.0000 10.0000
v 26.2969 33.4336 0.0000
v 32.2812 34.6602 7.4648
v 28.1719 38.1953 -1.4883
v 24.0000 21.9062 -9.0234
v -14.9922 21.1875 -32.8320
v -22.2266 15.0000 -16.1992
v -18.6641 15.5547 -13.8867
v -21.7617 25.2109 -32.3320
v -9.4258 31.5039 -32.1680
v -11.4141 34.1602 -31.6914
v -19.3672 35.6016 -24.9453
v 11.3984 34.1562 -31.6953
v 19.3555 35.5977 -24.9492
v 9.4062 31.5000 -32.1680
v 21.7422 25.2031 -32.3398
v -0.0039 31.0430 -34.0742
v -0.0078 27.2070 -41.1406
v -0.0078 27.2070 -41.1406
v -24.2148 28.0000 10.0000
v 0.0000 46.0000 12.0000
v -23.6211 39.4180 11.3945
v -23.1055 46.0000 12.0000
v 24.2148 28.0000 10.0000
v 23.6250 39.4180 11.3945
v 0.0000 46.0000 12.0000
v 23.1055 46.0000 12.0000
v 26.2969 33.4336 0.0000
v -26.2969 33.4336 0.0000
v -28.1484 38.0781 -1.4492
v -26.1055 42.2070 6.3477
v -27.5820 40.5000 -1.5781
v -26.6836 39.6445 6.6250
v 26.1172 42.1992 6.3359
v 26.6914 39.6367 6.6211
v 27.5820 40.4922 -1.5898
v -0.0039 33.5469 -34.3477
v 24.6250 37.2383 -17.0586
v -24.6328 37.2461 -17.0508
v 0.0000 9.6289 -19.1055
v 18.6641 15.5547 -13.8867
v 26.2969 33.4336 0.0000
v 24.0000 21.9062 -9.0234
v 0.0000 9.6289 -19.1055
v -26.2969 33.4336 0.0000
v -18.6641 15.5547 -13.8867
v -24.0000 21.9062 -9.0234
f 1 2 3
f 50 2 1
f 2 50 12
f 2 12 14
f 2 14 3
f 14 27 3
f 14 26 27
f 13 26 14
f 12 13 14
f 32 30 12
f 31 30 32
f 37 30 31
f 30 37 38
f 18 30 38
f 18 29 30
f 29 12 30
f 32 12 59
f 50 59 12
f 52 59 50
f 50 51 52
f 53 51 50
f 43 51 53
f 42 43 53
f 43 42 41
f 40 41 42
f 40 49 41
f 4 5 6
f 5 4 24
f 24 22 5
f 23 22 24
f 21 22 23
f 45 21 23
f 55 45 23
f 47 45 55
f 47 46 45
f 44 45 46
f 46 48 44
f 7 8 9
f 7 9 26
f 7 26 18
f 17 7 18
f 18 38 17
f 13 18 26
f 27 26 28
f 3 27 28
f 9 28 26
f 11 9 8
f 10 11 8
f 25 11 10
f 25 10 6
f 5 25 6
f 5 22 25
f 15 16 8
f 8 7 15
f 15 7 17
f 17 39 15
f 15 39 35
f 35 36 15
f 36 35 4
f 35 34 4
f 33 34 35
f 35 37 33
f 39 37 35
f 31 57 37
f 37 57 33
f 19 20 1
f 19 42 20
f 42 53 20
f 20 53 50
f 1 20 50
f 6 10 8
f 16 6 8
f 16 4 6
f 4 58 24
f 58 4 34
f 24 58 56
f 56 54 24
f 24 54 55
f 24 55 23
f 54 47 55
f 60 61 62
f 62 61 63
f 64 65 66
f 66 65 67
