v -15.6875 42.4531 23.1992
v -19.1562 29.1562 18.9336
v -8.8438 41.0469 25.4805
v -20.8906 38.8125 18.7617
v -20.5312 45.6367 17.3789
v -19.1562 29.1562 18.9336
v -20.8906 38.8125 18.7617
v 0.0000 53.1406 -1.6055
v -20.5312 45.6367 17.3789
v -8.8438 41.0469 25.4805
v 4.1992 50.9180 23.4375
v 15.4805 57.4141 15.8125
v 0.0000 22.3672 -29.8906
v 10.6641 23.1875 -28.1484
v 0.0000 9.6289 -19.1055
v 18.9531 24.7188 -23.9453
v 18.6641 15.5547 -13.8867
v 9.1172 36.0273 -31.6719
v 19.3555 35.5977 -24.9492
v 25.6797 33.1914 -16.2930
v 26.2969 33.4336 0.0000
v 25.5586 40.9375 0.3867
v 24.7422 51.9453 -4.4727
v 20.5312 45.6367 17.3789
v 18.6211 57.0508 9.3008
v 15.4805 57.4141 15.8125
v 24.7422 51.9453 -4.4727
v 26.1562 39.1367 7.1680
v 25.1641 30.0664 17.5703
v 30.1875 28.0898 7.7969
v 27.8906 36.8555 -3.8867
v 29.9219 18.3789 9.5547
v 30.3320 22.7852 -0.7969
v -10.7695 61.4414 14.8555
v -18.6211 57.0508 9.3008
v 20.3086 34.4375 3.8203
v 24.7422 51.9453 -4.4727
v 27.8906 36.8555 -3.8867
v 30.3320 22.7852 -0.7969
v 22.3906 17.6914 9.9414
v 26.1094 10.2656 6.9844
v 26.1094 10.2656 6.9844
v 19.5859 -0.2461 19.8594
v 24.3828 15.4688 17.8320
v 25.1641 30.0664 17.5703
v 20.5312 45.6367 17.3789
v -10.6641 23.1875 -28.1484
v -18.9531 24.7188 -23.9453
v -18.6641 15.5547 -13.8867
v -9.1172 36.0273 -31.6719
v -19.3555 35.5977 -24.9492
v -25.6797 33.1914 -16.2930
v -26.2969 33.4336 0.0000
v -25.5586 40.9375 0.3867
v -24.7422 51.9453 -4.4727
v -26.1562 39.1367 7.1680
v -24.3828 15.4688 17.8320
v -25.1641 30.0664 17.5703
v -29.9219 18.3789 9.5547
v -30.1875 28.0898 7.7969
v -27.8906 36.8555 -3.8867
v -24.7422 51.9453 -4.4727
v -30.3320 22.7852 -0.7969
v -26.1094 10.2656 6.9844
v -26.4062 9.5078 13.5430
v -24.7422 51.9453 -4.4727
v -20.3086 34.4375 3.8203
v -27.8906 36.8555 -3.8867
v -30.3320 22.7852 -0.7969
v -26.1094 10.2656 6.9844
v -22.3906 17.6914 9.9414
v -19.5859 -0.2461 19.8594
v -25.1641 30.0664 17.5703
v -24.3828 15.4688 17.8320
v -19.5859 -0.2461 19.8594
v -3.3555 8.9219 -52.1953
v 3.3555 8.9219 -52.1953
v 0.0000 -1.4727 -46.4609
v -6.7109 8.3359 -46.4102
v 0.0000 7.8633 -42.4375
v 6.7109 8.3359 -46.4102
v 5.1484 20.3125 -51.7188
v -5.1484 20.3125 -51.7188
v -9.4805 17.6602 -45.3633
v 0.0000 16.6016 -37.8594
v 9.4805 17.6602 -45.3633
v 4.7539 27.0273 -45.0547
v -4.7539 27.0273 -45.0547
v 0.0000 28.7656 -21.1680
v -25.9492 51.9492 -4.4570
v -6.9023 54.7266 22.0273
v 4.1992 50.9180 23.4375
v 0.0000 61.1953 17.1914
v 15.4805 57.4141 15.8125
v 26.1094 10.2656 6.9844
v 26.4062 9.5078 13.5430
v 19.5859 -0.2461 19.8594
v 24.3828 15.4688 17.8320
f 1 2 3
f 2 1 4
f 4 1 5
f 1 91 5
f 3 91 1
f 92 91 3
f 91 92 93
f 93 92 94
f 6 7 8
f 6 8 10
f 10 8 11
f 8 12 11
f 12 8 46
f 36 46 8
f 46 36 45
f 40 45 36
f 36 39 40
f 38 39 36
f 36 37 38
f 37 36 8
f 9 8 7
f 8 9 67
f 90 8 67
f 66 90 67
f 66 67 68
f 68 67 69
f 69 67 71
f 70 69 71
f 71 72 70
f 72 71 74
f 73 74 71
f 71 67 73
f 67 9 73
f 13 14 15
f 13 18 14
f 13 50 18
f 13 47 50
f 13 15 47
f 49 47 15
f 48 47 49
f 48 49 52
f 51 48 52
f 50 48 51
f 47 48 50
f 16 17 14
f 16 20 17
f 19 20 16
f 18 19 16
f 14 18 16
f 14 17 15
f 17 20 21
f 20 22 21
f 22 20 23
f 20 19 23
f 24 25 26
f 24 28 25
f 24 29 28
f 28 29 30
f 28 30 31
f 27 28 31
f 27 25 28
f 32 33 30
f 33 32 95
f 95 32 96
f 95 96 97
f 96 98 97
f 32 98 96
f 98 32 29
f 29 32 30
f 31 30 33
f 5 34 35
f 5 35 56
f 5 56 58
f 58 56 60
f 59 58 60
f 57 58 59
f 59 65 57
f 59 64 65
f 63 64 59
f 59 60 63
f 63 60 61
f 60 56 61
f 56 62 61
f 62 56 35
f 40 39 41
f 42 43 40
f 43 44 40
f 44 45 40
f 52 49 53
f 52 53 54
f 54 55 52
f 52 55 51
f 75 65 64
f 57 65 75
f 76 77 78
f 79 76 78
f 80 79 78
f 81 80 78
f 77 81 78
f 77 86 81
f 82 86 77
f 77 76 82
f 82 76 83
f 82 83 87
f 82 87 86
f 87 89 86
f 88 89 87
f 87 83 88
f 83 84 88
f 76 84 83
f 79 84 76
f 79 85 84
f 80 85 79
f 81 85 80
f 86 85 81
f 86 89 85
f 89 84 85
f 89 88 84
f 5 91 34
