v 11.3984 34.1562 -31.6953
v 19.7891 24.1953 -25.3828
v 11.3086 22.5742 -29.8398
v 0.0000 22.0156 -31.3750
v 0.0000 33.5469 -34.3477
v 18.6641 15.5547 -13.8867
v 0.0000 9.6289 -19.1055
v 19.3555 35.5977 -24.9492
v 24.0000 21.9062 -9.0234
v 26.1289 33.0000 -16.0000
v 24.6250 37.2383 -17.0586
v 27.1523 28.4531 2.6523
v 27.5820 40.4922 -1.5898
v 24.0000 21.9062 -9.0234
v 27.1523 28.4531 2.6523
v 18.9883 41.4023 13.2148
v 23.9492 33.3438 11.8477
v 19.1445 41.3477 18.8633
v 19.1445 41.3477 18.8633
v 23.9492 33.3438 11.8477
v 22.6602 48.5352 13.7891
v 9.0664 51.8594 22.2305
v 12.6250 41.3438 23.3047
v 0.0000 57.9414 21.2227
v 10.1992 57.8672 19.4648
v 0.0000 41.3281 26.4883
v 0.0000 41.4023 13.2148
v -11.3984 34.1562 -31.6953
v -11.3086 22.5742 -29.8398
v -19.7891 24.1953 -25.3828
v -18.6641 15.5547 -13.8867
v -19.3555 35.5977 -24.9492
v -24.0000 21.9062 -9.0234
v -26.1289 33.0000 -16.0000
v -24.6250 37.2383 -17.0586
v -27.1523 28.4531 2.6523
v -27.5820 40.4922 -1.5898
v 0.0000 41.3281 26.4883
v -12.6250 41.3438 23.3047
v -19.1445 41.3477 18.8633
v -18.9883 41.4023 13.2148
v 12.6250 41.3438 23.3047
v -23.9492 33.3438 11.8477
v -22.6602 48.5352 13.7891
v -19.1445 41.3477 18.8633
v -9.0664 51.8594 22.2305
v -10.1992 57.8672 19.4648
v -12.6250 41.3438 23.3047
v -23.9492 33.3438 11.8477
v -27.1523 28.4531 2.6523
v -24.0000 21.9062 -9.0234
v 0.0000 51.8594 24.6680
v -18.6641 15.5547 -13.8867
v 18.6641 15.5547 -13.8867
v 23.2227 13.8633 -20.9336
v 16.5898 17.5820 -27.0625
v 9.6836 20.9453 -14.6836
v 20.4531 9.7422 -29.3438
v 21.3008 4.1523 -25.5469
v 11.5859 9.3906 -25.2617
v 18.2188 5.6680 -19.1289
v 29.5625 3.0898 -26.4062
v 21.7461 5.6484 -31.5156
v 19.3672 6.8164 -24.9531
v 26.1641 -0.7422 -34.6211
v 28.6016 -6.7656 -31.1875
v 18.3516 -3.1797 -29.4414
v 26.1680 -5.7383 -24.3320
v 21.7500 0.6523 -21.2266
v 32.8398 -11.0625 -42.6914
v 26.8594 -5.9492 -37.4883
v 37.4375 -6.8477 -37.2422
v 31.3203 -2.3047 -32.4297
v 28.8672 -14.3711 -34.3828
v 26.1094 -9.8906 -30.8750
v 39.3086 -12.9766 -33.1602
v 33.2695 -8.4219 -28.0547
v 39.9688 -15.9219 -41.8750
v 26.5195 -4.4922 -30.0898
v -23.2227 13.8633 -20.9336
v -9.6836 20.9453 -14.6836
v -16.5898 17.5820 -27.0625
v -20.4531 9.7422 -29.3438
v -21.3008 4.1523 -25.5469
v -11.5859 9.3906 -25.2617
v -18.2188 5.6680 -19.1289
v -29.5625 3.0898 -26.4062
v -19.3672 6.8164 -24.9531
v -21.7461 5.6484 -31.5156
v -26.1641 -0.7422 -34.6211
v -28.6016 -6.7656 -31.1875
v -18.3516 -3.1797 -29.4414
v -26.1680 -5.7383 -24.3320
v -21.7500 0.6523 -21.2266
v -32.8398 -11.0625 -42.6914
v -37.4375 -6.8477 -37.2422
v -26.8594 -5.9492 -37.4883
v -31.3203 -2.3047 -32.4297
v -26.1094 -9.8906 -30.8750
v -28.8672 -14.3711 -34.3828
v -39.3086 -12.9766 -33.1602
v -33.2695 -8.4219 -28.0547
v -39.9688 -15.9219 -41.8750
v -26.5195 -4.4922 -30.0898
f 1 2 3
f 5 1 3
f 4 5 3
f 4 3 7
f 4 7 29
f 29 5 4
f 28 5 29
f 28 29 30
f 28 30 32
f 34 32 30
f 34 35 32
f 35 34 37
f 37 34 36
f 37 36 43
f 37 43 44
f 44 43 45
f 46 44 45
f 47 44 46
f 24 47 46
f 46 52 24
f 26 52 46
f 26 46 48
f 45 48 46
f 2 6 3
f 2 9 6
f 9 2 10
f 9 10 12
f 13 12 10
f 11 13 10
f 10 8 11
f 10 2 8
f 1 8 2
f 3 6 7
f 31 29 7
f 30 29 31
f 30 31 33
f 33 34 30
f 33 36 34
f 14 15 16
f 14 16 54
f 15 17 16
f 16 17 18
f 16 18 27
f 18 42 27
f 38 27 42
f 38 39 27
f 39 40 27
f 41 27 40
f 41 40 49
f 50 41 49
f 51 41 50
f 41 51 53
f 19 20 21
f 22 19 21
f 19 22 23
f 26 23 22
f 22 52 26
f 52 22 24
f 24 22 25
f 22 21 25
f 21 20 13
f 13 20 12
f 55 56 57
f 56 55 58
f 56 58 60
f 57 56 60
f 61 57 60
f 61 60 59
f 55 61 59
f 58 55 59
f 60 58 59
f 61 55 57
f 62 63 64
f 63 62 65
f 65 67 63
f 67 65 66
f 68 67 66
f 68 69 67
f 68 62 69
f 62 68 66
f 65 62 66
f 69 62 64
f 67 69 64
f 63 67 64
f 70 71 72
f 78 70 72
f 70 78 74
f 74 71 70
f 71 74 75
f 79 71 75
f 79 73 71
f 79 77 73
f 79 75 77
f 74 77 75
f 76 77 74
f 72 77 76
f 73 77 72
f 72 71 73
f 76 78 72
f 78 76 74
f 80 81 82
f 82 83 80
f 82 85 83
f 81 85 82
f 86 85 81
f 86 84 85
f 80 84 86
f 83 84 80
f 85 84 83
f 86 81 80
f 87 88 89
f 89 90 87
f 90 89 92
f 92 91 90
f 93 91 92
f 93 92 94
f 93 94 87
f 87 91 93
f 90 91 87
f 94 88 87
f 92 88 94
f 89 88 92
f 95 96 97
f 103 96 95
f 95 100 103
f 100 95 97
f 97 99 100
f 104 99 97
f 104 97 98
f 104 98 102
f 104 102 99
f 100 99 102
f 101 100 102
f 102 96 101
f 98 96 102
f 97 96 98
f 101 96 103
f 103 100 101
