v 22.2891 35.2344 20.0430
v 15.2695 33.6211 25.0000
v 22.6836 20.9570 16.5703
v 24.7266 31.0000 13.7891
v 9.9141 47.5898 24.3906
v 16.5156 51.5859 17.5977
v 24.2227 41.0000 12.0000
v 7.8867 54.6602 21.9531
v 29.0000 33.0000 0.0000
v 27.5820 40.4922 -1.5898
v 24.6836 44.4180 10.2773
v 19.3555 35.5977 -24.9492
v 24.6250 38.1406 -13.0039
v 23.2969 33.7148 -21.0000
v 11.3984 34.1562 -31.6953
v 11.2969 30.6172 -31.4609
v 0.0000 33.4023 -34.2578
v 0.0000 -6.0000 -25.5781
v 0.0000 6.0000 -36.0000
v 10.6562 6.0000 -30.8477
v 24.9570 22.0000 -9.0000
v 30.4805 15.5000 0.0000
v 23.0000 20.5000 -24.0000
v 11.0000 20.0000 -33.8477
v 28.0547 15.5000 9.5234
v 22.0000 -2.0000 0.0000
v 24.0000 8.0000 -8.0000
v 14.0000 -4.0000 -17.0000
v 20.7266 6.5430 -22.0859
v 7.8867 54.6602 21.9531
v 8.2969 55.3672 11.3164
v 9.9141 47.5898 24.3906
v 15.2695 33.6211 25.0000
v 22.6836 20.9570 16.5703
v 24.7266 31.0000 13.7891
v 24.2227 41.0000 12.0000
v 9.1602 6.9531 -16.0938
v 0.0000 -6.0000 -25.5781
v 10.6562 6.0000 -30.8477
v 14.0000 -4.0000 -17.0000
v -9.1602 6.9531 -16.0938
v 24.0000 8.0000 -8.0000
v 16.2344 18.6758 -6.1953
v 14.3281 12.9883 -0.8477
v 22.0000 -2.0000 0.0000
v 28.0547 15.5000 9.5234
v 8.2969 55.3672 11.3164
v 0.0000 20.0000 -38.0000
v 0.0000 30.0508 -34.3320
v -22.2891 35.2344 20.0430
v -22.6836 20.9570 16.5703
v -15.2695 33.6211 25.0000
v -24.7266 31.0000 13.7891
v -9.9141 47.5898 24.3906
v -16.5156 51.5859 17.5977
v -24.2227 41.0000 12.0000
v -7.8867 54.6602 21.9531
v -29.0000 33.0000 0.0000
v -27.5820 40.4922 -1.5898
v -24.6836 44.4180 10.2773
v -19.3555 35.5977 -24.9492
v -23.2969 33.7148 -21.0000
v -24.6250 38.1406 -13.0039
v -11.3984 34.1562 -31.6953
v -11.2969 30.6172 -31.4609
v -10.6562 6.0000 -30.8477
v -24.9570 22.0000 -9.0000
v -30.4805 15.5000 0.0000
v -23.0000 20.5000 -24.0000
v -11.0000 20.0000 -33.8477
v -28.0547 15.5000 9.5234
v -22.0000 -2.0000 0.0000
v -24.0000 8.0000 -8.0000
v -14.0000 -4.0000 -17.0000
v -20.7266 6.5430 -22.0859
v -7.8867 54.6602 21.9531
v -9.9141 47.5898 24.3906
v -8.2969 55.3672 11.3164
v -15.2695 33.6211 25.0000
v -22.6836 20.9570 16.5703
v -24.7266 31.0000 13.7891
v -24.2227 41.0000 12.0000
v -10.6562 6.0000 -30.8477
v -14.0000 -4.0000 -17.0000
v -24.0000 8.0000 -8.0000
v -16.2344 18.6758 -6.1953
v -14.3281 12.9883 -0.8477
v -22.0000 -2.0000 0.0000
v -28.0547 15.5000 9.5234
v -8.2969 55.3672 11.3164
v -9.1602 6.9531 -16.0938
v 16.2344 18.6758 -6.1953
v 9.1602 6.9531 -16.0938
f 1 2 3
f 4 1 3
f 7 1 4
f 6 1 7
f 1 6 5
f 5 2 1
f 5 6 8
f 7 11 6
f 7 10 11
f 9 10 7
f 25 9 7
f 22 9 25
f 21 9 22
f 9 21 14
f 14 13 9
f 12 13 14
f 16 12 14
f 15 12 16
f 15 16 17
f 16 49 17
f 48 49 16
f 16 24 48
f 16 23 24
f 14 23 16
f 21 23 14
f 21 29 23
f 27 29 21
f 22 27 21
f 26 27 22
f 25 26 22
f 18 19 20
f 18 66 19
f 19 66 70
f 19 70 48
f 19 48 24
f 19 24 20
f 20 24 29
f 20 29 28
f 28 29 27
f 29 24 23
f 30 31 32
f 32 31 33
f 33 31 34
f 34 31 35
f 35 31 36
f 36 47 46
f 46 47 44
f 45 46 44
f 44 42 45
f 43 42 44
f 42 43 37
f 40 42 37
f 37 39 40
f 37 38 39
f 41 38 37
f 41 83 38
f 41 84 83
f 84 41 85
f 85 41 86
f 86 87 85
f 87 88 85
f 88 87 89
f 89 87 90
f 82 89 90
f 81 82 78
f 80 81 78
f 79 80 78
f 77 79 78
f 76 77 78
f 13 10 9
f 50 51 52
f 53 51 50
f 56 53 50
f 55 56 50
f 50 54 55
f 54 50 52
f 54 57 55
f 56 55 60
f 56 60 59
f 58 56 59
f 71 56 58
f 68 71 58
f 67 68 58
f 58 62 67
f 62 58 63
f 61 62 63
f 65 62 61
f 64 65 61
f 64 17 65
f 65 17 49
f 48 65 49
f 65 48 70
f 65 70 69
f 62 65 69
f 67 62 69
f 67 69 75
f 73 67 75
f 68 67 73
f 72 68 73
f 71 68 72
f 74 73 75
f 66 74 75
f 66 75 70
f 75 69 70
f 63 58 59
f 86 91 92
f 92 91 93
