v 11.3984 34.1562 -31.6953
v 11.3047 22.5742 -29.8398
v 0.0000 33.5469 -34.3477
v 23.3750 23.2930 -17.4453
v 19.1836 15.1133 -13.0039
v 19.7852 24.1953 -25.3828
v 10.2930 9.5547 -18.3516
v 24.6641 21.4648 -8.1406
v 5.6992 42.8164 26.7070
v 0.0000 55.9219 22.2500
v 0.0000 42.5898 27.3789
v 16.0977 42.5898 22.8516
v 10.3984 42.5898 25.8906
v 10.3984 34.8594 23.0430
v 25.1562 42.7266 8.7578
v 26.0078 39.0000 9.0000
v 27.5820 40.4922 -1.5898
v 28.4219 32.7930 0.0000
v 0.0000 38.4492 4.1523
v 5.6992 42.8164 26.7070
v 0.0000 35.3164 25.5742
v 10.3984 34.8594 23.0430
v 10.1250 53.8477 21.9883
v 0.0000 35.3164 25.5742
v 21.5742 43.2500 17.0000
v 20.0977 35.0000 18.0000
v 26.1250 33.4336 -16.0000
v 19.3555 35.5977 -24.9492
v 24.6250 37.2383 -17.0586
v 0.0000 22.0156 -31.3750
v 0.0000 8.2305 -19.6289
v 17.9258 50.0273 17.8906
v 23.8672 27.7383 10.0000
v 19.0938 29.8828 8.8281
v 20.0977 35.0000 18.0000
v 23.8672 27.7383 10.0000
v 16.0977 42.5898 22.8516
v -11.3047 22.5742 -29.8398
v -10.2930 9.5547 -18.3516
v -19.1836 15.1133 -13.0039
v -19.7852 24.1953 -25.3828
v -23.3750 23.2930 -17.4453
v -24.6641 21.4648 -8.1406
v -5.6992 42.8164 26.7070
v -16.0977 42.5898 22.8516
v -10.3984 34.8594 23.0430
v -10.3984 42.5898 25.8906
v -5.6992 42.8164 26.7070
v -10.3984 34.8594 23.0430
v -10.1250 53.8477 21.9883
v -21.5742 43.2500 17.0000
v -26.0078 39.0000 9.0000
v -20.0977 35.0000 18.0000
v -26.1250 33.4336 -16.0000
v -28.4219 32.7930 0.0000
v -11.3984 34.1562 -31.6953
v -19.3555 35.5977 -24.9492
v -24.6250 37.2383 -17.0586
v -17.9258 50.0273 17.8906
v -25.1562 42.7266 8.7578
v -23.8672 27.7383 10.0000
v -23.8672 27.7383 10.0000
v -19.0938 29.8828 8.8281
v -20.0977 35.0000 18.0000
v -16.0977 42.5898 22.8516
v -27.5820 40.4922 -1.5898
v -28.4219 32.7930 0.0000
v -22.7383 33.9258 0.8281
v -19.1836 15.1133 -13.0039
v -15.3477 19.7773 -9.5703
v -24.6641 21.4648 -8.1406
v 0.0000 8.2305 -19.6289
v 0.0000 14.2734 -14.8711
v -10.2930 9.5547 -18.3516
v 10.2930 9.5547 -18.3516
v 15.3477 19.7773 -9.5703
v 19.1836 15.1133 -13.0039
v 24.6641 21.4648 -8.1406
v 22.7383 33.9258 0.8281
v 28.4219 32.7930 0.0000
f 1 2 3
f 2 1 6
f 7 2 6
f 7 6 5
f 4 5 6
f 4 8 5
f 8 4 27
f 8 27 18
f 27 17 18
f 29 17 27
f 27 28 29
f 6 28 27
f 6 27 4
f 6 1 28
f 9 10 11
f 9 11 24
f 44 24 11
f 44 11 10
f 44 10 50
f 50 47 44
f 45 47 50
f 45 46 47
f 47 46 44
f 12 13 14
f 12 23 13
f 12 32 23
f 25 32 12
f 26 25 12
f 25 26 16
f 16 15 25
f 15 16 17
f 17 16 18
f 18 16 33
f 26 33 16
f 13 9 14
f 23 9 13
f 9 23 10
f 19 20 21
f 22 20 19
f 19 37 22
f 37 19 35
f 19 34 35
f 35 34 36
f 34 79 36
f 36 79 80
f 79 76 80
f 76 78 80
f 77 78 76
f 75 77 76
f 73 75 76
f 72 75 73
f 72 73 74
f 73 70 74
f 70 69 74
f 69 70 71
f 70 67 71
f 68 67 70
f 67 68 62
f 62 68 63
f 62 63 64
f 64 63 19
f 65 64 19
f 65 19 49
f 19 48 49
f 19 21 48
f 30 2 31
f 30 31 38
f 3 30 38
f 3 2 30
f 56 3 38
f 38 41 56
f 39 41 38
f 39 40 41
f 42 41 40
f 42 40 43
f 54 42 43
f 54 43 55
f 55 66 54
f 52 66 55
f 55 61 52
f 53 52 61
f 51 52 53
f 51 60 52
f 59 60 51
f 59 51 45
f 45 50 59
f 51 53 45
f 7 31 2
f 39 38 31
f 41 42 54
f 41 54 57
f 41 57 56
f 57 54 58
f 54 66 58
f 60 66 52
f 25 15 32
