v -24.3086 57.8828 6.0039
v -26.6367 48.7383 3.1289
v -26.5625 53.6055 15.6719
v -29.6797 44.6875 7.0508
v -24.3516 44.9648 21.2031
v -28.6562 39.3477 10.0625
v -19.4922 37.3477 20.6133
v -26.0000 36.0000 10.3555
v -19.6445 63.5742 7.4961
v -18.7500 62.2383 20.4922
v -16.9023 52.3633 29.3867
v -11.5234 42.4844 27.8398
v -10.3984 68.7148 8.4961
v -10.3086 66.2539 21.9414
v -4.4922 49.5586 30.9688
v -9.6992 58.3438 30.8320
v 0.0000 67.4570 22.3516
v 0.0000 69.7734 8.7734
v 0.0000 57.2891 28.2461
v 0.0000 62.2461 27.7344
v -32.1445 36.1992 -3.0273
v -10.5977 67.4883 -6.0039
v -20.0977 61.2383 -3.9062
v 0.0000 69.2383 -6.3125
v -18.7617 58.1797 -15.8359
v -25.4375 52.9570 -2.8633
v -10.8359 63.9883 -17.9219
v 0.0000 65.5625 -18.5469
v -25.4375 44.2617 -12.9023
v -27.8750 42.9258 -1.4297
v -10.5977 56.1133 -27.0273
v 0.0000 57.2812 -28.4180
v -19.7852 43.6992 -26.3945
v 0.0000 46.1250 -34.8594
v -10.5977 45.5039 -33.1562
v 0.0000 33.4336 -35.2422
v -11.3047 33.4336 -33.5195
v -19.7852 24.1953 -25.3828
v -26.1250 33.4336 -16.0000
v 0.0000 22.0156 -31.3750
v -11.3047 22.5742 -29.8398
v -22.8281 17.2227 -16.1758
v -18.2891 0.7031 -13.8125
v 0.0000 1.5898 -24.9648
v -8.9297 4.6367 -22.4062
v -25.0547 15.6328 -6.9062
v -27.8594 30.0000 0.0000
v -24.3867 46.2188 10.4219
v -26.6367 48.7383 3.1289
v -24.3086 57.8828 6.0039
v 0.0000 56.6172 18.8086
v -26.6367 48.7383 3.1289
v -32.1445 36.1992 -3.0273
v -26.0000 36.0000 10.3555
v -4.4922 49.5586 30.9688
v -11.5234 42.4844 27.8398
v 0.0000 57.2891 28.2461
v -19.4922 37.3477 20.6133
v -24.5352 25.4453 11.0117
v 24.3086 57.8828 6.0039
v 26.5625 53.6055 15.6719
v 26.6367 48.7383 3.1289
v 29.6797 44.6875 7.0508
v 24.3516 44.9648 21.2031
v 19.4922 37.3477 20.6133
v 28.6562 39.3477 10.0625
v 26.0000 36.0000 10.3555
v 19.6445 63.5742 7.4961
v 18.7500 62.2383 20.4922
v 16.9023 52.3633 29.3867
v 11.5234 42.4844 27.8398
v 10.3984 68.7148 8.4961
v 10.3086 66.2539 21.9414
v 4.4922 49.5586 30.9688
v 9.6992 58.3438 30.8320
v 32.1445 36.1992 -3.0273
v 10.5977 67.4883 -6.0039
v 20.0977 61.2383 -3.9062
v 25.4375 52.9570 -2.8633
v 18.7617 58.1797 -15.8359
v 10.8359 63.9883 -17.9219
v 25.4375 44.2617 -12.9023
v 27.8750 42.9258 -1.4297
v 10.5977 56.1133 -27.0273
v 19.7852 43.6992 -26.3945
v 10.5977 45.5039 -33.1562
v 11.3047 33.4336 -33.5195
v 26.1250 33.4336 -16.0000
v 19.7852 24.1953 -25.3828
v 11.3047 22.5742 -29.8398
v 22.8281 17.2227 -16.1758
v 18.2891 0.7031 -13.8125
v 8.9297 4.6367 -22.4062
v 25.0547 15.6328 -6.9062
v 27.8594 30.0000 0.0000
v 24.3867 46.2188 10.4219
v 26.6367 48.7383 3.1289
v 32.1445 36.1992 -3.0273
v 26.0000 36.0000 10.3555
v 24.3086 57.8828 6.0039
v 26.6367 48.7383 3.1289
v 11.5234 42.4844 27.8398
v 4.4922 49.5586 30.9688
v 19.4922 37.3477 20.6133
v 24.5352 25.4453 11.0117
v -9.5547 13.3789 -15.6406
v -18.2891 0.7031 -13.8125
v -8.9297 4.6367 -22.4062
v 8.9297 4.6367 -22.4062
v 18.2891 0.7031 -13.8125
v 9.5547 13.3789 -15.6406
v 0.0000 1.5898 -24.9648
v 25.0547 15.6328 -6.9062
v -25.0547 15.6328 -6.9062
v -27.8594 30.0000 0.0000
v 27.8594 30.0000 0.0000
v -24.5352 25.4453 11.0117
v 0.0000 34.7930 5.0156
v -24.3867 46.2188 10.4219
v 0.0000 34.7930 5.0156
v 24.5352 25.4453 11.0117
v 24.3867 46.2188 10.4219
f 1 2 3
f 3 2 4
f 5 6 7
f 8 7 6
f 3 4 5
f 6 5 4
f 9 1 10
f 10 1 3
f 11 5 12
f 7 12 5
f 10 3 11
f 5 11 3
f 9 10 13
f 14 13 10
f 12 15 11
f 15 16 11
f 11 16 10
f 16 14 10
f 14 17 13
f 13 17 18
f 15 19 16
f 19 20 16
f 16 20 14
f 20 17 14
f 2 21 4
f 6 21 8
f 4 21 6
f 13 22 9
f 22 23 9
f 13 18 22
f 18 24 22
f 9 23 1
f 23 25 26
f 22 27 23
f 28 27 24
f 27 22 24
f 29 30 26
f 27 31 25
f 28 32 27
f 32 31 27
f 25 33 29
f 33 25 31
f 32 34 31
f 34 35 31
f 34 36 35
f 36 37 35
f 33 38 39
f 37 33 35
f 36 40 37
f 40 41 37
f 42 38 43
f 40 44 41
f 44 45 41
f 27 25 23
f 41 45 38
f 37 38 33
f 46 47 39
f 42 43 46
f 35 33 31
f 29 39 30
f 48 49 30
f 49 26 30
f 33 39 29
f 38 37 41
f 38 45 43
f 38 42 39
f 42 46 39
f 25 29 26
f 49 1 26
f 50 51 52
f 53 52 51
f 51 54 53
f 51 55 56
f 51 57 55
f 58 54 51
f 58 51 56
f 1 23 26
f 30 39 47
f 30 47 48
f 48 47 59
f 60 61 62
f 61 63 62
f 64 65 66
f 67 66 65
f 61 64 63
f 66 63 64
f 68 69 60
f 69 61 60
f 70 71 64
f 65 64 71
f 69 70 61
f 64 61 70
f 68 72 69
f 73 69 72
f 71 70 74
f 74 70 75
f 70 69 75
f 75 69 73
f 73 72 17
f 72 18 17
f 74 75 19
f 19 75 20
f 75 73 20
f 20 73 17
f 62 63 76
f 66 67 76
f 63 66 76
f 72 68 77
f 77 68 78
f 72 77 18
f 18 77 24
f 68 60 78
f 78 79 80
f 77 78 81
f 28 24 81
f 81 24 77
f 82 79 83
f 81 80 84
f 28 81 32
f 32 81 84
f 80 82 85
f 85 84 80
f 32 84 34
f 34 84 86
f 34 86 36
f 36 86 87
f 85 88 89
f 87 86 85
f 36 87 40
f 40 87 90
f 91 92 89
f 40 90 44
f 44 90 93
f 81 78 80
f 90 89 93
f 87 85 89
f 94 88 95
f 91 94 92
f 86 84 85
f 82 83 88
f 96 83 97
f 97 83 79
f 85 82 88
f 89 90 87
f 89 92 93
f 89 88 91
f 91 88 94
f 80 79 82
f 97 79 60
f 98 99 51
f 51 100 101
f 51 101 98
f 51 102 103
f 51 103 57
f 104 51 99
f 104 102 51
f 60 79 78
f 83 95 88
f 83 96 95
f 96 105 95
f 106 107 108
f 109 110 111
f 108 112 106
f 106 112 111
f 112 109 111
f 111 110 113
f 114 107 106
f 115 114 106
f 111 113 116
f 117 118 119
f 118 117 115
f 115 106 118
f 116 120 111
f 120 116 121
f 121 122 120
