v 26.2969 33.4336 0.0000
v 24.7617 43.8398 10.8906
v 25.4531 28.0000 9.0000
v 26.2969 33.4336 0.0000
v 25.4531 28.0000 9.0000
v 0.0000 42.7891 11.8867
v 0.0000 22.6602 -29.5977
v 10.6641 19.9375 -25.6484
v 0.0000 9.6289 -19.1055
v 18.6641 24.7188 -23.9453
v 18.6641 15.5547 -13.8867
v 10.6641 33.4336 -31.6211
v 0.0000 33.4336 -33.2500
v 18.6641 43.1172 -24.8984
v 24.6484 33.4336 -15.0938
v 24.0000 43.6484 -12.1719
v 26.2969 42.3867 -1.3477
v 24.7617 43.8398 10.8906
v 4.8398 55.2070 22.7500
v 0.0000 55.3984 23.2500
v 0.0000 53.5234 21.2969
v 5.1953 53.5117 20.4648
v 10.9844 53.9141 18.9180
v 9.9844 54.8438 21.0977
v -26.2969 33.4336 0.0000
v -25.4531 28.0000 9.0000
v -24.7617 43.8398 10.8906
v -10.6641 19.9375 -25.6484
v -18.6641 24.7188 -23.9453
v -18.6641 15.5547 -13.8867
v -10.6641 33.4336 -31.6211
v -18.6641 43.1172 -24.8984
v -24.6484 33.4336 -15.0938
v -24.0000 43.6484 -12.1719
v -26.2969 42.3867 -1.3477
v 0.0000 42.7891 11.8867
v -24.7617 43.8398 10.8906
v -25.4531 28.0000 9.0000
v -26.2969 33.4336 0.0000
v -4.8398 55.2070 22.7500
v -5.1953 53.5117 20.4648
v -10.9844 53.9141 18.9180
v -9.9844 54.8438 21.0977
f 1 2 3
f 2 1 17
f 1 15 17
f 1 11 15
f 15 11 10
f 14 15 10
f 12 14 10
f 8 12 10
f 10 11 8
f 8 11 9
f 7 8 9
f 8 7 12
f 12 7 13
f 31 13 7
f 28 31 7
f 7 9 28
f 30 28 9
f 29 28 30
f 29 30 33
f 32 29 33
f 31 29 32
f 28 29 31
f 4 5 6
f 6 5 18
f 14 16 15
f 17 15 16
f 19 20 21
f 21 22 19
f 22 24 19
f 23 24 22
f 25 26 27
f 27 35 25
f 25 35 33
f 33 30 25
f 32 33 34
f 35 34 33
f 36 37 38
f 36 38 39
f 40 21 20
f 41 21 40
f 41 40 43
f 42 41 43
