v 20.3047 44.7695 18.8789
v 15.3320 39.3633 23.1406
v 22.7812 37.8594 17.9414
v 22.1250 34.9297 18.1836
v 24.3945 40.4609 12.4023
v 20.8164 47.8242 15.9102
v 15.7539 52.7227 18.4219
v 8.4844 46.4805 25.4531
v 2.5820 55.6250 22.2812
v 27.3633 33.0000 6.0000
v 8.4844 46.4805 25.4531
v 2.5820 55.6250 22.2812
v 0.0000 56.5469 -3.9336
v 0.0000 22.0156 -31.3750
v 10.6641 19.9375 -25.6484
v 0.0000 9.6289 -19.1055
v 18.6641 15.5547 -13.8867
v 19.7852 24.1953 -25.3828
v 0.0000 33.5469 -34.3477
v 11.3984 34.1562 -31.6953
v 26.1250 33.4336 -16.0000
v 26.2969 33.4336 0.0000
v 24.6250 37.2383 -17.0586
v 19.3555 35.5977 -24.9492
v 25.9258 43.7617 4.0430
v 24.3945 40.4609 12.4023
v 27.3633 33.0000 6.0000
v 25.6562 42.7266 8.7578
v 25.9258 43.7617 4.0430
v 20.8164 47.8242 15.9102
v 26.2969 33.4336 0.0000
v 15.3320 39.3633 23.1406
v 22.1250 34.9297 18.1836
v 27.3633 33.0000 6.0000
v 26.2969 33.4336 0.0000
v -20.3047 44.7695 18.8789
v -22.7812 37.8594 17.9414
v -15.3320 39.3633 23.1406
v -22.1250 34.9297 18.1836
v -20.8164 47.8242 15.9102
v -24.3945 40.4609 12.4023
v -8.4844 46.4805 25.4531
v -15.7539 52.7227 18.4219
v -2.5820 55.6250 22.2812
v -27.3633 33.0000 6.0000
v -10.6641 19.9375 -25.6484
v -18.6641 15.5547 -13.8867
v -19.7852 24.1953 -25.3828
v -11.3984 34.1562 -31.6953
v -26.1250 33.4336 -16.0000
v -26.2969 33.4336 0.0000
v -24.6250 37.2383 -17.0586
v -19.3555 35.5977 -24.9492
v -24.3945 40.4609 12.4023
v -25.6562 42.7266 8.7578
v -27.3633 33.0000 6.0000
v -26.2969 33.4336 0.0000
v -25.9258 43.7617 4.0430
v -20.8164 47.8242 15.9102
v 0.0000 56.5469 -3.9336
v -15.3320 39.3633 23.1406
v -22.1250 34.9297 18.1836
v -27.3633 33.0000 6.0000
v -8.4844 46.4805 25.4531
v -2.5820 55.6250 22.2812
v -26.2969 33.4336 0.0000
v -25.9258 43.7617 4.0430
f 1 2 3
f 3 5 1
f 5 3 10
f 3 4 10
f 2 4 3
f 8 2 1
f 1 7 8
f 1 6 7
f 5 6 1
f 8 7 9
f 11 12 13
f 32 11 13
f 32 13 33
f 13 34 33
f 34 13 35
f 14 15 16
f 14 16 46
f 46 49 14
f 46 48 49
f 46 47 48
f 16 47 46
f 16 15 17
f 17 15 18
f 18 21 17
f 24 21 18
f 23 21 24
f 21 23 22
f 17 21 22
f 23 25 22
f 19 20 14
f 14 49 19
f 20 15 14
f 15 20 18
f 20 24 18
f 26 27 28
f 28 30 26
f 28 27 29
f 27 31 29
f 36 37 38
f 37 36 41
f 41 45 37
f 37 45 39
f 38 37 39
f 42 36 38
f 42 43 36
f 44 43 42
f 36 43 40
f 36 40 41
f 48 47 50
f 50 53 48
f 52 53 50
f 51 52 50
f 50 47 51
f 67 52 51
f 54 55 56
f 54 59 55
f 56 55 58
f 57 56 58
f 60 61 62
f 62 63 60
f 60 63 66
f 64 61 60
f 64 60 65
f 49 48 53
