v 0.0000 9.6289 -19.1055
v 10.6641 19.6953 -25.1328
v 18.6641 15.5547 -13.8867
v 18.6641 24.7188 -23.9453
v 0.0000 22.6602 -29.5977
v 24.6484 33.4336 -15.0938
v 18.8125 43.1172 -24.8984
v 10.6641 33.4336 -31.6211
v 0.0000 33.4336 -33.2500
v 24.0000 43.6484 -12.1719
v 25.1758 25.0000 11.0000
v 0.0000 25.0000 11.0000
v 26.6016 24.0000 3.0000
v 10.0000 54.3281 19.2969
v 10.0039 55.5703 20.1445
v 4.2578 53.8750 20.4023
v 0.0000 55.4805 22.2070
v 25.1758 25.0000 11.0000
v 26.6016 24.0000 3.0000
v 25.1992 34.3086 10.0000
v 26.2969 33.4336 0.0000
v 25.1992 34.3086 10.0000
v 24.9141 40.0000 10.0000
v 24.9141 40.0000 10.0000
v 26.5508 43.0000 -1.0000
v -10.6641 19.6953 -25.1328
v -18.6641 15.5547 -13.8867
v -18.6641 24.7188 -23.9453
v -24.6484 33.4336 -15.0938
v -18.8125 43.1172 -24.8984
v -10.6641 33.4336 -31.6211
v -24.0000 43.6484 -12.1719
v -26.5508 43.0000 -1.0000
v -26.2969 33.4336 0.0000
v -24.9141 40.0000 10.0000
v -25.1992 34.3086 10.0000
v -25.1758 25.0000 11.0000
v -26.6016 24.0000 3.0000
v 0.0000 25.0000 11.0000
v -10.0000 54.3281 19.2969
v -4.2578 53.8750 20.4023
v -10.0039 55.5703 20.1445
v -26.6016 24.0000 3.0000
v -25.1758 25.0000 11.0000
v -25.1992 34.3086 10.0000
v -24.9141 40.0000 10.0000
v 0.0000 53.7344 21.1836
v 23.9609 47.0000 10.6250
v 23.9609 47.0000 10.6250
v -23.9609 47.0000 10.6250
v -23.9609 47.0000 10.6250
v 26.2969 33.4336 0.0000
v -26.2969 33.4336 0.0000
f 1 2 3
f 5 2 1
f 2 5 8
f 8 4 2
f 7 4 8
f 6 4 7
f 7 10 6
f 10 25 6
f 6 25 21
f 3 6 21
f 4 6 3
f 3 2 4
f 5 9 8
f 9 5 31
f 31 5 26
f 31 26 28
f 30 31 28
f 29 30 28
f 30 29 32
f 32 29 33
f 29 34 33
f 29 27 34
f 28 27 29
f 26 27 28
f 1 27 26
f 5 1 26
f 11 12 13
f 22 12 11
f 23 12 22
f 49 12 23
f 13 12 38
f 13 38 52
f 52 38 53
f 37 38 39
f 45 37 39
f 46 45 39
f 50 46 39
f 38 12 39
f 14 15 16
f 17 16 15
f 47 16 17
f 47 17 41
f 17 42 41
f 40 41 42
f 18 19 20
f 19 21 20
f 21 24 20
f 25 24 21
f 48 24 25
f 33 34 35
f 51 33 35
f 36 35 34
f 34 43 36
f 36 43 44
