v 0.0000 58.0273 27.5703
v -15.2070 55.8711 24.5078
v -6.0000 43.0000 30.2500
v -15.7227 42.3359 27.3828
v -10.9766 35.3555 27.4492
v 0.0000 52.4688 6.6758
v -6.0000 43.0000 30.2500
v -10.9766 35.3555 27.4492
v 0.0000 43.1055 31.5117
v 0.0000 35.6445 29.2695
v 0.0000 35.6445 29.2695
v -14.0820 49.2148 12.7969
v -20.4688 35.1523 23.0039
v -25.8047 30.7227 13.5000
v -26.6211 39.5898 18.0586
v -28.1211 45.1680 11.0234
v -29.1875 37.0000 7.0000
v -29.1875 37.0000 7.0000
v -28.1211 45.1680 11.0234
v -24.7891 55.2891 15.2461
v -6.3203 67.7109 16.6523
v -16.7695 63.5508 16.5039
v -33.0000 28.0000 1.0000
v -25.8047 30.7227 13.5000
v 0.0000 50.9062 -32.1016
v 0.0000 37.0586 -35.1328
v -10.5977 50.0508 -30.5273
v -11.1016 36.8828 -33.4141
v 0.0000 62.0156 -22.7773
v -10.5977 60.6172 -21.6641
v 0.0000 68.1875 -9.8086
v -10.5977 66.4883 -9.3281
v 0.0000 70.6914 1.9844
v -10.5586 69.2539 1.8047
v -20.5742 58.2266 -16.1328
v -19.7852 43.6992 -26.3945
v -26.6562 43.5938 -7.1641
v -25.9141 21.4961 -6.6133
v -27.7969 21.4414 3.0391
v -21.4609 59.8828 0.1836
v -17.7852 22.3867 -27.3008
v 0.0000 23.7656 -32.3047
v -31.7617 9.0938 -5.3086
v 0.0000 12.7422 -31.8633
v -14.0430 11.5586 -26.7891
v 0.0000 -1.0234 -37.4609
v -12.5625 -0.1523 -32.4023
v -31.5586 -0.7266 -4.0273
v -24.0977 -11.9961 -3.1250
v -29.6680 0.9102 2.8672
v -21.7969 2.3398 -23.8633
v -18.1641 -9.2461 -23.1406
v -25.1484 3.9102 -15.3438
v -8.2344 -13.6172 -30.3281
v 8.2344 -13.6172 -30.3281
v -33.0000 28.0000 1.0000
v -15.7227 42.3359 27.3828
v 6.3203 67.7109 16.6523
v -24.8359 -3.8164 -11.6562
v -25.5391 9.9219 -15.1836
v -30.5117 10.9688 3.6953
v -20.4688 35.1523 23.0039
v 6.0000 43.0000 30.2500
v 15.2070 55.8711 24.5078
v 15.7227 42.3359 27.3828
v 10.9766 35.3555 27.4492
v 6.0000 43.0000 30.2500
v 10.9766 35.3555 27.4492
v 14.0820 49.2148 12.7969
v 25.8047 30.7227 13.5000
v 20.4688 35.1523 23.0039
v 28.1211 45.1680 11.0234
v 29.1875 37.0000 7.0000
v 26.6211 39.5898 18.0586
v 24.7891 55.2891 15.2461
v 16.7695 63.5508 16.5039
v 25.8047 30.7227 13.5000
v 33.0000 28.0000 1.0000
v 29.1875 37.0000 7.0000
v 10.5977 50.0508 -30.5273
v 11.1016 36.8828 -33.4141
v 10.5977 60.6172 -21.6641
v 10.5977 66.4883 -9.3281
v 10.5586 69.2539 1.8047
v 19.7852 43.6992 -26.3945
v 17.7852 22.3867 -27.3008
v 20.5742 58.2266 -16.1328
v 28.1211 45.1680 11.0234
v 21.4609 59.8828 0.1836
v 26.6562 43.5938 -7.1641
v 25.9141 21.4961 -6.6133
v 27.7969 21.4414 3.0391
v 31.7617 9.0938 -5.3086
v 14.0430 11.5586 -26.7891
v 25.5391 9.9219 -15.1836
v 12.5625 -0.1523 -32.4023
v 31.5586 -0.7266 -4.0273
v 29.6680 0.9102 2.8672
v 24.0977 -11.9961 -3.1250
v 21.7969 2.3398 -23.8633
v 25.1484 3.9102 -15.3438
v 18.1641 -9.2461 -23.1406
v 33.0000 28.0000 1.0000
v 15.7227 42.3359 27.3828
v 24.8359 -3.8164 -11.6562
v 30.5117 10.9688 3.6953
v 20.4688 35.1523 23.0039
v -12.0469 10.8438 -1.7578
v -28.1211 45.1680 11.0234
v -27.7969 21.4414 3.0391
v -29.6680 0.9102 2.8672
v -30.5117 10.9688 3.6953
v -24.0977 -11.9961 -3.1250
v -24.8359 -3.8164 -11.6562
v -25.1484 3.9102 -15.3438
v -12.5742 18.8008 -7.8672
v -18.1641 -9.2461 -23.1406
v -8.2344 -13.6172 -30.3281
v 8.2344 -13.6172 -30.3281
v 12.5742 18.8008 -7.8672
v 18.1641 -9.2461 -23.1406
v 25.1484 3.9102 -15.3438
v 24.0977 -11.9961 -3.1250
v 12.0469 10.8438 -1.7578
v 24.8359 -3.8164 -11.6562
v 29.6680 0.9102 2.8672
v 28.1211 45.1680 11.0234
v 27.7969 21.4414 3.0391
v 30.5117 10.9688 3.6953
f 1 2 3
f 9 1 3
f 9 3 11
f 9 11 63
f 9 63 1
f 1 63 64
f 64 58 1
f 76 58 64
f 84 58 76
f 33 58 84
f 33 21 58
f 33 34 21
f 34 33 32
f 34 32 40
f 34 40 22
f 34 22 21
f 21 22 2
f 21 2 1
f 1 58 21
f 3 2 4
f 4 8 3
f 15 4 2
f 62 4 15
f 24 62 15
f 15 23 24
f 17 23 15
f 15 16 17
f 15 20 16
f 15 2 20
f 20 2 22
f 40 20 22
f 20 40 16
f 16 40 37
f 37 39 16
f 38 39 37
f 37 36 38
f 35 36 37
f 35 27 36
f 30 27 35
f 25 27 30
f 25 26 27
f 25 80 26
f 25 82 80
f 29 82 25
f 29 25 30
f 29 30 31
f 29 31 82
f 82 31 83
f 82 83 87
f 80 82 87
f 85 80 87
f 81 80 85
f 26 80 81
f 81 42 26
f 86 42 81
f 81 85 86
f 85 91 86
f 90 91 85
f 87 90 85
f 89 90 87
f 89 88 90
f 75 88 89
f 89 76 75
f 84 76 89
f 84 89 83
f 84 83 33
f 33 83 31
f 33 31 32
f 30 32 31
f 30 35 32
f 32 35 40
f 40 35 37
f 5 6 7
f 6 5 12
f 12 5 57
f 12 57 13
f 12 13 14
f 14 56 12
f 12 56 18
f 12 18 19
f 6 10 7
f 6 67 10
f 66 67 6
f 6 69 66
f 69 104 66
f 69 71 104
f 69 70 71
f 70 69 103
f 69 73 103
f 69 72 73
f 26 28 27
f 28 26 42
f 41 28 42
f 42 44 41
f 42 86 44
f 86 94 44
f 94 86 95
f 95 100 94
f 100 95 101
f 100 101 102
f 96 100 102
f 55 96 102
f 96 55 46
f 46 44 96
f 46 47 44
f 54 47 46
f 54 46 55
f 54 52 47
f 47 52 51
f 51 45 47
f 60 45 51
f 45 60 41
f 41 44 45
f 47 45 44
f 96 44 94
f 100 96 94
f 28 36 27
f 28 41 36
f 38 36 41
f 41 60 38
f 38 60 43
f 38 43 39
f 43 61 39
f 48 61 43
f 50 61 48
f 48 49 50
f 48 59 49
f 48 53 59
f 53 48 43
f 53 43 60
f 53 60 51
f 51 52 53
f 64 63 65
f 74 64 65
f 75 64 74
f 75 74 88
f 79 88 74
f 79 74 78
f 74 77 78
f 77 74 107
f 107 74 65
f 65 63 68
f 91 92 93
f 91 93 95
f 95 86 91
f 101 95 93
f 101 93 97
f 97 105 101
f 97 99 105
f 97 98 99
f 106 98 97
f 93 106 97
f 93 92 106
f 91 90 92
f 92 90 88
f 83 89 87
f 75 76 64
f 108 109 110
f 110 112 108
f 111 108 112
f 113 108 111
f 114 108 113
f 114 116 108
f 115 116 114
f 115 117 116
f 116 117 118
f 118 120 116
f 119 120 118
f 120 119 121
f 122 120 121
f 122 125 120
f 120 125 124
f 123 124 125
f 126 124 123
f 126 129 124
f 124 129 128
f 127 124 128
