v -12.5508 53.3750 28.6016
v -21.1797 40.5352 26.5703
v -3.1094 47.6367 28.6016
v -14.3164 34.7812 26.3320
v -21.9805 51.4180 21.4336
v -31.2031 39.0391 12.0000
v -28.0664 31.6992 20.0703
v -22.6406 25.8320 19.5742
v -15.5430 63.1797 13.3984
v -2.9883 63.0820 22.9570
v 4.6211 54.8750 25.2344
v 0.0000 66.4688 13.8906
v 9.4961 65.1680 14.8516
v 10.9727 59.0000 18.9062
v -22.6406 25.8320 19.5742
v -8.4102 54.0000 11.4062
v -14.3164 34.7812 26.3320
v -3.1094 47.6367 28.6016
v 4.6211 54.8750 25.2344
v 21.8320 30.0039 -28.5000
v 11.9219 26.4453 -37.3594
v 11.2695 33.4414 -35.9531
v 0.0000 33.4336 -37.7305
v 0.0000 26.4258 -39.2422
v 27.3750 37.1680 -15.9766
v 29.2852 23.2383 -16.8438
v 30.0469 28.4844 -2.0000
v 28.3828 41.3477 2.0977
v 0.0000 57.3359 -28.6055
v 0.0000 65.5469 -18.8203
v 10.8047 56.1797 -27.2266
v 10.8359 63.9883 -17.9219
v 10.6211 45.6562 -33.3047
v 0.0000 46.2734 -34.9961
v 10.6172 67.4531 -6.3828
v 0.0000 68.8125 -6.6875
v 20.4570 60.3984 -11.2773
v 20.7969 62.9492 3.0820
v 25.2773 51.7539 -9.0273
v 19.6680 48.3711 -24.6602
v 12.3398 67.5352 3.9180
v 0.0000 68.6641 4.0000
v 29.8438 14.0508 -8.6250
v 18.1367 23.4453 0.7422
v 9.0664 13.0703 -12.8789
v 16.5156 5.6289 -21.6641
v 0.0000 2.6992 -26.5000
v 29.8438 14.0508 -8.6250
v 32.9961 23.0859 3.2031
v 27.9336 18.0859 6.3516
v 29.8438 14.0508 -8.6250
v 30.0469 28.4844 -2.0000
v 27.8633 32.4688 17.5625
v 25.9414 41.5820 20.7617
v 21.8906 28.0820 19.5742
v 18.1172 39.7031 23.4062
v 31.2031 39.0391 12.0000
v 13.8164 52.2266 21.7383
v 23.7734 53.0000 19.3555
v 19.0898 62.9414 11.9492
v 10.9727 59.0000 18.9062
v 8.4102 54.0000 11.4102
v 13.8164 52.2266 21.7383
v 26.9570 53.2227 12.3281
v 27.9336 18.0859 6.3516
v 21.8906 28.0820 19.5742
v 22.3633 16.6484 -28.1758
v 16.5156 5.6289 -21.6641
v 11.1406 7.5586 -33.0859
v 0.0000 7.5547 -34.8672
v 0.0000 2.6992 -26.5000
v 18.1172 39.7031 23.4062
v 26.0625 53.4609 3.3203
v 11.9961 16.5586 -36.5586
v 0.0000 16.5391 -38.4609
v -21.8320 30.0039 -28.5000
v -11.2695 33.4414 -35.9531
v -11.9219 26.4453 -37.3594
v -27.3750 37.1680 -15.9766
v -29.2852 23.2383 -16.8438
v -30.0469 28.4844 -2.0000
v -28.3828 41.3477 2.0977
v -10.8047 56.1797 -27.2266
v -10.8359 63.9883 -17.9219
v -10.6211 45.6562 -33.3047
v -10.6172 67.4531 -6.3828
v -20.4570 60.3984 -11.2773
v -25.2773 51.7539 -9.0273
v -20.7969 62.9492 3.0820
v -19.6680 48.3711 -24.6602
v -12.3398 67.5352 3.9180
v -29.8438 14.0508 -8.6250
v -18.1367 23.4453 0.7422
v -16.5156 5.6289 -21.6641
v -9.0664 13.0703 -12.8789
v -29.8438 14.0508 -8.6250
v -32.9961 23.0859 3.2031
v -29.8438 14.0508 -8.6250
v -28.6836 18.0859 6.3516
v -30.0469 28.4844 -2.0000
v -26.9570 53.2227 12.3281
v -28.6836 18.0859 6.3516
v -16.5156 5.6289 -21.6641
v -22.3633 16.6484 -28.1758
v -11.1406 7.5586 -33.0859
v -26.0625 53.4609 3.3203
v -11.9961 16.5586 -36.5586
v 7.1445 59.3711 11.4102
f 1 2 3
f 3 11 1
f 1 11 10
f 9 1 10
f 5 1 9
f 101 5 9
f 89 101 9
f 9 91 89
f 91 9 12
f 12 42 91
f 12 41 42
f 41 12 13
f 60 41 13
f 60 13 14
f 59 60 14
f 58 59 14
f 54 59 58
f 56 54 58
f 56 55 54
f 53 54 55
f 53 57 54
f 53 49 57
f 49 53 50
f 49 50 51
f 52 49 51
f 28 49 52
f 28 57 49
f 57 28 73
f 64 57 73
f 64 59 57
f 64 60 59
f 38 60 64
f 60 38 41
f 38 35 41
f 38 37 35
f 37 38 39
f 37 39 40
f 37 40 31
f 37 31 32
f 32 35 37
f 35 32 36
f 36 42 35
f 36 86 42
f 86 36 84
f 86 84 87
f 86 87 89
f 86 89 91
f 91 42 86
f 41 35 42
f 3 2 4
f 2 7 4
f 6 7 2
f 2 5 6
f 1 5 2
f 6 5 101
f 101 106 6
f 106 101 89
f 88 106 89
f 87 88 89
f 87 90 88
f 83 90 87
f 83 87 84
f 30 83 84
f 29 83 30
f 29 30 31
f 31 33 29
f 33 31 40
f 20 33 40
f 40 25 20
f 25 40 39
f 28 25 39
f 27 25 28
f 27 26 25
f 27 43 26
f 26 43 67
f 20 26 67
f 25 26 20
f 20 21 22
f 20 22 33
f 22 34 33
f 23 34 22
f 22 21 23
f 24 23 21
f 24 21 74
f 75 24 74
f 75 74 69
f 70 75 69
f 70 69 71
f 70 71 105
f 70 105 75
f 75 105 107
f 75 107 24
f 24 107 78
f 24 78 23
f 77 23 78
f 76 77 78
f 76 85 77
f 76 90 85
f 90 76 79
f 79 88 90
f 82 88 79
f 81 82 79
f 81 79 80
f 81 80 92
f 92 80 104
f 103 92 104
f 104 105 103
f 107 105 104
f 107 104 78
f 104 76 78
f 76 104 80
f 79 76 80
f 4 7 8
f 8 7 99
f 99 7 97
f 97 98 99
f 100 98 97
f 82 100 97
f 82 97 6
f 6 106 82
f 106 88 82
f 10 12 9
f 10 13 12
f 13 10 14
f 14 10 11
f 15 16 17
f 15 102 16
f 16 102 93
f 102 96 93
f 93 96 94
f 93 94 95
f 47 95 94
f 95 47 45
f 47 46 45
f 44 45 46
f 44 46 48
f 65 44 48
f 65 62 44
f 65 66 62
f 66 72 62
f 63 62 72
f 61 62 63
f 108 62 61
f 108 61 19
f 16 108 19
f 18 16 19
f 17 16 18
f 30 32 31
f 32 30 36
f 84 36 30
f 33 34 29
f 85 29 34
f 83 29 85
f 85 90 83
f 77 85 34
f 23 77 34
f 67 43 68
f 68 69 67
f 71 69 68
f 71 103 105
f 50 53 55
f 54 57 59
f 39 38 73
f 73 28 39
f 73 38 64
f 74 21 67
f 74 67 69
f 67 21 20
f 97 7 6
