v 31.5625 39.9766 10.6797
v 21.4648 40.7383 23.1211
v 25.4180 35.5469 14.7188
v 28.2422 51.6016 2.0078
v 29.1875 48.0117 18.5234
v 15.3086 49.9648 27.1992
v 21.3750 62.2344 8.7070
v 22.6602 56.7031 23.1328
v 12.7500 67.1992 12.0234
v 12.3906 63.5273 23.2969
v 17.8516 61.0859 -12.1523
v 0.0000 65.5625 -18.5469
v 10.5977 67.4883 -6.0039
v 0.0000 69.3906 0.0508
v 0.0000 66.5703 19.3086
v 10.5977 56.1133 -27.0273
v 22.2539 48.7188 -18.4375
v 0.0000 57.2812 -28.4180
v 9.8281 59.4922 26.3438
v 29.1758 40.2656 -14.3555
v 21.0898 40.8477 -25.1328
v 12.5391 41.5938 -35.5547
v 0.0000 41.5469 -35.9570
v 29.5938 32.0000 2.0000
v 29.5938 32.0000 2.0000
v 25.4180 35.5469 14.7188
v 22.1953 36.0469 -1.9453
v 7.0078 56.6680 16.3125
v 21.4648 40.7383 23.1211
v 15.3086 49.9648 27.1992
v 9.8281 59.4922 26.3438
v 0.0000 54.0664 13.0664
v 0.0000 56.0195 22.0156
v 0.0000 56.0195 22.0156
v 30.5625 8.0039 -14.8516
v 23.8164 3.8320 -11.8555
v 19.5625 8.2656 -24.3906
v 10.0664 3.8320 -30.3438
v 12.4336 8.4844 -33.8750
v 19.5625 8.2656 -24.3906
v 12.4336 8.4844 -33.8750
v 10.0664 3.8320 -30.3438
v 0.0000 8.4766 -33.3008
v 30.5625 8.0039 -14.8516
v 27.7422 7.1719 -0.5391
v 23.8164 3.8320 -11.8555
v 27.0859 16.2188 -13.4219
v 24.9492 16.8945 -28.7930
v 24.9492 16.8945 -28.7930
v 11.1797 17.0781 -33.1641
v 11.1797 17.0781 -33.1641
v 0.0000 17.2930 -38.8516
v 27.0859 16.2188 -13.4219
v 33.1211 15.3711 -2.8281
v 33.3320 24.5312 -16.1406
v 21.6211 25.0781 -26.7930
v 21.6211 25.0781 -26.7930
v 13.9531 25.6992 -37.8477
v 13.9531 25.6992 -37.8477
v 0.0000 25.6641 -37.1719
v 33.3320 24.5312 -16.1406
v 29.5117 23.3125 1.8828
v 27.5898 32.3398 -13.1250
v 24.7148 33.3047 -29.6250
v 11.7461 33.6133 -34.4961
v 11.7461 33.6133 -34.4961
v 0.0000 34.0234 -40.9414
v 27.5898 32.3398 -13.1250
v 33.1211 15.3711 -2.8281
v 21.4180 20.5000 -4.7070
v 27.7422 7.1719 -0.5391
v 29.5117 23.3125 1.8828
v -31.5625 39.9766 10.6797
v -25.4180 35.5469 14.7188
v -21.4648 40.7383 23.1211
v -28.2422 51.6016 2.0078
v -29.1875 48.0117 18.5234
v -15.3086 49.9648 27.1992
v -21.3750 62.2344 8.7070
v -12.7500 67.1992 12.0234
v -12.3906 63.5273 23.2969
v -17.8516 61.0859 -12.1523
v -10.5977 67.4883 -6.0039
v -10.5977 56.1133 -27.0273
v -22.2539 48.7188 -18.4375
v -22.6602 56.7031 23.1328
v -9.8281 59.4922 26.3438
v -21.0898 40.8477 -25.1328
v -29.1758 40.2656 -14.3555
v -12.5391 41.5938 -35.5547
v -29.5938 32.0000 2.0000
v -27.5898 32.3398 -13.1250
v -9.8281 59.4922 26.3438
v -7.0078 56.6680 16.3125
v -30.5625 8.0039 -14.8516
v -19.5625 8.2656 -24.3906
v -23.8164 3.8320 -11.8555
v -10.0664 3.8320 -30.3438
v -19.5625 8.2656 -24.3906
v -12.4336 8.4844 -33.8750
v -12.4336 8.4844 -33.8750
v 0.0000 8.4766 -33.3008
v -10.0664 3.8320 -30.3438
v -30.5625 8.0039 -14.8516
v -23.8164 3.8320 -11.8555
v -27.7422 7.1719 -0.5391
v -27.0859 16.2188 -13.4219
v -24.9492 16.8945 -28.7930
v -24.9492 16.8945 -28.7930
v -11.1797 17.0781 -33.1641
v -11.1797 17.0781 -33.1641
v 0.0000 17.2930 -38.8516
v -27.0859 16.2188 -13.4219
v -33.1211 15.3711 -2.8281
v -33.3320 24.5312 -16.1406
v -21.6211 25.0781 -26.7930
v -21.6211 25.0781 -26.7930
v -13.9531 25.6992 -37.8477
v -13.9531 25.6992 -37.8477
v 0.0000 25.6641 -37.1719
v -33.3320 24.5312 -16.1406
v -29.5117 23.3125 1.8828
v -27.5898 32.3398 -13.1250
v -24.7148 33.3047 -29.6250
v -11.7461 33.6133 -34.4961
v -11.7461 33.6133 -34.4961
v -10.0664 3.8320 -30.3438
v 0.0000 24.2383 -20.1484
v -19.5625 8.2656 -24.3906
v -29.5938 32.0000 2.0000
v -22.1953 36.0469 -1.9453
v -25.4180 35.5469 14.7188
v -21.4648 40.7383 23.1211
v -15.3086 49.9648 27.1992
v -23.8164 3.8320 -11.8555
v -21.4180 20.5000 -4.7070
v -27.7422 7.1719 -0.5391
v 10.0664 3.8320 -30.3438
v 0.0000 8.4766 -33.3008
v 19.5625 8.2656 -24.3906
v 23.8164 3.8320 -11.8555
v -29.5117 23.3125 1.8828
v -33.1211 15.3711 -2.8281
f 1 2 3
f 5 2 1
f 4 5 1
f 5 4 7
f 5 7 8
f 6 5 8
f 6 2 5
f 8 19 6
f 8 10 19
f 7 10 8
f 9 10 7
f 13 9 7
f 13 14 9
f 13 12 14
f 11 12 13
f 13 7 11
f 7 4 11
f 11 4 17
f 16 11 17
f 11 16 12
f 16 18 12
f 16 22 18
f 16 17 22
f 22 17 21
f 65 22 21
f 64 65 21
f 64 57 65
f 57 58 65
f 50 58 57
f 49 50 57
f 49 40 50
f 40 39 50
f 38 39 40
f 15 9 14
f 9 15 10
f 10 15 19
f 19 15 34
f 87 34 15
f 81 87 15
f 80 81 15
f 80 79 81
f 83 79 80
f 80 14 83
f 14 80 15
f 83 14 12
f 82 83 12
f 83 82 79
f 79 82 76
f 79 76 77
f 79 77 86
f 79 86 81
f 86 87 81
f 86 78 87
f 78 86 77
f 78 77 75
f 77 73 75
f 76 73 77
f 76 89 73
f 85 89 76
f 82 85 76
f 84 85 82
f 12 84 82
f 18 84 12
f 18 90 84
f 23 90 18
f 18 22 23
f 22 66 23
f 66 67 23
f 60 67 66
f 59 60 66
f 59 51 60
f 51 52 60
f 43 52 51
f 41 43 51
f 41 42 43
f 17 20 21
f 4 20 17
f 4 1 20
f 24 20 1
f 3 24 1
f 62 68 24
f 61 68 62
f 61 62 53
f 54 53 62
f 45 53 54
f 44 53 45
f 44 45 46
f 25 26 27
f 27 70 25
f 25 70 72
f 69 72 70
f 69 70 71
f 70 128 71
f 141 71 128
f 140 141 128
f 128 138 140
f 138 128 139
f 139 128 127
f 127 128 129
f 129 128 135
f 137 135 128
f 136 137 128
f 136 143 137
f 136 142 143
f 142 136 130
f 130 136 131
f 130 131 132
f 131 94 132
f 132 94 133
f 133 94 134
f 94 93 134
f 93 94 33
f 33 94 32
f 32 28 33
f 33 28 31
f 30 31 28
f 29 30 28
f 26 29 28
f 27 26 28
f 35 36 37
f 35 37 47
f 37 48 47
f 47 48 56
f 55 47 56
f 55 56 63
f 56 64 63
f 63 64 21
f 20 63 21
f 68 20 24
f 73 74 75
f 74 73 91
f 89 91 73
f 92 91 89
f 122 91 92
f 121 122 92
f 121 113 122
f 114 122 113
f 106 114 113
f 104 106 113
f 104 105 106
f 85 88 89
f 90 88 85
f 125 88 90
f 124 88 125
f 124 125 117
f 117 125 118
f 110 117 118
f 109 117 110
f 109 110 99
f 99 110 100
f 98 99 100
f 95 96 97
f 95 107 96
f 96 107 108
f 107 116 108
f 115 116 107
f 115 123 116
f 116 123 124
f 123 88 124
f 89 88 123
f 101 102 103
f 101 111 102
f 102 111 112
f 111 120 112
f 119 120 111
f 119 126 120
f 120 126 67
f 126 23 67
f 90 23 126
f 84 90 85
