v 0.0000 -4.7812 -24.3984
v 7.8906 -4.7812 -22.5625
v 0.0000 -12.1992 -19.7031
v 27.8125 14.0000 -2.0312
v 25.1719 4.3594 -5.3906
v 24.0156 9.1094 -12.0117
v 20.5547 23.6250 -24.8242
v 11.0664 23.6250 -32.1797
v 11.3984 34.1562 -31.6953
v 0.0000 33.5469 -34.3477
v 19.3555 35.5977 -24.9492
v 9.9453 -9.9805 -17.1289
v 18.2109 9.1094 -21.8359
v 19.9844 -3.0195 -9.7695
v 28.9297 23.6250 -0.4922
v 29.4688 34.0195 -0.6953
v 27.5938 28.2617 9.5469
v 27.1133 23.6250 -13.7344
v 10.3359 52.4336 22.3008
v 18.0312 54.0000 14.9570
v 3.6797 56.7969 21.3984
v 17.6836 42.7383 21.5938
v 22.4570 46.6055 14.7539
v 25.9766 40.0000 10.0000
v 23.2461 34.5039 17.6719
v 24.6250 37.2383 -17.0586
v -7.8906 -4.7812 -22.5625
v -20.5547 23.6250 -24.8242
v -11.3984 34.1562 -31.6953
v -11.0664 23.6250 -32.1797
v 0.0000 23.6250 -34.7578
v -19.3555 35.5977 -24.9492
v -23.8672 9.1094 -12.0117
v -19.9844 -3.0195 -9.7695
v -25.1797 4.3594 -5.3906
v -10.3359 52.4336 22.3008
v -18.0312 54.0000 14.9570
v -17.6836 42.7383 21.5938
v -3.6758 56.7969 21.3984
v -28.9297 23.6250 -0.4922
v -27.1133 23.6250 -13.7344
v -27.8086 14.0000 -1.7578
v -18.2109 9.1094 -21.8359
v -9.9453 -9.9805 -17.1289
v -25.2109 42.9766 9.9180
v -25.9766 40.0000 10.0000
v -22.4570 46.6055 14.7539
v -23.2461 34.5039 17.6719
v -29.4688 34.0195 -0.6953
v -27.5938 28.2578 9.5469
v -13.2617 44.9922 15.8359
v -17.6836 42.7383 21.5938
v -17.4336 38.8164 12.3320
v -23.2461 34.5039 17.6719
v -27.5820 40.4922 -1.5898
v -24.6250 37.2383 -17.0586
v -13.0625 43.6953 24.3945
v -8.0820 49.7617 24.1797
v -10.3359 52.4336 22.3008
v -7.7500 52.2617 15.9922
v 0.0000 54.2969 3.3164
v -10.3359 52.4336 22.3008
v 0.0000 54.2969 3.3164
v -13.0625 43.6953 24.3945
v -5.6523 46.7539 25.3750
v -0.9141 50.6680 24.7461
v 25.2109 42.9766 9.9180
v 27.5820 40.4922 -1.5898
v -5.6523 46.7539 25.3750
v -0.9141 50.6680 24.7461
v 5.5117 49.1016 24.7188
v -2.3672 45.1133 25.5859
v 10.3359 52.4336 22.3008
v 5.5117 49.1016 24.7188
v -2.3672 45.1133 25.5859
v 9.8047 9.1094 -28.3555
v 0.0000 9.1094 -30.6367
v -9.8047 9.1094 -28.3555
v -27.5938 28.2578 9.5469
v -22.2578 30.1094 -1.2266
v -28.9297 23.6250 -0.4922
v -19.9844 -3.0195 -9.7695
v -14.1484 12.9688 -7.9922
v -25.1797 4.3594 -5.3906
v -27.8086 14.0000 -1.7578
v -9.9453 -9.9805 -17.1289
v 0.0000 10.4062 -14.0391
v 0.0000 -12.1992 -19.7031
v 9.9453 -9.9805 -17.1289
v 19.9844 -3.0195 -9.7695
v 14.1484 12.9688 -7.9922
v 25.1719 4.3594 -5.3906
v 27.8125 14.0000 -2.0312
v 22.2578 30.1094 -1.2266
v 28.9297 23.6250 -0.4922
v 23.2461 34.5039 17.6719
v 17.4336 38.8164 12.3320
v 27.5938 28.2617 9.5469
v 13.2617 44.9922 15.8359
v 17.6836 42.7383 21.5938
v 0.0000 54.2969 3.3164
v 10.3359 52.4336 22.3008
f 1 2 3
f 1 3 27
f 78 1 27
f 77 1 78
f 77 76 1
f 77 8 76
f 31 8 77
f 31 77 30
f 31 30 10
f 8 31 10
f 9 8 10
f 7 8 9
f 9 11 7
f 26 7 11
f 7 26 18
f 18 6 7
f 18 4 6
f 15 4 18
f 15 18 16
f 15 16 17
f 16 24 17
f 68 24 16
f 68 16 26
f 26 16 18
f 4 5 6
f 6 5 14
f 6 14 13
f 7 6 13
f 7 13 76
f 8 7 76
f 2 76 13
f 13 12 2
f 12 13 14
f 12 3 2
f 44 27 3
f 43 27 44
f 44 34 43
f 33 43 34
f 33 34 35
f 42 33 35
f 41 33 42
f 40 41 42
f 40 49 41
f 50 49 40
f 46 49 50
f 50 48 46
f 47 46 48
f 45 46 47
f 45 55 46
f 46 55 49
f 55 56 49
f 49 56 41
f 41 56 28
f 41 28 33
f 28 43 33
f 28 78 43
f 30 78 28
f 28 29 30
f 29 28 32
f 28 56 32
f 19 20 21
f 20 19 22
f 20 22 23
f 22 25 23
f 24 23 25
f 17 24 25
f 67 23 24
f 67 24 68
f 36 37 38
f 36 39 37
f 58 39 36
f 57 58 36
f 69 58 57
f 70 58 69
f 70 39 58
f 70 21 39
f 71 21 70
f 71 70 72
f 71 19 21
f 51 52 53
f 52 51 59
f 59 51 60
f 59 60 61
f 53 52 54
f 54 79 53
f 53 79 81
f 80 53 81
f 80 81 83
f 83 81 85
f 84 83 85
f 82 83 84
f 82 86 83
f 83 86 87
f 87 86 88
f 89 87 88
f 89 91 87
f 90 91 89
f 92 91 90
f 92 93 91
f 91 93 95
f 94 91 95
f 97 94 95
f 98 97 95
f 96 97 98
f 100 97 96
f 99 97 100
f 102 99 100
f 101 99 102
f 38 37 47
f 38 47 48
f 62 63 64
f 64 63 65
f 65 63 66
f 75 66 63
f 74 75 63
f 63 73 74
f 1 76 2
f 27 43 78
f 30 77 78
f 30 29 10
