v 13.9688 58.2695 14.2266
v 10.1836 61.8789 15.3438
v 7.7305 57.8477 17.7109
v 0.0000 62.7773 16.2148
v 0.0000 57.1445 19.3594
v 0.0000 22.0156 -31.3750
v 11.3047 22.5742 -29.8398
v 0.0000 9.6289 -19.1055
v 18.6641 15.5547 -13.8867
v 19.7852 24.1953 -25.3828
v 11.3047 33.4336 -33.5195
v 0.0000 33.4336 -35.2422
v 10.5977 45.5039 -33.1562
v 19.7734 43.8711 -26.5977
v 10.5977 66.4453 5.8203
v 0.0000 68.1445 6.1172
v 18.7617 61.0625 4.8672
v 10.5977 67.4883 -6.0039
v 0.0000 69.2383 -6.3125
v 10.5977 56.1133 -27.0273
v 18.7617 58.1797 -15.8359
v 27.1172 42.9258 -1.4297
v 24.0000 46.2188 9.0273
v 24.0000 33.4336 9.0273
v 26.1250 33.4336 -16.0000
v 26.2969 33.4336 0.0000
v 25.4375 44.2617 -12.9023
v 25.4375 52.9570 -2.8633
v 19.7969 55.0703 6.0703
v 20.0000 61.0000 -4.7383
v 10.5977 63.9922 -17.6406
v -7.7305 57.8477 17.7109
v -10.1836 61.8789 15.3438
v -11.3047 22.5742 -29.8398
v -19.7852 24.1953 -25.3828
v -18.6641 15.5547 -13.8867
v -11.3047 33.4336 -33.5195
v -10.5977 45.5039 -33.1562
v 0.0000 46.1250 -34.8594
v -10.5977 66.4453 5.8203
v -18.7617 61.0625 4.8672
v -13.9688 58.2695 14.2266
v -10.5977 67.4883 -6.0039
v -19.7734 43.8711 -26.5977
v -10.5977 56.1133 -27.0273
v -18.7617 58.1797 -15.8359
v -10.5977 63.9922 -17.6406
v -20.0000 61.0000 -4.7383
v -24.0000 33.4336 9.0273
v -27.1172 42.9258 -1.4297
v -26.2969 33.4336 0.0000
v -26.1250 33.4336 -16.0000
v -25.4375 44.2617 -12.9023
v -25.4375 52.9570 -2.8633
v -19.7969 55.0703 6.0703
v -24.0000 46.2188 9.0273
v 0.0000 65.5625 -18.5469
v 0.0000 57.3359 -28.6055
v 4.5938 -7.8008 -43.3711
v 4.5938 -2.0469 -49.1250
v 7.9805 -0.3203 -35.7969
v 7.9805 5.4609 -41.5781
v -7.9805 5.4609 -41.5781
v 0.0000 8.3516 -44.4727
v -4.5938 -2.0469 -49.1250
v 0.0000 -3.2109 -32.9023
v 6.7344 12.5039 -33.5664
v 6.7344 7.6211 -28.6875
v 0.0000 14.9453 -36.0078
v 0.0000 5.1836 -26.2461
v 0.0000 20.4375 -20.7148
v 0.0000 -9.9219 -51.2891
v -4.5938 -7.8008 -43.3711
v -7.9805 -0.3203 -35.7969
v -6.7344 12.5039 -33.5664
v -6.7344 7.6211 -28.6875
f 1 2 3
f 1 17 2
f 1 29 17
f 29 28 17
f 28 29 23
f 22 28 23
f 22 23 24
f 26 22 24
f 25 22 26
f 9 25 26
f 10 25 9
f 9 7 10
f 8 7 9
f 6 7 8
f 7 6 11
f 7 11 10
f 11 14 10
f 11 13 14
f 12 13 11
f 6 12 11
f 12 6 37
f 38 12 37
f 12 38 39
f 12 39 13
f 39 58 13
f 38 58 39
f 45 58 38
f 38 44 45
f 37 44 38
f 37 35 44
f 34 35 37
f 35 34 36
f 35 36 52
f 44 35 52
f 44 52 53
f 46 44 53
f 45 44 46
f 45 46 47
f 47 57 45
f 19 57 47
f 43 19 47
f 43 40 19
f 41 40 43
f 40 41 33
f 16 40 33
f 4 16 33
f 16 4 2
f 15 16 2
f 17 15 2
f 17 18 15
f 17 30 18
f 17 28 30
f 30 28 21
f 30 21 31
f 18 30 31
f 19 18 31
f 18 19 15
f 15 19 16
f 40 16 19
f 19 31 57
f 57 31 20
f 58 57 20
f 57 58 45
f 20 13 58
f 14 13 20
f 20 21 14
f 20 31 21
f 21 28 27
f 21 27 14
f 14 27 25
f 14 25 10
f 25 27 22
f 28 22 27
f 2 4 5
f 3 2 5
f 32 5 33
f 42 32 33
f 33 41 42
f 42 41 55
f 55 41 54
f 55 54 56
f 54 50 56
f 54 53 50
f 46 53 54
f 48 46 54
f 46 48 47
f 47 48 43
f 41 43 48
f 41 48 54
f 5 4 33
f 6 8 34
f 6 34 37
f 36 34 8
f 52 36 51
f 51 50 52
f 49 50 51
f 49 56 50
f 50 53 52
f 59 60 61
f 61 66 59
f 66 61 70
f 66 70 74
f 74 73 66
f 73 74 65
f 65 72 73
f 60 72 65
f 65 64 60
f 63 64 65
f 63 65 74
f 63 74 75
f 75 69 63
f 69 75 71
f 69 71 67
f 67 62 69
f 62 67 61
f 62 61 60
f 64 62 60
f 69 62 64
f 69 64 63
f 67 68 61
f 71 68 67
f 68 71 70
f 61 68 70
f 74 70 76
f 75 74 76
f 71 75 76
f 76 70 71
f 60 59 72
f 59 73 72
f 66 73 59
