v 0.0000 22.6602 -29.5977
v 0.0000 9.6289 -19.1055
v -10.6641 19.6953 -25.1328
v -18.6641 24.7188 -23.9453
v -18.6641 15.5547 -13.8867
v 0.0000 33.4336 -33.2500
v -10.6641 33.4336 -31.6211
v 0.0000 45.4062 -32.8867
v -10.0000 44.8203 -31.2773
v 0.0000 66.9297 -7.4609
v 0.0000 63.7461 -17.5000
v -9.3867 65.2852 -7.1133
v -10.0000 62.2617 -16.6406
v -4.7266 69.5664 14.6758
v -10.0000 68.9336 14.4297
v -10.9805 69.3203 26.5195
v -14.0352 66.9375 14.3086
v -17.4570 65.2188 14.0586
v -20.4414 65.5703 25.2188
v -10.1758 67.1055 2.5820
v -0.0195 68.3320 2.5234
v -18.8125 43.1172 -24.8984
v -10.0000 54.8320 -25.4961
v -17.6992 56.7812 -14.9414
v -24.6484 33.4336 -15.0938
v -24.9688 43.6484 -12.1719
v -23.8008 54.4570 -4.2930
v -26.2969 33.4336 0.0000
v 0.0000 55.9336 -26.8086
v -26.8008 44.0000 -2.0000
v -17.6914 61.6875 -6.3945
v -17.5352 64.1875 2.8633
v -23.1758 59.1797 3.9688
v -24.8906 59.7383 14.1406
v -26.9492 51.2070 6.0000
v 10.6641 19.6953 -25.1328
v 18.6641 15.5547 -13.8867
v 18.6641 24.7188 -23.9453
v 10.6641 33.4336 -31.6211
v 10.0000 44.8203 -31.2773
v 9.3867 65.2852 -7.1133
v 10.0000 62.2617 -16.6406
v 14.0391 66.9375 14.3086
v 20.2578 65.3828 25.3203
v 17.4609 65.2188 14.0586
v 10.1797 67.1094 2.5781
v 18.6641 43.1172 -24.8984
v 10.0000 54.8320 -25.4961
v 17.6992 56.7812 -14.9414
v 17.5391 64.1875 2.8672
v 17.6914 61.6875 -6.3945
v 26.2969 33.4336 0.0000
v 24.6484 33.4336 -15.0938
v 24.9688 43.6484 -12.1719
v 23.8008 54.4570 -4.2930
v 26.8008 44.0000 -2.0000
v -10.0000 62.2266 18.4414
v 3.4062 68.3750 14.6367
v 0.0000 66.4102 22.3398
v -27.2344 59.8477 23.4258
v -18.7734 59.8398 17.6484
v 10.0000 64.5898 14.4258
v 10.0000 62.2266 18.4375
v 18.7773 59.8398 17.6484
v 27.2383 59.8477 23.4297
v 23.1797 59.1797 3.9688
v 26.9492 51.2070 6.0000
v 0.0625 48.0000 0.0000
v 0.0000 62.8750 18.7422
v -10.0000 62.2266 18.4414
v 10.0000 62.2266 18.4375
v 18.7773 59.8398 17.6484
v -27.2344 59.8477 23.4258
v -26.0547 54.0000 18.0000
v -18.7734 59.8398 17.6484
v -20.4414 65.5703 25.2188
v 0.0000 66.4102 22.3398
v -10.9805 69.3203 26.5195
v 20.2578 65.3828 25.3203
v 27.2383 59.8477 23.4297
v 26.0586 54.0000 18.0000
v 26.3906 40.6211 6.0000
v 25.0664 48.0000 14.0000
v 24.5703 38.0000 12.0000
v -24.6641 29.4883 10.8750
v -26.2969 33.4336 0.0000
v 24.6719 29.4883 10.8750
v 26.2969 33.4336 0.0000
v 24.5703 38.0000 12.0000
v -24.5664 38.0000 12.0000
v 10.0000 64.5898 14.4258
v -25.0664 48.0000 14.0000
v -26.2539 40.6211 6.0000
v -24.6641 29.4883 10.8750
v 24.6719 29.4883 10.8750
v 24.9414 59.7383 14.1406
v 10.0000 62.2266 18.4375
v -25.0664 48.0000 14.0000
v 25.0664 48.0000 14.0000
v -26.0547 54.0000 18.0000
v 26.0586 54.0000 18.0000
v -24.5664 38.0000 12.0000
f 1 2 3
f 1 3 7
f 6 1 7
f 6 7 9
f 8 6 9
f 8 9 23
f 29 8 23
f 29 23 13
f 11 29 13
f 11 13 12
f 10 11 12
f 12 20 10
f 20 12 32
f 17 20 32
f 18 17 32
f 17 18 19
f 15 17 19
f 15 19 57
f 16 15 57
f 14 15 16
f 14 16 58
f 58 46 14
f 46 58 91
f 59 91 58
f 58 16 59
f 97 91 59
f 4 3 5
f 4 5 25
f 22 4 25
f 7 4 22
f 3 4 7
f 5 3 2
f 25 5 28
f 25 28 26
f 22 25 26
f 24 22 26
f 23 22 24
f 9 22 23
f 7 22 9
f 10 20 21
f 10 21 41
f 10 41 11
f 11 41 42
f 11 42 29
f 29 42 48
f 8 29 48
f 40 8 48
f 8 40 6
f 40 39 6
f 39 40 47
f 39 47 38
f 36 39 38
f 37 36 38
f 2 36 37
f 1 36 2
f 36 1 39
f 1 6 39
f 24 26 27
f 27 31 24
f 27 33 31
f 33 27 35
f 34 33 35
f 33 34 32
f 31 33 32
f 32 12 31
f 12 13 31
f 13 24 31
f 23 24 13
f 28 30 26
f 93 30 28
f 30 93 35
f 35 27 30
f 27 26 30
f 32 34 18
f 18 34 60
f 60 61 18
f 19 18 61
f 43 44 45
f 46 43 45
f 46 45 50
f 46 50 41
f 21 46 41
f 14 46 21
f 20 14 21
f 15 14 20
f 20 17 15
f 48 49 47
f 40 48 47
f 48 42 49
f 51 49 42
f 51 55 49
f 55 51 66
f 55 66 67
f 55 67 56
f 55 56 54
f 49 55 54
f 49 54 47
f 47 54 53
f 47 53 38
f 53 37 38
f 52 37 53
f 52 53 54
f 52 54 56
f 56 82 52
f 82 56 67
f 82 67 83
f 82 83 84
f 82 84 95
f 95 52 82
f 50 51 41
f 50 66 51
f 96 66 50
f 45 96 50
f 65 96 45
f 64 65 45
f 45 44 64
f 62 63 44
f 62 44 43
f 43 46 62
f 68 69 70
f 71 69 68
f 72 71 68
f 79 71 72
f 71 77 69
f 70 69 77
f 77 78 70
f 76 75 70
f 68 70 75
f 74 68 75
f 73 74 75
f 98 68 74
f 68 98 90
f 85 68 90
f 85 86 68
f 72 68 81
f 80 72 81
f 81 68 99
f 89 99 68
f 68 87 89
f 87 68 88
f 41 51 42
f 92 35 93
f 102 92 93
f 94 102 93
f 94 93 28
f 66 96 67
f 67 96 101
f 83 67 101
f 65 101 96
f 100 34 35
f 60 34 100
f 92 100 35
