v 0.0000 22.0156 -31.3750
v 11.3047 21.0469 -32.1289
v 10.6641 10.8906 -17.8750
v 19.7852 24.1953 -25.3828
v 11.3984 34.1562 -31.3281
v 19.3555 35.5977 -24.9492
v 25.4805 28.8164 -20.6914
v 26.1250 34.0000 -14.0000
v 24.0000 21.9062 -8.5234
v 24.4922 44.4258 -13.2227
v 21.7344 13.4453 -15.5664
v 26.7578 40.0000 -8.0000
v 27.5820 40.4922 -1.5898
v 20.0977 48.6836 16.6992
v 23.4844 41.0000 14.0000
v 23.9727 48.0000 10.0000
v 29.2969 28.0781 -4.2422
v 27.2695 33.0312 0.0859
v 24.4766 34.0000 12.0000
v 24.4414 24.0000 12.0000
v 26.5234 28.8984 4.0000
v -10.6641 10.8906 -17.8750
v -11.3047 21.0469 -32.1289
v -19.7852 24.1953 -25.3828
v -11.3984 34.1562 -31.3281
v -19.3555 35.5977 -24.9492
v -27.5820 40.4922 -1.5898
v -26.1172 41.0000 5.0000
v -24.6953 45.3203 8.8398
v -24.0000 21.9062 -8.5234
v -25.4805 28.8164 -20.6914
v -26.1250 34.0000 -14.0000
v -24.4922 44.4258 -13.2227
v -21.7344 13.4453 -15.5664
v -26.7578 40.0000 -8.0000
v -29.2969 28.0781 -4.2422
v -24.4766 34.0000 12.0000
v -26.5234 28.8984 4.0000
v -27.2695 33.0312 0.0859
v -24.4414 24.0000 12.0000
v -22.5000 32.3359 0.7188
v -26.5234 28.8984 4.0000
v -27.2695 33.0312 0.0859
v -24.4414 24.0000 12.0000
v -20.1797 24.8789 10.5508
v -12.3281 53.8125 21.0039
v -18.6914 50.9023 16.8594
v -9.4922 45.1523 25.6836
v -16.9062 41.9922 22.5430
v -1.5781 48.5547 25.5391
v -4.7461 56.2148 21.7773
v 10.4531 54.0000 10.0000
v 17.2188 47.5000 12.0000
v 20.0977 48.6836 16.6992
v 23.4844 41.0000 14.0000
v 0.0000 13.4453 -14.7734
v -10.6641 10.8906 -17.8750
v 0.0000 6.2891 -21.8672
v -21.7344 13.4453 -15.5664
v -29.2969 28.0781 -4.2422
v -24.0000 21.9062 -8.5234
v 0.0000 6.2891 -21.8672
v -19.5898 33.0117 10.3398
v -24.4766 34.0000 12.0000
v 5.7344 53.9766 23.5273
v 7.1680 49.3047 24.6562
v -0.7891 41.2695 26.9922
v 10.4531 54.0000 10.0000
v 7.0352 43.4023 24.9805
v -16.9062 41.9922 22.5430
v -6.7773 46.7500 20.0312
v -9.4922 45.1523 25.6836
v 0.4766 49.5742 19.8516
v -15.3750 44.2500 13.0000
v -23.4844 41.0000 14.0000
v -1.5781 48.5547 25.5391
v 15.4766 43.3281 21.0977
v 15.1875 50.0000 21.4102
v 15.4766 43.3281 21.0977
v 20.0977 48.6836 16.6992
v 15.1875 50.0000 21.4102
v 15.4766 43.3281 21.0977
v -23.4844 41.0000 14.0000
v -23.1406 47.8438 9.7812
v 26.1172 41.0000 5.0000
v -0.7891 41.2695 26.9922
v 7.0352 43.4023 24.9805
v 12.9570 57.4062 18.2539
v 0.0000 33.5469 -34.3477
v 10.6641 10.8906 -17.8750
v 21.7344 13.4453 -15.5664
v 24.0000 21.9062 -8.5234
v 22.5000 32.3359 0.7188
v 27.2695 33.0312 0.0859
v 29.2969 28.0781 -4.2422
v 26.5234 28.8984 4.0000
v 24.4414 24.0000 12.0000
v 20.1797 24.8789 10.5508
v 24.4766 34.0000 12.0000
v 19.5898 33.0117 10.3398
v 17.4648 44.0000 11.0000
f 1 2 3
f 2 1 5
f 2 5 4
f 2 4 3
f 3 4 11
f 4 9 11
f 4 7 9
f 7 4 6
f 6 8 7
f 6 10 8
f 12 8 10
f 13 12 10
f 13 18 12
f 18 13 85
f 18 85 21
f 19 21 85
f 19 20 21
f 19 85 15
f 16 15 85
f 14 15 16
f 16 85 13
f 5 6 4
f 1 89 5
f 89 1 25
f 1 23 25
f 1 22 23
f 1 62 22
f 1 3 62
f 7 8 9
f 9 8 17
f 12 17 8
f 12 18 17
f 23 22 24
f 23 24 25
f 26 25 24
f 26 24 31
f 26 31 32
f 26 32 33
f 35 33 32
f 33 35 27
f 27 35 39
f 27 39 28
f 27 28 29
f 28 83 29
f 28 37 83
f 37 28 38
f 37 38 40
f 39 38 28
f 36 39 35
f 36 35 32
f 30 36 32
f 31 30 32
f 24 30 31
f 24 34 30
f 24 22 34
f 41 42 43
f 45 42 41
f 44 42 45
f 45 63 44
f 44 63 64
f 64 63 75
f 75 63 74
f 74 70 75
f 71 70 74
f 70 71 72
f 72 71 73
f 72 73 76
f 76 73 68
f 76 68 67
f 67 68 69
f 78 69 68
f 77 78 68
f 46 47 48
f 46 48 50
f 50 51 46
f 65 51 50
f 65 50 66
f 88 65 66
f 88 66 81
f 80 88 81
f 80 81 82
f 81 66 87
f 87 66 86
f 66 50 86
f 47 49 48
f 47 84 49
f 84 83 49
f 29 83 84
f 52 53 54
f 79 52 54
f 54 53 55
f 53 101 55
f 55 101 99
f 101 100 99
f 99 100 97
f 97 100 98
f 97 98 96
f 96 98 93
f 96 93 94
f 94 93 95
f 92 95 93
f 93 56 92
f 92 56 91
f 56 90 91
f 90 56 58
f 56 57 58
f 59 57 56
f 56 61 59
f 56 41 61
f 41 60 61
f 43 60 41
