v 7.8281 58.9570 21.6484
v 10.5977 66.6953 5.8203
v -2.8242 61.5195 24.0039
v -10.5977 66.6953 5.8203
v -23.5469 30.8203 15.2695
v -27.7656 28.7852 2.1641
v 7.2070 60.0000 10.3633
v 7.8281 58.9570 21.6484
v -1.9180 48.2070 28.4102
v -14.0273 37.3398 26.2461
v 27.7656 28.7852 2.1641
v 22.3633 33.5820 16.5547
v 14.1250 45.1758 24.6797
v 21.4648 56.8125 14.1562
v 24.7852 54.0312 2.1367
v -1.9180 48.2070 28.4102
v -10.5078 53.1172 28.9453
v -14.0273 37.3398 26.2461
v -19.6641 43.0938 26.4727
v -23.5469 30.8203 15.2695
v -26.3047 35.6719 15.3945
v -27.7656 28.7852 2.1641
v -10.5977 56.1133 -27.0273
v -21.0000 45.0000 -26.5977
v -18.7617 58.1797 -15.8359
v -10.9531 39.4688 -33.3359
v 0.0000 39.7773 -35.0508
v 0.0000 57.2812 -28.4180
v -10.5977 65.7383 -11.8203
v 0.0000 67.4023 -12.4297
v -25.4375 44.2617 -16.0000
v -26.1250 33.0000 -16.0000
v 10.5977 65.7383 -11.8203
v 0.0000 9.6289 -19.1055
v -7.5352 22.3867 -30.3516
v 7.5352 22.3867 -30.3516
v -19.7852 24.1953 -25.3828
v -18.6641 15.5547 -13.8867
v -24.7852 54.0312 2.1367
v 39.7695 48.8242 -17.4297
v 43.5586 32.9336 -18.4453
v 33.7852 46.6094 -24.1094
v 37.1719 31.0273 -25.3398
v 34.3945 22.5000 -10.0742
v 41.0391 31.0273 -9.0312
v 33.0625 38.8555 -8.4180
v 37.9258 46.6094 -8.6523
v 38.3320 13.6602 -10.5703
v 30.6445 23.5898 -20.7109
v 28.6719 38.4375 -21.5781
v 35.1641 13.6602 -22.4023
v 26.8047 37.4844 -13.9570
v 29.5352 17.5664 -14.6875
v 29.8164 -4.1133 -14.8281
v 12.9336 58.9766 -7.3867
v 26.4336 54.6094 -19.9961
v 29.8633 56.8359 -14.5742
v 28.6055 54.6094 -8.1680
v 10.9531 39.4688 -33.3359
v 10.5977 56.1133 -27.0273
v 21.0000 45.0000 -26.5977
v 19.7852 24.1953 -25.3828
v 18.7617 58.1797 -15.8359
v 25.4375 44.2617 -16.0000
v 26.1250 33.0000 -16.0000
v 18.6641 15.5547 -13.8867
v 27.7656 28.7852 2.1641
v 27.5391 43.3281 10.7148
v 39.4336 13.3633 -17.2500
v 26.2500 39.9102 20.2031
v 22.3633 33.5820 16.5547
v 14.1250 45.1758 24.6797
v 16.8789 55.7148 22.6875
v -27.5391 43.3281 10.7148
v -21.4688 56.8125 14.1562
v -27.7656 28.7852 2.1641
v -18.6641 15.5547 -13.8867
v 7.2070 60.0000 10.3633
v 18.6641 15.5547 -13.8867
v 27.7656 28.7852 2.1641
v 7.2070 60.0000 10.3633
v -37.1719 31.0273 -25.3398
v -43.5586 32.9336 -18.4453
v -33.7852 46.6094 -24.1094
v -39.7695 48.8242 -17.4297
v -34.3945 22.5000 -10.0742
v -33.0625 38.8555 -8.4180
v -41.0391 31.0273 -9.0312
v -37.9258 46.6094 -8.6523
v -38.3320 13.6602 -10.5703
v -30.6445 23.5898 -20.7109
v -28.6719 38.4375 -21.5781
v -35.1641 13.6602 -22.4023
v -26.8047 37.4844 -13.9570
v -29.5352 17.5664 -14.6875
v -29.8164 -4.1133 -14.8281
v -12.9336 58.9766 -7.3867
v -26.4336 54.6094 -19.9961
v -29.8633 56.8359 -14.5742
v -28.6055 54.6094 -8.1680
v -39.4336 13.3633 -17.2500
f 1 2 3
f 1 3 16
f 16 3 17
f 16 17 18
f 18 17 19
f 18 19 20
f 19 21 20
f 19 74 21
f 74 19 75
f 75 39 74
f 75 4 39
f 4 75 3
f 4 3 2
f 4 2 30
f 29 4 30
f 28 29 30
f 23 29 28
f 27 23 28
f 26 23 27
f 24 23 26
f 23 24 25
f 25 29 23
f 25 39 29
f 25 31 39
f 25 24 31
f 32 31 24
f 32 24 37
f 22 32 37
f 38 22 37
f 37 35 38
f 37 26 35
f 24 26 37
f 35 26 27
f 27 36 35
f 27 59 36
f 59 27 60
f 61 59 60
f 61 62 59
f 65 62 61
f 65 61 64
f 64 15 65
f 64 63 15
f 63 64 61
f 60 63 61
f 63 60 33
f 63 33 15
f 2 15 33
f 2 14 15
f 14 2 73
f 14 73 68
f 14 68 15
f 65 15 68
f 67 65 68
f 67 66 65
f 66 62 65
f 66 36 62
f 34 36 66
f 34 35 36
f 38 35 34
f 5 6 7
f 10 5 7
f 10 7 9
f 7 8 9
f 7 13 8
f 12 13 7
f 11 12 7
f 21 22 20
f 74 22 21
f 32 22 74
f 74 39 32
f 39 31 32
f 29 39 4
f 30 2 33
f 33 28 30
f 60 28 33
f 60 27 28
f 40 41 42
f 47 41 40
f 45 41 47
f 46 45 47
f 44 45 46
f 44 48 45
f 54 48 44
f 53 54 44
f 44 52 53
f 46 52 44
f 52 46 55
f 50 52 55
f 55 56 50
f 57 56 55
f 57 42 56
f 40 42 57
f 40 57 47
f 47 57 58
f 47 58 46
f 55 46 58
f 57 55 58
f 42 41 43
f 43 50 42
f 49 50 43
f 51 49 43
f 51 54 49
f 51 69 54
f 43 69 51
f 41 69 43
f 45 69 41
f 48 69 45
f 54 69 48
f 49 54 53
f 53 52 49
f 52 50 49
f 50 56 42
f 67 70 71
f 68 70 67
f 68 73 70
f 70 73 72
f 71 70 72
f 72 73 1
f 1 73 2
f 3 75 17
f 75 19 17
f 36 59 62
f 76 77 78
f 79 80 81
f 82 83 84
f 92 82 84
f 91 82 92
f 93 82 91
f 93 91 96
f 93 96 101
f 82 93 101
f 83 82 101
f 88 83 101
f 83 88 85
f 83 85 84
f 85 99 84
f 85 89 99
f 88 89 85
f 88 87 89
f 86 87 88
f 86 88 90
f 96 86 90
f 95 86 96
f 86 95 94
f 87 86 94
f 94 97 87
f 92 97 94
f 97 92 98
f 99 97 98
f 99 98 84
f 92 84 98
f 94 91 92
f 95 91 94
f 91 95 96
f 96 90 101
f 90 88 101
f 89 100 99
f 89 87 100
f 97 100 87
f 99 100 97
