v 0.0000 0.7539 -36.1953
v 0.0000 -7.2969 -27.9648
v -6.6094 -5.6367 -27.7812
v 9.4258 17.3711 -30.0938
v 6.6094 -5.6367 -27.7812
v 21.0195 28.9961 21.1680
v 24.3672 35.1484 20.2109
v 16.7148 34.8906 25.0156
v 25.6133 37.4805 13.0039
v 22.6562 44.3516 13.6680
v 30.3164 8.9492 16.4766
v 27.1562 5.7930 15.2773
v 28.8086 7.0039 9.5039
v 28.5781 22.6289 4.7891
v 24.0742 31.3047 16.1562
v 19.6094 48.9297 15.2617
v 28.5781 22.6289 4.7891
v 28.8086 7.0039 9.5039
v 13.3398 30.1211 5.1406
v 27.1562 5.7930 15.2773
v 25.8828 41.4375 -2.3398
v 22.6562 44.3516 13.6680
v 25.9414 39.5352 6.9805
v 28.5781 22.6289 4.7891
v 32.8828 29.5742 5.6445
v 27.3789 25.8945 11.9180
v 25.6133 37.4805 13.0039
v 33.0703 7.7031 -4.7930
v 28.1250 2.6289 0.3047
v 27.0938 1.4414 -9.5938
v 23.6055 18.5156 -14.5703
v 28.5781 22.6289 4.7891
v 28.8477 24.8125 -1.9570
v 27.4258 35.8945 -4.8438
v 18.6641 15.5547 -13.8867
v 27.0938 1.4414 -9.5938
v 28.1250 2.6289 0.3047
v 23.6055 18.5156 -14.5703
v 25.8828 41.4375 -2.3398
v 27.4258 35.8945 -4.8438
v 23.8750 37.4883 -17.0586
v 28.9297 26.1055 -19.8047
v 23.6055 18.5156 -14.5703
v 27.8398 22.5742 -4.8125
v 21.0664 2.6914 -27.0664
v 21.4688 -4.5898 -16.9766
v 13.2188 -6.0234 -24.9453
v 9.4258 17.3711 -30.0938
v 23.6055 18.5156 -14.5703
v 20.9688 22.5312 -21.5664
v 19.5508 32.9258 -24.8242
v 19.3555 35.5977 -24.9492
v 12.0156 31.4062 -30.8398
v 19.5508 32.9258 -24.8242
v 12.3789 24.2969 -35.0508
v 11.3984 34.1562 -31.6953
v 19.3555 35.5977 -24.9492
v 9.4258 17.3711 -30.0938
v 16.5469 20.6406 -26.0547
v 0.0000 30.8242 -34.2539
v 0.0000 33.5469 -34.3477
v 2.1172 21.0273 -33.4180
v 0.0000 9.6289 -19.1055
v 6.6094 -5.6367 -27.7812
v 9.4258 17.3711 -30.0938
v 23.4570 7.9961 19.8359
v 21.0195 28.9961 21.1680
v 21.4688 -4.5898 -16.9766
v 13.2188 -6.0234 -24.9453
v 11.6719 53.7812 20.7734
v 10.2695 56.1211 18.5938
v 16.7148 34.8906 25.0156
v -6.6094 -5.6367 -27.7812
v 0.0000 -7.2969 -27.9648
v -19.6094 48.9297 15.2617
v -24.3672 35.1484 20.2109
v -11.6719 53.7812 20.7734
v -16.7148 34.8906 25.0156
v -22.6562 44.3516 13.6680
v -30.3164 8.9492 16.4766
v -28.5781 22.6289 4.7891
v -28.8086 7.0039 9.5039
v -27.1562 5.7930 15.2773
v -23.4570 7.9961 19.8359
v -21.0195 28.9961 21.1680
v -24.0742 31.3047 16.1562
v -25.6133 37.4805 13.0039
v -13.3398 30.1211 5.1406
v -23.4570 7.9961 19.8359
v -27.1562 5.7930 15.2773
v -25.6133 37.4805 13.0039
v -32.8828 29.5742 5.6445
v -27.3789 25.8945 11.9180
v -28.5781 22.6289 4.7891
v -28.5781 22.6289 4.7891
v -33.0703 7.7031 -4.7930
v -28.1250 2.6289 0.3047
v -23.6055 18.5156 -14.5703
v -27.0938 1.4414 -9.5938
v -28.8477 24.8125 -1.9570
v -27.4258 35.8945 -4.8438
v -25.9414 39.5352 6.9805
v -25.8828 41.4375 -2.3398
v -18.6641 15.5547 -13.8867
v -28.1250 2.6289 0.3047
v -27.0938 1.4414 -9.5938
v -25.8828 41.4375 -2.3398
v -23.8750 37.4883 -17.0586
v -27.4258 35.8945 -4.8438
v -28.9297 26.1055 -19.8047
v -23.6055 18.5156 -14.5703
v -27.8398 22.5742 -4.8125
v -19.5508 32.9258 -24.8242
v -19.3555 35.5977 -24.9492
v -21.4688 -4.5898 -16.9766
v -23.6055 18.5156 -14.5703
v -21.0664 2.6914 -27.0664
v -9.4258 17.3711 -30.0938
v -13.2188 -6.0234 -24.9453
v -20.9688 22.5312 -21.5664
v -12.0156 31.4062 -30.8398
v -12.3789 24.2969 -35.0508
v -19.5508 32.9258 -24.8242
v -19.3555 35.5977 -24.9492
v -11.3984 34.1562 -31.6953
v -9.4258 17.3711 -30.0938
v -16.5469 20.6406 -26.0547
v 0.0000 30.8242 -34.2539
v -2.1172 21.0273 -33.4180
v -9.4258 17.3711 -30.0938
v -23.6055 18.5156 -14.5703
v -21.4688 -4.5898 -16.9766
v -13.2188 -6.0234 -24.9453
v -28.8086 7.0039 9.5039
v -28.5781 22.6289 4.7891
v -21.0195 28.9961 21.1680
v -10.2695 56.1211 18.5938
v -11.6719 53.7812 20.7734
v -16.7148 34.8906 25.0156
v -9.4258 17.3711 -30.0938
v -22.6562 44.3516 13.6680
v 0.0000 33.5469 -34.3477
v 11.6719 53.7812 20.7734
v -21.0195 28.9961 21.1680
v -25.6133 37.4805 13.0039
v 23.4570 7.9961 19.8359
v 21.0195 28.9961 21.1680
v 25.6133 37.4805 13.0039
v 27.4258 35.8945 -4.8438
v 19.5508 32.9258 -24.8242
v 0.0000 30.8242 -34.2539
v -19.5508 32.9258 -24.8242
v -27.4258 35.8945 -4.8438
f 1 2 3
f 140 1 3
f 1 140 151
f 1 151 4
f 4 5 1
f 1 5 2
f 6 7 8
f 6 15 7
f 15 9 7
f 7 9 10
f 10 16 7
f 143 7 16
f 8 7 143
f 11 12 13
f 13 14 11
f 14 148 11
f 148 147 11
f 146 11 147
f 11 146 12
f 17 18 19
f 19 35 17
f 17 35 37
f 35 36 37
f 38 36 35
f 38 35 68
f 68 35 69
f 69 35 65
f 63 65 35
f 63 64 65
f 63 74 64
f 63 73 74
f 63 130 73
f 130 63 104
f 133 130 104
f 132 133 104
f 131 132 104
f 106 131 104
f 104 105 106
f 104 135 105
f 88 135 104
f 88 134 135
f 88 90 134
f 88 89 90
f 88 136 89
f 88 139 136
f 138 139 88
f 88 137 138
f 19 18 20
f 19 20 66
f 19 66 67
f 67 72 19
f 19 72 70
f 19 70 71
f 21 22 23
f 21 23 34
f 34 23 25
f 33 34 25
f 24 33 25
f 24 25 26
f 27 26 25
f 25 23 27
f 27 23 22
f 28 29 30
f 31 28 30
f 31 149 28
f 28 149 32
f 32 29 28
f 39 40 41
f 41 40 42
f 42 51 41
f 50 51 42
f 43 50 42
f 43 42 44
f 40 44 42
f 45 46 47
f 47 48 45
f 48 150 45
f 45 150 49
f 45 49 46
f 41 51 52
f 53 54 55
f 53 55 60
f 60 56 53
f 56 60 61
f 53 56 57
f 57 54 53
f 54 59 55
f 58 55 59
f 58 62 55
f 62 60 55
f 75 76 77
f 79 76 75
f 76 79 87
f 86 76 87
f 85 76 86
f 78 76 85
f 77 76 78
f 80 81 82
f 145 81 80
f 144 145 80
f 84 144 80
f 80 83 84
f 80 82 83
f 91 92 93
f 92 91 102
f 92 102 101
f 100 92 101
f 94 92 100
f 93 92 94
f 95 96 97
f 96 95 153
f 153 98 96
f 98 99 96
f 96 99 97
f 101 102 103
f 141 103 102
f 102 91 141
f 107 108 109
f 109 108 110
f 109 110 112
f 111 112 110
f 111 110 120
f 120 110 113
f 110 108 113
f 113 108 114
f 115 116 117
f 117 119 115
f 117 118 119
f 152 118 117
f 117 116 152
f 121 122 123
f 121 128 122
f 128 121 125
f 125 142 128
f 121 124 125
f 124 121 123
f 123 122 127
f 126 127 122
f 126 122 129
f 129 122 128
