v -13.5039 0.0000 -21.3477
v -10.3828 13.0000 -31.4219
v 0.0000 0.0000 -28.0000
v 0.0000 13.0000 -33.0000
v -18.7422 13.0000 -25.6328
v -10.0000 -4.9297 -19.0000
v 0.0000 -6.0000 -23.0000
v -19.7852 25.4414 -26.6836
v -10.9805 28.8359 -33.5469
v 0.0000 28.8359 -35.0625
v -10.5977 67.4883 -6.0039
v -10.5977 66.4453 5.8203
v 0.0000 69.2383 -6.3125
v 0.0000 68.1445 6.1172
v -10.8242 63.9883 -17.9219
v 0.0000 65.5469 -18.8203
v 0.0000 46.1250 -34.8594
v -10.5977 45.5039 -33.1562
v -18.7617 61.0625 4.8672
v -18.7617 58.1797 -15.8359
v -25.4375 52.9570 -2.8633
v -19.7852 43.6992 -26.3945
v -25.7812 38.8477 -14.4492
v -10.5977 56.1133 -27.0273
v 0.0000 57.3359 -28.6055
v -20.8828 24.8477 0.8242
v -20.9805 34.0391 4.5664
v -28.7461 27.7109 5.0703
v -25.3359 6.8828 -2.5781
v -24.2227 10.0000 -14.0000
v -18.1055 -0.8125 -11.2891
v -10.5977 63.0000 18.0000
v -18.7617 57.0000 16.4531
v -25.0000 49.0000 14.0000
v -26.0000 22.0000 -16.0000
v 0.0000 63.1953 20.9102
v -29.5000 38.0000 -2.0000
v -28.5000 17.8828 2.5977
v -28.7461 27.7109 5.0703
v -28.3047 40.0000 8.0000
v 13.5039 0.0000 -21.3477
v 10.3828 13.0000 -31.4219
v 18.7422 13.0000 -25.6328
v 10.0000 -4.9297 -19.0000
v 19.7852 25.4414 -26.6836
v 10.9805 28.8359 -33.5469
v 10.5977 67.4883 -6.0039
v 10.5977 66.4453 5.8203
v 10.8242 63.9883 -17.9219
v 10.5977 45.5039 -33.1562
v 18.7617 61.0625 4.8672
v 25.4375 52.9570 -2.8633
v 18.7617 58.1797 -15.8359
v 25.7812 38.8477 -14.4492
v 19.7852 43.6992 -26.3945
v 10.5977 56.1133 -27.0273
v 28.7461 27.7109 5.0703
v 21.2734 40.3672 4.0586
v 20.8828 24.8477 0.8242
v 24.2227 10.0000 -14.0000
v 10.5977 63.0000 18.0000
v 18.7617 57.0000 16.4531
v 25.0000 49.0000 14.0000
v 26.0000 22.0000 -16.0000
v 18.1055 -0.8125 -11.2891
v 25.3359 6.8828 -2.5781
v 29.5000 38.0000 -2.0000
v 28.7461 27.7109 5.0703
v 28.5000 17.8828 2.5977
v 28.3047 40.0000 8.0000
v 27.0938 36.2188 16.2656
v 21.3242 47.2617 24.8438
v 27.0586 28.3125 12.4883
v 19.8789 35.5547 25.4023
v 16.4297 41.3398 28.0977
v 15.9531 45.0742 16.2578
v 13.3516 47.9102 28.2383
v -9.4258 50.0586 30.5117
v -15.9766 44.4609 28.8750
v -3.0430 41.3398 30.3984
v -9.8203 35.5547 28.5000
v 3.0625 47.9102 30.5352
v -2.5195 55.3750 28.7812
v 9.9570 57.5664 24.8945
v -16.4688 31.2188 24.2695
v -26.9102 33.2891 15.5078
v -24.1367 28.3125 14.8398
v 3.0625 47.9102 30.5352
v -3.0430 41.3398 30.3984
v 1.7188 47.8906 20.2734
v -11.1602 36.8477 19.9258
v -9.8203 35.5547 28.5000
v 19.8789 35.5547 25.4023
v 16.4297 41.3398 28.0977
v 23.2148 31.2188 21.1719
v 16.1641 55.3750 24.5820
v -21.5078 39.1523 25.0703
v 13.3516 47.9102 28.2383
v 10.0039 58.3555 15.0625
v 9.9570 57.5664 24.8945
v 27.0586 28.3125 12.4883
v -24.1367 28.3125 14.8398
v -16.4688 31.2188 24.2695
v 23.2148 31.2188 21.1719
v -28.5000 17.8828 2.5977
v -13.1289 13.3984 -7.5234
v -25.3359 6.8828 -2.5781
v -18.1055 -0.8125 -11.2891
v 0.0000 11.1562 -15.7617
v -10.0000 -4.9297 -19.0000
v 0.0000 -6.0000 -23.0000
v 10.0000 -4.9297 -19.0000
v 18.1055 -0.8125 -11.2891
v 13.1289 13.3984 -7.5234
v 25.3359 6.8828 -2.5781
v 28.5000 17.8828 2.5977
f 1 2 3
f 1 5 2
f 1 30 5
f 31 30 1
f 29 30 31
f 29 38 30
f 38 35 30
f 38 37 35
f 37 38 39
f 40 37 39
f 21 37 40
f 21 23 37
f 20 23 21
f 19 20 21
f 11 20 19
f 11 19 12
f 11 12 13
f 11 13 16
f 15 11 16
f 15 20 11
f 24 20 15
f 24 15 25
f 17 24 25
f 18 24 17
f 17 10 18
f 17 50 10
f 50 17 56
f 50 56 55
f 46 50 55
f 10 50 46
f 10 46 4
f 10 4 9
f 10 9 18
f 9 22 18
f 9 8 22
f 8 9 2
f 8 2 5
f 8 5 35
f 35 23 8
f 23 35 37
f 20 22 23
f 24 22 20
f 18 22 24
f 23 22 8
f 3 2 4
f 3 4 42
f 41 3 42
f 41 42 43
f 60 41 43
f 65 41 60
f 65 60 66
f 66 60 69
f 69 60 64
f 69 64 67
f 67 68 69
f 70 68 67
f 70 67 52
f 70 52 63
f 71 70 63
f 71 63 72
f 71 72 93
f 95 71 93
f 101 71 95
f 68 71 101
f 68 70 71
f 6 1 7
f 1 6 31
f 3 7 1
f 3 41 7
f 44 7 41
f 65 44 41
f 4 2 9
f 4 46 42
f 45 42 46
f 46 55 45
f 54 45 55
f 53 54 55
f 56 53 55
f 56 49 53
f 56 25 49
f 17 25 56
f 15 16 25
f 49 25 16
f 49 16 47
f 49 47 53
f 47 51 53
f 47 48 51
f 47 13 48
f 47 16 13
f 12 14 13
f 32 14 12
f 12 19 32
f 32 19 33
f 33 78 32
f 33 79 78
f 79 33 34
f 79 34 97
f 79 97 81
f 79 81 80
f 78 79 80
f 80 82 78
f 83 78 82
f 82 84 83
f 84 36 83
f 84 61 36
f 61 84 96
f 96 62 61
f 62 96 72
f 72 63 62
f 62 63 51
f 61 62 51
f 48 61 51
f 61 48 14
f 36 61 14
f 36 14 32
f 36 32 83
f 32 78 83
f 26 27 28
f 105 26 28
f 107 26 105
f 106 26 107
f 108 106 107
f 110 106 108
f 109 106 110
f 109 110 111
f 112 109 111
f 112 114 109
f 113 114 112
f 113 115 114
f 115 59 114
f 115 116 59
f 116 57 59
f 57 58 59
f 57 73 58
f 58 73 76
f 73 104 76
f 74 76 104
f 74 75 76
f 77 76 75
f 100 76 77
f 99 76 100
f 99 100 90
f 90 100 88
f 88 89 90
f 90 89 91
f 89 92 91
f 91 92 103
f 91 103 102
f 102 27 91
f 28 27 102
f 33 19 34
f 34 19 21
f 21 40 34
f 86 34 40
f 86 97 34
f 85 97 86
f 85 86 87
f 87 86 39
f 86 40 39
f 30 35 5
f 48 13 14
f 51 52 53
f 63 52 51
f 53 52 54
f 52 67 54
f 54 67 64
f 64 45 54
f 45 64 43
f 45 43 42
f 60 43 64
f 93 72 94
f 72 98 94
f 72 96 98
f 84 98 96
f 97 85 81
