v -21.9453 19.2773 -4.1211
v -17.7500 40.0000 3.0820
v -29.6602 19.8906 13.4023
v -23.3164 1.0078 4.0000
v -30.9414 20.0078 -7.0000
v -29.5391 20.0000 -15.6367
v -18.0000 0.0000 -8.3164
v -30.9414 20.0078 -7.0000
v -20.0547 8.0000 -19.3750
v -25.6758 20.0000 -21.9414
v -24.1797 31.2461 -22.1016
v -20.2539 24.4258 -28.1836
v -16.2656 8.0000 -27.4805
v -9.5000 20.0000 -35.1445
v -7.8281 8.0000 -27.7695
v -19.1484 29.6328 -27.4609
v -9.7227 29.0703 -31.8047
v -19.3555 35.5977 -24.9492
v -24.1055 37.2383 -17.0586
v -27.2812 37.1875 -5.3047
v -27.5820 40.4922 -1.5898
v -11.3984 34.1562 -31.6953
v -9.1641 0.0000 -17.8945
v 0.0000 24.3359 -35.3984
v 0.0000 8.0000 -33.2500
v 0.0000 0.0000 -23.7070
v 0.0000 9.6289 -19.1055
v -18.6641 15.5547 -13.8867
v 0.0000 0.0000 -23.7070
v -7.8281 8.0000 -27.7695
v -9.1641 0.0000 -17.8945
v -20.0547 8.0000 -19.3750
v -18.0000 0.0000 -8.3164
v -17.7500 40.0000 3.0820
v -31.7227 15.9648 4.0000
v -30.6055 32.2734 4.0000
v -23.3164 1.0078 4.0000
v 21.9453 19.2773 -4.1211
v 30.9414 20.0078 -7.0000
v 23.3164 1.0078 4.0000
v 29.5391 20.0000 -15.6367
v 30.9414 20.0078 -7.0000
v 18.0000 0.0000 -8.3164
v 25.6758 20.0000 -21.9414
v 20.0547 8.0000 -19.3750
v 24.1797 31.2461 -22.1016
v 20.2539 24.4258 -28.1836
v 16.2656 8.0000 -27.4805
v 9.5000 20.0000 -35.1445
v 7.8281 8.0000 -27.7695
v 19.1484 29.6328 -27.4609
v 9.7227 29.0703 -31.8047
v 11.3984 34.1562 -31.6953
v 19.3555 35.5977 -24.9492
v 9.1641 0.0000 -17.8945
v 0.0000 28.7578 -34.5859
v 0.0000 33.5469 -34.3477
v 7.8281 8.0000 -27.7695
v 9.1641 0.0000 -17.8945
v 18.6641 15.5547 -13.8867
v 20.0547 8.0000 -19.3750
v 18.0000 0.0000 -8.3164
v 17.7500 40.0000 3.0820
v 29.6602 19.8906 13.4023
v 23.3164 1.0078 4.0000
v 29.6602 19.8906 13.4023
v 31.7227 15.9648 4.0000
v 23.3164 1.0078 4.0000
v 30.6055 32.2734 4.0000
v 27.2812 37.1875 -5.3047
v 27.2812 38.4375 -0.1914
v 27.5820 40.4922 -1.5898
v -27.2812 38.4375 -0.1914
v 24.1055 37.2383 -17.0586
v -23.0391 40.0000 14.8477
v -16.3477 40.0000 21.5742
v -23.0391 46.9805 13.3242
v -13.4453 49.4844 21.6758
v -6.7070 40.0000 26.1133
v -16.3320 56.8594 13.6875
v -20.9844 53.1289 10.6133
v -13.4453 49.4844 21.6758
v -23.0391 46.9805 13.3242
v -9.3125 59.4336 18.1719
v 0.0000 50.5742 24.9727
v 0.0000 60.5234 19.3164
v -20.9844 53.1289 10.6133
v -17.7500 40.0000 3.0820
v -23.0391 46.9805 13.3242
v -23.0391 40.0000 14.8477
v -6.7070 40.0000 26.1133
v -16.3477 40.0000 21.5742
v -17.7500 40.0000 3.0820
v -23.0391 40.0000 14.8477
v -24.2773 41.3516 11.6797
v -30.6055 32.2734 4.0000
v -28.4375 31.5977 13.3828
v -20.9844 53.1289 10.6133
v -27.5820 40.4922 -1.5898
v -27.2812 38.4375 -0.1914
v -29.6602 19.8906 13.4023
v -31.7227 15.9648 4.0000
v -23.3164 1.0078 4.0000
v -29.6602 19.8906 13.4023
v -28.4375 31.5977 13.3828
v -29.6602 19.8906 13.4023
v -24.2773 41.3516 11.6797
v -28.4375 31.5977 13.3828
v -20.9844 53.1289 10.6133
v -24.2773 41.3516 11.6797
v 23.0391 40.0000 14.8477
v 23.0391 46.9805 13.3242
v 16.3477 40.0000 21.5742
v 13.4453 49.4844 21.6758
v 6.7070 40.0000 26.1133
v 0.0000 50.5742 24.9727
v 16.3320 56.8594 13.6875
v 13.4453 49.4844 21.6758
v 20.9844 53.1289 10.6133
v 23.0391 46.9805 13.3242
v 9.3125 59.4336 18.1719
v 20.9844 53.1289 10.6133
v 23.0391 46.9805 13.3242
v 17.7500 40.0000 3.0820
v 23.0391 40.0000 14.8477
v 17.7500 40.0000 3.0820
v 6.7070 40.0000 26.1133
v -17.7500 40.0000 3.0820
v 16.3477 40.0000 21.5742
v 23.0391 40.0000 14.8477
v 29.6602 19.8906 13.4023
v 23.3164 1.0078 4.0000
v 31.7227 15.9648 4.0000
v 24.2773 41.3516 11.6797
v 30.6055 32.2734 4.0000
v 27.2812 38.4375 -0.1914
v 30.6055 32.2734 4.0000
v 28.4375 31.5977 13.3828
v 29.6602 19.8906 13.4023
v 28.4375 31.5977 13.3828
v 28.4375 31.5977 13.3828
v 24.2773 41.3516 11.6797
v 24.2773 41.3516 11.6797
v 20.9844 53.1289 10.6133
v 27.5820 40.4922 -1.5898
v 20.9844 53.1289 10.6133
f 1 2 3
f 1 4 5
f 1 5 33
f 1 33 28
f 34 1 28
f 34 105 106
f 34 107 108
f 34 109 110
f 6 7 8
f 6 9 7
f 6 10 9
f 10 6 11
f 12 10 11
f 12 13 10
f 12 14 13
f 14 12 17
f 24 14 17
f 24 25 14
f 24 49 25
f 24 52 49
f 24 56 52
f 24 17 56
f 17 22 56
f 16 22 17
f 12 16 17
f 16 12 11
f 16 11 18
f 18 22 16
f 11 19 18
f 19 11 20
f 19 20 21
f 21 20 73
f 73 20 36
f 8 36 20
f 20 6 8
f 11 6 20
f 13 9 10
f 13 23 9
f 15 23 13
f 14 15 13
f 25 15 14
f 25 26 15
f 25 50 26
f 25 49 50
f 49 48 50
f 47 48 49
f 47 44 48
f 47 46 44
f 51 46 47
f 47 52 51
f 49 52 47
f 52 53 51
f 52 56 53
f 57 53 56
f 22 57 56
f 27 28 29
f 60 27 29
f 58 60 29
f 58 59 60
f 60 59 61
f 61 62 60
f 60 62 38
f 63 60 38
f 63 38 64
f 63 139 140
f 63 141 142
f 63 143 144
f 29 28 30
f 30 28 31
f 28 32 31
f 32 28 33
f 35 36 8
f 35 8 37
f 38 39 40
f 38 62 39
f 38 65 66
f 41 42 43
f 41 43 45
f 44 41 45
f 44 46 41
f 70 41 46
f 42 41 70
f 69 42 70
f 67 42 69
f 67 68 42
f 48 44 45
f 48 45 55
f 50 48 55
f 51 53 54
f 51 54 46
f 54 74 46
f 74 70 46
f 72 70 74
f 71 70 72
f 69 70 71
f 75 76 77
f 76 78 77
f 76 79 78
f 79 116 78
f 115 116 79
f 114 116 115
f 113 114 115
f 113 112 114
f 111 112 113
f 80 81 82
f 82 84 80
f 82 85 84
f 85 86 84
f 85 121 86
f 118 121 85
f 118 117 121
f 117 118 119
f 119 118 120
f 81 83 82
f 87 88 89
f 90 89 88
f 91 92 93
f 93 92 94
f 95 96 97
f 95 100 96
f 95 99 100
f 98 99 95
f 97 96 101
f 101 96 102
f 101 102 103
f 1 104 4
f 122 123 124
f 125 124 123
f 126 127 128
f 127 126 129
f 126 130 129
f 128 127 91
f 131 132 133
f 133 137 131
f 131 137 138
f 137 134 138
f 134 135 136
f 136 145 134
f 134 145 146
