v -0.0234 67.0391 15.2305
v 10.0977 66.0391 15.2305
v -0.0469 70.0000 4.0000
v 10.0977 69.0000 4.0000
v 14.4023 9.4531 -16.9180
v -0.0469 7.0000 -20.0039
v 14.5000 12.5000 -24.4609
v -0.0469 10.0000 -28.3789
v -0.0469 20.0000 -32.3828
v 10.0977 20.0117 -31.2070
v -0.0469 33.6875 -34.4102
v 10.0977 33.6875 -32.9805
v 10.0977 68.3633 -7.0000
v -0.0469 70.0000 -7.0000
v -0.0469 65.5625 -18.5469
v 10.0977 63.9922 -17.6406
v 10.0977 45.6523 -32.0938
v -0.0469 46.1250 -33.6680
v 21.9805 33.6836 -23.8828
v 20.3047 21.5820 -24.1445
v 28.3789 23.1367 -12.0039
v 29.8984 38.0586 -11.6445
v 31.1016 38.0586 -0.1523
v 29.6992 22.0000 -2.0000
v 26.1016 17.0000 -8.0000
v 24.3125 58.5898 2.5859
v 21.6133 60.5273 -8.9102
v 17.6992 65.3711 3.8320
v 28.2734 50.9609 1.5938
v 26.6367 51.9922 -10.3633
v 20.0703 54.0000 -20.0625
v 21.9805 43.8633 -22.7188
v 10.0977 56.1133 -27.0273
v -0.0469 57.2812 -28.4180
v 29.0547 28.0000 3.4375
v -10.1953 69.0000 4.0000
v -10.1445 66.0391 15.2305
v -17.7852 65.3711 3.8320
v -14.5000 9.4531 -16.9180
v -14.5977 12.5000 -24.4609
v -10.1953 20.0117 -31.2070
v -10.1953 33.6875 -32.9805
v -10.1953 68.3633 -7.0000
v -10.1953 63.9922 -17.6406
v -10.1953 45.6523 -32.0938
v -20.3984 21.5820 -24.1445
v -22.0781 33.6836 -23.8828
v -28.3789 23.1367 -12.0039
v -29.9961 38.0586 -11.6445
v -29.6992 22.0000 -2.0000
v -26.1016 17.0000 -8.0000
v -21.7070 60.5273 -8.9102
v -26.7305 51.9922 -10.3633
v -24.4062 58.5898 2.5859
v -28.3672 50.9609 1.5938
v -31.1758 38.0586 -0.1523
v -20.1680 54.0000 -20.0625
v -22.0781 43.8633 -22.7188
v -10.1953 56.1133 -27.0273
v -29.0547 28.0000 3.4375
v -19.2344 58.8594 17.3398
v -25.7969 50.5234 12.5781
v 10.0469 62.1367 21.4336
v -0.0117 62.8984 22.1758
v 21.1406 49.0508 17.2852
v 24.2773 38.0000 13.0000
v 25.7969 50.5234 12.5781
v 17.0742 54.8633 20.0625
v 7.5000 52.6016 20.8672
v 15.0000 51.0039 17.9883
v 19.2344 58.8594 17.3398
v 18.5820 28.1641 7.1875
v 21.7500 29.6641 2.2656
v 24.7852 26.0000 10.0000
v 29.0547 28.0000 3.4375
v 10.0000 57.3477 23.6484
v 0.0000 57.8672 25.1367
v 0.0000 53.0703 22.2539
v 17.7148 38.4883 10.0508
v -17.0742 54.8633 20.0625
v -10.0000 57.3477 23.6484
v -10.0703 62.1367 21.4336
v -24.2773 38.0000 13.0000
v -29.1602 38.0078 7.3008
v -24.7852 26.0000 10.0000
v -21.1406 49.0508 17.2852
v -7.5000 52.6016 20.8672
v -29.0547 28.0000 3.4375
v -21.7969 29.6641 2.2656
v -24.7852 26.0000 10.0000
v -18.5938 28.1641 7.1875
v -15.0000 51.0039 17.9883
v -17.7266 38.4883 10.0508
v 29.1602 38.0078 7.3008
v 24.7852 26.0000 10.0000
v -29.6992 22.0000 -2.0000
v -14.1094 16.8516 -11.5625
v -26.1016 17.0000 -8.0000
v -14.5000 9.4531 -16.9180
v 14.4023 9.4531 -16.9180
v 14.0234 16.8516 -11.5625
v -0.0469 7.0000 -20.0039
v 26.1016 17.0000 -8.0000
v 29.6992 22.0000 -2.0000
f 1 2 3
f 3 37 1
f 36 37 3
f 36 38 37
f 43 38 36
f 36 14 43
f 3 14 36
f 14 3 4
f 13 14 4
f 14 13 15
f 15 43 14
f 44 43 15
f 15 34 44
f 16 34 15
f 13 16 15
f 27 16 13
f 27 13 28
f 26 27 28
f 26 30 27
f 29 30 26
f 30 29 22
f 32 30 22
f 22 19 32
f 21 19 22
f 21 20 19
f 20 21 25
f 7 20 25
f 20 7 10
f 12 20 10
f 11 12 10
f 9 11 10
f 9 10 8
f 9 8 41
f 41 11 9
f 42 11 41
f 18 11 42
f 18 12 11
f 17 12 18
f 17 18 34
f 33 17 34
f 33 34 16
f 33 16 31
f 33 31 32
f 17 33 32
f 19 17 32
f 19 12 17
f 12 19 20
f 2 4 3
f 4 2 28
f 13 4 28
f 26 28 71
f 67 26 71
f 29 26 67
f 94 29 67
f 23 29 94
f 22 29 23
f 22 23 24
f 24 21 22
f 24 25 21
f 23 35 24
f 23 94 35
f 95 35 94
f 94 66 95
f 67 66 94
f 65 66 67
f 67 68 65
f 67 71 68
f 68 71 76
f 68 76 69
f 68 69 70
f 68 70 65
f 70 79 65
f 66 65 79
f 72 66 79
f 74 66 72
f 72 73 74
f 74 73 75
f 75 73 104
f 104 73 103
f 103 73 101
f 103 101 100
f 100 101 102
f 101 97 102
f 102 97 99
f 97 98 99
f 97 89 98
f 98 89 96
f 88 96 89
f 88 89 90
f 90 89 91
f 90 91 83
f 83 91 93
f 83 93 86
f 62 83 86
f 84 83 62
f 83 84 85
f 84 60 85
f 56 60 84
f 56 50 60
f 49 50 56
f 50 49 48
f 50 48 51
f 48 46 51
f 47 46 48
f 47 48 49
f 49 58 47
f 58 49 53
f 53 57 58
f 53 52 57
f 52 53 54
f 38 52 54
f 43 52 38
f 52 43 44
f 57 52 44
f 59 57 44
f 34 59 44
f 59 34 45
f 59 45 57
f 57 45 58
f 47 58 45
f 47 45 42
f 46 47 42
f 46 42 41
f 41 40 46
f 8 40 41
f 40 8 6
f 39 40 6
f 39 51 40
f 51 46 40
f 5 6 7
f 5 7 25
f 7 6 8
f 8 10 7
f 31 16 27
f 30 31 27
f 30 32 31
f 45 18 42
f 45 34 18
f 54 53 55
f 62 54 55
f 61 54 62
f 80 61 62
f 80 81 61
f 87 81 80
f 87 77 81
f 78 77 87
f 69 77 78
f 76 77 69
f 76 63 77
f 76 71 63
f 63 71 2
f 63 2 64
f 77 63 64
f 64 81 77
f 82 81 64
f 61 81 82
f 82 37 61
f 64 37 82
f 1 37 64
f 64 2 1
f 2 71 28
f 56 55 49
f 56 84 55
f 55 84 62
f 55 53 49
f 61 37 38
f 54 61 38
f 80 86 92
f 80 62 86
f 92 87 80
f 92 86 93
