v 16.2930 52.9023 18.0742
v 11.2031 45.8320 24.2070
v 18.7539 47.1875 19.5703
v 15.4766 41.9336 23.1016
v 18.5469 44.5391 14.7344
v 20.4805 39.2891 19.4766
v 0.0000 62.0000 9.7422
v 15.4766 41.9336 23.1016
v 10.3164 36.0000 25.3047
v 24.1133 38.2031 16.4453
v 20.4805 39.2891 19.4766
v 25.1562 42.7266 8.7578
v 20.1406 51.2305 13.6680
v -20.1406 51.2305 13.6680
v -25.1562 42.7266 8.7578
v -18.7539 47.1875 19.5703
v -16.2930 52.9023 18.0742
v -11.2031 45.8320 24.2070
v -24.1133 38.2031 16.4453
v -20.4805 39.2891 19.4766
v -15.4766 41.9336 23.1016
v -18.5469 44.5391 14.7344
v -20.4805 39.2891 19.4766
v -24.1133 38.2031 16.4453
v -7.2070 50.8633 24.1211
v -10.9258 57.2617 18.7773
v -4.2773 56.0469 21.4180
v 0.0000 51.8281 24.5156
v 4.2773 56.0469 21.4180
v -15.4766 41.9336 23.1016
v -10.3164 36.0000 25.3047
v 0.0000 36.0000 26.8047
v 5.1562 41.9336 26.3516
v 0.0000 44.0820 27.0508
v 7.2070 50.8633 24.1211
v -10.3164 36.0000 25.3047
v -5.1562 41.9336 26.3516
v 10.3164 36.0000 25.3047
v -5.1562 41.9336 26.3516
v 0.0000 36.0000 26.8047
v 5.1562 41.9336 26.3516
v 10.9258 57.2617 18.7773
v 31.3281 4.2070 -3.4609
v 28.7773 20.0000 -7.0000
v 28.2773 24.0000 6.0000
v 25.5664 17.0000 -16.0000
v 23.2070 -0.8281 -19.7617
v 23.8008 9.5586 -12.8320
v 9.2812 5.8984 -25.5977
v 10.4102 17.5078 -28.7070
v 19.3555 35.5977 -24.9492
v 24.6250 37.2383 -17.0586
v 19.9414 17.5625 -24.3789
v 11.3984 34.1562 -31.6953
v 0.0000 -3.4531 -33.1250
v 0.0000 17.5625 -32.0000
v 23.2070 -0.8281 -19.7617
v 16.5000 13.0156 -9.6680
v 9.2812 5.8984 -25.5977
v 31.3281 4.2070 -3.4609
v 23.8008 9.5586 -12.8320
v 28.2500 35.0820 5.1953
v 28.0938 33.0000 -9.0000
v 27.5000 25.6445 12.0000
v 23.4180 27.0000 17.1484
v 21.4062 17.1523 18.3477
v 28.2773 24.0000 6.0000
v 0.0000 -3.4531 -33.1250
v -9.2812 5.8984 -25.5977
v -16.5000 13.0156 -9.6680
v -31.3281 4.2070 -3.4609
v -28.7773 20.0000 -7.0000
v -25.5664 17.0000 -16.0000
v -23.2070 -0.8281 -19.7617
v -23.8008 9.5586 -12.8320
v -10.4102 17.5078 -28.7070
v -19.9414 17.5625 -24.3789
v -24.6250 37.2383 -17.0586
v -19.3555 35.5977 -24.9492
v -11.3984 34.1562 -31.6953
v -9.2812 5.8984 -25.5977
v -23.2070 -0.8281 -19.7617
v -31.3281 4.2070 -3.4609
v -23.8008 9.5586 -12.8320
v -28.2773 24.0000 6.0000
v -28.0938 33.0000 -9.0000
v -28.2500 35.0820 5.1953
v -27.5000 25.6445 12.0000
v -21.4062 17.1523 18.3477
v -23.4180 27.0000 17.1484
v -27.5820 40.4922 -1.5898
v -21.4062 17.1523 18.3477
v -16.4258 26.7891 16.2773
v -23.4180 27.0000 17.1484
v -28.2773 24.0000 6.0000
v -23.3477 30.3477 6.6836
v 27.5820 40.4922 -1.5898
v 0.0000 33.5469 -34.3477
v 23.3477 30.3477 6.6836
v 21.4062 17.1523 18.3477
v 16.4258 26.7891 16.2773
v 23.4180 27.0000 17.1484
v 24.1133 38.2031 16.4453
f 1 2 3
f 3 13 1
f 13 3 12
f 12 3 10
f 62 12 10
f 10 64 62
f 65 64 10
f 64 65 66
f 45 64 66
f 62 64 45
f 62 45 63
f 62 63 97
f 62 97 12
f 97 63 52
f 63 46 52
f 44 46 63
f 43 46 44
f 43 44 45
f 63 45 44
f 4 3 2
f 11 3 4
f 10 3 11
f 5 6 7
f 103 6 5
f 5 101 103
f 103 101 102
f 100 102 101
f 100 101 67
f 67 101 99
f 99 58 67
f 58 60 67
f 60 58 61
f 57 61 58
f 57 58 59
f 58 70 59
f 59 70 69
f 68 59 69
f 82 69 70
f 82 70 84
f 83 84 70
f 70 95 83
f 96 95 70
f 93 95 96
f 92 95 93
f 92 93 94
f 94 93 24
f 24 93 22
f 22 23 24
f 7 23 22
f 23 7 30
f 30 7 31
f 31 7 39
f 39 7 40
f 40 7 41
f 41 7 9
f 7 8 9
f 6 8 7
f 14 15 16
f 14 16 17
f 17 16 18
f 18 25 17
f 18 37 25
f 36 37 18
f 36 18 21
f 21 18 16
f 16 20 21
f 19 20 16
f 15 19 16
f 19 15 87
f 19 87 88
f 90 19 88
f 88 89 90
f 85 89 88
f 87 85 88
f 86 85 87
f 72 85 86
f 73 72 86
f 71 72 73
f 75 71 73
f 74 75 73
f 74 73 77
f 76 74 77
f 80 76 77
f 79 80 77
f 77 78 79
f 73 78 77
f 78 73 86
f 86 91 78
f 87 91 86
f 15 91 87
f 26 25 27
f 17 25 26
f 25 28 27
f 25 34 28
f 25 37 34
f 32 34 37
f 32 33 34
f 34 33 35
f 34 35 28
f 35 29 28
f 42 29 35
f 1 42 35
f 2 1 35
f 33 2 35
f 38 2 33
f 2 38 4
f 27 28 29
f 47 46 48
f 47 53 46
f 47 50 53
f 47 49 50
f 55 50 49
f 55 56 50
f 76 56 55
f 76 55 81
f 76 81 74
f 76 80 56
f 98 56 80
f 98 54 56
f 50 56 54
f 50 54 53
f 53 54 51
f 51 52 53
f 52 46 53
f 48 46 43
f 71 85 72
