v 5.7188 48.0000 15.8594
v 6.0000 40.7109 26.7578
v 3.7695 49.7227 26.8594
v 6.0000 40.7109 26.7578
v 13.3750 47.2266 23.6797
v 3.7695 49.7227 26.8594
v -5.5703 40.7109 27.9375
v -5.7188 48.0000 15.8594
v -22.4922 42.7109 15.8594
v -19.0898 39.2266 18.9375
v -13.3750 47.2266 23.6797
v -13.3750 47.2266 23.6797
v -5.5703 40.7109 27.9375
v -7.2188 49.5430 26.8164
v -1.4688 50.7109 27.8594
v -22.4922 42.7109 15.8594
v -19.0898 39.2266 18.9375
v -19.7578 44.7109 19.8594
v 19.7578 44.7109 19.8594
v 19.0898 39.2266 20.4375
v 22.4922 42.7109 15.8594
v 0.0000 22.3672 -31.5391
v 10.2930 22.9219 -30.0156
v 0.0000 9.6289 -19.1055
v 18.6641 15.5547 -13.8867
v 19.9180 24.5312 -25.5977
v 0.0000 33.5664 -40.0625
v 10.6172 33.6914 -33.6641
v 0.0000 46.2734 -34.9961
v 0.0000 65.5469 -18.8203
v 10.6172 67.4531 -6.3828
v 13.7969 66.4609 -20.7578
v 0.0000 70.3125 5.6367
v 0.0000 72.1680 -7.3906
v 19.7734 43.8711 -26.5977
v 21.7734 32.6016 -28.3086
v 10.8359 56.1797 -27.2266
v 20.5742 58.2266 -16.1328
v 26.8828 52.0430 -25.2812
v 20.1016 63.2891 3.0820
v 10.1836 66.8750 12.9297
v 25.7344 33.6914 -16.2930
v 26.2422 44.4258 -13.2227
v 25.3945 49.8086 -3.2695
v 19.0898 60.9297 10.4297
v 25.0664 50.0000 6.0000
v 27.1875 32.0000 0.0000
v 13.7969 45.7969 -34.7695
v 0.0000 60.0000 -30.4297
v 21.0469 65.7305 -5.7891
v 0.0000 68.3867 13.8945
v 0.0000 60.0000 25.0000
v 8.9336 59.2500 24.0000
v 15.4727 56.7617 20.8203
v 20.7344 53.5391 14.8828
v 27.1875 32.0000 0.0000
v 0.0000 36.1367 10.0000
v 18.6641 15.5547 -13.8867
v 24.0312 30.0000 12.0000
v -10.2930 22.9219 -30.0156
v -19.9180 24.5312 -25.5977
v -18.6641 15.5547 -13.8867
v -10.6172 33.6914 -33.6641
v -13.7969 66.4609 -20.7578
v -10.6172 67.4531 -6.3828
v -21.7734 32.6016 -28.3086
v -19.7734 43.8711 -26.5977
v -10.8359 56.1797 -27.2266
v -26.8828 52.0430 -25.2812
v -20.5742 58.2266 -16.1328
v -20.1016 63.2891 3.0820
v -10.1836 66.8750 12.9297
v -25.7344 33.6914 -16.2930
v -26.2422 44.4258 -13.2227
v -25.3945 49.8086 -3.2695
v -25.0664 50.0000 6.0000
v -27.1875 32.0000 0.0000
v -13.7969 45.7969 -34.7695
v -21.0469 65.7305 -5.7891
v -19.0898 60.9297 10.4297
v -20.7344 53.5391 14.8828
v -15.4727 56.7617 20.8203
v -27.1875 32.0000 0.0000
v -18.6641 15.5547 -13.8867
v 0.0000 36.1367 10.0000
v -24.0312 30.0000 12.0000
v -8.9336 59.2500 24.0000
v -19.7578 44.7109 19.8594
v -20.7344 53.5391 14.8828
v -15.4727 56.7617 20.8203
v -13.3750 47.2266 23.6797
v -15.4727 56.7617 20.8203
v -8.9336 59.2500 24.0000
v -7.2188 49.5430 26.8164
v -1.4688 50.7109 27.8594
v -8.9336 59.2500 24.0000
v 0.0000 60.0000 25.0000
v 3.7695 49.7227 26.8594
v 8.9336 59.2500 24.0000
v -1.4688 50.7109 27.8594
v 0.0000 60.0000 25.0000
v 3.7695 49.7227 26.8594
v 13.3750 47.2266 23.6797
v 8.9336 59.2500 24.0000
v 15.4727 56.7617 20.8203
v 13.3750 47.2266 23.6797
v 19.7578 44.7109 19.8594
v 15.4727 56.7617 20.8203
v 20.7344 53.5391 14.8828
v 19.7578 44.7109 19.8594
v 22.4922 42.7109 15.8594
v 20.7344 53.5391 14.8828
v 24.0312 30.0000 12.0000
v 22.4922 42.7109 15.8594
v 25.0664 50.0000 6.0000
v -24.0312 30.0000 12.0000
v -22.4922 42.7109 15.8594
v -24.0312 30.0000 12.0000
v 0.0000 36.1367 10.0000
v 22.4922 42.7109 15.8594
v 19.0898 39.2266 20.4375
v 13.3750 47.2266 23.6797
v 24.0312 30.0000 12.0000
v 5.7188 48.0000 15.8594
v 22.4922 42.7109 15.8594
f 1 2 3
f 3 7 1
f 7 8 1
f 8 7 11
f 8 11 10
f 9 8 10
f 9 118 8
f 118 119 8
f 4 5 6
f 19 5 20
f 21 19 20
f 12 13 14
f 15 14 13
f 6 15 13
f 16 17 18
f 12 18 17
f 92 12 93
f 93 12 94
f 22 23 24
f 22 28 23
f 22 27 28
f 22 63 27
f 22 60 63
f 22 24 60
f 62 60 24
f 61 60 62
f 61 62 73
f 66 61 73
f 67 66 73
f 63 66 67
f 63 67 78
f 29 63 78
f 29 27 63
f 29 28 27
f 29 48 28
f 29 37 48
f 29 49 37
f 29 68 49
f 29 78 68
f 78 67 68
f 68 67 69
f 68 69 70
f 68 70 64
f 68 64 30
f 49 68 30
f 49 30 37
f 37 30 32
f 37 32 38
f 37 38 39
f 37 39 35
f 48 37 35
f 28 48 35
f 28 35 36
f 28 36 26
f 23 28 26
f 25 23 26
f 24 23 25
f 26 42 25
f 36 42 26
f 35 42 36
f 35 43 42
f 39 43 35
f 38 43 39
f 38 44 43
f 50 44 38
f 40 44 50
f 40 46 44
f 40 45 46
f 45 40 41
f 45 41 54
f 45 54 55
f 45 112 46
f 111 46 112
f 110 111 112
f 30 31 32
f 30 34 31
f 30 65 34
f 30 64 65
f 64 70 65
f 65 70 79
f 71 65 79
f 71 72 65
f 80 72 71
f 76 80 71
f 76 71 75
f 75 77 76
f 75 74 77
f 70 74 75
f 70 69 74
f 69 67 74
f 67 73 74
f 74 73 77
f 62 77 73
f 116 117 77
f 77 117 76
f 80 76 81
f 80 81 82
f 80 82 72
f 72 82 87
f 87 52 72
f 72 52 51
f 51 33 72
f 51 41 33
f 41 51 52
f 41 52 53
f 41 53 54
f 40 31 41
f 40 50 31
f 31 50 38
f 32 31 38
f 33 31 34
f 31 33 41
f 33 34 65
f 65 72 33
f 25 42 47
f 43 47 42
f 44 47 43
f 44 46 47
f 113 47 114
f 114 47 115
f 56 57 58
f 59 57 56
f 57 123 124
f 124 123 125
f 60 61 63
f 63 61 66
f 71 79 75
f 79 70 75
f 83 84 85
f 86 83 85
f 88 81 16
f 76 16 81
f 89 18 90
f 90 18 91
f 14 95 96
f 96 95 97
f 98 99 100
f 100 99 101
f 102 103 104
f 104 103 105
f 106 107 108
f 108 107 109
f 120 121 1
f 121 122 1
f 1 122 2
