v 1.1367 64.8125 16.1367
v 10.3984 64.0000 14.6641
v 0.0000 69.3320 5.3320
v 10.4023 68.0000 5.3320
v 20.1016 61.3320 3.0820
v 19.0000 58.5625 13.5156
v 26.0586 48.8633 9.3320
v 0.0000 33.6914 -35.9062
v 0.0000 46.2734 -34.9961
v 11.0000 33.6914 -33.6406
v 10.5977 45.5039 -33.1562
v 0.0000 65.5625 -18.5469
v 0.0000 69.2383 -6.3125
v 10.5977 63.9922 -17.6406
v 10.5977 67.4883 -6.0039
v 27.9023 33.6914 -16.1055
v 21.1289 33.6680 -26.6875
v 20.5898 45.3320 -26.1484
v 10.5977 56.1133 -27.0273
v 20.5742 58.2266 -16.1328
v 26.5117 45.3320 -16.1055
v 25.4375 52.9570 -2.8633
v 0.0000 57.2812 -28.4180
v 28.9688 43.9883 -3.4297
v 30.7109 33.6914 -4.0000
v 31.3672 -10.0000 9.3320
v 21.4609 20.0508 -5.3750
v 33.1680 -10.0000 -4.0000
v 30.6992 -10.0000 -16.1055
v 29.2578 12.5000 -16.1055
v 32.2383 12.5000 -4.0000
v 0.0000 12.5000 -37.5469
v 11.6133 12.5000 -35.1172
v 22.0078 12.5000 -27.5625
v 33.1680 -10.0000 -4.0000
v 30.6992 -10.0000 -16.1055
v 30.9961 12.5000 9.3320
v 12.2656 -10.0000 -36.6875
v 0.0000 -10.0000 -39.2305
v 22.8555 -10.0000 -28.4062
v 22.8555 -10.0000 -28.4062
v 12.2656 -10.0000 -36.6875
v 0.0000 -10.0000 -39.2305
v 28.5234 38.1797 9.3320
v 13.3438 52.0000 12.2148
v 29.3320 33.6914 9.3320
v 29.3320 33.6914 9.3320
v 30.9961 12.5000 9.3320
v 31.3672 -10.0000 9.3320
v 28.5234 38.1797 9.3320
v -10.3984 64.0000 14.6641
v -10.4023 68.0000 5.3320
v -19.0000 58.5625 13.5156
v -20.1016 61.3320 3.0820
v -11.0000 33.6914 -33.6406
v -10.5977 45.5039 -33.1562
v -10.5977 63.9922 -17.6406
v -10.5977 67.4883 -6.0039
v -27.9023 33.6914 -16.1055
v -20.5898 45.3320 -26.1484
v -21.1289 33.6680 -26.6875
v -10.5977 56.1133 -27.0273
v -20.5742 58.2266 -16.1328
v -26.5117 45.3320 -16.1055
v -25.4375 52.9570 -2.8633
v -28.9688 43.9883 -3.4297
v -30.7109 33.6914 -4.0000
v -31.3672 -10.0000 9.3320
v -33.1680 -10.0000 -4.0000
v -21.4609 20.0508 -5.3750
v -30.6992 -10.0000 -16.1055
v -29.2578 12.5000 -16.1055
v -32.2383 12.5000 -4.0000
v -11.6133 12.5000 -35.1172
v -22.0078 12.5000 -27.5625
v -33.1680 -10.0000 -4.0000
v -30.6992 -10.0000 -16.1055
v -30.9961 12.5000 9.3320
v -12.2656 -10.0000 -36.6875
v -22.8555 -10.0000 -28.4062
v -22.8555 -10.0000 -28.4062
v -12.2656 -10.0000 -36.6875
v -28.5234 38.1797 9.3320
v -29.3320 33.6914 9.3320
v -26.0586 48.8633 9.3320
v -29.3320 33.6914 9.3320
v -30.9961 12.5000 9.3320
v -31.3672 -10.0000 9.3320
v -28.5234 38.1797 9.3320
v 2.3398 59.2773 22.9180
v -15.4219 50.4414 24.1172
v -7.2969 54.8789 25.3203
v -21.8789 46.5039 20.0586
v -20.9297 38.7930 23.6914
v -12.5703 41.0781 27.6523
v -3.2930 45.2031 29.3633
v 4.8008 50.3359 27.0938
v 10.7148 55.9453 23.1367
v 3.3242 52.0000 12.2148
v -3.2930 45.2031 29.3633
v -12.5703 41.0781 27.6523
v 24.9023 45.3242 16.8906
v 17.8633 54.9766 20.5820
v 25.1836 38.7695 15.8516
v 17.8086 45.1328 25.1680
v 14.6914 49.3750 25.5547
v 21.4961 41.0586 21.9883
v 10.6211 57.8984 9.0898
v 10.7148 55.9453 23.1367
v 13.3438 52.0000 12.2148
v -20.9297 38.7930 23.6914
v -28.5234 38.1797 9.3320
v 4.8008 50.3359 27.0938
v 14.6914 49.3750 25.5547
v 17.8086 45.1328 25.1680
v 21.4961 41.0586 21.9883
v 28.5234 38.1797 9.3320
v 25.1836 38.7695 15.8516
v 3.3242 52.0000 12.2148
f 1 2 3
f 1 3 51
f 90 1 51
f 1 90 2
f 98 2 90
f 98 90 97
f 90 92 97
f 90 51 92
f 51 53 92
f 51 52 53
f 52 51 3
f 3 13 52
f 4 13 3
f 4 3 2
f 4 2 6
f 5 4 6
f 7 5 6
f 22 5 7
f 5 22 20
f 15 5 20
f 14 15 20
f 13 15 14
f 12 13 14
f 19 12 14
f 23 12 19
f 19 11 23
f 11 19 18
f 18 17 11
f 16 17 18
f 18 21 16
f 20 21 18
f 19 20 18
f 19 14 20
f 20 22 21
f 22 24 21
f 22 7 24
f 7 50 24
f 7 102 50
f 7 6 102
f 102 6 103
f 102 103 105
f 102 105 107
f 102 107 104
f 102 104 50
f 50 25 24
f 50 47 25
f 25 47 31
f 25 31 30
f 16 25 30
f 25 16 21
f 21 24 25
f 8 9 10
f 8 10 33
f 32 8 33
f 33 38 32
f 38 33 40
f 33 34 40
f 10 34 33
f 17 34 10
f 17 10 11
f 9 11 10
f 11 9 23
f 56 23 9
f 9 55 56
f 8 55 9
f 8 74 55
f 32 74 8
f 74 32 79
f 79 80 74
f 74 80 75
f 55 74 75
f 61 55 75
f 61 56 55
f 60 56 61
f 59 60 61
f 60 59 64
f 63 60 64
f 62 60 63
f 56 60 62
f 62 23 56
f 23 62 12
f 62 57 12
f 62 63 57
f 57 63 58
f 13 57 58
f 12 57 13
f 15 13 4
f 15 4 5
f 26 27 28
f 26 37 27
f 46 27 37
f 27 46 44
f 44 45 27
f 29 28 27
f 29 27 41
f 41 27 42
f 42 27 43
f 70 43 27
f 82 43 70
f 81 82 70
f 71 81 70
f 71 70 69
f 68 69 70
f 68 70 78
f 84 78 70
f 83 84 70
f 70 119 83
f 16 30 17
f 34 17 30
f 30 36 34
f 36 30 31
f 35 36 31
f 31 48 35
f 47 48 31
f 48 49 35
f 32 38 39
f 32 39 79
f 40 34 36
f 53 52 54
f 54 85 53
f 65 85 54
f 54 63 65
f 58 63 54
f 58 54 52
f 13 58 52
f 63 64 65
f 65 64 66
f 65 66 85
f 85 66 89
f 93 85 89
f 94 93 89
f 93 94 91
f 53 93 91
f 91 92 53
f 92 91 96
f 96 97 92
f 91 95 96
f 95 91 94
f 67 64 59
f 59 72 67
f 59 61 72
f 75 72 61
f 72 75 77
f 77 73 72
f 76 73 77
f 73 76 87
f 86 73 87
f 67 73 86
f 67 72 73
f 64 67 66
f 89 66 67
f 89 67 86
f 80 77 75
f 87 76 88
f 53 85 93
f 99 100 101
f 113 100 99
f 113 99 109
f 99 108 109
f 109 108 110
f 109 110 114
f 114 110 115
f 110 116 115
f 110 118 116
f 117 118 110
f 6 2 103
f 2 98 103
f 106 103 98
f 105 103 106
f 99 111 112
f 99 101 111
