v 19.7930 50.8008 20.6328
v 17.6562 60.0000 14.0000
v 15.0000 53.0000 23.2969
v 0.0000 33.7852 -35.3750
v 0.0000 46.1250 -34.8594
v 15.2930 33.5742 -30.1641
v 15.1914 44.6016 -29.7734
v 10.5977 67.4883 -6.0039
v 10.5977 63.9922 -17.6406
v 0.0000 69.2383 -6.3125
v 0.0000 65.5625 -18.5469
v 0.0000 68.4023 5.6367
v 0.0000 63.9688 18.1797
v 10.4023 66.7188 5.3398
v 10.5977 56.1133 -27.0273
v 18.7617 58.1797 -15.8359
v 18.7617 61.0625 4.8672
v 26.2422 42.6641 -14.5508
v 25.5156 52.9570 0.0000
v 25.3320 22.5938 -14.9375
v 0.0000 57.2812 -28.4180
v 28.8320 42.1836 0.0000
v 25.9648 50.9258 10.0586
v 29.3320 31.5117 0.0000
v 15.4766 22.5938 -27.7227
v 0.0000 22.6641 -32.0000
v 7.7227 10.9531 -30.6289
v 15.6758 13.3320 -28.0000
v 27.3477 22.5938 -3.1484
v 28.6602 13.2109 -8.0000
v 31.4336 5.9648 -14.6484
v 25.8516 13.2109 -14.7383
v 0.0000 13.2109 -32.0000
v 0.0000 3.1016 -36.0000
v 18.8203 5.4609 -29.3320
v 19.8320 12.1406 -21.0352
v 9.1953 8.9023 -19.1953
v 0.0000 3.1016 -36.0000
v 7.7227 10.9531 -30.6289
v 29.3320 31.5117 0.0000
v 27.1406 22.0898 5.7695
v 22.0000 37.4023 2.2500
v 0.0000 51.3984 6.2266
v 26.3047 29.9062 10.9844
v 24.3945 39.0391 14.3164
v 7.8945 45.0000 26.0000
v 0.0000 54.8203 26.8945
v 15.0000 53.0000 23.2969
v 8.5039 54.0000 26.0000
v 0.0000 54.8203 26.8945
v 7.8945 45.0000 26.0000
v 22.0820 47.0195 16.1055
v 17.9961 43.2461 21.5898
v 17.9961 43.2461 21.5898
v 22.0820 47.0195 16.1055
v 28.7734 40.6211 8.2031
v 24.3945 39.0391 14.3164
v 29.0078 30.7188 7.3047
v 27.1406 22.0898 5.7695
v 26.3047 29.9062 10.9844
v -19.7930 50.8008 20.6328
v -15.0000 53.0000 23.2969
v -17.6562 60.0000 14.0000
v -15.2930 33.5742 -30.1641
v -15.1914 44.6016 -29.7734
v -10.5977 67.4883 -6.0039
v -10.5977 63.9922 -17.6406
v -10.4023 66.7188 5.3398
v -10.5977 56.1133 -27.0273
v -18.7617 58.1797 -15.8359
v -18.7617 61.0625 4.8672
v -26.2422 42.6641 -14.5508
v -25.5156 52.9570 0.0000
v -29.3320 31.5117 0.0000
v -25.3320 22.5938 -14.9375
v -28.8320 42.1836 0.0000
v -25.9648 50.9258 10.0586
v -27.3477 22.5938 -3.1484
v -15.4766 22.5938 -27.7227
v -7.7227 10.9531 -30.6289
v -15.6758 13.3320 -28.0000
v -28.6602 13.2109 -8.0000
v -31.4336 5.9648 -14.6484
v -25.8516 13.2109 -14.7383
v -18.8203 5.4609 -29.3320
v -19.8320 12.1406 -21.0352
v -29.3320 31.5117 0.0000
v -22.0000 37.4023 2.2500
v -27.1406 22.0898 5.7695
v -24.3945 39.0391 14.3164
v -26.3047 29.9062 10.9844
v -7.8945 45.0000 26.0000
v -15.0000 53.0000 23.2969
v -8.5039 54.0000 26.0000
v -7.8945 45.0000 26.0000
v -22.0820 47.0195 16.1055
v -17.9961 43.2461 21.5898
v -17.9961 43.2461 21.5898
v -27.3477 22.5938 -3.1484
v -28.6602 13.2109 -8.0000
v -18.8086 9.9219 -14.9102
v -31.4336 5.9648 -14.6484
v -19.8320 12.1406 -21.0352
v -22.0820 47.0195 16.1055
v -28.7734 40.6211 8.2031
v -24.3945 39.0391 14.3164
v -29.0078 30.7188 7.3047
v -27.1406 22.0898 5.7695
v -26.3047 29.9062 10.9844
v -7.7227 10.9531 -30.6289
v -9.1953 8.9023 -19.1953
v 19.8320 12.1406 -21.0352
v 18.8086 9.9219 -14.9102
v 18.8203 5.4609 -29.3320
v 7.7227 10.9531 -30.6289
v 27.3477 22.5938 -3.1484
v 28.6602 13.2109 -8.0000
v 19.8320 12.1406 -21.0352
v 31.4336 5.9648 -14.6484
v -18.8203 5.4609 -29.3320
v -7.7227 10.9531 -30.6289
v -19.8320 12.1406 -21.0352
v -14.1055 21.2070 -8.9297
v 0.0000 19.5000 -11.2695
v 14.1055 21.2070 -8.9297
v 29.3320 31.5117 0.0000
v 22.0000 37.7031 2.3906
v -29.3320 31.5117 0.0000
v -22.0000 37.7031 2.3906
f 1 2 3
f 53 1 3
f 52 1 53
f 1 52 23
f 2 1 23
f 2 23 17
f 17 14 2
f 8 14 17
f 8 12 14
f 10 12 8
f 8 9 10
f 9 8 16
f 15 9 16
f 15 16 7
f 15 7 5
f 21 15 5
f 21 11 15
f 21 69 11
f 5 69 21
f 65 69 5
f 5 64 65
f 4 64 5
f 4 5 6
f 25 4 6
f 25 6 20
f 25 20 32
f 36 25 32
f 28 25 36
f 27 25 28
f 27 26 25
f 27 33 26
f 33 27 34
f 33 34 80
f 80 26 33
f 80 79 26
f 80 81 79
f 80 85 81
f 81 85 86
f 81 86 79
f 86 84 79
f 83 84 86
f 83 82 84
f 75 84 82
f 78 75 82
f 78 74 75
f 74 72 75
f 72 74 76
f 73 72 76
f 70 72 73
f 70 65 72
f 69 65 70
f 69 70 67
f 69 67 11
f 67 10 11
f 66 10 67
f 10 66 12
f 66 68 12
f 66 71 68
f 66 70 71
f 67 70 66
f 71 70 73
f 71 73 77
f 63 71 77
f 71 63 68
f 68 63 13
f 12 68 13
f 12 13 14
f 14 13 2
f 13 49 2
f 50 49 13
f 49 50 51
f 3 49 51
f 3 2 49
f 5 7 6
f 6 7 18
f 6 18 20
f 24 20 18
f 29 20 24
f 29 30 20
f 20 30 32
f 31 32 30
f 31 36 32
f 28 36 35
f 27 28 35
f 9 11 10
f 15 11 9
f 8 17 16
f 17 19 16
f 17 23 19
f 19 23 22
f 19 22 18
f 16 19 18
f 16 18 7
f 18 22 24
f 24 22 58
f 59 24 58
f 59 58 60
f 56 60 58
f 58 22 56
f 56 22 23
f 57 56 23
f 57 23 52
f 57 60 56
f 26 4 25
f 26 79 4
f 79 64 4
f 79 75 64
f 79 84 75
f 64 75 72
f 72 65 64
f 37 38 39
f 37 111 38
f 124 111 37
f 111 124 123
f 123 101 111
f 101 123 99
f 99 100 101
f 100 102 101
f 101 102 103
f 111 101 120
f 121 111 120
f 110 38 111
f 40 41 42
f 42 41 43
f 43 41 44
f 43 44 45
f 43 45 55
f 54 43 55
f 54 48 43
f 43 48 46
f 43 46 47
f 43 47 92
f 43 92 93
f 98 43 93
f 98 104 43
f 43 104 90
f 43 90 91
f 43 91 89
f 89 88 43
f 87 88 89
f 61 62 63
f 97 62 61
f 96 97 61
f 61 77 96
f 63 77 61
f 13 63 94
f 50 13 94
f 94 95 50
f 62 95 94
f 62 94 63
f 73 76 77
f 105 77 76
f 77 105 106
f 77 106 96
f 109 106 105
f 107 109 105
f 105 76 107
f 76 74 107
f 108 107 74
f 108 109 107
f 112 113 114
f 113 37 114
f 113 125 37
f 113 116 125
f 116 113 117
f 117 113 119
f 118 119 113
f 115 114 37
f 37 125 124
f 116 127 125
f 126 127 116
f 101 122 120
f 128 99 129
f 129 99 123
