v 0.0000 22.0156 -30.6289
v 11.3047 22.5742 -29.0898
v 0.0000 9.6289 -19.1055
v 18.6641 15.5547 -13.8867
v 18.3516 25.7539 -25.1172
v 11.3984 34.1562 -31.6953
v 0.0000 33.5469 -34.3477
v 19.3555 35.5977 -24.9492
v 26.1250 33.4336 -16.0000
v 24.6250 37.2383 -17.0586
v 28.4062 31.0000 0.0000
v 27.5820 40.4922 -1.5898
v -11.3047 22.5742 -29.0898
v -18.6641 15.5547 -13.8867
v -18.3516 25.7539 -25.1172
v -11.3984 34.1562 -31.6953
v -19.3555 35.5977 -24.9492
v -28.4062 31.0000 0.0000
v -25.8711 23.0000 9.0000
v -26.3281 36.7500 13.1523
v -26.1250 33.4336 -16.0000
v -24.6250 37.2383 -17.0586
v -27.5820 40.4922 -1.5898
v 25.8711 23.0000 9.0000
v 26.3281 36.7500 13.1523
v 0.0000 36.7500 -8.1367
v -26.3281 36.7500 13.1523
v -25.8711 23.0000 9.0000
v 0.0000 36.7500 -8.1367
v 25.8711 23.0000 9.0000
v 26.3281 36.7500 13.1523
v -28.4062 31.0000 0.0000
v 28.4062 31.0000 0.0000
v -18.6641 15.5547 -13.8867
v 18.6641 15.5547 -13.8867
v 21.6094 46.9922 14.5625
v -21.6016 46.9922 14.5625
v -21.6016 46.9922 14.5625
v 21.6094 46.9922 14.5625
v -21.8789 38.9297 14.9570
v -15.7812 39.7227 21.2070
v -21.9883 45.7344 14.3906
v -15.8711 47.6523 20.1641
v -20.7617 51.3281 12.9727
v -15.4102 54.0664 18.2461
v -8.2695 40.3438 25.6680
v 0.0078 40.5781 27.1992
v -8.3203 49.2383 24.3008
v 0.0078 49.5000 25.4570
v 8.3203 49.2383 24.3008
v 8.2695 40.3438 25.6680
v 15.8711 47.6523 20.1641
v 15.7812 39.7227 21.2070
v -7.5234 57.2930 20.3711
v 0.0195 57.4727 21.4375
v 7.5234 57.2930 20.3711
v 15.4102 54.0664 18.2461
v 20.7617 51.3281 12.9727
v 21.9883 45.7344 14.3906
v 21.8789 38.9297 14.9570
v 0.0078 40.5781 27.1992
v -8.2695 40.3438 25.6680
v 0.0000 36.7500 -8.1367
v -15.7812 39.7227 21.2070
v -21.8789 38.9297 14.9570
v 8.2695 40.3438 25.6680
v 15.7812 39.7227 21.2070
v 21.8789 38.9297 14.9570
v 21.8789 38.9297 14.9570
v 0.0000 36.7500 -8.1367
v 21.9883 45.7344 14.3906
v -21.9883 45.7344 14.3906
v -20.7617 51.3281 12.9727
v 20.7617 51.3281 12.9727
f 1 2 3
f 2 1 7
f 6 2 7
f 2 6 5
f 2 5 4
f 4 3 2
f 5 9 4
f 8 9 5
f 6 8 5
f 8 10 9
f 12 9 10
f 11 9 12
f 4 9 11
f 24 11 25
f 11 12 25
f 12 36 25
f 1 3 13
f 7 1 13
f 16 7 13
f 13 15 16
f 15 13 14
f 15 14 21
f 17 15 21
f 16 15 17
f 17 21 22
f 23 22 21
f 18 23 21
f 14 18 21
f 13 3 14
f 18 19 20
f 18 20 23
f 20 37 23
f 26 27 28
f 32 26 28
f 34 26 32
f 27 26 38
f 29 30 31
f 30 29 33
f 33 29 35
f 29 31 39
f 40 41 42
f 42 41 43
f 42 43 44
f 44 43 45
f 48 45 43
f 43 46 48
f 41 46 43
f 46 47 48
f 48 47 49
f 48 49 54
f 54 45 48
f 54 49 55
f 49 56 55
f 50 56 49
f 49 47 50
f 50 47 51
f 50 51 52
f 52 57 50
f 57 52 58
f 58 52 59
f 52 53 59
f 52 51 53
f 59 53 60
f 50 57 56
f 61 62 63
f 61 63 66
f 66 63 67
f 68 67 63
f 62 64 63
f 64 65 63
f 63 65 72
f 72 73 63
f 69 70 71
f 71 70 74
