v 24.6250 37.2383 -17.0586
v 27.5820 40.4922 -1.5898
v 29.4883 28.7188 -2.4297
v -29.4883 28.7188 -2.4297
v -27.5820 40.4922 -1.5898
v -24.6250 37.2383 -17.0586
v 22.9023 28.7188 -21.2695
v -22.9023 28.7188 -21.2695
v -19.3555 35.5977 -24.9492
v 19.3555 35.5977 -24.9492
v -11.3984 34.1562 -31.6953
v -11.4375 28.7188 -31.2773
v 0.0000 33.5469 -34.3477
v 0.0000 28.7188 -34.3789
v 11.3984 34.1562 -31.6953
v 11.4375 28.7188 -31.2773
v 22.0820 15.1602 -16.9219
v 27.2109 15.6523 1.3633
v -27.2109 15.6523 1.3633
v -22.0820 15.1602 -16.9219
v -10.8828 15.0000 -28.9453
v 0.0000 15.0000 -30.5430
v 10.8828 15.0000 -28.9453
v -22.5195 6.3672 -11.8516
v -26.2891 7.1523 1.1836
v -12.0664 6.0781 -24.1523
v 0.0000 6.4570 -27.0352
v 12.0664 6.0781 -24.1523
v 22.5195 6.3672 -11.8516
v 28.9766 -1.6875 -0.8125
v 25.8594 -3.1367 -13.2422
v 26.2891 7.1523 1.1836
v 13.8750 -4.7188 -26.7969
v 0.0000 -5.0703 -29.8438
v 22.1562 -14.0742 -15.6094
v 26.6914 -8.5234 -6.1719
v 14.5000 -16.9062 -23.2500
v 0.0000 -17.4922 -26.1992
v -13.8750 -4.7188 -26.7969
v -25.8594 -3.1367 -13.2422
v -22.1562 -14.0742 -15.6094
v -26.6914 -8.5234 -6.1719
v -14.5000 -16.9062 -23.2500
v -28.9766 -1.6875 -0.8125
v -13.7734 38.4414 25.1953
v -18.5625 49.3242 18.4062
v -22.6172 33.7188 17.7109
v -23.0977 44.6914 11.8555
v -12.3945 53.1094 21.0430
v -3.2383 46.0312 25.9023
v -5.4570 57.5586 20.6250
v 5.9727 53.9492 22.8984
v 2.6562 59.0039 17.9727
v 23.0117 44.1758 12.0273
v 20.6758 47.6406 15.5898
v 24.5977 33.4258 17.2852
v 16.4961 40.7188 23.2031
v 17.0352 51.1719 16.8164
v 9.6758 48.5664 24.1016
v 12.9766 54.6992 18.5312
v 16.4961 40.7188 23.2031
v 9.6758 48.5664 24.1016
v 20.8828 37.3047 7.1328
v 5.9727 53.9492 22.8984
v -3.2383 46.0312 25.9023
v 5.8633 54.6719 16.5273
v 24.5977 33.4258 17.2852
v -13.7734 38.4414 25.1953
v -20.8828 37.3047 7.1328
v -22.6172 33.7188 17.7109
v 28.3398 31.6094 11.1328
v -28.3398 31.6094 11.1328
v -24.8516 42.6797 8.0273
v 28.3398 31.6094 11.1328
v 28.0625 25.9727 11.9961
v 26.8477 19.6836 13.8477
v -28.0625 25.9727 11.9961
v -26.8477 19.6836 13.8477
v -28.3398 31.6094 11.1328
v 24.8516 42.6797 8.0273
v -18.6094 21.3125 6.4922
v -28.0625 25.9727 11.9961
v -26.8477 19.6836 13.8477
v -27.2109 15.6523 1.3633
v -18.2812 18.7188 -2.3125
v -26.2891 7.1523 1.1836
v -15.7852 14.2812 -2.1484
v -28.9766 -1.6875 -0.8125
v -26.6914 -8.5234 -6.1719
v -22.1562 -14.0742 -15.6094
v -14.5000 -16.9062 -23.2500
v 0.0000 -17.4922 -26.1992
v 0.0000 9.7148 -14.0078
v 14.5000 -16.9062 -23.2500
v 15.7852 14.2812 -2.1484
v 22.1562 -14.0742 -15.6094
v 26.6914 -8.5234 -6.1719
v 28.9766 -1.6875 -0.8125
v 26.2891 7.1523 1.1836
v 18.2812 18.7188 -2.3125
v 27.2109 15.6523 1.3633
v 18.6094 21.3125 6.4922
v 26.8477 19.6836 13.8477
v 28.0625 25.9727 11.9961
f 1 2 3
f 1 3 7
f 1 7 10
f 7 16 10
f 16 7 23
f 16 23 22
f 14 16 22
f 12 14 22
f 21 12 22
f 8 12 21
f 12 8 9
f 11 12 9
f 14 12 11
f 13 14 11
f 15 14 13
f 16 14 15
f 16 15 10
f 4 5 6
f 6 8 4
f 6 9 8
f 4 8 20
f 19 4 20
f 4 19 77
f 72 4 77
f 73 4 72
f 72 48 73
f 72 47 48
f 47 46 48
f 45 46 47
f 45 49 46
f 49 45 50
f 51 49 50
f 52 51 50
f 52 53 51
f 52 60 53
f 52 59 60
f 59 58 60
f 58 59 57
f 58 57 55
f 55 57 56
f 54 55 56
f 54 56 74
f 80 54 74
f 3 80 74
f 74 75 3
f 3 75 18
f 17 3 18
f 7 3 17
f 23 7 17
f 23 17 28
f 28 27 23
f 27 28 34
f 27 34 26
f 26 21 27
f 20 21 26
f 20 8 21
f 24 25 20
f 24 20 26
f 26 39 24
f 39 26 34
f 38 39 34
f 38 34 33
f 37 38 33
f 33 31 37
f 31 33 29
f 29 32 31
f 17 32 29
f 29 28 17
f 28 29 33
f 33 34 28
f 21 22 27
f 22 23 27
f 30 31 32
f 36 31 30
f 35 31 36
f 37 31 35
f 40 24 39
f 39 43 40
f 43 39 38
f 43 41 40
f 41 42 40
f 42 44 40
f 44 25 40
f 25 24 40
f 20 25 19
f 77 19 78
f 61 62 63
f 61 63 67
f 67 63 71
f 71 63 104
f 104 63 102
f 104 102 103
f 102 101 103
f 100 101 102
f 100 95 101
f 101 95 99
f 98 99 95
f 97 98 95
f 96 97 95
f 95 94 96
f 93 94 95
f 92 94 93
f 92 93 91
f 91 93 87
f 87 90 91
f 90 87 89
f 89 87 88
f 88 87 86
f 86 87 84
f 84 87 85
f 81 84 85
f 83 84 81
f 81 82 83
f 81 69 82
f 82 69 79
f 69 70 79
f 69 68 70
f 65 68 69
f 69 66 65
f 64 65 66
f 63 64 66
f 64 63 62
f 18 75 76
f 18 32 17
f 2 80 3
f 73 5 4
