v -25.6719 23.1484 12.0078
v -25.8477 36.1992 9.5781
v -27.1250 20.9336 4.2578
v -26.3984 33.4336 0.0000
v 0.0000 78.8125 3.0117
v 0.0000 76.3672 -12.3828
v -10.5898 77.5312 2.4453
v -10.1758 75.1445 -12.6094
v 0.0000 76.5938 16.3789
v -10.7656 75.3555 15.5195
v 0.0000 69.9219 26.4141
v -10.6797 68.8320 25.3359
v -10.3438 58.5898 30.9492
v 0.0000 59.4453 32.1484
v -9.9297 50.5508 26.3516
v 0.0000 50.1562 28.4883
v -20.2930 65.6914 22.2031
v -20.2930 72.8047 6.9180
v -30.5000 57.8828 14.1719
v -30.4961 63.6875 1.7070
v -23.4375 54.2734 24.1758
v -24.1758 47.5312 16.1445
v -19.2305 51.3320 22.5469
v -30.6523 47.5391 14.3086
v -23.7500 35.4844 9.5195
v 0.0000 49.3672 6.0000
v -36.0469 49.3320 0.2617
v -22.6523 68.4180 -13.7852
v -34.1797 51.2383 -17.4219
v -35.2930 36.0312 -16.9727
v -36.1602 39.1367 -2.2383
v -33.2461 29.9453 -3.6406
v -31.8672 26.1953 -17.3906
v -16.6367 62.6641 -28.2773
v 0.0000 66.1016 -31.0156
v -17.0430 52.1133 -37.9648
v -28.4219 49.5977 -28.5547
v 0.0000 54.5195 -41.5781
v -28.4922 36.2266 -30.5547
v -16.3008 37.6172 -41.2969
v 0.0000 38.7227 -45.0977
v -25.8750 24.9102 -28.7617
v -14.4727 24.0039 -37.0859
v 0.0000 23.8203 -40.3008
v -21.3516 18.1445 -22.3203
v -12.2930 15.7266 -27.8164
v 0.0000 14.7070 -29.8125
v -24.0000 21.9062 -7.5898
v -18.6641 15.5547 -13.8867
v 0.0000 9.6289 -19.1055
v -29.2969 33.7461 10.4844
v -27.4609 24.5508 1.2109
v -24.0000 21.9062 -7.5898
v -12.0000 34.9531 -1.5117
v -27.4609 24.5508 1.2109
v 26.3984 33.4336 0.0000
v 25.8477 36.1992 9.5781
v 27.1250 20.9336 4.2578
v 25.6719 23.1484 12.0078
v 10.5898 77.5312 2.4453
v 10.1758 75.1445 -12.6094
v 10.7656 75.3555 15.5195
v 10.6797 68.8320 25.3359
v 10.3438 58.5898 30.9492
v 9.9297 50.5508 26.3516
v 20.2930 65.6914 22.2031
v 30.5000 57.8828 14.1719
v 20.2930 72.8047 6.9180
v 30.4961 63.6875 1.7070
v 23.4375 54.2734 24.1758
v 19.2305 51.3320 22.5469
v 24.1758 47.5312 16.1445
v 30.6523 47.5391 14.3086
v 23.7500 35.4844 9.5195
v 36.0469 49.3320 0.2617
v 22.6523 68.4180 -13.7852
v 35.2930 36.0312 -16.9727
v 36.1602 39.1367 -2.2383
v 34.1797 51.2383 -17.4219
v 33.2461 29.9453 -3.6406
v 31.8672 26.1953 -17.3906
v 16.6367 62.6641 -28.2773
v 28.4219 49.5977 -28.5547
v 17.0430 52.1133 -37.9648
v 28.4922 36.2266 -30.5547
v 16.3008 37.6172 -41.2969
v 25.8750 24.9102 -28.7617
v 14.4727 24.0039 -37.0859
v 21.3516 18.1445 -22.3203
v 12.2930 15.7266 -27.8164
v 24.0000 21.9062 -7.5898
v 18.6641 15.5547 -13.8867
v 27.4609 24.5508 1.2109
v 29.2969 33.7461 10.4844
v 24.0000 21.9062 -7.5898
v 27.4609 24.5508 1.2109
v 12.0000 34.9531 -1.5117
v -25.6719 23.1484 12.0078
v 25.6719 23.1484 12.0078
v -25.8477 36.1992 9.5781
v 25.8477 36.1992 9.5781
v -26.3984 33.4336 0.0000
v 26.3984 33.4336 0.0000
v -27.1250 20.9336 4.2578
v 27.1250 20.9336 4.2578
v -24.0000 21.9062 -7.5898
v -18.6641 15.5547 -13.8867
v 18.6641 15.5547 -13.8867
v 24.0000 21.9062 -7.5898
v 12.0000 34.9531 -1.5117
f 1 2 3
f 2 4 3
f 5 6 7
f 10 5 7
f 9 5 10
f 10 12 9
f 12 10 17
f 12 17 13
f 12 13 11
f 11 9 12
f 11 63 9
f 63 11 64
f 63 64 66
f 63 66 62
f 62 9 63
f 9 62 5
f 62 60 5
f 62 68 60
f 66 68 62
f 66 67 68
f 66 70 67
f 64 70 66
f 64 65 70
f 65 64 16
f 26 65 16
f 26 16 15
f 26 15 23
f 23 22 26
f 21 22 23
f 24 22 21
f 24 21 19
f 19 27 24
f 27 19 20
f 27 20 29
f 27 29 30
f 27 30 31
f 31 24 27
f 51 24 31
f 31 32 51
f 30 32 31
f 33 32 30
f 42 33 30
f 42 30 39
f 39 43 42
f 40 43 39
f 37 40 39
f 37 39 29
f 28 37 29
f 20 28 29
f 18 28 20
f 19 18 20
f 17 18 19
f 21 17 19
f 13 17 21
f 13 21 15
f 15 16 13
f 13 16 14
f 11 13 14
f 11 14 64
f 64 14 16
f 6 8 7
f 6 35 8
f 6 61 35
f 6 60 61
f 5 60 6
f 61 60 76
f 61 76 82
f 82 35 61
f 35 82 38
f 35 38 34
f 34 8 35
f 8 34 28
f 7 8 28
f 18 7 28
f 10 7 18
f 17 10 18
f 22 25 26
f 25 22 51
f 55 25 51
f 55 54 25
f 53 54 55
f 54 106 107
f 36 37 34
f 36 34 38
f 38 41 36
f 38 84 41
f 84 38 82
f 84 82 83
f 84 83 86
f 84 86 41
f 41 86 44
f 41 44 40
f 36 41 40
f 36 40 37
f 40 44 43
f 44 47 43
f 44 88 47
f 86 88 44
f 86 85 88
f 83 85 86
f 79 85 83
f 83 76 79
f 82 76 83
f 68 69 76
f 67 69 68
f 69 67 75
f 75 79 69
f 77 79 75
f 77 75 78
f 77 78 80
f 81 77 80
f 87 77 81
f 87 85 77
f 85 87 88
f 88 87 90
f 88 90 47
f 47 90 50
f 47 50 46
f 43 47 46
f 43 46 42
f 42 46 45
f 45 33 42
f 48 33 45
f 48 45 49
f 46 49 45
f 50 49 46
f 90 92 50
f 89 92 90
f 87 89 90
f 89 87 81
f 91 89 81
f 91 92 89
f 81 80 91
f 93 91 80
f 93 80 94
f 78 94 80
f 94 78 73
f 72 94 73
f 73 70 72
f 73 67 70
f 67 73 75
f 78 75 73
f 34 37 28
f 39 30 29
f 15 21 23
f 52 51 32
f 52 32 48
f 33 48 32
f 22 24 51
f 56 57 58
f 57 59 58
f 70 71 72
f 65 71 70
f 26 71 65
f 71 26 72
f 72 26 74
f 74 94 72
f 96 94 74
f 96 74 97
f 95 96 97
f 69 79 76
f 77 85 79
f 76 60 68
f 98 99 100
f 98 104 99
f 99 104 105
f 104 103 105
f 102 103 104
f 100 99 101
f 108 109 110
