v -9.1914 70.8828 -19.0938
v 0.0000 71.0469 -4.5117
v 0.0000 68.2695 -18.1328
v -16.5117 68.4297 9.1992
v -5.8984 69.3477 10.1250
v -19.9609 77.2539 12.2734
v -24.2578 57.1562 13.2695
v -22.8555 64.0781 1.9961
v -9.0938 74.5977 3.8477
v -18.8945 66.5000 -33.5547
v -18.6836 63.0000 -17.7852
v -15.6992 56.5000 -28.3203
v -13.0234 71.9961 -6.4648
v -25.9258 56.0781 -10.2891
v -26.0430 47.1250 -22.0195
v -28.6953 33.2500 -10.2266
v -27.8164 54.3516 1.1641
v -33.8320 66.5000 -9.3672
v -33.8320 66.5000 -9.3672
v -19.9609 77.2539 12.2734
v 0.0000 66.3672 12.5117
v -35.3477 30.6992 -1.6719
v -28.1523 26.1172 -1.0820
v -26.4922 40.0586 14.5195
v -28.4492 9.1211 9.5352
v -27.1797 18.3008 0.8359
v -10.2031 49.6797 28.2617
v -6.2461 58.3594 24.1367
v -18.0273 60.2500 22.7656
v -23.9648 37.1953 23.9492
v -22.4180 21.0078 16.9180
v -16.4375 34.8750 27.1914
v 5.8984 69.3477 10.1250
v 6.2461 58.3594 24.1367
v -22.4180 21.0078 16.9180
v -10.7500 53.9023 17.2344
v -16.4375 34.8750 27.1914
v -10.2031 49.6797 28.2617
v -26.4922 40.0586 14.5195
v -18.8945 66.5000 -33.5547
v -4.5742 63.6953 -27.0547
v -31.8984 42.5781 -0.4375
v -31.8984 42.5781 -0.4375
v -31.1758 27.0000 -25.2695
v -23.6484 23.0000 -21.2695
v -24.9219 4.0000 -4.0000
v -23.0117 13.0000 -15.1328
v -35.3477 30.6992 -1.6719
v -18.7773 34.0000 -31.2422
v -31.1758 27.0000 -25.2695
v -11.3867 22.0000 -31.8359
v -10.8672 25.0000 -40.5664
v 0.0000 32.5000 -35.2422
v -10.8672 25.0000 -40.5664
v -18.6641 15.5547 -13.8867
v 0.0000 35.4102 -0.9570
v -24.9219 4.0000 -4.0000
v -23.0117 13.0000 -15.1328
v -27.1797 18.3008 0.8359
v 0.0000 9.6289 -19.1055
v -9.4062 12.2500 -29.7773
v 0.0000 0.0000 -32.0000
v -9.4062 12.2500 -29.7773
v -28.4492 9.1211 9.5352
v -17.5781 0.0000 -22.0000
v -9.0508 45.1641 -35.7461
v -17.5781 0.0000 -22.0000
v 9.0508 45.1641 -35.7461
v 18.0273 60.2500 22.7656
v 9.1914 70.8828 -19.0938
v 16.5117 68.4297 9.1992
v 19.9609 77.2539 12.2734
v 24.2578 57.1562 13.2695
v 22.8555 64.0781 1.9961
v 9.0938 74.5977 3.8477
v 18.6836 63.0000 -17.7852
v 18.8945 66.5000 -33.5547
v 26.0430 47.1250 -22.0195
v 15.6992 56.5000 -28.3203
v 13.0234 71.9961 -6.4648
v 25.9258 56.0781 -10.2891
v 28.6953 33.2500 -10.2266
v 31.1758 27.0000 -25.2695
v 27.8164 54.3516 1.1641
v 33.8320 66.5000 -9.3672
v 33.8320 66.5000 -9.3672
v 19.9609 77.2539 12.2734
v 35.3477 30.6992 -1.6719
v 26.4922 40.0586 14.5195
v 28.1523 26.1172 -1.0820
v 10.2031 49.6797 28.2617
v 23.9648 37.1953 23.9492
v 22.4180 21.0078 16.9180
v 16.4375 34.8750 27.1914
v 22.4180 21.0078 16.9180
v 10.7500 53.9023 17.2344
v 26.4922 40.0586 14.5195
v 4.5742 63.6953 -27.0547
v 18.8945 66.5000 -33.5547
v 31.8984 42.5781 -0.4375
v 11.3867 22.0000 -31.8359
v 23.6484 23.0000 -21.2695
v 9.4062 12.2500 -29.7773
v 23.0117 13.0000 -15.1328
v 35.3477 30.6992 -1.6719
v 18.7773 34.0000 -31.2422
v 31.1758 27.0000 -25.2695
v 10.8672 25.0000 -40.5664
v 10.8672 25.0000 -40.5664
v 23.0117 13.0000 -15.1328
v 24.9219 4.0000 -4.0000
v 18.6641 15.5547 -13.8867
v 0.0000 35.4102 -0.9570
v 27.1797 18.3008 0.8359
v 0.0000 0.0000 -32.0000
v 9.4062 12.2500 -29.7773
v 0.0000 9.6289 -19.1055
v 28.4492 9.1211 9.5352
v 17.5781 0.0000 -22.0000
v 0.0000 0.0000 -32.0000
v 31.8984 42.5781 -0.4375
v 17.5781 0.0000 -22.0000
v 24.9219 4.0000 -4.0000
v 27.1797 18.3008 0.8359
v 16.4375 34.8750 27.1914
v 10.2031 49.6797 28.2617
v 28.4492 9.1211 9.5352
v -10.7500 53.9023 17.2344
v -6.2461 58.3594 24.1367
v 10.2031 49.6797 28.2617
v 6.2461 58.3594 24.1367
v -6.2461 58.3594 24.1367
v -10.7500 53.9023 17.2344
v 0.0000 55.6680 22.1953
v 10.7500 53.9023 17.2344
v 6.2461 58.3594 24.1367
v 0.0000 55.6680 22.1953
f 1 2 3
f 1 13 2
f 11 13 1
f 1 10 11
f 12 11 10
f 12 15 11
f 49 15 12
f 50 15 49
f 49 45 50
f 51 45 49
f 51 49 52
f 52 49 66
f 49 12 66
f 41 66 12
f 12 40 41
f 40 1 41
f 1 3 41
f 3 98 41
f 70 98 3
f 70 3 2
f 70 2 80
f 76 70 80
f 70 76 77
f 79 77 76
f 78 79 76
f 81 78 76
f 81 82 78
f 100 82 81
f 84 100 81
f 74 84 81
f 74 81 86
f 74 86 80
f 71 74 80
f 73 74 71
f 73 71 69
f 92 73 69
f 91 92 69
f 69 34 91
f 69 33 34
f 71 33 69
f 71 72 33
f 75 33 72
f 2 33 75
f 2 21 33
f 2 5 21
f 2 9 5
f 2 13 9
f 9 13 20
f 13 4 20
f 4 13 8
f 7 4 8
f 7 29 4
f 7 30 29
f 24 30 7
f 30 24 31
f 30 31 32
f 30 32 27
f 27 29 30
f 27 28 29
f 29 28 5
f 4 29 5
f 4 5 6
f 9 6 5
f 28 21 5
f 137 21 28
f 34 21 137
f 33 21 34
f 14 15 16
f 15 14 11
f 18 11 14
f 13 11 18
f 8 13 19
f 8 19 14
f 8 14 17
f 8 17 7
f 7 17 24
f 24 17 43
f 22 24 43
f 22 23 24
f 26 24 23
f 25 24 26
f 23 16 26
f 16 23 48
f 48 42 16
f 42 14 16
f 14 42 17
f 35 36 37
f 35 39 36
f 39 56 36
f 64 56 39
f 64 59 56
f 59 57 56
f 55 56 57
f 58 55 57
f 65 55 58
f 60 55 65
f 61 60 65
f 60 61 62
f 37 36 38
f 38 128 129
f 44 45 16
f 44 16 15
f 46 16 47
f 26 16 46
f 16 45 47
f 45 63 47
f 51 63 45
f 63 51 53
f 63 53 120
f 120 53 103
f 53 101 103
f 53 109 101
f 109 53 68
f 66 68 53
f 54 66 53
f 53 51 54
f 67 47 63
f 66 41 68
f 98 68 41
f 98 79 68
f 79 98 99
f 99 98 70
f 78 82 83
f 83 82 102
f 102 82 104
f 104 103 102
f 122 103 104
f 101 102 103
f 101 106 102
f 101 108 106
f 108 68 106
f 68 79 106
f 78 106 79
f 107 106 78
f 106 107 102
f 85 81 76
f 80 85 76
f 80 87 71
f 75 87 80
f 2 75 80
f 88 89 90
f 88 121 89
f 121 84 89
f 89 84 73
f 89 73 92
f 89 92 93
f 92 94 93
f 92 91 94
f 95 96 97
f 95 125 96
f 96 125 126
f 96 113 97
f 118 97 113
f 118 113 114
f 114 113 111
f 112 111 113
f 110 111 112
f 110 112 119
f 119 112 117
f 116 119 117
f 115 116 117
f 82 105 90
f 105 82 100
f 123 104 82
f 123 82 124
f 124 82 90
f 90 89 124
f 124 89 127
f 74 73 84
f 96 130 131
f 132 133 134
f 133 135 134
f 134 135 136
