v 29.0977 27.0000 11.0000
v 27.8750 33.4336 0.0000
v 26.1562 38.9844 9.9609
v 27.5820 40.4922 -1.5898
v 21.6875 48.6562 12.8672
v 19.3555 35.5977 -24.9492
v 24.6250 37.2383 -17.0586
v 26.1250 33.4336 -16.0000
v 25.4375 20.0000 -7.0000
v 25.0039 7.3555 -10.5234
v 15.8672 21.4883 -25.3086
v 17.7266 7.2617 -26.5938
v 0.0000 6.2070 -36.1602
v 0.0000 22.3789 -34.0273
v 30.4453 19.9141 2.4414
v 32.0000 10.0000 3.0000
v 28.5430 11.0000 -3.0000
v 11.3984 34.1562 -31.6953
v 0.0000 33.5469 -34.3477
v 24.5977 1.0000 6.0000
v 21.4727 10.0000 3.0000
v 18.0000 1.0000 2.0000
v 11.0781 -7.1992 -26.0000
v 20.6758 -7.2070 -17.0234
v 16.3984 -14.7383 -10.5273
v 0.0000 -18.0000 -22.6250
v 0.0000 -9.0000 -31.6250
v 26.9336 0.0000 -3.0000
v 24.5977 1.0000 6.0000
v 27.7031 10.0000 9.0000
v 23.4375 -3.6016 -8.3047
v 28.5430 11.0000 -3.0000
v 25.4375 20.0000 -7.0000
v 27.7031 10.0000 9.0000
v 18.6641 21.1172 -3.3281
v 26.9336 0.0000 -3.0000
v -29.0977 27.0000 11.0000
v -26.1562 38.9844 9.9609
v -27.8750 33.4336 0.0000
v -21.6875 48.6562 12.8672
v -27.5820 40.4922 -1.5898
v -24.6250 37.2383 -17.0586
v -19.3555 35.5977 -24.9492
v -26.1250 33.4336 -16.0000
v -25.4375 20.0000 -7.0000
v -15.8672 21.4883 -25.3086
v -25.0039 7.3555 -10.5234
v -17.7266 7.2617 -26.5938
v -28.5430 11.0000 -3.0000
v -32.0000 10.0000 3.0000
v -11.3984 34.1562 -31.6953
v -27.7031 10.0000 9.0000
v -24.5977 1.0000 6.0000
v -18.0000 1.0000 2.0000
v -21.4727 10.0000 3.0000
v -24.5977 1.0000 6.0000
v -26.9336 0.0000 -3.0000
v -27.0000 -9.0000 8.0000
v -11.0781 -7.1992 -26.0000
v -16.3984 -14.7383 -10.5273
v -20.6758 -7.2070 -17.0234
v -23.4375 -3.6016 -8.3047
v -28.5430 11.0000 -3.0000
v -25.4375 20.0000 -7.0000
v -27.0000 -9.0000 8.0000
v -26.9336 0.0000 -3.0000
v -27.7031 10.0000 9.0000
v -18.6641 21.1172 -3.3281
v 10.6641 10.8945 -8.7383
v -10.6641 10.8945 -8.7383
v 0.0000 -18.0000 -22.6250
v -23.3984 27.7852 8.6211
v -29.0977 27.0000 11.0000
v 16.3984 -14.7383 -10.5273
v 23.4375 -3.6016 -8.3047
v 25.0039 7.3555 -10.5234
v 11.0781 -7.1992 -26.0000
v -16.3984 -14.7383 -10.5273
v -23.4375 -3.6016 -8.3047
v -25.0039 7.3555 -10.5234
v -11.0781 -7.1992 -26.0000
v -15.7656 51.4570 18.3867
v -21.4883 41.2656 17.8516
v -13.9531 46.4141 22.4180
v -1.3203 48.3516 25.7578
v -6.2656 57.5312 20.9453
v 7.5469 55.4492 12.1484
v -1.3203 48.3516 25.7578
v -18.8789 42.6641 11.9258
v -20.0000 34.4766 19.0938
v 2.7188 61.5039 17.1211
v 7.3477 54.5000 22.2773
v 20.0000 34.4766 19.0938
v 26.9961 24.0000 21.7266
v 26.0078 35.8867 14.8750
v 31.0000 25.3359 15.6250
v 23.9492 14.0000 14.0000
v 29.0977 27.0000 11.0000
v 23.9492 14.0000 14.0000
v 23.3984 27.7852 8.6211
v 26.9961 24.0000 21.7266
v 20.0000 34.4766 19.0938
v 19.9531 44.0352 19.5859
v 14.9141 53.7812 18.4102
v -31.0000 25.3359 15.6250
v -23.9492 14.0000 14.0000
v -26.9961 24.0000 21.7266
v -23.9492 14.0000 14.0000
v -26.9961 24.0000 21.7266
v -26.0078 35.8867 14.8750
v 19.9531 44.0352 19.5859
v 18.8789 42.6641 11.9258
v -20.0000 34.4766 19.0938
v 14.9141 53.7812 18.4102
v 4.3516 42.1602 26.1797
v 14.9141 53.7812 18.4102
v -7.2070 34.9883 25.1641
v 4.3516 42.1602 26.1797
v -7.2070 34.9883 25.1641
v 27.0000 -9.0000 8.0000
v 27.0000 -9.0000 8.0000
f 1 2 3
f 1 15 2
f 30 15 1
f 16 15 30
f 16 17 15
f 17 16 28
f 28 16 29
f 29 120 28
f 29 16 30
f 4 5 3
f 4 3 2
f 4 2 8
f 7 4 8
f 6 7 8
f 11 6 8
f 9 11 8
f 9 10 11
f 10 12 11
f 12 10 24
f 23 12 24
f 23 24 25
f 25 24 31
f 24 10 31
f 12 13 11
f 12 23 13
f 23 27 13
f 26 27 23
f 26 59 27
f 27 59 13
f 13 59 48
f 48 46 13
f 47 46 48
f 45 46 47
f 45 44 46
f 45 39 44
f 50 39 45
f 49 50 45
f 49 57 50
f 57 56 50
f 56 57 58
f 50 56 52
f 52 37 50
f 37 39 50
f 37 38 39
f 37 110 38
f 110 37 105
f 105 107 110
f 105 106 107
f 37 106 105
f 13 14 11
f 13 46 14
f 46 51 14
f 51 46 43
f 46 44 43
f 42 43 44
f 42 44 41
f 41 44 39
f 41 39 38
f 40 41 38
f 40 38 110
f 40 110 83
f 83 82 40
f 82 83 84
f 84 86 82
f 85 86 84
f 92 86 85
f 91 86 92
f 115 116 92
f 115 92 85
f 115 85 119
f 84 113 85
f 83 113 84
f 83 110 113
f 113 110 107
f 2 15 9
f 9 8 2
f 9 15 17
f 18 6 11
f 11 14 18
f 14 19 18
f 14 51 19
f 20 21 22
f 20 34 21
f 34 98 21
f 100 21 98
f 98 99 100
f 100 99 101
f 102 100 101
f 102 112 100
f 102 111 112
f 111 114 112
f 87 112 114
f 118 87 114
f 117 87 118
f 87 117 88
f 87 88 89
f 89 88 90
f 90 72 89
f 72 90 109
f 108 72 109
f 73 72 108
f 72 73 55
f 68 72 55
f 55 64 68
f 63 64 55
f 55 54 63
f 53 54 55
f 53 65 54
f 54 65 66
f 54 66 63
f 21 32 22
f 32 21 33
f 21 35 33
f 35 21 100
f 69 76 35
f 75 76 69
f 74 75 69
f 69 77 74
f 77 69 71
f 69 70 71
f 71 70 81
f 81 70 78
f 78 70 79
f 79 70 80
f 70 68 80
f 68 64 80
f 22 32 36
f 22 36 121
f 20 22 121
f 59 60 61
f 59 61 48
f 47 48 61
f 62 47 61
f 60 62 61
f 53 55 67
f 73 67 55
f 35 76 33
f 93 94 95
f 103 93 95
f 103 95 5
f 104 103 5
f 5 95 3
f 1 3 95
f 95 96 1
f 96 95 94
f 96 94 97
f 1 96 97
