v 24.0000 43.6484 -12.1719
v 24.4961 33.4375 -13.0000
v 18.6641 43.1172 -24.8984
v 18.6641 33.4375 -24.4219
v 18.6641 24.7188 -23.9453
v 10.6641 33.4375 -31.6211
v 10.6641 23.1875 -28.1484
v 0.0000 22.6602 -29.5977
v 0.0000 33.4375 -33.2500
v 26.2969 33.4336 0.0000
v 25.9492 45.0000 -1.7344
v 24.0000 46.2188 9.0273
v 24.0000 33.4336 9.0273
v 0.0000 18.3164 -26.1016
v 10.6641 19.0898 -24.8906
v 18.6641 21.6641 -20.5938
v 24.1641 27.3086 -10.3477
v -24.0000 43.6484 -12.1719
v -18.6641 43.1172 -24.8984
v -24.4961 33.4375 -13.0000
v -18.6641 33.4375 -24.4219
v -10.6641 23.1875 -28.1484
v -18.6641 24.7188 -23.9453
v -10.6641 33.4375 -31.6211
v -26.2969 33.4336 0.0000
v -25.9492 45.0000 -1.7344
v -24.0000 46.2188 9.0273
v -24.0000 33.4336 9.0273
v -10.6641 19.0898 -24.8906
v -18.6641 21.6641 -20.5938
v -24.1641 27.3086 -10.3477
f 1 2 3
f 2 1 10
f 17 2 10
f 2 17 16
f 5 2 16
f 16 15 5
f 15 7 5
f 14 7 15
f 8 7 14
f 7 8 6
f 5 7 6
f 4 5 6
f 6 3 4
f 2 4 3
f 2 5 4
f 8 9 6
f 8 24 9
f 22 24 8
f 22 23 24
f 29 23 22
f 14 29 22
f 8 14 22
f 1 11 10
f 11 12 10
f 12 13 10
f 18 19 20
f 20 25 18
f 31 25 20
f 20 30 31
f 23 30 20
f 30 23 29
f 24 23 21
f 24 21 19
f 20 19 21
f 20 21 23
f 18 25 26
f 25 27 26
f 28 27 25
