v 0.0000 50.9062 -32.1016
v 10.5977 50.0508 -30.5273
v 0.0000 33.4375 -35.3750
v 11.3047 33.4336 -33.5195
v 0.0000 68.1875 -9.8086
v 10.5977 66.4883 -9.3281
v 0.0000 62.0156 -22.7773
v 10.5977 60.6172 -21.6641
v 0.0000 70.1328 4.8398
v 10.0312 67.9648 4.8398
v 19.7852 43.6992 -26.3945
v 20.5898 33.4375 -26.0977
v 18.7617 58.1797 -15.8359
v 25.4375 47.0000 -14.0000
v 26.1250 33.4336 -16.0000
v 27.1094 47.8359 -3.6680
v 19.9766 61.0000 0.0000
v 29.2812 30.0000 -2.0000
v 17.9023 12.4961 -23.0000
v 25.4844 12.5000 -5.5820
v 9.7188 2.1641 -26.0000
v 0.0000 12.5000 -31.0000
v 0.0000 -7.5000 -30.0000
v 30.1406 33.4375 4.8398
v 27.7891 14.5156 4.8398
v 26.9180 52.3594 4.8398
v 29.3828 42.7188 4.8398
v -11.3047 33.4336 -33.5195
v -10.5977 50.0508 -30.5273
v -10.5977 66.4883 -9.3281
v -10.0312 67.9648 4.8398
v -20.5898 33.4375 -26.0977
v -19.7852 43.6992 -26.3945
v -18.7617 58.1797 -15.8359
v -26.1250 33.4336 -16.0000
v -25.4375 47.0000 -14.0000
v -10.5977 60.6172 -21.6641
v -29.2812 30.0000 -2.0000
v -27.1094 47.8359 -3.6680
v -9.7188 2.1641 -26.0000
v -17.9023 12.4961 -23.0000
v -25.4844 12.5000 -5.5820
v -19.9766 61.0000 0.0000
v -26.9180 52.3594 4.8398
v -27.7891 14.5156 4.8398
v -30.1406 33.4375 4.8398
v 19.7305 45.9414 26.0703
v 14.8438 59.0078 27.5234
v 12.5078 47.5703 29.7539
v 7.8789 56.6016 30.2617
v 19.5586 33.4375 15.9180
v 16.6250 39.8750 25.6641
v 20.0938 61.0000 11.0000
v 9.6562 67.3750 16.4688
v 3.4141 64.1016 26.9102
v 0.0000 68.5430 17.3828
v 27.9883 33.4375 12.9062
v 26.8398 42.7188 14.1562
v 24.3516 42.9844 13.5781
v 27.9883 33.4375 12.9062
v 26.8398 42.7188 14.1562
v 24.3008 52.3594 12.9062
v 24.3008 52.3594 12.9062
v 21.9609 30.0039 -1.1641
v 29.2812 30.0000 -2.0000
v 20.8398 18.3945 3.9609
v 27.7891 14.5156 4.8398
v 23.1602 47.3789 20.0000
v 24.3516 42.9844 13.5781
v -7.8789 56.6016 30.2617
v -14.8438 59.0078 27.5234
v -12.5078 47.5703 29.7539
v -19.7305 45.9414 26.0703
v -19.5586 33.4375 15.9180
v -16.6250 39.8750 25.6641
v -23.1602 47.3789 20.0000
v -20.0938 61.0000 11.0000
v -9.6562 67.3750 16.4688
v -3.4141 64.1016 26.9102
v -26.8398 42.7188 14.1562
v -27.9883 33.4375 12.9062
v -24.3516 42.9844 13.5781
v -27.9883 33.4375 12.9062
v -26.8398 42.7188 14.1562
v -29.3828 42.7188 4.8398
v -24.3008 52.3594 12.9062
v -24.3008 52.3594 12.9062
v -24.3516 42.9844 13.5781
v 0.0000 60.9023 15.9141
v -7.8789 56.6016 30.2617
v -12.5078 47.5703 29.7539
v 7.8789 56.6016 30.2617
v 12.5078 47.5703 29.7539
v -16.6250 39.8750 25.6641
v 16.6250 39.8750 25.6641
v -19.5586 33.4375 15.9180
v 19.5586 33.4375 15.9180
v 18.2617 47.4648 14.1641
v -18.2617 47.4648 14.1641
v -3.4570 44.7070 32.3594
v 2.6367 47.2031 31.3438
v -0.5078 54.1328 33.8047
v -7.8203 46.7266 28.4414
v -7.4922 36.9180 24.6523
v -7.4922 36.9180 24.6523
v -7.8203 46.7266 28.4414
v 2.6367 47.2031 31.3438
v -11.6250 11.8789 -6.4805
v -21.9609 30.0039 -1.1641
v -25.4844 12.5000 -5.5820
v -29.2812 30.0000 -2.0000
v -15.5000 5.8281 -9.0859
v 0.0000 -7.5000 -30.0000
v 15.5000 5.8281 -9.0859
v -9.7188 2.1641 -26.0000
v 25.4844 12.5000 -5.5820
v 11.6250 11.8789 -6.4805
v 9.7188 2.1641 -26.0000
v 19.2656 -7.0000 -20.4102
v -19.2656 -7.0000 -20.4102
v -27.7891 14.5156 4.8398
v -20.8398 18.3945 3.9609
v -21.9609 30.0039 -1.1641
v -29.2812 30.0000 -2.0000
v 21.9609 30.0039 -1.1641
v 29.2812 30.0000 -2.0000
v -19.2656 -7.0000 -20.4102
v 19.2656 -7.0000 -20.4102
f 1 2 3
f 1 7 2
f 29 7 1
f 3 29 1
f 28 29 3
f 28 33 29
f 28 32 33
f 28 41 32
f 40 41 28
f 28 22 40
f 22 28 3
f 3 4 22
f 3 2 4
f 4 2 11
f 4 11 12
f 12 19 4
f 12 15 19
f 12 11 15
f 11 14 15
f 13 14 11
f 14 13 16
f 16 15 14
f 18 15 16
f 15 18 20
f 19 15 20
f 128 19 20
f 21 19 128
f 4 19 21
f 4 21 22
f 22 21 23
f 40 22 23
f 41 40 127
f 42 41 127
f 35 41 42
f 32 41 35
f 33 32 35
f 33 35 36
f 34 33 36
f 34 29 33
f 37 29 34
f 37 7 29
f 30 7 37
f 5 7 30
f 5 6 7
f 5 9 6
f 5 30 9
f 9 30 31
f 9 31 56
f 9 56 10
f 6 9 10
f 10 17 6
f 53 17 10
f 17 53 26
f 17 26 16
f 16 13 17
f 6 17 13
f 13 8 6
f 2 8 13
f 2 7 8
f 7 6 8
f 11 2 13
f 24 25 18
f 18 16 24
f 16 27 24
f 26 27 16
f 27 26 63
f 61 27 63
f 27 61 24
f 57 24 61
f 57 25 24
f 38 39 35
f 38 35 42
f 45 46 38
f 46 45 83
f 83 84 46
f 85 46 84
f 85 84 87
f 44 85 87
f 44 87 77
f 43 44 77
f 43 39 44
f 34 39 43
f 36 39 34
f 35 39 36
f 38 46 39
f 46 85 39
f 44 39 85
f 34 30 37
f 30 34 43
f 31 30 43
f 77 31 43
f 31 77 78
f 56 31 78
f 78 79 56
f 78 71 79
f 77 71 78
f 87 71 77
f 76 71 87
f 71 76 73
f 72 71 73
f 70 71 72
f 71 70 79
f 79 70 102
f 55 79 102
f 55 102 50
f 50 48 55
f 48 50 49
f 47 48 49
f 47 49 52
f 51 47 52
f 68 47 51
f 51 69 68
f 63 68 69
f 68 63 48
f 48 47 68
f 48 53 54
f 55 48 54
f 55 54 56
f 56 79 55
f 10 56 54
f 10 54 53
f 53 63 26
f 63 53 48
f 58 59 60
f 59 58 62
f 59 98 60
f 97 98 59
f 89 98 97
f 95 89 97
f 93 89 95
f 92 89 93
f 92 107 89
f 89 107 105
f 105 106 89
f 90 89 106
f 89 90 91
f 89 91 94
f 89 94 96
f 89 96 99
f 99 96 82
f 99 82 81
f 122 99 81
f 81 121 122
f 124 122 121
f 123 122 124
f 64 65 66
f 66 65 67
f 66 67 60
f 98 66 60
f 74 75 73
f 74 73 76
f 74 76 88
f 76 87 88
f 73 75 72
f 80 81 82
f 80 82 86
f 100 101 102
f 102 70 100
f 100 70 103
f 103 104 100
f 100 104 101
f 102 101 50
f 108 109 110
f 108 110 112
f 114 108 112
f 112 113 114
f 113 112 115
f 112 120 115
f 110 120 112
f 111 110 109
f 114 116 117
f 114 119 116
f 118 119 114
f 114 113 118
f 117 108 114
f 117 116 125
f 125 116 126
