v 24.2773 45.3398 7.7891
v 25.9258 38.0312 9.8438
v 26.3789 42.5977 -1.5078
v 25.9805 34.2852 2.4844
v 22.0039 33.0000 17.0000
v 16.9727 50.0000 18.7812
v 25.0781 28.2578 9.3594
v 25.9297 31.1250 13.0664
v 23.2188 24.9102 17.5977
v 0.0000 33.3438 3.3672
v 23.2188 24.9102 17.5977
v 22.0039 33.0000 17.0000
v 25.0781 28.2578 9.3594
v 25.9805 34.2852 2.4844
v 23.6250 38.4453 6.8359
v 27.1094 25.6836 4.8438
v 27.5820 40.4922 -1.5898
v 30.3633 25.6797 -4.8242
v 26.7539 11.6211 -2.1016
v 19.6875 3.0000 -10.0000
v 16.9805 1.0000 -20.0000
v 26.4180 18.0000 -10.0000
v 16.6797 15.0000 -29.5000
v 10.9414 0.0000 -27.0000
v 19.3555 35.5977 -24.9492
v 15.8242 30.1055 -29.0117
v 11.3984 34.1562 -31.6953
v 10.4805 -9.0000 -10.0000
v 0.0000 -2.0000 -29.0000
v 0.0000 -14.0000 -10.2422
v 0.0000 13.0000 -36.0000
v 0.0000 29.9531 -33.7695
v 0.0000 33.5469 -34.3477
v 24.6250 37.2383 -17.0586
v 28.0820 19.0000 -12.0000
v 27.1094 25.6836 4.8438
v 0.0000 33.3438 3.3672
v 26.7539 11.6211 -2.1016
v 27.3281 30.0000 -18.0000
v 23.6250 38.4453 6.8359
v -24.2773 45.3398 7.7891
v -26.3789 42.5977 -1.5078
v -25.9258 38.0312 9.8438
v -25.9805 34.2852 2.4844
v -22.0039 33.0000 17.0000
v -16.9727 50.0000 18.7812
v -25.0781 28.2578 9.3594
v -23.2188 24.9102 17.5977
v -25.9297 31.1250 13.0664
v -22.0039 33.0000 17.0000
v -23.2188 24.9102 17.5977
v -16.9727 50.0000 18.7812
v -25.0781 28.2578 9.3594
v -25.9805 34.2852 2.4844
v -30.3633 25.6797 -4.8242
v -27.1094 25.6836 4.8438
v -27.5820 40.4922 -1.5898
v -24.6250 37.2383 -17.0586
v -15.8242 30.1055 -29.0117
v -27.3281 30.0000 -18.0000
v -26.7539 11.6211 -2.1016
v -10.9414 0.0000 -27.0000
v -16.9805 1.0000 -20.0000
v -16.6797 15.0000 -29.5000
v -11.3984 34.1562 -31.6953
v -19.3555 35.5977 -24.9492
v -10.4805 -9.0000 -10.0000
v -19.6875 3.0000 -10.0000
v 0.0000 33.3438 3.3672
v -27.1094 25.6836 4.8438
v -26.7539 11.6211 -2.1016
v -11.8672 39.8242 23.2109
v -15.1875 45.7812 22.3438
v -19.5820 36.5742 17.4727
v -6.0234 44.1602 25.7852
v -11.8672 39.8242 23.2109
v 6.0000 56.1680 13.5547
v -6.0234 44.1602 25.7852
v -6.6328 54.1680 22.5781
v -16.9727 50.0000 18.7812
v -19.5820 36.5742 17.4727
v -23.6250 38.4453 6.8359
v -23.6250 38.4453 6.8359
v -28.0820 19.0000 -12.0000
v -26.4180 18.0000 -10.0000
v 28.0820 19.0000 -12.0000
v 22.2461 19.1641 -13.7109
v 27.3281 30.0000 -18.0000
v -22.2461 19.1641 -13.7109
v -28.0820 19.0000 -12.0000
v -27.3281 30.0000 -18.0000
v 10.9414 0.0000 -27.0000
v 8.0430 1.0156 -10.4883
v 0.0000 -14.0000 -10.2422
v -8.0430 1.0156 -10.4883
v -19.6875 3.0000 -10.0000
v -10.4805 -9.0000 -10.0000
v -10.9414 0.0000 -27.0000
v -10.9414 0.0000 -27.0000
v 10.4805 -9.0000 -10.0000
v 19.6875 3.0000 -10.0000
v 26.4180 18.0000 -10.0000
v 0.0000 33.3438 3.3672
v -26.4180 18.0000 -10.0000
v 10.9414 0.0000 -27.0000
v -2.2578 37.6250 25.4688
v 4.4375 41.8398 25.9141
v -4.3555 39.7578 26.2227
v -9.1133 34.9883 23.5352
v 4.4375 41.8398 25.9141
v -2.2578 37.6250 25.4688
v -9.1133 34.9883 23.5352
v 2.0039 48.7930 25.7383
v -3.9062 60.7500 18.5000
v 9.5430 47.4023 23.6016
v 9.5430 47.4023 23.6016
v 13.1484 53.0352 19.0977
v 3.9141 60.7500 18.5000
v 16.9727 50.0000 18.7812
v 13.1484 53.0352 19.0977
f 1 2 3
f 6 2 1
f 5 2 6
f 8 2 5
f 8 5 9
f 7 8 9
f 7 4 8
f 2 8 4
f 2 4 3
f 10 11 12
f 13 11 10
f 13 10 14
f 10 50 51
f 10 52 50
f 10 77 52
f 77 10 119
f 119 10 12
f 53 54 10
f 53 10 51
f 15 16 17
f 17 16 18
f 18 34 17
f 39 34 18
f 39 18 35
f 35 18 19
f 18 16 19
f 20 21 22
f 21 20 28
f 21 28 24
f 21 24 23
f 22 21 23
f 22 23 39
f 39 23 26
f 39 26 34
f 34 26 25
f 25 26 27
f 33 27 26
f 32 33 26
f 31 32 26
f 26 23 31
f 24 31 23
f 29 31 24
f 29 24 30
f 29 30 62
f 31 29 62
f 64 31 62
f 62 63 64
f 63 62 67
f 63 67 68
f 85 63 68
f 64 63 85
f 64 85 60
f 59 64 60
f 58 59 60
f 66 59 58
f 65 59 66
f 65 33 59
f 59 33 32
f 32 31 59
f 59 31 64
f 36 37 38
f 36 40 37
f 87 38 37
f 86 38 87
f 86 87 88
f 41 42 43
f 43 46 41
f 45 46 43
f 49 45 43
f 49 48 45
f 47 48 49
f 47 49 44
f 43 44 49
f 43 42 44
f 55 56 57
f 55 61 56
f 84 61 55
f 84 55 60
f 58 60 55
f 58 55 57
f 56 82 57
f 69 70 71
f 70 69 83
f 71 89 69
f 71 90 89
f 89 90 91
f 72 73 74
f 72 75 73
f 79 73 75
f 73 79 80
f 74 73 80
f 79 114 80
f 113 114 79
f 118 114 113
f 113 115 118
f 107 115 113
f 107 113 108
f 106 107 108
f 108 109 106
f 75 109 108
f 108 113 75
f 75 113 79
f 76 77 78
f 81 77 76
f 77 81 52
f 77 110 111
f 77 111 112
f 112 78 77
f 110 77 116
f 77 117 116
f 92 93 94
f 94 93 95
f 99 94 95
f 95 96 97
f 98 95 97
f 96 95 103
f 104 96 103
f 101 102 103
f 93 101 103
f 93 100 101
f 100 93 105
f 93 103 95
f 118 115 120
