v 0.0000 22.6602 -29.5977
v 0.0000 9.6289 -19.1055
v -10.6641 19.6953 -25.1328
v -18.6641 24.7188 -23.9453
v -18.6641 15.5547 -13.8867
v 0.0000 33.4336 -33.2500
v -10.6641 33.4336 -31.6211
v -18.8125 43.1172 -24.8984
v -24.6484 33.4336 -15.0938
v -24.0000 43.6484 -12.1719
v -26.2969 33.4336 0.0000
v -26.2969 42.3867 -1.3477
v 10.6641 19.6953 -25.1328
v 18.6641 15.5547 -13.8867
v 18.6641 24.7188 -23.9453
v 10.6641 33.4336 -31.6211
v 18.6641 43.1172 -24.8984
v 26.2969 33.4336 0.0000
v 24.6484 33.4336 -15.0938
v 24.0000 43.6484 -12.1719
v 26.2969 42.3867 -1.3477
v 26.3906 40.6211 6.0000
v 22.6445 48.0000 14.0000
v 24.5703 38.0000 12.0000
v -24.6641 29.4883 10.8750
v -26.2969 33.4336 0.0000
v 0.0625 48.0000 0.0000
v 24.6719 29.4883 10.8750
v 0.0625 48.0000 0.0000
v 26.2969 33.4336 0.0000
v 24.5703 38.0000 12.0000
v -24.5664 38.0000 12.0000
v -24.6641 29.4883 10.8750
v -26.2539 40.6211 6.0000
v 24.6719 29.4883 10.8750
v -22.6445 48.0000 14.0000
v 22.6445 48.0000 14.0000
v -24.5664 38.0000 12.0000
v -22.6445 48.0000 14.0000
f 1 2 3
f 1 3 7
f 6 1 7
f 1 6 16
f 13 1 16
f 1 13 2
f 2 13 14
f 14 13 15
f 19 14 15
f 18 14 19
f 18 19 20
f 18 20 21
f 21 22 18
f 35 18 22
f 22 24 35
f 22 23 24
f 4 3 5
f 4 5 9
f 8 4 9
f 7 4 8
f 3 4 7
f 5 3 2
f 9 5 11
f 9 11 10
f 8 9 10
f 11 12 10
f 34 12 11
f 33 34 11
f 33 38 34
f 39 34 38
f 16 17 15
f 13 16 15
f 17 19 15
f 17 20 19
f 25 26 27
f 25 27 32
f 27 36 32
f 28 29 30
f 29 28 31
f 31 37 29
