v 31.3281 4.2070 -3.4609
v 28.7773 20.0000 -7.0000
v 28.2773 24.0000 6.0000
v 25.5664 17.0000 -16.0000
v 23.2070 -0.8281 -19.7617
v 23.8008 9.5586 -12.8320
v 9.2812 5.8984 -25.5977
v 10.4102 17.5078 -28.7070
v 19.3555 35.5977 -24.9492
v 24.6250 37.2383 -17.0586
v 19.9414 17.5625 -24.3789
v 11.3984 34.1562 -31.6953
v 0.0000 -3.4531 -33.1250
v 0.0000 17.5625 -32.0000
v 23.2070 -0.8281 -19.7617
v 16.5000 13.0156 -9.6680
v 9.2812 5.8984 -25.5977
v 31.3281 4.2070 -3.4609
v 23.8008 9.5586 -12.8320
v 28.2500 35.0820 5.1953
v 28.0938 33.0000 -9.0000
v 24.1133 38.2031 16.4453
v 27.5000 25.6445 12.0000
v 23.4180 27.0000 17.1484
v 21.4062 17.1523 18.3477
v 20.4805 39.2891 20.4258
v 15.4766 41.9336 23.7969
v 0.7695 61.4102 10.0273
v 8.6562 49.2031 24.1836
v 20.7539 47.1875 16.3008
v 16.2930 52.9023 18.0742
v 8.6562 49.2031 24.1836
v 15.4766 41.9336 23.7969
v 18.3984 43.5312 14.9688
v 28.2773 24.0000 6.0000
v 0.0000 -3.4531 -33.1250
v -9.2812 5.8984 -25.5977
v -16.5000 13.0156 -9.6680
v 4.2773 56.0469 22.4180
v -2.3555 47.5469 25.7305
v 4.2773 56.0469 22.4180
v -2.3555 47.5469 25.7305
v 4.2773 56.0469 22.4180
v -4.0000 56.0000 22.0312
v 25.1562 42.7266 8.7578
v 20.4805 39.2891 20.4258
v -31.3281 4.2070 -3.4609
v -28.7773 20.0000 -7.0000
v -25.5664 17.0000 -16.0000
v -23.2070 -0.8281 -19.7617
v -23.8008 9.5586 -12.8320
v -10.4102 17.5078 -28.7070
v -19.9414 17.5625 -24.3789
v -24.6250 37.2383 -17.0586
v -19.3555 35.5977 -24.9492
v -11.3984 34.1562 -31.6953
v -9.2812 5.8984 -25.5977
v -23.2070 -0.8281 -19.7617
v -31.3281 4.2070 -3.4609
v -23.8008 9.5586 -12.8320
v -28.2773 24.0000 6.0000
v -28.0938 33.0000 -9.0000
v -28.2500 35.0820 5.1953
v -24.1133 38.2031 16.4453
v -27.5000 25.6445 12.0000
v -21.4062 17.1523 18.3477
v -23.4180 27.0000 17.1484
v -10.7031 46.3320 24.5742
v -16.2930 52.9023 18.0742
v -20.7539 47.1875 16.3008
v -25.1562 42.7266 8.7578
v -27.5820 40.4922 -1.5898
v -17.9805 40.6094 22.1094
v -21.4062 17.1523 18.3477
v -16.4258 26.7891 16.2773
v -23.4180 27.0000 17.1484
v -18.3984 43.5312 14.9688
v -17.9805 40.6094 22.1094
v -24.1133 38.2031 16.4453
v -28.2773 24.0000 6.0000
v -23.3477 30.3477 6.6836
v -10.6133 40.3867 25.9727
v -6.6094 52.0781 23.6719
v -10.6133 40.3867 25.9727
v -10.7031 46.3320 24.5742
v -6.6094 52.0781 23.6719
v 27.5820 40.4922 -1.5898
v 0.0000 33.5469 -34.3477
v 23.3477 30.3477 6.6836
v 21.4062 17.1523 18.3477
v 16.4258 26.7891 16.2773
v 23.4180 27.0000 17.1484
v 24.1133 38.2031 16.4453
f 1 2 3
f 1 4 2
f 6 4 1
f 5 4 6
f 5 11 4
f 5 8 11
f 5 7 8
f 13 8 7
f 13 14 8
f 52 14 13
f 52 13 57
f 52 57 50
f 52 50 53
f 56 52 53
f 55 56 53
f 53 54 55
f 49 54 53
f 54 49 62
f 62 72 54
f 63 72 62
f 62 61 63
f 48 61 62
f 49 48 62
f 47 48 49
f 51 47 49
f 50 51 49
f 50 49 53
f 9 10 11
f 11 12 9
f 8 12 11
f 8 14 12
f 88 12 14
f 88 14 56
f 52 56 14
f 10 4 11
f 21 4 10
f 2 4 21
f 21 3 2
f 20 3 21
f 20 23 3
f 22 23 20
f 24 23 22
f 23 24 25
f 3 23 25
f 15 16 17
f 15 19 16
f 18 16 19
f 16 18 35
f 89 16 35
f 35 91 89
f 90 91 35
f 90 92 91
f 93 91 92
f 34 91 93
f 26 34 93
f 28 34 26
f 26 27 28
f 27 29 28
f 28 29 39
f 28 39 40
f 40 82 28
f 28 82 86
f 28 86 85
f 78 28 85
f 28 78 77
f 77 78 79
f 79 75 77
f 76 75 79
f 74 75 76
f 74 80 75
f 75 80 81
f 81 80 38
f 38 80 59
f 59 60 38
f 58 38 60
f 58 37 38
f 17 38 37
f 36 17 37
f 16 38 17
f 30 31 32
f 33 30 32
f 46 30 33
f 22 30 46
f 45 30 22
f 20 45 22
f 20 87 45
f 20 21 87
f 87 21 10
f 41 32 31
f 42 43 44
f 42 44 83
f 83 84 42
f 69 68 83
f 68 69 70
f 73 68 70
f 73 70 64
f 64 70 71
f 64 71 63
f 64 63 65
f 67 64 65
f 65 66 67
f 61 66 65
f 63 61 65
f 71 72 63
f 47 61 48
f 69 83 44
