v -22.4922 35.7656 27.4336
v -19.9258 46.8984 26.9648
v -29.5508 38.0664 19.2617
v -24.4883 52.0781 17.5664
v -10.1523 65.0938 19.0391
v 0.0000 68.6211 10.1133
v -11.1836 68.4141 5.9102
v -23.1445 58.1094 0.6445
v 0.0000 61.9531 18.3086
v 0.0000 55.3984 20.2930
v -8.5000 59.2422 25.2109
v 22.4922 35.7656 27.4336
v 29.5508 38.0664 19.2617
v 19.9258 46.8984 26.9648
v 24.4883 52.0781 17.5664
v 10.1523 65.0938 19.0391
v 11.1836 68.4141 5.9102
v 8.5000 59.2422 25.2109
v 23.1445 58.1094 0.6445
v 30.2852 41.7812 5.0156
v 19.9648 23.6992 23.2852
v 26.1992 23.6992 17.3008
v 26.1992 23.6992 17.3008
v 30.4492 23.6914 6.7031
v 27.5000 11.7852 8.1523
v 28.7227 11.0000 18.5859
v 18.4727 0.9570 17.0000
v 21.2656 11.0000 24.1523
v 18.4727 0.9570 17.0000
v 28.7227 11.0000 18.5859
v 21.2656 11.0000 24.1523
v 20.5195 12.2422 10.6367
v 18.4727 0.9570 17.0000
v 11.9531 33.6875 -35.1641
v 0.0000 46.1250 -34.8594
v 10.5977 56.1133 -27.0273
v 0.0000 61.4219 -23.4844
v 0.0000 68.6875 -5.1055
v 10.5977 63.9922 -17.6406
v 20.5352 44.4492 -26.6445
v 23.5156 24.0781 -28.4414
v 21.3242 58.2266 -16.1328
v 26.7461 43.0117 -12.9023
v 31.2695 32.2734 -5.5898
v 0.0000 19.9570 -38.2812
v 34.6875 19.3438 -4.7266
v 30.2500 8.1641 -1.1641
v 30.6211 -0.1094 3.0352
v 25.3242 -2.6094 -3.5781
v 25.0000 4.4922 -10.8203
v 22.2422 3.8594 0.9453
v 20.2617 19.4258 1.5508
v 25.0000 4.4922 -10.8203
v 18.7539 -5.9883 6.8906
v 30.6211 -0.1094 3.0352
v 21.2500 11.1250 -23.7305
v 22.5000 0.2109 -22.9688
v 10.7500 9.1992 -29.0742
v 8.5039 -0.4414 -23.3008
v 27.3828 14.9961 -15.6602
v 21.2500 11.1250 -23.7305
v 22.5000 0.2109 -22.9688
v 14.8398 -8.6289 -14.2852
v 0.0000 9.6289 -19.1055
v 8.5039 -0.4414 -23.3008
v 14.8398 -8.6289 -14.2852
v 14.8398 -8.6289 -14.2852
v 0.0000 -3.1562 -30.2891
v 0.0000 8.3203 -30.9531
v 0.0000 -10.3906 -16.0469
v 0.0000 -10.3906 -16.0469
v 27.5000 11.7852 8.1523
v 18.7539 -5.9883 6.8906
v 16.7500 46.7148 5.3594
v 22.4922 35.7656 27.4336
v 19.9648 23.6992 23.2852
v 34.6875 19.3438 -4.7266
v 18.7539 -5.9883 6.8906
v 25.3242 -2.6094 -3.5781
v 30.2500 8.1641 -1.1641
v -30.2852 41.7812 5.0156
v -19.9648 23.6992 23.2852
v -26.1992 23.6992 17.3008
v -26.1992 23.6992 17.3008
v -30.4492 23.6914 6.7031
v -27.5000 11.7852 8.1523
v -18.4727 0.9570 17.0000
v -28.7227 11.0000 18.5859
v -21.2656 11.0000 24.1523
v -28.7227 11.0000 18.5859
v -18.4727 0.9570 17.0000
v -21.2656 11.0000 24.1523
v -18.4727 0.9570 17.0000
v -20.5195 12.2422 10.6367
v -11.9531 33.6875 -35.1641
v -23.5156 24.0781 -28.4414
v -20.5352 44.4492 -26.6445
v -10.5977 56.1133 -27.0273
v -21.3242 58.2266 -16.1328
v -26.7461 43.0117 -12.9023
v -31.2695 32.2734 -5.5898
v -10.5977 63.9922 -17.6406
v -34.6875 19.3438 -4.7266
v -30.2500 8.1641 -1.1641
v -30.6211 -0.1094 3.0352
v -25.0000 4.4922 -10.8203
v -25.3242 -2.6094 -3.5781
v -22.2422 3.8594 0.9453
v -25.0000 4.4922 -10.8203
v -20.2617 19.4258 1.5508
v -18.7539 -5.9883 6.8906
v -30.6211 -0.1094 3.0352
v -18.7539 -5.9883 6.8906
v -21.2500 11.1250 -23.7305
v -10.7500 9.1992 -29.0742
v -22.5000 0.2109 -22.9688
v -8.5039 -0.4414 -23.3008
v -27.3828 14.9961 -15.6602
v -21.2500 11.1250 -23.7305
v -22.5000 0.2109 -22.9688
v -14.8398 -8.6289 -14.2852
v -8.5039 -0.4414 -23.3008
v -14.8398 -8.6289 -14.2852
v -14.8398 -8.6289 -14.2852
v 0.0000 -3.1562 -30.2891
v 0.0000 8.3203 -30.9531
v 0.0000 -10.3906 -16.0469
v -22.4922 35.7656 27.4336
v -19.9648 23.6992 23.2852
v -16.7500 46.7148 5.3594
v -27.5000 11.7852 8.1523
v -18.7539 -5.9883 6.8906
v -34.6875 19.3438 -4.7266
v -25.3242 -2.6094 -3.5781
v -30.2500 8.1641 -1.1641
v -19.9258 46.8984 26.9648
v -8.5000 59.2422 25.2109
v 0.0000 55.3984 20.2930
v 19.9258 46.8984 26.9648
v 8.5000 59.2422 25.2109
v 0.0000 55.3984 20.2930
f 1 2 3
f 83 1 3
f 82 1 83
f 83 89 82
f 83 90 89
f 89 90 91
f 3 2 4
f 4 81 3
f 8 81 4
f 4 5 8
f 5 4 11
f 11 9 5
f 10 9 11
f 10 18 9
f 18 16 9
f 18 15 16
f 14 15 18
f 13 15 14
f 12 13 14
f 22 13 12
f 21 22 12
f 28 22 21
f 28 30 22
f 28 29 30
f 5 6 7
f 8 5 7
f 7 99 8
f 7 102 99
f 7 38 102
f 7 6 38
f 17 38 6
f 16 17 6
f 16 6 9
f 5 9 6
f 19 15 20
f 15 19 16
f 16 19 17
f 42 17 19
f 39 17 42
f 39 38 17
f 37 38 39
f 37 39 36
f 37 36 35
f 37 35 98
f 37 98 102
f 102 38 37
f 98 99 102
f 98 97 99
f 97 98 95
f 95 96 97
f 45 96 95
f 95 35 45
f 95 98 35
f 34 35 36
f 40 34 36
f 34 40 41
f 45 34 41
f 34 45 35
f 69 45 58
f 68 69 58
f 58 59 68
f 57 59 58
f 56 57 58
f 56 58 41
f 58 45 41
f 115 45 126
f 125 115 126
f 115 125 117
f 116 115 117
f 114 115 116
f 114 96 115
f 115 96 45
f 100 97 96
f 99 97 100
f 100 8 99
f 81 8 100
f 81 100 101
f 85 81 101
f 85 3 81
f 84 3 85
f 84 85 88
f 88 85 86
f 86 87 88
f 86 85 104
f 104 112 86
f 86 112 113
f 15 13 20
f 24 20 13
f 23 24 13
f 24 23 26
f 25 24 26
f 25 26 27
f 25 47 24
f 47 25 55
f 25 73 55
f 31 32 33
f 31 76 32
f 32 76 52
f 72 32 52
f 52 51 72
f 51 52 53
f 51 53 79
f 78 51 79
f 51 78 72
f 32 72 33
f 36 42 40
f 36 39 42
f 42 43 40
f 43 42 19
f 20 43 19
f 20 44 43
f 24 44 20
f 44 24 46
f 47 46 24
f 41 40 43
f 41 43 44
f 41 44 60
f 60 61 41
f 61 60 62
f 62 60 50
f 63 62 50
f 48 49 50
f 48 54 49
f 50 80 48
f 80 50 60
f 77 80 60
f 44 77 60
f 64 65 52
f 71 65 64
f 71 64 122
f 64 110 122
f 122 110 123
f 110 109 123
f 108 109 110
f 110 131 108
f 131 110 94
f 94 93 131
f 92 93 94
f 92 94 129
f 129 94 110
f 128 129 110
f 130 128 110
f 128 130 136
f 136 130 137
f 137 130 138
f 65 66 52
f 66 53 52
f 74 52 75
f 75 139 74
f 139 140 74
f 74 140 141
f 59 57 67
f 59 70 68
f 75 52 76
f 101 103 85
f 104 85 103
f 105 106 107
f 105 107 111
f 106 105 135
f 135 118 106
f 133 118 135
f 133 101 118
f 96 118 101
f 118 96 119
f 119 120 118
f 120 106 118
f 121 106 120
f 117 124 116
f 117 125 127
f 132 108 131
f 132 134 108
f 108 134 109
f 96 101 100
f 11 4 2
