v 5.7188 48.0000 15.8594
v 6.0000 40.7109 26.0078
v 3.7695 49.7227 24.8594
v 6.0000 40.7109 26.0078
v 13.3750 47.2266 22.6797
v 3.7695 49.7227 24.8594
v -5.5703 40.7109 27.1875
v -5.7188 48.0000 15.8594
v -22.3594 42.7109 15.8594
v -19.0898 39.2266 18.9375
v -13.3750 47.2266 22.6797
v -13.3750 47.2266 22.6797
v -5.5703 40.7109 27.1875
v -7.2188 49.5430 24.3164
v -1.4688 50.7109 24.6836
v -22.3594 42.7109 15.8594
v -19.0898 39.2266 18.9375
v -19.2578 44.7109 19.8594
v 19.2578 44.7109 19.8594
v 19.0898 39.2266 20.4375
v 22.3594 42.7109 15.8594
v -20.7344 53.5391 10.7461
v -15.4727 56.7617 14.4297
v -8.9336 59.2500 17.6055
v 0.0000 60.0000 18.6055
v 8.9336 59.2500 17.6055
v 15.4727 56.7617 14.4297
v 20.7344 53.5391 10.7461
v 25.4570 48.8086 2.1211
v 0.0000 56.7227 7.3320
v 0.0000 36.1367 10.0000
v 5.7188 48.0000 15.8594
v 19.0898 39.2266 20.4375
v 22.3594 42.7109 15.8594
v 13.3750 47.2266 22.6797
v 0.0000 22.3672 -31.5391
v 10.2930 22.9219 -30.0156
v 0.0000 9.6289 -19.1055
v 18.6641 15.5547 -13.8867
v 19.9180 24.5312 -25.5977
v 25.7344 33.6914 -16.2930
v 10.5859 33.7031 -30.8086
v 27.1875 32.0000 0.0000
v 18.7617 38.6836 -23.5664
v 23.8555 37.1953 -17.2734
v 21.9570 32.4102 -23.5273
v 25.9922 44.4258 -13.2227
v 24.0312 30.0000 12.0000
v 27.1875 32.0000 0.0000
v 0.0000 36.1367 10.0000
v 18.6641 15.5547 -13.8867
v 24.0312 30.0000 12.0000
v -10.2930 22.9219 -30.0156
v -19.9180 24.5312 -25.5977
v -18.6641 15.5547 -13.8867
v -25.7344 33.6914 -16.2930
v -10.5859 33.7031 -30.8086
v -27.1875 32.0000 0.0000
v -21.9570 32.4102 -23.5273
v -18.7617 38.6836 -23.5664
v -23.8555 37.1953 -17.2734
v -25.9922 44.4258 -13.2227
v -25.4609 48.8086 2.1211
v -24.0312 30.0000 12.0000
v -24.0312 30.0000 12.0000
v -27.1875 32.0000 0.0000
v -18.6641 15.5547 -13.8867
v 0.0000 32.5195 -34.8320
v 0.0000 56.7227 7.3320
v -5.7188 48.0000 15.8594
v 27.1875 32.0000 0.0000
v 25.4570 48.8086 2.1211
v 24.0312 30.0000 12.0000
v 22.3594 42.7109 15.8594
f 1 2 3
f 3 7 1
f 7 8 1
f 8 7 11
f 8 11 10
f 9 8 10
f 50 30 9
f 50 9 65
f 65 66 50
f 66 67 50
f 49 50 51
f 52 50 49
f 50 73 74
f 4 5 6
f 6 5 26
f 6 26 15
f 6 15 13
f 15 14 13
f 14 15 24
f 24 12 14
f 23 12 24
f 23 18 12
f 22 18 23
f 18 22 16
f 16 17 18
f 12 18 17
f 12 13 14
f 19 5 20
f 21 19 20
f 19 21 28
f 27 19 28
f 5 19 27
f 26 5 27
f 15 26 25
f 24 15 25
f 29 28 21
f 29 43 47
f 43 41 47
f 39 41 43
f 40 41 39
f 37 40 39
f 38 37 39
f 36 37 38
f 36 42 37
f 36 68 42
f 36 57 68
f 36 53 57
f 36 38 53
f 53 38 55
f 54 53 55
f 54 55 56
f 59 54 56
f 61 59 56
f 61 56 62
f 62 56 58
f 63 62 58
f 63 58 16
f 63 16 22
f 16 58 64
f 55 58 56
f 30 31 32
f 34 32 31
f 33 32 34
f 33 35 1
f 1 35 2
f 37 42 40
f 42 46 40
f 42 44 46
f 44 45 46
f 46 45 41
f 46 41 40
f 47 41 45
f 43 21 48
f 21 71 72
f 53 54 57
f 57 54 59
f 59 60 57
f 60 59 61
f 9 69 70
