v -22.7109 44.9648 14.5117
v -25.5938 39.3477 10.0625
v -19.4922 37.3477 20.6133
v -24.7148 36.0000 10.3555
v -25.1328 44.6875 7.0508
v -11.5234 42.4844 25.7773
v -17.1523 52.3633 17.5391
v -4.4922 49.5586 25.1094
v -9.6992 58.3438 18.7812
v 0.0000 57.2891 21.4414
v -28.5078 36.1992 -3.0273
v -25.1523 48.7383 3.1289
v -24.6250 37.2383 -17.0586
v -19.3555 35.5977 -24.9492
v -26.1250 33.4336 -16.0000
v -19.7852 24.1953 -25.3828
v 0.0000 33.5469 -34.3477
v 0.0000 22.0156 -31.3750
v -11.3047 22.5742 -29.8398
v -22.8281 17.2227 -16.1758
v -18.2891 0.7031 -13.8125
v 0.0000 1.5898 -24.9648
v -8.9297 4.6367 -22.4062
v 0.0000 34.7930 5.0156
v -24.5352 25.4453 11.0117
v -27.8594 30.0000 0.0000
v -25.0547 15.6328 -6.9062
v -27.8594 30.0000 0.0000
v -11.3984 34.1562 -31.6953
v -28.5078 36.1992 -3.0273
v -25.1523 48.7383 3.1289
v 0.0000 56.6172 18.8086
v -24.7148 36.0000 10.3555
v -4.4922 49.5586 25.1094
v -11.5234 42.4844 25.7773
v 0.0000 57.2891 21.4414
v -19.4922 37.3477 20.6133
v -23.1367 46.2188 10.4219
v -27.1602 42.9258 -1.4297
v -23.1367 46.2188 10.4219
v -24.5352 25.4453 11.0117
v 22.7109 44.9648 14.5117
v 19.4922 37.3477 20.6133
v 25.5938 39.3477 10.0625
v 24.7148 36.0000 10.3555
v 25.1328 44.6875 7.0508
v 11.5234 42.4844 25.7773
v 17.1523 52.3633 17.5391
v 4.4922 49.5586 25.1094
v 9.6992 58.3438 18.7812
v 0.0000 57.2891 21.4414
v 28.5078 36.1992 -3.0273
v 25.1523 48.7383 3.1289
v 24.6250 37.2383 -17.0586
v 26.1250 33.4336 -16.0000
v 19.3555 35.5977 -24.9492
v 19.7852 24.1953 -25.3828
v 11.3047 22.5742 -29.8398
v 11.3984 34.1562 -31.6953
v 22.8281 17.2227 -16.1758
v 18.2891 0.7031 -13.8125
v 8.9297 4.6367 -22.4062
v 0.0000 34.7930 5.0156
v 27.8594 30.0000 0.0000
v 24.5352 25.4453 11.0117
v 25.0547 15.6328 -6.9062
v 27.8594 30.0000 0.0000
v 27.1602 42.9258 -1.4297
v 28.5078 36.1992 -3.0273
v 24.7148 36.0000 10.3555
v 25.1523 48.7383 3.1289
v 11.5234 42.4844 25.7773
v 4.4922 49.5586 25.1094
v 19.4922 37.3477 20.6133
v 23.1367 46.2188 10.4219
v 23.1367 46.2188 10.4219
v 24.5352 25.4453 11.0117
v -9.5547 13.3789 -15.6406
v -18.2891 0.7031 -13.8125
v -8.9297 4.6367 -22.4062
v 8.9297 4.6367 -22.4062
v 18.2891 0.7031 -13.8125
v 9.5547 13.3789 -15.6406
v 0.0000 1.5898 -24.9648
v 25.0547 15.6328 -6.9062
v -25.0547 15.6328 -6.9062
f 1 2 3
f 4 3 2
f 2 1 5
f 6 7 1
f 3 6 1
f 6 8 7
f 8 9 7
f 8 10 9
f 11 5 12
f 2 11 4
f 2 5 11
f 13 14 15
f 15 14 16
f 17 18 19
f 20 16 21
f 18 22 19
f 22 23 19
f 19 23 16
f 24 25 26
f 27 28 15
f 20 21 27
f 16 29 19
f 16 23 21
f 16 20 15
f 20 27 15
f 30 31 32
f 32 33 30
f 32 34 35
f 32 36 34
f 37 33 32
f 37 32 35
f 25 24 38
f 28 39 15
f 15 39 13
f 39 28 40
f 40 28 41
f 42 43 44
f 45 44 43
f 44 46 42
f 47 42 48
f 43 42 47
f 47 48 49
f 49 48 50
f 49 50 51
f 52 53 46
f 44 45 52
f 52 46 44
f 54 55 56
f 56 55 57
f 58 17 59
f 60 61 57
f 18 58 22
f 22 58 62
f 58 57 62
f 63 64 65
f 66 55 67
f 60 66 61
f 54 68 55
f 55 68 67
f 57 58 59
f 57 61 62
f 57 55 60
f 60 55 66
f 69 70 32
f 32 71 69
f 32 72 73
f 32 73 36
f 74 32 70
f 74 72 32
f 65 75 63
f 68 76 67
f 76 77 67
f 78 79 80
f 81 82 83
f 80 84 78
f 78 84 83
f 84 81 83
f 83 82 85
f 86 79 78
f 26 86 78
f 83 85 64
f 64 63 83
f 26 78 24
f 29 17 19
f 29 16 14
f 18 17 58
f 59 56 57
