v -23.4414 38.3516 23.8477
v -24.8672 53.2031 15.2578
v -28.5664 40.4180 10.7188
v -17.4219 45.8477 29.2539
v -24.6250 30.6602 16.7969
v -15.2852 35.9062 27.5977
v -7.1055 42.9297 30.9102
v -27.7344 29.0781 2.6523
v 4.7070 60.0000 10.3633
v -24.6250 30.6602 16.7969
v -15.2852 35.9062 27.5977
v -7.1055 42.9297 30.9102
v 0.4336 51.1250 29.1055
v 5.8633 58.8320 22.8125
v 27.3594 32.8047 12.4141
v 28.5664 40.4180 10.7188
v 24.8711 42.9883 21.8750
v 24.8672 53.2031 15.2578
v 18.1875 54.0703 23.8828
v 9.1953 52.8398 25.1680
v 14.6641 43.8867 25.6719
v 13.5234 62.9414 14.6289
v 5.8633 58.8320 22.8125
v 27.7344 29.0781 2.6523
v 14.6641 43.8867 25.6719
v 9.1953 52.8398 25.1680
v -5.4844 56.5742 27.9844
v 0.4336 51.1250 29.1055
v -13.5234 62.9414 14.6289
v 0.0000 65.4766 16.6641
v -27.7344 29.0781 2.6523
v 21.9531 33.7422 17.2266
v 27.7344 29.0781 2.6523
v 21.9531 33.7422 17.2266
v -29.3203 12.0938 -29.5430
v -30.4375 3.6641 -25.6719
v -26.1484 12.4805 -22.2773
v -28.7734 -4.2695 -35.1055
v -22.8203 2.9531 -38.7500
v -17.4102 4.6094 -29.5859
v -19.2188 8.1875 -36.4102
v -17.9336 15.0391 -21.1328
v -11.3203 26.5195 -21.0195
v -23.5898 20.0703 -25.5820
v -23.4727 16.2852 -33.9102
v -27.5742 7.7344 -38.1250
v -32.7109 5.4492 -32.7891
v -40.6680 -0.6016 -35.9570
v -10.5977 45.5039 -33.1562
v 0.0000 46.1250 -34.8594
v -11.3047 33.4336 -33.5195
v 0.0000 69.2383 -6.3125
v 0.0000 65.5625 -18.5469
v -10.5977 67.4883 -6.0039
v -19.7852 24.1953 -25.3828
v -11.3047 22.5742 -29.8398
v 0.0000 27.7227 -33.3086
v -10.5977 60.0547 -22.3320
v 0.0000 57.2812 -28.4180
v -18.7617 58.1797 -15.8359
v -21.0000 45.0000 -26.5977
v -25.4375 44.2617 -16.0000
v -18.6641 15.5547 -13.8867
v 0.0000 9.6289 -19.1055
v -24.0000 21.9062 -7.5234
v -26.1250 33.0000 -16.0000
v -25.4375 53.0000 1.0000
v -27.8750 41.0000 0.0000
v -22.2227 3.9141 -23.3438
v -30.8750 -3.4922 -29.4727
v -28.5508 -0.1836 -39.5820
v -24.0000 21.9062 -7.5234
v 0.0000 68.1445 6.1172
v -14.6797 63.7539 4.7969
v 29.3203 12.0938 -29.5430
v 26.1484 12.4805 -22.2773
v 30.4375 3.6641 -25.6719
v 28.7734 -4.2695 -35.1055
v 17.4102 4.6094 -29.5859
v 22.8203 2.9531 -38.7500
v 19.2188 8.1875 -36.4102
v 11.3203 26.5195 -21.0195
v 17.9336 15.0391 -21.1328
v 23.5898 20.0703 -25.5820
v 23.4727 16.2852 -33.9102
v 32.7109 5.4492 -32.7891
v 27.5742 7.7344 -38.1250
v 40.6680 -0.6016 -35.9570
v 10.5977 45.5039 -33.1562
v 11.3047 33.4336 -33.5195
v 10.5977 67.4883 -6.0039
v 19.7852 24.1953 -25.3828
v 11.3047 22.5742 -29.8398
v 10.5977 60.0547 -22.3320
v 18.7617 58.1797 -15.8359
v 21.0000 45.0000 -26.5977
v 25.4375 44.2617 -16.0000
v 18.6641 15.5547 -13.8867
v 24.0000 21.9062 -7.5234
v 26.1250 33.0000 -16.0000
v 25.4375 53.0000 1.0000
v 27.8750 41.0000 0.0000
v 22.2227 3.9141 -23.3438
v 30.8750 -3.4922 -29.4727
v 28.5508 -0.1836 -39.5820
v 24.0000 21.9062 -7.5234
v 14.6797 63.7539 4.7969
v -24.0000 21.9062 -7.5234
v -18.6641 15.5547 -13.8867
v 4.7070 60.0000 10.3633
v 18.6641 15.5547 -13.8867
v 24.0000 21.9062 -7.5234
v 4.7070 60.0000 10.3633
f 1 2 3
f 4 2 1
f 4 1 6
f 6 7 4
f 4 7 27
f 27 29 4
f 29 27 30
f 30 73 29
f 30 22 73
f 22 30 23
f 19 22 23
f 18 22 19
f 18 19 17
f 16 18 17
f 15 16 17
f 16 15 24
f 24 102 16
f 102 24 100
f 97 102 100
f 100 96 97
f 92 96 100
f 92 90 96
f 92 93 90
f 92 98 93
f 92 99 98
f 99 92 100
f 99 100 24
f 15 34 24
f 15 17 34
f 17 21 34
f 19 21 17
f 20 21 19
f 20 19 23
f 28 23 27
f 7 28 27
f 27 23 30
f 5 6 1
f 1 3 5
f 5 3 31
f 31 3 68
f 68 66 31
f 62 66 68
f 66 62 61
f 55 66 61
f 55 61 51
f 55 51 56
f 55 56 63
f 55 63 65
f 65 66 55
f 65 31 66
f 8 9 10
f 72 9 8
f 10 9 11
f 11 9 12
f 12 9 13
f 13 9 14
f 14 9 26
f 25 26 9
f 9 32 25
f 9 33 32
f 106 33 9
f 4 29 2
f 2 29 74
f 2 74 67
f 2 67 3
f 3 67 68
f 68 67 62
f 67 60 62
f 67 74 60
f 60 74 54
f 54 58 60
f 53 58 54
f 52 53 54
f 73 52 54
f 74 73 54
f 29 73 74
f 22 107 73
f 18 107 22
f 18 101 107
f 18 16 101
f 16 102 101
f 102 97 101
f 101 97 95
f 101 95 107
f 95 91 107
f 91 95 94
f 53 91 94
f 52 91 53
f 73 91 52
f 107 91 73
f 35 36 37
f 44 35 37
f 44 37 43
f 45 44 43
f 41 45 43
f 41 43 40
f 40 39 41
f 38 39 40
f 38 40 70
f 70 48 38
f 48 70 36
f 47 48 36
f 36 35 47
f 35 46 47
f 45 46 35
f 45 35 44
f 45 41 46
f 39 46 41
f 46 39 71
f 71 48 46
f 48 71 38
f 39 38 71
f 37 42 43
f 42 37 69
f 69 40 42
f 70 40 69
f 36 70 69
f 37 36 69
f 49 50 51
f 49 59 50
f 58 59 49
f 49 61 58
f 49 51 61
f 51 50 57
f 56 51 57
f 56 57 64
f 63 56 64
f 98 64 93
f 93 64 57
f 93 57 90
f 90 57 50
f 89 90 50
f 89 50 59
f 94 89 59
f 89 94 96
f 89 96 90
f 96 94 95
f 95 97 96
f 61 60 58
f 60 61 62
f 58 53 59
f 94 59 53
f 42 40 43
f 47 46 48
f 75 76 77
f 84 76 75
f 84 82 76
f 85 82 84
f 81 82 85
f 81 79 82
f 79 81 80
f 78 79 80
f 78 104 79
f 104 78 88
f 88 77 104
f 86 77 88
f 77 86 75
f 75 86 87
f 85 75 87
f 85 84 75
f 85 87 81
f 80 81 87
f 87 105 80
f 105 87 88
f 88 78 105
f 80 105 78
f 76 82 83
f 83 103 76
f 103 83 79
f 104 103 79
f 77 103 104
f 76 103 77
f 83 82 79
f 86 88 87
f 108 109 110
f 111 112 113
