v 27.5859 24.3594 -14.7695
v 21.2734 12.8438 -18.6211
v 21.2734 22.0742 -24.3047
v -21.2734 12.8438 -18.6211
v -21.2734 22.0742 -24.3047
v -11.3828 20.3086 -31.6602
v -27.5859 24.3594 -14.7695
v -10.5977 56.1133 -27.0273
v 0.0000 57.2812 -28.4180
v -10.5977 45.5039 -33.1562
v 0.0000 46.1250 -34.8594
v -21.0156 33.6562 -26.0977
v -27.4336 33.4336 -16.0000
v -11.3047 33.0000 -34.0000
v -19.6016 56.7266 14.8047
v -20.0977 49.9609 18.8438
v -10.3984 54.6289 23.4570
v 0.0000 55.6523 24.8438
v -10.5977 61.2031 17.3477
v 0.0000 62.8594 18.2227
v -10.5977 67.4883 -6.0039
v 0.0000 69.2383 -6.3125
v -10.5977 63.9922 -17.6406
v 0.0000 65.5625 -18.5469
v -10.5977 66.4453 5.8203
v 0.0000 68.1445 6.1172
v -18.7617 61.0625 4.8672
v 10.5977 56.1133 -27.0273
v 10.5977 45.5039 -33.1562
v 27.4336 33.4336 -16.0000
v 21.0156 33.6562 -26.0977
v 11.2461 33.0000 -34.0000
v 11.3828 20.3086 -31.6602
v 19.6016 56.7266 14.8047
v 10.3984 54.6289 23.4570
v 20.0977 49.9609 18.8438
v 10.5977 61.2031 17.3477
v 10.5977 67.4883 -6.0039
v 10.5977 63.9922 -17.6406
v 10.5977 66.4453 5.8203
v 18.7617 61.0625 4.8672
v 0.0000 47.0000 29.0000
v 0.0000 41.0000 0.0000
v 10.3984 46.0000 27.0000
v -10.3984 46.0000 27.0000
v -27.5859 18.5195 -11.2344
v -29.3984 26.0000 0.0000
v 0.0000 7.4727 -25.6211
v 11.3828 8.4609 -24.3320
v -11.3828 8.4609 -24.3320
v 27.5859 18.5195 -11.2344
v 29.3984 26.0000 0.0000
v 29.3281 33.4336 0.0000
v -25.4375 46.9883 9.5703
v -23.5586 39.0000 16.5000
v -10.3984 46.0000 27.0000
v 0.0000 47.0000 29.0000
v 10.3984 46.0000 27.0000
v 20.0977 41.9727 21.0000
v 23.5586 39.0000 16.5000
v 25.4375 46.9883 9.5703
v -29.3281 33.4336 0.0000
v -26.0000 35.0000 10.9180
v -20.0977 41.9727 21.0000
v -23.5586 39.0000 16.5000
v -26.0000 35.0000 10.9180
v -19.7852 43.6992 -26.3945
v -18.7617 58.1797 -15.8359
v -26.8789 44.4258 -13.2227
v -25.4375 52.9570 -2.8633
v -27.8750 42.9258 -1.4297
v -18.7617 61.4883 -4.6953
v 0.0000 19.9102 -33.3242
v 0.0000 33.0000 -36.0000
v 27.8750 42.9258 -1.4297
v 26.0000 35.0000 10.9180
v 23.5586 39.0000 16.5000
v 20.0977 41.9727 21.0000
v 19.7852 43.6992 -26.3945
v 18.7617 58.1797 -15.8359
v 18.7617 61.4883 -4.6953
v 26.8789 44.4258 -13.2227
v 25.4375 52.9570 -2.8633
v 26.0000 35.0000 10.9180
v -21.2734 12.8438 -18.6211
v -11.3828 8.4609 -24.3320
v -27.5859 18.5195 -11.2344
v 0.0000 7.4727 -25.6211
v 11.3828 8.4609 -24.3320
v 21.2734 12.8438 -18.6211
v 27.5859 18.5195 -11.2344
v -29.3984 26.0000 0.0000
v 29.3984 26.0000 0.0000
v -20.0977 41.9727 21.0000
f 1 2 3
f 1 3 30
f 30 52 1
f 53 52 30
f 84 52 53
f 53 61 84
f 75 61 53
f 53 82 75
f 53 30 82
f 31 82 30
f 3 31 30
f 31 3 32
f 79 31 32
f 79 32 29
f 29 28 79
f 28 29 9
f 9 24 28
f 24 9 8
f 23 24 8
f 22 24 23
f 21 22 23
f 26 22 21
f 25 26 21
f 25 20 26
f 19 20 25
f 19 18 20
f 17 18 19
f 57 18 17
f 57 17 56
f 56 17 16
f 56 16 94
f 16 55 94
f 16 54 55
f 16 15 54
f 15 16 17
f 15 17 19
f 15 19 27
f 15 27 70
f 70 54 15
f 70 71 54
f 70 69 71
f 68 69 70
f 68 67 69
f 8 67 68
f 10 67 8
f 8 9 10
f 9 11 10
f 29 11 9
f 74 11 29
f 10 11 74
f 14 10 74
f 67 10 14
f 67 14 12
f 69 67 12
f 69 12 13
f 13 62 69
f 13 47 62
f 7 47 13
f 5 7 13
f 7 5 4
f 7 4 46
f 46 47 7
f 63 62 47
f 54 62 63
f 71 62 54
f 62 71 69
f 4 5 6
f 4 6 50
f 6 48 50
f 6 73 48
f 6 14 73
f 5 14 6
f 12 14 5
f 12 5 13
f 3 33 32
f 3 2 33
f 33 2 49
f 48 33 49
f 73 33 48
f 73 32 33
f 74 32 73
f 14 74 73
f 32 74 29
f 34 35 36
f 36 61 34
f 60 61 36
f 60 36 59
f 36 58 59
f 36 35 58
f 57 58 35
f 57 35 18
f 35 37 18
f 34 37 35
f 41 37 34
f 34 83 41
f 83 34 61
f 83 61 75
f 83 75 82
f 80 83 82
f 80 82 79
f 28 80 79
f 28 39 80
f 28 24 39
f 39 24 22
f 38 39 22
f 22 26 38
f 38 26 40
f 81 38 40
f 81 40 41
f 41 83 81
f 81 83 80
f 81 80 38
f 80 39 38
f 37 20 18
f 37 40 20
f 40 37 41
f 40 26 20
f 42 43 44
f 42 45 43
f 45 64 43
f 64 65 43
f 43 65 66
f 43 66 92
f 43 92 87
f 87 85 43
f 43 85 86
f 43 86 88
f 43 88 89
f 43 89 90
f 43 90 91
f 93 43 91
f 76 43 93
f 76 77 43
f 43 77 78
f 44 43 78
f 51 1 52
f 51 2 1
f 68 21 23
f 8 68 23
f 72 21 68
f 72 68 70
f 27 72 70
f 25 72 27
f 27 19 25
f 25 21 72
f 31 79 82
f 55 54 63
f 84 61 60
