v -26.4297 36.1562 8.2969
v -29.2656 32.5000 6.0000
v -26.6797 28.1367 7.3633
v -24.3047 48.0234 11.3008
v -28.2383 44.8633 7.7227
v -25.7305 40.2422 8.2969
v -24.9492 0.1953 -14.0000
v -14.7930 15.6133 -9.0352
v -26.5742 29.9844 -14.0039
v 0.0000 37.7812 2.1484
v -8.4648 -8.0000 -30.2930
v -15.0625 -1.9922 -25.7148
v -15.0625 -1.9922 -25.7148
v -21.8750 -6.0000 -20.8047
v -8.6523 51.1641 -32.6328
v -8.4414 64.3945 -19.6758
v 0.0000 62.8750 -19.0547
v -23.4453 53.0820 -18.4102
v -20.8164 55.0547 -4.1367
v -22.2891 60.9609 -7.1914
v -8.3164 68.3789 -2.1719
v -8.4414 64.3945 -19.6758
v -14.1641 62.4531 -3.2422
v -15.3398 58.0742 -19.2734
v -8.3164 68.3789 -2.1719
v 0.0000 66.3516 0.8750
v -3.2344 61.2617 16.8984
v -9.2031 60.3164 16.6250
v -8.5391 56.2891 17.6758
v -16.0273 40.8672 -28.2812
v -8.8633 24.4805 -33.2930
v -15.0625 -1.9922 -25.7148
v -8.4648 -8.0000 -30.2930
v -24.0664 39.4609 -23.9922
v -26.7109 38.4453 -12.0000
v -26.7109 42.3906 -10.9297
v -23.4453 53.0820 -18.4102
v -27.7227 46.6094 -8.8633
v 0.0000 37.7812 2.1484
v -25.7305 40.2422 8.2969
v -26.7109 42.3906 -10.9297
v 0.0000 37.7812 2.1484
v -23.9180 50.4609 -6.6836
v -24.3047 48.0234 11.3008
v -25.7305 40.2422 8.2969
v -9.2031 60.3164 16.6250
v -14.1641 62.4531 -3.2422
v -8.5391 56.2891 17.6758
v -15.0625 -1.9922 -25.7148
v -24.0664 39.4609 -23.9922
v -16.0273 40.8672 -28.2812
v -23.4453 53.0820 -18.4102
v -22.2891 60.9609 -7.1914
v -9.2031 60.3164 16.6250
v -6.9375 65.0234 14.6562
v -2.8438 57.0039 17.7852
v 0.0000 -2.4961 -29.3281
v -8.4648 -8.0000 -30.2930
v 0.0000 21.9883 -31.9258
v -8.8633 24.4805 -33.2930
v -8.8633 24.4805 -33.2930
v -8.6523 51.1641 -32.6328
v 0.0000 48.1016 -31.6562
v -15.3398 58.0742 -19.2734
v -21.8750 -6.0000 -20.8047
v -24.9492 0.1953 -14.0000
v -26.5742 29.9844 -14.0039
v -21.8750 -6.0000 -20.8047
v -24.0664 39.4609 -23.9922
v -24.0664 39.4609 -23.9922
v -26.5742 29.9844 -14.0039
v -29.5000 34.5234 -13.1133
v -27.7227 46.6094 -8.8633
v -23.9180 50.4609 -6.6836
v 0.0000 -2.4961 -29.3281
v -26.4297 36.1562 8.2969
v -26.5742 29.9844 -14.0039
v -26.7109 38.4453 -12.0000
v -29.5000 34.5234 -13.1133
v -23.9180 50.4609 -6.6836
v 0.0000 37.7812 2.1484
v -20.8164 55.0547 -4.1367
v -23.9180 50.4609 -6.6836
v -21.6328 53.8672 12.3125
v -20.4141 58.3242 12.0234
v -16.9609 57.7969 16.3242
v -16.9609 57.7969 16.3242
v -14.1641 62.4531 -3.2422
v -14.9062 54.0352 16.3398
v -14.1641 62.4531 -3.2422
v -2.8438 57.0039 17.7852
v 0.0000 66.3516 0.8750
v -3.2344 61.2617 16.8984
v -8.3164 68.3789 -2.1719
v -21.6328 53.8672 12.3125
v -14.7930 15.6133 -9.0352
v 0.0000 -2.4961 -29.3281
v 14.7930 15.6133 -9.0352
v -21.6328 53.8672 12.3125
v -19.2578 50.6797 13.2969
v -14.9062 54.0352 16.3398
v -16.9609 57.7969 16.3242
v -21.6328 53.8672 12.3125
v -20.8164 55.0547 -4.1367
v -19.2578 50.6797 13.2969
v -26.7109 42.3906 -10.9297
v 26.4297 36.1562 8.2969
v 26.6797 28.1367 7.3633
v 29.2656 32.5000 6.0000
v 24.3047 48.0234 11.3008
v 25.7305 40.2422 8.2969
v 28.2383 44.8633 7.7227
v 24.9492 0.1953 -14.0000
v 26.5742 29.9844 -14.0039
v 14.7930 15.6133 -9.0352
v 0.0000 37.7812 2.1484
v 8.4648 -8.0000 -30.2930
v 15.0625 -1.9922 -25.7148
v 15.0625 -1.9922 -25.7148
v 21.8750 -6.0000 -20.8047
v 8.6523 51.1641 -32.6328
v 8.4414 64.3945 -19.6758
v 23.4453 53.0820 -18.4102
v 22.2891 60.9609 -7.1914
v 20.8164 55.0547 -4.1367
v 8.3164 68.3789 -2.1719
v 3.2344 61.2617 16.8984
v 8.5391 56.2891 17.6758
v 9.2031 60.3164 16.6250
v 16.0273 40.8672 -28.2812
v 15.0625 -1.9922 -25.7148
v 8.8633 24.4805 -33.2930
v 8.4648 -8.0000 -30.2930
v 26.7109 42.3906 -10.9297
v 24.0664 39.4609 -23.9922
v 23.4453 53.0820 -18.4102
v 27.7227 46.6094 -8.8633
v 26.7109 38.4453 -12.0000
v 0.0000 37.7812 2.1484
v 26.7109 42.3906 -10.9297
v 25.7305 40.2422 8.2969
v 0.0000 37.7812 2.1484
v 24.3047 48.0234 11.3008
v 23.9180 50.4609 -6.6836
v 25.7305 40.2422 8.2969
v 14.1641 62.4531 -3.2422
v 14.1641 62.4531 -3.2422
v 8.5391 56.2891 17.6758
v 15.0625 -1.9922 -25.7148
v 16.0273 40.8672 -28.2812
v 24.0664 39.4609 -23.9922
v 23.4453 53.0820 -18.4102
v 15.3398 58.0742 -19.2734
v 22.2891 60.9609 -7.1914
v 8.3164 68.3789 -2.1719
v 14.1641 62.4531 -3.2422
v 8.4414 64.3945 -19.6758
v 15.3398 58.0742 -19.2734
v 9.2031 60.3164 16.6250
v 6.9375 65.0234 14.6562
v 2.8438 57.0039 17.7852
v 0.0000 -2.4961 -29.3281
v 0.0000 21.9883 -31.9258
v 8.4648 -8.0000 -30.2930
v 8.8633 24.4805 -33.2930
v 8.8633 24.4805 -33.2930
v 8.6523 51.1641 -32.6328
v 0.0000 48.1016 -31.6562
v 21.8750 -6.0000 -20.8047
v 24.0664 39.4609 -23.9922
v 26.5742 29.9844 -14.0039
v 21.8750 -6.0000 -20.8047
v 24.9492 0.1953 -14.0000
v 24.0664 39.4609 -23.9922
v 29.5000 34.5234 -13.1133
v 26.5742 29.9844 -14.0039
v 27.7227 46.6094 -8.8633
v 23.9180 50.4609 -6.6836
v 26.4297 36.1562 8.2969
v 26.5742 29.9844 -14.0039
v 26.7109 38.4453 -12.0000
v 29.5000 34.5234 -13.1133
v 23.9180 50.4609 -6.6836
v 0.0000 37.7812 2.1484
v 23.9180 50.4609 -6.6836
v 20.8164 55.0547 -4.1367
v 20.4141 58.3242 12.0234
v 21.6328 53.8672 12.3125
v 14.1641 62.4531 -3.2422
v 16.9609 57.7969 16.3242
v 14.9062 54.0352 16.3398
v 9.2031 60.3164 16.6250
v 0.0000 66.3516 0.8750
v 2.8438 57.0039 17.7852
v 3.2344 61.2617 16.8984
v 8.3164 68.3789 -2.1719
v 21.6328 53.8672 12.3125
v 16.9609 57.7969 16.3242
v 21.6328 53.8672 12.3125
v 14.9062 54.0352 16.3398
v 19.2578 50.6797 13.2969
v 16.9609 57.7969 16.3242
v 21.6328 53.8672 12.3125
v 19.2578 50.6797 13.2969
v 20.8164 55.0547 -4.1367
v 26.7109 42.3906 -10.9297
f 1 2 3
f 78 2 1
f 10 78 1
f 9 8 10
f 7 8 9
f 8 7 14
f 13 8 14
f 11 8 12
f 8 11 75
f 115 75 117
f 117 118 115
f 113 114 115
f 115 120 113
f 119 120 115
f 114 116 115
f 116 107 181
f 107 109 181
f 107 108 109
f 108 176 109
f 176 175 109
f 174 175 176
f 4 5 6
f 74 5 4
f 73 5 74
f 73 74 18
f 18 19 20
f 19 18 80
f 19 84 20
f 20 84 85
f 53 85 23
f 53 23 24
f 52 53 24
f 51 52 24
f 50 52 51
f 49 50 51
f 50 49 65
f 15 16 17
f 17 63 15
f 60 15 63
f 60 63 59
f 59 58 60
f 57 58 59
f 21 22 23
f 23 55 21
f 54 55 23
f 55 54 93
f 55 93 26
f 26 94 55
f 17 25 26
f 25 17 16
f 121 17 122
f 17 121 168
f 165 168 121
f 165 163 168
f 163 165 164
f 162 163 164
f 23 22 24
f 23 85 86
f 95 86 85
f 27 28 29
f 29 56 27
f 91 92 27
f 30 31 32
f 32 31 33
f 34 35 36
f 37 34 36
f 37 36 38
f 38 36 5
f 36 6 5
f 39 40 41
f 76 3 39
f 39 3 77
f 3 2 71
f 71 2 72
f 70 71 72
f 42 43 44
f 45 42 44
f 46 47 48
f 48 47 90
f 47 87 88
f 88 87 89
f 61 30 62
f 30 64 62
f 62 64 22
f 66 67 68
f 68 67 69
f 79 2 78
f 79 78 34
f 81 82 83
f 96 97 98
f 99 100 101
f 99 101 102
f 103 104 105
f 105 104 10
f 35 10 106
f 110 111 112
f 178 110 112
f 177 178 112
f 177 123 178
f 123 124 125
f 125 183 123
f 188 125 124
f 187 188 124
f 197 187 198
f 198 187 156
f 156 187 154
f 154 153 156
f 152 153 154
f 150 153 152
f 151 150 152
f 149 150 151
f 151 169 149
f 17 26 126
f 126 122 17
f 127 128 129
f 128 127 161
f 193 194 127
f 130 131 132
f 131 133 132
f 134 135 136
f 136 137 134
f 112 134 137
f 111 134 112
f 138 135 134
f 138 206 116
f 204 116 205
f 203 204 205
f 139 140 141
f 179 139 108
f 139 180 108
f 142 143 144
f 145 143 142
f 146 147 148
f 147 192 148
f 147 189 190
f 189 191 190
f 155 156 157
f 156 155 160
f 159 156 160
f 160 195 159
f 160 26 195
f 26 160 196
f 157 156 158
f 167 157 158
f 130 167 158
f 166 167 130
f 170 171 172
f 171 173 172
f 182 135 181
f 109 182 181
f 184 185 186
f 199 200 201
f 199 202 200
