v -11.3984 35.6562 -29.4453
v 0.0000 34.2969 -33.0977
v -14.1641 28.2812 -31.7969
v -26.0039 21.3477 10.0000
v -24.8867 34.5000 14.0000
v -26.9805 30.7109 4.1133
v -24.9062 42.7266 8.7578
v -21.1641 47.1328 16.0000
v -24.4414 22.3281 -20.7383
v -25.4141 32.6797 -17.6992
v -19.3555 35.5977 -24.9492
v -27.5820 40.4922 -2.6914
v -21.4570 32.2539 2.9492
v -20.8047 24.7266 7.6836
v -26.9805 30.7109 4.1133
v -26.0039 21.3477 10.0000
v -9.5469 56.9336 20.0234
v -9.0000 51.2578 23.7188
v -14.7266 44.0352 23.9961
v 8.0000 53.0000 22.3945
v -1.6758 44.9180 26.1328
v 0.0000 57.2227 9.0586
v -12.0000 41.8242 24.6484
v 18.0039 40.2773 18.0000
v 21.1641 47.1328 16.0000
v 14.7266 44.0352 23.9961
v -9.0000 51.2578 23.7188
v -14.7266 44.0352 23.9961
v -21.1641 47.1328 16.0000
v -18.0078 40.2773 18.0000
v 18.2266 52.4258 14.5742
v 9.5469 56.9336 20.0234
v 21.1641 47.1328 16.0000
v 0.0000 52.0781 24.7461
v -1.6758 44.9180 26.1328
v -12.0000 41.8242 24.6484
v 8.0000 53.0000 22.3945
v 24.9062 42.7266 8.7578
v -18.2266 52.4258 14.5742
v 26.0039 21.3477 10.0000
v 26.9805 30.7109 4.1133
v 24.8867 34.5000 14.0000
v -24.8867 34.5000 14.0000
v 20.8047 24.7266 7.6836
v 24.8867 34.5000 14.0000
v 26.0039 21.3477 10.0000
v -18.0078 40.2773 18.0000
v 18.0039 40.2773 18.0000
v 14.7266 44.0352 23.9961
v 19.3555 35.5977 -24.9492
v 24.6250 37.2383 -17.0586
v 25.4141 32.6797 -17.6992
v 30.2656 31.8320 -7.0000
v 27.5820 40.4922 -2.6914
v -24.6250 37.2383 -17.0586
v -30.2656 31.8320 -7.0000
v 26.5586 15.9805 -1.6172
v 28.0352 16.3008 -9.1680
v 24.4414 22.3281 -20.7383
v 14.1641 28.2812 -31.7969
v 11.3984 35.6562 -29.4453
v 19.5820 11.2500 -24.5195
v 19.9883 11.0000 -16.0000
v 9.0039 10.0000 -28.8750
v 0.0000 -1.0000 -25.5508
v 0.0000 16.3984 -36.5078
v 14.6016 1.0000 -21.0000
v 15.5938 13.1055 -6.8281
v 19.9883 11.0000 -16.0000
v 21.8633 3.0000 -8.9414
v -9.0039 10.0000 -28.8750
v -21.8633 3.0000 -8.9414
v -26.5586 15.9805 -1.6172
v -28.0352 16.3008 -9.1680
v -19.5820 11.2500 -24.5195
v -14.6016 1.0000 -21.0000
v -19.9883 11.0000 -16.0000
v 26.5586 15.9805 -1.6172
v 21.4570 32.2539 2.9492
v 26.9805 30.7109 4.1133
v -14.6016 1.0000 -21.0000
v -9.0039 10.0000 -28.8750
v 0.0000 9.6289 -19.1055
v 0.0000 -1.0000 -25.5508
v -21.8633 3.0000 -8.9414
v -15.5938 13.1055 -6.8281
v -26.5586 15.9805 -1.6172
v -19.9883 11.0000 -16.0000
v 14.6016 1.0000 -21.0000
v 9.0039 10.0000 -28.8750
v 21.8633 3.0000 -8.9414
f 1 2 3
f 1 3 11
f 10 11 3
f 9 10 3
f 75 9 3
f 75 3 71
f 75 71 76
f 75 76 77
f 77 9 75
f 74 9 77
f 77 72 74
f 72 73 74
f 74 73 56
f 74 56 9
f 56 10 9
f 10 56 12
f 55 10 12
f 11 10 55
f 4 5 6
f 7 6 5
f 5 8 7
f 39 7 8
f 17 39 8
f 17 8 18
f 17 18 34
f 34 32 17
f 37 32 34
f 37 34 35
f 34 18 35
f 35 18 36
f 18 8 19
f 47 19 8
f 7 12 6
f 6 12 56
f 56 73 6
f 13 14 15
f 13 15 86
f 15 87 86
f 85 86 87
f 88 86 85
f 86 88 83
f 81 83 88
f 81 82 83
f 82 84 83
f 83 84 90
f 89 83 90
f 69 83 89
f 68 83 69
f 68 69 70
f 70 78 68
f 80 68 78
f 79 68 80
f 79 80 44
f 44 80 46
f 46 45 44
f 44 45 22
f 22 45 25
f 24 22 25
f 26 22 24
f 22 26 20
f 20 21 22
f 22 21 23
f 27 22 23
f 22 27 28
f 30 22 28
f 29 22 30
f 22 29 43
f 14 22 43
f 16 14 43
f 15 14 16
f 31 32 33
f 31 33 38
f 38 33 42
f 42 41 38
f 40 41 42
f 41 57 53
f 41 53 54
f 54 38 41
f 53 52 54
f 52 53 59
f 59 60 52
f 60 59 62
f 60 62 64
f 64 66 60
f 64 65 66
f 66 65 71
f 71 3 66
f 3 2 66
f 66 2 60
f 61 60 2
f 60 61 50
f 60 50 52
f 50 51 52
f 51 54 52
f 48 33 49
f 49 33 37
f 37 33 32
f 53 57 58
f 59 53 58
f 63 59 58
f 62 59 63
f 62 63 67
f 64 62 67
f 91 58 57
f 63 58 91
