v 0.0000 55.0977 28.3047
v -10.1602 54.2344 25.7188
v -5.4570 52.6016 19.0273
v -10.5469 51.5039 15.8516
v -15.9727 -10.5742 7.5820
v -22.3594 3.0391 13.3125
v -27.1133 8.0898 7.5000
v -26.9023 8.0898 -1.9805
v 0.0000 -2.0078 -29.5938
v 0.0000 -12.2227 -24.0547
v -15.4648 -2.0078 -21.7500
v -10.5977 67.4883 -6.0039
v -9.0391 69.5312 10.8789
v 0.0000 69.2383 -6.3125
v 0.0000 70.9805 11.8008
v -16.0781 66.0508 9.6367
v -10.5977 56.1133 -27.0273
v -20.0977 58.2266 -16.1328
v 0.0000 46.2734 -34.9961
v -13.1523 44.4844 -32.1562
v 0.0000 61.4219 -23.4844
v -31.7539 29.5391 7.5000
v -27.8594 35.2539 17.7031
v -30.5586 40.9688 7.5000
v -25.8203 48.0000 16.0000
v -24.1094 40.9414 -22.8633
v -10.1055 8.0898 -30.7852
v -12.5156 24.0977 -33.6367
v 0.0000 13.3750 -35.4609
v 0.0000 29.5391 -37.8906
v -21.3789 8.0508 -21.1719
v -24.5469 29.5391 -23.4492
v -29.5234 40.9531 -7.4492
v -30.0703 24.0977 -7.7773
v -15.9727 -10.5742 7.5820
v 0.0000 44.0000 -14.0000
v -22.3594 3.0391 13.3125
v -27.3711 18.6562 17.3008
v -25.8203 48.0000 16.0000
v -27.8594 35.2539 17.7031
v -20.6562 47.1992 10.0000
v -17.9336 20.0586 -5.9883
v -26.9023 8.0898 -1.9805
v -30.5586 18.6562 7.5000
v -27.3711 18.6562 17.3008
v -23.7305 18.6445 -22.8633
v -19.5469 52.0039 19.3438
v -21.1172 57.9570 18.0078
v -21.9258 59.9531 9.0312
v -11.4883 61.1445 26.0117
v 0.0000 63.1172 28.6719
v -11.8594 65.8906 20.4141
v 0.0000 69.1641 21.8281
v -20.0859 60.7422 -4.8750
v -12.5703 -10.3008 -12.4258
v -8.4609 4.6953 -15.2812
v -15.4648 -2.0078 -21.7500
v 0.0000 -12.2227 -24.0547
v -12.5703 -10.3008 -12.4258
v 5.4570 52.6016 19.0273
v 10.1602 54.2344 25.7188
v 10.5469 51.5039 15.8516
v 15.9727 -10.5742 7.5820
v 27.1133 8.0898 7.5000
v 22.3594 3.0391 13.3125
v 26.9023 8.0898 -1.9805
v 15.4648 -2.0078 -21.7500
v 10.5977 67.4883 -6.0039
v 9.0391 69.5312 10.8789
v 16.0781 66.0508 9.6367
v 10.5977 56.1133 -27.0273
v 20.0977 58.2266 -16.1328
v 13.1523 44.4844 -32.1562
v 31.7539 29.5391 7.5000
v 30.5586 40.9688 7.5000
v 27.8594 35.2539 17.7031
v 25.8203 48.0000 16.0000
v 24.1094 40.9414 -22.8633
v 10.1055 8.0898 -30.7852
v 12.5156 24.0977 -33.6367
v 21.3789 8.0508 -21.1719
v 29.5234 40.9531 -7.4492
v 24.5469 29.5391 -23.4492
v 30.0703 24.0977 -7.7773
v 15.9727 -10.5742 7.5820
v 22.3594 3.0391 13.3125
v 0.0000 44.0000 -14.0000
v 27.3711 18.6562 17.3008
v 25.8203 48.0000 16.0000
v 20.6562 47.1992 10.0000
v 27.8594 35.2539 17.7031
v 17.9336 20.0586 -5.9883
v 26.9023 8.0898 -1.9805
v 30.5586 18.6562 7.5000
v 27.3711 18.6562 17.3008
v 23.7305 18.6445 -22.8633
v 21.1172 57.9570 18.0078
v 19.5469 52.0039 19.3438
v 21.9258 59.9531 9.0312
v 11.8594 65.8906 20.4141
v 11.4883 61.1445 26.0117
v 20.0859 60.7422 -4.8750
v 8.4609 4.6953 -15.2812
v 12.5703 -10.3008 -12.4258
v 15.4648 -2.0078 -21.7500
v 0.0000 17.7969 -14.8516
v 12.5703 -10.3008 -12.4258
f 1 2 3
f 2 1 50
f 50 47 2
f 48 47 50
f 39 47 48
f 39 41 47
f 39 40 41
f 40 36 41
f 38 36 40
f 37 36 38
f 35 36 37
f 36 35 42
f 42 35 43
f 43 56 42
f 43 55 56
f 57 56 55
f 57 58 56
f 58 103 56
f 105 103 58
f 105 104 103
f 93 103 104
f 93 92 103
f 92 93 85
f 87 92 85
f 85 86 87
f 86 88 87
f 88 91 87
f 91 90 87
f 89 90 91
f 89 98 90
f 89 97 98
f 97 101 98
f 97 100 101
f 97 70 100
f 70 97 99
f 102 70 99
f 82 102 99
f 82 99 75
f 75 74 82
f 74 75 76
f 74 76 95
f 94 74 95
f 74 94 84
f 82 74 84
f 82 84 83
f 78 82 83
f 82 78 72
f 82 72 102
f 68 102 72
f 71 68 72
f 71 72 78
f 73 71 78
f 71 73 19
f 21 71 19
f 21 19 17
f 12 21 17
f 17 18 12
f 17 26 18
f 20 26 17
f 17 19 20
f 20 19 30
f 28 20 30
f 29 28 30
f 27 28 29
f 27 29 9
f 11 27 9
f 9 10 11
f 9 67 10
f 67 9 79
f 81 67 79
f 79 96 81
f 80 96 79
f 79 29 80
f 79 9 29
f 29 30 80
f 80 30 73
f 80 73 83
f 83 96 80
f 84 96 83
f 84 66 96
f 66 84 94
f 66 94 64
f 63 66 64
f 63 64 65
f 65 64 95
f 64 94 95
f 3 2 4
f 47 4 2
f 41 4 47
f 5 6 7
f 5 7 8
f 8 7 44
f 8 44 34
f 34 46 8
f 34 32 46
f 33 32 34
f 26 32 33
f 33 18 26
f 33 54 18
f 33 49 54
f 33 24 49
f 24 33 22
f 22 23 24
f 22 45 23
f 44 45 22
f 22 34 44
f 33 34 22
f 12 13 14
f 12 16 13
f 16 12 54
f 16 54 49
f 16 49 48
f 48 52 16
f 48 50 52
f 50 51 52
f 50 1 51
f 51 1 101
f 51 101 100
f 53 51 100
f 52 51 53
f 13 52 53
f 16 52 13
f 14 13 15
f 14 15 69
f 68 14 69
f 68 69 70
f 102 68 70
f 14 68 21
f 14 21 12
f 68 71 21
f 24 23 25
f 24 25 49
f 49 25 48
f 31 27 11
f 27 31 46
f 28 27 46
f 32 28 46
f 28 32 20
f 32 26 20
f 8 46 31
f 31 11 8
f 8 11 59
f 13 53 15
f 69 15 53
f 69 53 100
f 70 69 100
f 12 18 54
f 6 45 7
f 7 45 44
f 1 60 61
f 1 3 60
f 1 61 101
f 101 61 98
f 98 61 62
f 90 98 62
f 60 62 61
f 75 77 76
f 75 99 77
f 99 97 77
f 73 30 19
f 83 73 78
f 66 81 96
f 67 81 66
f 107 67 66
f 106 103 92
f 103 106 56
f 106 42 56
