v 0.0000 46.1250 -34.8594
v 10.5977 45.5039 -33.1562
v 0.0000 28.7188 -35.4805
v 10.5977 56.1133 -27.0273
v -17.2266 36.2695 25.4375
v -16.4453 47.5508 24.3164
v -23.1758 35.3359 19.7109
v -22.3242 46.8164 18.1133
v 0.0000 47.6211 29.6562
v 0.0000 57.4414 26.1836
v -9.0664 47.6484 28.1094
v -10.6055 58.0078 22.5625
v 0.0000 64.6562 18.6992
v -19.5664 58.1719 14.3438
v -9.1133 36.9688 29.2383
v 0.0000 37.2930 30.6641
v -21.8789 57.1914 3.0039
v -27.2461 45.9219 9.1992
v -28.3398 33.4375 10.7969
v 0.0000 41.5508 -4.1953
v 0.0000 37.2930 30.6641
v -9.1133 36.9688 29.2383
v -17.2266 36.2695 25.4375
v -23.1758 35.3359 19.7109
v 22.3242 46.8164 18.1133
v 16.4453 47.5508 24.3164
v 23.1758 35.3359 19.7109
v 17.2266 36.2695 25.4375
v 9.0664 47.6484 28.1094
v 10.6055 58.0078 22.5625
v 19.5664 58.1719 14.3438
v 9.1133 36.9688 29.2383
v 27.2461 45.9219 9.1992
v 21.8789 57.1914 3.0039
v 28.3398 33.4375 10.7969
v 27.0195 44.1172 -10.0312
v 29.9023 28.7188 -2.4297
v 9.1133 36.9688 29.2383
v 17.2266 36.2695 25.4375
v 23.1758 35.3359 19.7109
v 11.2891 28.7188 -33.7578
v 10.5977 63.9922 -17.6406
v 0.0000 65.5625 -18.5469
v 10.5977 67.4883 -6.0039
v 0.0000 69.2383 -6.3125
v 19.7852 43.6992 -26.3945
v 22.9023 28.7188 -21.2695
v 18.7617 58.1797 -15.8359
v 0.0000 57.2812 -28.4180
v -10.5977 45.5039 -33.1562
v -11.2891 28.7188 -33.7578
v -10.5977 63.9922 -17.6406
v -10.5977 67.4883 -6.0039
v -22.9023 28.7188 -21.2695
v -19.7852 43.6992 -26.3945
v -10.5977 56.1133 -27.0273
v -18.7617 58.1797 -15.8359
v -27.0195 44.1172 -10.0312
v -29.9023 28.7188 -2.4297
v 22.0820 15.1602 -16.9219
v 27.2109 15.6523 1.3633
v -27.2109 15.6523 1.3633
v -22.0820 15.1602 -16.9219
v -10.8828 15.0000 -28.9453
v 0.0000 15.0000 -30.5430
v 10.8828 15.0000 -28.9453
v -22.5195 6.3672 -11.8516
v -26.2891 7.1523 1.1836
v -12.0664 6.0781 -24.1523
v 0.0000 6.4570 -27.0352
v 12.0664 6.0781 -24.1523
v 22.5195 6.3672 -11.8516
v 28.9766 -1.6875 -0.8125
v 25.8594 -3.1367 -13.2422
v 26.2891 7.1523 1.1836
v 13.8750 -4.7188 -26.7969
v 0.0000 -5.0703 -29.8438
v 22.1562 -14.0742 -15.6094
v 26.6914 -8.5234 -6.1719
v 14.5000 -16.9062 -23.2500
v 0.0000 -17.4922 -26.1992
v 22.1562 -14.0742 -15.6094
v 26.6914 -8.5234 -6.1719
v 15.7852 14.2812 -2.1484
v 0.0000 -17.4922 -26.1992
v 14.5000 -16.9062 -23.2500
v 0.0000 9.7148 -14.0078
v -13.8750 -4.7188 -26.7969
v -25.8594 -3.1367 -13.2422
v -22.1562 -14.0742 -15.6094
v -26.6914 -8.5234 -6.1719
v -14.5000 -16.9062 -23.2500
v -22.1562 -14.0742 -15.6094
v -15.7852 14.2812 -2.1484
v -26.6914 -8.5234 -6.1719
v -14.5000 -16.9062 -23.2500
v -28.9766 -1.6875 -0.8125
v 10.5977 67.0000 7.0000
v 0.0000 69.0000 8.0000
v -10.5977 67.0000 7.0000
v 28.0625 25.9727 11.9961
v 26.8477 19.6836 13.8477
v 26.8477 19.6836 13.8477
v 28.0625 25.9727 11.9961
v 18.6094 21.3125 6.4922
v 20.6719 35.8086 8.2656
v 28.3398 33.4375 10.7969
v 27.2109 15.6523 1.3633
v 18.2812 18.7188 -2.3125
v -28.0625 25.9727 11.9961
v -20.6719 35.8086 8.2656
v -28.3398 33.4375 10.7969
v -18.6094 21.3125 6.4922
v -28.0625 25.9727 11.9961
v -26.8477 19.6836 13.8477
v -27.2109 15.6523 1.3633
v -18.2812 18.7188 -2.3125
v -26.8477 19.6836 13.8477
v -28.9766 -1.6875 -0.8125
v -26.2891 7.1523 1.1836
v 28.9766 -1.6875 -0.8125
v 26.2891 7.1523 1.1836
f 1 2 3
f 2 1 4
f 2 4 46
f 41 2 46
f 2 41 3
f 3 41 65
f 51 3 65
f 50 3 51
f 1 3 50
f 50 56 1
f 50 55 56
f 51 55 50
f 51 54 55
f 54 51 64
f 63 54 64
f 59 54 63
f 58 54 59
f 54 58 55
f 57 55 58
f 56 55 57
f 56 57 52
f 49 56 52
f 1 56 49
f 1 49 4
f 49 42 4
f 43 42 49
f 42 43 44
f 42 44 48
f 4 42 48
f 4 48 46
f 48 36 46
f 48 34 36
f 44 34 48
f 44 98 34
f 44 45 98
f 43 45 44
f 43 53 45
f 52 53 43
f 43 49 52
f 52 57 53
f 53 57 17
f 53 17 100
f 53 100 45
f 100 99 45
f 99 100 13
f 13 98 99
f 30 98 13
f 30 13 10
f 10 29 30
f 9 29 10
f 9 10 11
f 11 15 9
f 15 11 5
f 5 11 6
f 5 6 7
f 7 6 8
f 18 7 8
f 14 18 8
f 14 8 6
f 12 14 6
f 12 6 11
f 10 12 11
f 12 10 13
f 12 13 100
f 12 100 14
f 17 14 100
f 17 18 14
f 18 17 58
f 19 18 58
f 7 18 19
f 19 59 110
f 19 58 59
f 57 58 17
f 9 15 16
f 9 16 32
f 29 9 32
f 32 28 29
f 28 26 29
f 26 28 27
f 25 26 27
f 25 31 26
f 25 33 31
f 33 25 27
f 35 33 27
f 33 35 36
f 34 33 36
f 31 33 34
f 31 34 98
f 30 31 98
f 26 31 30
f 30 29 26
f 20 21 22
f 22 23 20
f 20 23 24
f 20 24 111
f 111 24 112
f 111 112 113
f 113 112 114
f 113 114 115
f 115 116 113
f 113 116 117
f 116 94 117
f 120 94 116
f 119 94 120
f 95 94 119
f 93 94 95
f 94 93 96
f 96 87 94
f 85 87 96
f 85 86 87
f 87 86 84
f 84 86 82
f 82 83 84
f 83 121 84
f 121 122 84
f 122 108 84
f 84 108 109
f 108 105 109
f 103 105 108
f 103 104 105
f 107 105 104
f 106 105 107
f 40 106 107
f 20 106 40
f 20 40 39
f 38 20 39
f 20 38 21
f 36 35 37
f 36 37 47
f 36 47 46
f 41 46 47
f 41 47 66
f 41 66 65
f 65 66 70
f 64 65 70
f 64 51 65
f 63 64 69
f 67 63 69
f 67 68 63
f 68 67 89
f 97 68 89
f 91 97 89
f 90 91 89
f 92 90 89
f 88 92 89
f 89 67 88
f 69 88 67
f 88 69 77
f 81 88 77
f 81 77 76
f 80 81 76
f 76 74 80
f 74 76 72
f 72 75 74
f 60 75 72
f 72 71 60
f 71 72 76
f 76 77 71
f 70 71 77
f 71 70 66
f 66 60 71
f 66 47 60
f 47 37 60
f 60 37 61
f 61 75 60
f 37 101 61
f 35 101 37
f 61 101 102
f 62 59 63
f 59 62 110
f 110 62 118
f 63 68 62
f 69 64 70
f 70 77 69
f 73 74 75
f 79 74 73
f 78 74 79
f 80 74 78
f 92 88 81
f 98 45 99
