v 0.0000 22.0156 -30.6289
v 11.3047 22.5742 -29.0898
v 0.0000 9.6289 -19.1055
v 18.6641 15.5547 -13.8867
v 18.3516 25.7539 -25.1172
v 11.3984 34.1562 -31.6953
v 0.0000 33.5469 -34.3477
v 26.1250 33.4336 -16.0000
v 28.4062 31.0000 0.0000
v 24.6250 37.2383 -17.0586
v 27.5820 40.4922 -1.5898
v -11.3047 22.5742 -29.0898
v -18.3555 25.7539 -25.1172
v -18.6641 15.5547 -13.8867
v -28.4062 31.0000 0.0000
v -25.8711 23.0000 9.0000
v -26.3281 36.7500 13.1523
v -26.1250 33.4336 -16.0000
v -11.3984 34.1562 -31.6953
v -27.5820 40.4922 -1.5898
v -24.6250 37.2383 -17.0586
v -21.7227 46.1992 15.6289
v -19.5898 37.3242 20.6875
v -11.7422 39.6094 24.9258
v -16.1484 49.0859 20.8594
v -9.3438 53.9727 22.4609
v 9.2344 53.8086 22.5156
v 0.6875 55.2969 23.1875
v 4.9492 49.4883 24.8438
v -24.4727 43.8711 10.1602
v 25.8711 23.0000 9.0000
v 26.3281 36.7500 13.1523
v 3.3242 52.0000 15.3711
v -3.3750 43.7422 26.5898
v -11.7422 39.6094 24.9258
v 23.7344 37.3242 17.4102
v 21.9570 45.5312 15.3047
v 14.3438 49.3750 22.1094
v 16.2227 50.9570 19.5586
v 12.8828 52.8594 21.3164
v 17.4609 43.7305 21.8594
v 20.7148 39.6094 20.2773
v 10.6211 57.8984 12.2500
v 11.5938 55.9453 19.6562
v -26.3281 36.7500 13.1523
v -25.8711 23.0000 9.0000
v 0.0000 36.7500 -8.1367
v 13.3438 52.0000 15.3711
v 25.8711 23.0000 9.0000
v 26.3281 36.7500 13.1523
v -28.4062 31.0000 0.0000
v 28.4062 31.0000 0.0000
v -18.6641 15.5547 -13.8867
v 18.6641 15.5547 -13.8867
v -19.5898 37.3242 20.6875
v 4.9492 49.4883 24.8438
v 9.2344 53.8086 22.5156
v 14.3438 49.3750 22.1094
v 17.4609 43.7305 21.8594
v 20.7148 39.6094 20.2773
v 12.8828 52.8594 21.3164
v 23.7344 37.3242 17.4102
v -16.1484 50.7500 19.6094
v -3.3750 43.7422 26.5898
v 19.3555 35.5977 -24.9492
v -19.3555 35.5977 -24.9492
f 1 2 3
f 1 3 12
f 7 1 12
f 2 1 7
f 6 2 7
f 2 6 5
f 2 5 4
f 4 3 2
f 5 8 4
f 65 8 5
f 10 8 65
f 10 11 8
f 8 11 9
f 4 8 9
f 31 9 32
f 9 11 32
f 37 32 11
f 36 32 37
f 36 37 42
f 37 41 42
f 37 39 41
f 41 39 38
f 38 39 40
f 13 12 14
f 13 14 18
f 18 66 13
f 21 66 18
f 20 21 18
f 15 20 18
f 14 15 18
f 3 14 12
f 12 13 19
f 19 7 12
f 19 13 66
f 15 16 17
f 15 17 20
f 17 30 20
f 17 22 30
f 22 17 23
f 22 23 25
f 63 22 25
f 25 26 63
f 26 25 24
f 64 26 24
f 26 64 28
f 29 28 64
f 27 28 29
f 24 25 23
f 33 34 35
f 56 34 33
f 56 33 57
f 57 33 44
f 33 43 44
f 33 47 43
f 45 47 33
f 45 46 47
f 51 47 46
f 53 47 51
f 49 50 47
f 49 47 52
f 52 47 54
f 47 50 48
f 48 43 47
f 44 43 48
f 44 48 61
f 61 48 58
f 58 48 59
f 48 60 59
f 48 62 60
f 50 62 48
f 33 55 45
f 33 35 55
f 6 65 5
