v 10.6641 19.6953 -25.1328
v 0.0000 22.6602 -29.5977
v 10.6641 33.4336 -31.6211
v 0.0000 33.4336 -33.2500
v 0.0000 9.6289 -19.1055
v 18.6641 15.5547 -13.8867
v 18.9531 24.7188 -23.9453
v 18.6641 43.1172 -24.8984
v 24.6484 34.0000 -13.0000
v 26.2969 33.4336 0.0000
v 24.0000 43.6484 -12.1719
v 26.2969 42.3867 -1.3477
v 24.1992 31.0000 12.0000
v 0.0000 33.4336 13.0703
v 26.2969 33.4336 0.0000
v -10.6641 33.4336 -31.6211
v -10.6641 19.6953 -25.1328
v -18.9531 24.7188 -23.9453
v -18.6641 15.5547 -13.8867
v -18.6641 43.1172 -24.8984
v -24.6484 34.0000 -13.0000
v -24.0000 43.6484 -12.1719
v -26.2969 33.4336 0.0000
v -26.2969 42.3867 -1.3477
v -20.5625 49.9727 14.9219
v -23.6953 41.4570 14.1680
v 0.0000 33.4336 13.0703
v -24.1992 31.0000 12.0000
v -26.2969 33.4336 0.0000
v 23.6875 41.4570 14.1680
v 20.7461 49.6016 15.1172
v 25.5742 43.1641 6.2227
v -25.5742 43.1641 6.2227
v -24.1992 31.0000 12.0000
v 24.1992 31.0000 12.0000
v 23.6875 41.4570 14.1680
v 20.7461 49.6016 15.1172
v -23.6953 41.4570 14.1680
v -20.5625 49.9727 14.9219
f 1 2 3
f 2 1 5
f 2 5 17
f 2 17 16
f 4 2 16
f 2 4 3
f 1 3 7
f 6 1 7
f 5 1 6
f 19 17 5
f 18 17 19
f 17 18 16
f 16 18 20
f 20 18 21
f 20 21 22
f 24 22 21
f 24 21 23
f 23 33 24
f 23 34 33
f 34 38 33
f 38 39 33
f 8 9 7
f 8 11 9
f 12 9 11
f 9 12 10
f 10 6 9
f 9 6 7
f 3 8 7
f 13 14 15
f 30 14 13
f 14 30 31
f 18 19 21
f 21 19 23
f 25 26 27
f 27 26 28
f 28 29 27
f 10 12 32
f 10 32 35
f 35 32 36
f 32 37 36
