v 0.0000 30.4102 -34.4297
v 0.0000 33.5469 -34.3477
v 11.6367 30.8672 -31.9023
v 11.3984 34.1562 -31.6953
v 25.8867 33.6914 -17.5312
v 19.8047 32.2656 -25.0859
v 19.3555 35.5977 -24.9492
v 24.6250 37.2383 -17.0586
v 27.5820 40.4922 -1.5898
v 28.5859 33.9414 -4.2500
v 26.8594 2.1562 -13.3906
v 32.6211 13.2188 -6.8320
v 23.0781 23.3359 -3.7812
v 33.3750 24.7734 -3.8828
v 18.9805 -3.3438 -20.8906
v 0.0000 -6.5000 -28.3008
v 9.8555 -6.0000 -26.4922
v 12.3477 21.0000 -36.6211
v 0.0000 21.0000 -38.7812
v 24.5469 21.0000 -29.9727
v 33.3750 24.7734 -3.8828
v 32.1328 22.0000 -18.3711
v 11.9414 7.5000 -35.1953
v 22.9609 8.4844 -29.0703
v 31.1094 11.1836 -16.7500
v 0.0000 7.5000 -37.1797
v 0.0000 -6.5000 -28.3008
v 9.8555 -6.0000 -26.4922
v 18.9805 -3.3438 -20.8906
v 26.8594 2.1562 -13.3906
v 32.6211 13.2188 -6.8320
v 34.6055 15.6875 -1.2383
v 22.7383 17.3125 -0.4297
v 25.8320 0.5273 13.0078
v 31.9375 6.2930 4.0625
v 29.7305 1.9883 15.3984
v 26.2734 10.1016 19.8398
v 17.5586 -1.6289 22.1289
v 22.2383 13.1797 11.1016
v 20.3867 5.4062 15.6758
v 26.2734 10.1016 19.8398
v 17.5586 -1.6289 22.1289
v 36.7656 18.0898 8.5352
v 35.3867 7.8789 11.0312
v 34.6055 15.6875 -1.2383
v 28.1914 20.1016 18.5078
v 22.9219 21.6016 7.6719
v 28.1914 20.1016 18.5078
v 27.2656 29.5586 17.9688
v 22.3164 9.5938 4.4375
v 20.8945 3.2539 10.4883
v 34.0781 27.2422 7.3516
v 27.2656 29.5586 17.9688
v 27.4609 36.5977 6.9648
v 23.1836 39.0820 17.4336
v 24.5508 42.5898 8.1016
v 31.9375 6.2930 4.0625
v 0.0000 50.6445 25.1992
v 0.0000 40.3242 26.7383
v 10.7969 49.6484 23.8828
v 10.7852 40.2734 25.3438
v 0.0000 58.9453 21.0117
v 10.8984 57.7031 19.1562
v 19.5156 40.2383 18.8203
v 17.1914 53.9219 14.5312
v 20.0625 48.2578 17.5742
v 23.1836 39.0820 17.4336
v 16.7773 43.1406 7.1406
v 20.0625 48.2578 17.5742
v 17.1914 53.9219 14.5312
v 0.0000 40.3242 26.7383
v -10.7852 40.2734 25.3438
v 0.0000 47.7305 12.7578
v -16.7773 43.1367 7.1367
v -19.5156 40.2383 18.8203
v 25.8320 0.5273 13.0078
v -23.0781 23.3359 -3.7812
v -11.6367 30.8672 -31.9023
v -11.3984 34.1562 -31.6953
v -25.8867 33.6914 -17.5312
v -19.3555 35.5977 -24.9492
v -19.8047 32.2656 -25.0859
v -24.6250 37.2383 -17.0586
v -28.5859 33.9414 -4.2500
v -27.5820 40.4922 -1.5898
v -26.8594 2.1562 -13.3906
v -18.9805 -3.3438 -20.8906
v -9.8555 -6.0000 -26.4922
v -12.3477 21.0000 -36.6211
v -24.5469 21.0000 -29.9727
v -33.3750 24.7734 -3.8828
v -32.1328 22.0000 -18.3711
v -11.9414 7.5000 -35.1953
v -22.9609 8.4844 -29.0703
v -33.3750 24.7734 -3.8828
v -32.6211 13.2188 -6.8320
v -31.1094 11.1836 -16.7500
v -9.8555 -6.0000 -26.4922
v -18.9805 -3.3438 -20.8906
v -26.8594 2.1562 -13.3906
v -32.6211 13.2188 -6.8320
v -34.6055 15.6875 -1.2383
v -22.7383 17.3125 -0.4297
v -25.8320 0.5273 13.0078
v -29.7305 1.9883 15.3984
v -31.9375 6.2930 4.0625
v -26.2734 10.1016 19.8398
v -17.5586 -1.6289 22.1289
v -22.2383 13.1797 11.1016
v -26.2734 10.1016 19.8398
v -20.3867 5.4062 15.6758
v -17.5586 -1.6289 22.1289
v -36.7656 18.0898 8.5352
v -34.6055 15.6875 -1.2383
v -35.3867 7.8789 11.0312
v -28.1914 20.1016 18.5078
v -22.9219 21.6016 7.6719
v -28.1914 20.1016 18.5078
v -27.2656 29.5586 17.9688
v -22.3164 9.5938 4.4375
v -20.8945 3.2539 10.4883
v -34.0781 27.2422 7.3516
v -27.2656 29.5586 17.9688
v -23.1836 39.0820 17.4336
v -27.4609 36.5977 6.9648
v -24.5508 42.5898 8.1016
v -23.1836 39.0820 17.4336
v -31.9375 6.2930 4.0625
v -10.7969 49.6484 23.8828
v -10.7852 40.2734 25.3438
v -10.8984 57.7031 19.1562
v -17.1914 53.9219 14.5312
v -19.5156 40.2383 18.8203
v -20.0625 48.2578 17.5742
v -17.1914 53.9219 14.5312
v -20.0625 48.2578 17.5742
v -25.8320 0.5273 13.0078
v 10.7852 40.2734 25.3438
v 19.5156 40.2383 18.8203
f 1 2 3
f 3 18 1
f 20 18 3
f 6 20 3
f 6 3 4
f 7 6 4
f 5 6 7
f 7 8 5
f 10 5 8
f 8 9 10
f 10 9 54
f 54 52 10
f 54 53 52
f 53 54 55
f 55 54 56
f 56 66 55
f 9 56 54
f 2 4 3
f 1 78 2
f 78 1 89
f 90 78 89
f 82 78 90
f 82 79 78
f 81 79 82
f 80 81 82
f 81 80 83
f 84 83 80
f 83 84 85
f 84 125 85
f 125 84 122
f 125 122 123
f 123 124 125
f 124 126 125
f 126 124 134
f 85 125 126
f 11 12 13
f 11 13 15
f 13 17 15
f 16 17 13
f 16 13 77
f 16 77 88
f 77 87 88
f 86 87 77
f 77 96 86
f 95 96 77
f 103 95 77
f 102 95 103
f 102 103 120
f 128 102 120
f 120 121 128
f 109 121 120
f 109 120 117
f 117 118 109
f 117 119 118
f 127 119 117
f 117 74 127
f 77 74 117
f 77 117 103
f 120 103 117
f 13 12 14
f 33 13 14
f 32 33 14
f 32 50 33
f 57 50 32
f 50 57 51
f 39 50 51
f 39 47 50
f 47 39 48
f 47 48 49
f 49 67 47
f 67 68 47
f 68 67 69
f 68 69 70
f 70 139 68
f 73 68 139
f 138 73 139
f 71 73 138
f 71 72 73
f 75 73 72
f 74 73 75
f 75 135 74
f 135 136 74
f 136 127 74
f 18 19 1
f 18 23 19
f 24 23 18
f 20 24 18
f 25 24 20
f 22 25 20
f 5 22 20
f 6 5 20
f 10 21 5
f 52 21 10
f 21 52 43
f 45 21 43
f 43 44 45
f 37 44 43
f 37 36 44
f 37 38 36
f 36 38 34
f 34 35 36
f 44 36 35
f 44 35 45
f 26 23 27
f 23 26 19
f 93 19 26
f 89 19 93
f 89 1 19
f 90 89 94
f 97 90 94
f 92 90 97
f 92 80 90
f 80 92 91
f 84 80 91
f 122 84 91
f 91 113 122
f 114 113 91
f 113 114 115
f 107 113 115
f 107 115 105
f 107 105 108
f 105 104 108
f 104 105 106
f 115 106 105
f 115 114 106
f 23 28 27
f 28 23 24
f 29 28 24
f 30 29 24
f 25 30 24
f 30 25 31
f 25 22 31
f 31 22 21
f 5 21 22
f 39 40 41
f 39 41 48
f 51 40 39
f 42 40 51
f 40 42 41
f 76 42 51
f 51 57 76
f 46 37 43
f 43 52 46
f 52 53 46
f 13 33 47
f 13 47 68
f 50 47 33
f 58 59 60
f 63 58 60
f 62 58 63
f 62 131 58
f 131 129 58
f 129 131 132
f 132 133 129
f 133 130 129
f 129 130 59
f 58 129 59
f 60 59 61
f 61 64 60
f 60 64 65
f 63 60 65
f 2 78 79
f 90 80 82
f 94 89 93
f 98 94 93
f 93 27 98
f 26 27 93
f 99 94 98
f 100 94 99
f 97 94 100
f 100 101 97
f 101 92 97
f 91 92 101
f 109 110 111
f 109 118 110
f 121 109 111
f 112 121 111
f 111 110 112
f 137 121 112
f 121 137 128
f 116 113 107
f 113 116 122
f 122 116 123
