v 13.3320 -4.0000 -14.6641
v 15.0000 1.0000 -17.9375
v 19.0000 2.0000 -10.6641
v 7.0000 0.0000 -21.3320
v 27.3086 21.3320 -2.6641
v 26.6641 23.3867 -10.8555
v 28.6250 31.4453 0.0000
v 26.6641 33.3320 -16.0000
v 19.3555 35.5977 -24.9492
v 19.6172 18.8125 -22.6914
v 11.3984 34.1562 -31.6953
v 11.6680 16.0000 -28.0000
v 0.0000 33.5469 -34.3477
v 24.6250 37.2383 -17.0586
v 6.0352 9.6445 -12.8242
v 13.3320 -4.0000 -14.6641
v 13.3789 13.0820 -9.7930
v 0.0000 -6.6641 -17.3320
v -6.0352 9.6445 -12.8242
v 0.0000 58.0000 21.8906
v 0.0000 48.0000 26.0781
v 5.9102 47.0000 24.9414
v 18.2031 45.0000 20.4180
v 12.9062 47.0000 23.7031
v 12.1875 41.4922 24.4258
v 18.2031 45.0000 20.4180
v 0.0000 51.1094 2.5820
v 16.2656 40.9414 14.9062
v 10.1875 57.0000 19.3633
v 18.0898 51.7031 16.0430
v 0.0000 42.0000 27.4258
v 23.9141 43.8086 12.6406
v 24.5781 40.3438 13.9414
v 22.6523 37.0000 19.0859
v 12.1875 41.4922 24.4258
v 26.6641 22.6641 10.6641
v 25.3320 29.0000 16.2500
v 24.0000 10.6641 -6.6641
v 0.0000 14.6641 -29.3320
v 7.0000 0.0000 -21.3320
v 19.0000 2.0000 -10.6641
v -13.3320 -4.0000 -14.6641
v -19.0000 2.0000 -10.6641
v -15.0000 1.0000 -17.9375
v -7.0000 0.0000 -21.3320
v -27.3086 21.3320 -2.6641
v -28.6250 31.4453 0.0000
v -26.6641 23.3867 -10.8555
v -26.6641 33.3320 -16.0000
v -19.3555 35.5977 -24.9492
v -19.6172 18.8125 -22.6914
v -11.6680 16.0000 -28.0000
v -11.3984 34.1562 -31.6953
v -27.5820 40.4922 -1.5898
v -24.6250 37.2383 -17.0586
v -5.9102 47.0000 24.9414
v -18.2031 45.0000 20.4180
v -12.1875 41.4922 24.4258
v -12.9062 47.0000 23.7031
v -10.1875 57.0000 19.3633
v -18.0898 51.7031 16.0430
v -24.5781 40.3438 13.9414
v -22.6523 37.0000 19.0859
v 0.0000 42.0000 27.4258
v -5.9102 47.0000 24.9414
v -12.1875 41.4922 24.4258
v -18.2031 45.0000 20.4180
v -16.2656 40.9414 14.9062
v -26.6641 22.6641 10.6641
v -25.3320 29.0000 16.2500
v 0.0000 -6.6641 -17.3320
v -24.0000 10.6641 -6.6641
v -13.3320 -4.0000 -14.6641
v -7.0000 0.0000 -21.3320
v -19.0000 2.0000 -10.6641
v -13.3789 13.0820 -9.7930
v -24.0000 10.6641 -6.6641
v 5.9102 47.0000 24.9414
v 27.5820 40.4922 -1.5898
v -23.9062 43.8711 12.6172
v -22.6523 37.0000 19.0859
v -21.1250 27.9922 7.4219
v -25.3320 29.0000 16.2500
v -26.6641 22.6641 10.6641
v -28.6250 31.4453 0.0000
v -22.3008 33.2617 1.0234
v -27.3086 21.3320 -2.6641
v 24.0000 10.6641 -6.6641
v 28.6250 31.4453 0.0000
v 22.3008 33.2617 1.0234
v 27.3086 21.3320 -2.6641
v 26.6641 22.6641 10.6641
v 21.1250 27.9922 7.4219
v 25.3320 29.0000 16.2500
v 22.6523 37.0000 19.0859
f 1 2 3
f 1 4 2
f 4 12 2
f 39 12 4
f 4 45 39
f 71 45 4
f 42 44 45
f 42 43 44
f 44 43 51
f 44 51 52
f 45 44 52
f 39 45 52
f 39 52 13
f 12 39 13
f 11 12 13
f 11 10 12
f 9 10 11
f 9 8 10
f 8 9 14
f 14 79 8
f 8 79 7
f 8 7 6
f 10 8 6
f 10 6 38
f 10 38 3
f 2 10 3
f 2 12 10
f 5 6 7
f 6 5 38
f 15 16 17
f 16 15 40
f 18 40 15
f 18 15 19
f 18 19 74
f 73 74 19
f 19 76 73
f 73 76 75
f 75 76 77
f 77 76 87
f 87 76 86
f 85 87 86
f 82 85 86
f 84 85 82
f 82 83 84
f 82 81 83
f 68 81 82
f 67 81 68
f 67 68 27
f 66 67 27
f 65 66 27
f 64 65 27
f 64 27 78
f 78 27 35
f 26 35 27
f 26 27 28
f 26 28 95
f 28 93 95
f 95 93 94
f 94 93 92
f 92 93 89
f 89 93 90
f 89 90 91
f 90 17 91
f 91 17 88
f 17 41 88
f 16 41 17
f 20 21 22
f 20 22 29
f 29 22 24
f 29 24 30
f 23 30 24
f 23 24 25
f 24 22 25
f 22 21 31
f 56 31 21
f 20 56 21
f 20 60 56
f 56 60 59
f 59 58 56
f 57 58 59
f 57 59 61
f 61 80 57
f 57 80 62
f 62 63 57
f 70 63 62
f 47 70 62
f 69 70 47
f 46 47 48
f 48 72 46
f 51 72 48
f 51 48 49
f 50 51 49
f 51 50 53
f 52 51 53
f 13 52 53
f 30 23 32
f 32 23 33
f 32 33 79
f 79 33 7
f 7 33 37
f 36 7 37
f 37 33 34
f 33 23 34
f 49 48 47
f 47 54 49
f 62 54 47
f 80 54 62
f 49 54 55
f 49 55 50
f 59 60 61
f 51 43 72
