v 3.2109 14.4258 -18.7695
v -3.2109 14.4258 -18.7695
v 3.2109 9.8828 -23.3125
v -3.2109 9.8828 -23.3125
v -6.4219 18.3594 -22.7070
v -6.4219 13.8164 -27.2500
v -3.2109 22.2930 -26.6406
v -3.2109 17.7500 -31.1836
v 3.2109 22.2930 -26.6406
v 3.2109 17.7500 -31.1836
v 6.4219 18.3594 -22.7070
v 6.4219 13.8164 -27.2500
v -6.4219 13.8164 -27.2500
v -3.2109 17.7500 -31.1836
v 6.4219 13.8164 -27.2500
v 3.2109 17.7500 -31.1836
v -3.2109 9.8828 -23.3125
v 3.2109 9.8828 -23.3125
f 1 2 3
f 1 3 12
f 11 1 12
f 11 12 10
f 9 11 10
f 9 10 8
f 7 9 8
f 7 8 6
f 5 7 6
f 5 6 4
f 2 5 4
f 2 4 3
f 13 14 15
f 13 15 17
f 17 15 18
f 15 14 16
