v -7.8711 60.1523 -20.1758
v -4.5664 65.2422 -14.6211
v -7.8711 64.1016 -23.7969
v -4.5664 69.1914 -18.2383
v 4.5664 65.2422 -14.6211
v 4.5664 69.1914 -18.2383
v 7.8711 60.1523 -20.1758
v 7.8711 64.1016 -23.7969
v 0.0000 55.0625 -25.7344
v 0.0000 59.0117 -29.3516
v 0.0000 55.0625 -25.7344
v 0.0000 59.0117 -29.3516
v -4.5664 69.1914 -18.2383
v 4.5664 69.1914 -18.2383
v -7.8711 64.1016 -23.7969
v 7.8711 64.1016 -23.7969
v 0.0000 59.0117 -29.3516
f 1 2 3
f 1 3 9
f 3 10 9
f 2 4 3
f 2 5 4
f 5 6 4
f 5 7 6
f 7 8 6
f 12 8 7
f 11 12 7
f 13 14 15
f 14 16 15
f 17 15 16
