v 26.7539 56.5352 2.9102
v 24.4453 54.2461 0.7188
v 23.4453 59.0703 2.9023
v 21.1367 56.7812 0.7109
v 25.5312 55.3516 9.6562
v 22.2227 57.8867 9.6484
v 22.7188 52.5742 10.2617
v 19.4062 55.1094 10.2500
v 27.2031 56.9922 6.6133
v 23.8945 59.5273 6.6055
v 22.7188 52.5742 10.2617
v 24.4453 54.2461 0.7188
v 25.5312 55.3516 9.6562
v 26.7539 56.5352 2.9102
v 27.2031 56.9922 6.6133
v 19.4062 55.1094 10.2500
v 22.2227 57.8867 9.6484
v 21.1367 56.7812 0.7109
v 23.4453 59.0703 2.9023
v 23.8945 59.5273 6.6055
f 1 2 3
f 1 3 10
f 9 1 10
f 9 10 5
f 5 10 6
f 5 6 7
f 7 6 8
f 2 4 3
f 11 12 13
f 13 12 14
f 14 15 13
f 16 17 18
f 18 17 19
f 17 20 19
