v 3.7500 39.8242 -26.9375
v -3.7500 39.8242 -26.9375
v 3.7500 40.1719 -36.9336
v -3.7500 40.1719 -36.9336
v -7.5000 46.3164 -26.7109
v -7.5000 46.6641 -36.7070
v -3.7500 52.8047 -26.4883
v -3.7500 53.1523 -36.4805
v 3.7500 52.8047 -26.4883
v 3.7500 53.1523 -36.4805
v 7.5000 46.3164 -26.7109
v 7.5000 46.6641 -36.7070
v 7.5000 46.6641 -36.7070
v -3.7500 53.1523 -36.4805
v 3.7500 53.1523 -36.4805
v 3.7500 40.1719 -36.9336
v -3.7500 40.1719 -36.9336
v -7.5000 46.6641 -36.7070
f 1 2 3
f 12 1 3
f 11 1 12
f 10 11 12
f 9 11 10
f 8 9 10
f 7 9 8
f 6 7 8
f 5 7 6
f 4 5 6
f 2 5 4
f 3 2 4
f 13 14 15
f 13 17 14
f 16 17 13
f 17 18 14
