v 3.6641 23.9961 -26.9414
v -3.6680 23.9961 -26.9414
v 3.6641 20.7266 -34.5664
v -3.6680 20.7266 -34.5664
v -7.1992 29.6250 -29.3477
v -7.1992 26.3555 -36.9727
v -3.6680 35.2539 -31.7539
v -3.6680 31.9844 -39.3789
v 3.6641 35.2539 -31.7539
v 3.6641 31.9844 -39.3789
v 7.1992 29.6250 -29.3477
v 7.1992 26.3555 -36.9727
v 3.6641 20.7266 -34.5664
v -3.6680 20.7266 -34.5664
v 0.0000 26.3555 -36.9727
v -7.1992 26.3555 -36.9727
v -3.6680 31.9844 -39.3789
v 3.6641 31.9844 -39.3789
v 7.1992 26.3555 -36.9727
f 1 2 3
f 1 3 12
f 11 1 12
f 11 12 10
f 9 11 10
f 9 10 8
f 7 9 8
f 7 8 6
f 5 7 6
f 5 6 4
f 2 5 4
f 2 4 3
f 13 14 15
f 19 13 15
f 18 19 15
f 17 18 15
f 16 17 15
f 14 16 15
