v 1.6641 -2.7188 3.0195
v -1.6641 -2.7188 3.0195
v 0.0000 -4.2930 0.0000
v 2.0898 -3.6953 0.0000
v -4.4766 -0.4336 -16.0000
v -3.3945 0.3984 0.0000
v -2.0156 2.7227 0.0000
v 1.7500 0.0000 3.4219
v -1.7461 0.0000 3.4219
v 3.3945 0.3984 0.0000
v 2.0195 2.7227 0.0000
v -1.5508 11.6016 -14.0000
v 3.2891 -2.1094 0.0000
v 1.5508 11.6016 -14.0000
v -2.0898 -3.6953 0.0000
v 4.4766 -0.4336 -16.0000
v -3.2891 -2.1094 0.0000
f 1 2 3
f 1 3 4
f 4 13 1
f 16 13 4
f 16 4 3
f 5 16 3
f 15 5 3
f 17 5 15
f 6 5 17
f 5 6 7
f 5 7 12
f 14 12 7
f 11 14 7
f 11 16 14
f 16 11 10
f 10 13 16
f 10 8 13
f 10 11 8
f 11 7 8
f 8 7 9
f 8 9 1
f 1 13 8
f 2 1 9
f 17 2 9
f 17 9 6
f 6 9 7
f 2 17 15
f 3 2 15
