v -1.0156 -4.8633 4.7227
v -1.0352 -2.4180 5.6211
v -5.5078 -2.7305 -0.6406
v 5.5078 -2.7305 -0.6406
v 1.0352 -2.4180 5.6211
v 1.0156 -4.8633 4.7227
v 5.2188 -1.4844 0.0000
v 1.9531 -1.7383 0.0000
v 3.3203 -4.3711 -0.8242
v 0.0000 -5.5586 -0.8242
v 0.0000 -2.0000 -16.0000
v -5.2188 -1.4844 0.0000
v -4.3750 1.2891 -16.0000
v 2.0820 2.2422 -16.0000
v 4.3750 1.2891 -16.0000
v -1.9531 -1.7383 0.0000
v -2.0820 2.2422 -16.0000
v -3.3203 -4.3711 -0.8242
v 2.2500 8.6680 -3.0000
v 0.0000 9.3203 -3.0000
v -2.2500 8.6680 -3.0000
v 1.9805 12.2539 -14.0000
v -1.9805 12.2539 -14.0000
f 1 2 3
f 2 1 6
f 5 2 6
f 4 5 6
f 7 5 4
f 7 8 5
f 8 7 14
f 14 19 8
f 14 22 19
f 19 22 20
f 5 19 20
f 5 8 19
f 5 20 2
f 2 20 21
f 2 21 16
f 16 12 2
f 16 17 12
f 21 17 16
f 23 17 21
f 21 20 23
f 22 23 20
f 9 6 10
f 11 9 10
f 18 11 10
f 10 1 18
f 10 6 1
f 4 6 9
f 9 15 4
f 11 15 9
f 18 13 11
f 3 13 18
f 3 12 13
f 3 2 12
f 18 1 3
f 14 7 15
f 7 4 15
f 13 12 17
