v -4.1680 -0.1172 -16.0000
v -1.2109 -0.1172 2.2891
v -1.9219 7.6992 -2.4922
v -0.9258 -1.5703 3.8633
v -0.9062 -3.5742 3.6367
v 0.9258 -1.5703 3.8633
v 0.9102 -3.5742 3.6367
v 3.3477 -4.2695 -0.8320
v -3.3477 -4.2695 -0.8320
v 1.2109 -0.1172 2.2891
v 4.1680 -0.1172 -16.0000
v 1.9219 7.6992 -2.4922
v 0.0000 9.1680 -2.4922
v 0.8789 -5.6211 -0.8320
v 4.3828 -2.0000 -16.0000
v -4.3828 -2.0000 -16.0000
v -0.8828 -5.6211 -0.8320
v -3.3359 -2.6914 -0.8320
v 3.3359 -2.6914 -0.8320
v 2.3789 11.4570 -14.0000
v -2.3789 11.4570 -14.0000
f 1 2 3
f 2 1 18
f 4 2 18
f 9 4 18
f 9 5 4
f 9 17 5
f 9 16 17
f 16 9 18
f 16 18 1
f 17 16 14
f 17 14 7
f 5 17 7
f 7 6 5
f 7 8 6
f 14 8 7
f 8 14 15
f 15 19 8
f 19 15 11
f 10 19 11
f 10 11 12
f 10 12 13
f 13 2 10
f 3 2 13
f 21 3 13
f 20 21 13
f 13 12 20
f 12 11 20
f 4 5 6
f 6 10 4
f 19 10 6
f 8 19 6
f 16 15 14
f 2 4 10
f 1 3 21
