v -2.0859 -0.0430 0.7734
v -1.0938 1.6250 1.0000
v -2.4023 1.8906 -14.0000
v -0.7070 -1.8711 2.7383
v -2.6953 -1.2266 0.5078
v -0.0078 -0.5781 3.0781
v 1.0938 1.6250 1.0000
v -1.6406 -2.0000 -16.0000
v 1.6328 -2.0000 -16.0000
v -1.4961 -3.4102 0.0000
v 1.4883 -3.4102 0.0000
v 2.0859 -0.0430 0.7734
v 2.6953 -1.2266 0.5078
v 2.3867 1.8906 -14.0000
v 0.6953 -1.8711 2.7383
v -2.5469 -2.5977 0.1953
v 0.0312 7.1445 -2.6484
v -0.5977 9.0000 -14.0000
v -0.7812 6.0664 -2.6484
v 0.5977 9.0000 -14.0000
v 0.8438 6.0664 -2.6484
v 2.5469 -2.5977 0.1953
f 1 2 3
f 1 3 5
f 4 1 5
f 1 4 6
f 1 6 2
f 6 7 2
f 6 12 7
f 6 15 12
f 6 4 15
f 15 4 10
f 11 15 10
f 9 11 10
f 8 9 10
f 8 10 16
f 8 16 5
f 3 8 5
f 19 3 2
f 18 3 19
f 17 18 19
f 17 19 2
f 7 17 2
f 21 17 7
f 14 21 7
f 12 14 7
f 12 13 14
f 12 15 13
f 22 13 15
f 9 13 22
f 9 14 13
f 9 22 11
f 11 22 15
f 14 20 21
f 20 17 21
f 20 18 17
f 4 5 16
f 4 16 10
