v 3.1055 -1.8867 1.0898
v 2.0273 -3.3164 -0.8828
v 5.0000 -2.0547 -16.0000
v 0.0000 -2.0000 -16.0000
v -5.8086 1.1211 -1.2227
v 0.0000 8.0000 -10.0000
v -5.0000 1.0000 -16.0000
v 5.8086 1.1211 -1.2227
v 5.0000 1.0000 -16.0000
v -1.7070 -2.3828 2.3125
v -2.0273 -3.3164 -0.8828
v 0.0000 -4.0039 -0.8828
v -3.1055 -1.8867 1.0898
v -2.9062 1.0625 0.9844
v -6.0234 -1.8477 -0.8633
v 0.0000 1.1133 1.9414
v 1.7070 -2.3828 2.3125
v 2.9062 1.0625 0.9844
v 6.0234 -1.8477 -0.8633
v -5.1289 -1.9414 -0.1680
v 5.1289 -1.9414 -0.1680
v -5.0000 -2.0547 -16.0000
f 1 2 3
f 2 1 17
f 17 12 2
f 10 12 17
f 10 11 12
f 13 11 10
f 13 10 14
f 20 13 14
f 20 14 5
f 15 20 5
f 15 5 7
f 15 7 22
f 15 22 20
f 13 20 22
f 13 22 11
f 22 4 11
f 12 11 4
f 12 4 2
f 3 2 4
f 3 9 19
f 3 19 21
f 1 3 21
f 18 1 21
f 18 21 8
f 18 8 6
f 16 18 6
f 16 17 18
f 16 10 17
f 14 10 16
f 16 6 14
f 5 14 6
f 5 6 7
f 8 9 6
f 9 8 19
f 8 21 19
f 17 1 18
