v 4.2656 6.6992 -14.0000
v 4.1797 4.4102 -5.0000
v 5.8750 -0.2852 -1.1328
v -4.1797 4.4102 -5.0000
v -5.8750 -0.2852 -1.1328
v -4.0078 0.2031 1.9961
v 4.1836 -3.9297 -0.3008
v 0.0000 -4.3906 0.6562
v 0.0000 -2.7930 -16.0000
v 0.0000 5.0156 -5.0000
v 0.0000 0.6562 3.2031
v 0.0000 -1.8516 3.3398
v 4.0078 0.2031 1.9961
v 3.9570 -2.1172 1.8867
v -5.8984 -2.6992 -1.1328
v -3.9570 -2.1172 1.8867
v -5.8438 0.0000 -16.0000
v -4.1836 -3.9297 -0.3008
v -4.2656 6.6992 -14.0000
v 5.8438 0.0000 -16.0000
v 5.8984 -2.6992 -1.1328
f 1 2 3
f 20 1 3
f 20 3 21
f 21 7 20
f 21 14 7
f 21 3 14
f 14 3 13
f 13 12 14
f 11 12 13
f 11 6 12
f 11 4 6
f 10 4 11
f 2 10 11
f 2 1 10
f 1 19 10
f 19 4 10
f 4 19 5
f 4 5 6
f 6 5 16
f 6 16 12
f 12 16 8
f 14 12 8
f 7 14 8
f 7 8 9
f 9 20 7
f 17 9 15
f 5 17 15
f 5 15 16
f 15 18 16
f 18 15 9
f 9 8 18
f 18 8 16
f 2 13 3
f 13 2 11
f 5 19 17
