v 0.0000 -3.4531 5.1719
v -2.2812 -1.4062 2.7070
v -2.4336 -4.4531 2.4648
v 4.9688 2.0000 -5.0000
v 2.5977 -4.1055 -5.0000
v 4.9961 1.6836 -16.0000
v 0.0000 -2.0586 -16.0000
v 0.0000 12.0000 -5.0000
v 0.0000 -0.6836 3.3906
v 2.2812 -1.4062 2.7070
v -2.8984 8.9805 -5.0000
v -4.9688 2.0000 -5.0000
v -4.9961 1.6836 -16.0000
v -2.5977 -4.1055 -5.0000
v 0.0000 -5.5898 -5.0000
v 0.0000 -5.4531 4.0000
v 2.4336 -4.4531 2.4648
v 1.9375 14.0000 -14.0000
v 2.8984 8.9805 -5.0000
v -1.9375 14.0000 -14.0000
f 1 2 3
f 9 2 1
f 10 9 1
f 8 9 10
f 9 8 2
f 8 11 2
f 11 8 20
f 20 12 11
f 20 13 12
f 12 13 14
f 12 14 3
f 2 12 3
f 12 2 11
f 4 5 6
f 4 6 18
f 19 4 18
f 18 8 19
f 18 20 8
f 10 19 8
f 10 4 19
f 4 10 17
f 5 4 17
f 5 17 15
f 7 5 15
f 7 6 5
f 13 7 14
f 14 7 15
f 3 14 15
f 16 3 15
f 1 3 16
f 1 16 17
f 10 1 17
f 16 15 17
