v 0.6562 -5.8672 4.4883
v -0.6602 -5.8672 4.4883
v 1.5898 -4.8281 -0.5547
v -1.5938 -4.8281 -0.5547
v -3.8047 -1.2734 -0.5547
v -2.8750 -2.2617 -14.5664
v -4.1484 -4.8281 -0.5547
v -2.5391 -5.5859 1.6523
v -1.1094 -4.4219 5.5508
v 1.1133 -4.4219 5.5508
v 3.8086 -1.2734 -0.5547
v 4.1484 -4.8281 -0.5547
v 1.6016 10.4805 -1.0391
v 2.6289 4.7305 -13.6367
v 0.7305 15.5586 -12.7109
v -1.6016 10.4805 -1.0391
v -2.6289 4.7305 -13.6367
v 2.5391 -5.5859 1.6523
v 2.8750 -2.2617 -14.5664
v -0.7305 15.5586 -12.7109
v 0.0000 10.6641 -0.8672
v -0.7695 2.1484 5.2227
v 0.0000 2.0430 5.3359
v 0.7695 2.1484 5.2227
f 1 2 3
f 2 1 9
f 2 9 8
f 4 2 8
f 2 4 3
f 4 6 3
f 7 6 4
f 5 6 7
f 9 5 7
f 8 9 7
f 4 8 7
f 10 9 1
f 9 10 23
f 9 23 22
f 9 22 5
f 5 22 16
f 16 17 5
f 16 20 17
f 16 21 20
f 21 16 22
f 23 21 22
f 13 21 23
f 24 13 23
f 11 13 24
f 13 11 14
f 13 14 15
f 15 21 13
f 15 20 21
f 11 10 12
f 19 11 12
f 12 3 19
f 18 3 12
f 10 18 12
f 10 1 18
f 1 3 18
f 6 19 3
f 5 17 6
f 14 11 19
f 11 24 10
f 10 24 23
