v -3.9141 -2.0000 -1.0000
v -4.4531 -0.6367 -14.0000
v -1.7578 -3.8594 0.0000
v 0.0000 -2.0977 -16.0000
v 0.0000 -4.5312 0.0000
v 4.4531 1.0000 -14.0000
v 5.2227 0.4180 -2.0000
v 3.9141 -2.0000 -1.0000
v 1.7578 -3.8594 0.0000
v -5.2227 0.4180 -2.0000
v -2.1562 11.0000 -14.0000
v 2.1875 11.0000 -14.0000
v 2.3125 5.1914 -2.8203
v 0.0039 6.2734 -2.5000
v -2.2969 5.1914 -2.8203
v 0.0000 -1.1797 3.5703
v -2.8594 -1.6680 1.8203
v 2.8594 -1.6680 1.8203
v -1.4414 -2.6367 3.1914
v 1.4414 -2.6367 3.1914
v 0.0000 -2.8555 3.5938
f 1 2 3
f 17 1 3
f 19 17 3
f 19 3 5
f 21 19 5
f 20 21 5
f 9 20 5
f 9 5 4
f 4 6 9
f 9 6 8
f 9 8 18
f 9 18 20
f 16 20 18
f 21 20 16
f 21 16 19
f 17 19 16
f 15 17 16
f 14 15 16
f 15 14 11
f 15 11 10
f 15 10 17
f 17 10 1
f 1 10 2
f 10 11 2
f 12 11 14
f 13 12 14
f 12 13 7
f 6 12 7
f 6 7 8
f 8 7 18
f 13 18 7
f 18 13 16
f 14 16 13
f 3 2 4
f 4 5 3
