v 10.0000 59.6328 16.3633
v 13.8477 49.2578 19.6367
v 17.6992 55.4062 13.9688
v 24.0000 46.2188 9.0273
v 0.0000 61.1953 17.1914
v 0.0000 49.6016 23.3984
v 10.0000 64.5781 5.4883
v 0.0000 66.1797 5.7734
v 17.6992 59.4961 4.5898
v 26.2969 42.3867 -1.3477
v 24.0000 51.8516 -2.7031
v 24.0000 33.4336 9.0273
v 26.2969 33.4336 0.0000
v -10.0000 59.6328 16.3633
v -17.6992 55.4062 13.9688
v -13.8477 49.2578 19.6367
v -10.0000 64.5781 5.4883
v -17.6992 59.4961 4.5898
v -26.2969 42.3867 -1.3477
v -24.0000 46.2188 9.0273
v -24.0000 51.8516 -2.7031
v -26.2969 33.4336 0.0000
v -24.0000 33.4336 9.0273
f 1 2 3
f 6 2 1
f 5 6 1
f 5 14 6
f 5 8 14
f 1 8 5
f 7 8 1
f 1 3 7
f 7 3 9
f 3 4 9
f 3 2 4
f 10 11 4
f 4 12 10
f 10 12 13
f 9 4 11
f 14 15 16
f 14 16 6
f 14 8 17
f 14 17 15
f 17 18 15
f 15 18 20
f 15 20 16
f 19 20 21
f 20 19 23
f 19 22 23
f 18 21 20
