v 0.0000 9.6289 -19.1055
v 10.6641 23.1875 -28.1484
v 18.6641 15.5547 -13.8867
v 24.6484 33.4336 -15.0938
v 26.2969 33.4336 0.0000
v 26.2969 42.3867 -1.3477
v 24.0000 33.4336 9.0273
v 26.2969 33.4336 0.0000
v 24.0000 46.2188 9.0273
v -10.6641 23.1875 -28.1484
v -18.6641 15.5547 -13.8867
v -24.6484 33.4336 -15.0938
v -26.2969 33.4336 0.0000
v -26.2969 42.3867 -1.3477
v -26.2969 33.4336 0.0000
v -24.0000 33.4336 9.0273
v -24.0000 46.2188 9.0273
f 1 2 3
f 1 10 2
f 11 10 1
f 11 12 10
f 12 11 13
f 3 2 4
f 3 4 5
f 6 7 8
f 9 7 6
f 14 15 16
f 17 14 16
