v 26.2969 33.4336 0.0000
v 24.0000 46.2188 9.0273
v 24.0000 33.4336 9.0273
v -24.0000 46.2188 9.0273
v -26.2969 33.4336 0.0000
v -24.0000 33.4336 9.0273
v 10.0000 59.6328 16.3633
v 13.8477 49.2578 19.6367
v 17.6992 55.4062 13.9688
v 0.0000 61.1953 17.1914
v 0.0000 49.6016 23.3984
v 24.0000 46.2188 9.0273
v -10.0000 59.6328 16.3633
v -17.6992 55.4062 13.9688
v -13.8477 49.2578 19.6367
v -24.0000 46.2188 9.0273
f 1 2 3
f 4 5 6
f 7 8 9
f 11 8 7
f 10 11 7
f 10 13 11
f 13 15 11
f 13 14 15
f 15 14 16
f 8 12 9
