v 10.0000 59.6328 16.3633
v 13.8477 49.2578 19.6367
v 17.6992 55.4062 13.9688
v 24.0000 46.2188 9.0273
v 0.0000 61.1953 17.1914
v 0.0000 49.6016 23.3984
v 0.0000 22.6602 -29.5977
v 10.6641 19.6953 -25.1328
v 0.0000 9.6289 -19.1055
v 18.6641 15.5547 -13.8867
v 18.6641 24.7188 -23.9453
v 10.6641 33.4336 -31.6211
v 0.0000 45.4062 -32.8867
v 10.0000 44.8203 -31.2773
v 0.0000 33.4336 -33.2500
v 10.0000 65.5586 -5.6641
v 0.0000 63.7461 -17.5000
v 0.0000 67.2148 -5.9531
v 10.0000 64.5781 5.4883
v 0.0000 66.1797 5.7734
v 17.6992 59.4961 4.5898
v 10.0000 64.5781 5.4883
v 18.6641 43.1172 -24.8984
v 10.0000 54.8320 -25.4961
v 17.6992 56.7812 -14.9414
v 17.6992 59.4961 4.5898
v 26.2969 42.3867 -1.3477
v 24.0000 51.8516 -2.7031
v 24.6484 33.4336 -15.0938
v 26.2969 33.4336 0.0000
v 24.0000 43.6484 -12.1719
v 24.0000 51.8516 -2.7031
v 0.0000 55.9336 -26.8086
v 26.2969 42.3867 -1.3477
v 10.0000 62.2617 -16.6406
v 24.0000 33.4336 9.0273
v 26.2969 33.4336 0.0000
v -10.0000 59.6328 16.3633
v -17.6992 55.4062 13.9688
v -13.8477 49.2578 19.6367
v -10.6641 19.6953 -25.1328
v -18.6641 24.7188 -23.9453
v -18.6641 15.5547 -13.8867
v -10.6641 33.4336 -31.6211
v -10.0000 44.8203 -31.2773
v -10.0000 65.5586 -5.6641
v -10.0000 64.5781 5.4883
v -17.6992 59.4961 4.5898
v -10.0000 64.5781 5.4883
v -18.6641 43.1172 -24.8984
v -10.0000 54.8320 -25.4961
v -17.6992 56.7812 -14.9414
v -17.6992 59.4961 4.5898
v -26.2969 42.3867 -1.3477
v -24.0000 46.2188 9.0273
v -24.0000 51.8516 -2.7031
v -24.6484 33.4336 -15.0938
v -24.0000 43.6484 -12.1719
v -24.0000 51.8516 -2.7031
v -26.2969 33.4336 0.0000
v -26.2969 42.3867 -1.3477
v -10.0000 62.2617 -16.6406
v -26.2969 33.4336 0.0000
v -24.0000 33.4336 9.0273
v 0.0000 66.1797 5.7734
f 1 2 3
f 6 2 1
f 5 6 1
f 5 38 6
f 5 20 38
f 1 20 5
f 19 20 1
f 1 3 19
f 19 3 21
f 3 4 21
f 3 2 4
f 27 28 4
f 4 36 27
f 27 36 37
f 7 8 9
f 8 7 12
f 8 12 11
f 10 8 11
f 9 8 10
f 7 9 41
f 44 7 41
f 15 7 44
f 12 7 15
f 15 14 12
f 13 14 15
f 13 15 45
f 51 13 45
f 33 13 51
f 24 13 33
f 14 13 24
f 14 24 23
f 12 14 23
f 12 23 11
f 23 29 11
f 23 31 29
f 25 31 23
f 24 25 23
f 24 35 25
f 33 35 24
f 17 35 33
f 17 33 62
f 46 17 62
f 18 17 46
f 16 17 18
f 18 22 16
f 65 22 18
f 65 18 49
f 49 18 46
f 46 53 49
f 46 52 53
f 62 52 46
f 51 52 62
f 51 50 52
f 45 50 51
f 44 50 45
f 44 42 50
f 41 42 44
f 42 41 43
f 42 43 57
f 50 42 57
f 50 57 58
f 52 50 58
f 58 59 52
f 61 59 58
f 58 57 61
f 57 60 61
f 57 43 60
f 43 41 9
f 16 26 25
f 35 16 25
f 35 17 16
f 16 22 26
f 26 32 25
f 31 25 32
f 34 31 32
f 31 34 29
f 29 34 30
f 10 29 30
f 11 29 10
f 21 4 28
f 38 39 40
f 38 40 6
f 38 20 47
f 38 47 39
f 47 48 39
f 39 48 55
f 39 55 40
f 54 55 56
f 55 54 64
f 54 63 64
f 48 56 55
f 53 52 59
f 45 15 44
f 62 33 51
