v 10.0000 59.6328 16.3633
v 13.8477 49.2578 19.6367
v 17.6992 55.4062 13.9688
v 24.0000 46.2188 9.0273
v 0.0000 61.1953 17.1914
v 0.0000 49.6016 23.3984
v 26.2969 42.3867 -1.3477
v 24.0000 33.4336 9.0273
v 26.2969 33.4336 0.0000
v -10.0000 59.6328 16.3633
v -17.6992 55.4062 13.9688
v -13.8477 49.2578 19.6367
v -24.0000 46.2188 9.0273
v -26.2969 42.3867 -1.3477
v -26.2969 33.4336 0.0000
v -24.0000 33.4336 9.0273
f 1 2 3
f 6 2 1
f 5 6 1
f 5 10 6
f 10 12 6
f 10 11 12
f 11 13 12
f 13 14 16
f 14 15 16
f 3 2 4
f 4 8 7
f 7 8 9
