v 13.8477 49.2578 19.6367
v 19.2578 50.6797 13.2969
v 14.9062 54.0352 16.3398
v 8.5391 56.2891 17.6758
v 14.1641 62.4531 -3.2422
v 26.2969 33.4336 0.0000
v 21.2930 37.8008 -17.5000
v 22.2422 50.1797 -9.5742
v 24.0000 46.2188 9.0273
v 24.0000 33.4336 9.0273
v -13.8477 49.2578 19.6367
v 0.0000 49.6016 23.3984
v -8.5391 56.2891 17.6758
v -2.8438 57.0039 17.7852
v 2.8438 57.0039 17.7852
v -14.1641 62.4531 -3.2422
v -14.9062 54.0352 16.3398
v -26.2969 33.4336 0.0000
v -21.2930 37.8008 -17.5000
v -18.6641 15.5547 -13.8867
v -22.2422 50.1797 -9.5742
v -24.0000 46.2188 9.0273
v -19.2578 50.6797 13.2969
v -24.0000 33.4336 9.0273
v 0.0000 66.3516 0.8750
v 18.6641 15.5547 -13.8867
v 21.2930 37.8008 -17.5000
v -21.2930 37.8008 -17.5000
f 1 2 3
f 1 3 4
f 1 4 12
f 12 4 15
f 12 15 14
f 13 12 14
f 11 12 13
f 13 17 11
f 13 16 17
f 21 22 16
f 21 18 22
f 18 21 28
f 18 19 20
f 18 24 22
f 16 22 23
f 22 11 23
f 17 23 11
f 4 3 5
f 2 9 5
f 2 1 9
f 8 9 6
f 6 7 8
f 9 10 6
f 5 9 8
f 15 25 14
f 6 26 27
