v 10.0000 59.6328 16.3633
v 13.8477 49.2578 19.6367
v 17.6992 55.4062 13.9688
v 24.0000 46.2188 9.0273
v 0.0000 61.1953 17.1914
v 0.0000 49.6016 23.3984
v 0.0000 22.6602 -29.5977
v 10.6641 23.1875 -28.1484
v 0.0000 9.6289 -19.1055
v 18.6641 15.5547 -13.8867
v 18.6641 24.7188 -23.9453
v 10.6641 33.4336 -31.6211
v 18.6641 43.1172 -24.8984
v 24.6484 33.4336 -15.0938
v 26.2969 33.4336 0.0000
v 24.0000 43.6484 -12.1719
v 26.2969 42.3867 -1.3477
v 26.2969 42.3867 -1.3477
v 24.0000 33.4336 9.0273
v 26.2969 33.4336 0.0000
v -10.0000 59.6328 16.3633
v -17.6992 55.4062 13.9688
v -13.8477 49.2578 19.6367
v -10.6641 23.1875 -28.1484
v -18.6641 24.7188 -23.9453
v -18.6641 15.5547 -13.8867
v 0.0000 33.4336 -33.2500
v -10.6641 33.4336 -31.6211
v -18.6641 43.1172 -24.8984
v -24.6484 33.4336 -15.0938
v -24.0000 43.6484 -12.1719
v -26.2969 33.4336 0.0000
v -26.2969 42.3867 -1.3477
v -24.0000 46.2188 9.0273
v -26.2969 42.3867 -1.3477
v -26.2969 33.4336 0.0000
v -24.0000 33.4336 9.0273
f 1 2 3
f 6 2 1
f 5 6 1
f 5 21 6
f 21 23 6
f 21 22 23
f 22 34 23
f 34 35 37
f 35 36 37
f 3 2 4
f 4 19 18
f 18 19 20
f 7 8 9
f 8 7 12
f 8 12 11
f 10 8 11
f 9 8 10
f 7 9 24
f 28 7 24
f 27 7 28
f 12 7 27
f 12 13 11
f 13 14 11
f 13 16 14
f 16 17 14
f 14 17 15
f 10 14 15
f 11 14 10
f 25 24 26
f 25 26 30
f 29 25 30
f 28 25 29
f 24 25 28
f 26 24 9
f 30 26 32
f 30 32 33
f 31 30 33
f 29 30 31
