v 7.7305 57.8477 17.7109
v 13.8477 49.2578 19.6367
v 13.9688 58.2695 14.2266
v 24.0000 46.2188 9.0273
v 0.0000 57.1445 19.3594
v 0.0000 49.6016 23.3984
v 0.0000 18.3164 -26.1016
v 10.6641 19.0898 -24.8906
v 0.0000 9.6289 -19.1055
v 18.6641 15.5547 -13.8867
v 18.6641 21.6641 -20.5938
v 24.1641 27.3086 -10.3477
v 26.2969 33.4336 0.0000
v 19.7969 55.0703 6.0703
v -7.7305 57.8477 17.7109
v -13.9688 58.2695 14.2266
v -13.8477 49.2578 19.6367
v -10.6641 19.0898 -24.8906
v -18.6641 21.6641 -20.5938
v -18.6641 15.5547 -13.8867
v -19.7969 55.0703 6.0703
v -24.0000 46.2188 9.0273
v -24.1641 27.3086 -10.3477
v -26.2969 33.4336 0.0000
f 1 2 3
f 6 2 1
f 5 6 1
f 5 15 6
f 15 17 6
f 15 16 17
f 16 22 17
f 16 21 22
f 3 2 4
f 3 4 14
f 7 8 9
f 7 9 18
f 20 18 9
f 19 18 20
f 19 20 23
f 23 20 24
f 9 8 10
f 10 8 11
f 11 12 10
f 10 12 13
