v 10.0000 59.6328 16.3633
v 13.8477 49.2578 19.6367
v 17.6992 55.4062 13.9688
v 24.0000 46.2188 9.0273
v 0.0000 61.1953 17.1914
v 0.0000 49.6016 23.3984
v 10.0000 64.5781 5.4883
v 0.0000 66.1797 5.7734
v 17.6992 59.4961 4.5898
v -10.0000 59.6328 16.3633
v -17.6992 55.4062 13.9688
v -13.8477 49.2578 19.6367
v -10.0000 64.5781 5.4883
v -17.6992 59.4961 4.5898
v -24.0000 46.2188 9.0273
f 1 2 3
f 6 2 1
f 5 6 1
f 5 10 6
f 5 8 10
f 1 8 5
f 7 8 1
f 1 3 7
f 7 3 9
f 3 2 4
f 10 11 12
f 10 12 6
f 10 8 13
f 10 13 11
f 13 14 11
f 11 15 12
